<?xml version="1.0" encoding="UTF-8"?>
<svg xmlns="http://www.w3.org/2000/svg" xmlns:xlink="http://www.w3.org/1999/xlink" viewBox="0 0 3079.98 903.74">
  <defs>
    <style>
      .cls-1 {
        fill: url(#Degradado_sin_nombre_7-3);
      }

      .cls-2 {
        fill: #faa203;
      }

      .cls-3 {
        fill: url(#Degradado_sin_nombre_7-2);
      }

      .cls-4 {
        isolation: isolate;
      }

      .cls-5 {
        fill: url(#Degradado_sin_nombre_7-4);
      }

      .cls-6 {
        fill: #0aced5;
      }

      .cls-7 {
        mix-blend-mode: multiply;
        opacity: .5;
      }

      .cls-8 {
        fill: #ac027b;
      }

      .cls-9 {
        fill: url(#Degradado_sin_nombre_7);
      }
    </style>
    <linearGradient id="Degradado_sin_nombre_7" data-name="Degradado sin nombre 7" x1="2935.43" y1="782.71" x2="3033.19" y2="752.37" gradientUnits="userSpaceOnUse">
      <stop offset="0" stop-color="#0f0332"/>
      <stop offset="1" stop-color="#0f0332" stop-opacity="0"/>
    </linearGradient>
    <linearGradient id="Degradado_sin_nombre_7-2" data-name="Degradado sin nombre 7" x1="2675.51" y1="832.06" x2="2836" y2="811.63" xlink:href="#Degradado_sin_nombre_7"/>
    <linearGradient id="Degradado_sin_nombre_7-3" data-name="Degradado sin nombre 7" x1="-96.57" y1="832.01" x2="138.16" y2="825.58" xlink:href="#Degradado_sin_nombre_7"/>
    <linearGradient id="Degradado_sin_nombre_7-4" data-name="Degradado sin nombre 7" x1="179.22" y1="837.22" x2="39.4" y2="808.44" xlink:href="#Degradado_sin_nombre_7"/>
  </defs>
  <g class="cls-4">
    <g id="base3">
      <g>
        <g>
          <polygon class="cls-8" points="1690.99 657.98 50.64 657.98 0 846.5 75.24 854.73 85.07 890.31 259.34 903.74 364.23 870.19 2889.02 870.19 2942.14 896.23 3045.25 865.26 3013.99 811.23 3079.98 796.32 3037.12 657.98 1690.99 657.98"/>
          <g class="cls-7">
            <polygon class="cls-9" points="3005.81 811.23 2959.64 719.02 3059.01 800.53 3005.81 811.23"/>
            <polygon class="cls-3" points="2865.36 870.19 2818.15 751.61 2744.9 870.19 2865.36 870.19"/>
            <polygon class="cls-1" points="27.68 870.19 118.2 780.86 161.92 870.19 27.68 870.19"/>
            <polygon class="cls-5" points="75.24 854.73 85.07 774.73 31.73 849.97 75.24 854.73"/>
          </g>
        </g>
        <g>
          <g>
            <path class="cls-6" d="m80.58,677.15v157.4c0,12.63,10.25,22.88,22.88,22.88s22.91-10.25,22.91-22.88c0,12.63,10.25,22.88,22.88,22.88s22.88-10.25,22.88-22.88c0,12.63,10.25,22.88,22.91,22.88s22.91-10.25,22.91-22.88c0,12.63,10.25,22.88,22.88,22.88s22.88-10.25,22.88-22.88c0,12.63,10.28,22.88,22.91,22.88s22.88-10.25,22.88-22.88v-157.4H80.58Zm15.33,15.67h12.26l-12.26,12.29v-12.29Zm0,107.27l12.26,12.26h-12.26v-12.26Zm7.55,44.37c-4.17,0-7.55-3.38-7.55-7.55s3.38-7.55,7.55-7.55,7.55,3.38,7.55,7.55-3.38,7.55-7.55,7.55Zm45.79,0c-4.17,0-7.55-3.38-7.55-7.55s3.38-7.55,7.55-7.55,7.55,3.38,7.55,7.55-3.38,7.55-7.55,7.55Zm45.79,0c-4.17,0-7.55-3.38-7.55-7.55s3.38-7.55,7.55-7.55,7.55,3.38,7.55,7.55-3.38,7.55-7.55,7.55Zm45.79,0c-4.17,0-7.55-3.38-7.55-7.55s3.38-7.55,7.55-7.55,7.55,3.38,7.55,7.55-3.38,7.55-7.55,7.55Zm45.79,0c-4.17,0-7.55-3.38-7.55-7.55s3.38-7.55,7.55-7.55,7.55,3.38,7.55,7.55-3.38,7.55-7.55,7.55Zm7.55-32.1h-12.26l12.26-12.26v12.26Zm0-21.86l-21.4,21.4H117.31l-21.4-21.4v-76.27l21.4-21.4h155.44l21.4,21.4v76.27Zm0-85.38l-12.26-12.29h12.26v12.29Z"/>
            <g>
              <path class="cls-6" d="m195.03,703.03c-30.54,0-55.29,24.75-55.29,55.27v53.59h110.59v-53.59c0-30.51-24.75-55.27-55.29-55.27Zm22.91,86.24v13.82h-45.81v-13.82c-6.3-2.41-25.29-10.93-24.5-25.52,1.11-20.07,14.96-51.95,47.4-51.95s46.3,31.88,47.4,51.95c.79,14.59-18.2,23.11-24.5,25.52Z"/>
              <path class="cls-6" d="m195.03,714.65c-33.02,0-43.73,34.14-44.56,49.26-.83,15.12,24.48,23.36,24.48,23.36v13h7.77v-9.43h1.65v9.43h9.83v-9.43h1.65v9.43h9.83v-9.43h1.65v9.43h7.77v-13s25.31-8.24,24.48-23.36c-.83-15.12-11.55-49.26-44.56-49.26Zm-20.74,63.88c-8.6.56-14.32-5.62-14.62-12.01-.26-6.38,3.14-13.73,12.01-14.59,7.51-.73,13.46,4.73,14.29,12.41.76,7.05-4.27,13.73-11.68,14.19Zm25.31-3.44c-2.35,2.55-4.07-3.47-4.07-3.47,0,0-1.75,6.02-4.14,3.47-1.22-1.36,2.18-11.21,4.14-11.21s5.36,9.86,4.07,11.21Zm19.98,3.44c-8.6.56-14.29-5.62-14.59-12.01-.3-6.38,3.14-13.73,12.01-14.59,7.48-.73,13.46,4.73,14.29,12.41.76,7.05-4.27,13.73-11.71,14.19Z"/>
            </g>
            <g>
              <g>
                <polygon class="cls-6" points="140.79 692.81 138.94 694.69 137.35 696.25 124.52 709.11 122.93 710.67 110.1 723.53 108.51 725.09 95.91 737.69 95.91 734.54 106.95 723.53 108.51 721.94 137.35 693.1 137.64 692.81 140.79 692.81"/>
                <polygon class="cls-6" points="169.63 692.81 166.19 696.25 153.36 709.11 151.77 710.67 138.94 723.53 137.35 725.09 124.52 737.95 122.93 739.51 110.1 752.37 108.51 753.93 95.91 766.56 95.91 763.38 106.95 752.37 108.51 750.78 121.37 737.95 122.93 736.36 137.35 721.94 150.18 709.11 151.77 707.52 164.63 694.69 166.19 693.1 166.48 692.81 169.63 692.81"/>
                <path class="cls-6" d="m140.85,747.29c-.26,1.25-.48,2.5-.62,3.77l-1.28,1.31-1.59,1.56-12.83,12.86-1.59,1.56-12.83,12.86-1.59,1.56-12.6,12.6v-3.12l11.04-11.04,1.56-1.59,12.86-12.83,1.56-1.59,12.86-12.83,1.56-1.59,3.49-3.49Z"/>
                <path class="cls-6" d="m198.5,692.81l-1.87,1.87-1.59,1.56-7.27,7.27c-1.28.17-2.53.37-3.78.62l11.33-11.33h3.18Z"/>
                <polygon class="cls-6" points="139.74 777.2 139.74 780.38 138.94 781.21 137.35 782.77 124.52 795.63 122.93 797.19 107.78 812.35 104.6 812.35 121.34 795.6 122.93 794.04 135.76 781.18 137.35 779.62 139.74 777.2"/>
                <path class="cls-6" d="m227.34,692.81l-1.87,1.87-1.59,1.56-10.05,10.05c-.79-.28-1.59-.54-2.38-.77l10.84-10.84,1.59-1.59.28-.28h3.18Z"/>
                <polygon class="cls-6" points="139.74 806.07 139.74 809.22 138.94 810.05 137.35 811.61 136.62 812.35 133.44 812.35 135.76 810.02 137.35 808.46 139.74 806.07"/>
                <path class="cls-6" d="m256.18,692.81l-1.87,1.87-1.59,1.56-12.83,12.86-1.59,1.56-6.44,6.44c-.54-.54-1.11-1.02-1.67-1.5l6.53-6.53,1.59-1.56,12.83-12.86,1.59-1.56.28-.28h3.18Z"/>
                <polygon class="cls-6" points="165.91 811.89 165.46 812.35 162.31 812.35 162.76 811.89 165.91 811.89"/>
                <path class="cls-6" d="m285.02,692.81l-16.29,16.29-1.59,1.56-12.83,12.86-1.59,1.59-8.32,8.29c-.34-.71-.71-1.39-1.08-2.07l9.4-9.4,12.86-12.83,1.56-1.59,14.7-14.7h3.18Z"/>
                <polygon class="cls-6" points="194.75 811.89 194.3 812.35 191.12 812.35 191.57 811.89 194.75 811.89"/>
                <path class="cls-6" d="m294.16,709.33v3.18l-11.01,11.01-1.59,1.56-12.83,12.86-1.59,1.56-12.83,12.86-1.59,1.56-2.44,2.44c0-.99-.09-1.99-.17-2.98l17.03-17.03,12.83-12.86,1.59-1.56,12.6-12.6Z"/>
                <polygon class="cls-6" points="223.59 811.89 223.14 812.35 219.98 812.35 220.44 811.89 223.59 811.89"/>
                <polygon class="cls-6" points="294.16 738.15 294.16 741.33 283.14 752.37 281.55 753.93 268.72 766.79 267.13 768.35 254.3 781.18 252.71 782.77 250.33 785.15 250.33 781.97 252.71 779.59 265.54 766.76 267.13 765.2 279.96 752.37 281.55 750.78 294.16 738.15"/>
                <polygon class="cls-6" points="294.16 767.01 294.16 770.17 283.14 781.21 281.55 782.77 267.13 797.19 254.3 810.05 252.71 811.61 251.98 812.35 248.82 812.35 249.28 811.89 250.33 811.89 250.33 810.84 251.12 810.05 252.71 808.46 265.57 795.63 267.13 794.04 279.96 781.21 294.16 767.01"/>
              </g>
              <g>
                <polygon class="cls-6" points="294.16 734.54 294.16 737.69 279.96 723.5 267.13 710.67 265.57 709.11 252.71 696.25 251.12 694.66 249.28 692.81 252.43 692.81 294.16 734.54"/>
                <polygon class="cls-6" points="294.16 763.38 294.16 766.56 281.55 753.93 279.96 752.37 267.13 739.51 265.54 737.95 251.12 723.53 238.29 710.67 223.87 696.25 222.28 694.69 220.41 692.81 223.59 692.81 223.87 693.1 225.46 694.69 238.29 707.52 239.88 709.11 252.71 721.94 268.72 737.95 281.55 750.78 294.16 763.38"/>
                <path class="cls-6" d="m206.08,704.14c-1.25-.26-2.53-.48-3.8-.62l-7.24-7.27-1.59-1.56-1.87-1.87h3.18l11.33,11.33Z"/>
                <path class="cls-6" d="m294.16,792.22v3.15l-12.6-12.6-1.59-1.56-12.83-12.86-14.42-14.42-1.59-1.56-1.28-1.31c-.14-1.28-.37-2.53-.62-3.77l44.93,44.93Z"/>
                <path class="cls-6" d="m178.63,705.53c-.79.23-1.59.48-2.38.77l-10.05-10.05-1.56-1.56-1.87-1.87h3.15l.28.28,1.59,1.56,10.84,10.87Z"/>
                <polygon class="cls-6" points="285.47 812.35 282.29 812.35 267.13 797.19 265.57 795.63 252.71 782.77 251.12 781.18 250.33 780.38 250.33 777.2 252.71 779.59 254.3 781.18 267.13 794.04 268.72 795.6 285.47 812.35"/>
                <path class="cls-6" d="m159.86,715.64c-.57.48-1.11.94-1.65,1.48l-6.44-6.44-1.59-1.56-12.83-12.86-1.59-1.56-1.87-1.87h3.18l16.29,16.29,6.5,6.53Z"/>
                <polygon class="cls-6" points="256.6 812.35 253.45 812.35 252.71 811.61 251.12 810.05 250.33 809.25 250.33 806.07 256.6 812.35"/>
                <path class="cls-6" d="m146.75,731.33c-.37.68-.74,1.36-1.08,2.07l-8.32-8.32-1.59-1.56-12.83-12.86-1.59-1.56-16.29-16.29h3.18l16.29,16.29,12.83,12.83,9.4,9.4Z"/>
                <polygon class="cls-6" points="227.76 812.35 224.61 812.35 224.16 811.89 227.31 811.89 227.76 812.35"/>
                <path class="cls-6" d="m139.97,753.39c-.09.99-.17,1.99-.17,2.98l-31.28-31.28-1.56-1.56-11.04-11.04v-3.15l14.19,14.19,12.83,12.83,17.03,17.03Z"/>
                <polygon class="cls-6" points="198.92 812.35 195.77 812.35 195.32 811.89 198.47 811.89 198.92 812.35"/>
                <polygon class="cls-6" points="139.74 782 139.74 785.15 137.35 782.77 135.76 781.18 122.93 768.35 121.37 766.79 108.51 753.93 95.91 741.33 95.91 738.17 110.1 752.37 122.93 765.2 124.52 766.79 137.35 779.62 139.74 782"/>
                <polygon class="cls-6" points="170.08 812.35 166.93 812.35 166.48 811.89 169.63 811.89 170.08 812.35"/>
                <polygon class="cls-6" points="141.24 812.35 138.09 812.35 108.51 782.77 106.95 781.21 95.91 770.17 95.91 767.01 110.1 781.21 122.93 794.04 138.94 810.05 139.74 810.84 139.74 811.89 140.79 811.89 141.24 812.35"/>
              </g>
            </g>
          </g>
          <g>
            <g>
              <path class="cls-2" d="m321.48,677.15v157.4c0,12.63,10.25,22.88,22.88,22.88s22.91-10.25,22.91-22.88c0,3.97,1.02,7.72,2.78,10.96.37.68.77,1.31,1.22,1.93v.03c3.58,5.22,9.28,8.91,15.9,9.76.97.14,1.96.2,2.95.2h.03c9.17,0,17.09-5.39,20.75-13.17.31-.74.62-1.5.88-2.27.82-2.33,1.25-4.83,1.25-7.44,0,4.51,1.31,8.71,3.58,12.26,1.25,1.96,2.78,3.75,4.57,5.25.6.48,1.19.94,1.82,1.36.23.17.43.31.65.43,3.55,2.27,7.78,3.58,12.29,3.58s8.74-1.31,12.29-3.58c.23-.11.45-.28.68-.43.62-.43,1.22-.88,1.79-1.36,1.79-1.5,3.32-3.29,4.57-5.25,2.27-3.55,3.58-7.75,3.58-12.26,0,2.61.43,5.11,1.25,7.44.26.77.57,1.53.88,2.27,3.66,7.78,11.58,13.17,20.75,13.17h.03c1.02,0,2.02-.06,2.98-.2,6.59-.85,12.29-4.54,15.9-9.76.43-.62.82-1.28,1.19-1.96,1.76-3.24,2.78-6.98,2.78-10.96,0,12.63,10.28,22.88,22.91,22.88s22.88-10.25,22.88-22.88v-157.4h-228.9Zm201.31,15.67h12.26v12.29l-10.7-10.73-1.56-1.56Zm-175.25,1.56l-10.73,10.73v-12.29h12.26l-1.53,1.56Zm1.53,117.97h-12.26v-12.26l12.26,12.26Zm-4.71,32.1c-4.17,0-7.55-3.38-7.55-7.55s3.38-7.55,7.55-7.55c3.52,0,6.47,2.41,7.32,5.68.14.6.23,1.22.23,1.87,0,.4-.03.79-.09,1.16-.57,3.63-3.69,6.39-7.47,6.39Zm38.24-7.55c0-.28.03-.57.03-.82.4-3.52,3.18-6.3,6.7-6.7.26,0,.54-.03.82-.03,4.17,0,7.55,3.38,7.55,7.55s-3.38,7.55-7.55,7.55-7.55-3.38-7.55-7.55Zm53.34,7.55c-1.16,0-2.27-.26-3.24-.74-.71-.34-1.36-.77-1.9-1.28-1.48-1.39-2.41-3.35-2.41-5.54,0-1.16.26-2.27.74-3.26.34-.68.77-1.33,1.31-1.87,1.36-1.48,3.32-2.41,5.51-2.41s4.14.94,5.54,2.41c.51.57.97,1.19,1.28,1.9.48.97.74,2.07.74,3.24,0,2.19-.94,4.14-2.41,5.51-.54.54-1.16.97-1.87,1.31-.99.48-2.1.74-3.26.74Zm53.34-7.55c0,4.17-3.38,7.55-7.55,7.55s-7.55-3.38-7.55-7.55,3.38-7.55,7.55-7.55c.28,0,.57.03.82.03,3.52.4,6.3,3.18,6.7,6.7,0,.26.03.54.03.82Zm38.24,7.55c-3.78,0-6.93-2.78-7.47-6.42-.06-.37-.09-.74-.09-1.14,0-.65.09-1.28.23-1.87.85-3.26,3.8-5.68,7.32-5.68,4.17,0,7.55,3.38,7.55,7.55s-3.38,7.55-7.55,7.55Zm7.55-44.37v12.26h-12.26l12.26-12.26Zm0-85.87v76.27l-.85.88-1.59,1.56-18.96,18.96h-155.44l-4.54-4.54-1.56-1.56-12.86-12.86-1.56-1.56-.88-.88v-76.27l.88-.85,1.56-1.59,12.86-12.83,1.56-1.59,4.54-4.54h155.44l21.4,21.4Z"/>
              <g>
                <g>
                  <polygon class="cls-2" points="381.68 692.81 378.25 696.25 365.42 709.11 363.83 710.67 336.81 737.69 336.81 734.54 347.85 723.53 349.41 721.94 362.27 709.11 363.83 707.52 376.69 694.69 378.25 693.1 378.53 692.81 381.68 692.81"/>
                  <polygon class="cls-2" points="410.52 692.81 408.68 694.69 407.09 696.25 394.26 709.08 392.67 710.67 379.84 723.53 378.25 725.09 365.42 737.95 363.83 739.51 351 752.37 349.41 753.93 336.81 766.56 336.81 763.38 347.85 752.37 349.41 750.78 362.27 737.95 363.83 736.36 376.69 723.53 378.25 721.94 391.11 709.11 392.67 707.52 405.53 694.69 407.09 693.1 407.37 692.81 410.52 692.81"/>
                  <path class="cls-2" d="m385.89,746.32l-6.05,6.05-1.59,1.56-14.42,14.42-12.83,12.86-1.59,1.56-12.6,12.6v-3.12l11.04-11.04,1.56-1.59,12.86-12.83,1.56-1.59,12.86-12.83,1.56-1.59,6.33-6.33c.4.68.82,1.31,1.31,1.87Z"/>
                  <path class="cls-2" d="m439.39,692.81l-1.87,1.87-1.59,1.56-3.43,3.46c-.45-.2-.94-.45-1.45-.77-.2-.11-.43-.23-.62-.34l3.95-3.92,1.56-1.59.28-.28h3.18Z"/>
                  <path class="cls-2" d="m386.6,774.42l-6.76,6.76-1.59,1.59-12.83,12.86-1.59,1.56-14.96,14.96-.2.2h-3.15l1.79-1.76,14.96-14.96,1.56-1.59,12.86-12.83,1.56-1.59,6.67-6.67c.48.54,1.05,1.05,1.67,1.48Z"/>
                  <path class="cls-2" d="m468.2,692.81l-1.85,1.84-10.84,10.84c-.28-.74-.65-1.45-1.05-2.1l8.74-8.71,1.56-1.59.28-.28h3.15Z"/>
                  <path class="cls-2" d="m397.98,791.91l-3.72,3.72-1.59,1.56-12.83,12.86-1.59,1.56-.26.28-.45.45h-3.18l.45-.45,1.87-1.85,1.56-1.59,12.86-12.83,1.56-1.59,3.26-3.26c.14.11.28.23.43.31.51.31,1.05.6,1.62.82Z"/>
                  <path class="cls-2" d="m497.04,692.81l-21.12,21.12c-.14-.11-.28-.23-.43-.31-.48-.31-1.02-.6-1.59-.82l3.72-3.69,1.56-1.59,12.86-12.83,1.56-1.59.28-.28h3.15Z"/>
                  <path class="cls-2" d="m417.42,801.28l-11.07,11.07h-3.15l.45-.45,1.87-1.85,1.56-1.59,9.25-9.25c.31.74.65,1.42,1.08,2.07Z"/>
                  <path class="cls-2" d="m525.91,692.81l-16.29,16.29-1.59,1.56-12.83,12.86-1.59,1.56-6.64,6.67c-.48-.57-1.08-1.05-1.7-1.48l6.78-6.76,1.56-1.59,12.86-12.83,1.56-1.59,14.7-14.7h3.18Z"/>
                  <path class="cls-2" d="m441.46,806.07l-3.95,3.95-1.59,1.59-.28.28-.45.45h-3.15l.45-.45,1.87-1.85,1.56-1.59,3.46-3.46c.45.2.94.45,1.45.77.2.11.43.23.62.31Z"/>
                  <path class="cls-2" d="m458.24,789.3l-1.42,1.42c-.09-.85-.26-1.76-.45-2.7l.2-.2c.57.57,1.11,1.02,1.67,1.48Z"/>
                  <path class="cls-2" d="m535.05,709.33v3.18l-.85.85-10.16,10.13-1.59,1.59-12.83,12.83-1.59,1.59-12.83,12.86-1.59,1.56-6.3,6.3c-.4-.65-.85-1.28-1.31-1.85l6.05-6.02,1.56-1.59,12.86-12.83,1.56-1.59,12.86-12.83,1.56-1.59,10.16-10.16,2.44-2.44Z"/>
                  <polygon class="cls-2" points="535.05 738.17 535.05 741.33 524.04 752.37 522.45 753.93 509.62 766.79 508.03 768.35 495.2 781.18 493.61 782.77 480.78 795.63 479.19 797.19 466.36 810.05 464.77 811.61 464.51 811.89 464.06 812.35 460.88 812.35 461.33 811.89 463.21 810.05 464.77 808.46 477.63 795.63 479.19 794.04 492.05 781.21 493.61 779.62 506.47 766.79 508.03 765.2 520.89 752.37 522.45 750.78 535.05 738.17"/>
                  <polygon class="cls-2" points="535.05 767.01 535.05 770.19 524.04 781.21 522.45 782.77 509.62 795.6 508.03 797.19 495.2 810.05 493.61 811.61 492.9 812.35 489.72 812.35 492.05 810.05 493.61 808.46 506.47 795.63 508.03 794.04 520.89 781.21 522.45 779.62 535.05 767.01"/>
                </g>
                <g>
                  <polygon class="cls-2" points="535.05 734.51 535.05 737.69 522.45 725.09 520.89 723.53 508.03 710.67 506.47 709.11 493.61 696.25 492.05 694.69 490.17 692.81 493.35 692.81 493.61 693.1 495.2 694.66 508.03 707.52 509.62 709.11 522.45 721.94 524.04 723.5 535.05 734.51"/>
                  <polygon class="cls-2" points="535.05 763.38 535.05 766.53 463.21 694.69 461.33 692.81 464.51 692.81 464.77 693.1 466.36 694.66 479.19 707.52 480.78 709.08 493.61 721.94 495.2 723.53 508.03 736.36 509.62 737.92 522.45 750.78 535.05 763.38"/>
                  <path class="cls-2" d="m441.44,698.61c-.23.08-.45.23-.68.34-.48.28-.94.54-1.36.77l-3.46-3.46-1.56-1.56-1.87-1.87h3.15l.28.28,5.51,5.51Z"/>
                  <path class="cls-2" d="m458.24,715.41c-.57.45-1.11.94-1.67,1.48l-.2-.2c.23-.94.37-1.85.45-2.7l1.42,1.42Z"/>
                  <path class="cls-2" d="m535.05,792.22v3.15l-2.44-2.44-10.16-10.16-1.56-1.56-12.86-12.86-1.56-1.56-12.86-12.86-1.56-1.56-6.07-6.07c.48-.57.91-1.19,1.31-1.85l6.33,6.33,1.59,1.59,12.83,12.83,1.59,1.59,12.83,12.83,12.6,12.6Z"/>
                  <path class="cls-2" d="m417.39,703.4c-.4.65-.77,1.36-1.05,2.1l-12.69-12.69h3.15l10.59,10.59Z"/>
                  <path class="cls-2" d="m526.37,812.35h-3.18l-37.92-37.92c.65-.43,1.22-.94,1.67-1.5l6.67,6.7,1.59,1.56,12.83,12.86,1.59,1.56,16.75,16.75Z"/>
                  <path class="cls-2" d="m398.01,712.83c-.77.31-1.45.68-2.07,1.11l-3.26-3.26-1.56-1.56-12.86-12.86-1.56-1.56-1.87-1.87h3.18l.26.28,1.59,1.56,12.83,12.86,1.59,1.56,3.75,3.75Z"/>
                  <path class="cls-2" d="m497.5,812.35h-3.15l-.74-.74-1.56-1.56-12.86-12.86-5.28-5.28c.57-.26,1.11-.54,1.59-.85.14-.09.28-.2.43-.28l21.57,21.57Z"/>
                  <path class="cls-2" d="m386.62,730.31c-.65.4-1.22.91-1.7,1.45l-6.67-6.67-1.56-1.56-12.86-12.86-17.85-17.85h3.15l16.29,16.29,12.83,12.83,8.37,8.37Z"/>
                  <path class="cls-2" d="m468.66,812.35h-3.15l-.45-.45-.28-.28-10.3-10.3c.43-.65.77-1.36,1.05-2.1l10.84,10.84,1.85,1.85.45.45Z"/>
                  <path class="cls-2" d="m385.89,758.39c-.48.6-.91,1.22-1.31,1.87l-22.31-22.31-12.86-12.86-1.56-1.56-10.16-10.16-.88-.88v-3.15l12.6,12.6,1.59,1.56,12.83,12.86,16.01,16.01,6.05,6.02Z"/>
                  <path class="cls-2" d="m415.52,788.02c-.23.96-.37,1.87-.45,2.72l-1.45-1.45c.57-.43,1.14-.91,1.7-1.45l.2.17Z"/>
                  <path class="cls-2" d="m439.85,812.35h-3.18l-.74-.74-1.56-1.56-3.95-3.95c.23-.09.45-.2.68-.34.48-.28.96-.54,1.39-.77l3.43,3.46,1.59,1.56,2.33,2.33Z"/>
                  <polygon class="cls-2" points="410.98 812.35 407.83 812.35 407.37 811.89 407.09 811.61 405.53 810.05 392.67 797.19 391.11 795.63 378.25 782.77 376.69 781.21 363.83 768.35 336.81 741.33 336.81 738.15 349.41 750.78 363.83 765.2 365.42 766.76 378.25 779.62 379.84 781.18 392.67 794.04 394.26 795.63 407.09 808.46 408.68 810.02 410.52 811.89 410.98 812.35"/>
                  <polygon class="cls-2" points="382.14 812.35 378.99 812.35 362.27 795.63 349.41 782.77 347.85 781.21 336.81 770.17 336.81 767.01 382.14 812.35"/>
                </g>
              </g>
            </g>
            <g>
              <path class="cls-2" d="m482.51,755.04c-1.48-1.11-3.52-1.99-5.88-2.7,2.36-.71,4.4-1.59,5.85-2.67,3.29-2.38,7.04-7.1,6.78-12.32-.2-3.18-1.87-5.9-4.68-7.52-2.55-1.45-3.83-2.78-4.09-3.12l-.06-.06c-.2-.43-.74-2.24-.71-5.22.03-3.24-1.5-6.07-4.23-7.81-1.85-1.16-4.2-1.82-6.78-1.82-2.38,0-4.97.54-7.18,1.53-1.7.77-3.46,2.07-5.25,3.8.57-2.38.82-4.6.62-6.47-.68-6.3-4.94-13-11.47-13-1.62,0-3.18.43-4.68,1.28-2.53,1.5-4.31,1.96-4.74,2.02h-.06c-.51-.06-2.3-.48-4.91-2.02-1.48-.85-3.01-1.28-4.63-1.28-6.53,0-10.79,6.7-11.47,13-.2,1.87.06,4.06.62,6.44-1.76-1.7-3.52-3.01-5.22-3.75-2.27-.97-4.8-1.5-7.24-1.5-6.47,0-10.99,3.92-10.99,9.62.03,2.92-.48,4.71-.65,5.11l-.06.06c-.28.4-1.42,1.62-3.8,3.01-2.33,1.39-4.26,3.55-4.8,6.19-1.22,5.82,2.95,11.21,6.56,13.85,1.45,1.11,3.49,1.99,5.88,2.67-2.38.68-4.43,1.56-5.88,2.67-3.29,2.38-7.04,7.1-6.76,12.32.2,3.18,1.87,5.9,4.68,7.52,2.64,1.5,3.92,2.87,4.09,3.15.23.37.77,2.16.74,5.25,0,3.24,1.53,6.07,4.23,7.81,1.87,1.16,4.2,1.82,6.76,1.82s5.02-.54,7.24-1.53c1.7-.77,3.46-2.07,5.25-3.78-.57,2.38-.82,4.57-.62,6.42.68,6.3,4.94,13.03,11.47,13.03,1.62,0,3.18-.43,4.66-1.28,2.53-1.5,4.34-1.96,4.77-2.02h.06c.51.06,2.3.48,4.91,2.02,1.42.85,2.98,1.28,4.6,1.28,6.53,0,10.81-6.73,11.47-13,.2-1.87-.06-4.09-.65-6.47,1.79,1.7,3.55,3.01,5.25,3.78,2.24.97,4.83,1.5,7.21,1.5,2.61,0,4.94-.6,6.78-1.79,2.72-1.7,4.26-4.54,4.26-7.83-.03-3.04.51-4.83.68-5.14.23-.37,1.5-1.76,4.2-3.26,2.75-1.59,4.43-4.31,4.63-7.49.28-5.22-3.49-9.91-6.76-12.29Zm-21.15-37.07c1.76-.79,3.78-1.22,5.68-1.22s3.6.43,4.88,1.25c1.76,1.14,2.75,2.9,2.72,5-.03,3.58.68,5.76,1.05,6.42.37.62,1.9,2.33,5,4.06,1.82,1.05,2.87,2.75,2.98,4.8.2,3.61-2.5,7.27-5.25,9.28-5.28,3.89-20.15,4.46-28.58,4.46-1.9,0-3.15-.06-3.35-.06l-.57-5.19c-.03-.09-.09-.17-.14-.23l-3.97-2.92c-.11-.08-.17-.26-.09-.43,1.28-2.41,12.09-21.94,19.64-25.21Zm-18.2,34.37c0,4-3.24,7.24-7.24,7.24s-7.21-3.24-7.21-7.24,3.24-7.21,7.21-7.21,7.24,3.24,7.24,7.21Zm-24.33-39.2c.54-4.83,3.69-9.82,8.06-9.82,1.05,0,2.04.28,2.98.82,3.07,1.82,5.31,2.3,6.05,2.3s2.98-.48,6.02-2.27c.97-.57,1.96-.85,3.01-.85,4.37,0,7.52,5,8.06,9.82.91,8.17-10.56,27.31-12.04,29.63-.09.14-.26.17-.43.11l-4.48-1.96c-.09-.03-.2-.03-.28,0l-4.48,1.96c-.17.06-.34.03-.43-.11-1.48-2.33-12.94-21.46-12.04-29.63Zm-25.41,34.4c-2.75-2.02-5.45-5.65-5.25-9.25.11-2.04,1.16-3.75,2.98-4.8,3.09-1.76,4.63-3.43,5-4.09s1.08-2.81,1.05-6.36c0-3.78,3.07-6.27,7.61-6.27,1.9,0,3.92.43,5.71,1.19,7.49,3.29,18.31,22.79,19.64,25.21.09.17.03.34-.09.43l-3.97,2.95c-.06.06-.11.14-.14.23l-.6,5.17c-.2.03-1.45.09-3.35.09-8.4,0-23.3-.6-28.58-4.48Zm17.09,39.2c-1.76.8-3.8,1.22-5.71,1.22s-3.58-.43-4.88-1.25c-1.76-1.14-2.73-2.9-2.73-5,.03-3.58-.65-5.76-1.02-6.39-.4-.65-1.9-2.36-5-4.09-1.82-1.05-2.87-2.75-2.98-4.83-.2-3.58,2.5-7.24,5.25-9.25,5.25-3.89,20.15-4.46,28.58-4.46,1.87,0,3.12.06,3.35.06l.57,5.19c.03.09.09.17.14.23l3.97,2.92c.11.08.17.26.09.43-1.28,2.41-12.12,21.94-19.64,25.21Zm42.49,4.83c-.51,4.83-3.69,9.82-8.06,9.82-1.02,0-2.02-.28-2.95-.82-3.09-1.82-5.31-2.3-6.05-2.3s-2.98.48-6.05,2.27c-.97.57-1.96.85-2.98.85-4.37,0-7.52-5-8.06-9.82-.91-8.12,10.56-27.28,12.01-29.63.09-.14.26-.17.43-.11l4.51,1.96c.09.03.2.03.28,0l4.48-1.96c.17-.06.34-.03.43.11,1.45,2.36,12.92,21.52,12.01,29.63Zm27.7-20.35c-3.12,1.76-4.66,3.43-5.02,4.09-.37.65-1.05,2.81-1.02,6.36,0,2.13-.97,3.92-2.72,5.02-1.31.82-2.98,1.25-4.91,1.25s-3.92-.43-5.68-1.19c-7.52-3.29-18.34-22.79-19.64-25.21-.08-.17-.03-.34.09-.43l3.97-2.95c.06-.06.11-.14.14-.23l.57-5.17c.23-.03,1.45-.09,3.35-.09,8.4,0,23.33.6,28.61,4.49,2.72,2.02,5.42,5.65,5.22,9.25-.11,2.04-1.16,3.75-2.95,4.8Z"/>
              <g>
                <path class="cls-2" d="m443.07,725.55c.28-1.22.2-5.23-2.27-5.66-2.47-.43-4.87,3.47-4.87,3.47,0,0-2.4-3.9-4.87-3.47-2.47.43-2.55,4.44-2.27,5.66.31,1.15,4.41,15.25,4.51,15.78-.56-.77-12.44-20.63-11.63-27.87.46-4.21,3.52-8.75,6.78-6.86,3.24,1.91,5.99,2.68,7.47,2.68s4.23-.77,7.47-2.68c3.26-1.89,6.32,2.65,6.78,6.86.82,7.24-11.07,27.11-11.63,27.87.1-.54,4.21-14.64,4.51-15.78Z"/>
                <path class="cls-2" d="m416.29,732.77c-.92-.85-4.42-2.79-6.04-.87-1.61,1.93.57,5.95.57,5.95,0,0-4.58.13-5.44,2.48-.86,2.36,2.57,4.43,3.77,4.8,1.15.31,15.41,3.8,15.93,3.98-.94.1-24.09.46-29.95-3.87-3.41-2.5-5.81-7.42-2.55-9.3,3.28-1.85,5.31-3.85,6.05-5.13.74-1.28,1.45-4.05,1.42-7.81,0-3.77,5.46-4.15,9.33-2.44,6.68,2.91,17.94,23.14,18.32,24.01-.41-.36-10.57-10.96-11.41-11.8Z"/>
                <path class="cls-2" d="m409.16,759.58c-1.2.37-4.63,2.44-3.77,4.8.86,2.36,5.44,2.48,5.44,2.48,0,0-2.18,4.03-.57,5.95,1.61,1.93,5.12-.01,6.04-.87.84-.84,11-11.45,11.41-11.8-.38.87-11.64,21.09-18.32,24.01-3.87,1.71-9.33,1.33-9.33-2.44.04-3.76-.68-6.53-1.42-7.81-.74-1.28-2.78-3.28-6.05-5.13-3.27-1.88-.87-6.8,2.55-9.3,5.86-4.33,29.01-3.97,29.95-3.87-.51.18-14.78,3.67-15.93,3.98Z"/>
                <path class="cls-2" d="m428.81,779.16c-.28,1.22-.2,5.23,2.27,5.66,2.47.43,4.87-3.47,4.87-3.47,0,0,2.4,3.9,4.87,3.47,2.47-.43,2.55-4.44,2.27-5.66-.31-1.15-4.41-15.25-4.51-15.78.56.77,12.44,20.63,11.63,27.87-.46,4.21-3.52,8.75-6.78,6.86-3.24-1.91-5.99-2.68-7.47-2.68s-4.23.76-7.47,2.68c-3.26,1.89-6.32-2.65-6.78-6.86-.82-7.24,11.07-27.11,11.63-27.87-.1.54-4.21,14.64-4.51,15.78Z"/>
                <path class="cls-2" d="m455.59,771.93c.92.85,4.42,2.79,6.04.87,1.61-1.93-.57-5.95-.57-5.95,0,0,4.58-.13,5.44-2.48.86-2.36-2.57-4.43-3.77-4.8-1.15-.31-15.41-3.8-15.93-3.98.94-.1,24.09-.46,29.95,3.87,3.41,2.5,5.81,7.42,2.55,9.3-3.28,1.85-5.31,3.85-6.05,5.13-.74,1.28-1.45,4.05-1.42,7.81,0,3.77-5.46,4.15-9.33,2.44-6.68-2.91-17.94-23.14-18.32-24.01.41.36,10.57,10.96,11.41,11.8Z"/>
                <path class="cls-2" d="m462.72,745.12c1.2-.37,4.63-2.44,3.77-4.8-.86-2.36-5.44-2.48-5.44-2.48,0,0,2.18-4.03.57-5.95-1.61-1.93-5.12.01-6.04.87-.84.84-11,11.45-11.41,11.8.38-.87,11.64-21.09,18.32-24.01,3.87-1.71,9.33-1.33,9.33,2.44-.04,3.76.68,6.53,1.42,7.81.74,1.28,2.78,3.28,6.05,5.13,3.27,1.88.87,6.8-2.55,9.3-5.86,4.33-29.01,3.97-29.95,3.87.51-.18,14.78-3.67,15.93-3.98Z"/>
              </g>
            </g>
          </g>
          <g>
            <path class="cls-6" d="m562.37,677.15v157.4c0,12.63,10.25,22.88,22.88,22.88s22.91-10.25,22.91-22.88c0,12.63,10.25,22.88,22.88,22.88s22.88-10.25,22.88-22.88c0,12.63,10.25,22.88,22.91,22.88s22.91-10.25,22.91-22.88c0,12.63,10.25,22.88,22.88,22.88s22.88-10.25,22.88-22.88c0,12.63,10.28,22.88,22.91,22.88s22.88-10.25,22.88-22.88v-157.4h-228.9Zm15.33,15.67h12.26l-12.26,12.29v-12.29Zm0,107.27l12.26,12.26h-12.26v-12.26Zm7.55,44.37c-4.17,0-7.55-3.38-7.55-7.55s3.38-7.55,7.55-7.55,7.55,3.38,7.55,7.55-3.38,7.55-7.55,7.55Zm45.79,0c-4.17,0-7.55-3.38-7.55-7.55s3.38-7.55,7.55-7.55,7.55,3.38,7.55,7.55-3.38,7.55-7.55,7.55Zm45.79,0c-4.17,0-7.55-3.38-7.55-7.55s3.38-7.55,7.55-7.55,7.55,3.38,7.55,7.55-3.38,7.55-7.55,7.55Zm45.79,0c-4.17,0-7.55-3.38-7.55-7.55s3.38-7.55,7.55-7.55,7.55,3.38,7.55,7.55-3.38,7.55-7.55,7.55Zm45.79,0c-4.17,0-7.55-3.38-7.55-7.55s3.38-7.55,7.55-7.55,7.55,3.38,7.55,7.55-3.38,7.55-7.55,7.55Zm7.55-32.1h-12.26l12.26-12.26v12.26Zm0-21.86l-21.4,21.4h-155.44l-21.4-21.4v-76.27l21.4-21.4h155.44l21.4,21.4v76.27Zm0-85.38l-12.26-12.29h12.26v12.29Z"/>
            <g>
              <path class="cls-6" d="m676.82,703.03c-30.54,0-55.3,24.75-55.3,55.27v53.59h110.59v-53.59c0-30.51-24.75-55.27-55.29-55.27Zm22.91,86.24v13.82h-45.81v-13.82c-6.3-2.41-25.29-10.93-24.5-25.52,1.11-20.07,14.96-51.95,47.4-51.95s46.3,31.88,47.4,51.95c.79,14.59-18.2,23.11-24.5,25.52Z"/>
              <path class="cls-6" d="m676.82,714.65c-33.02,0-43.73,34.14-44.56,49.26-.83,15.12,24.48,23.36,24.48,23.36v13h7.77v-9.43h1.65v9.43h9.83v-9.43h1.65v9.43h9.83v-9.43h1.65v9.43h7.77v-13s25.31-8.24,24.48-23.36c-.83-15.12-11.55-49.26-44.56-49.26Zm-20.74,63.88c-8.6.56-14.32-5.62-14.62-12.01-.26-6.38,3.14-13.73,12.01-14.59,7.51-.73,13.46,4.73,14.29,12.41.76,7.05-4.27,13.73-11.68,14.19Zm25.31-3.44c-2.35,2.55-4.07-3.47-4.07-3.47,0,0-1.75,6.02-4.13,3.47-1.22-1.36,2.18-11.21,4.13-11.21s5.36,9.86,4.07,11.21Zm19.98,3.44c-8.6.56-14.29-5.62-14.59-12.01s3.14-13.73,12.01-14.59c7.48-.73,13.46,4.73,14.29,12.41.76,7.05-4.27,13.73-11.71,14.19Z"/>
            </g>
            <g>
              <g>
                <polygon class="cls-6" points="622.58 692.81 620.73 694.69 619.15 696.25 606.31 709.11 604.73 710.67 591.9 723.53 590.31 725.09 577.7 737.69 577.7 734.54 588.74 723.53 590.31 721.94 619.15 693.1 619.43 692.81 622.58 692.81"/>
                <polygon class="cls-6" points="651.42 692.81 647.99 696.25 635.15 709.11 633.57 710.67 620.73 723.53 619.15 725.09 606.31 737.95 604.73 739.51 591.9 752.37 590.31 753.93 577.7 766.56 577.7 763.38 588.74 752.37 590.31 750.78 603.16 737.95 604.73 736.36 619.15 721.94 631.98 709.11 633.57 707.52 646.42 694.69 647.99 693.1 648.27 692.81 651.42 692.81"/>
                <path class="cls-6" d="m622.64,747.29c-.26,1.25-.48,2.5-.62,3.77l-1.28,1.31-1.59,1.56-12.83,12.86-1.59,1.56-12.83,12.86-1.59,1.56-12.6,12.6v-3.12l11.04-11.04,1.56-1.59,12.86-12.83,1.56-1.59,12.86-12.83,1.56-1.59,3.49-3.49Z"/>
                <path class="cls-6" d="m680.29,692.81l-1.87,1.87-1.59,1.56-7.27,7.27c-1.28.17-2.53.37-3.78.62l11.33-11.33h3.18Z"/>
                <polygon class="cls-6" points="621.53 777.2 621.53 780.38 620.73 781.21 619.15 782.77 606.31 795.63 604.73 797.19 589.57 812.35 586.39 812.35 603.14 795.6 604.73 794.04 617.56 781.18 619.15 779.62 621.53 777.2"/>
                <path class="cls-6" d="m709.13,692.81l-1.87,1.87-1.59,1.56-10.05,10.05c-.79-.28-1.59-.54-2.38-.77l10.84-10.84,1.59-1.59.28-.28h3.18Z"/>
                <polygon class="cls-6" points="621.53 806.07 621.53 809.22 620.73 810.05 619.15 811.61 618.41 812.35 615.23 812.35 617.56 810.02 619.15 808.46 621.53 806.07"/>
                <path class="cls-6" d="m737.97,692.81l-1.87,1.87-1.59,1.56-12.83,12.86-1.59,1.56-6.44,6.44c-.54-.54-1.11-1.02-1.67-1.5l6.53-6.53,1.59-1.56,12.83-12.86,1.59-1.56.28-.28h3.18Z"/>
                <polygon class="cls-6" points="647.7 811.89 647.25 812.35 644.1 812.35 644.55 811.89 647.7 811.89"/>
                <path class="cls-6" d="m766.81,692.81l-16.29,16.29-1.59,1.56-12.83,12.86-1.59,1.59-8.32,8.29c-.34-.71-.71-1.39-1.08-2.07l9.4-9.4,12.86-12.83,1.56-1.59,14.7-14.7h3.18Z"/>
                <polygon class="cls-6" points="676.54 811.89 676.09 812.35 672.91 812.35 673.36 811.89 676.54 811.89"/>
                <path class="cls-6" d="m775.95,709.33v3.18l-11.01,11.01-1.59,1.56-12.83,12.86-1.59,1.56-12.83,12.86-1.59,1.56-2.44,2.44c0-.99-.09-1.99-.17-2.98l17.03-17.03,12.83-12.86,1.59-1.56,12.6-12.6Z"/>
                <polygon class="cls-6" points="705.38 811.89 704.93 812.35 701.78 812.35 702.23 811.89 705.38 811.89"/>
                <polygon class="cls-6" points="775.95 738.15 775.95 741.33 764.93 752.37 763.34 753.93 750.51 766.79 748.92 768.35 736.09 781.18 734.5 782.77 732.12 785.15 732.12 781.97 734.5 779.59 747.33 766.76 748.92 765.2 761.75 752.37 763.34 750.78 775.95 738.15"/>
                <polygon class="cls-6" points="775.95 767.01 775.95 770.17 764.93 781.21 763.34 782.77 748.92 797.19 736.09 810.05 734.5 811.61 733.77 812.35 730.62 812.35 731.07 811.89 732.12 811.89 732.12 810.84 732.91 810.05 734.5 808.46 747.36 795.63 748.92 794.04 761.75 781.21 775.95 767.01"/>
              </g>
              <g>
                <polygon class="cls-6" points="775.95 734.54 775.95 737.69 761.75 723.5 748.92 710.67 747.36 709.11 734.5 696.25 732.91 694.66 731.07 692.81 734.22 692.81 775.95 734.54"/>
                <polygon class="cls-6" points="775.95 763.38 775.95 766.56 763.34 753.93 761.75 752.37 748.92 739.51 747.33 737.95 732.91 723.53 720.08 710.67 705.66 696.25 704.07 694.69 702.2 692.81 705.38 692.81 705.66 693.1 707.25 694.69 720.08 707.52 721.67 709.11 734.5 721.94 750.51 737.95 763.34 750.78 775.95 763.38"/>
                <path class="cls-6" d="m687.87,704.14c-1.25-.26-2.53-.48-3.8-.62l-7.24-7.27-1.59-1.56-1.87-1.87h3.18l11.33,11.33Z"/>
                <path class="cls-6" d="m775.95,792.22v3.15l-12.6-12.6-1.59-1.56-12.83-12.86-14.42-14.42-1.59-1.56-1.28-1.31c-.14-1.28-.37-2.53-.62-3.77l44.93,44.93Z"/>
                <path class="cls-6" d="m660.42,705.53c-.8.23-1.59.48-2.38.77l-10.05-10.05-1.56-1.56-1.87-1.87h3.15l.28.28,1.59,1.56,10.84,10.87Z"/>
                <polygon class="cls-6" points="767.26 812.35 764.08 812.35 748.92 797.19 747.36 795.63 734.5 782.77 732.91 781.18 732.12 780.38 732.12 777.2 734.5 779.59 736.09 781.18 748.92 794.04 750.51 795.6 767.26 812.35"/>
                <path class="cls-6" d="m641.65,715.64c-.57.48-1.11.94-1.65,1.48l-6.44-6.44-1.59-1.56-12.83-12.86-1.59-1.56-1.87-1.87h3.18l16.29,16.29,6.5,6.53Z"/>
                <polygon class="cls-6" points="738.39 812.35 735.24 812.35 734.5 811.61 732.91 810.05 732.12 809.25 732.12 806.07 738.39 812.35"/>
                <path class="cls-6" d="m628.54,731.33c-.37.68-.74,1.36-1.08,2.07l-8.32-8.32-1.59-1.56-12.83-12.86-1.59-1.56-16.29-16.29h3.18l16.29,16.29,12.83,12.83,9.4,9.4Z"/>
                <polygon class="cls-6" points="709.55 812.35 706.4 812.35 705.95 811.89 709.1 811.89 709.55 812.35"/>
                <path class="cls-6" d="m621.76,753.39c-.08.99-.17,1.99-.17,2.98l-31.28-31.28-1.56-1.56-11.04-11.04v-3.15l14.19,14.19,12.83,12.83,17.03,17.03Z"/>
                <polygon class="cls-6" points="680.71 812.35 677.56 812.35 677.11 811.89 680.26 811.89 680.71 812.35"/>
                <polygon class="cls-6" points="621.53 782 621.53 785.15 619.15 782.77 617.56 781.18 604.73 768.35 603.16 766.79 590.31 753.93 577.7 741.33 577.7 738.17 591.9 752.37 604.73 765.2 606.31 766.79 619.15 779.62 621.53 782"/>
                <polygon class="cls-6" points="651.87 812.35 648.72 812.35 648.27 811.89 651.42 811.89 651.87 812.35"/>
                <polygon class="cls-6" points="623.03 812.35 619.88 812.35 590.31 782.77 588.74 781.21 577.7 770.17 577.7 767.01 591.9 781.21 604.73 794.04 620.73 810.05 621.53 810.84 621.53 811.89 622.58 811.89 623.03 812.35"/>
              </g>
            </g>
          </g>
        </g>
        <g>
          <g>
            <g>
              <path class="cls-2" d="m2250.19,676.39v157.4c0,12.63,10.25,22.88,22.88,22.88s22.91-10.25,22.91-22.88c0,3.97,1.02,7.72,2.78,10.96.37.68.77,1.31,1.22,1.93v.03c3.58,5.22,9.28,8.91,15.9,9.76.96.14,1.96.2,2.95.2h.03c9.17,0,17.09-5.39,20.75-13.17.31-.74.62-1.5.88-2.27.82-2.33,1.25-4.83,1.25-7.44,0,4.51,1.31,8.71,3.58,12.26,1.25,1.96,2.78,3.75,4.57,5.25.6.48,1.19.94,1.82,1.36.23.17.43.31.65.43,3.55,2.27,7.78,3.58,12.29,3.58s8.74-1.31,12.29-3.58c.23-.11.45-.28.68-.43.62-.43,1.22-.88,1.79-1.36,1.79-1.5,3.32-3.29,4.57-5.25,2.27-3.55,3.58-7.75,3.58-12.26,0,2.61.43,5.11,1.25,7.44.26.77.57,1.53.88,2.27,3.66,7.78,11.58,13.17,20.75,13.17h.03c1.02,0,2.02-.06,2.98-.2,6.59-.85,12.29-4.54,15.9-9.76.43-.62.82-1.28,1.19-1.96,1.76-3.24,2.78-6.98,2.78-10.96,0,12.63,10.28,22.88,22.91,22.88s22.88-10.25,22.88-22.88v-157.4h-228.9Zm201.31,15.67h12.26v12.29l-10.7-10.73-1.56-1.56Zm-175.25,1.56l-10.73,10.73v-12.29h12.26l-1.53,1.56Zm1.53,117.97h-12.26v-12.26l12.26,12.26Zm-4.71,32.1c-4.17,0-7.55-3.38-7.55-7.55s3.38-7.55,7.55-7.55c3.52,0,6.47,2.41,7.32,5.68.14.6.23,1.22.23,1.87,0,.4-.03.79-.08,1.16-.57,3.63-3.69,6.39-7.47,6.39Zm38.24-7.55c0-.28.03-.57.03-.82.4-3.52,3.18-6.3,6.7-6.7.26,0,.54-.03.82-.03,4.17,0,7.55,3.38,7.55,7.55s-3.38,7.55-7.55,7.55-7.55-3.38-7.55-7.55Zm53.34,7.55c-1.16,0-2.27-.26-3.24-.74-.71-.34-1.36-.77-1.9-1.28-1.48-1.39-2.41-3.35-2.41-5.54,0-1.16.26-2.27.74-3.26.34-.68.77-1.33,1.31-1.87,1.36-1.48,3.32-2.41,5.51-2.41s4.14.94,5.54,2.41c.51.57.97,1.19,1.28,1.9.48.97.74,2.07.74,3.24,0,2.19-.94,4.14-2.41,5.51-.54.54-1.16.97-1.87,1.31-.99.48-2.1.74-3.26.74Zm53.34-7.55c0,4.17-3.38,7.55-7.55,7.55s-7.55-3.38-7.55-7.55,3.38-7.55,7.55-7.55c.28,0,.57.03.82.03,3.52.4,6.3,3.18,6.7,6.7,0,.26.03.54.03.82Zm38.24,7.55c-3.78,0-6.93-2.78-7.47-6.42-.06-.37-.09-.74-.09-1.14,0-.65.09-1.28.23-1.87.85-3.26,3.8-5.68,7.32-5.68,4.17,0,7.55,3.38,7.55,7.55s-3.38,7.55-7.55,7.55Zm7.55-44.37v12.26h-12.26l12.26-12.26Zm0-85.87v76.27l-.85.88-1.59,1.56-18.96,18.96h-155.44l-4.54-4.54-1.56-1.56-12.86-12.86-1.56-1.56-.88-.88v-76.27l.88-.85,1.56-1.59,12.86-12.83,1.56-1.59,4.54-4.54h155.44l21.4,21.4Z"/>
              <g>
                <g>
                  <polygon class="cls-2" points="2310.39 692.06 2306.96 695.5 2294.13 708.36 2292.54 709.92 2265.51 736.94 2265.51 733.79 2276.56 722.78 2278.12 721.19 2290.98 708.36 2292.54 706.77 2305.39 693.94 2306.96 692.35 2307.24 692.06 2310.39 692.06"/>
                  <polygon class="cls-2" points="2339.23 692.06 2337.39 693.94 2335.8 695.5 2322.97 708.33 2321.38 709.92 2308.55 722.78 2306.96 724.34 2294.13 737.2 2292.54 738.76 2279.71 751.61 2278.12 753.18 2265.51 765.81 2265.51 762.63 2276.56 751.61 2278.12 750.03 2290.98 737.2 2292.54 735.61 2305.39 722.78 2306.96 721.19 2319.81 708.36 2321.38 706.77 2334.23 693.94 2335.8 692.35 2336.08 692.06 2339.23 692.06"/>
                  <path class="cls-2" d="m2314.59,745.57l-6.05,6.05-1.59,1.56-14.42,14.42-12.83,12.86-1.59,1.56-12.6,12.6v-3.12l11.04-11.04,1.56-1.59,12.86-12.83,1.56-1.59,12.86-12.83,1.56-1.59,6.33-6.33c.4.68.82,1.31,1.31,1.87Z"/>
                  <path class="cls-2" d="m2368.1,692.06l-1.87,1.87-1.59,1.56-3.43,3.46c-.45-.2-.94-.45-1.45-.77-.2-.11-.43-.23-.62-.34l3.95-3.92,1.56-1.59.28-.28h3.18Z"/>
                  <path class="cls-2" d="m2315.3,773.67l-6.76,6.76-1.59,1.59-12.83,12.86-1.59,1.56-14.96,14.96-.2.2h-3.15l1.79-1.76,14.96-14.96,1.56-1.59,12.86-12.83,1.56-1.59,6.67-6.67c.48.54,1.05,1.05,1.67,1.48Z"/>
                  <path class="cls-2" d="m2396.91,692.06l-1.85,1.84-10.84,10.84c-.28-.74-.65-1.45-1.05-2.1l8.74-8.71,1.56-1.59.28-.28h3.15Z"/>
                  <path class="cls-2" d="m2326.68,791.16l-3.72,3.72-1.59,1.56-12.83,12.86-1.59,1.56-.26.28-.45.45h-3.18l.45-.45,1.87-1.85,1.56-1.59,12.86-12.83,1.56-1.59,3.26-3.26c.14.11.28.23.43.31.51.31,1.05.6,1.62.82Z"/>
                  <path class="cls-2" d="m2425.75,692.06l-21.12,21.12c-.14-.11-.28-.23-.43-.31-.48-.31-1.02-.6-1.59-.82l3.72-3.69,1.56-1.59,12.86-12.83,1.56-1.59.28-.28h3.15Z"/>
                  <path class="cls-2" d="m2346.13,800.52l-11.07,11.07h-3.15l.45-.45,1.87-1.85,1.56-1.59,9.25-9.25c.31.74.65,1.42,1.08,2.07Z"/>
                  <path class="cls-2" d="m2454.62,692.06l-16.29,16.29-1.59,1.56-12.83,12.86-1.59,1.56-6.64,6.67c-.48-.57-1.08-1.05-1.7-1.48l6.78-6.76,1.56-1.59,12.86-12.83,1.56-1.59,14.7-14.7h3.18Z"/>
                  <path class="cls-2" d="m2370.17,805.32l-3.95,3.95-1.59,1.59-.28.28-.45.45h-3.15l.45-.45,1.87-1.85,1.56-1.59,3.46-3.46c.45.2.94.45,1.45.77.2.11.43.23.62.31Z"/>
                  <path class="cls-2" d="m2386.95,788.54l-1.42,1.42c-.09-.85-.26-1.76-.45-2.7l.2-.2c.57.57,1.11,1.02,1.67,1.48Z"/>
                  <path class="cls-2" d="m2463.76,708.58v3.18l-.85.85-10.16,10.13-1.59,1.59-12.83,12.83-1.59,1.59-12.83,12.86-1.59,1.56-6.3,6.3c-.4-.65-.85-1.28-1.31-1.85l6.05-6.02,1.56-1.59,12.86-12.83,1.56-1.59,12.86-12.83,1.56-1.59,10.16-10.16,2.44-2.44Z"/>
                  <polygon class="cls-2" points="2463.76 737.42 2463.76 740.57 2452.74 751.61 2451.15 753.18 2438.32 766.04 2436.73 767.6 2423.9 780.43 2422.32 782.02 2409.48 794.87 2407.9 796.44 2395.06 809.29 2393.48 810.86 2393.22 811.14 2392.77 811.59 2389.59 811.59 2390.04 811.14 2391.91 809.29 2393.48 807.7 2406.33 794.87 2407.9 793.28 2420.75 780.45 2422.32 778.87 2435.17 766.04 2436.73 764.45 2449.59 751.61 2451.15 750.03 2463.76 737.42"/>
                  <polygon class="cls-2" points="2463.76 766.26 2463.76 769.44 2452.74 780.45 2451.15 782.02 2438.32 794.85 2436.73 796.44 2423.9 809.29 2422.32 810.86 2421.61 811.59 2418.43 811.59 2420.75 809.29 2422.32 807.7 2435.17 794.87 2436.73 793.28 2449.59 780.45 2451.15 778.87 2463.76 766.26"/>
                </g>
                <g>
                  <polygon class="cls-2" points="2463.76 733.76 2463.76 736.94 2451.15 724.34 2449.59 722.78 2436.73 709.92 2435.17 708.36 2422.32 695.5 2420.75 693.94 2418.88 692.06 2422.06 692.06 2422.32 692.35 2423.9 693.91 2436.73 706.77 2438.32 708.36 2451.15 721.19 2452.74 722.75 2463.76 733.76"/>
                  <polygon class="cls-2" points="2463.76 762.63 2463.76 765.78 2391.91 693.94 2390.04 692.06 2393.22 692.06 2393.48 692.35 2395.06 693.91 2407.9 706.77 2409.48 708.33 2422.32 721.19 2423.9 722.78 2436.73 735.61 2438.32 737.17 2451.15 750.03 2463.76 762.63"/>
                  <path class="cls-2" d="m2370.14,697.85c-.23.08-.45.23-.68.34-.48.28-.94.54-1.36.77l-3.46-3.46-1.56-1.56-1.87-1.87h3.15l.28.28,5.51,5.51Z"/>
                  <path class="cls-2" d="m2386.95,714.66c-.57.45-1.11.94-1.67,1.48l-.2-.2c.23-.94.37-1.85.45-2.7l1.42,1.42Z"/>
                  <path class="cls-2" d="m2463.76,791.47v3.15l-2.44-2.44-10.16-10.16-1.56-1.56-12.86-12.86-1.56-1.56-12.86-12.86-1.56-1.56-6.07-6.07c.48-.57.91-1.19,1.31-1.85l6.33,6.33,1.59,1.59,12.83,12.83,1.59,1.59,12.83,12.83,12.6,12.6Z"/>
                  <path class="cls-2" d="m2346.1,702.65c-.4.65-.77,1.36-1.05,2.1l-12.69-12.69h3.15l10.59,10.59Z"/>
                  <path class="cls-2" d="m2455.07,811.59h-3.18l-37.92-37.92c.65-.43,1.22-.94,1.67-1.5l6.67,6.7,1.59,1.56,12.83,12.86,1.59,1.56,16.75,16.75Z"/>
                  <path class="cls-2" d="m2326.71,712.07c-.77.31-1.45.68-2.07,1.11l-3.26-3.26-1.56-1.56-12.86-12.86-1.56-1.56-1.87-1.87h3.18l.26.28,1.59,1.56,12.83,12.86,1.59,1.56,3.75,3.75Z"/>
                  <path class="cls-2" d="m2426.2,811.59h-3.15l-.74-.74-1.56-1.56-12.86-12.86-5.28-5.28c.57-.26,1.11-.54,1.59-.85.14-.09.28-.2.43-.28l21.57,21.57Z"/>
                  <path class="cls-2" d="m2315.33,729.56c-.65.4-1.22.91-1.7,1.45l-6.67-6.67-1.56-1.56-12.86-12.86-17.85-17.85h3.15l16.29,16.29,12.83,12.83,8.37,8.37Z"/>
                  <path class="cls-2" d="m2397.36,811.59h-3.15l-.45-.45-.28-.28-10.3-10.3c.43-.65.77-1.36,1.05-2.1l10.84,10.84,1.85,1.85.45.45Z"/>
                  <path class="cls-2" d="m2314.59,757.63c-.48.6-.91,1.22-1.31,1.87l-22.31-22.31-12.86-12.86-1.56-1.56-10.16-10.16-.88-.88v-3.15l12.6,12.6,1.59,1.56,12.83,12.86,16.01,16.01,6.05,6.02Z"/>
                  <path class="cls-2" d="m2344.23,787.27c-.23.96-.37,1.87-.45,2.72l-1.45-1.45c.57-.43,1.14-.91,1.7-1.45l.2.17Z"/>
                  <path class="cls-2" d="m2368.55,811.59h-3.18l-.74-.74-1.56-1.56-3.95-3.95c.23-.09.45-.2.68-.34.48-.28.97-.54,1.39-.77l3.43,3.46,1.59,1.56,2.33,2.33Z"/>
                  <polygon class="cls-2" points="2339.68 811.59 2336.53 811.59 2336.08 811.14 2335.8 810.86 2334.23 809.29 2321.38 796.44 2319.81 794.87 2306.96 782.02 2305.39 780.45 2292.54 767.6 2265.51 740.57 2265.51 737.39 2278.12 750.03 2292.54 764.45 2294.13 766.01 2306.96 778.87 2308.55 780.43 2321.38 793.28 2322.97 794.87 2335.8 807.7 2337.39 809.27 2339.23 811.14 2339.68 811.59"/>
                  <polygon class="cls-2" points="2310.85 811.59 2307.69 811.59 2290.98 794.87 2278.12 782.02 2276.56 780.45 2265.51 769.41 2265.51 766.26 2310.85 811.59"/>
                </g>
              </g>
            </g>
            <g>
              <path class="cls-2" d="m2411.22,754.28c-1.48-1.11-3.52-1.99-5.88-2.7,2.36-.71,4.4-1.59,5.85-2.67,3.29-2.38,7.04-7.1,6.78-12.32-.2-3.18-1.87-5.9-4.68-7.52-2.55-1.45-3.83-2.78-4.09-3.12t-.06-.06c-.2-.43-.74-2.24-.71-5.22.03-3.24-1.5-6.07-4.23-7.81-1.85-1.16-4.2-1.82-6.78-1.82-2.38,0-4.97.54-7.18,1.53-1.7.77-3.46,2.07-5.25,3.8.57-2.38.82-4.6.62-6.47-.68-6.3-4.94-13-11.47-13-1.62,0-3.18.43-4.68,1.28-2.53,1.5-4.31,1.96-4.74,2.02h-.06c-.51-.06-2.3-.48-4.91-2.02-1.48-.85-3.01-1.28-4.63-1.28-6.53,0-10.79,6.7-11.47,13-.2,1.87.06,4.06.62,6.44-1.76-1.7-3.52-3.01-5.22-3.75-2.27-.97-4.8-1.5-7.24-1.5-6.47,0-10.99,3.92-10.99,9.62.03,2.92-.48,4.71-.65,5.11t-.06.06c-.28.4-1.42,1.62-3.8,3.01-2.33,1.39-4.26,3.55-4.8,6.19-1.22,5.82,2.95,11.21,6.56,13.85,1.45,1.11,3.49,1.99,5.88,2.67-2.38.68-4.43,1.56-5.88,2.67-3.29,2.38-7.04,7.1-6.76,12.32.2,3.18,1.87,5.9,4.68,7.52,2.64,1.5,3.92,2.87,4.09,3.15.23.37.77,2.16.74,5.25,0,3.24,1.53,6.07,4.23,7.81,1.87,1.16,4.2,1.82,6.76,1.82s5.02-.54,7.24-1.53c1.7-.77,3.46-2.07,5.25-3.78-.57,2.38-.82,4.57-.62,6.42.68,6.3,4.94,13.03,11.47,13.03,1.62,0,3.18-.43,4.66-1.28,2.53-1.5,4.34-1.96,4.77-2.02h.06c.51.06,2.3.48,4.91,2.02,1.42.85,2.98,1.28,4.6,1.28,6.53,0,10.81-6.73,11.47-13,.2-1.87-.06-4.09-.65-6.47,1.79,1.7,3.55,3.01,5.25,3.78,2.24.97,4.83,1.5,7.21,1.5,2.61,0,4.94-.6,6.78-1.79,2.72-1.7,4.26-4.54,4.26-7.83-.03-3.04.51-4.83.68-5.14.23-.37,1.5-1.76,4.2-3.26,2.75-1.59,4.43-4.31,4.63-7.49.28-5.22-3.49-9.91-6.76-12.29Zm-21.15-37.07c1.76-.79,3.78-1.22,5.68-1.22s3.61.43,4.88,1.25c1.76,1.14,2.75,2.9,2.72,5-.03,3.58.68,5.76,1.05,6.42.37.62,1.9,2.33,5,4.06,1.82,1.05,2.87,2.75,2.98,4.8.2,3.61-2.5,7.27-5.25,9.28-5.28,3.89-20.15,4.46-28.58,4.46-1.9,0-3.15-.06-3.35-.06l-.57-5.19c-.03-.09-.08-.17-.14-.23l-3.97-2.92c-.11-.08-.17-.26-.09-.43,1.28-2.41,12.09-21.94,19.64-25.21Zm-18.2,34.37c0,4-3.24,7.24-7.24,7.24s-7.21-3.24-7.21-7.24,3.24-7.21,7.21-7.21,7.24,3.24,7.24,7.21Zm-24.33-39.2c.54-4.83,3.69-9.82,8.06-9.82,1.05,0,2.04.28,2.98.82,3.07,1.82,5.31,2.3,6.05,2.3s2.98-.48,6.02-2.27c.97-.57,1.96-.85,3.01-.85,4.37,0,7.52,5,8.06,9.82.91,8.17-10.56,27.31-12.04,29.63-.08.14-.26.17-.43.11l-4.49-1.96c-.09-.03-.2-.03-.28,0l-4.48,1.96c-.17.06-.34.03-.43-.11-1.48-2.33-12.94-21.46-12.04-29.63Zm-25.41,34.4c-2.75-2.02-5.45-5.65-5.25-9.25.11-2.04,1.16-3.75,2.98-4.8,3.09-1.76,4.63-3.43,5-4.09.37-.65,1.08-2.81,1.05-6.36,0-3.78,3.07-6.27,7.61-6.27,1.9,0,3.92.43,5.71,1.19,7.49,3.29,18.31,22.79,19.64,25.21.09.17.03.34-.08.43l-3.97,2.95c-.06.06-.11.14-.14.23l-.6,5.17c-.2.03-1.45.09-3.35.09-8.4,0-23.3-.6-28.58-4.48Zm17.09,39.2c-1.76.8-3.8,1.22-5.71,1.22s-3.58-.43-4.88-1.25c-1.76-1.14-2.72-2.9-2.72-5,.03-3.58-.65-5.76-1.02-6.39-.4-.65-1.9-2.36-5-4.09-1.82-1.05-2.87-2.75-2.98-4.83-.2-3.58,2.5-7.24,5.25-9.25,5.25-3.89,20.15-4.46,28.58-4.46,1.87,0,3.12.06,3.35.06l.57,5.19c.03.09.09.17.14.23l3.97,2.92c.11.08.17.26.08.43-1.28,2.41-12.12,21.94-19.64,25.21Zm42.49,4.83c-.51,4.83-3.69,9.82-8.06,9.82-1.02,0-2.02-.28-2.95-.82-3.09-1.82-5.31-2.3-6.05-2.3s-2.98.48-6.05,2.27c-.97.57-1.96.85-2.98.85-4.37,0-7.52-5-8.06-9.82-.91-8.12,10.56-27.28,12.01-29.63.09-.14.26-.17.43-.11l4.51,1.96c.09.03.2.03.28,0l4.49-1.96c.17-.06.34-.03.43.11,1.45,2.36,12.92,21.52,12.01,29.63Zm27.7-20.35c-3.12,1.76-4.66,3.43-5.02,4.09-.37.65-1.05,2.81-1.02,6.36,0,2.13-.96,3.92-2.72,5.02-1.31.82-2.98,1.25-4.91,1.25s-3.92-.43-5.68-1.19c-7.52-3.29-18.34-22.79-19.64-25.21-.08-.17-.03-.34.09-.43l3.97-2.95c.06-.06.11-.14.14-.23l.57-5.17c.23-.03,1.45-.09,3.35-.09,8.4,0,23.33.6,28.61,4.49,2.73,2.02,5.42,5.65,5.22,9.25-.11,2.04-1.16,3.75-2.95,4.8Z"/>
              <g>
                <path class="cls-2" d="m2371.77,724.79c.28-1.22.2-5.23-2.27-5.66-2.47-.43-4.87,3.47-4.87,3.47,0,0-2.4-3.9-4.87-3.47s-2.55,4.44-2.27,5.66c.31,1.15,4.41,15.25,4.51,15.78-.56-.77-12.44-20.63-11.63-27.87.46-4.21,3.52-8.75,6.78-6.86,3.24,1.91,5.99,2.68,7.47,2.68s4.23-.77,7.47-2.68c3.26-1.89,6.32,2.65,6.78,6.86.82,7.24-11.07,27.11-11.63,27.87.1-.54,4.21-14.64,4.51-15.78Z"/>
                <path class="cls-2" d="m2344.99,732.02c-.92-.85-4.42-2.79-6.04-.87-1.61,1.93.57,5.95.57,5.95,0,0-4.58.13-5.44,2.48-.86,2.36,2.57,4.43,3.77,4.8,1.15.31,15.41,3.8,15.93,3.98-.94.1-24.09.46-29.95-3.87-3.41-2.5-5.81-7.42-2.55-9.3,3.28-1.85,5.31-3.85,6.05-5.13.74-1.28,1.45-4.05,1.42-7.81,0-3.77,5.46-4.15,9.33-2.44,6.68,2.91,17.94,23.14,18.32,24.01-.41-.36-10.57-10.96-11.41-11.8Z"/>
                <path class="cls-2" d="m2337.86,758.83c-1.2.37-4.63,2.44-3.77,4.8.86,2.36,5.44,2.48,5.44,2.48,0,0-2.18,4.03-.57,5.95,1.61,1.93,5.12-.01,6.04-.87.84-.84,11-11.45,11.41-11.8-.38.87-11.64,21.09-18.32,24.01-3.87,1.71-9.33,1.33-9.33-2.44.04-3.76-.68-6.53-1.42-7.81-.74-1.28-2.78-3.28-6.05-5.13-3.27-1.88-.87-6.8,2.55-9.3,5.86-4.33,29.01-3.97,29.95-3.87-.51.18-14.78,3.67-15.93,3.98Z"/>
                <path class="cls-2" d="m2357.51,778.41c-.28,1.22-.2,5.23,2.27,5.66,2.47.43,4.87-3.47,4.87-3.47,0,0,2.4,3.9,4.87,3.47,2.47-.43,2.55-4.44,2.27-5.66-.31-1.15-4.41-15.25-4.51-15.78.56.77,12.44,20.63,11.63,27.87-.46,4.21-3.52,8.75-6.78,6.86-3.24-1.91-5.99-2.68-7.47-2.68s-4.23.76-7.47,2.68c-3.26,1.89-6.32-2.65-6.78-6.86-.82-7.24,11.07-27.11,11.63-27.87-.1.54-4.21,14.64-4.51,15.78Z"/>
                <path class="cls-2" d="m2384.29,771.18c.92.85,4.42,2.79,6.04.87,1.61-1.93-.57-5.95-.57-5.95,0,0,4.58-.13,5.44-2.48.86-2.36-2.57-4.43-3.77-4.8-1.15-.31-15.41-3.8-15.93-3.98.94-.1,24.09-.46,29.95,3.87,3.41,2.5,5.81,7.42,2.55,9.3-3.28,1.85-5.31,3.85-6.05,5.13-.74,1.28-1.45,4.05-1.42,7.81,0,3.77-5.46,4.15-9.33,2.44-6.68-2.91-17.94-23.14-18.32-24.01.41.36,10.57,10.96,11.41,11.8Z"/>
                <path class="cls-2" d="m2391.43,744.37c1.2-.37,4.63-2.44,3.77-4.8-.86-2.36-5.44-2.48-5.44-2.48,0,0,2.18-4.03.57-5.95-1.61-1.93-5.12.01-6.04.87-.84.84-11,11.45-11.41,11.8.38-.87,11.64-21.09,18.32-24.01,3.87-1.71,9.33-1.33,9.33,2.44-.04,3.76.68,6.53,1.42,7.81.74,1.28,2.78,3.28,6.05,5.13,3.27,1.88.87,6.8-2.55,9.3-5.86,4.33-29.01,3.97-29.95,3.87.51-.18,14.78-3.67,15.93-3.98Z"/>
              </g>
            </g>
          </g>
          <g>
            <path class="cls-6" d="m2491.08,676.39v157.4c0,12.63,10.25,22.88,22.88,22.88s22.91-10.25,22.91-22.88c0,12.63,10.25,22.88,22.88,22.88s22.88-10.25,22.88-22.88c0,12.63,10.25,22.88,22.91,22.88s22.91-10.25,22.91-22.88c0,12.63,10.25,22.88,22.88,22.88s22.88-10.25,22.88-22.88c0,12.63,10.28,22.88,22.91,22.88s22.88-10.25,22.88-22.88v-157.4h-228.9Zm15.33,15.67h12.26l-12.26,12.29v-12.29Zm0,107.27l12.26,12.26h-12.26v-12.26Zm7.55,44.37c-4.17,0-7.55-3.38-7.55-7.55s3.38-7.55,7.55-7.55,7.55,3.38,7.55,7.55-3.38,7.55-7.55,7.55Zm45.79,0c-4.17,0-7.55-3.38-7.55-7.55s3.38-7.55,7.55-7.55,7.55,3.38,7.55,7.55-3.38,7.55-7.55,7.55Zm45.79,0c-4.17,0-7.55-3.38-7.55-7.55s3.38-7.55,7.55-7.55,7.55,3.38,7.55,7.55-3.38,7.55-7.55,7.55Zm45.79,0c-4.17,0-7.55-3.38-7.55-7.55s3.38-7.55,7.55-7.55,7.55,3.38,7.55,7.55-3.38,7.55-7.55,7.55Zm45.79,0c-4.17,0-7.55-3.38-7.55-7.55s3.38-7.55,7.55-7.55,7.55,3.38,7.55,7.55-3.38,7.55-7.55,7.55Zm7.55-32.1h-12.26l12.26-12.26v12.26Zm0-21.86l-21.4,21.4h-155.44l-21.4-21.4v-76.27l21.4-21.4h155.44l21.4,21.4v76.27Zm0-85.38l-12.26-12.29h12.26v12.29Z"/>
            <g>
              <path class="cls-6" d="m2605.53,702.28c-30.54,0-55.29,24.75-55.29,55.27v53.59h110.59v-53.59c0-30.51-24.75-55.27-55.29-55.27Zm22.91,86.24v13.82h-45.81v-13.82c-6.3-2.41-25.29-10.93-24.5-25.52,1.11-20.07,14.96-51.95,47.4-51.95s46.3,31.88,47.4,51.95c.79,14.59-18.2,23.11-24.5,25.52Z"/>
              <path class="cls-6" d="m2605.53,713.9c-33.02,0-43.73,34.14-44.56,49.26-.83,15.12,24.48,23.36,24.48,23.36v13h7.77v-9.43h1.65v9.43h9.83v-9.43h1.65v9.43h9.83v-9.43h1.65v9.43h7.77v-13s25.31-8.24,24.48-23.36c-.83-15.12-11.55-49.26-44.56-49.26Zm-20.74,63.88c-8.6.56-14.32-5.62-14.62-12.01-.26-6.38,3.14-13.73,12.01-14.59,7.51-.73,13.46,4.73,14.29,12.41.76,7.05-4.27,13.73-11.68,14.19Zm25.31-3.44c-2.35,2.55-4.07-3.47-4.07-3.47,0,0-1.75,6.02-4.14,3.47-1.22-1.36,2.18-11.21,4.14-11.21s5.36,9.86,4.07,11.21Zm19.98,3.44c-8.6.56-14.29-5.62-14.59-12.01-.3-6.38,3.14-13.73,12.01-14.59,7.48-.73,13.46,4.73,14.29,12.41.76,7.05-4.27,13.73-11.71,14.19Z"/>
            </g>
            <g>
              <g>
                <polygon class="cls-6" points="2551.29 692.06 2549.44 693.94 2547.85 695.5 2535.02 708.36 2533.43 709.92 2520.6 722.78 2519.01 724.34 2506.41 736.94 2506.41 733.79 2517.45 722.78 2519.01 721.19 2547.85 692.35 2548.14 692.06 2551.29 692.06"/>
                <polygon class="cls-6" points="2580.13 692.06 2576.69 695.5 2563.86 708.36 2562.27 709.92 2549.44 722.78 2547.85 724.34 2535.02 737.2 2533.43 738.76 2520.6 751.61 2519.01 753.18 2506.41 765.81 2506.41 762.63 2517.45 751.61 2519.01 750.03 2531.87 737.2 2533.43 735.61 2547.85 721.19 2560.68 708.36 2562.27 706.77 2575.13 693.94 2576.69 692.35 2576.98 692.06 2580.13 692.06"/>
                <path class="cls-6" d="m2551.34,746.53c-.26,1.25-.48,2.5-.62,3.77l-1.28,1.31-1.59,1.56-12.83,12.86-1.59,1.56-12.83,12.86-1.59,1.56-12.6,12.6v-3.12l11.04-11.04,1.56-1.59,12.86-12.83,1.56-1.59,12.86-12.83,1.56-1.59,3.49-3.49Z"/>
                <path class="cls-6" d="m2608.99,692.06l-1.87,1.87-1.59,1.56-7.27,7.27c-1.28.17-2.53.37-3.78.62l11.33-11.33h3.18Z"/>
                <polygon class="cls-6" points="2550.24 776.45 2550.24 779.63 2549.44 780.45 2547.85 782.02 2535.02 794.87 2533.43 796.44 2518.27 811.59 2515.09 811.59 2531.84 794.85 2533.43 793.28 2546.26 780.43 2547.85 778.87 2550.24 776.45"/>
                <path class="cls-6" d="m2637.83,692.06l-1.87,1.87-1.59,1.56-10.05,10.05c-.79-.28-1.59-.54-2.38-.77l10.84-10.84,1.59-1.59.28-.28h3.18Z"/>
                <polygon class="cls-6" points="2550.24 805.32 2550.24 808.47 2549.44 809.29 2547.85 810.86 2547.11 811.59 2543.93 811.59 2546.26 809.27 2547.85 807.7 2550.24 805.32"/>
                <path class="cls-6" d="m2666.67,692.06l-1.87,1.87-1.59,1.56-12.83,12.86-1.59,1.56-6.44,6.44c-.54-.54-1.11-1.02-1.67-1.5l6.53-6.53,1.59-1.56,12.83-12.86,1.59-1.56.28-.28h3.18Z"/>
                <polygon class="cls-6" points="2576.41 811.14 2575.95 811.59 2572.8 811.59 2573.26 811.14 2576.41 811.14"/>
                <path class="cls-6" d="m2695.51,692.06l-16.29,16.29-1.59,1.56-12.83,12.86-1.59,1.59-8.32,8.29c-.34-.71-.71-1.39-1.08-2.07l9.4-9.4,12.86-12.83,1.56-1.59,14.7-14.7h3.18Z"/>
                <polygon class="cls-6" points="2605.25 811.14 2604.79 811.59 2601.61 811.59 2602.07 811.14 2605.25 811.14"/>
                <path class="cls-6" d="m2704.65,708.58v3.18l-11.01,11.01-1.59,1.56-12.83,12.86-1.59,1.56-12.83,12.86-1.59,1.56-2.44,2.44c0-.99-.09-1.99-.17-2.98l17.03-17.03,12.83-12.86,1.59-1.56,12.6-12.6Z"/>
                <polygon class="cls-6" points="2634.09 811.14 2633.63 811.59 2630.48 811.59 2630.94 811.14 2634.09 811.14"/>
                <polygon class="cls-6" points="2704.65 737.39 2704.65 740.57 2693.64 751.61 2692.05 753.18 2679.22 766.04 2677.63 767.6 2664.8 780.43 2663.21 782.02 2660.83 784.4 2660.83 781.22 2663.21 778.84 2676.04 766.01 2677.63 764.45 2690.46 751.61 2692.05 750.03 2704.65 737.39"/>
                <polygon class="cls-6" points="2704.65 766.26 2704.65 769.41 2693.64 780.45 2692.05 782.02 2677.63 796.44 2664.8 809.29 2663.21 810.86 2662.47 811.59 2659.32 811.59 2659.78 811.14 2660.83 811.14 2660.83 810.09 2661.62 809.29 2663.21 807.7 2676.07 794.87 2677.63 793.28 2690.46 780.45 2704.65 766.26"/>
              </g>
              <g>
                <polygon class="cls-6" points="2704.65 733.79 2704.65 736.94 2690.46 722.75 2677.63 709.92 2676.07 708.36 2663.21 695.5 2661.62 693.91 2659.78 692.06 2662.93 692.06 2704.65 733.79"/>
                <polygon class="cls-6" points="2704.65 762.63 2704.65 765.81 2692.05 753.18 2690.46 751.61 2677.63 738.76 2676.04 737.2 2661.62 722.78 2648.79 709.92 2634.37 695.5 2632.78 693.94 2630.91 692.06 2634.09 692.06 2634.37 692.35 2635.96 693.94 2648.79 706.77 2650.38 708.36 2663.21 721.19 2679.22 737.2 2692.05 750.03 2704.65 762.63"/>
                <path class="cls-6" d="m2616.57,703.39c-1.25-.26-2.53-.48-3.8-.62l-7.24-7.27-1.59-1.56-1.87-1.87h3.18l11.33,11.33Z"/>
                <path class="cls-6" d="m2704.65,791.47v3.15l-12.6-12.6-1.59-1.56-12.83-12.86-14.42-14.42-1.59-1.56-1.28-1.31c-.14-1.28-.37-2.53-.62-3.77l44.93,44.93Z"/>
                <path class="cls-6" d="m2589.12,704.78c-.8.23-1.59.48-2.38.77l-10.05-10.05-1.56-1.56-1.87-1.87h3.15l.28.28,1.59,1.56,10.84,10.87Z"/>
                <polygon class="cls-6" points="2695.97 811.59 2692.79 811.59 2677.63 796.44 2676.07 794.87 2663.21 782.02 2661.62 780.43 2660.83 779.63 2660.83 776.45 2663.21 778.84 2664.8 780.43 2677.63 793.28 2679.22 794.85 2695.97 811.59"/>
                <path class="cls-6" d="m2570.36,714.88c-.57.48-1.11.94-1.65,1.48l-6.44-6.44-1.59-1.56-12.83-12.86-1.59-1.56-1.87-1.87h3.18l16.29,16.29,6.5,6.53Z"/>
                <polygon class="cls-6" points="2667.1 811.59 2663.95 811.59 2663.21 810.86 2661.62 809.29 2660.83 808.5 2660.83 805.32 2667.1 811.59"/>
                <path class="cls-6" d="m2557.25,730.58c-.37.68-.74,1.36-1.08,2.07l-8.32-8.32-1.59-1.56-12.83-12.86-1.59-1.56-16.29-16.29h3.18l16.29,16.29,12.83,12.83,9.4,9.4Z"/>
                <polygon class="cls-6" points="2638.26 811.59 2635.11 811.59 2634.65 811.14 2637.81 811.14 2638.26 811.59"/>
                <path class="cls-6" d="m2550.46,752.64c-.08.99-.17,1.99-.17,2.98l-31.28-31.28-1.56-1.56-11.04-11.04v-3.15l14.19,14.19,12.83,12.83,17.03,17.03Z"/>
                <polygon class="cls-6" points="2609.42 811.59 2606.27 811.59 2605.81 811.14 2608.97 811.14 2609.42 811.59"/>
                <polygon class="cls-6" points="2550.24 781.25 2550.24 784.4 2547.85 782.02 2546.26 780.43 2533.43 767.6 2531.87 766.04 2519.01 753.18 2506.41 740.57 2506.41 737.42 2520.6 751.61 2533.43 764.45 2535.02 766.04 2547.85 778.87 2550.24 781.25"/>
                <polygon class="cls-6" points="2580.58 811.59 2577.43 811.59 2576.98 811.14 2580.13 811.14 2580.58 811.59"/>
                <polygon class="cls-6" points="2551.74 811.59 2548.59 811.59 2519.01 782.02 2517.45 780.45 2506.41 769.41 2506.41 766.26 2520.6 780.45 2533.43 793.28 2549.44 809.29 2550.24 810.09 2550.24 811.14 2551.29 811.14 2551.74 811.59"/>
              </g>
            </g>
          </g>
          <g>
            <g>
              <path class="cls-2" d="m2731.98,676.39v157.4c0,12.63,10.25,22.88,22.88,22.88s22.91-10.25,22.91-22.88c0,3.97,1.02,7.72,2.78,10.96.37.68.77,1.31,1.22,1.93v.03c3.58,5.22,9.28,8.91,15.9,9.76.97.14,1.96.2,2.95.2h.03c9.17,0,17.09-5.39,20.75-13.17.31-.74.62-1.5.88-2.27.82-2.33,1.25-4.83,1.25-7.44,0,4.51,1.31,8.71,3.58,12.26,1.25,1.96,2.78,3.75,4.57,5.25.6.48,1.19.94,1.82,1.36.23.17.43.31.65.43,3.55,2.27,7.78,3.58,12.29,3.58s8.74-1.31,12.29-3.58c.23-.11.45-.28.68-.43.62-.43,1.22-.88,1.79-1.36,1.79-1.5,3.32-3.29,4.57-5.25,2.27-3.55,3.58-7.75,3.58-12.26,0,2.61.43,5.11,1.25,7.44.26.77.57,1.53.88,2.27,3.66,7.78,11.58,13.17,20.75,13.17h.03c1.02,0,2.02-.06,2.98-.2,6.59-.85,12.29-4.54,15.9-9.76.43-.62.82-1.28,1.19-1.96,1.76-3.24,2.78-6.98,2.78-10.96,0,12.63,10.28,22.88,22.91,22.88s22.88-10.25,22.88-22.88v-157.4h-228.9Zm201.31,15.67h12.26v12.29l-10.7-10.73-1.56-1.56Zm-175.25,1.56l-10.73,10.73v-12.29h12.26l-1.53,1.56Zm1.53,117.97h-12.26v-12.26l12.26,12.26Zm-4.71,32.1c-4.17,0-7.55-3.38-7.55-7.55s3.38-7.55,7.55-7.55c3.52,0,6.47,2.41,7.32,5.68.14.6.23,1.22.23,1.87,0,.4-.03.79-.09,1.16-.57,3.63-3.69,6.39-7.47,6.39Zm38.24-7.55c0-.28.03-.57.03-.82.4-3.52,3.18-6.3,6.7-6.7.26,0,.54-.03.82-.03,4.17,0,7.55,3.38,7.55,7.55s-3.38,7.55-7.55,7.55-7.55-3.38-7.55-7.55Zm53.34,7.55c-1.16,0-2.27-.26-3.24-.74-.71-.34-1.36-.77-1.9-1.28-1.48-1.39-2.41-3.35-2.41-5.54,0-1.16.26-2.27.74-3.26.34-.68.77-1.33,1.31-1.87,1.36-1.48,3.32-2.41,5.51-2.41s4.14.94,5.53,2.41c.51.57.97,1.19,1.28,1.9.48.97.74,2.07.74,3.24,0,2.19-.94,4.14-2.41,5.51-.54.54-1.16.97-1.87,1.31-.99.48-2.1.74-3.26.74Zm53.34-7.55c0,4.17-3.38,7.55-7.55,7.55s-7.55-3.38-7.55-7.55,3.38-7.55,7.55-7.55c.28,0,.57.03.82.03,3.52.4,6.3,3.18,6.7,6.7,0,.26.03.54.03.82Zm38.24,7.55c-3.78,0-6.93-2.78-7.47-6.42-.06-.37-.09-.74-.09-1.14,0-.65.09-1.28.23-1.87.85-3.26,3.8-5.68,7.32-5.68,4.17,0,7.55,3.38,7.55,7.55s-3.38,7.55-7.55,7.55Zm7.55-44.37v12.26h-12.26l12.26-12.26Zm0-85.87v76.27l-.85.88-1.59,1.56-18.96,18.96h-155.44l-4.54-4.54-1.56-1.56-12.86-12.86-1.56-1.56-.88-.88v-76.27l.88-.85,1.56-1.59,12.86-12.83,1.56-1.59,4.54-4.54h155.44l21.4,21.4Z"/>
              <g>
                <g>
                  <polygon class="cls-2" points="2792.18 692.06 2788.75 695.5 2775.92 708.36 2774.33 709.92 2747.3 736.94 2747.3 733.79 2758.35 722.78 2759.91 721.19 2772.77 708.36 2774.33 706.77 2787.19 693.94 2788.75 692.35 2789.03 692.06 2792.18 692.06"/>
                  <polygon class="cls-2" points="2821.02 692.06 2819.18 693.94 2817.59 695.5 2804.76 708.33 2803.17 709.92 2790.34 722.78 2788.75 724.34 2775.92 737.2 2774.33 738.76 2761.5 751.61 2759.91 753.18 2747.3 765.81 2747.3 762.63 2758.35 751.61 2759.91 750.03 2772.77 737.2 2774.33 735.61 2787.19 722.78 2788.75 721.19 2801.61 708.36 2803.17 706.77 2816.03 693.94 2817.59 692.35 2817.87 692.06 2821.02 692.06"/>
                  <path class="cls-2" d="m2796.38,745.57l-6.05,6.05-1.59,1.56-14.42,14.42-12.83,12.86-1.59,1.56-12.6,12.6v-3.12l11.04-11.04,1.56-1.59,12.86-12.83,1.56-1.59,12.86-12.83,1.56-1.59,6.33-6.33c.4.68.82,1.31,1.31,1.87Z"/>
                  <path class="cls-2" d="m2849.89,692.06l-1.87,1.87-1.59,1.56-3.44,3.46c-.45-.2-.94-.45-1.45-.77-.2-.11-.43-.23-.62-.34l3.95-3.92,1.56-1.59.28-.28h3.18Z"/>
                  <path class="cls-2" d="m2797.09,773.67l-6.76,6.76-1.59,1.59-12.83,12.86-1.59,1.56-14.96,14.96-.2.2h-3.15l1.79-1.76,14.96-14.96,1.56-1.59,12.86-12.83,1.56-1.59,6.67-6.67c.48.54,1.05,1.05,1.67,1.48Z"/>
                  <path class="cls-2" d="m2878.7,692.06l-1.85,1.84-10.84,10.84c-.28-.74-.65-1.45-1.05-2.1l8.74-8.71,1.56-1.59.28-.28h3.15Z"/>
                  <path class="cls-2" d="m2808.48,791.16l-3.72,3.72-1.59,1.56-12.83,12.86-1.59,1.56-.26.28-.45.45h-3.18l.45-.45,1.87-1.85,1.56-1.59,12.86-12.83,1.56-1.59,3.26-3.26c.14.11.28.23.43.31.51.31,1.05.6,1.62.82Z"/>
                  <path class="cls-2" d="m2907.54,692.06l-21.12,21.12c-.14-.11-.28-.23-.43-.31-.48-.31-1.02-.6-1.59-.82l3.72-3.69,1.56-1.59,12.86-12.83,1.56-1.59.28-.28h3.15Z"/>
                  <path class="cls-2" d="m2827.92,800.52l-11.07,11.07h-3.15l.45-.45,1.87-1.85,1.56-1.59,9.25-9.25c.31.74.65,1.42,1.08,2.07Z"/>
                  <path class="cls-2" d="m2936.41,692.06l-16.29,16.29-1.59,1.56-12.83,12.86-1.59,1.56-6.64,6.67c-.48-.57-1.08-1.05-1.7-1.48l6.78-6.76,1.56-1.59,12.86-12.83,1.56-1.59,14.7-14.7h3.18Z"/>
                  <path class="cls-2" d="m2851.96,805.32l-3.95,3.95-1.59,1.59-.28.28-.45.45h-3.15l.45-.45,1.87-1.85,1.56-1.59,3.46-3.46c.45.2.94.45,1.45.77.2.11.43.23.62.31Z"/>
                  <path class="cls-2" d="m2868.74,788.54l-1.42,1.42c-.09-.85-.26-1.76-.45-2.7l.2-.2c.57.57,1.11,1.02,1.67,1.48Z"/>
                  <path class="cls-2" d="m2945.55,708.58v3.18l-.85.85-10.16,10.13-1.59,1.59-12.83,12.83-1.59,1.59-12.83,12.86-1.59,1.56-6.3,6.3c-.4-.65-.85-1.28-1.31-1.85l6.05-6.02,1.56-1.59,12.86-12.83,1.56-1.59,12.86-12.83,1.56-1.59,10.16-10.16,2.44-2.44Z"/>
                  <polygon class="cls-2" points="2945.55 737.42 2945.55 740.57 2934.54 751.61 2932.95 753.18 2920.12 766.04 2918.53 767.6 2905.7 780.43 2904.11 782.02 2891.28 794.87 2889.69 796.44 2876.86 809.29 2875.27 810.86 2875.01 811.14 2874.56 811.59 2871.38 811.59 2871.83 811.14 2873.7 809.29 2875.27 807.7 2888.13 794.87 2889.69 793.28 2902.54 780.45 2904.11 778.87 2916.96 766.04 2918.53 764.45 2931.38 751.61 2932.95 750.03 2945.55 737.42"/>
                  <polygon class="cls-2" points="2945.55 766.26 2945.55 769.44 2934.54 780.45 2932.95 782.02 2920.12 794.85 2918.53 796.44 2905.7 809.29 2904.11 810.86 2903.4 811.59 2900.22 811.59 2902.54 809.29 2904.11 807.7 2916.96 794.87 2918.53 793.28 2931.38 780.45 2932.95 778.87 2945.55 766.26"/>
                </g>
                <g>
                  <polygon class="cls-2" points="2945.55 733.76 2945.55 736.94 2932.95 724.34 2931.38 722.78 2918.53 709.92 2916.96 708.36 2904.11 695.5 2902.54 693.94 2900.67 692.06 2903.85 692.06 2904.11 692.35 2905.7 693.91 2918.53 706.77 2920.12 708.36 2932.95 721.19 2934.54 722.75 2945.55 733.76"/>
                  <polygon class="cls-2" points="2945.55 762.63 2945.55 765.78 2873.7 693.94 2871.83 692.06 2875.01 692.06 2875.27 692.35 2876.86 693.91 2889.69 706.77 2891.28 708.33 2904.11 721.19 2905.7 722.78 2918.53 735.61 2920.12 737.17 2932.95 750.03 2945.55 762.63"/>
                  <path class="cls-2" d="m2851.93,697.85c-.23.08-.45.23-.68.34-.48.28-.94.54-1.36.77l-3.46-3.46-1.56-1.56-1.87-1.87h3.15l.28.28,5.51,5.51Z"/>
                  <path class="cls-2" d="m2868.74,714.66c-.57.45-1.11.94-1.67,1.48l-.2-.2c.23-.94.37-1.85.45-2.7l1.42,1.42Z"/>
                  <path class="cls-2" d="m2945.55,791.47v3.15l-2.44-2.44-10.16-10.16-1.56-1.56-12.86-12.86-1.56-1.56-12.86-12.86-1.56-1.56-6.07-6.07c.48-.57.91-1.19,1.31-1.85l6.33,6.33,1.59,1.59,12.83,12.83,1.59,1.59,12.83,12.83,12.6,12.6Z"/>
                  <path class="cls-2" d="m2827.89,702.65c-.4.65-.77,1.36-1.05,2.1l-12.69-12.69h3.15l10.59,10.59Z"/>
                  <path class="cls-2" d="m2936.86,811.59h-3.18l-37.92-37.92c.65-.43,1.22-.94,1.67-1.5l6.67,6.7,1.59,1.56,12.83,12.86,1.59,1.56,16.75,16.75Z"/>
                  <path class="cls-2" d="m2808.5,712.07c-.77.31-1.45.68-2.07,1.11l-3.26-3.26-1.56-1.56-12.86-12.86-1.56-1.56-1.87-1.87h3.18l.26.28,1.59,1.56,12.83,12.86,1.59,1.56,3.75,3.75Z"/>
                  <path class="cls-2" d="m2907.99,811.59h-3.15l-.74-.74-1.56-1.56-12.86-12.86-5.28-5.28c.57-.26,1.11-.54,1.59-.85.14-.09.28-.2.43-.28l21.57,21.57Z"/>
                  <path class="cls-2" d="m2797.12,729.56c-.65.4-1.22.91-1.7,1.45l-6.67-6.67-1.56-1.56-12.86-12.86-17.85-17.85h3.15l16.29,16.29,12.83,12.83,8.37,8.37Z"/>
                  <path class="cls-2" d="m2879.16,811.59h-3.15l-.45-.45-.28-.28-10.3-10.3c.43-.65.77-1.36,1.05-2.1l10.84,10.84,1.85,1.85.45.45Z"/>
                  <path class="cls-2" d="m2796.38,757.63c-.48.6-.91,1.22-1.31,1.87l-22.31-22.31-12.86-12.86-1.56-1.56-10.16-10.16-.88-.88v-3.15l12.6,12.6,1.59,1.56,12.83,12.86,16.01,16.01,6.05,6.02Z"/>
                  <path class="cls-2" d="m2826.02,787.27c-.23.96-.37,1.87-.45,2.72l-1.45-1.45c.57-.43,1.14-.91,1.7-1.45l.2.17Z"/>
                  <path class="cls-2" d="m2850.34,811.59h-3.18l-.74-.74-1.56-1.56-3.95-3.95c.23-.09.45-.2.68-.34.48-.28.97-.54,1.39-.77l3.44,3.46,1.59,1.56,2.33,2.33Z"/>
                  <polygon class="cls-2" points="2821.48 811.59 2818.32 811.59 2817.87 811.14 2817.59 810.86 2816.03 809.29 2803.17 796.44 2801.61 794.87 2788.75 782.02 2787.19 780.45 2774.33 767.6 2747.3 740.57 2747.3 737.39 2759.91 750.03 2774.33 764.45 2775.92 766.01 2788.75 778.87 2790.34 780.43 2803.17 793.28 2804.76 794.87 2817.59 807.7 2819.18 809.27 2821.02 811.14 2821.48 811.59"/>
                  <polygon class="cls-2" points="2792.64 811.59 2789.49 811.59 2772.77 794.87 2759.91 782.02 2758.35 780.45 2747.3 769.41 2747.3 766.26 2792.64 811.59"/>
                </g>
              </g>
            </g>
            <g>
              <path class="cls-2" d="m2893.01,754.28c-1.48-1.11-3.52-1.99-5.88-2.7,2.36-.71,4.4-1.59,5.85-2.67,3.29-2.38,7.04-7.1,6.78-12.32-.2-3.18-1.87-5.9-4.68-7.52-2.55-1.45-3.83-2.78-4.09-3.12t-.06-.06c-.2-.43-.74-2.24-.71-5.22.03-3.24-1.5-6.07-4.23-7.81-1.85-1.16-4.2-1.82-6.78-1.82-2.38,0-4.97.54-7.18,1.53-1.7.77-3.46,2.07-5.25,3.8.57-2.38.82-4.6.62-6.47-.68-6.3-4.94-13-11.47-13-1.62,0-3.18.43-4.68,1.28-2.53,1.5-4.31,1.96-4.74,2.02h-.06c-.51-.06-2.3-.48-4.91-2.02-1.48-.85-3.01-1.28-4.63-1.28-6.53,0-10.79,6.7-11.47,13-.2,1.87.06,4.06.62,6.44-1.76-1.7-3.52-3.01-5.22-3.75-2.27-.97-4.8-1.5-7.24-1.5-6.47,0-10.99,3.92-10.99,9.62.03,2.92-.48,4.71-.65,5.11l-.06.06c-.28.4-1.42,1.62-3.8,3.01-2.33,1.39-4.26,3.55-4.8,6.19-1.22,5.82,2.95,11.21,6.56,13.85,1.45,1.11,3.49,1.99,5.88,2.67-2.38.68-4.43,1.56-5.88,2.67-3.29,2.38-7.04,7.1-6.76,12.32.2,3.18,1.87,5.9,4.68,7.52,2.64,1.5,3.92,2.87,4.09,3.15.23.37.77,2.16.74,5.25,0,3.24,1.53,6.07,4.23,7.81,1.87,1.16,4.2,1.82,6.76,1.82s5.02-.54,7.24-1.53c1.7-.77,3.46-2.07,5.25-3.78-.57,2.38-.82,4.57-.62,6.42.68,6.3,4.94,13.03,11.47,13.03,1.62,0,3.18-.43,4.66-1.28,2.53-1.5,4.34-1.96,4.77-2.02h.06c.51.06,2.3.48,4.91,2.02,1.42.85,2.98,1.28,4.6,1.28,6.53,0,10.81-6.73,11.47-13,.2-1.87-.06-4.09-.65-6.47,1.79,1.7,3.55,3.01,5.25,3.78,2.24.97,4.83,1.5,7.21,1.5,2.61,0,4.94-.6,6.78-1.79,2.72-1.7,4.26-4.54,4.26-7.83-.03-3.04.51-4.83.68-5.14.23-.37,1.5-1.76,4.2-3.26,2.75-1.59,4.43-4.31,4.63-7.49.28-5.22-3.49-9.91-6.76-12.29Zm-21.15-37.07c1.76-.79,3.78-1.22,5.68-1.22s3.6.43,4.88,1.25c1.76,1.14,2.75,2.9,2.72,5-.03,3.58.68,5.76,1.05,6.42.37.62,1.9,2.33,5,4.06,1.82,1.05,2.87,2.75,2.98,4.8.2,3.61-2.5,7.27-5.25,9.28-5.28,3.89-20.15,4.46-28.58,4.46-1.9,0-3.15-.06-3.35-.06l-.57-5.19c-.03-.09-.09-.17-.14-.23l-3.97-2.92c-.11-.08-.17-.26-.09-.43,1.28-2.41,12.09-21.94,19.64-25.21Zm-18.2,34.37c0,4-3.24,7.24-7.24,7.24s-7.21-3.24-7.21-7.24,3.24-7.21,7.21-7.21,7.24,3.24,7.24,7.21Zm-24.33-39.2c.54-4.83,3.69-9.82,8.06-9.82,1.05,0,2.04.28,2.98.82,3.07,1.82,5.31,2.3,6.05,2.3s2.98-.48,6.02-2.27c.97-.57,1.96-.85,3.01-.85,4.37,0,7.52,5,8.06,9.82.91,8.17-10.56,27.31-12.04,29.63-.09.14-.26.17-.43.11l-4.49-1.96c-.09-.03-.2-.03-.28,0l-4.49,1.96c-.17.06-.34.03-.43-.11-1.48-2.33-12.94-21.46-12.04-29.63Zm-25.41,34.4c-2.75-2.02-5.45-5.65-5.25-9.25.11-2.04,1.16-3.75,2.98-4.8,3.09-1.76,4.63-3.43,5-4.09.37-.65,1.08-2.81,1.05-6.36,0-3.78,3.07-6.27,7.61-6.27,1.9,0,3.92.43,5.71,1.19,7.49,3.29,18.31,22.79,19.64,25.21.09.17.03.34-.09.43l-3.97,2.95c-.06.06-.11.14-.14.23l-.6,5.17c-.2.03-1.45.09-3.35.09-8.4,0-23.3-.6-28.58-4.48Zm17.09,39.2c-1.76.8-3.8,1.22-5.71,1.22s-3.58-.43-4.88-1.25c-1.76-1.14-2.72-2.9-2.72-5,.03-3.58-.65-5.76-1.02-6.39-.4-.65-1.9-2.36-5-4.09-1.82-1.05-2.87-2.75-2.98-4.83-.2-3.58,2.5-7.24,5.25-9.25,5.25-3.89,20.15-4.46,28.58-4.46,1.87,0,3.12.06,3.35.06l.57,5.19c.03.09.08.17.14.23l3.97,2.92c.11.08.17.26.09.43-1.28,2.41-12.12,21.94-19.64,25.21Zm42.49,4.83c-.51,4.83-3.69,9.82-8.06,9.82-1.02,0-2.02-.28-2.95-.82-3.09-1.82-5.31-2.3-6.05-2.3s-2.98.48-6.05,2.27c-.97.57-1.96.85-2.98.85-4.37,0-7.52-5-8.06-9.82-.91-8.12,10.56-27.28,12.01-29.63.09-.14.26-.17.43-.11l4.51,1.96c.09.03.2.03.28,0l4.48-1.96c.17-.06.34-.03.43.11,1.45,2.36,12.92,21.52,12.01,29.63Zm27.7-20.35c-3.12,1.76-4.66,3.43-5.02,4.09-.37.65-1.05,2.81-1.02,6.36,0,2.13-.97,3.92-2.72,5.02-1.31.82-2.98,1.25-4.91,1.25s-3.92-.43-5.68-1.19c-7.52-3.29-18.34-22.79-19.64-25.21-.09-.17-.03-.34.09-.43l3.97-2.95c.06-.06.11-.14.14-.23l.57-5.17c.23-.03,1.45-.09,3.35-.09,8.4,0,23.33.6,28.61,4.49,2.72,2.02,5.42,5.65,5.22,9.25-.11,2.04-1.16,3.75-2.95,4.8Z"/>
              <g>
                <path class="cls-2" d="m2853.57,724.79c.28-1.22.2-5.23-2.27-5.66-2.47-.43-4.87,3.47-4.87,3.47,0,0-2.4-3.9-4.87-3.47-2.47.43-2.55,4.44-2.27,5.66.31,1.15,4.41,15.25,4.51,15.78-.56-.77-12.44-20.63-11.63-27.87.46-4.21,3.52-8.75,6.78-6.86,3.24,1.91,5.99,2.68,7.47,2.68s4.23-.77,7.47-2.68c3.26-1.89,6.32,2.65,6.78,6.86.82,7.24-11.07,27.11-11.63,27.87.1-.54,4.21-14.64,4.51-15.78Z"/>
                <path class="cls-2" d="m2826.78,732.02c-.92-.85-4.42-2.79-6.04-.87-1.61,1.93.57,5.95.57,5.95,0,0-4.58.13-5.44,2.48-.86,2.36,2.57,4.43,3.77,4.8,1.15.31,15.41,3.8,15.93,3.98-.94.1-24.09.46-29.95-3.87-3.41-2.5-5.81-7.42-2.55-9.3,3.28-1.85,5.31-3.85,6.05-5.13.74-1.28,1.45-4.05,1.42-7.81,0-3.77,5.46-4.15,9.33-2.44,6.68,2.91,17.94,23.14,18.32,24.01-.41-.36-10.57-10.96-11.41-11.8Z"/>
                <path class="cls-2" d="m2819.65,758.83c-1.2.37-4.63,2.44-3.77,4.8.86,2.36,5.44,2.48,5.44,2.48,0,0-2.18,4.03-.57,5.95,1.61,1.93,5.12-.01,6.04-.87.84-.84,11-11.45,11.41-11.8-.38.87-11.64,21.09-18.32,24.01-3.87,1.71-9.33,1.33-9.33-2.44.04-3.76-.68-6.53-1.42-7.81-.74-1.28-2.78-3.28-6.05-5.13-3.27-1.88-.87-6.8,2.55-9.3,5.86-4.33,29.01-3.97,29.95-3.87-.51.18-14.78,3.67-15.93,3.98Z"/>
                <path class="cls-2" d="m2839.3,778.41c-.28,1.22-.2,5.23,2.27,5.66,2.47.43,4.87-3.47,4.87-3.47,0,0,2.4,3.9,4.87,3.47,2.47-.43,2.55-4.44,2.27-5.66-.31-1.15-4.41-15.25-4.51-15.78.56.77,12.44,20.63,11.63,27.87-.46,4.21-3.52,8.75-6.78,6.86-3.24-1.91-5.99-2.68-7.47-2.68s-4.23.76-7.47,2.68c-3.26,1.89-6.32-2.65-6.78-6.86-.82-7.24,11.07-27.11,11.63-27.87-.1.54-4.21,14.64-4.51,15.78Z"/>
                <path class="cls-2" d="m2866.09,771.18c.92.85,4.42,2.79,6.04.87,1.61-1.93-.57-5.95-.57-5.95,0,0,4.58-.13,5.44-2.48.86-2.36-2.57-4.43-3.77-4.8-1.15-.31-15.41-3.8-15.93-3.98.94-.1,24.09-.46,29.95,3.87,3.41,2.5,5.81,7.42,2.55,9.3-3.28,1.85-5.31,3.85-6.05,5.13-.74,1.28-1.45,4.05-1.42,7.81,0,3.77-5.46,4.15-9.33,2.44-6.68-2.91-17.94-23.14-18.32-24.01.41.36,10.57,10.96,11.41,11.8Z"/>
                <path class="cls-2" d="m2873.22,744.37c1.2-.37,4.63-2.44,3.77-4.8-.86-2.36-5.44-2.48-5.44-2.48,0,0,2.18-4.03.57-5.95-1.61-1.93-5.12.01-6.04.87-.84.84-11,11.45-11.41,11.8.38-.87,11.64-21.09,18.32-24.01,3.87-1.71,9.33-1.33,9.33,2.44-.04,3.76.68,6.53,1.42,7.81.74,1.28,2.78,3.28,6.05,5.13,3.27,1.88.87,6.8-2.55,9.3-5.86,4.33-29.01,3.97-29.95,3.87.51-.18,14.78-3.67,15.93-3.98Z"/>
              </g>
            </g>
          </g>
        </g>
      </g>
    </g>
  </g>
</svg>