<?xml version="1.0" encoding="utf-8"?>
<!-- Generator: Adobe Illustrator 24.0.2, SVG Export Plug-In . SVG Version: 6.00 Build 0)  -->
<svg version="1.1" id="CALAVERITA2" xmlns="http://www.w3.org/2000/svg" xmlns:xlink="http://www.w3.org/1999/xlink" x="0px"
	 y="0px" viewBox="0 0 263.7 254.9" style="enable-background:new 0 0 263.7 254.9;" xml:space="preserve">
<style type="text/css">
	.st0{fill:#FFFFFF;}
	.st1{fill:#EBEDF8;}
	.st2{fill:#01021C;}
	.st3{fill:#FC5FAB;}
</style>
<g>
	<g>
		<g>
			<path class="st0" d="M260.6,132c-0.1,1.8-0.1,3.7-0.2,5.6c-0.3,6.3-0.8,12.6-1.6,18.8c-0.4,3.1-0.8,6.2-1.3,9.2
				c-3,18.8-7.9,36.7-13.3,52.3c-1.4,4-3.8,7.5-7.1,10.1c-11.5,9.2-43.1,29.4-96.5,26.7c-12.2-0.6-23.1-8.5-27.7-20.3c0,0,0,0,0-0.1
				c-0.1-0.2-0.1-0.3-0.1-0.4c0,0-86.7,0.8-106.7-79.7c-3.9-15.7-3.3-32,0.9-47.8c17.3-65,95.8-121.4,176.4-94.5
				c22.1,7.4,38.4,18.7,50.2,32.5c1.1,1.2,2.1,2.5,3.1,3.8c0.3,0.3,0.5,0.7,0.8,1c1.8,2.3,3.4,4.8,4.9,7.2c0,0,0.1,0.1,0.1,0.1
				c5,8,8.8,16.6,11.6,25.7c3.9,12.7,5.9,26.1,6.3,39.7C260.6,125.2,260.6,128.6,260.6,132L260.6,132z"/>
			<path class="st1" d="M6.1,154.2c20,80.5,106.7,79.7,106.7,79.7c0.1,0.1,0.1,0.3,0.1,0.4c1.1-4.6-0.3-10.5-1-14.5
				c-1.6-9.1-4.8-17.8-8.1-26.4c-10.4-27.2-22.2-54.7-42-75.5c-3.3-3.5-6.9-6.8-10.9-9.3c-5.9-3.5-12.6-5.2-19.4-5.9
				c-8.2-0.9-17.2-0.1-24.5,3.6C2.8,122.1,2.2,138.4,6.1,154.2L6.1,154.2z"/>
		</g>
		<g>
			<path class="st2" d="M186,172.9c-1.9-1.1-2.8-3.6-2.4-5.9c1-5.5,3.8-17.1,8.8-19.1c6.5-2.6,19.1,17.9,15.7,20.8
				c-4.2,3.6-11.8-4.4-11.8-4.4S191.5,176.2,186,172.9L186,172.9z"/>
			<g>
				<path class="st3" d="M122.7,169L122.7,169c-4.9-1.2-8.3-5.3-7.6-9.4l0,0c0.1-0.4,0.2-0.9,0.4-1.3l0,0c-0.2,0.3-0.5,0.5-0.8,0.8
					l0,0c-3.6,3-9.7,2.9-13.7-0.3h0c-4-3.2-4.4-8.3-0.8-11.3l0,0c0.3-0.3,0.6-0.5,1-0.7l0,0c-0.3,0.1-0.7,0.3-1,0.4l0,0
					c-4.8,1.6-10.6-0.4-13-4.5l0,0c-2.4-4.1-0.4-8.8,4.4-10.4l0,0c4.8-1.6,10.7,0.4,13,4.5l0,0c2,3.5,0.9,7.4-2.4,9.5l0,0
					c3.6-1.7,8.4-1.1,11.7,1.5l0,0c3,2.3,3.9,5.7,2.8,8.6l0,0c2-2.3,5.6-3.5,9.4-2.8l0,0c3.6,0.7,6.5,2.8,7.7,5.5l0,0
					c-0.1-2.9,1.7-5.5,4.9-6.8h0c3.6-1.5,8-0.8,11,1.5l0,0c-2.5-2.8-2.9-6.5-0.6-9.3l0,0c2.6-3.1,7.6-4,11.9-2.3l0,0
					c-4.3-1.8-6.7-5.8-5.6-9.6l0,0c1.3-4.2,6.6-6.5,11.8-5l0,0c5.2,1.4,8.4,5.9,7.1,10.1l0,0c-1.3,4.2-6.6,6.5-11.8,5.1l0,0
					c-0.5-0.1-0.9-0.3-1.4-0.5l0,0c0.5,0.2,1,0.5,1.4,0.7l0,0c4.5,2.7,5.9,7.7,2.9,11.3l0,0c-2.9,3.5-8.9,4.2-13.5,1.5l0,0
					c-0.3-0.2-0.6-0.4-0.9-0.6l0,0c0.3,0.3,0.6,0.7,0.8,1l0,0c2.7,4,1.1,8.8-3.6,10.7h0c-4.6,1.9-10.6,0.2-13.3-3.8l0,0
					c-0.3-0.4-0.5-0.7-0.6-1.1l0,0c0,0.4,0,0.9-0.1,1.3l0,0c-0.8,4.3-5.7,7-11,6.1C123.2,169.1,122.9,169.1,122.7,169L122.7,169z
					 M88,131.7L88,131.7c-3.8-0.9-6.9-3.6-7.5-7l0,0c-0.9-4.4,2.7-8.3,8-8.6l0,0c5.3-0.4,10.3,2.9,11.2,7.3l0,0
					c0.9,4.4-2.7,8.3-8,8.7C90.4,132.1,89.1,132,88,131.7L88,131.7z M87.3,115.6L87.3,115.6c-4.8-1.2-8.1-5.1-7.6-9.1h0
					c0.5-4.3,5.3-7.2,10.6-6.4l0,0c5.4,0.8,9.3,5,8.7,9.3h0c-0.5,4.4-5.3,7.3-10.7,6.5C88.1,115.8,87.7,115.7,87.3,115.6L87.3,115.6
					z M164.8,126.9L164.8,126.9c-4.3-1.1-7.5-4.3-7.6-8.1l0,0c0,0,0-0.1,0-0.1l0,0c-0.2-4.4,4.1-7.8,9.4-7.6l0,0
					c5.4,0.2,9.9,4,10.1,8.4l0,0c0,0.1,0,0.1,0,0.2l0,0c0.2,4.4-4.1,7.8-9.4,7.5C166.4,127.2,165.6,127.1,164.8,126.9L164.8,126.9z
					 M92,100.4L92,100.4c-0.5-0.1-1.1-0.3-1.6-0.5l0,0c-5-2-7.3-6.9-5.2-10.8l0,0c2.1-4,7.8-5.5,12.7-3.5l0,0
					c0.4,0.1,0.7,0.3,1.1,0.5l0,0c-0.4-0.2-0.7-0.5-1.1-0.8l0,0C94,81.9,94,76.8,97.8,74l0,0c3.8-2.9,9.9-2.5,13.8,0.9l0,0
					c0.3,0.3,0.6,0.6,0.9,0.8l0,0c-0.2-0.4-0.3-0.9-0.5-1.3l0,0c-1.1-4.4,2.3-8.4,7.6-9l0,0c5.3-0.5,10.4,2.6,11.5,7l0,0
					c0.1,0.5,0.2,0.9,0.2,1.4l0,0c0.1-0.4,0.3-0.7,0.5-1.1l0,0c2.4-3.8,8.2-5.1,13-2.8l0,0c4.8,2.3,6.8,7.2,4.4,11l0,0
					c-0.2,0.4-0.5,0.7-0.7,1l0,0c0.3-0.2,0.5-0.4,0.9-0.5l0,0c4.4-2.3,10.4-1.2,13.6,2.6v0c3.2,3.8,2.2,8.7-2.1,11l0,0
					c-4.4,2.3-10.4,1.1-13.6-2.6l0,0c-2.5-3-2.5-6.7-0.2-9.3l0,0c-2.9,2-7.2,2.3-10.9,0.6l0,0v0l0,0c-3.3-1.6-5.3-4.4-5.4-7.2l0,0
					c-1,2.6-3.7,4.6-7.3,4.9l0,0c-3.8,0.4-7.4-1.1-9.6-3.6l0,0c1.3,2.9,0.6,6.2-2.2,8.4l0,0c-3.2,2.4-7.9,2.5-11.7,0.6l0,0
					c3.5,2.4,4.9,6.3,3.2,9.7l0,0C101.3,99.9,96.5,101.5,92,100.4L92,100.4z M161.7,110.7L161.7,110.7c-3.3-0.8-6.1-3-7.2-5.9l0,0v0
					l0,0c-1.6-4.3,1.3-8.6,6.4-9.6l0,0c5.1-1,10.6,1.8,12.2,6l0,0c1.6,4.3-1.3,8.6-6.4,9.6C164.9,111.2,163.2,111.1,161.7,110.7
					L161.7,110.7z"/>
				<path class="st2" d="M166.9,119.2c0.9,24.5-15.8,43.6-37.3,42.7c-21.5-0.9-39.6-21.5-40.5-46c-0.9-24.5,15.8-43.6,37.3-42.7
					S166,94.7,166.9,119.2z"/>
			</g>
			<g>
				<path class="st3" d="M238.6,54.3c-1.5-2.4-3.2-4.9-4.9-7.2c-0.3-0.3-0.5-0.7-0.8-1c-1-1.3-2-2.6-3.1-3.8
					c-0.3,0.8-0.5,1.6-0.5,2.6v0.4c0,0.5,0.1,0.9,0.2,1.3c-0.2-0.3-0.4-0.7-0.7-1c-2.2-2.9-5.9-4.6-9.3-4.6c-1.4,0-2.8,0.3-4,0.9
					c-2.6,1.2-3.9,3.5-3.9,6c0,1.7,0.6,3.4,1.8,5c0.2,0.3,0.4,0.5,0.7,0.8l0.2,0.2c-0.1-0.1-0.2-0.1-0.3-0.2
					c-0.2-0.2-0.4-0.3-0.7-0.5c-2.1-1.4-4.4-2.1-6.6-2.1c-2.6,0-5,1-6.5,2.8c-1,1.2-1.4,2.6-1.4,4.1c0,2.7,1.6,5.6,4.5,7.6
					c0.2,0.1,0.4,0.3,0.6,0.4c0.3,0.2,0.6,0.3,0.9,0.5c1.6,0.8,3.4,1.2,5.1,1.2c2.6,0,5-1,6.5-2.8c1-1.2,1.4-2.6,1.4-4.1
					c0-2.1-0.9-4.3-2.6-6c2.1,1.8,4.9,2.8,7.5,2.8c1.4,0,2.8-0.3,4-0.9c2.6-1.2,3.9-3.5,3.9-6.1c0-0.5-0.1-1.1-0.2-1.7
					C232,51.6,235.1,53.7,238.6,54.3L238.6,54.3z M210.2,74.7c0-3.4-2.5-6.9-6.4-8.6c-0.2-0.1-0.4-0.2-0.6-0.3
					c-5.1-1.9-10.3-0.1-11.7,4.1l0,0c-1.3,3.9,1.2,8.4,5.7,10.5c0.3,0.2,0.7,0.3,1.1,0.5c0.2,0.1,0.4,0.1,0.6,0.2
					c1.1,0.4,2.3,0.6,3.4,0.6c3.6,0,6.6-1.8,7.6-4.8l-0.1,0C210.1,76.1,210.3,75.4,210.2,74.7L210.2,74.7z M198.8,81.2
					c-0.2,0-0.4-0.1-0.6-0.1c-0.6-0.1-1.1-0.1-1.6-0.1c-4.5,0-7.9,2.8-7.9,6.9c0,3.5,2.5,6.8,6,8.5c1.1,0.5,2.3,0.9,3.5,1.1
					c0.2,0,0.4,0,0.6,0.1c0.1,0,0.2,0,0.4,0c0.3,0,0.6,0,1,0c4.3-0.2,7.6-3,7.6-6.9v-0.1C207.7,86.2,203.7,82.1,198.8,81.2
					L198.8,81.2z M256.6,119.8c-1.7,0.2-3.2,0.8-4.5,1.7c-1.6,1.3-2.5,3.2-2.5,5.1c0,1.4,0.4,2.8,1.2,4.2c-2.1-2.4-5.4-3.9-8.7-3.9
					c-0.6,0-1.2,0.1-1.8,0.2c-3.4,0.6-5.6,2.8-6.1,5.7c-0.7-2.9-3-5.7-6.4-7c-1.5-0.6-3-0.9-4.5-0.9c-2,0-3.9,0.6-5.3,1.6
					c0.7-1,1-2.3,1-3.5c0-1.8-0.7-3.7-2.2-5.5c-2.2-2.7-5.7-4.2-9-4.2c-0.7,0-1.5,0.1-2.2,0.3c2.9-1.1,4.6-3.5,4.6-6.4
					c0-0.8-0.1-1.6-0.4-2.4c-1.3-3.9-5.4-6.8-9.8-7.2c-0.3,0-0.6,0-1,0c-0.1,0-0.2,0-0.3,0c-0.2,0-0.5,0-0.7,0
					c-4.1,0.5-6.8,3.3-6.8,6.8c0,0.8,0.1,1.6,0.4,2.4c1.4,4.2,6,7.2,10.7,7.2c0.4,0,0.8,0,1.2-0.1c0.3,0,0.5-0.1,0.8-0.1
					c0.1,0,0.2,0,0.3,0c-0.1,0-0.2,0.1-0.3,0.1c-0.3,0.1-0.6,0.3-0.8,0.4c-4.1,2.3-4.7,7.3-1.4,11.3h0c2.2,2.7,5.7,4.2,9,4.2
					c1.6,0,3.1-0.3,4.4-1.1c0.3-0.2,0.6-0.4,0.9-0.6h0v0c-0.2,0.4-0.4,0.8-0.6,1.2c-1.5,3.9,1,8.6,5.6,10.8c0.2,0.1,0.5,0.2,0.7,0.3
					c1.5,0.6,3,0.9,4.4,0.9c3.4,0,6.4-1.6,7.6-4.5c0.1-0.4,0.3-0.8,0.4-1.3c0.1,0.4,0.2,0.8,0.4,1.2c1.8,4.5,7.3,7.4,12.3,6.5h0
					c3.8-0.7,6.2-3.4,6.2-6.8c0-1-0.2-1.9-0.6-3c-0.1-0.4-0.3-0.8-0.5-1.1c0,0-0.1-0.1-0.1-0.1c0,0,0.1,0.1,0.1,0.1
					c0.2,0.3,0.4,0.5,0.7,0.7c1.1,1,2.4,1.8,3.7,2.3c0.1-1.9,0.1-3.7,0.2-5.6C256.7,126.5,256.7,123.2,256.6,119.8L256.6,119.8z"/>
				<path class="st2" d="M256.6,119.8c0.1,3.4,0.1,6.7,0.1,10.1c-1.5,1-3,1.8-4.6,2.6l0,0c-6.9,3.2-14.6,4.1-22.6,2.1
					c-4.8-1.2-9.2-3.5-13.1-6.5l0,0c-4.9-3.7-9-8.6-12-14.2c0,0,0,0,0,0c-2.7-5-4.6-10.5-5.5-16.3c0,0,0,0,0,0
					c-0.8-5.3-0.9-10.8,0-16.3c0,0,0-0.1,0-0.1v0c0.9-5.5,2.6-10.5,5-15c0,0,0,0,0,0c2.6-4.9,6.1-9.1,10.1-12.4c0,0,0.1,0,0.1,0
					c4.6-3.7,9.8-6.1,15.5-7.1c1.1-0.2,2.3-0.4,3.4-0.4c0.3,0.3,0.5,0.7,0.8,1c1.8,2.3,3.4,4.8,4.9,7.2c0,0,0.1,0.1,0.1,0.1
					c5,8,8.8,16.6,11.6,25.7C254.3,92.8,256.2,106.2,256.6,119.8L256.6,119.8z"/>
				<path class="st2" d="M263.6,60.1L263.6,60.1C263.6,60.1,263.6,60.2,263.6,60.1C263.6,60.2,263.6,60.1,263.6,60.1L263.6,60.1z"/>
				<path class="st2" d="M264.4,121.9c0.2,0.1,0.4,0.3,0.6,0.4c0,0-0.1,0-0.1,0C264.7,122.2,264.6,122,264.4,121.9z"/>
				<path class="st2" d="M275.1,92.4L275.1,92.4c-0.2,0-0.4,0-0.6,0C274.6,92.3,274.9,92.4,275.1,92.4z"/>
			</g>
			<path class="st2" d="M66.7,131c0.2-5.7-1.8-11.5-5.1-16.2c-3.3-4.8-7.8-8.6-13-11.2c-5.1-2.5-10.8-3.8-16.3-4
				c-5.6-0.2-11.1,0.7-16.2,2.6c5.4,0.1,10.7,0.4,15.8,1.3c5.1,0.9,10.1,2.3,14.6,4.6c4.5,2.2,8.6,5.4,12.1,9.2
				C62.1,121,64.9,125.6,66.7,131L66.7,131z"/>
		</g>
	</g>
	<g>
		<path class="st2" d="M64.6,92.8c1.6-9.1,5.7-17.8,11.6-25c2.9-3.6,6.4-6.8,10.2-9.5c3.8-2.7,8.1-4.7,12.4-6.2
			c4.4-1.4,9-2.2,13.6-2.5c2.3,0,4.6-0.1,6.8,0.1c2.3,0.1,4.5,0.4,6.8,0.8c8.9,1.4,17.5,4.6,25.4,8.8c-8.6-2.3-17.2-4.3-25.8-4.9
			c-8.6-0.7-17.2-0.1-25.3,2.5c-8,2.6-15.4,7.4-21.4,13.6C72.9,76.7,68.1,84.3,64.6,92.8L64.6,92.8z"/>
		<path class="st2" d="M185.7,50.6c0.6-3.4,1.9-6.4,3.7-9.3c1.8-2.8,3.9-5.5,6.6-7.6c2.7-2.1,5.8-3.7,9.2-4.3
			c3.4-0.5,6.9,0.2,9.7,1.9c-3.3,0.3-6.1,0.8-8.7,1.8c-2.6,1.1-5,2.7-7.3,4.5C194.3,41.3,190.4,45.9,185.7,50.6L185.7,50.6z"/>
	</g>
</g>
<path d="M138.6,213.2c13.4,1.5,26.9,3,40.4,1.7s25.8-5.1,37.9-10.3c6.7-2.8,13.2-6,19.7-9.3c0.9-0.4,2.9-1.9,1-2.5s-4.5,0.2-6.1,1
	c-5.3,2.7-10.7,5.3-16.2,7.7c-0.3,0.1-0.6,0.3-0.8,0.4c-1.4,0.6,0.7-0.3-0.7,0.3c-0.6,0.2-1.1,0.5-1.7,0.7c-1.4,0.6-2.8,1.2-4.3,1.7
	s-2.9,1.1-4.3,1.6c-0.6,0.2-1.1,0.4-1.7,0.6c-0.4,0.1-0.7,0.2-1.1,0.4c-0.3,0.1-0.3,0.1,0.1,0c-0.3,0.1-0.6,0.2-0.9,0.3
	c-1.3,0.4-2.6,0.8-3.9,1.1c-0.7,0.2-1.5,0.4-2.2,0.6c-0.3,0.1-0.6,0.1-0.9,0.2c0,0-1.4,0.3-0.6,0.1c-1.3,0.3-2.7,0.5-4,0.8
	s-3.3,0.5-4.3,0.6c-6.1,0.7-12.2,0.7-18.3,0.4c-7.2-0.4-14.3-1.2-21.4-2c-2-0.2-4.5,0.5-6.1,1.7C136.6,212,136.9,213,138.6,213.2
	L138.6,213.2L138.6,213.2z"/>
<path d="M165.9,199.3c3,10.9,4.4,22.1,4.2,33.4c0,1.3,2.9,0.7,2.9-0.3c0.2-11.4-1.2-22.8-4.2-33.9
	C168.5,197.4,165.6,198.2,165.9,199.3L165.9,199.3z"/>
<path d="M186.5,197.4c2.8,9.2,4,18.8,3.6,28.4c0,0.4,2.9,0,2.9-0.8c0.4-9.6-0.9-19.2-3.6-28.4C189.2,195.9,186.3,196.8,186.5,197.4
	L186.5,197.4z"/>
<path d="M207.4,192.6c2.7,9,3.4,18.3,2.3,27.6c-0.1,1.1,2.8,0.5,2.9-0.4c1.2-9.4,0.4-18.9-2.3-28
	C210.1,190.8,207.2,191.6,207.4,192.6L207.4,192.6L207.4,192.6z"/>
<path d="M224.2,189c1.4,6.9,2.3,13.8,2.8,20.8c0,0.7,3,0.2,2.9-0.8c-0.4-7-1.4-13.9-2.8-20.8C226.9,187.4,224,188.1,224.2,189
	L224.2,189z"/>
</svg>
