<?xml version="1.0" encoding="utf-8"?>
<!-- Generator: Adobe Illustrator 24.0.2, SVG Export Plug-In . SVG Version: 6.00 Build 0)  -->
<svg version="1.1" id="Capa_1" xmlns="http://www.w3.org/2000/svg" xmlns:xlink="http://www.w3.org/1999/xlink" x="0px" y="0px"
	 viewBox="0 0 463.5 194.5" style="enable-background:new 0 0 463.5 194.5;" xml:space="preserve">
<style type="text/css">
	.st0{fill:#7D4B00;}
	.st1{opacity:0.7;fill:url(#SVGID_1_);enable-background:new    ;}
	.st2{opacity:0.5;fill:#7D4B00;enable-background:new    ;}
	.st3{opacity:0.3;fill:url(#SVGID_2_);enable-background:new    ;}
	.st4{opacity:0.2;fill:#FFFFFF;enable-background:new    ;}
	.st5{fill:#976F33;}
	.st6{opacity:0.7;fill:url(#SVGID_3_);enable-background:new    ;}
	.st7{opacity:0.5;fill:#976F33;enable-background:new    ;}
	.st8{clip-path:url(#SVGID_5_);}
	.st9{fill:#3F2600;}
	.st10{opacity:0.7;fill:url(#SVGID_6_);enable-background:new    ;}
	.st11{opacity:0.3;fill:url(#SVGID_7_);enable-background:new    ;}
	.st12{fill:#F0F0F0;}
	.st13{opacity:0.7;fill:url(#SVGID_8_);enable-background:new    ;}
	.st14{opacity:0.5;fill:#F0F0F0;enable-background:new    ;}
	.st15{opacity:0.6;fill:#FFFFFF;enable-background:new    ;}
	.st16{fill:#BB7100;}
	.st17{opacity:0.7;fill:url(#SVGID_9_);enable-background:new    ;}
	.st18{opacity:0.5;fill:#BB7100;enable-background:new    ;}
	.st19{opacity:0.7;fill:url(#SVGID_10_);enable-background:new    ;}
	.st20{opacity:0.3;fill:url(#SVGID_11_);enable-background:new    ;}
	.st21{opacity:0.3;fill:url(#SVGID_12_);enable-background:new    ;}
	.st22{opacity:0.3;fill:#FFFFFF;enable-background:new    ;}
	.st23{fill:#FCC066;}
</style>
<g>
	<g id="comida">
		<g>
			<g>
				<path class="st0" d="M463.5,123.9c0,0-7,17.3-29.4,39.2c-15.1,14.9-35.6,24-57.2,25.9c-27.9,2.5-75.5,5.4-145.2,5.4
					s-117.3-2.9-145.2-5.4c-21.7-1.9-42.1-11-57.2-25.9C7,141.2,0,123.9,0,123.9H463.5L463.5,123.9z"/>
				
					<linearGradient id="SVGID_1_" gradientUnits="userSpaceOnUse" x1="231.7648" y1="-262.0734" x2="231.7648" y2="-191.5034" gradientTransform="matrix(1 0 0 -1 0 -67.5566)">
					<stop  offset="0" style="stop-color:#7D4B00"/>
					<stop  offset="1" style="stop-color:#7D4B00;stop-opacity:0"/>
				</linearGradient>
				<path class="st1" d="M463.5,123.9c0,0-7,17.3-29.4,39.2c-15.1,14.9-35.6,24-57.2,25.9c-27.9,2.5-75.5,5.4-145.2,5.4
					s-117.3-2.9-145.2-5.4c-21.7-1.9-42.1-11-57.2-25.9C7,141.2,0,123.9,0,123.9H463.5L463.5,123.9z"/>
				<path class="st2" d="M231.8,194.5c69.7,0,117.3-2.9,145.2-5.4c21.7-1.9,42.1-11,57.2-25.9c-0.1,0-15.1,5.9-37.7,8.2
					c-22.6,2.3-48.1-11.2-73.9-6.7c-28.6,4.9-47.3,15.6-90.8,15.6s-62.2-10.6-90.8-15.6c-25.8-4.4-51.2,9.1-73.9,6.7
					c-22.6-2.3-37.7-8.2-37.7-8.2c15.2,14.9,35.6,24,57.2,25.9C114.4,191.6,162.1,194.5,231.8,194.5L231.8,194.5z"/>
				
					<linearGradient id="SVGID_2_" gradientUnits="userSpaceOnUse" x1="231.735" y1="-210.8134" x2="231.735" y2="-252.7334" gradientTransform="matrix(1 0 0 -1 0 -67.5566)">
					<stop  offset="0" style="stop-color:#FFFFFF"/>
					<stop  offset="1" style="stop-color:#FFFFFF;stop-opacity:0"/>
				</linearGradient>
				<path class="st3" d="M24.1,143.3c3.4,4.1,7.5,8.7,12.3,13.4c13.4,13.2,31.5,21.4,51.1,23.1c27.5,2.5,74.9,5.4,144.3,5.4
					s116.7-2.9,144.3-5.4c19.6-1.7,37.7-10,51.1-23.1c4.9-4.8,8.9-9.3,12.3-13.4c-11.4,2.1-27.2,4.2-49.2,6.2
					c-43.2,3.8-99.5,5.9-158.4,5.9s-115.2-2.1-158.4-5.9C51.2,147.5,35.4,145.3,24.1,143.3L24.1,143.3z"/>
				<path class="st4" d="M375.1,170.5c13.8-1.6,26.8-6.1,37.5-14c-6.6,0.8-13.8,1.5-21.5,2.2c-43.5,3.8-100.1,6-159.4,6
					C231.8,164.7,304.4,178.8,375.1,170.5L375.1,170.5z"/>
			</g>
			<g>
				<path class="st5" d="M463.5,123.9c0,12.2-103.8,22-231.8,22S0,136.1,0,123.9s103.8-22,231.8-22S463.5,111.8,463.5,123.9z"/>
				
					<linearGradient id="SVGID_3_" gradientUnits="userSpaceOnUse" x1="231.76" y1="-213.5534" x2="231.76" y2="-169.4534" gradientTransform="matrix(1 0 0 -1 0 -67.5566)">
					<stop  offset="0" style="stop-color:#BB7100"/>
					<stop  offset="1" style="stop-color:#BB7100;stop-opacity:0"/>
				</linearGradient>
				<path class="st6" d="M463.5,123.9c0,12.2-103.8,22-231.8,22S0,136.1,0,123.9s103.8-22,231.8-22S463.5,111.8,463.5,123.9z"/>
				<path class="st7" d="M410.1,123.9c-12.5-5.9-29-2.5-29-2.5c0-6,2.3-10.5,4.6-14c-40.9-3.5-94.8-5.6-153.9-5.6
					S119,104,78.1,107.4c0.5,8-0.5,13.3-0.5,13.3c-20,0-41.3,9-41.3,9C11.9,127.9,0,124,0,124c0,12.2,103.8,22,231.8,22
					s231.8-9.9,231.8-22C454.8,131.9,422.6,129.8,410.1,123.9L410.1,123.9z"/>
			</g>
			<g>
				<defs>
					<path id="SVGID_4_" d="M374,106.5c2.8-4,6.1-4.1,7.7-13c3-16.1-19.4-21.5-28.2-12.9c-6.6,6.5-1.2,19.3-1.2,19.3
						s-30.7-3.8-60.5-8.2c1.5-0.8,1.1-3-0.7-3.3c-3.2-0.5-7.2-1.1-9.8-1.5c-0.1,0-0.2,0-0.3,0c-6.2-1-11.5-4.8-14.2-10
						c-6.5-12.3-18.3-30.3-37.1-44.8c-0.2-0.6-0.3-1.3-0.6-1.9c-1.3-3.6-3.9-6.7-7.2-8.8c-11.9-7.5-38.1-23.9-61.2-21.1
						c-26.7,3.3-42.5,16.8-53.4,23.4c-10.9,6.6-28.8,36.5-26.7,58.5c0.8,8.8,2.8,17.1,4.2,24.7C33.1,110.9,0,117.1,0,123.9
						c0,12.2,103.8,22,231.8,22s231.8-9.9,231.8-22C463.5,116.9,428.4,110.6,374,106.5L374,106.5z"/>
				</defs>
				<clipPath id="SVGID_5_">
					<use xlink:href="#SVGID_4_"  style="overflow:visible;"/>
				</clipPath>
				<g class="st8">
					<g>
						<path class="st9" d="M444.8,140.1c-3.7,0.4-7.2-2.1-10.4-3.5c-3.3-1.4-7.2-2.3-10.7-3.1c-12.4-2.8-23.9-5.9-37.2-5.9
							c-7.2,0-14.1,2-21.4,1.9c-6.4,0-12.3-0.3-18.4-1.1c-11.2-1.5-23.5-2.2-34.7-1.7c-13.3,0.6-25.9,3.9-39.3,3.9
							c-10.5,0-30.5-4.5-41-4.5s-30.5,4.5-41,4.5c-13.4,0-26-3.3-39.3-3.9c-11.3-0.5-23.6,0.2-34.7,1.7c-6.1,0.8-12,1.1-18.4,1.1
							c-7.3,0-14.1-1.9-21.3-1.9c-13.3,0-24.8,3.1-37.2,5.9c-3.4,0.8-7.3,1.7-10.7,3.1c-3.3,1.4-6.7,3.9-10.4,3.5
							c0,0,62.7,40.8,213.1,40.8S444.8,140.1,444.8,140.1L444.8,140.1z"/>
						
							<linearGradient id="SVGID_6_" gradientUnits="userSpaceOnUse" x1="231.7701" y1="-247.7634" x2="231.7701" y2="-63.1234" gradientTransform="matrix(1 0 0 -1 0 -67.5566)">
							<stop  offset="0" style="stop-color:#3F2600"/>
							<stop  offset="1" style="stop-color:#3F2600;stop-opacity:0"/>
						</linearGradient>
						<path class="st10" d="M444.8,140.1c-3.7,0.4-7.2-2.1-10.4-3.5c-3.3-1.4-7.2-2.3-10.7-3.1c-12.4-2.8-23.9-5.9-37.2-5.9
							c-7.2,0-14.1,2-21.4,1.9c-6.4,0-12.3-0.3-18.4-1.1c-11.2-1.5-23.5-2.2-34.7-1.7c-13.3,0.6-25.9,3.9-39.3,3.9
							c-10.5,0-30.5-4.5-41-4.5s-30.5,4.5-41,4.5c-13.4,0-26-3.3-39.3-3.9c-11.3-0.5-23.6,0.2-34.7,1.7c-6.1,0.8-12,1.1-18.4,1.1
							c-7.3,0-14.1-1.9-21.3-1.9c-13.3,0-24.8,3.1-37.2,5.9c-3.4,0.8-7.3,1.7-10.7,3.1c-3.3,1.4-6.7,3.9-10.4,3.5
							c0,0,62.7,40.8,213.1,40.8S444.8,140.1,444.8,140.1L444.8,140.1z"/>
						
							<linearGradient id="SVGID_7_" gradientUnits="userSpaceOnUse" x1="312.4124" y1="-199.1334" x2="312.4124" y2="-224.6033" gradientTransform="matrix(1 0 0 -1 0 -67.5566)">
							<stop  offset="0" style="stop-color:#FFFFFF"/>
							<stop  offset="1" style="stop-color:#FFFFFF;stop-opacity:0"/>
						</linearGradient>
						<path class="st11" d="M316.7,131.6c-14.1,0-34.3,9-43.1,10.5c-8.8,1.6-11.9,6.5-3.3,11s29.2,5.7,46.4,0.6
							c17.2-5.2,42.9-6.6,42.9-11.3S338.6,131.6,316.7,131.6L316.7,131.6z"/>
					</g>
					<g>
						<g>
							<path class="st12" d="M89.4,69.2c-7.5,40.2,20.9,78.3,72.8,82.9c44.9,4,79.7-21.5,94.5-34.7c5.4-4.8,12.8-6.8,20.1-5.5
								c32.5,5.9,70.7,14,70.7,14s-9.7,10.3-5.8,18.5c5.2,10.9,28.1,13.2,31.1-2.9c2.5-13.3-5.3-9.4-2.4-25.2
								c2.9-15.7,8.8-9.6,11.3-22.9c3-16.1-19.4-21.5-28.2-12.9c-6.6,6.5-1.2,19.3-1.2,19.3s-38.8-4.8-71.4-9.8
								c-7.3-1.1-13.6-5.4-16.9-11.7c-9.2-17.3-32.7-52.5-76.3-63.4C137.2,2.4,96.9,29,89.4,69.2L89.4,69.2z"/>
							
								<linearGradient id="SVGID_8_" gradientUnits="userSpaceOnUse" x1="235.127" y1="-220.6537" x2="235.127" y2="-79.4007" gradientTransform="matrix(1 0 0 -1 0 -67.5566)">
								<stop  offset="0" style="stop-color:#F0F0F0"/>
								<stop  offset="1" style="stop-color:#F0F0F0;stop-opacity:0"/>
							</linearGradient>
							<path class="st13" d="M89.4,69.2c-7.5,40.2,20.9,78.3,72.8,82.9c44.9,4,79.7-21.5,94.5-34.7c5.4-4.8,12.8-6.8,20.1-5.5
								c32.5,5.9,70.7,14,70.7,14s-9.7,10.3-5.8,18.5c5.2,10.9,28.1,13.2,31.1-2.9c2.5-13.3-5.3-9.4-2.4-25.2
								c2.9-15.7,8.8-9.6,11.3-22.9c3-16.1-19.4-21.5-28.2-12.9c-6.6,6.5-1.2,19.3-1.2,19.3s-38.8-4.8-71.4-9.8
								c-7.3-1.1-13.6-5.4-16.9-11.7c-9.2-17.3-32.7-52.5-76.3-63.4C137.2,2.4,96.9,29,89.4,69.2L89.4,69.2z"/>
							<path class="st14" d="M374.3,106.1L374.3,106.1c-16.4,16.6-3.6,30-12.4,37.1c-10.5,8.4-20.2,1.2-20.2,1.2
								c5.2,10.9,28.1,13.2,31.1-2.9c2.5-13.3-5.3-9.4-2.4-25.2C371.5,110.8,372.9,108,374.3,106.1L374.3,106.1z"/>
							<path class="st14" d="M284.9,107.6c0,0,4.9-0.5,10.8-2.1c1.5-0.4,1.8-2.3,0.6-3.1c-4.9-3.5-9.3-5.5-9.3-5.5
								c4.4-1.4,7.8-2.9,10.3-4.2c0.1,0,0.2-0.1,0.3-0.2c-5.6-0.8-11.2-1.6-16.6-2.5c-7.3-1.1-13.6-5.4-16.9-11.7
								c-9.2-17.3-32.7-52.5-76.3-63.4c-21.3-5.3-40.8-3.6-56.8,3.1c-2.1,1-4.1,2.1-6,3.3c-17.6,10.8-29.4,27.9-33.2,48.2
								c-3.8,20.3,1.2,40.3,13.9,56.1c1.2,1.5,2.5,2.9,3.8,4.3c12.6,11.9,30.6,20.1,52.9,22.1c44.9,4,79.7-21.5,94.5-34.7
								c5.4-4.8,12.8-6.8,20.1-5.5c32.5,5.9,70.7,14,70.7,14L284.9,107.6L284.9,107.6z"/>
							<path class="st15" d="M364.5,84.8c0,2.4-2.1,4.4-4.6,4.4s-4.6-2-4.6-4.4s2.1-4.4,4.6-4.4S364.5,82.4,364.5,84.8z"/>
						</g>
						<g>
							<path class="st16" d="M279.5,106.6c0,0,4.9-0.5,10.8-2.1c1.5-0.4,1.8-2.3,0.6-3.1c-4.9-3.5-9.3-5.5-9.3-5.5
								c4.4-1.4,7.8-2.9,10.3-4.2c1.6-0.8,1.2-3-0.6-3.3c-3.2-0.5-7.2-1.1-9.8-1.5c-0.1,0-0.2,0-0.3,0c-6.2-1-11.5-4.8-14.2-10
								c-10.4-19.6-34.4-54-78.4-65c-25.3-6.3-49.8-3.3-69.1,8.5C101.8,31.2,90,48.3,86.2,68.7c-3.8,20.3,1.2,40.3,13.9,56.1
								c12.3,15.3,31,25.6,53.2,29.3c2.8,0.5,5.7,0.8,8.6,1.1c45.3,4,80.3-20.5,97.1-35.5c4.6-4.1,11.1-5.8,17.2-4.7
								c3.2,0.6,6.4,1.2,9.7,1.8c1.8,0.3,2.9-1.6,1.8-2.9C285.8,111.9,283.1,109.3,279.5,106.6L279.5,106.6z"/>
							
								<linearGradient id="SVGID_9_" gradientUnits="userSpaceOnUse" x1="188.8661" y1="-223.2157" x2="188.8661" y2="-76.3126" gradientTransform="matrix(1 0 0 -1 0 -67.5566)">
								<stop  offset="0" style="stop-color:#BB7100"/>
								<stop  offset="1" style="stop-color:#BB7100;stop-opacity:0"/>
							</linearGradient>
							<path class="st17" d="M279.5,106.6c0,0,4.9-0.5,10.8-2.1c1.5-0.4,1.8-2.3,0.6-3.1c-4.9-3.5-9.3-5.5-9.3-5.5
								c4.4-1.4,7.8-2.9,10.3-4.2c1.6-0.8,1.2-3-0.6-3.3c-3.2-0.5-7.2-1.1-9.8-1.5c-0.1,0-0.2,0-0.3,0c-6.2-1-11.5-4.8-14.2-10
								c-10.4-19.6-34.4-54-78.4-65c-25.3-6.3-49.8-3.3-69.1,8.5C101.8,31.2,90,48.3,86.2,68.7c-3.8,20.3,1.2,40.3,13.9,56.1
								c12.3,15.3,31,25.6,53.2,29.3c2.8,0.5,5.7,0.8,8.6,1.1c45.3,4,80.3-20.5,97.1-35.5c4.6-4.1,11.1-5.8,17.2-4.7
								c3.2,0.6,6.4,1.2,9.7,1.8c1.8,0.3,2.9-1.6,1.8-2.9C285.8,111.9,283.1,109.3,279.5,106.6L279.5,106.6z"/>
							<path class="st18" d="M246.6,98.3c-13.6-5.7-16.8-28.4-13.7-49.2c0.8-5.4,0.4-10.5-0.7-15.1c-11.6-9.5-26-17.7-43.7-22.1
								c-25.3-6.3-49.8-3.3-69.1,8.5C101.8,31.2,90,48.3,86.2,68.6c-3.8,20.3,1.2,40.3,13.9,56.1c12.3,15.3,31,25.6,53.2,29.3
								c2.8,0.5,5.7,0.8,8.6,1.1c45.3,4,80.3-20.5,97.1-35.5c4.6-4.1,11.1-5.8,17.2-4.7c3.2,0.6,6.4,1.2,9.7,1.8
								C268.4,100.1,260.2,104,246.6,98.3L246.6,98.3z"/>
						</g>
						<path class="st9" d="M229.3,30.2c-1.3-3.6-3.9-6.7-7.2-8.8c-11.9-7.5-38.1-23.9-61.2-21.1c-26.7,3.3-42.5,16.8-53.4,23.4
							c-10.9,6.6-28.8,36.5-26.7,58.5s11.1,41.2,1.6,52.6c0,0,21.3,21.3,62.7,30.3c41.4,9.1,80-19.7,95.5-31.3
							c0,0,4.8-11.5-3.1-27.7c-3.9-8.1-12.3-20.5-12.3-43.5C225.1,52,234.2,44.3,229.3,30.2L229.3,30.2z"/>
						
							<linearGradient id="SVGID_10_" gradientUnits="userSpaceOnUse" x1="161.2464" y1="-247.7634" x2="161.2464" y2="-63.1234" gradientTransform="matrix(1 0 0 -1 0 -67.5566)">
							<stop  offset="0" style="stop-color:#3F2600"/>
							<stop  offset="1" style="stop-color:#3F2600;stop-opacity:0"/>
						</linearGradient>
						<path class="st19" d="M229.3,30.2c-1.3-3.6-3.9-6.7-7.2-8.8c-11.9-7.5-38.1-23.9-61.2-21.1c-26.7,3.3-42.5,16.8-53.4,23.4
							c-10.9,6.6-28.8,36.5-26.7,58.5s11.1,41.2,1.6,52.6c0,0,21.3,21.3,62.7,30.3c41.4,9.1,80-19.7,95.5-31.3
							c0,0,4.8-11.5-3.1-27.7c-3.9-8.1-12.3-20.5-12.3-43.5C225.1,52,234.2,44.3,229.3,30.2L229.3,30.2z"/>
						
							<linearGradient id="SVGID_11_" gradientUnits="userSpaceOnUse" x1="95.9957" y1="-198.7238" x2="95.9957" y2="-211.8534" gradientTransform="matrix(1 0 0 -1 0 -67.5566)">
							<stop  offset="0" style="stop-color:#FFFFFF"/>
							<stop  offset="1" style="stop-color:#FFFFFF;stop-opacity:0"/>
						</linearGradient>
						<path class="st20" d="M74.8,131.3c5.6-1.1,19.8,3.6,30.1,2.6s15.3-1.7,16.8,0.8c1.5,2.5-9.1,9.6-20.2,9.6s-15.9-4.2-21.4-6.5
							C74.7,135.5,63.9,133.4,74.8,131.3L74.8,131.3z"/>
						
							<linearGradient id="SVGID_12_" gradientUnits="userSpaceOnUse" x1="175.7491" y1="-76.9019" x2="175.7491" y2="-195.6185" gradientTransform="matrix(1 0 0 -1 0 -67.5566)">
							<stop  offset="0" style="stop-color:#FFFFFF"/>
							<stop  offset="1" style="stop-color:#FFFFFF;stop-opacity:0"/>
						</linearGradient>
						<path class="st21" d="M157.3,107.1c21,15.4,42.8,19.7,58.1,20.9c10,0.8,17.4-9,13.2-17.6c0-0.1-0.1-0.2-0.1-0.3
							c-0.5-1-1.1-2.1-1.7-3.2c-4.3-8.2-11.5-22-11.5-44.2c0-5.7,1.7-10.4,3.2-14.6c2-5.4,3.4-9.3,1.4-15c-0.5-1.5-1.7-2.9-3.3-4
							c-10.4-6.6-34.9-22-54.6-19.6c-14.3,1.8-25,6.7-33.8,12c-5.2,3.1-7.7,8.9-6.1,14.5C127.5,55.5,131,87.8,157.3,107.1
							L157.3,107.1z"/>
						<path class="st22" d="M168.2,55.7c4.4,6.5,10.8,11.8,18.6,16c6.3,3.4,13.9-1,13.9-7.8c0-0.4,0-0.8,0-1.2
							c0-4.8,1.9-12,3.4-17.1c1.2-3.8-0.5-7.9-4.1-10c-10.3-6-25.4-13.5-36-12.2c-3.1,0.4-6,1-8.7,1.6c-7.5,2-9.1,11.5-2.7,15.7
							C158,44.3,163.7,49.2,168.2,55.7L168.2,55.7z"/>
						<g>
							<path class="st23" d="M161.3,8.4c0,0.7-1,1.3-2.3,1.3s-2.3-0.6-2.3-1.3s1-1.3,2.3-1.3S161.3,7.7,161.3,8.4z"/>
							<ellipse class="st23" cx="172.2" cy="11.9" rx="2.3" ry="1.3"/>
							<path class="st23" d="M145.2,19.2c0,0.7-1,1.3-2.3,1.3s-2.3-0.6-2.3-1.3s1-1.3,2.3-1.3S145.2,18.5,145.2,19.2z"/>
							<ellipse class="st23" cx="119.8" cy="22.2" rx="2.3" ry="1.3"/>
							<path class="st23" d="M116.5,60.1c0,0.7-1,1.3-2.3,1.3s-2.3-0.6-2.3-1.3s1-1.3,2.3-1.3S116.5,59.4,116.5,60.1z"/>
							<path class="st23" d="M131.7,32.8c0,0.7-1,1.3-2.3,1.3s-2.3-0.6-2.3-1.3s1-1.3,2.3-1.3S131.7,32.1,131.7,32.8z"/>
							<ellipse class="st23" cx="145.2" cy="72.9" rx="2.3" ry="1.3"/>
							<ellipse class="st23" cx="101.7" cy="37.1" rx="2.3" ry="1.3"/>
							<path class="st23" d="M161.3,42.1c0,0.7-1,1.3-2.3,1.3s-2.3-0.6-2.3-1.3s1-1.3,2.3-1.3S161.3,41.4,161.3,42.1z"/>
							<path class="st23" d="M181.1,30.3c0,0.7-1,1.3-2.3,1.3s-2.3-0.6-2.3-1.3s1-1.3,2.3-1.3S181.1,29.6,181.1,30.3z"/>
							<path class="st23" d="M181.1,94.2c0,0.7-1,1.3-2.3,1.3s-2.3-0.6-2.3-1.3s1-1.3,2.3-1.3S181.1,93.5,181.1,94.2z"/>
							<ellipse class="st23" cx="186.4" cy="23.1" rx="2.3" ry="1.3"/>
							<ellipse class="st23" cx="198.6" cy="55" rx="2.3" ry="1.3"/>
							<ellipse class="st23" cx="195.7" cy="11.9" rx="2.3" ry="1.3"/>
							<ellipse class="st23" cx="209.2" cy="20.9" rx="2.3" ry="1.3"/>
							<path class="st23" d="M219.7,42.7c0,0.7-1,1.3-2.3,1.3s-2.3-0.6-2.3-1.3s1-1.3,2.3-1.3S219.7,42,219.7,42.7z"/>
						</g>
					</g>
				</g>
			</g>
		</g>
	</g>
</g>
</svg>
