<?xml version="1.0" encoding="utf-8"?>
<!-- Generator: Adobe Illustrator 24.0.2, SVG Export Plug-In . SVG Version: 6.00 Build 0)  -->
<svg version="1.1" id="Capa_1" xmlns="http://www.w3.org/2000/svg" xmlns:xlink="http://www.w3.org/1999/xlink" x="0px" y="0px"
	 viewBox="0 0 165.3 420.4" style="enable-background:new 0 0 165.3 420.4;" xml:space="preserve">
<style type="text/css">
	.st0{fill:#78787E;}
	.st1{opacity:0.7;fill:url(#SVGID_1_);enable-background:new    ;}
	.st2{fill:#4B4B53;}
	.st3{opacity:0.7;fill:url(#SVGID_2_);enable-background:new    ;}
	.st4{opacity:0.5;fill:#4B4B53;enable-background:new    ;}
	.st5{opacity:0.7;fill:url(#SVGID_3_);enable-background:new    ;}
	.st6{opacity:0.7;fill:url(#SVGID_4_);enable-background:new    ;}
	.st7{opacity:0.3;fill:url(#SVGID_5_);enable-background:new    ;}
	.st8{opacity:0.3;fill:url(#SVGID_6_);enable-background:new    ;}
	.st9{opacity:0.3;fill:#FFFFFF;enable-background:new    ;}
	.st10{opacity:0.6;fill:url(#SVGID_7_);enable-background:new    ;}
</style>
<g>
	<g id="copal">
		<g>
			<path class="st0" d="M19,248.1c1.2-2.7,5.2-3.9,8.2-4.4c4.4-0.8,7.3-2.6,11.1-4.7c1.2-0.6,2.4-1.1,3.8-1c1.6,0.2,2,1.1,3.7,0.5
				c1.8-0.6,2-2.2,3-3.4c2-2.5,5.3-2.1,8.3-2.9c2.6-0.7,3.8-2.9,6.6-3.2c2.9-0.3,3.5,0.2,5.3-2c1.6-1.9,3.5-2.4,6.1-3.3
				c1.6-0.5,2.7-0.9,4.4-1.1c1.2-0.1,2.1-0.3,2.9-1c0.8,0.7,1.8,0.9,2.9,1c1.7,0.2,2.8,0.6,4.4,1.1c2.6,0.9,4.5,1.4,6.1,3.3
				c1.8,2.2,2.3,1.8,5.3,2.1c2.8,0.3,3.9,2.5,6.5,3.2c3,0.9,6.3,0.5,8.3,3c0.9,1.2,1.1,2.8,2.9,3.4c1.7,0.6,2.1-0.3,3.7-0.5
				c1.4-0.1,2.6,0.3,3.8,1c3.8,2.1,6.6,4,11,4.9c3,0.5,7,1.8,8.1,4.5L19,248.1L19,248.1z"/>
			
				<linearGradient id="SVGID_1_" gradientUnits="userSpaceOnUse" x1="7584.7754" y1="20.2944" x2="7584.7754" y2="47.0919" gradientTransform="matrix(-1 -7.853848e-03 7.853848e-03 -1 7666.6294 328.6606)">
				<stop  offset="0" style="stop-color:#78787E"/>
				<stop  offset="1" style="stop-color:#78787E;stop-opacity:0"/>
			</linearGradient>
			<path class="st1" d="M19,248.1c1.2-2.7,5.2-3.9,8.2-4.4c4.4-0.8,7.3-2.6,11.1-4.7c1.2-0.6,2.4-1.1,3.8-1c1.6,0.2,2,1.1,3.7,0.5
				c1.8-0.6,2-2.2,3-3.4c2-2.5,5.3-2.1,8.3-2.9c2.6-0.7,3.8-2.9,6.6-3.2c2.9-0.3,3.5,0.2,5.3-2c1.6-1.9,3.5-2.4,6.1-3.3
				c1.6-0.5,2.7-0.9,4.4-1.1c1.2-0.1,2.1-0.3,2.9-1c0.8,0.7,1.8,0.9,2.9,1c1.7,0.2,2.8,0.6,4.4,1.1c2.6,0.9,4.5,1.4,6.1,3.3
				c1.8,2.2,2.3,1.8,5.3,2.1c2.8,0.3,3.9,2.5,6.5,3.2c3,0.9,6.3,0.5,8.3,3c0.9,1.2,1.1,2.8,2.9,3.4c1.7,0.6,2.1-0.3,3.7-0.5
				c1.4-0.1,2.6,0.3,3.8,1c3.8,2.1,6.6,4,11,4.9c3,0.5,7,1.8,8.1,4.5L19,248.1L19,248.1z"/>
			<path class="st2" d="M65.1,384.3l6.5-93.5l20.6,0.1l4.7,93.5c0.4,7.8,6.5,14.6,15.4,17l33.1,9.2c4.4,1.2,7.4,4.7,7.4,8.6v1
				l-144.2-1v-1c0-3.9,3.1-7.4,7.6-8.5l33.3-8.8C58.3,398.8,64.5,392.1,65.1,384.3L65.1,384.3z"/>
			
				<linearGradient id="SVGID_2_" gradientUnits="userSpaceOnUse" x1="7585.043" y1="-151.1456" x2="7585.043" y2="-22.0328" gradientTransform="matrix(-1 -7.853848e-03 7.853848e-03 -1 7666.6294 328.6606)">
				<stop  offset="0" style="stop-color:#4B4B53"/>
				<stop  offset="1" style="stop-color:#4B4B53;stop-opacity:0"/>
			</linearGradient>
			<path class="st3" d="M65.1,384.3l6.5-93.5l20.6,0.1l4.7,93.5c0.4,7.8,6.5,14.6,15.4,17l33.1,9.2c4.4,1.2,7.4,4.7,7.4,8.6v1
				l-144.2-1v-1c0-3.9,3.1-7.4,7.6-8.5l33.3-8.8C58.3,398.8,64.5,392.1,65.1,384.3L65.1,384.3z"/>
			<path class="st4" d="M75.9,334.7l-10.8,49.6l6.5-93.5l20.6,0.1l2.1,41.5C88.8,333.9,82.7,334.7,75.9,334.7L75.9,334.7z"/>
			<path class="st2" d="M12.1,253.7c-0.4,40.6,30.7,73.8,69.4,74c38.7,0.3,70.4-32.5,70.8-73.1L12.1,253.7L12.1,253.7z"/>
			<path class="st2" d="M11.3,240.5l142,0.9c4.4,0,7.9,3,7.8,6.6l0,0c0,3.6-3.6,6.6-8,6.5l-142-0.9c-4.4,0-7.9-3-7.8-6.6l0,0
				C3.4,243.4,7,240.5,11.3,240.5L11.3,240.5z"/>
			
				<linearGradient id="SVGID_3_" gradientUnits="userSpaceOnUse" x1="7584.7813" y1="-58.8356" x2="7584.7813" y2="14.8382" gradientTransform="matrix(-1 -7.853848e-03 7.853848e-03 -1 7666.6294 328.6606)">
				<stop  offset="0" style="stop-color:#4B4B53"/>
				<stop  offset="1" style="stop-color:#4B4B53;stop-opacity:0"/>
			</linearGradient>
			<path class="st5" d="M12.1,253.7c-0.4,40.6,30.7,73.8,69.4,74c38.7,0.3,70.4-32.5,70.8-73.1L12.1,253.7L12.1,253.7z"/>
			
				<linearGradient id="SVGID_4_" gradientUnits="userSpaceOnUse" x1="7584.7778" y1="14.6544" x2="7584.7778" y2="28.01" gradientTransform="matrix(-1 -7.853848e-03 7.853848e-03 -1 7666.6294 328.6606)">
				<stop  offset="0" style="stop-color:#4B4B53"/>
				<stop  offset="1" style="stop-color:#4B4B53;stop-opacity:0"/>
			</linearGradient>
			<path class="st6" d="M11.3,240.5l142,0.9c4.4,0,7.9,3,7.8,6.6l0,0c0,3.6-3.6,6.6-8,6.5l-142-0.9c-4.4,0-7.9-3-7.8-6.6l0,0
				C3.4,243.4,7,240.5,11.3,240.5L11.3,240.5z"/>
			
				<linearGradient id="SVGID_5_" gradientUnits="userSpaceOnUse" x1="7585.0215" y1="-143.1356" x2="7585.0215" y2="-73.8812" gradientTransform="matrix(-1 -7.853848e-03 7.853848e-03 -1 7666.6294 328.6606)">
				<stop  offset="0" style="stop-color:#FFFFFF"/>
				<stop  offset="1" style="stop-color:#FFFFFF;stop-opacity:0"/>
			</linearGradient>
			<path class="st7" d="M74.6,384.8L74.6,384.8l2.7-38.8c0.1-1.8,1.9-3.2,4.1-3.2l0,0c2.2,0,3.9,1.4,4,3.2l2,38.8
				c0.6,11.1,9.3,20.8,21.9,24.3l11.1,3.1l-79.3-0.5l12.7-3.3C66.1,405.1,74.5,395.6,74.6,384.8L74.6,384.8z"/>
			<path class="st4" d="M81.6,312.7c26.2,0.2,49.7-12,65.6-31.3c-10.5,27.3-36,46.6-65.7,46.4s-54.9-19.8-64.9-47.3
				C32.2,300,55.5,312.5,81.6,312.7z"/>
			
				<linearGradient id="SVGID_6_" gradientUnits="userSpaceOnUse" x1="7584.7861" y1="-42.9056" x2="7584.7861" y2="14.8292" gradientTransform="matrix(-1 -7.853848e-03 7.853848e-03 -1 7666.6294 328.6606)">
				<stop  offset="0" style="stop-color:#FFFFFF"/>
				<stop  offset="1" style="stop-color:#FFFFFF;stop-opacity:0"/>
			</linearGradient>
			<path class="st8" d="M22.1,253.7c3.3,32.5,28.7,57.8,59.6,58s56.7-24.8,60.7-57.3L22.1,253.7L22.1,253.7z"/>
			<path class="st9" d="M31.4,263.4c0,3.1,3,5.7,6.7,5.7c3.7,0,6.8-2.5,6.8-5.6c0-3.1-3-5.7-6.7-5.7
				C34.5,257.8,31.4,260.3,31.4,263.4L31.4,263.4z"/>
			<path class="st9" d="M37.8,276.8c0,2.1,2,3.8,4.5,3.8c2.5,0,4.5-1.7,4.5-3.7c0-2.1-2-3.8-4.5-3.8
				C39.9,273.1,37.8,274.8,37.8,276.8z"/>
			<path class="st4" d="M11.3,248l142,0.9c3.1,0,5.8-1.5,7.1-3.7c0.5,0.9,0.8,1.8,0.8,2.8c0,3.6-3.6,6.6-8,6.5l-142-0.9
				c-4.4,0-7.9-3-7.8-6.6c0-1,0.3-2,0.8-2.8C5.4,246.4,8.1,248,11.3,248L11.3,248z"/>
			
				<linearGradient id="SVGID_7_" gradientUnits="userSpaceOnUse" x1="7591.3906" y1="52.3129" x2="7591.3906" y2="269.1042" gradientTransform="matrix(-1 -7.853848e-03 7.853848e-03 -1 7666.6294 328.6606)">
				<stop  offset="0" style="stop-color:#FFFFFF"/>
				<stop  offset="1" style="stop-color:#FFFFFF;stop-opacity:0"/>
			</linearGradient>
			<path class="st10" d="M82.5,216.8c0,0,35.7-15.1,30.8-38.3c-4.7-22.7-66.4-50.4-56.6-75.6c10.4-26.7,69.3-14.9,78.2-51.7
				C143.8,15,84.8,0,84.8,0s23.8,15.4,16.6,32c-8.6,19.9-64.6,8.4-82.7,30s-8.5,48.2,31.1,69.2c37.6,20,85.1,14.7,92.6,42.6
				C151.7,208.7,82.5,216.8,82.5,216.8L82.5,216.8z"/>
		</g>
	</g>
</g>
</svg>
