<?xml version="1.0" encoding="utf-8"?>
<!-- Generator: Adobe Illustrator 24.0.2, SVG Export Plug-In . SVG Version: 6.00 Build 0)  -->
<svg version="1.1" id="Capa_1" xmlns="http://www.w3.org/2000/svg" xmlns:xlink="http://www.w3.org/1999/xlink" x="0px" y="0px"
	 viewBox="0 0 366.5 440" style="enable-background:new 0 0 366.5 440;" xml:space="preserve">
<style type="text/css">
	.st0{fill:#F5EFEC;}
	.st1{fill:#E6E1DF;}
	.st2{fill:#D5CDCB;}
	.st3{fill:#EF7C34;}
	.st4{fill:#E52E2E;}
	.st5{fill:#382D2C;}
	.st6{fill:#201818;}
	.st7{fill:#EAD8C7;}
	.st8{fill:#B88F6B;}
	.st9{fill:#F8F8F8;}
	.st10{fill:#A3D670;}
	.st11{fill:#CA52B3;}
	.st12{fill:#C93D3D;}
	.st13{fill:#6E3C3C;}
	.st14{fill:#FFD27A;}
</style>
<g>
	<g id="craneo_centro">
		<g>
			<g>
				<path class="st0" d="M362.8,233.3c-0.4-2.3-0.7-4.5-1-6.8c-2.6-19.6,2.9-37.6,3.6-57.2c1.4-41.2-13.7-82.9-42-113.4
					c-14.6-15.7-32.5-28.4-52.2-37.2c-3.7-1.6-7.5-3.3-11.4-4.7C224.9,0.8,187.4-3.1,151,2.4c-15,2.3-29.9,6.1-44.2,11.6
					c-0.7,0.3-1.4,0.5-2.1,0.8h0c-0.6,0.2-1.2,0.5-1.8,0.7c-2.6,1-5.1,2.1-7.6,3.2c-19.7,8.9-37.6,21.5-52.2,37.2
					c-28.3,30.6-43.5,72.3-42,113.4c0,1,0.1,2,0.1,3c0.1,2,0.3,3.9,0.5,5.9c0.2,1.9,0.4,3.8,0.6,5.7c0.1,0.7,0.2,1.4,0.3,2
					c0.7,5.1,1.4,10.2,1.9,15.3c0.1,0.9,0.2,1.9,0.3,2.9c0.2,1.6,0.3,3.2,0.4,4.8c0,0.4,0.1,0.8,0.1,1.2c0,0.6,0.1,1.3,0.1,1.9
					c0,0.5,0,1,0,1.5c0.1,4.3-0.1,8.7-0.7,13.1c0,0.2-0.1,0.3-0.1,0.5c-0.5,3.5-1.1,7.1-1.7,10.7c-0.1,0.8-0.3,1.5-0.4,2.3
					c-0.1,0.8-0.3,1.7-0.4,2.6c-0.2,1.4-0.5,2.9-0.7,4.3c-0.1,0.8-0.2,1.5-0.3,2.3c-0.2,1.5-0.4,3.1-0.6,4.6c0,0,0,0.1,0,0.1
					c-0.1,1.3-0.2,2.6-0.3,3.8c-0.7,9.6,0.2,19,4.9,27.8c6.5,12.2,19.2,19.5,32.9,23.2c5.3,1.4,10.8,2.3,16.1,2.6
					c3.2,0.2,6.5,0.3,9.7,0.3c3.3,0,6.3-0.1,9.4-0.2h0.1c0.1,0,0.2,0,0.2,0c0.8,0,1.6-0.1,2.5-0.1h0c1.7-0.1,3.4-0.2,5.1-0.3
					c0.5,0,1,0,1.5-0.1c-0.1,0.4-0.3,0.8-0.4,1.2c-0.4,1.3-0.8,2.6-1.2,3.9c0,0,0,0,0,0c0,0.1,0,0.2-0.1,0.3
					c-0.2,0.7-0.4,1.5-0.7,2.2c-0.6,2.2-1.2,4.3-1.8,6.5c-5.9,22.1-9.2,44.8-9.7,67.6c-0.1,4.5-0.1,9.2,1.9,13.3
					c2.1,4.3,6.1,7.4,10.1,10.1c8.6,5.7,17.8,10.2,27.5,13.6c13.1,4.7,27,7.5,40.9,8.9c11.3,1.2,22.6,1.5,34,1.3
					c11.3,0.2,22.7-0.1,34-1.3c23.5-2.4,46.9-8.8,66.6-21.4c0.6-0.4,1.2-0.8,1.8-1.1c4-2.7,8-5.8,10.1-10.1c2-4.1,2-8.7,1.9-13.3
					c-0.6-27.5-5.2-54.9-13.7-81.1c-0.1-0.2-0.2-0.5-0.2-0.7c9.5,0.5,19,1.1,28.5,0.4c19.4-1.4,40-9,49.1-25.9
					C370,269.2,365.7,250.7,362.8,233.3L362.8,233.3z M266.4,321.7c5.8,1.6,9.6,7.3,10.3,13.1c1.1,8.1-1.7,23.3-7.6,29.5
					c-5.9,6.2-16.1,8.6-23.4,4.1c0.1,0,0.6-0.9,1.3-2.3c1.7-3.4,4.7-10,7.8-17.2c0.9-2,1.8-4,2.6-6c2.8-6.5,5.5-12.7,7.1-16.8
					C265.6,323.9,266.2,322.3,266.4,321.7L266.4,321.7z M102.1,326.9c0.1,0.2,0.2,0.5,0.3,0.7c0.3,0.7,0.6,1.5,1,2.3
					c1.6,3.9,3.7,8.7,5.8,13.6c0.4,1,0.9,2.1,1.4,3.1c3.8,8.8,7.7,17.2,9.3,20.4c0.5,0.9,0.8,1.4,0.9,1.4c-5.2,3.3-12,2.9-17.6,0.1
					c-2.2-1.1-4.2-2.5-5.8-4.3c-4.4-4.7-7.1-14.6-7.7-22.6c-0.2-2.6-0.1-4.9,0.1-6.9c0.6-4,2.5-8,5.6-10.5c0.4-0.3,0.7-0.6,1.1-0.9
					c1.1-0.8,2.3-1.3,3.6-1.7C100.3,322.4,101,324.2,102.1,326.9L102.1,326.9z"/>
				<path class="st1" d="M123.7,302.1c-3.5-0.2-13.3,7.9-16.7,9.7c-3.4,1.8-6.9,3.6-10.5,5.3c-1.4,0.6-2.7,1.3-4.1,1.9
					c-1,0.4-1.9,0.9-2.9,1.3c-0.6,0.3-1.2,0.5-1.8,0.8c-3,1.3-6.1,2.7-9.3,4c0.6-2.2,1.2-4.3,1.8-6.5c0.2-0.7,0.4-1.5,0.7-2.2
					c0-0.1,0.1-0.2,0.1-0.3c0,0,0,0,0,0c0.4-1.3,0.8-2.6,1.2-3.9c0.1-0.4,0.3-0.8,0.4-1.2c-0.5,0-1,0-1.5,0.1
					c-1.7,0.1-3.4,0.2-5.1,0.3h0c-0.8,0-1.6,0.1-2.5,0.1c-0.1,0-0.2,0-0.2,0h-0.1c-3.1,0.1-6.3,0.2-9.4,0.2c-3.1,0-6.5-0.1-9.7-0.3
					c-5.4-0.4-10.8-1.2-16.1-2.6c-13.8-3.7-26.4-11.1-32.9-23.2c-4.7-8.8-5.6-18.2-4.9-27.8c0.1-1.3,0.2-2.5,0.3-3.8
					c0,0,0-0.1,0-0.1c0.2-1.5,0.4-3.1,0.6-4.6c0.1-0.8,0.2-1.5,0.3-2.3c0.2-1.4,0.4-2.9,0.7-4.3c0.1-0.9,0.3-1.7,0.4-2.6
					c0.1-0.8,0.3-1.5,0.4-2.3c0.6-3.6,1.2-7.2,1.7-10.7c0-0.2,0.1-0.3,0.1-0.5c0.6-4.4,0.8-8.8,0.7-13.1c0-0.5,0-1,0-1.5
					c0-0.6-0.1-1.3-0.1-1.9c0-0.4,0-0.8-0.1-1.2c-0.1-1.6-0.2-3.2-0.4-4.8c-0.1-1-0.2-1.9-0.3-2.9C4,196.1,3.2,191,2.6,185.9
					c-0.1-0.7-0.2-1.4-0.3-2c-0.2-1.9-0.4-3.8-0.6-5.7c-0.2-1.9-0.3-3.9-0.5-5.9c-0.1-1-0.1-2-0.1-3c-1.4-41.2,13.7-82.9,42-113.4
					c14.6-15.7,32.5-28.4,52.2-37.2c2.5-1.1,5-2.2,7.6-3.2c0.6-0.2,1.2-0.4,1.8-0.7h0c0.7-0.3,1.4-0.6,2.1-0.8
					C121.1,8.5,136,4.6,151,2.4c-31.6,20.4-58.7,47.4-79.1,78.7c-9,13.9-16.8,28.9-20,45c-2.5,12.6-2.1,26,2.3,37.9
					c1.3,3.4,2.9,6.7,4.8,9.9c2.4,3.9,5.4,7.6,6.2,12c1.4,7.4-3.3,14.4-6.9,21c-6.8,12.4-10.2,27-8.6,40.9c0.7,6,2.3,11.8,5,17.3
					C66.9,289.3,96.3,300.5,123.7,302.1L123.7,302.1z"/>
				<path class="st1" d="M283.8,417.2c-19.7,12.6-43.2,19-66.6,21.4c-11.3,1.2-22.6,1.5-34,1.3c-11.3,0.2-22.7-0.1-34-1.3
					c-13.9-1.5-27.8-4.3-40.9-8.9c-9.7-3.5-19-7.9-27.5-13.6c-4-2.7-8-5.8-10.1-10.1c-2-4.1-2-8.7-1.9-13.3
					c0.5-22.8,3.8-45.6,9.7-67.6c0.6-2.2,1.2-4.3,1.8-6.5c0.2-0.7,0.4-1.5,0.7-2.2c0-0.1,0.1-0.2,0.1-0.3c0,0,0,0,0,0
					c0.4-1.3,0.8-2.6,1.2-3.9c0.1-0.4,0.3-0.8,0.4-1.2c-0.5,0-1,0-1.5,0.1c-1.7,0.1-3.4,0.2-5.1,0.3h0c-0.8,0-1.6,0.1-2.5,0.1
					c-0.1,0-0.2,0-0.2,0h-0.1c-3.1,0.1-6.3,0.2-9.4,0.2c-3.1,0-6.5-0.1-9.7-0.3c-5.4-0.4-10.8-1.2-16.1-2.6c1.1-2.7,2.1-5.4,3.3-8
					l3.4,0.3h0l44.8,4.2l9.6,0.9c-1,3.6-1.9,7.3-2.6,11.1c-0.4,1.8-0.7,3.5-1,5.3c-0.1,0.6-0.2,1.2-0.3,1.8c-3.1,2.6-5,6.5-5.6,10.5
					c-0.3,2-0.3,4.3-0.1,6.9c0.6,8,3.3,17.9,7.7,22.6c1.7,1.7,3.6,3.2,5.8,4.3c5.1,8.2,11.9,15.5,18.6,22.5
					c8.6,9,17.4,18.2,28.2,24.6c26.6,15.8,60.1,12.6,90.9,8.7C255.1,422.6,269.7,420.8,283.8,417.2L283.8,417.2z"/>
				<path class="st1" d="M361.3,285.4c-9.1,16.8-29.7,24.5-49.1,25.9c-9.5,0.7-19,0.2-28.5-0.4c0.1,0.2,0.2,0.5,0.2,0.7
					c-5.4-2.5-10.6-5.2-15.6-8.3c-9.9-6.4-18.8-14.9-23.6-25.5c20.6,11.1,46.9,6.5,67.5-4.7c18.9-10.3,34.4-25.6,50.5-39.8
					C365.6,250.7,370,269.2,361.3,285.4L361.3,285.4z"/>
				<path class="st1" d="M62.9,257.9c11.1,5.8,24.2,7.1,36.7,6.5c11.7-0.5,23.5-2.7,33.5-8.6c15.4-9.3,24.4-27.5,23.5-45.2
					c-2-36.2-38.2-56.8-71.9-58.8c-31.2-1.8-50.6,34.3-49.1,61.3C36.5,231.2,46.3,249.3,62.9,257.9L62.9,257.9z"/>
				<path class="st1" d="M214.2,188.3c-4.3,18.1,2.1,38.2,16.1,50.7c11.8,10.5,27.9,15.4,43.8,16.2c13,0.7,26.9-1.5,36.8-9.9
					c8-6.8,12.4-16.8,14.7-26.9c4.2-19,1-40.1-11.5-55.2c-11.4-13.6-30.8-19.5-48.3-20c-14.7-0.4-25.1,8.1-35,17.8
					C222.9,168.7,216.7,177.5,214.2,188.3z"/>
				<path class="st2" d="M89.7,305.2c-2.7,2.1-5.5,4.1-8.4,5.8c-1.7,0.1-3.4,0.2-5.1,0.3h0c-0.8,0-1.6,0.1-2.5,0.1
					c-0.1,0-0.2,0-0.2,0h-0.1c-3.1,0.1-6.3,0.2-9.4,0.2c-3.1,0-6.5-0.1-9.7-0.3c-5.4-0.4-10.8-1.2-16.1-2.6
					c-13.8-3.7-26.4-11.1-32.9-23.2c-4.7-8.8-5.6-18.2-4.9-27.8c0.1-1.3,0.2-2.5,0.3-3.8c0,0,0-0.1,0-0.1c0.2-1.5,0.4-3.1,0.6-4.6
					c0.1-0.8,0.2-1.5,0.3-2.3c0.2-1.4,0.4-2.9,0.7-4.3c0.1-0.9,0.3-1.7,0.4-2.6c0.1-0.8,0.3-1.5,0.4-2.3c0.6-3.6,1.2-7.2,1.7-10.7
					c0-0.2,0.1-0.3,0.1-0.5c0.6-4.4,0.8-8.8,0.7-13.1c0-0.5,0-1,0-1.5c0-0.6-0.1-1.3-0.1-1.9c0-0.4,0-0.8-0.1-1.2
					c-0.1-1.6-0.2-3.2-0.4-4.8c-0.1-1-0.2-1.9-0.3-2.9C4,196.1,3.3,191,2.6,185.9c-0.1-0.7-0.2-1.4-0.3-2c-0.2-1.9-0.4-3.8-0.6-5.7
					c-0.2-1.9-0.3-3.9-0.5-5.9c-0.1-1-0.1-2-0.1-3c-1.4-41.2,13.7-82.9,42-113.4c14.6-15.7,32.5-28.4,52.2-37.2
					c2.5-1.1,5-2.2,7.6-3.2c0.6-0.2,1.2-0.4,1.8-0.7C83.3,30,64.3,48.3,50,69.9c-12.5,18.8-21.2,40.2-24.5,62.4
					c-1,6.7-2.5,14.1-2.1,21.1l0.6-0.9c0,2.2,0.1,4.4,0.2,6.6c0.1,0.4,0.2,0.7,0.3,1.1c3.5,12,7.5,23.6,5,36.2
					c-1.9,9.5-7.1,18-10.7,27c-9,22.8-6.1,51.4,12,68.3c4.1,3.9,8.9,7,14,9.3h0C58.4,307.2,74.7,308.3,89.7,305.2L89.7,305.2z"/>
				<path class="st2" d="M108.4,429.7c-9.7-3.5-19-7.9-27.5-13.6c-4-2.7-8-5.8-10.1-10.1c-2-4.1-2-8.7-1.9-13.3
					c0.5-22.8,3.8-45.6,9.7-67.6c0.6-2.2,1.2-4.3,1.8-6.5c0.2-0.7,0.4-1.5,0.7-2.2c0-0.1,0.1-0.2,0.1-0.3c0,0,0,0,0,0
					c0.9-1.3,2.2-2,4.1-1.3c2.8,1,3.2,3.6,2.7,6.3c-0.6,2.9-2.1,6-2.7,7.9c-3.1,9.1-4.6,18.7-4.4,28.2c0.1,8.2,0.2,17.1,1.8,25.2
					C85.6,397.7,93,412,103.2,424C104.9,426,106.6,427.9,108.4,429.7L108.4,429.7z"/>
				<g>
					<path class="st3" d="M45.6,163.1c-9.4-0.4-19.2,4.8-22.8,13.4c-3.6,8.5,0.3,19.8,9,23.4c-4.7,4-9.4,8.1-12.5,13.3
						c-3.1,5.3-4.2,12-1.3,17.4c3,5.5,9.7,8.4,16.1,8.9c-3.8,5.8-7.5,12.9-5,19.4c2.1,5.5,8.3,8.7,14.3,9c6,0.3,11.8-1.9,17.2-4.4
						c0,8.5,7.1,16.4,15.6,17.5c8.6,1.2,17.5-4.5,19.9-12.6c4.1,4.1,8.5,8,13.8,10.1c5.4,2.1,11.9,2.3,16.7-0.9
						c4.8-3.2,7-10.2,3.8-14.9c8.1,4.2,18.8,4.3,25.8-1.5c7-5.8,8-17.9,0.9-23.5c3.1-0.7,5.4-3.2,7.4-5.6c3.3-4,6.5-8.3,8.1-13.1
						c1.6-4.9,1.6-10.6-1.3-14.9c-2.9-4.3-8.9-6.7-13.7-4.5c2.9-4.1,5.7-8.4,6.9-13.2c1.2-4.8,0.7-10.3-2.4-14.3
						c-4.1-5.1-12.3-6.3-17.7-2.6c2.4-5,4.8-10.2,5.3-15.7c0.5-5.5-1.3-11.6-6-14.8c-4.3-2.9-10.1-2.8-15-1c-4.9,1.8-9,5.1-13.1,8.3
						c2-8.9-1.7-19.8-10.5-22.8c-5.7-1.9-9.9-0.1-14.3,3c-1.1,0.8-12.4,9.6-9.6,11.5c-7.3-5-16.1-8.3-24.9-7.1
						c-7.4,1-15.5,6.2-17.6,13.6C37.4,148.8,38.9,162.8,45.6,163.1L45.6,163.1z"/>
					<g>
						<path class="st4" d="M96.9,149.9c1.7,0.7,3.6,1.4,5.5,1.1c1.8-0.3,3.3-1.4,4.6-2.6c6.8-6.7,3-20.1-8-18.3
							C88.8,131.7,88,146.1,96.9,149.9L96.9,149.9z"/>
						<path class="st4" d="M55,158.9c1.7,0.7,3.6,1.4,5.5,1.1c1.8-0.3,3.3-1.4,4.6-2.6c6.8-6.7,3-20.1-8-18.3
							C46.9,140.8,46.1,155.2,55,158.9L55,158.9z"/>
						<path class="st4" d="M35.9,192.1c1.7,0.7,3.6,1.4,5.5,1.1c1.8-0.3,3.3-1.4,4.6-2.6c6.8-6.7,3-20.1-8-18.3
							C27.8,174,27,188.3,35.9,192.1L35.9,192.1z"/>
						<path class="st4" d="M29.7,229.8c1.7,0.7,3.6,1.4,5.5,1.1c1.8-0.3,3.3-1.4,4.6-2.6c6.8-6.7,3-20.1-8-18.3
							C21.6,211.7,20.9,226.1,29.7,229.8L29.7,229.8z"/>
						<path class="st4" d="M42.7,260.3c1.7,0.7,3.6,1.4,5.5,1.1c1.8-0.3,3.3-1.4,4.6-2.6c6.8-6.7,3-20.1-8-18.3
							C34.6,242.1,33.8,256.5,42.7,260.3L42.7,260.3z"/>
						<path class="st4" d="M74.7,273c1.7,0.7,3.6,1.4,5.5,1.1c1.8-0.3,3.3-1.4,4.6-2.6c6.8-6.7,3-20.1-8-18.3
							C66.6,254.8,65.9,269.2,74.7,273L74.7,273z"/>
						<path class="st4" d="M110.1,272.1c1.7,0.7,3.6,1.4,5.5,1.1c1.8-0.3,3.3-1.4,4.6-2.6c6.8-6.7,3-20.1-8-18.3
							C102,253.9,101.3,268.3,110.1,272.1L110.1,272.1z"/>
						<path class="st4" d="M139.1,257.6c1.7,0.7,3.6,1.4,5.5,1.1c1.8-0.3,3.3-1.4,4.6-2.6c6.8-6.7,3-20.1-8-18.3
							C131,239.4,130.2,253.8,139.1,257.6L139.1,257.6z"/>
						<path class="st4" d="M152,228.6c1.7,0.7,3.6,1.4,5.5,1.1c1.8-0.3,3.3-1.4,4.6-2.6c6.8-6.7,3-20.1-8-18.3
							C143.9,210.5,143.2,224.8,152,228.6L152,228.6z"/>
						<path class="st4" d="M145.2,195.1c1.7,0.7,3.6,1.4,5.5,1.1c1.8-0.3,3.3-1.4,4.6-2.6c6.8-6.7,3-20.1-8-18.3
							C137.2,177,136.4,191.4,145.2,195.1L145.2,195.1z"/>
						<path class="st4" d="M128,165.6c1.7,0.7,3.6,1.4,5.5,1.1c1.8-0.3,3.3-1.4,4.6-2.6c6.8-6.7,3-20.1-8-18.3
							C119.9,147.4,119.2,161.8,128,165.6L128,165.6z"/>
					</g>
				</g>
				<g>
					<path class="st3" d="M316.5,160.2c9.4-0.4,19.2,4.8,22.8,13.4c3.6,8.5-0.3,19.8-9,23.4c4.7,4,9.4,8.1,12.5,13.3
						c3.1,5.3,4.2,12,1.3,17.4c-3,5.5-9.7,8.4-16.1,8.9c3.8,5.8,7.5,12.9,5,19.4c-2.1,5.5-8.3,8.7-14.3,9c-6,0.3-11.8-1.9-17.2-4.4
						c0,8.5-7.1,16.4-15.6,17.5c-8.6,1.2-17.5-4.5-19.9-12.6c-4.1,4.1-8.5,8-13.8,10.1c-5.4,2.1-11.9,2.3-16.7-0.9s-7-10.2-3.8-14.9
						c-8.1,4.2-18.8,4.3-25.8-1.5c-7-5.8-8-17.9-0.9-23.5c-3.1-0.7-5.4-3.2-7.4-5.6c-3.3-4-6.5-8.3-8.1-13.1
						c-1.6-4.9-1.6-10.6,1.3-14.9c2.9-4.3,8.9-6.7,13.7-4.5c-2.9-4.1-5.7-8.4-6.9-13.2c-1.2-4.8-0.7-10.3,2.4-14.3
						c4.1-5.1,12.3-6.3,17.7-2.6c-2.4-5-4.8-10.2-5.3-15.7c-0.5-5.5,1.3-11.6,6-14.8c4.3-2.9,10.1-2.8,15-1c4.9,1.8,9,5.1,13.1,8.3
						c-2-8.9,1.7-19.8,10.5-22.8c5.7-1.9,9.9-0.1,14.3,3c1.1,0.8,12.4,9.6,9.6,11.5c7.3-5,16.1-8.3,24.9-7.1
						c7.4,1,15.5,6.2,17.6,13.6C324.7,145.9,323.1,160,316.5,160.2L316.5,160.2z"/>
					<g>
						<path class="st4" d="M265.2,147c-1.7,0.7-3.6,1.4-5.5,1.1c-1.8-0.3-3.3-1.4-4.6-2.6c-6.8-6.7-3-20.1,8-18.3
							C273.3,128.9,274,143.3,265.2,147L265.2,147z"/>
						<path class="st4" d="M307.1,156.1c-1.7,0.7-3.6,1.4-5.5,1.1c-1.8-0.3-3.3-1.4-4.6-2.6c-6.8-6.7-3-20.1,8-18.3
							C315.2,137.9,315.9,152.3,307.1,156.1L307.1,156.1z"/>
						<path class="st4" d="M326.2,189.3c-1.7,0.7-3.6,1.4-5.5,1.1c-1.8-0.3-3.3-1.4-4.6-2.6c-6.8-6.7-3-20.1,8-18.3
							C334.3,171.1,335,185.5,326.2,189.3L326.2,189.3z"/>
						<path class="st4" d="M332.4,227c-1.7,0.7-3.6,1.4-5.5,1.1c-1.8-0.3-3.3-1.4-4.6-2.6c-6.8-6.7-3-20.1,8-18.3
							C340.4,208.8,341.2,223.2,332.4,227L332.4,227z"/>
						<path class="st4" d="M319.4,257.4c-1.7,0.7-3.6,1.4-5.5,1.1c-1.8-0.3-3.3-1.4-4.6-2.6c-6.8-6.7-3-20.1,8-18.3
							C327.5,239.3,328.3,253.7,319.4,257.4L319.4,257.4z"/>
						<path class="st4" d="M287.4,270.1c-1.7,0.7-3.6,1.4-5.5,1.1c-1.8-0.3-3.3-1.4-4.6-2.6c-6.8-6.7-3-20.1,8-18.3
							C295.5,252,296.2,266.3,287.4,270.1L287.4,270.1z"/>
						<path class="st4" d="M252,269.2c-1.7,0.7-3.6,1.4-5.5,1.1c-1.8-0.3-3.3-1.4-4.6-2.6c-6.8-6.7-3-20.1,8-18.3
							C260,251,260.8,265.4,252,269.2L252,269.2z"/>
						<path class="st4" d="M223,254.7c-1.7,0.7-3.6,1.4-5.5,1.1c-1.8-0.3-3.3-1.4-4.6-2.6c-6.8-6.7-3-20.1,8-18.3
							C231.1,236.6,231.8,251,223,254.7L223,254.7z"/>
						<path class="st4" d="M210.1,225.8c-1.7,0.7-3.6,1.4-5.5,1.1c-1.8-0.3-3.3-1.4-4.6-2.6c-6.8-6.7-3-20.1,8-18.3
							C218.1,207.6,218.9,222,210.1,225.8L210.1,225.8z"/>
						<path class="st4" d="M216.8,192.3c-1.7,0.7-3.6,1.4-5.5,1.1c-1.8-0.3-3.3-1.4-4.6-2.6c-6.8-6.7-3-20.1,8-18.3
							C224.9,174.1,225.7,188.5,216.8,192.3L216.8,192.3z"/>
						<path class="st4" d="M234.1,162.7c-1.7,0.7-3.6,1.4-5.5,1.1c-1.8-0.3-3.3-1.4-4.6-2.6c-6.8-6.7-3-20.1,8-18.3
							C242.2,144.6,242.9,158.9,234.1,162.7L234.1,162.7z"/>
					</g>
				</g>
				<g>
					<path class="st5" d="M131.2,233.4c-2.5,4-5.9,7.5-10.2,10.4c-6.7,4.3-15.2,5.1-23.2,4.7c-8.3-0.4-16.6-1.9-24.1-5.4
						c-7.5-3.5-14.1-9-17.8-16.3c-2.9-5.6-4-12.1-3.9-18.4c0.1-6.7,1.5-13.4,4-19.6c3-7.4,7.5-13.2,13.1-17.4c-1.6,2.4-3,5-4.2,7.9
						c-2.5,6.2-3.9,12.9-4,19.6c-0.1,6.3,1,12.7,3.9,18.4c3.7,7.3,10.4,12.8,17.8,16.3c7.5,3.5,15.8,5,24.1,5.4
						c8,0.4,16.5-0.4,23.2-4.7C130.3,234,130.7,233.7,131.2,233.4L131.2,233.4z"/>
					<path class="st6" d="M131.2,233.4c-0.4,0.3-0.9,0.6-1.4,0.9c-6.7,4.3-15.2,5.1-23.2,4.7c-8.3-0.4-16.6-1.9-24.1-5.4
						c-7.5-3.5-14.1-9-17.8-16.3c-2.9-5.6-4-12.1-3.9-18.4c0.1-6.7,1.4-13.4,4-19.6c1.2-2.9,2.6-5.5,4.2-7.9
						c8.9-6.6,20.4-9.1,32.9-7c4.7,0.8,9.3,2,13.5,4.1c10.4,5.3,17,16.2,19.8,27.4C138.2,208.6,137.8,222.7,131.2,233.4L131.2,233.4
						z"/>
				</g>
				<g>
					<path class="st5" d="M233.1,229.4c2.5,4,5.9,7.5,10.3,10.4c6.7,4.3,15.2,5.1,23.2,4.7c8.3-0.4,16.6-1.9,24.1-5.4
						c7.5-3.5,14.1-9,17.8-16.3c2.9-5.6,4-12.1,3.9-18.4c-0.1-6.7-1.5-13.4-4-19.6c-3-7.4-7.5-13.2-13.1-17.4c1.6,2.4,3,5,4.2,7.9
						c2.5,6.2,3.9,12.9,4,19.6c0.1,6.3-1,12.7-3.9,18.4c-3.7,7.3-10.4,12.8-17.8,16.3c-7.5,3.5-15.8,5-24.1,5.4
						c-8,0.4-16.5-0.4-23.2-4.7C234,230.1,233.5,229.7,233.1,229.4L233.1,229.4z"/>
					<path class="st6" d="M233.1,229.4c0.4,0.3,0.9,0.6,1.4,0.9c6.7,4.3,15.2,5.1,23.2,4.7c8.3-0.4,16.6-1.9,24.1-5.4
						c7.5-3.5,14.1-9,17.8-16.3c2.9-5.6,4-12.1,3.9-18.4c-0.1-6.7-1.4-13.4-4-19.6c-1.2-2.9-2.6-5.5-4.2-7.9
						c-8.9-6.6-20.4-9.1-32.9-7c-4.7,0.8-9.3,2-13.5,4.1c-10.4,5.3-17,16.2-19.8,27.4C226,204.6,226.4,218.7,233.1,229.4
						L233.1,229.4z"/>
				</g>
				<path class="st5" d="M199.4,297.7c-2,1.3-4.8,1-7.1,0.2c-6.3-2.2-11-8.1-11.7-14.5c-1.1,3.6-2.8,6.9-5.2,9.8
					c-1.8,2.1-4,4.1-6.7,4.9s-6,0.3-7.8-1.8c-2.1-2.4-1.8-5.8-0.9-9c0.2,0.5,0.5,1,0.9,1.4c1.8,2.1,5.1,2.6,7.8,1.8s4.9-2.8,6.7-4.9
					c2.4-2.9,4.1-6.2,5.2-9.8c0.8,6.5,5.5,12.3,11.7,14.5c2.3,0.8,5,1.1,7.1-0.2c1.4-0.9,2.1-2.2,2.5-3.7c0.1,0.8,0.2,1.5,0.3,2.3
					C202.5,292,202.2,295.9,199.4,297.7L199.4,297.7z"/>
				<path class="st6" d="M201.9,286.4c-0.4,1.5-1.2,2.9-2.5,3.7c-2,1.3-4.8,1-7.1,0.2c-6.3-2.2-11-8.1-11.7-14.5
					c-1.1,3.6-2.8,6.9-5.2,9.8c-1.8,2.1-4,4.1-6.7,4.9s-6,0.3-7.8-1.8c-0.4-0.4-0.7-0.9-0.9-1.4c0.2-0.6,0.4-1.2,0.6-1.8
					c2.7-7.3,12.5-33.9,23.3-30.5c5.6,1.8,10.2,10.3,12.7,15.1C199.2,275.3,201.1,280.7,201.9,286.4L201.9,286.4z"/>
				<g>
					<path class="st7" d="M264.7,326.1c-1.7,4.1-4.3,10.4-7.1,16.8c-0.9,2-1.8,4-2.6,6c-3.1,7.2-6.2,13.8-7.8,17.2
						c-0.3-0.1-0.6-0.2-0.9-0.3c-2.8-1.2-3.3-4.5-4.1-7.6c-0.4-1.7-0.9-3.3-1.9-4.5c-0.2,1.7-0.5,3.5-1,5.1c-0.4,1.6-1,3.1-1.9,4.4
						c-1.8,2.8-5.3,4.9-8.6,4.3c-2.8-0.5-4.7-2.6-6.2-5c-0.8-1.4-1.5-2.8-2-4.3c0.2,1.9-0.2,3.8-0.9,5.5c-1,2.2-2.6,4.2-4.7,5.5
						c-1.7,1-3.7,1.7-5.6,1.3c-3.1-0.5-5.1-3-6.3-6c-0.7-1.5-1.1-3-1.5-4.4c0.4,1.9,0.3,4-0.4,5.8c-0.7,2-2.1,3.7-3.8,4.9
						c-0.7,0.5-1.5,0.8-2.3,0.7c-1-0.2-1.7-1.1-2.2-1.9c-1.4-2.3-2.6-4.8-3.5-7.4c-0.6-1.6-1-3.3-1.3-5c-0.1,2-0.6,4-1.4,5.9
						c-0.6,1.4-1.4,2.7-2.4,3.8c-2.4,2.7-6,4.3-9.6,3.8c-3.5-0.5-6.3-2.6-8.6-5.3c-1.2-1.5-2.3-3-3.4-4.6c0.9,1.4,0.8,3.1,0.1,4.6
						c-0.8,1.6-2.3,2.9-4.1,3.3c-3.5,0.8-7.1-1.2-9.1-4c-0.8-1.1-1.4-2.3-1.9-3.6c-0.8-2-1.2-4-1.6-6.1c-0.1,2.2-0.3,4.5-1,6.6
						c-0.4,1.2-1,2.3-1.8,3.4c-2.1,2.8-6.2,4.5-9.4,3c-3.3-1.5-4.3-5.1-5.5-8.6c-0.5-1.3-1-2.6-1.7-3.8c0.1,1.1,0.1,2.3,0,3.4
						c-0.3,3.5-1.8,6.9-5.1,7.7c-0.5,0.1-1,0.2-1.5,0.3c-1.7-3.2-5.5-11.7-9.3-20.4c-0.5-1-0.9-2.1-1.4-3.1
						c-2.2-4.9-4.2-9.8-5.8-13.6c-0.3-0.8-0.7-1.6-1-2.3c-0.1-0.3-0.2-0.5-0.3-0.7c3.6-4.5,7.9-7.9,12.1-8.2
						c4.8-0.3,8.7,2.3,11.1,6.1c1.2,2,2,4.3,2.3,6.5c0-2.1,0-4.2,0.3-6.3c0.1-0.7,0.3-1.3,0.5-2c0.8-2.6,2.7-5.2,5.3-6.1
						c3.6-1.3,7.9,0.6,10.3,3.6c0.7,0.8,1.2,1.7,1.7,2.7c1.3,2.5,2,5.2,2.7,7.9c0-1,0.1-1.9,0.1-2.9c0.2-2.4,0.5-4.9,1.4-7.1
						c1.3-3.1,4.1-5.9,7.6-6.2c3.5-0.3,6.9,2,8.7,5c0.5,0.8,0.9,1.7,1.2,2.5c0.9,2.3,1.3,4.9,1.6,7.4c0-0.5,0-1,0.1-1.5
						c0.1-2.6,0.3-5.2,1.2-7.6c1.1-2.9,3.3-5.5,6.4-6.2c3.8-0.9,7.7,1.5,9.7,4.8c0.5,0.8,0.9,1.7,1.2,2.6c0.9,2.7,1,5.6,0.8,8.4
						c0.6-2.5,1.2-5,2.1-7.4v0c0.7-1.8,1.7-3.6,2.9-5.1c2-2.4,5.5-4.2,8.4-2.9c2,0.9,3.1,2.9,3.5,5c0.2,0.7,0.2,1.3,0.2,2
						c0.1,2.8-0.6,5.6-0.3,8.4c0.4-1.3,0.9-2.7,1.4-4c1.2-3.2,2.8-6.2,5.2-8.6c3.4-3.4,8.9-5.2,13.2-3c3.1,1.5,5.1,4.8,5.8,8.1
						c0.2,0.8,0.3,1.7,0.4,2.5c0.2,2.6,0,5.2-0.3,7.7c0.5-1.8,1.2-3.7,2.1-5.4c1.3-2.6,2.9-5,4.9-7.2c2.6-2.8,7.1-5.1,10-2.6
						c1.1,0.9,1.6,2.3,1.9,3.6c0.4,1.7,0.7,3.5,0.7,5.2c0,1.7-0.2,3.5-0.6,5.1c0.6-1.8,1.3-3.7,2.2-5.4c0.7-1.4,1.5-2.7,2.4-4
						c0.8-1.2,1.8-2.5,3.3-2.9c1.8-0.5,3.8,0.3,5,1.7C263.8,322.7,264.4,324.4,264.7,326.1L264.7,326.1z"/>
					<path class="st8" d="M257.6,342.9c-0.9,2-1.8,4-2.6,6c-2.1-0.3-4.2-0.6-6.3-0.9c-1.8-0.2-3.7-0.4-5.5-0.6
						c0,0.3-0.1,0.6-0.1,0.9c-0.1,1.1-0.1,2.2-0.2,3.3c-0.2,2.1-0.4,4.2-0.6,6.2l-0.1,0.4c-0.4-1.7-0.9-3.3-1.9-4.5
						c-0.2,1.7-0.5,3.5-1,5.1c0.1-0.5,0.1-1,0.1-1.5c0.2-2.1,0.3-4.2,0.4-6.3c0.1-1.1,0.1-2.2,0.1-3.3c0-0.3,0-0.5,0-0.8
						c-3-0.3-6-0.6-9-0.8c-2.8-0.2-5.6-0.4-8.3-0.6c0.2,1.7,0,3.5,0.1,5c0.1,2.5,0.1,5,0,7.5c0,1.5-0.1,2.9-0.2,4.4
						c-0.8-1.4-1.5-2.8-2-4.3c0.2,1.9-0.2,3.8-0.9,5.5c0-1.8,0-3.6,0-5.4c0-4.3-0.4-8.7-0.5-13c-5.2-0.3-10.4-0.5-15.6-0.6
						c0,4.3-0.5,8.7-0.6,13.1c0,2.3,0,4.5,0.1,6.7c-0.7-1.5-1.1-3-1.5-4.4c0.4,1.9,0.3,4-0.4,5.8c-0.3-2.8-0.6-5.6-0.7-8.4
						c-0.2-4.3-0.5-8.6,0-12.9c-3.7-0.1-7.4-0.1-11.2-0.2c-0.1,4.5-0.3,9,0,13.4c0.1,1.4,0.1,2.9,0.1,4.3c-0.6-1.6-1-3.3-1.3-5
						c-0.1,2-0.6,4-1.4,5.9c-0.2-1.8-0.4-3.7-0.6-5.5c-0.5-4.4-1.3-8.8-1.1-13.2c-6.5,0-12.9,0.1-19.3,0.2c-0.3,0-0.6,0-0.9,0
						c0.2,4.8,1,9.6,1.3,14.4c0.1,2.2,0.2,4.2,0.1,6.3c-1.2-1.5-2.3-3-3.4-4.6c0.9,1.4,0.8,3.1,0.1,4.6c-0.2-2.3-0.6-4.5-1-6.7
						c-0.4-2.4-0.8-4.9-1-7.3c-0.2-2.2-0.1-4.5,0-6.7c-5.3,0.1-10.7,0.3-16,0.4c0.2,1.3,0.4,2.7,0.6,4c0.4,1.8,0.7,3.7,1.1,5.5
						c0.4,2.1,0.8,4.2,1.1,6.4c-0.8-2-1.2-4-1.6-6.1c-0.1,2.2-0.3,4.5-1,6.6c-0.5-2-0.8-4.1-1.2-6.1c-0.3-1.9-0.6-3.9-1-5.8
						c-0.3-1.5-0.7-3-1-4.5c-3,0.1-6.1,0.2-9.2,0.2c-1.8,0-3.5,0.1-5.2,0.1c0,0.2,0.1,0.4,0.1,0.6c0.1,0.8,0.2,1.5,0.3,2.3
						c0.1,1.6,0.2,3.1,0.2,4.7c0,2.1,0.1,4.2,0.3,6.3c-0.5-1.3-1-2.6-1.7-3.8c0.1,1.1,0.1,2.3,0,3.4c-0.5-1.8-1-3.6-1.5-5.4
						c-0.4-1.6-0.8-3.2-1.1-4.8c-0.1-0.8-0.2-1.6-0.3-2.4c0-0.3,0-0.5,0-0.8c-2.3,0.1-4.6,0.2-6.9,0.3c-2.1,0.1-4.1,0.3-6.1,0.6
						c-0.5-1-0.9-2.1-1.4-3.1c5.7-1.3,11.5-2,17.4-2.5c-0.1-0.9-0.2-1.9-0.3-2.8c-0.2-1.9-0.4-3.9-0.6-5.8c-0.2-2.6-0.4-5.1-0.5-7.7
						c1.2,2,2,4.3,2.3,6.5c0-2.1,0-4.2,0.3-6.3c0.2,2.4,0.5,4.8,0.8,7.2c0.2,1.9,0.5,3.8,0.7,5.7c0.2,1,0.3,1.9,0.5,2.9
						c2-0.2,4-0.3,6-0.4c3.6-0.3,7.1-0.4,10.7-0.6c0-0.8-0.1-1.6-0.1-2.4c-0.1-2-0.3-3.9-0.4-5.9c-0.2-2.7-0.3-5.4-0.5-8.2
						c1.3,2.5,2,5.2,2.7,7.9c0-1,0.1-1.9,0.1-2.9c0.1,1.1,0.3,2.1,0.4,3.2c0.3,2,0.5,3.9,0.8,5.9c0.1,0.7,0.3,1.5,0.4,2.2
						c5.6-0.3,11.2-0.5,16.7-0.7c0.1-0.2,0.1-0.5,0.1-0.7c0.1-0.8,0.2-1.7,0.2-2.5c0.1-1.8,0.2-3.6,0.2-5.5c0-2.6,0.1-5.2,0-7.8
						c0.9,2.3,1.3,4.9,1.6,7.4c0-0.5,0-1,0.1-1.5c0.1,0.6,0.1,1.2,0.2,1.8c0.2,1.8,0.4,3.7,0.8,5.5c0.2,1,0.5,2,0.7,3.1
						c5.3-0.1,10.6-0.2,15.9-0.3c0.1-0.7,0.2-1.5,0.3-2.2c0.1-1,0.1-2,0.1-3c0.1-2.1,0.1-4.2,0.2-6.3c0.1-1.7,0.1-3.3,0.2-4.9
						c0.9,2.7,1,5.6,0.8,8.4c0.6-2.5,1.2-5,2.1-7.4c0.1,1.3,0.1,2.6,0.1,3.9c0,2.1,0.1,4.2,0.1,6.3c0,1.1,0,2.2,0.1,3.3
						c0,0.7,0.2,1.3,0.2,2c3.7,0,7.4,0,11.1,0c0.3,0,0.6,0,0.8,0c0-0.8,0.2-1.6,0.3-2.2c0.3-2,0.5-3.9,0.8-5.9c0.4-3.5,1-7,1.4-10.4
						c0.2,0.7,0.2,1.3,0.2,2c0.1,2.8-0.6,5.6-0.3,8.4c0.4-1.3,0.9-2.7,1.4-4c0,1.3,0,2.7-0.1,4c0,2-0.1,4,0.1,6
						c0.1,0.6,0.1,1.4,0.1,2.2c7.1,0.2,14.2,0.5,21.3,1c1.1-3.5,1.8-7,2.5-10.5c0.2-1.2,0.4-2.3,0.7-3.5c0.2,2.6,0,5.2-0.3,7.7
						c0.5-1.8,1.2-3.7,2.1-5.4c0,0.4-0.1,0.9-0.1,1.3c-0.3,3.6-0.6,7.2-0.7,10.8c1,0.1,1.9,0.2,2.9,0.2c3.4,0.3,6.9,0.7,10.3,1.1
						c0.4-1.5,1.3-2.9,1.8-4.2c0.7-1.8,1.2-3.7,1.8-5.6c0.5-1.5,1-3.1,1.5-4.6c0,1.7-0.2,3.5-0.6,5.1c0.6-1.8,1.3-3.7,2.2-5.4
						c-0.2,1.9-0.4,3.7-0.7,5.6c-0.3,2-0.8,3.8-0.9,5.8c-0.1,1.3,0,2.7-0.2,4c0.4,0,0.9,0.1,1.3,0.2
						C253.6,342.3,255.6,342.6,257.6,342.9L257.6,342.9z"/>
				</g>
				<path class="st9" d="M309.2,53.1c-4.7-8.3-12.7-14.2-20.9-19.3c-34.8-21.6-78-33.3-117.8-22.6c25.3,6.8,51.1,12.1,76,20.3
					s49.1,19.7,68.4,37.2s33.3,41.6,34.4,67.3c0.6,13.5-2.3,27-3.6,40.5c6.7-7.6,9.9-17.8,10.5-27.9c0.5-10.1-1.4-20.1-4-29.9
					c-6.1-22.9-16-45.3-32.7-62.3"/>
				<path class="st9" d="M180.9,242.5c0.5,2.4,1.3,4.9,2.9,6.9c0.9,1.1,2.4,2,3.7,1.6c1.6-0.5,2-2.6,2-4.3c0-4.1-0.6-8.1-1.7-12
					c-0.6-2.2-2.9-10.7-5.4-11.7C177.1,220.8,180.3,239.8,180.9,242.5L180.9,242.5z"/>
				<path class="st9" d="M282.9,366.1c-1.3,15.7-7.6,31.7-20.3,41.4c-5.7,4.3-12.4,7.2-19.3,8.9c8.1-0.2,16.4-0.5,24.2-2.7
					c7.8-2.2,15.3-6.6,19.5-13.4c5.1-8.3,4.6-18.8,3.6-28.4c-0.8-7.7-2-15.4-3.3-23c-1.2-6.6-1.7-15.9-5-21.6
					c-4.3,2.9-0.7,12-0.2,16.1C283.1,350.8,283.5,358.4,282.9,366.1L282.9,366.1z"/>
				<g>
					<path class="st10" d="M152.3,103.5c-9.5-15.3-23.7-28.3-41.1-33.8c-14.1-4.4-31-3.1-41.5,7c-2.8,2.7-5.2,6.3-5.3,10.1
						c-0.2,6.3,5.4,11.4,11,14.3c16.9,9,37.8,7.8,55.2,15.8c9.1,4.1,16.8,10.5,23.4,17.8c5.9,6.5,10.2,15.9,16.6,21.6
						c2-6-3.3-17.3-5.1-23.1C162.3,122.9,158,112.8,152.3,103.5L152.3,103.5z"/>
					<path class="st10" d="M240.6,75.1c7.5-4.7,15.9-8.4,24.8-9.3c8.9-0.9,18.3,1.2,25,7c1.9,1.6,3.6,3.7,3.9,6.1
						c0.7,4.7-3.9,8.5-8.2,10.8c-12.8,7.1-27.3,10.7-41.1,15.7c-13.8,5-27.6,11.7-36.7,23.1c-3.4,4.3-6,9.1-8.2,14.1
						c-1.3,2.9-2.2,7-4.4,9.3c-3-7,2.3-21.4,4.8-28c4.8-12.8,12.4-24.6,22.1-34.4C228.1,84,234.1,79.1,240.6,75.1L240.6,75.1z"/>
					<path class="st10" d="M170.1,399.8c-4.7-7.6-11.8-14.1-20.4-16.8c-7-2.2-15.4-1.5-20.6,3.5c-1.4,1.4-2.6,3.1-2.6,5
						c-0.1,3.1,2.7,5.6,5.5,7.1c8.4,4.5,18.8,3.9,27.5,7.8c4.5,2,8.4,5.2,11.7,8.8c2.9,3.2,5.1,7.9,8.3,10.8c1-3-1.6-8.6-2.5-11.5
						C175.1,409.5,173,404.5,170.1,399.8L170.1,399.8z"/>
					<path class="st11" d="M120.2,418c-9.1,0.6-18.6-1.2-25.8-6.6c-5.9-4.3-10.2-11.4-9-18.5c0.3-1.9,1.1-3.9,2.7-5
						c2.6-1.9,6.2-1.1,9.1,0.3c8.6,4.1,14.1,12.7,22.4,17.4c4.3,2.4,9.2,3.6,14.1,4.2c4.4,0.5,9.5-0.5,13.7,0.4
						c-1.9,2.5-8.1,3.7-11,4.6C131.2,416.4,125.8,417.6,120.2,418L120.2,418z"/>
					<path class="st11" d="M249.7,418c9.1,0.6,18.6-1.2,25.8-6.6c5.9-4.3,10.2-11.4,9-18.5c-0.3-1.9-1.1-3.9-2.7-5
						c-2.6-1.9-6.2-1.1-9.1,0.3c-8.6,4.1-14.1,12.7-22.4,17.4c-4.3,2.4-9.2,3.6-14.1,4.2c-4.4,0.5-9.5-0.5-13.7,0.4
						c1.9,2.5,8.1,3.7,11,4.6C238.7,416.4,244.1,417.6,249.7,418L249.7,418z"/>
					<path class="st10" d="M214.1,385.7c3.8-2.3,7.9-4.2,12.3-4.6c4.4-0.5,9.1,0.6,12.4,3.5c0.9,0.8,1.8,1.8,1.9,3
						c0.3,2.3-1.9,4.2-4.1,5.4c-6.4,3.5-13.6,5.3-20.4,7.8s-13.7,5.8-18.2,11.5c-1.7,2.1-3,4.5-4.1,7c-0.7,1.5-1.1,3.5-2.2,4.6
						c-1.5-3.5,1.1-10.6,2.4-13.9c2.4-6.4,6.2-12.2,11-17.1C207.8,390.1,210.8,387.7,214.1,385.7L214.1,385.7z"/>
					<path class="st11" d="M168.1,116c-8.1-10.9-15.8-23.3-15.2-36.8c0.1-2.3,0.5-4.7,1.8-6.6s3.7-3.3,6-2.8c2.1,0.4,3.7,2.2,4.9,4
						c5.5,7.6,9.3,16.5,11,25.8c-1.4-10.1-2.8-20.6,0.7-30.2c0.6-1.6,2-3.6,3.7-3c0.8,0.3,1.2,1,1.6,1.6c4.6,8.3,1.7,18.6,3.3,28
						c1.8-10.3,3.9-21.2,10.8-29.2c2.1-2.4,5.2-4.6,8.2-3.6c2.8,1,3.9,4.2,4.3,7.1c0.9,7.6-1.5,15.2-4.3,22.3
						c-3.2,8-7.1,15.7-11,23.5c-2.6,5.1-5.1,10.2-7.7,15.2c-0.3,0.5-0.6,1.1-1.1,1.3c-1.8,0.7-6.5-3.5-7.6-4.6
						C173.8,124.6,170.9,119.9,168.1,116L168.1,116z"/>
					<path class="st12" d="M156.7,25.2c-0.1-1.7,0-3.7,1.3-4.9c1.8-1.6,4.7-0.8,6.8,0.4c8.4,4.6,13.8,13.9,13.5,23.3
						c-0.6-7,0.8-14.2,3.9-20.5c1-2.1,2.3-4.1,4.2-5.5s4.6-1.9,6.6-0.8c2.1,1.1,3.2,3.6,3.5,5.9c1.1,7.7-3.2,15.1-7.9,21.4
						c-2.3,3.1-6.1,9.9-9.8,11.5c-4.6,1.9-7.8-3.6-10.3-6.7C162.8,42.3,157.4,34.4,156.7,25.2L156.7,25.2z"/>
					<g>
						<path class="st13" d="M264.4,40.9c-3.7-2.6-8.4-4-12.7-5.1c-4.3-1.1-8.7-1.7-13.1-1.9c-8.7-0.4-17.4,0.9-25.6,3.8
							c-8,2.8-15.2,7.1-21.3,12.8c-1.1,0.6-2.2,1.3-3.3,2c-0.8,0.5-0.7,1.4-0.1,1.9c-0.2,1.2,1.3,2.3,2.4,1.2c1.6-1.5,3.3-2.9,5-4.2
							c6.7-3.1,13.7-5.7,21.1-6.2c4.6-0.3,9.3,0.1,13.7,1.6c1.2,0.4,5.9,1.9,4.2,3.8c-1.5,1.6-4.2,0-5.8-0.4c-4-1-6.2,4.3-2.8,6.4
							c4.3,2.6,14.1-0.6,12.9-6.6c-1-5.3-9.4-6.9-13.8-7.5c-5.1-0.7-10-0.4-14.9,0.7c5.7-2.4,11.7-4,17.9-4.8
							c6.9-0.8,13.9-0.6,20.6,0.9c6.3,1.4,16.2,3.8,17.7,11.1c0.8,3.8-2.1,7-6,6.6c-2.6-0.2-7.2-3.1-5.6-6.3
							c2.6-4.9-5.9-7.5-6.6-2.7c-1.3,9.1,8,16.2,16.7,12.6c3.8-1.6,6.1-5.2,5.8-9.3C270.4,46.9,267.9,43.4,264.4,40.9L264.4,40.9z"
							/>
						<path class="st13" d="M157.1,50.5c-15-9.6-32.9-14.2-50.8-13.7c-8.7,0.3-17.9,1.5-25.9,4.6c-3.5,1.4-6.9,3.6-8.1,7.3
							C71.2,52,72,56,75,58.1c3.4,2.3,10.2,1.9,13.1-1.2c2-2.1,1.8-5.6-0.8-7.1c-2.4-1.4-5.5,0.3-5.6,3c0,0.1,0,0.3,0,0.4
							c0,0,0,0-0.1,0c-0.6,0.3-1.4,0.5-2.1,0.6c-1.2,0.1-2.1-0.3-2.6-1.4c-1-2.4,0.6-4.9,2.6-6.3c2.5-1.8,5.7-2.5,8.7-3.2
							c3.2-0.8,6.4-1.4,9.6-1.8c12.6-1.6,25.6-0.4,37.7,3.3c2.6,0.8,5.1,1.7,7.6,2.7c-2.1-0.3-4.3-0.5-6.3-0.6
							c-6.9-0.4-14,0.2-20.7,1.5c-5,1-11.3,4.8-8.6,10.7c1.2,2.5,3.9,4.5,6.8,4.6c3.7,0.1,6.7-2.9,5.7-6.6c-1.1-3.7-7.3-3.1-7,0.9
							c0,0,0,0.1,0,0.1c0,0-0.1-0.1-0.2-0.2c-0.7-0.3-0.9-1.2-0.8-1.9c0.4-1.3,2.2-2,3.4-2.3c4.1-1.2,8.6-1.5,12.8-1.8
							c4.4-0.3,8.9-0.3,13.3,0.3c4.5,0.6,8.8,2,13.1,3.4c1.7,0.5,2.8-1,2.6-2.3C158,52.4,158.2,51.2,157.1,50.5L157.1,50.5z"/>
						<g>
							<path class="st13" d="M34,100.4c0.1-0.1,0.2-0.1,0.3-0.2C34.2,100.2,34.1,100.2,34,100.4L34,100.4z"/>
							<path class="st13" d="M44.1,95c-0.9-3.2-3.2-6.4-6.7-7.1c-3.7-0.8-6.9,1.7-8.7,4.7c-2.1,3.6-3,8.7-0.2,12.1
								c2.9,3.6,8.2,3.5,10.9-0.2c0.1-0.1,0.2-0.3,0.3-0.5c-0.2,1.3-0.4,2.5-0.6,3.7c-0.7,3.7-1.5,7.4-2.6,11
								c-2.1,7.1-4.9,13.9-8.5,20.4c-1.6,3-3.4,6-5.3,8.9c0.7-2,1.3-4.1,1.9-6.1c1.5-5.3,3.6-11.5,2.3-17c-1.2-5-7.4-9.4-11.8-4.9
								c-1.9,2-2.4,5-1.3,7.5c1.2,2.9,3.7,4.6,6.8,5.2c0.3,0.1,0.6,0.1,0.9,0c-0.7,4-1.6,7.9-2.7,11.7c-1.1,3.9-2,8.1-3.6,11.8
								c-0.2,0.5-0.1,1.1,0.3,1.4c-0.1,0.1-0.2,0.3-0.3,0.4c-0.6,0.7,0.4,1.7,1,1c5.4-5.9,10.4-11.8,14.5-18.6
								c4-6.8,7.3-14.1,9.8-21.5c1.3-3.8,2.3-7.7,3.2-11.6C44.5,103.5,45.2,99,44.1,95L44.1,95z M20.1,124.9
								c-0.1-0.3,0.1-0.5,0.1-0.8c0,0,0,0,0,0c0.8,0.9,1.3,1.5,1.5,2.5C21.1,126.1,20.3,125.5,20.1,124.9L20.1,124.9z M39.9,102
								c-0.7-2.1-3.7-3.5-5.7-1.9c0.4-0.2-0.1,0.7-0.3,0.2c0,0,0,0,0,0c0,0,0,0,0,0c0,0-0.1-0.1-0.1-0.2c-0.1-0.4,0,0.3-0.2-0.7
								c-0.3-1.2,0.3-2.9,0.7-4c0.4-0.9,1.1-2.2,2.2-2.1c1.3,0.1,2.2,1.9,2.5,2.9C39.9,98.1,40,100.1,39.9,102L39.9,102z"/>
						</g>
						<path class="st13" d="M348.3,153.3c-3.6-7.1-7.4-14-10.8-21.2c-1.4-3.1-3.4-6.9-2.8-10.4c0.2-1.3,0.8-2.5,2-3
							c0.4-0.2,1-0.5,1.4-0.3c0.2,1.5,1.4,2.8,3,2.9c1.9,0.2,3.2-0.8,3.8-2.5c1.2-2.9-1.5-5.5-4.1-6.3c-2.2-0.6-4.6-0.3-6.6,0.7
							c-4.7,2.4-6.2,7.4-5.4,12.2c0.3,1.8,0.8,3.5,1.3,5.2c-2.6-4-5-8.1-7.2-12.4c-3.2-5.9-5.7-12.4-5.4-19.2c0.1-3,0.8-6.1,2.4-8.7
							c0.7-1.1,1.7-2.3,2.8-0.8c0.8,1,0.3,2.5,0.4,3.6c0.2,4.6,7.1,4.6,7.3,0c0.2-5.6-6-11.5-11.6-8.5c-2.7,1.4-4.1,4.6-5,7.3
							c-1.1,2.9-1.5,6.1-1.4,9.3c0.3,13.2,9,25.5,16.8,35.7c2.2,2.9,4.6,5.9,7.1,8.6c0.7,0.7,1.3,1.4,2,2c1.6,2.9,3.3,5.8,5.4,8.5
							C345.7,158.6,349.9,156.4,348.3,153.3L348.3,153.3z"/>
					</g>
				</g>
				<g>
					<path class="st14" d="M64.5,293.4c-0.2-0.9-0.7-1.8-1.4-2.5c-0.3-0.4-0.7-0.6-1.1-0.9c-0.2-0.1-0.4-0.2-0.7-0.3
						c-0.2-0.1-0.4-0.2-0.6-0.2c-0.3-0.1-0.8-0.1-1.1-0.2c-0.1,0-0.2,0-0.4,0c-0.4,0-0.9,0.1-1.3,0.2c-0.5,0.1-1.1,0.4-1.6,0.6
						c-0.2,0.1-0.3,0.2-0.5,0.3c-0.4,0.3-0.9,0.6-1.2,1c-0.6,0.6-1.1,1.3-1.4,2.1c-0.3,0.8-0.6,1.6-0.6,2.5c0,0.3,0.1,0.5,0.1,0.7
						c0,0.2,0.1,0.5,0.1,0.7c0.1,0.5,0.3,0.9,0.6,1.3c0.1,0.1,0.1,0.2,0.2,0.3c0.2,0.3,0.5,0.6,0.7,0.9c0.3,0.3,0.8,0.7,1.2,0.9
						c0.4,0.3,0.9,0.5,1.4,0.6c0.5,0.2,1,0.2,1.5,0.3c0.5,0,1,0,1.5-0.1c0.1,0,0.2,0,0.3-0.1c0.7-0.2,1.3-0.6,1.8-1.1
						c0.2-0.1,0.5-0.6,0.6-0.8c0.1-0.1,0.1-0.3,0.2-0.5c0.2-0.3,0.4-0.5,0.6-0.8c0.4-0.6,0.8-1.4,1-2.1
						C64.7,295.3,64.7,294.4,64.5,293.4L64.5,293.4z"/>
					<path class="st14" d="M46.2,290c0-0.2-0.1-0.3-0.2-0.5c-0.2-0.4-0.3-0.9-0.6-1.3c-0.5-0.8-1.2-1.5-2-2
						c-0.3-0.1-0.6-0.3-0.9-0.4c-0.5-0.1-1-0.2-1.5-0.1c-0.3,0-0.7,0.1-0.9,0.3c-0.5,0.1-0.9,0.4-1.2,0.8c-0.1,0-0.1,0.1-0.2,0.2
						c-0.2,0.3-0.5,0.6-0.7,0.9c-0.3,0.4-0.4,0.8-0.6,1.3c0,0.1-0.1,0.2-0.1,0.2c-0.1,0.4-0.1,0.8-0.2,1.2c0,0.4,0,0.8,0.1,1.2
						c0,0,0,0,0,0c0,0.4,0.1,0.9,0.1,1.4c0.1,0.5,0.3,0.8,0.5,1.3c0.3,0.7,0.9,1.3,1.5,1.7c0.2,0.1,0.3,0.3,0.5,0.4l0.8,0.3
						c0.4,0.1,0.9,0.2,1.3,0.1c0.5-0.1,0.8-0.1,1.3-0.4c0.1-0.1,0.3-0.2,0.4-0.3c0.3-0.2,0.7-0.5,1-0.8c0.3-0.3,0.6-0.7,0.8-1
						c0.2-0.4,0.4-0.8,0.5-1.2c0.1-0.1,0.1-0.3,0.1-0.5C46.4,291.8,46.4,291,46.2,290L46.2,290z"/>
					<path class="st14" d="M30.6,280.6c0-0.1-0.1-0.9-0.1-1c0,0,0,0,0-0.1c0-0.1-0.1-0.1-0.1-0.2c-0.2-0.4-0.3-0.7-0.5-1.1
						c0-0.1-0.1-0.1-0.1-0.2c-0.2-0.3-0.5-0.6-0.7-0.9c-0.1-0.1-0.1-0.1-0.2-0.2c-0.3-0.2-0.6-0.4-0.8-0.6c0,0-0.1,0-0.1-0.1
						c-0.2-0.1-0.4-0.2-0.7-0.3c-0.2-0.1-0.4-0.2-0.7-0.3c-0.3,0-0.7-0.1-1-0.1c-0.5,0-1,0.1-1.5,0.3c-0.3,0.1-0.6,0.3-0.8,0.5
						c-0.4,0.3-0.8,0.6-1,1.1c-0.1,0.2-0.2,0.3-0.3,0.5c0,0,0,0,0,0c-0.2,0.2-0.4,0.5-0.6,0.7c0,0,0,0.1-0.1,0.1s0,0,0,0.1
						c-0.1,0.3-0.3,0.6-0.4,0.8c0,0.1,0,0.1-0.1,0.2c-0.1,0.3-0.1,0.6-0.1,0.9c0,0,0,0.1,0,0.1c0,0.1,0,0.1,0,0.2
						c0,0.3,0.1,0.7,0.2,1c0,0.1,0,0.1,0.1,0.2c0.1,0.4,0.3,0.8,0.5,1.1c0.2,0.3,0.4,0.5,0.6,0.8c0,0,0.1,0.1,0.1,0.2
						c0.3,0.3,0.6,0.5,1,0.8c0.1,0,0.1,0.1,0.2,0.1c0.3,0.1,0.6,0.3,0.9,0.4c0,0,0.1,0,0.1,0c0.1,0,0.1,0,0.2,0c0.3,0,0.7,0.1,1,0.1
						c0,0,0.1,0,0.1,0c0.1,0,0.1,0,0.2,0c0.3,0,0.7-0.1,1-0.1c0,0,0.1,0,0.1,0c0,0,0.1,0,0.1,0c0.3-0.1,0.6-0.2,0.9-0.4
						c0.1,0,0.1-0.1,0.2-0.1c0,0,0.1,0,0.1,0c0.3-0.2,0.5-0.4,0.8-0.6c0.1,0,0.1-0.1,0.1-0.1c0.2-0.3,0.5-0.5,0.7-0.8
						c0-0.1,0.1-0.1,0.1-0.2c0.2-0.3,0.3-0.7,0.4-1c0-0.1,0.1-0.1,0.1-0.2c0-0.1,0-0.1,0-0.2c0.1-0.4,0.1-0.8,0.2-1.1
						c0-0.1,0-0.1,0-0.2C30.6,280.7,30.6,280.7,30.6,280.6L30.6,280.6z"/>
					<path class="st14" d="M20.4,263c-0.3-0.8-0.5-1.1-1.1-1.8c-0.3-0.3-0.6-0.5-0.9-0.7c-0.3-0.2-0.7-0.3-1.1-0.5c0,0-0.1,0-0.1,0
						c-0.4-0.1-0.8-0.1-1.1-0.1c-0.7,0-1.5,0.2-2.1,0.5c-0.3,0.2-0.6,0.4-0.8,0.6c-0.7,0.7-1.1,1.6-1.1,2.6c0,0.3,0.1,0.6,0.1,1
						c0,0,0,0.1,0,0.1c0,0.1,0,0.2,0,0.3c0,0.3,0.1,0.7,0.2,1c0.1,0.3,0.3,0.7,0.4,1s0.4,0.6,0.6,0.8c0.2,0.3,0.7,0.5,0.8,0.7
						c0.1,0,0.1,0.1,0.2,0.1c0.3,0.1,0.6,0.3,0.9,0.4c0.3,0,0.6,0.1,0.9,0.1c0.6,0,1.2-0.2,1.8-0.5c0.1,0,0.1-0.1,0.1-0.1
						c0.3-0.2,0.7-0.5,1-0.7c0.1,0,0.1-0.1,0.1-0.1c0.2-0.3,0.5-0.6,0.7-0.9c0.1-0.1,0.1-0.2,0.2-0.3c0.1-0.2,0.3-0.7,0.4-1
						c0.1-0.4,0.1-0.8,0.2-1.2C20.6,263.8,20.6,263.4,20.4,263L20.4,263z"/>
					<path class="st14" d="M15.6,246.8c0-0.2-0.1-0.4-0.1-0.6c-0.1-0.5-0.4-0.9-0.6-1.4c0,0,0-0.1-0.1-0.1l-0.6-0.7
						c-0.2-0.2-0.5-0.4-0.8-0.6c-0.1,0-0.1-0.1-0.2-0.1c-0.3-0.1-0.5-0.2-0.8-0.3c-0.4-0.1-0.9-0.2-1.4-0.1c-0.3,0-0.6,0.1-0.9,0.2
						c-0.4,0.1-0.8,0.4-1.1,0.7c-0.5,0.6-1,1.1-1.1,1.9c-0.1,0.5-0.2,0.9-0.2,1.4c0,0.1,0,0.2,0,0.3c0,0.1,0,0.2,0,0.2
						c0,0.3,0.1,0.7,0.1,1c0,0,0,0.1,0,0.1c0.1,0.1,0.1,0.3,0.2,0.4c0.1,0.3,0.2,0.7,0.4,1c0.3,0.5,0.8,1,1.3,1.3
						c0.3,0.1,0.6,0.3,1,0.4c0.7,0.2,1.3,0.2,2,0c0.5-0.1,0.9-0.3,1.3-0.7c0.4-0.3,0.7-0.6,1-1c0.3-0.6,0.5-1.2,0.5-1.9
						c0-0.1,0-0.2,0-0.3C15.7,247.6,15.6,247.2,15.6,246.8L15.6,246.8z"/>
					<path class="st14" d="M18.4,196.2c0-0.1,0-0.4-0.1-0.6c-0.1-0.3-0.4-1-0.4-1c0,0,0-0.1-0.1-0.1c-0.2-0.3-0.4-0.6-0.7-0.9
						c0,0-0.1-0.1-0.1-0.1c-0.3-0.2-0.6-0.5-0.9-0.7c0,0-0.1,0-0.1-0.1c-0.2-0.1-0.7-0.3-1-0.4c-0.7-0.2-1.4-0.2-2.1,0
						c-0.7,0.2-1.2,0.5-1.7,1s-0.8,1-1,1.7c-0.1,0.5-0.1,0.9-0.1,1.4c0,0.1-0.1,0.1-0.1,0.2c0,0.3-0.1,0.6-0.1,0.9
						c0,0.3,0.1,0.6,0.1,0.9c0.1,0.4,0.3,0.8,0.6,1.2c0.3,0.4,0.6,0.7,1,0.9c0,0,0,0,0.1,0c0,0,0,0,0,0c0.2,0.1,0.6,0.3,0.9,0.4
						c0.1,0,0.1,0,0.2,0c0.1,0,0.3,0,0.4,0.1c0.3,0.1,0.6,0.1,0.9,0.1c0.3,0,0.7,0,1-0.1c0.3-0.1,0.6-0.3,0.9-0.4c0,0,0.1,0,0.1-0.1
						c0.3-0.2,0.6-0.4,0.9-0.6c0,0,0.1-0.1,0.1-0.1c0.1-0.1,0.2-0.3,0.3-0.4c0.1-0.1,0.2-0.3,0.3-0.4c0,0,0,0,0-0.1
						c0.2-0.3,0.3-0.7,0.4-1c0,0,0-0.1,0-0.1C18.5,196.8,18.4,197,18.4,196.2L18.4,196.2z"/>
					<path class="st14" d="M14.3,180.9l-0.4-0.9c-0.3-0.5-0.6-0.8-1-1.1c-0.4-0.3-0.8-0.6-1.4-0.7c0,0-0.1,0-0.1,0
						c-0.7-0.2-1.4-0.2-2.1,0c-0.7,0.2-1.3,0.5-1.8,1L6.9,180c-0.4,0.6-0.5,1.3-0.6,2c0,0.5,0.1,1,0.3,1.5c0.2,0.5,0.4,0.9,0.8,1.3
						c0.5,0.5,1.1,0.8,1.8,1c0.7,0.2,1.4,0.2,2.1,0c0,0,0.1,0,0.1,0c0.3-0.1,0.6-0.3,0.9-0.4c0.5-0.3,0.8-0.6,1.1-1
						c0.3-0.2,0.4-0.5,0.5-0.9c0.3-0.5,0.4-1,0.3-1.5C14.4,181.6,14.4,181.2,14.3,180.9L14.3,180.9z"/>
					<path class="st14" d="M304.4,294.1c-0.8-1.1-1.8-2.1-3.2-2.4c-1.6-0.4-3.4,0-4.6,1.1c-0.9,0.9-1.5,2.2-1.4,3.5
						c0,0.4,0.1,0.8,0.2,1.2c0,0.1,0.1,0.2,0.1,0.3c-0.5,0.5-0.7,1.2-0.5,1.8c0.1,0.4,0.1,0.7,0.4,1.1c0.2,0.3,0.5,0.7,0.8,1
						c0.8,0.8,1.9,1.1,3.1,1.2c0.5,0,0.9,0,1.4-0.1c0.5-0.1,1-0.3,1.4-0.5c0.9-0.4,1.7-1.2,2.2-2c0.6-0.9,0.8-1.9,0.9-3
						C305.3,296.2,305,295,304.4,294.1L304.4,294.1z"/>
					<path class="st14" d="M323.3,289.6c0-0.4-0.1-0.7-0.1-1c0-0.1-0.1-0.3-0.1-0.4c-0.1-0.4-0.3-0.8-0.5-1.1
						c-0.1-0.2-0.3-0.3-0.4-0.5c-0.1-0.2-0.3-0.4-0.4-0.5c-0.6-0.5-0.8-0.6-1.4-0.9c-0.2-0.1-0.4-0.2-0.6-0.2c0,0-0.1,0-0.1,0
						c-0.3-0.1-0.7-0.1-1-0.1c-0.1,0-0.1,0-0.2,0c-0.4,0-0.8,0.1-1.1,0.1c-0.4,0.1-0.8,0.3-1.2,0.5c-0.1,0-0.1,0.1-0.2,0.1
						c-0.3,0.2-0.6,0.4-0.9,0.6c-0.1,0-0.1,0.1-0.2,0.1c-0.2,0.3-0.5,0.5-0.7,0.8c0,0-0.1,0.1-0.1,0.2c0,0,0,0.1,0,0.1
						c0,0-0.1,0.1-0.1,0.1c-0.2,0.2-0.4,0.5-0.6,0.7c-0.2,0.3-0.3,0.6-0.4,0.9c-0.2,0.4-0.2,0.8-0.2,1.2c0,0.1,0,0.2,0,0.3
						c0,0,0,0.1,0,0.1c0,0.3,0.1,0.6,0.1,0.9c0,0.1,0.1,0.2,0.1,0.2c0.1,0.3,0.3,0.6,0.4,1c0.4,0.8,1.1,1.4,1.8,1.9
						c0.3,0.2,0.6,0.3,1,0.4c0.1,0,0.2,0.1,0.3,0.1c0.9,0.2,1.4,0.2,2.3,0c0.1,0,0.2,0,0.3-0.1c0.4-0.1,0.7-0.3,1.1-0.4
						c0.1,0,0.2-0.1,0.3-0.2c0.3-0.2,0.6-0.5,0.9-0.7c0.1-0.1,0.2-0.1,0.2-0.2c0.3-0.3,0.5-0.6,0.7-0.9c0.1-0.1,0.1-0.2,0.2-0.3
						c0.2-0.4,0.3-0.7,0.5-1.1c0-0.1,0.1-0.2,0.1-0.3c0.1-0.4,0.2-0.8,0.2-1.2C323.2,289.7,323.2,289.7,323.3,289.6L323.3,289.6z"/>
					<path class="st14" d="M341.4,275.1c-0.2-0.4-0.5-0.8-0.9-1c-0.3-0.3-0.8-0.5-1.2-0.6c-0.7-0.2-1.3-0.2-1.9,0
						c-0.8,0.2-1.4,0.6-2,1.2c-0.1,0.1-0.1,0.1-0.2,0.2c-0.1,0.1-0.3,0.3-0.4,0.5c-0.1,0.1-0.2,0.3-0.3,0.4
						c-0.2,0.1-0.4,0.1-0.5,0.2c-0.3,0.1-0.5,0.3-0.7,0.5c-0.3,0.2-0.5,0.5-0.7,0.8c0,0-0.1,0.1-0.1,0.1c-0.1,0.3-0.3,0.5-0.3,0.8
						c0,0,0,0.1,0,0.1c-0.1,0.3-0.1,0.6-0.1,1c0,0.6,0.1,1.2,0.4,1.8c0.1,0.2,0.2,0.4,0.3,0.6c0.2,0.2,0.4,0.5,0.6,0.7
						s0.6,0.5,0.8,0.6c0.3,0.2,0.7,0.3,1,0.5c0.4,0.1,0.8,0.2,1.2,0.2c0.4,0,0.8-0.1,1.2-0.1c0.2,0,0.3-0.1,0.4-0.1
						c0.4-0.1,0.8-0.3,1.1-0.5c0.3-0.2,0.7-0.5,1-0.8c0.4-0.4,0.8-0.9,1-1.4c0.3-0.6,0.6-1.2,0.7-1.8c0.1-0.7,0.2-1.4,0.3-2
						C341.9,276.3,341.7,275.7,341.4,275.1L341.4,275.1z"/>
					<path class="st14" d="M356,260.7C356,260.7,356,260.7,356,260.7c-0.1-0.3-0.3-0.6-0.4-0.9c0,0,0,0,0-0.1c0,0-0.1-0.1-0.1-0.1
						c-0.5-0.7-0.4-0.7-1-1.1c-0.5-0.4-0.6-0.4-1.3-0.7c0,0-0.1,0-0.1,0c-0.6-0.2-1.3-0.2-1.9,0c-0.6,0.2-1.1,0.5-1.6,0.9
						c-0.2,0.1-0.3,0.3-0.4,0.5c-0.3,0.2-0.6,0.4-0.8,0.6c-0.6,0.7-0.7,0.8-1,1.6c-0.1,0.2-0.1,0.4-0.1,0.6c0,0.2-0.1,0.4-0.1,0.6
						c0,0.4,0,0.7,0.2,1.1c0,0,0,0,0,0c0.1,0.2,0.3,0.7,0.4,0.9c0,0,0,0,0,0.1c0.4,0.6,0.5,0.7,1,1.1c0.1,0.1,0.3,0.2,0.4,0.3
						c0.1,0.1,0.7,0.3,0.9,0.4c0,0,0,0,0,0c0.6,0.2,0.9,0.1,1.4,0.1c0.7-0.1,0.5-0.1,1.3-0.4c0.1,0,0.1,0,0.2-0.1
						c0.2-0.1,0.3-0.2,0.5-0.3c0.3-0.2,0.7-0.5,0.9-0.7c0.1-0.1,0.2-0.1,0.2-0.2c0,0,0,0,0,0c0.2-0.2,0.4-0.5,0.6-0.8
						c0,0,0.1-0.1,0.1-0.1c0,0,0-0.1,0.1-0.1c0.1-0.3,0.3-0.6,0.4-0.9c0,0,0,0,0-0.1c0.1-0.4,0.2-0.8,0.2-1.2
						C356.2,261.5,356.1,261.1,356,260.7L356,260.7z"/>
					<path class="st14" d="M356.8,240.6c-0.3-0.5-0.7-0.9-1.2-1.2c-0.5-0.3-1.1-0.5-1.7-0.5s-1.2,0.2-1.7,0.5
						c-0.3,0.2-0.5,0.3-0.7,0.5c-0.2,0.2-0.4,0.5-0.5,0.7c-0.2,0.4-0.3,0.5-0.4,0.9c0,0,0,0.1,0,0.2c0,0.1,0,0.2-0.1,0.3
						c-0.2,0.9-0.2,1,0,1.8c0,0,0,0.1,0,0.1c0,0.1,0,0.2,0,0.3c0.1,0.5,0.4,0.9,0.8,1.3c0.3,0.3,0.6,0.5,1,0.6
						c0.4,0.2,0.7,0.3,1.2,0.3c0.5,0,1.1-0.1,1.5-0.4c0.1,0,0.2-0.1,0.2-0.1c0,0,0.1,0,0.1-0.1c0,0,0,0,0.1,0
						c0.4-0.2,0.7-0.5,0.9-0.8c0.1-0.1,0.2-0.2,0.3-0.4c0.1-0.1,0.1-0.2,0.2-0.3c0,0,0.1-0.1,0.1-0.1c0,0,0,0,0.1-0.1
						c0.3-0.4,0.5-1.3,0.5-1.7C357.3,241.7,357.1,241.1,356.8,240.6L356.8,240.6z"/>
					<path class="st14" d="M357,230.3c0-0.1,0-0.3-0.1-0.4c0,0,0,0,0,0c0,0,0,0,0,0l0-0.1c0-0.1-0.1-0.1-0.1-0.2
						c-0.1-0.5-0.4-0.9-0.8-1.3s-0.8-0.6-1.3-0.7c-0.5-0.1-1-0.1-1.6,0c-0.5,0.1-0.9,0.4-1.3,0.7c-0.4,0.4-0.6,0.8-0.8,1.3
						c-0.1,0.5-0.1,1,0,1.5c0.1,0.5,0.4,0.9,0.8,1.3s0.8,0.6,1.3,0.7c0.1,0,0.1,0,0.2,0.1l0.1,0c0.3,0.1,0.5,0.1,0.8,0.1
						c0.4,0,0.7-0.1,1.1-0.2c0.3-0.1,0.6-0.3,0.9-0.6l0.4-0.5c0.3-0.4,0.4-0.9,0.4-1.4C357,230.6,357,230.4,357,230.3L357,230.3z"/>
					<g>
						<path class="st14" d="M190.9,385.2c-2.7-2.6-6.9-3.1-10.2-1.1c-1.4,0.9-2.7,2.2-3.4,3.7c-0.9,2-1.1,4-0.8,6.1
							c0.5,3.7,3.1,7.7,7.2,8c1.9,0.2,3.9-0.7,5.2-2c1.8-1.1,3.2-3,4-5C194.2,391.7,193.5,387.7,190.9,385.2L190.9,385.2z"/>
						<path class="st14" d="M185.5,389.6L185.5,389.6L185.5,389.6z"/>
					</g>
					<path class="st14" d="M280.9,105.5c0-0.6-0.2-1.3-0.5-1.8c-0.2-0.4-0.6-0.8-0.9-1c-0.4-0.3-0.8-0.5-1.3-0.6
						c-0.7-0.2-1.3-0.2-2,0c-0.1,0-0.2,0.1-0.3,0.1c-0.4,0.1-0.8,0.3-1.2,0.5c-0.3,0.1-0.5,0.3-0.8,0.5c-0.6-0.1-1.4,0.1-1.8,0.6
						c-0.4,0.5-0.9,1-1.1,1.6c-0.3,0.6-0.6,1.2-0.7,1.9c-0.1,0.9-0.2,1.6,0.1,2.5c0.3,0.8,0.7,1.5,1.2,2.1c0.3,0.3,0.6,0.5,0.9,0.8
						c0.4,0.3,0.8,0.4,1.2,0.5c0.1,0,0.2,0,0.3,0.1c0.3,0.1,0.7,0.1,1,0.1c0.1,0,0.2,0,0.3,0c0.4,0,0.8-0.1,1.1-0.2
						c0.4-0.1,0.8-0.3,1.2-0.5c0.4-0.2,0.8-0.5,1.1-0.8c0.5-0.4,0.9-1,1.2-1.5c0.2-0.5,0.5-1,0.6-1.5c0.1-0.5,0.2-1.1,0.2-1.6
						C281,106.6,280.9,106.1,280.9,105.5L280.9,105.5z"/>
					<path class="st14" d="M299.1,108.9c-0.1-0.3-0.3-0.6-0.4-0.9c-0.2-0.3-0.4-0.5-0.6-0.8c-0.3-0.4-0.8-0.6-1.2-0.8
						c-0.3-0.2-0.6-0.3-1-0.3c-0.3-0.1-0.7-0.1-1,0c-0.3,0-0.7,0.1-1,0.3c-0.3,0.1-0.5,0.2-0.8,0.4c-0.1,0-0.2,0-0.3,0
						c-0.5,0.1-1,0.4-1.4,0.8c-0.1,0.1-0.3,0.2-0.4,0.4c-0.3,0.3-0.6,0.6-0.8,1c-0.2,0.3-0.3,0.5-0.4,0.8c-0.1,0.3-0.3,0.5-0.3,0.9
						c-0.1,0.4-0.2,0.9-0.2,1.3c0,0.2,0,0.4,0,0.5c0,0.4,0.1,0.9,0.2,1.3c0,0.2,0.1,0.3,0.2,0.5c0.1,0.4,0.3,0.8,0.6,1.1
						c0.2,0.4,0.5,0.6,0.9,0.8c0.3,0.1,0.5,0.2,0.8,0.3c0.6,0.1,1.2,0.1,1.8,0c0.6-0.2,1.3-0.5,1.9-0.8c0.6-0.4,1.1-0.8,1.6-1.3
						c0.4-0.5,0.9-1,1.2-1.7c0.2-0.4,0.4-0.9,0.6-1.4c0.2-0.5,0.2-1.1,0.3-1.6C299.2,109.6,299.1,109.2,299.1,108.9L299.1,108.9z"/>
					<path class="st14" d="M80,114c0,0,0-0.1-0.1-0.2c-0.1-0.3-0.2-0.6-0.4-0.9c-0.2-0.3-0.4-0.6-0.7-0.9c0,0-0.1-0.1-0.1-0.1
						c-0.3-0.2-0.5-0.4-0.8-0.6c-0.3-0.2-0.8-0.4-1.1-0.5c-0.1,0-0.2-0.1-0.3-0.1c-0.3,0-0.7-0.1-1-0.1c-0.1,0-0.1,0-0.2,0
						c-0.4,0-0.8,0.1-1.2,0.2s-0.8,0.3-1.1,0.4c-0.1,0-0.2,0.1-0.3,0.2c-0.3,0.2-0.7,0.5-0.9,0.8c-0.2,0.3-0.4,0.5-0.6,0.8
						c0,0-0.1,0.1-0.1,0.2c-0.2,0.3-0.3,0.6-0.4,1c0,0.1-0.1,0.1-0.1,0.2c-0.1,0.4-0.1,0.7-0.2,1.1c0,0.1,0,0.1,0,0.2
						c0,0.4,0.1,0.9,0.2,1.3c0,0.1,0.1,0.3,0.1,0.4c0.2,0.4,0.3,0.8,0.6,1.2c0.5,0.8,1.1,1.4,1.9,1.8c0.4,0.2,0.9,0.4,1.3,0.5
						c0.2,0,0.4,0,0.6,0.1c0.2,0,0.4,0.1,0.6,0.1c0.7-0.1,1.4-0.1,1.9-0.5c0.4-0.2,0.7-0.5,1-0.9c0.3-0.3,0.5-0.7,0.6-1.1
						c0-0.1,0-0.2,0-0.3c0.2-0.2,0.3-0.4,0.4-0.5c0,0,0.1-0.1,0.1-0.1c0.2-0.3,0.3-0.6,0.4-0.9c0.1-0.1,0.1-0.2,0.1-0.3
						C80.2,115.5,80.2,114.8,80,114L80,114z"/>
					<path class="st14" d="M61.8,114.7c-0.2-0.4-0.6-0.8-1-1c-0.4-0.3-0.8-0.5-1.3-0.6c-0.7-0.2-1.3-0.2-2,0c-0.5,0.1-1,0.3-1.5,0.6
						c-0.2,0.1-0.3,0.3-0.5,0.4c-0.3,0-0.6,0.1-0.9,0.3c-0.6,0.4-1.2,0.9-1.3,1.6c-0.1,0.4-0.1,0.8-0.2,1.1c0,0.2,0,0.3,0,0.5
						c0.1,0.5,0.1,1.1,0.3,1.6c0.2,0.5,0.4,1,0.7,1.4c0.2,0.3,0.5,0.6,0.8,1c0.1,0.1,0.2,0.2,0.3,0.3c0.2,0.2,0.4,0.3,0.7,0.5
						c0.4,0.2,0.8,0.4,1.2,0.4c0.3,0.1,0.6,0.1,0.9,0c0.4,0,0.8-0.1,1.2-0.4c0.1,0,0.1-0.1,0.2-0.1c0,0,0.1,0,0.1,0
						c0.2-0.1,0.6-0.4,0.7-0.5c0.2-0.2,0.4-0.5,0.7-0.8c0.1-0.1,0.1-0.1,0.1-0.2c0.3-0.5,0.5-1,0.7-1.5c0.1-0.3,0.2-0.5,0.2-0.8
						c0.1-0.4,0.2-0.9,0.2-1.3c0-0.1,0-0.3,0-0.4C62.3,115.9,62.2,115.3,61.8,114.7L61.8,114.7z"/>
					<path class="st14" d="M48.9,74.3c-0.1-0.3-0.3-0.6-0.4-0.9c-0.2-0.3-0.4-0.5-0.6-0.8c-0.3-0.4-0.8-0.6-1.2-0.8
						c-0.3-0.2-0.6-0.3-1-0.3c-0.3-0.1-0.7-0.1-1,0c-0.3,0-0.7,0.1-1,0.3c-0.5,0.1-0.9,0.4-1.2,0.8c-0.1,0.1-0.3,0.2-0.4,0.4
						c-0.3,0.4-0.6,0.7-0.9,1.1c-0.3,0.4-0.4,0.9-0.5,1.3c0,0.1,0,0.2-0.1,0.3c-0.1,0.4-0.1,0.8-0.2,1.2c0,0.4,0,0.8,0.2,1.1
						c0.1,0.3,0.3,0.6,0.4,1c0,0.1,0.1,0.1,0.1,0.2c0.1,0.2,0.4,0.5,0.5,0.7c0,0,0,0,0.1,0.1c0.2,0.2,0.5,0.5,0.8,0.6
						c0.5,0.3,1.1,0.4,1.6,0.3c0.1,0,0.1,0,0.2,0c0.3,0,0.6,0.1,0.9,0.1c0.5,0,0.9-0.1,1.3-0.3c0.3-0.1,0.6-0.2,0.8-0.4
						c0.4-0.2,0.7-0.6,0.9-1c0.2-0.3,0.4-0.7,0.4-1c0.1-0.4,0.1-0.8,0.2-1.1c0-0.2,0-0.4,0.1-0.6c0-0.4,0.1-0.8,0.1-1.2
						C49,75,48.9,74.6,48.9,74.3L48.9,74.3z"/>
					<path class="st14" d="M56.9,61.5c0-0.3-0.1-0.7-0.1-1c0,0,0,0,0-0.1c0,0,0,0,0-0.1c0,0,0,0,0,0c-0.1-0.3-0.3-0.6-0.4-0.9
						c-0.2-0.3-0.4-0.6-0.7-0.9c-0.5-0.5-1-0.8-1.6-0.9c-0.5-0.1-1-0.2-1.5-0.1c-0.5,0-0.9,0.2-1.4,0.4c-0.6,0.3-1,0.8-1.3,1.3
						l-0.6,1.1c-0.3,0.4-0.4,0.9-0.4,1.4c-0.1,0.5-0.1,1,0.1,1.5c0.1,0.4,0.3,0.7,0.5,1.1l0.1,0.3l0.5,0.6c0,0,0,0,0,0
						c0,0,0,0,0.1,0.1c0.2,0.1,0.5,0.4,0.6,0.5c0,0,0,0,0,0c0,0,0.1,0,0.1,0c0,0,0,0,0,0c0,0,0,0,0,0c0.1,0,0.1,0.1,0.2,0.1
						c0.1,0.1,0.1,0,0.4,0.2c0.3,0.1,0.5,0.2,0.8,0.2c0.1,0.1,0.3,0.1,0.4,0c0.7,0,1.2-0.2,1.8-0.5c0.1,0,0.2-0.1,0.2-0.1
						c0.2-0.2,0.5-0.4,0.7-0.5c0,0,0,0,0.1,0c0,0,0.1-0.1,0.1-0.1c0.2-0.2,0.4-0.5,0.6-0.8c0,0,0.1-0.1,0.1-0.1
						c0.2-0.3,0.4-0.8,0.5-1c0-0.1,0.1-0.2,0.1-0.3c0,0,0,0,0-0.1c0.1-0.3,0.1-0.7,0.1-1c0,0,0-0.1,0-0.1
						C56.9,61.6,56.9,61.5,56.9,61.5L56.9,61.5z"/>
					<path class="st14" d="M114.1,22.5c-0.9-0.9-2.3-1.3-3.6-0.9c-0.2,0.1-0.3,0.1-0.5,0.2c-0.2,0-0.3,0.1-0.5,0.2l-0.8,0.6
						c0,0,0,0-0.1,0c-0.1,0.1-0.1,0.1-0.2,0.2c-0.2,0.3-0.5,0.6-0.7,0.9c0,0-0.1,0.1-0.1,0.1c-0.1,0.3-0.2,0.6-0.4,0.8
						c0,0.3-0.1,0.5-0.1,0.8c0,0.1-0.1,0.1-0.1,0.2c-0.3,0.6-0.4,0.9-0.4,1.6c0,0.7,0.2,1.3,0.5,1.9c0.4,0.8,1.1,1.6,2,2
						c0.3,0.2,0.7,0.3,1,0.4c0.7,0.2,1.2,0.1,1.9,0c0.1,0,0.1,0,0.2,0c0.3-0.1,0.6-0.2,0.9-0.4c0.4-0.2,0.7-0.4,1-0.7
						c1-0.9,1.7-2.3,1.7-3.6C115.9,25.1,115.3,23.5,114.1,22.5L114.1,22.5z"/>
					<path class="st14" d="M131.2,17.8c-0.1-0.5-0.3-0.9-0.7-1.2c-0.2-0.3-0.4-0.5-0.7-0.6c-0.3-0.3-0.8-0.5-1.3-0.6
						c-0.3,0-0.7-0.1-1-0.1c-0.3,0-0.7,0.1-1,0.1c-0.5,0.1-0.9,0.3-1.3,0.6c-0.3,0.2-0.5,0.4-0.6,0.6c-0.2,0.1-0.4,0.3-0.6,0.5
						c-0.1,0.1-0.2,0.2-0.3,0.3c-0.2,0.3-0.5,0.5-0.6,0.8c-0.2,0.3-0.3,0.6-0.4,1c0,0.1-0.1,0.2-0.1,0.3c-0.1,0.5-0.2,1-0.2,1.5
						c0,0.4,0.1,0.9,0.3,1.2c0.1,0.4,0.4,0.7,0.7,1c0.2,0.2,0.4,0.3,0.7,0.5c0.5,0.3,1.1,0.4,1.7,0.4c0.4,0,0.8-0.1,1.2-0.2
						c0.2,0,0.3-0.1,0.5-0.1c-0.1,0-0.1,0-0.2,0.1c0.1,0,0.1-0.1,0.2-0.1c0.1,0,0.2-0.1,0.3-0.1c0.1-0.1,0.2-0.1,0.4-0.2
						c0,0,0,0,0,0c0,0,0,0,0,0c0.2-0.1,0.4-0.2,0.5-0.3c0.3-0.2,0.8-0.5,0.9-0.7c0.3-0.3,0.5-0.6,0.8-0.9c0.1-0.2,0.2-0.3,0.3-0.5
						c0.2-0.4,0.4-0.7,0.4-1.1c0.1-0.4,0.1-0.8,0.2-1.3C131.3,18.4,131.2,18.1,131.2,17.8L131.2,17.8z"/>
					<path class="st14" d="M146.2,11.6c-0.2-0.4-0.4-0.8-0.7-1.1c-0.2-0.2-0.5-0.4-0.7-0.6c-0.6-0.3-1.2-0.5-1.8-0.5
						c-0.3,0-0.6,0.1-1,0.1c-0.4,0.1-0.8,0.3-1.2,0.6c-0.4,0.1-0.7,0.2-1.1,0.4c0,0,0,0,0,0c-0.2,0.2-0.5,0.4-0.7,0.5c0,0,0,0,0,0
						c0,0,0,0-0.1,0.1c0,0,0,0,0,0c-0.1,0.1-0.2,0.2-0.3,0.4c-0.1,0.1-0.2,0.2-0.3,0.4c0,0,0,0,0,0.1s0,0,0,0.1
						c-0.1,0.2-0.3,0.6-0.4,0.8c0,0,0,0,0,0c0,0.1,0,0.1,0,0.2c0,0.3-0.1,0.7-0.1,0.9c0,0,0,0,0,0c0,0,0,0.1,0,0.1c0,0,0,0,0,0
						c0,0.3,0.1,0.7,0.1,0.9c0,0,0,0.1,0,0.1c0,0,0,0.1,0,0.1c0.1,0.1,0.1,0.3,0.2,0.4c0,0.1,0.1,0.3,0.2,0.4c0,0,0,0.1,0,0.1
						c0,0,0,0,0,0c0.2,0.2,0.4,0.5,0.6,0.7c0.3,0.3,0.7,0.6,1.2,0.7c0.4,0.2,0.9,0.3,1.4,0.3c0.3,0,0.6-0.1,0.9-0.1
						c0.6-0.2,1.1-0.5,1.6-0.9c0.1-0.1,0.3-0.2,0.4-0.4c0.1-0.1,0.3-0.2,0.4-0.4c0.2-0.3,0.5-0.5,0.7-0.8c0.3-0.3,0.6-0.7,0.7-1.1
						c0.2-0.4,0.3-0.9,0.3-1.4C146.4,12.4,146.3,12,146.2,11.6L146.2,11.6z"/>
					<path class="st14" d="M224.6,13.8c-0.2-0.6-0.5-1.1-0.9-1.6c0,0,0,0,0,0c0,0,0,0,0-0.1c-0.4-0.4-0.6-0.5-1.1-0.7
						c-0.4-0.2-0.8-0.3-1.3-0.3c0,0,0,0,0,0c0,0-0.1,0-0.1,0c-0.9-0.1-1.8,0.3-2.5,0.9c0,0-0.1,0-0.1,0c-0.2,0.1-0.5,0.2-0.7,0.3
						c-0.4,0.3-0.8,0.6-1,1c-0.2,0.3-0.3,0.6-0.4,0.8c0,0.1,0,0.1-0.1,0.2c-0.1,0.3-0.1,0.6-0.1,0.9c0,0.2,0,0.4,0.1,0.6
						c0,0.2,0,0.4,0.1,0.6c0.1,0.3,0.2,0.6,0.4,0.9c0.1,0.1,0.2,0.3,0.2,0.4c0,0,0,0,0,0c0,0.1,0.1,0.1,0.1,0.1
						c0.2,0.2,0.3,0.5,0.5,0.7c0,0,0,0,0.1,0.1c0.3,0.3,0.6,0.5,0.9,0.7c0.3,0.1,0.5,0.2,0.8,0.3c0.4,0.1,0.9,0.1,1.3,0.1
						c0.3,0,0.6-0.1,0.8-0.2c0.4-0.1,0.8-0.4,1.1-0.7c0.1-0.1,0.2-0.1,0.3-0.2s0.2-0.2,0.2-0.2c0.1-0.2,0.3-0.3,0.4-0.5
						c0.2-0.3,0.5-0.5,0.7-0.8c0.2-0.3,0.3-0.6,0.4-1c0.2-0.4,0.2-0.6,0.2-1.2C224.8,14.5,224.7,14.1,224.6,13.8L224.6,13.8z"/>
					<path class="st14" d="M240.8,20.1c0,0,0-0.1,0-0.1c0-0.3-0.1-0.8-0.2-1.2c-0.1-0.4-0.3-0.7-0.5-1.1c0,0,0-0.1-0.1-0.1
						c-0.3-0.6-0.8-1-1.4-1.3c-0.3-0.2-0.6-0.3-0.9-0.4c-0.5-0.2-1-0.2-1.5-0.1c-0.5,0-1,0.2-1.4,0.4c-0.1,0.1-0.2,0.2-0.3,0.3
						c-0.3,0-0.6,0-0.8,0.1l-0.8,0.3c-0.4,0.2-0.7,0.5-1,0.9c-0.2,0.2-0.4,0.5-0.4,0.7c-0.2,0.4-0.3,0.8-0.3,1.3
						c0,0.3,0.1,0.6,0.1,0.9c0.2,0.6,0.5,1.1,0.9,1.5c0.3,0.3,0.7,0.6,1.1,0.8c0.1,0,0.2,0.1,0.2,0.1c0.3,0.1,0.7,0.3,1,0.4
						c0.2,0.1,0.3,0.1,0.5,0.1c0.2,0,0.3,0.1,0.4,0.1c0.4,0.1,0.8,0.1,1.2,0.2c0.1,0,0.2,0,0.3,0c0,0,0.1,0,0.1,0c0,0,0.1,0,0.1,0
						c0.3,0,0.7-0.1,1-0.1c0.7-0.2,1.2-0.5,1.7-1c0.2-0.2,0.4-0.5,0.6-0.8c0.2-0.3,0.3-0.6,0.4-1C240.8,20.8,240.8,20.5,240.8,20.1
						C240.8,20.2,240.8,20.1,240.8,20.1L240.8,20.1z"/>
					<path class="st14" d="M256.9,22.2c-0.1-0.3-0.2-0.6-0.5-0.8c-0.3-0.4-0.6-0.7-1-0.9c-0.3-0.1-0.6-0.2-0.9-0.4
						c-0.3,0-0.7-0.1-1-0.1c-0.3,0-0.7,0.1-1,0.2c-0.3-0.1-0.6-0.1-0.9-0.1c-0.3,0-0.7,0.1-1,0.1c-0.5,0.1-0.9,0.3-1.3,0.6
						c-0.3,0.2-0.5,0.4-0.7,0.6c-0.3,0.4-0.6,0.8-0.7,1.2c0,0.3-0.1,0.6-0.1,1c0,0.6,0.2,1.3,0.5,1.8c0,0,0,0.1,0.1,0.1
						c0.2,0.3,0.4,0.5,0.6,0.8c0,0,0.1,0.1,0.1,0.1c0.3,0.2,0.6,0.4,0.8,0.6c0,0,0.1,0.1,0.1,0.1c0.2,0.1,0.4,0.1,0.5,0.2
						c0.2,0.1,0.3,0.1,0.5,0.2c0.1,0,0.1,0,0.1,0c0.4,0.1,0.8,0.2,1.3,0.2c0.4,0,0.9-0.1,1.3-0.1c0.8-0.2,1.3-0.6,1.9-1.1
						c0.1-0.1,0.1-0.1,0.2-0.2c0.1-0.1,0.5-0.6,0.7-0.8c0.2-0.3,0.3-0.6,0.4-1c0-0.3,0.1-0.6,0.1-0.9
						C257.2,23.1,257.1,22.6,256.9,22.2L256.9,22.2z"/>
					<path class="st14" d="M301.8,53.8c-0.4-0.6-0.7-0.9-1.3-1.3c-0.3-0.2-0.6-0.3-0.9-0.4c-0.4-0.1-0.9-0.1-1.3-0.1
						c-0.1,0-0.1-0.1-0.2-0.1c-0.3-0.1-0.5-0.2-0.7-0.3c-0.6-0.1-1.1-0.1-1.7,0c-0.7,0.2-1.4,0.6-2,1.1c-0.6,0.6-0.9,1.2-1.2,1.9
						c0,0.1-0.1,0.2-0.1,0.3c-0.1,0.4-0.1,0.8-0.2,1.2c0,0.4,0.1,0.9,0.1,1.2c0,0.1,0,0.2,0.1,0.4c0.5,1.5,1.7,2.8,3.3,3.2
						c0.9,0.2,1.8,0.2,2.7,0c0.8-0.2,1.7-0.7,2.3-1.3c0.6-0.6,1.2-1.5,1.4-2.4c0.1-0.5,0.2-0.9,0.2-1.4
						C302.4,55.2,302.2,54.4,301.8,53.8L301.8,53.8z"/>
					<path class="st14" d="M315.5,63.6c0-0.3-0.1-0.7-0.1-1c0,0,0-0.1,0-0.2c-0.1-0.5-0.3-0.9-0.7-1.3c-0.3-0.4-0.6-0.7-1.1-1
						c-0.3-0.1-0.6-0.3-0.9-0.4c-0.5-0.2-1-0.2-1.5-0.1c-0.3,0-0.7,0.1-1,0.3c-0.2,0-0.3,0.1-0.4,0.2c0,0,0,0,0,0
						c-0.4-0.1-0.8-0.1-1.2,0c-0.2,0.1-0.5,0.2-0.7,0.3c-0.5,0.3-0.8,0.6-1.1,1.1c-0.2,0.3-0.3,0.7-0.4,0.9c0,0.1-0.1,0.2-0.1,0.2
						c-0.1,0.3-0.1,0.7-0.1,1c0,0.4,0.1,0.7,0.1,1c0,0.2,0.1,0.3,0.1,0.5c0.1,0.3,0.3,0.6,0.4,1c0.2,0.3,0.5,0.6,0.7,0.9
						c0.1,0.1,0.1,0.1,0.2,0.2c0.3,0.2,0.6,0.5,0.9,0.6c0.8,0.4,1.4,0.5,2.2,0.6c0.8,0,1.6-0.2,2.3-0.6c0.1,0,0.2-0.1,0.2-0.1
						c0.3-0.2,0.7-0.5,0.9-0.7c0.6-0.6,1.1-1.3,1.3-2.1c0.1-0.3,0.1-0.7,0.1-1c0,0,0,0,0-0.1C315.4,63.8,315.4,63.8,315.5,63.6
						C315.4,63.7,315.4,63.7,315.5,63.6L315.5,63.6z"/>
				</g>
			</g>
		</g>
	</g>
</g>
</svg>
