<?xml version="1.0" encoding="utf-8"?>
<!-- Generator: Adobe Illustrator 24.0.2, SVG Export Plug-In . SVG Version: 6.00 Build 0)  -->
<svg version="1.1" id="Capa_1" xmlns="http://www.w3.org/2000/svg" xmlns:xlink="http://www.w3.org/1999/xlink" x="0px" y="0px"
	 viewBox="0 0 224.6 324.9" style="enable-background:new 0 0 224.6 324.9;" xml:space="preserve">
<style type="text/css">
	.st0{fill:#FF4600;}
	.st1{fill:#FF6100;}
	.st2{fill:#FF8500;}
</style>
<g id="flor1">
	<g>
		<g>
			<path class="st0" d="M81,238.4c0,0-21.1-4.6-38.4-16.8c-16-11.3-28.6-29.7-18.4-40c10.4-10.4,27.5-0.6,38.9,15.7
				C75,214.4,81,238.4,81,238.4L81,238.4z"/>
			<path class="st0" d="M78.5,241.9c0,0-10.9,18.7-27.9,31.4C35,285,13.5,291.3,6.9,278.3c-6.7-13.2,7.9-26.3,26.9-32.1
				C53.8,240.2,78.5,241.9,78.5,241.9L78.5,241.9z"/>
			<path class="st0" d="M81,245.4c0,0,14.4,16.2,21.2,36.2c6.3,18.5,5.7,40.8-8.7,43.1C79,327,71,309,71.4,289.2
				C71.8,268.3,81,245.4,81,245.4z"/>
			<path class="st0" d="M85.1,244c0,0,19.8-8.7,41-9c19.5-0.3,40.6,7.2,38.3,21.6c-2.3,14.6-21.9,16.7-40.6,10.2
				C104,259.9,85.1,244,85.1,244L85.1,244z"/>
			<path class="st0" d="M85.1,239.7c0,0-2.1-21.5,4.1-41.8c5.8-18.7,19.4-36.4,32.4-29.8c13.1,6.7,9.1,26-2.9,41.8
				C106,226.6,85.1,239.7,85.1,239.7L85.1,239.7z"/>
		</g>
		<g>
			<path class="st1" d="M79.7,243.2c0,0-29.5-21.1-27.9-54.2c1.9-38.9,55.1-36.3,57.3,0.6S79.7,243.2,79.7,243.2L79.7,243.2z"/>
			<path class="st1" d="M79.7,243.2c0,0-29.1,21.5-60.1,9.8c-36.4-13.8-17.5-63.6,18.3-54.3S79.7,243.2,79.7,243.2L79.7,243.2z"/>
			<path class="st1" d="M79.7,243.2c0,0,11.5,34.4-9.3,60.2c-24.4,30.3-65.9-3-46-34.2C44.4,238,79.7,243.2,79.7,243.2L79.7,243.2z"
				/>
			<path class="st1" d="M79.7,243.2c0,0,36.2-0.3,54.4,27.4c21.3,32.6-23.2,61.8-46.8,33.2C63.8,275.2,79.7,243.2,79.7,243.2z"/>
			<path class="st1" d="M79.7,243.2c0,0,10.9-34.5,42.9-43.2c37.6-10.2,51.6,41.2,17.1,54.7C105.3,268.2,79.7,243.2,79.7,243.2
				L79.7,243.2z"/>
		</g>
		<g>
			<path class="st2" d="M80.6,241.3c0,0-9.1-14.2-11.9-30.4c-2.6-15,0.6-32.1,11.9-32.1s15.4,14.8,12.7,30
				C90.4,224.8,80.6,241.3,80.6,241.3z"/>
			<path class="st2" d="M77.3,241.8c0,0-16.3,4.3-32.6,1.9c-15-2.2-30.3-10.5-26.8-21.2c3.6-10.9,18.8-10.1,32.4-2.9
				C64.7,227.3,77.3,241.8,77.3,241.8L77.3,241.8z"/>
			<path class="st2" d="M76.8,245.1c0,0-1,16.8-8.2,31.6c-6.7,13.6-19.3,25.6-28.5,19c-9.3-6.7-3.8-21,7.3-31.7
				C59.1,252.6,76.8,245.1,76.8,245.1L76.8,245.1z"/>
			<path class="st2" d="M79.7,246.6c0,0,15.7,6.1,27.5,17.6c10.9,10.6,18.4,26.3,9.2,32.9c-9.3,6.7-21.2-2.9-27.9-16.8
				C81.4,265.8,79.8,246.6,79.7,246.6L79.7,246.6z"/>
			<path class="st2" d="M82.1,244.2c0,0,10.7-13,25.2-20.7c13.4-7.1,30.7-9.4,34.2,1.4c3.6,10.9-9.3,19.3-24.6,21.4
				C100.8,248.6,82.1,244.2,82.1,244.2L82.1,244.2z"/>
		</g>
	</g>
</g>
<g id="flor4">
	<g>
		<g>
			<path class="st0" d="M140.9,77.5c0,0-21.1-4.6-38.4-16.8c-16-11.3-28.6-29.7-18.4-40c10.4-10.4,27.5-0.6,38.9,15.7
				C135,53.5,140.9,77.5,140.9,77.5L140.9,77.5z"/>
			<path class="st0" d="M138.4,81c0,0-10.9,18.7-27.9,31.4c-15.6,11.7-37.1,18.1-43.7,5.1c-6.7-13.2,7.9-26.3,26.9-32.1
				C113.8,79.3,138.5,81,138.4,81L138.4,81z"/>
			<path class="st0" d="M141,84.5c0,0,14.4,16.2,21.2,36.2c6.3,18.5,5.7,40.8-8.7,43.1c-14.6,2.3-22.6-15.7-22.2-35.5
				C131.7,107.3,141,84.5,141,84.5z"/>
			<path class="st0" d="M145.1,83.1c0,0,19.8-8.7,41-9c19.5-0.3,40.6,7.2,38.3,21.6c-2.3,14.6-21.9,16.7-40.6,10.2
				C164,99,145.1,83.1,145.1,83.1L145.1,83.1z"/>
			<path class="st0" d="M145.1,78.8c0,0-2.1-21.5,4.1-41.8c5.8-18.7,19.4-36.4,32.4-29.8c13.1,6.7,9.1,26-2.9,41.8
				C166,65.7,145,78.8,145.1,78.8L145.1,78.8z"/>
		</g>
		<g>
			<path class="st1" d="M139.7,82.3c0,0-29.5-21.1-27.9-54.1c1.9-38.9,55.1-36.3,57.3,0.6S139.7,82.3,139.7,82.3L139.7,82.3z"/>
			<path class="st1" d="M139.7,82.3c0,0-29.1,21.5-60.1,9.8C43.2,78.2,62.1,28.4,97.9,37.7S139.7,82.3,139.7,82.3L139.7,82.3z"/>
			<path class="st1" d="M139.7,82.3c0,0,11.5,34.4-9.3,60.2c-24.4,30.3-65.9-3-46-34.2C104.3,77,139.7,82.3,139.7,82.3L139.7,82.3z"
				/>
			<path class="st1" d="M139.7,82.3c0,0,36.2-0.3,54.4,27.4c21.3,32.6-23.2,61.8-46.8,33.2C123.8,114.3,139.7,82.3,139.7,82.3z"/>
			<path class="st1" d="M139.7,82.3c0,0,10.9-34.5,42.9-43.2c37.6-10.2,51.6,41.2,17.1,54.7C165.3,107.3,139.7,82.3,139.7,82.3
				L139.7,82.3z"/>
		</g>
		<g>
			<path class="st2" d="M140.5,80.4c0,0-9.1-14.2-11.9-30.4c-2.6-15,0.6-32.1,11.9-32.1s15.4,14.8,12.7,30
				C150.4,63.9,140.5,80.4,140.5,80.4z"/>
			<path class="st2" d="M137.2,80.9c0,0-16.3,4.3-32.6,1.9c-15-2.2-30.3-10.5-26.8-21.2c3.6-10.9,18.8-10.1,32.4-2.9
				C124.6,66.4,137.2,80.9,137.2,80.9L137.2,80.9z"/>
			<path class="st2" d="M136.7,84.2c0,0-1,16.8-8.2,31.6c-6.7,13.6-19.3,25.6-28.5,19c-9.3-6.7-3.8-21,7.3-31.7
				C119.1,91.7,136.7,84.2,136.7,84.2L136.7,84.2z"/>
			<path class="st2" d="M139.7,85.7c0,0,15.7,6.1,27.5,17.6c10.9,10.6,18.4,26.3,9.2,32.9c-9.3,6.7-21.2-2.9-27.9-16.8
				C141.4,104.8,139.7,85.7,139.7,85.7L139.7,85.7z"/>
			<path class="st2" d="M142.1,83.3c0,0,10.7-13,25.2-20.7c13.4-7.1,30.7-9.4,34.2,1.4c3.6,10.9-9.3,19.3-24.6,21.4
				C160.8,87.6,142.1,83.3,142.1,83.3L142.1,83.3z"/>
		</g>
	</g>
</g>
</svg>
