<?xml version="1.0" encoding="utf-8"?>
<!-- Generator: Adobe Illustrator 24.0.2, SVG Export Plug-In . SVG Version: 6.00 Build 0)  -->
<svg version="1.1" id="Capa_1" xmlns="http://www.w3.org/2000/svg" xmlns:xlink="http://www.w3.org/1999/xlink" x="0px" y="0px"
	 viewBox="0 0 178.8 164.9" style="enable-background:new 0 0 178.8 164.9;" xml:space="preserve">
<style type="text/css">
	.st0{fill:#FA9600;}
	.st1{opacity:0.7;fill:url(#XMLID_2_);}
	.st2{opacity:0.5;fill:#FA9600;}
	.st3{opacity:0.7;fill:url(#XMLID_3_);}
	.st4{opacity:0.7;fill:url(#XMLID_4_);}
	.st5{opacity:0.7;fill:url(#XMLID_5_);}
	.st6{opacity:0.7;fill:url(#XMLID_6_);}
	.st7{opacity:0.7;fill:url(#XMLID_7_);}
	.st8{opacity:0.7;fill:url(#XMLID_8_);}
	.st9{opacity:0.25;fill:#FA9600;}
	.st10{opacity:0.7;fill:url(#XMLID_9_);}
	.st11{opacity:0.7;fill:url(#XMLID_10_);}
	.st12{opacity:0.7;fill:url(#XMLID_11_);}
	.st13{opacity:0.7;fill:url(#XMLID_12_);}
	.st14{opacity:0.7;fill:url(#XMLID_13_);}
	.st15{opacity:0.7;fill:url(#XMLID_14_);}
	.st16{opacity:0.7;fill:url(#XMLID_15_);}
	.st17{opacity:0.7;fill:url(#XMLID_16_);}
	.st18{opacity:0.3;fill:#FFFFFF;}
	.st19{opacity:0.7;fill:url(#XMLID_17_);}
	.st20{opacity:0.7;fill:url(#XMLID_18_);}
	.st21{opacity:0.7;fill:url(#XMLID_19_);}
	.st22{fill:#FCC066;}
	.st23{opacity:0.5;fill:#FFFFFF;}
</style>
<g>
	<g>
		<g>
			<path id="XMLID_1204_" class="st0" d="M61.9,2.5c-3,0.7-4.7,2.1-6.3,3.6c-0.7,0.7-1.9,0.7-2.6,0c-2-1.8-4.7-2.3-6.8-1
				c-2.1,1.3-3,3.9-2.5,6.5c0.2,1-0.4,2-1.3,2.3c-2.1,0.7-4.1,1.5-6.2,3.7c-4.2,4.5-5.2,12.4,0.5,18c7.2,7,20.2,26.4,23.3,29.5
				c4.4,4.4,7.3,8.5,13.8,11.3c4.3,1.9,9.1,1.8,15.6,4.9c0.6-7.3,3.1-11.4,3.6-16.2c0.8-7.1-1.2-11.7-2.7-17.8
				C89.2,43,79.3,21.9,76.9,12C75,4.1,67.8,1.1,61.9,2.5z"/>
			
				<linearGradient id="XMLID_2_" gradientUnits="userSpaceOnUse" x1="878.095" y1="-1040.6041" x2="878.095" y2="-1128.1855" gradientTransform="matrix(0.866 -0.5 0.5 0.866 -150.2534 1421.3157)">
				<stop  offset="0" style="stop-color:#FA9600"/>
				<stop  offset="1" style="stop-color:#FA9600;stop-opacity:0"/>
			</linearGradient>
			<path id="XMLID_1203_" class="st1" d="M61.9,2.5c-3,0.7-4.7,2.1-6.3,3.6c-0.7,0.7-1.9,0.7-2.6,0c-2-1.8-4.7-2.3-6.8-1
				c-2.1,1.3-3,3.9-2.5,6.5c0.2,1-0.4,2-1.3,2.3c-2.1,0.7-4.1,1.5-6.2,3.7c-4.2,4.5-5.2,12.4,0.5,18c7.2,7,20.2,26.4,23.3,29.5
				c4.4,4.4,7.3,8.5,13.8,11.3c4.3,1.9,9.1,1.8,15.6,4.9c0.6-7.3,3.1-11.4,3.6-16.2c0.8-7.1-1.2-11.7-2.7-17.8
				C89.2,43,79.3,21.9,76.9,12C75,4.1,67.8,1.1,61.9,2.5z"/>
			<path id="XMLID_1202_" class="st2" d="M61.9,2.5c-3,0.7-4.7,2.1-6.3,3.6c-0.7,0.7-1.9,0.7-2.6,0c-2-1.8-4.7-2.3-6.8-1
				c-2.1,1.3-3,3.9-2.5,6.5c0.2,1-0.4,2-1.3,2.3c-2.1,0.7-4.1,1.5-6.2,3.7c-4.2,4.5-5.2,12.4,0.5,18c7.2,7,20.2,26.4,23.3,29.5
				c4.4,4.4,7.3,8.5,13.8,11.3c4.3,1.9,9.1,1.8,15.6,4.9c0.6-7.3,3.1-11.4,3.6-16.2c0.8-7.1-1.2-11.7-2.7-17.8
				C89.2,43,79.3,21.9,76.9,12C75,4.1,67.8,1.1,61.9,2.5z"/>
		</g>
		<g>
			<path id="XMLID_1201_" class="st0" d="M8.7,66.2c-0.9,3-0.6,5.2-0.1,7.4c0.2,1-0.3,2-1.3,2.3c-2.5,0.9-4.3,3-4.3,5.5
				c0,2.5,1.8,4.6,4.3,5.5c1,0.3,1.5,1.3,1.3,2.3c-0.5,2.2-0.8,4.4,0.1,7.4c1.7,5.9,7.9,10.8,15.5,8.5c9.6-2.9,32.5-4.7,36.6-5.9
				c5.9-1.7,10.9-2.3,16.5-6.5c3.8-2.9,6.1-7.1,12-11.3c-5.9-4.2-8.2-8.4-12-11.3c-5.6-4.3-10.5-4.8-16.5-6.5
				c-4.2-1.2-27.1-3.1-36.6-5.9C16.6,55.4,10.5,60.3,8.7,66.2z"/>
			
				<linearGradient id="XMLID_3_" gradientUnits="userSpaceOnUse" x1="4156.1577" y1="-2567.7656" x2="4156.1577" y2="-2653.9465" gradientTransform="matrix(0 -1 1 0 2657.0813 4237.5854)">
				<stop  offset="0" style="stop-color:#FA9600"/>
				<stop  offset="1" style="stop-color:#FA9600;stop-opacity:0"/>
			</linearGradient>
			<path id="XMLID_1200_" class="st3" d="M8.7,66.2c-0.9,3-0.6,5.2-0.1,7.4c0.2,1-0.3,2-1.3,2.3c-2.5,0.9-4.3,3-4.3,5.5
				c0,2.5,1.8,4.6,4.3,5.5c1,0.3,1.5,1.3,1.3,2.3c-0.5,2.2-0.8,4.4,0.1,7.4c1.7,5.9,7.9,10.8,15.5,8.5c9.6-2.9,32.5-4.7,36.6-5.9
				c5.9-1.7,10.9-2.3,16.5-6.5c3.8-2.9,6.1-7.1,12-11.3c-5.9-4.2-8.2-8.4-12-11.3c-5.6-4.3-10.5-4.8-16.5-6.5
				c-4.2-1.2-27.1-3.1-36.6-5.9C16.6,55.4,10.5,60.3,8.7,66.2z"/>
			<path id="XMLID_1199_" class="st2" d="M8.7,66.2c-0.9,3-0.6,5.2-0.1,7.4c0.2,1-0.3,2-1.3,2.3c-2.5,0.9-4.3,3-4.3,5.5
				c0,2.5,1.8,4.6,4.3,5.5c1,0.3,1.5,1.3,1.3,2.3c-0.5,2.2-0.8,4.4,0.1,7.4c1.7,5.9,7.9,10.8,15.5,8.5c9.6-2.9,32.5-4.7,36.6-5.9
				c5.9-1.7,10.9-2.3,16.5-6.5c3.8-2.9,6.1-7.1,12-11.3c-5.9-4.2-8.2-8.4-12-11.3c-5.6-4.3-10.5-4.8-16.5-6.5
				c-4.2-1.2-27.1-3.1-36.6-5.9C16.6,55.4,10.5,60.3,8.7,66.2z"/>
		</g>
		<g>
			<path id="XMLID_1198_" class="st0" d="M36.1,145.1c2.1,2.3,4.1,3.1,6.2,3.7c1,0.3,1.5,1.3,1.3,2.3c-0.5,2.6,0.4,5.3,2.5,6.5
				c2.1,1.3,4.8,0.7,6.8-1c0.8-0.7,1.9-0.7,2.6,0c1.6,1.6,3.3,2.9,6.3,3.6c5.9,1.5,13.1-1.6,15-9.4c2.4-9.9,12.3-31.1,13.3-35.4
				c1.5-6.1,3.5-10.7,2.7-17.8c-0.5-4.8-3-8.9-3.6-16.2c-6.5,3.1-11.2,3-15.6,4.9c-6.4,2.8-9.3,6.9-13.8,11.3
				c-3.1,3.1-16.1,22.4-23.3,29.5C30.9,132.7,32,140.6,36.1,145.1z"/>
			
				<linearGradient id="XMLID_4_" gradientUnits="userSpaceOnUse" x1="7117.646" y1="-491.713" x2="7117.646" y2="-579.2942" gradientTransform="matrix(-0.866 -0.5 0.5 -0.866 6499.6133 3214.7505)">
				<stop  offset="0" style="stop-color:#FA9600"/>
				<stop  offset="1" style="stop-color:#FA9600;stop-opacity:0"/>
			</linearGradient>
			<path id="XMLID_1197_" class="st4" d="M36.1,145.1c2.1,2.3,4.1,3.1,6.2,3.7c1,0.3,1.5,1.3,1.3,2.3c-0.5,2.6,0.4,5.3,2.5,6.5
				c2.1,1.3,4.8,0.7,6.8-1c0.8-0.7,1.9-0.7,2.6,0c1.6,1.6,3.3,2.9,6.3,3.6c5.9,1.5,13.1-1.6,15-9.4c2.4-9.9,12.3-31.1,13.3-35.4
				c1.5-6.1,3.5-10.7,2.7-17.8c-0.5-4.8-3-8.9-3.6-16.2c-6.5,3.1-11.2,3-15.6,4.9c-6.4,2.8-9.3,6.9-13.8,11.3
				c-3.1,3.1-16.1,22.4-23.3,29.5C30.9,132.7,32,140.6,36.1,145.1z"/>
			<path id="XMLID_1196_" class="st2" d="M36.1,145.1c2.1,2.3,4.1,3.1,6.2,3.7c1,0.3,1.5,1.3,1.3,2.3c-0.5,2.6,0.4,5.3,2.5,6.5
				c2.1,1.3,4.8,0.7,6.8-1c0.8-0.7,1.9-0.7,2.6,0c1.6,1.6,3.3,2.9,6.3,3.6c5.9,1.5,13.1-1.6,15-9.4c2.4-9.9,12.3-31.1,13.3-35.4
				c1.5-6.1,3.5-10.7,2.7-17.8c-0.5-4.8-3-8.9-3.6-16.2c-6.5,3.1-11.2,3-15.6,4.9c-6.4,2.8-9.3,6.9-13.8,11.3
				c-3.1,3.1-16.1,22.4-23.3,29.5C30.9,132.7,32,140.6,36.1,145.1z"/>
		</g>
		<g>
			<path id="XMLID_1195_" class="st0" d="M116.7,160.3c3-0.7,4.7-2.1,6.3-3.6c0.7-0.7,1.9-0.7,2.6,0c2,1.8,4.7,2.3,6.8,1
				c2.1-1.2,3-3.9,2.5-6.5c-0.2-1,0.4-2,1.3-2.3c2.1-0.7,4.1-1.5,6.2-3.7c4.2-4.5,5.2-12.4-0.5-18c-7.2-7-20.2-26.4-23.3-29.5
				c-4.4-4.4-7.3-8.5-13.8-11.3c-4.3-1.9-9.1-1.8-15.6-4.9c-0.6,7.3-3.1,11.4-3.6,16.2c-0.8,7.1,1.2,11.7,2.7,17.8
				c1.1,4.3,10.9,25.5,13.3,35.4C103.6,158.7,110.8,161.8,116.7,160.3z"/>
			
				<linearGradient id="XMLID_5_" gradientUnits="userSpaceOnUse" x1="6801.6343" y1="3111.6768" x2="6801.6343" y2="3024.0959" gradientTransform="matrix(-0.866 0.5 -0.5 -0.866 7534.8105 -624.3545)">
				<stop  offset="0" style="stop-color:#FA9600"/>
				<stop  offset="1" style="stop-color:#FA9600;stop-opacity:0"/>
			</linearGradient>
			<path id="XMLID_1194_" class="st5" d="M116.7,160.3c3-0.7,4.7-2.1,6.3-3.6c0.7-0.7,1.9-0.7,2.6,0c2,1.8,4.7,2.3,6.8,1
				c2.1-1.2,3-3.9,2.5-6.5c-0.2-1,0.4-2,1.3-2.3c2.1-0.7,4.1-1.5,6.2-3.7c4.2-4.5,5.2-12.4-0.5-18c-7.2-7-20.2-26.4-23.3-29.5
				c-4.4-4.4-7.3-8.5-13.8-11.3c-4.3-1.9-9.1-1.8-15.6-4.9c-0.6,7.3-3.1,11.4-3.6,16.2c-0.8,7.1,1.2,11.7,2.7,17.8
				c1.1,4.3,10.9,25.5,13.3,35.4C103.6,158.7,110.8,161.8,116.7,160.3z"/>
			<path id="XMLID_1193_" class="st2" d="M116.7,160.3c3-0.7,4.7-2.1,6.3-3.6c0.7-0.7,1.9-0.7,2.6,0c2,1.8,4.7,2.3,6.8,1
				c2.1-1.2,3-3.9,2.5-6.5c-0.2-1,0.4-2,1.3-2.3c2.1-0.7,4.1-1.5,6.2-3.7c4.2-4.5,5.2-12.4-0.5-18c-7.2-7-20.2-26.4-23.3-29.5
				c-4.4-4.4-7.3-8.5-13.8-11.3c-4.3-1.9-9.1-1.8-15.6-4.9c-0.6,7.3-3.1,11.4-3.6,16.2c-0.8,7.1,1.2,11.7,2.7,17.8
				c1.1,4.3,10.9,25.5,13.3,35.4C103.6,158.7,110.8,161.8,116.7,160.3z"/>
		</g>
		<g>
			<path id="XMLID_1192_" class="st0" d="M169.9,96.6c0.9-3,0.6-5.2,0.1-7.4c-0.2-1,0.3-2,1.3-2.3c2.5-0.9,4.3-3,4.3-5.5
				c0-2.5-1.8-4.6-4.3-5.5c-1-0.3-1.5-1.3-1.3-2.3c0.5-2.2,0.8-4.4-0.1-7.4c-1.7-5.9-7.9-10.8-15.5-8.5c-9.6,2.9-32.5,4.7-36.6,5.9
				c-5.9,1.7-10.9,2.3-16.5,6.5c-3.8,2.9-6.1,7.1-12,11.3c5.9,4.2,8.2,8.4,12,11.3c5.6,4.3,10.5,4.8,16.5,6.5
				c4.2,1.2,27.1,3.1,36.6,5.9C162,107.4,168.2,102.6,169.9,96.6z"/>
			
				<linearGradient id="XMLID_6_" gradientUnits="userSpaceOnUse" x1="3522.0515" y1="4638.1597" x2="3522.0515" y2="4551.9795" gradientTransform="matrix(0 1 -1 0 4727.4756 -3440.6243)">
				<stop  offset="0" style="stop-color:#FA9600"/>
				<stop  offset="1" style="stop-color:#FA9600;stop-opacity:0"/>
			</linearGradient>
			<path id="XMLID_1191_" class="st6" d="M169.9,96.6c0.9-3,0.6-5.2,0.1-7.4c-0.2-1,0.3-2,1.3-2.3c2.5-0.9,4.3-3,4.3-5.5
				c0-2.5-1.8-4.6-4.3-5.5c-1-0.3-1.5-1.3-1.3-2.3c0.5-2.2,0.8-4.4-0.1-7.4c-1.7-5.9-7.9-10.8-15.5-8.5c-9.6,2.9-32.5,4.7-36.6,5.9
				c-5.9,1.7-10.9,2.3-16.5,6.5c-3.8,2.9-6.1,7.1-12,11.3c5.9,4.2,8.2,8.4,12,11.3c5.6,4.3,10.5,4.8,16.5,6.5
				c4.2,1.2,27.1,3.1,36.6,5.9C162,107.4,168.2,102.6,169.9,96.6z"/>
			<path id="XMLID_1190_" class="st2" d="M169.9,96.6c0.9-3,0.6-5.2,0.1-7.4c-0.2-1,0.3-2,1.3-2.3c2.5-0.9,4.3-3,4.3-5.5
				c0-2.5-1.8-4.6-4.3-5.5c-1-0.3-1.5-1.3-1.3-2.3c0.5-2.2,0.8-4.4-0.1-7.4c-1.7-5.9-7.9-10.8-15.5-8.5c-9.6,2.9-32.5,4.7-36.6,5.9
				c-5.9,1.7-10.9,2.3-16.5,6.5c-3.8,2.9-6.1,7.1-12,11.3c5.9,4.2,8.2,8.4,12,11.3c5.6,4.3,10.5,4.8,16.5,6.5
				c4.2,1.2,27.1,3.1,36.6,5.9C162,107.4,168.2,102.6,169.9,96.6z"/>
		</g>
		<g>
			<path id="XMLID_1189_" class="st0" d="M142.5,17.7c-2.1-2.3-4.1-3.1-6.2-3.7c-1-0.3-1.5-1.3-1.3-2.3c0.5-2.6-0.4-5.3-2.5-6.5
				c-2.1-1.2-4.8-0.7-6.8,1c-0.8,0.7-1.9,0.7-2.6,0c-1.6-1.6-3.3-2.9-6.3-3.6c-5.9-1.5-13.1,1.6-15,9.4C99.4,21.9,89.5,43,88.4,47.3
				c-1.5,6.1-3.5,10.7-2.7,17.8c0.5,4.8,3,8.9,3.6,16.2c6.5-3.1,11.2-3,15.6-4.9c6.4-2.8,9.3-6.9,13.8-11.3
				c3.1-3.1,16.1-22.4,23.3-29.5C147.7,30.1,146.7,22.2,142.5,17.7z"/>
			
				<linearGradient id="XMLID_7_" gradientUnits="userSpaceOnUse" x1="559.9731" y1="2562.2485" x2="559.9731" y2="2474.667" gradientTransform="matrix(0.866 0.5 -0.5 0.866 884.9437 -2417.7891)">
				<stop  offset="0" style="stop-color:#FA9600"/>
				<stop  offset="1" style="stop-color:#FA9600;stop-opacity:0"/>
			</linearGradient>
			<path id="XMLID_1188_" class="st7" d="M142.5,17.7c-2.1-2.3-4.1-3.1-6.2-3.7c-1-0.3-1.5-1.3-1.3-2.3c0.5-2.6-0.4-5.3-2.5-6.5
				c-2.1-1.2-4.8-0.7-6.8,1c-0.8,0.7-1.9,0.7-2.6,0c-1.6-1.6-3.3-2.9-6.3-3.6c-5.9-1.5-13.1,1.6-15,9.4C99.4,21.9,89.5,43,88.4,47.3
				c-1.5,6.1-3.5,10.7-2.7,17.8c0.5,4.8,3,8.9,3.6,16.2c6.5-3.1,11.2-3,15.6-4.9c6.4-2.8,9.3-6.9,13.8-11.3
				c3.1-3.1,16.1-22.4,23.3-29.5C147.7,30.1,146.7,22.2,142.5,17.7z"/>
			<path id="XMLID_1187_" class="st2" d="M142.5,17.7c-2.1-2.3-4.1-3.1-6.2-3.7c-1-0.3-1.5-1.3-1.3-2.3c0.5-2.6-0.4-5.3-2.5-6.5
				c-2.1-1.2-4.8-0.7-6.8,1c-0.8,0.7-1.9,0.7-2.6,0c-1.6-1.6-3.3-2.9-6.3-3.6c-5.9-1.5-13.1,1.6-15,9.4C99.4,21.9,89.5,43,88.4,47.3
				c-1.5,6.1-3.5,10.7-2.7,17.8c0.5,4.8,3,8.9,3.6,16.2c6.5-3.1,11.2-3,15.6-4.9c6.4-2.8,9.3-6.9,13.8-11.3
				c3.1-3.1,16.1-22.4,23.3-29.5C147.7,30.1,146.7,22.2,142.5,17.7z"/>
		</g>
		<path id="XMLID_1186_" class="st2" d="M154.4,57.7c-8.3,2.5-26.4,4.2-33.9,5.4c4.8-6,15.3-21.3,21.5-27.3c2.5-2.5,3.7-5.5,3.9-8.4
			c-4.9-4-12.8-4.6-18.4,1.4c-0.1,0.1-0.2,0.2-0.3,0.3c-0.4-0.5-0.6-1.1-0.5-1.8c0.6-2.9-0.4-5.8-2.8-7.2c-2.3-1.4-5.3-0.8-7.5,1.2
			c-0.5,0.4-1.1,0.6-1.8,0.5c0-0.2,0.1-0.3,0.1-0.5c2.3-8-2.2-14.6-8-17c-2.4,1.6-4.3,4.2-5.1,7.7c-2,8.5-9.7,25.5-12.4,32.7
			C86.6,37.4,78.9,20.5,76.9,12c-0.8-3.5-2.7-6-5.1-7.7c-5.8,2.4-10.3,9-8,17c0,0.2,0.1,0.3,0.1,0.5c-0.6,0.1-1.3-0.1-1.8-0.5
			c-2.2-2-5.1-2.5-7.5-1.2c-2.3,1.4-3.3,4.3-2.8,7.2c0.1,0.7-0.1,1.3-0.4,1.8c-0.1-0.1-0.2-0.2-0.3-0.3c-5.6-6-13.5-5.4-18.4-1.4
			c0.2,2.9,1.4,5.9,3.9,8.4c6.2,6.1,16.7,21.3,21.5,27.3c-7.5-1.2-25.7-2.9-33.9-5.4c-3.4-1-6.5-0.6-9.1,0.7
			C14.3,64.7,17.7,72,25.6,74c0.2,0,0.3,0.1,0.5,0.1c-0.2,0.6-0.7,1.1-1.3,1.3c-2.8,0.9-4.7,3.3-4.7,6c0,2.7,2,5.1,4.7,6
			c0.6,0.2,1.1,0.7,1.3,1.3c-0.1,0-0.3,0.1-0.4,0.1c-7.9,2-11.3,9.2-10.4,15.6c2.6,1.3,5.7,1.7,9.1,0.7c8.3-2.5,26.4-4.2,33.9-5.4
			c-4.8,6-15.3,21.3-21.5,27.3c-2.6,2.5-3.7,5.5-3.9,8.4c4.9,4,12.8,4.6,18.4-1.4c0.1-0.1,0.2-0.2,0.3-0.3c0.4,0.5,0.6,1.1,0.5,1.8
			c-0.6,2.9,0.4,5.8,2.8,7.2c2.3,1.4,5.3,0.8,7.5-1.2c0.5-0.4,1.1-0.6,1.8-0.5c0,0.2-0.1,0.3-0.1,0.5c-2.3,8,2.2,14.6,8,17
			c2.4-1.6,4.3-4.2,5.1-7.7c2-8.5,9.7-25.5,12.4-32.7c2.7,7.3,10.4,24.2,12.4,32.7c0.8,3.5,2.7,6,5.1,7.7c5.8-2.4,10.3-9,8-17
			c0-0.2-0.1-0.3-0.1-0.5c0.6-0.1,1.3,0.1,1.8,0.5c2.2,2,5.1,2.5,7.5,1.2c2.3-1.4,3.3-4.3,2.8-7.2c-0.1-0.7,0.1-1.3,0.4-1.8
			c0.1,0.1,0.2,0.2,0.3,0.3c5.6,6,13.5,5.4,18.4,1.4c-0.2-2.9-1.4-5.9-3.9-8.4c-6.2-6.1-16.7-21.3-21.5-27.3
			c7.5,1.2,25.7,2.9,33.9,5.4c3.4,1,6.5,0.6,9.1-0.7c0.9-6.4-2.5-13.6-10.4-15.6c-0.2,0-0.3-0.1-0.5-0.1c0.2-0.6,0.7-1.1,1.3-1.3
			c2.8-0.9,4.7-3.3,4.7-6c0-2.7-2-5.1-4.7-6c-0.6-0.2-1.1-0.7-1.3-1.3c0.1,0,0.3-0.1,0.4-0.1c7.9-2,11.3-9.2,10.4-15.6
			C160.9,57.1,157.8,56.7,154.4,57.7z"/>
	</g>
	<g>
		<g>
			<path id="XMLID_1185_" class="st0" d="M37,33c-2.2,2.1-3,4.2-3.7,6.4c-0.3,1-1.3,1.6-2.2,1.4c-2.6-0.5-5.2,0.4-6.4,2.6
				c-1.2,2.2-0.7,4.9,1,6.9c0.7,0.8,0.6,1.9,0,2.7c-1.5,1.7-2.9,3.4-3.6,6.4c-1.4,6,1.6,13.4,9.2,15.3c9.7,2.4,20.4,6.6,24.6,7.7
				c6,1.5,10.5,3.6,17.5,2.8c4.7-0.6,8.7-3.1,15.9-3.7c-3.1-6.6-3-11.5-4.8-15.9C81.7,59,77.7,56,73.4,51.5
				c-3-3.2-11.9-10.6-18.8-17.9C49.1,27.7,41.4,28.8,37,33z"/>
			
				<linearGradient id="XMLID_8_" gradientUnits="userSpaceOnUse" x1="2313.0103" y1="-2243.5691" x2="2313.0103" y2="-2318.5659" gradientTransform="matrix(0.5 -0.866 0.866 0.5 876.0082 3205.8149)">
				<stop  offset="0" style="stop-color:#FA9600"/>
				<stop  offset="1" style="stop-color:#FA9600;stop-opacity:0"/>
			</linearGradient>
			<path id="XMLID_1184_" class="st8" d="M37,33c-2.2,2.1-3,4.2-3.7,6.4c-0.3,1-1.3,1.6-2.2,1.4c-2.6-0.5-5.2,0.4-6.4,2.6
				c-1.2,2.2-0.7,4.9,1,6.9c0.7,0.8,0.6,1.9,0,2.7c-1.5,1.7-2.9,3.4-3.6,6.4c-1.4,6,1.6,13.4,9.2,15.3c9.7,2.4,20.4,6.6,24.6,7.7
				c6,1.5,10.5,3.6,17.5,2.8c4.7-0.6,8.7-3.1,15.9-3.7c-3.1-6.6-3-11.5-4.8-15.9C81.7,59,77.7,56,73.4,51.5
				c-3-3.2-11.9-10.6-18.8-17.9C49.1,27.7,41.4,28.8,37,33z"/>
			<path id="XMLID_1183_" class="st9" d="M37,33c-2.2,2.1-3,4.2-3.7,6.4c-0.3,1-1.3,1.6-2.2,1.4c-2.6-0.5-5.2,0.4-6.4,2.6
				c-1.2,2.2-0.7,4.9,1,6.9c0.7,0.8,0.6,1.9,0,2.7c-1.5,1.7-2.9,3.4-3.6,6.4c-1.4,6,1.6,13.4,9.2,15.3c9.7,2.4,20.4,6.6,24.6,7.7
				c6,1.5,10.5,3.6,17.5,2.8c4.7-0.6,8.7-3.1,15.9-3.7c-3.1-6.6-3-11.5-4.8-15.9C81.7,59,77.7,56,73.4,51.5
				c-3-3.2-11.9-10.6-18.8-17.9C49.1,27.7,41.4,28.8,37,33z"/>
		</g>
		<g>
			<path id="XMLID_1182_" class="st0" d="M22.1,103.5c0.7,3,2,4.8,3.6,6.4c0.7,0.7,0.7,1.9,0,2.7c-1.7,2-2.2,4.8-1,6.9
				c1.2,2.2,3.8,3.1,6.4,2.6c1-0.2,1.9,0.4,2.2,1.4c0.6,2.2,1.5,4.2,3.7,6.4c4.4,4.3,12.1,5.3,17.6-0.5c6.9-7.4,15.8-14.7,18.8-17.9
				c4.3-4.5,8.3-7.5,11.1-14.1c1.9-4.4,1.8-9.3,4.8-15.9c-7.2-0.6-11.2-3.1-15.9-3.7C66.5,76.9,61.9,79,56,80.5
				c-4.2,1.1-14.9,5.3-24.6,7.7C23.7,90.1,20.7,97.5,22.1,103.5z"/>
			
				<linearGradient id="XMLID_9_" gradientUnits="userSpaceOnUse" x1="5914.8242" y1="-1926.2333" x2="5914.8242" y2="-2001.2305" gradientTransform="matrix(-0.5 -0.866 0.866 -0.5 4715.1133 4241.0122)">
				<stop  offset="0" style="stop-color:#FA9600"/>
				<stop  offset="1" style="stop-color:#FA9600;stop-opacity:0"/>
			</linearGradient>
			<path id="XMLID_1181_" class="st10" d="M22.1,103.5c0.7,3,2,4.8,3.6,6.4c0.7,0.7,0.7,1.9,0,2.7c-1.7,2-2.2,4.8-1,6.9
				c1.2,2.2,3.8,3.1,6.4,2.6c1-0.2,1.9,0.4,2.2,1.4c0.6,2.2,1.5,4.2,3.7,6.4c4.4,4.3,12.1,5.3,17.6-0.5c6.9-7.4,15.8-14.7,18.8-17.9
				c4.3-4.5,8.3-7.5,11.1-14.1c1.9-4.4,1.8-9.3,4.8-15.9c-7.2-0.6-11.2-3.1-15.9-3.7C66.5,76.9,61.9,79,56,80.5
				c-4.2,1.1-14.9,5.3-24.6,7.7C23.7,90.1,20.7,97.5,22.1,103.5z"/>
			<path id="XMLID_1180_" class="st9" d="M22.1,103.5c0.7,3,2,4.8,3.6,6.4c0.7,0.7,0.7,1.9,0,2.7c-1.7,2-2.2,4.8-1,6.9
				c1.2,2.2,3.8,3.1,6.4,2.6c1-0.2,1.9,0.4,2.2,1.4c0.6,2.2,1.5,4.2,3.7,6.4c4.4,4.3,12.1,5.3,17.6-0.5c6.9-7.4,15.8-14.7,18.8-17.9
				c4.3-4.5,8.3-7.5,11.1-14.1c1.9-4.4,1.8-9.3,4.8-15.9c-7.2-0.6-11.2-3.1-15.9-3.7C66.5,76.9,61.9,79,56,80.5
				c-4.2,1.1-14.9,5.3-24.6,7.7C23.7,90.1,20.7,97.5,22.1,103.5z"/>
		</g>
		<g>
			<path id="XMLID_1179_" class="st0" d="M74.4,151.9c2.9,0.9,5.1,0.6,7.2,0.1c1-0.2,2,0.3,2.3,1.3c0.8,2.6,2.9,4.4,5.4,4.4
				c2.4,0,4.5-1.8,5.4-4.4c0.3-1,1.3-1.5,2.3-1.3c2.2,0.5,4.3,0.8,7.2-0.1c5.8-1.7,10.6-8.1,8.4-15.8c-2.8-9.8-4.6-21.3-5.8-25.6
				c-1.7-6.1-2.2-11.1-6.4-16.8c-2.8-3.9-7-6.2-11.1-12.2c-4.1,6-8.2,8.3-11.1,12.2c-4.2,5.7-4.7,10.8-6.4,16.8
				c-1.2,4.3-3,15.8-5.8,25.6C63.9,143.8,68.6,150.2,74.4,151.9z"/>
			
				<linearGradient id="XMLID_10_" gradientUnits="userSpaceOnUse" x1="7442.0674" y1="1352.2504" x2="7442.0674" y2="1276.0447" gradientTransform="matrix(-1 0 0 -1 7531.3828 1433.6771)">
				<stop  offset="0" style="stop-color:#FA9600"/>
				<stop  offset="1" style="stop-color:#FA9600;stop-opacity:0"/>
			</linearGradient>
			<path id="XMLID_1178_" class="st11" d="M74.4,151.9c2.9,0.9,5.1,0.6,7.2,0.1c1-0.2,2,0.3,2.3,1.3c0.8,2.6,2.9,4.4,5.4,4.4
				c2.4,0,4.5-1.8,5.4-4.4c0.3-1,1.3-1.5,2.3-1.3c2.2,0.5,4.3,0.8,7.2-0.1c5.8-1.7,10.6-8.1,8.4-15.8c-2.8-9.8-4.6-21.3-5.8-25.6
				c-1.7-6.1-2.2-11.1-6.4-16.8c-2.8-3.9-7-6.2-11.1-12.2c-4.1,6-8.2,8.3-11.1,12.2c-4.2,5.7-4.7,10.8-6.4,16.8
				c-1.2,4.3-3,15.8-5.8,25.6C63.9,143.8,68.6,150.2,74.4,151.9z"/>
			<path id="XMLID_1177_" class="st9" d="M74.4,151.9c2.9,0.9,5.1,0.6,7.2,0.1c1-0.2,2,0.3,2.3,1.3c0.8,2.6,2.9,4.4,5.4,4.4
				c2.4,0,4.5-1.8,5.4-4.4c0.3-1,1.3-1.5,2.3-1.3c2.2,0.5,4.3,0.8,7.2-0.1c5.8-1.7,10.6-8.1,8.4-15.8c-2.8-9.8-4.6-21.3-5.8-25.6
				c-1.7-6.1-2.2-11.1-6.4-16.8c-2.8-3.9-7-6.2-11.1-12.2c-4.1,6-8.2,8.3-11.1,12.2c-4.2,5.7-4.7,10.8-6.4,16.8
				c-1.2,4.3-3,15.8-5.8,25.6C63.9,143.8,68.6,150.2,74.4,151.9z"/>
		</g>
		<g>
			<path id="XMLID_1176_" class="st0" d="M141.6,129.8c2.2-2.1,3-4.2,3.7-6.4c0.3-1,1.3-1.6,2.2-1.4c2.6,0.5,5.2-0.4,6.4-2.6
				c1.2-2.2,0.7-4.9-1-6.9c-0.7-0.8-0.6-1.9,0-2.7c1.5-1.7,2.9-3.4,3.6-6.4c1.4-6-1.6-13.4-9.2-15.3c-9.7-2.4-20.4-6.6-24.6-7.7
				c-6-1.5-10.5-3.6-17.5-2.8c-4.7,0.6-8.7,3.1-15.9,3.7c3.1,6.6,3,11.5,4.8,15.9c2.8,6.6,6.8,9.5,11.1,14.1
				c3,3.2,11.9,10.6,18.8,17.9C129.5,135.1,137.2,134.1,141.6,129.8z"/>
			
				<linearGradient id="XMLID_11_" gradientUnits="userSpaceOnUse" x1="5366.9717" y1="4314.1045" x2="5366.9717" y2="4239.1074" gradientTransform="matrix(-0.5 0.866 -0.866 -0.5 6508.5479 -2408.8547)">
				<stop  offset="0" style="stop-color:#FA9600"/>
				<stop  offset="1" style="stop-color:#FA9600;stop-opacity:0"/>
			</linearGradient>
			<path id="XMLID_1175_" class="st12" d="M141.6,129.8c2.2-2.1,3-4.2,3.7-6.4c0.3-1,1.3-1.6,2.2-1.4c2.6,0.5,5.2-0.4,6.4-2.6
				c1.2-2.2,0.7-4.9-1-6.9c-0.7-0.8-0.6-1.9,0-2.7c1.5-1.7,2.9-3.4,3.6-6.4c1.4-6-1.6-13.4-9.2-15.3c-9.7-2.4-20.4-6.6-24.6-7.7
				c-6-1.5-10.5-3.6-17.5-2.8c-4.7,0.6-8.7,3.1-15.9,3.7c3.1,6.6,3,11.5,4.8,15.9c2.8,6.6,6.8,9.5,11.1,14.1
				c3,3.2,11.9,10.6,18.8,17.9C129.5,135.1,137.2,134.1,141.6,129.8z"/>
			<path id="XMLID_1174_" class="st9" d="M141.6,129.8c2.2-2.1,3-4.2,3.7-6.4c0.3-1,1.3-1.6,2.2-1.4c2.6,0.5,5.2-0.4,6.4-2.6
				c1.2-2.2,0.7-4.9-1-6.9c-0.7-0.8-0.6-1.9,0-2.7c1.5-1.7,2.9-3.4,3.6-6.4c1.4-6-1.6-13.4-9.2-15.3c-9.7-2.4-20.4-6.6-24.6-7.7
				c-6-1.5-10.5-3.6-17.5-2.8c-4.7,0.6-8.7,3.1-15.9,3.7c3.1,6.6,3,11.5,4.8,15.9c2.8,6.6,6.8,9.5,11.1,14.1
				c3,3.2,11.9,10.6,18.8,17.9C129.5,135.1,137.2,134.1,141.6,129.8z"/>
		</g>
		<g>
			<path id="XMLID_1173_" class="st0" d="M156.5,59.4c-0.7-3-2-4.8-3.6-6.4c-0.7-0.7-0.7-1.9,0-2.7c1.7-2,2.2-4.8,1-6.9
				c-1.2-2.2-3.8-3.1-6.4-2.6c-1,0.2-1.9-0.4-2.2-1.4c-0.6-2.2-1.5-4.2-3.7-6.4c-4.4-4.3-12.1-5.3-17.6,0.5
				c-6.9,7.4-15.8,14.7-18.8,17.9c-4.3,4.5-8.3,7.5-11.1,14.1c-1.9,4.4-1.8,9.3-4.8,15.9c7.2,0.6,11.2,3.1,15.9,3.7
				c6.9,0.8,11.5-1.3,17.5-2.8c4.2-1.1,14.9-5.3,24.6-7.7C154.9,72.7,157.9,65.4,156.5,59.4z"/>
			
				<linearGradient id="XMLID_12_" gradientUnits="userSpaceOnUse" x1="1762.5421" y1="3997.3059" x2="1762.5421" y2="3922.3088" gradientTransform="matrix(0.5 0.866 -0.866 0.5 2669.4429 -3444.052)">
				<stop  offset="0" style="stop-color:#FA9600"/>
				<stop  offset="1" style="stop-color:#FA9600;stop-opacity:0"/>
			</linearGradient>
			<path id="XMLID_1172_" class="st13" d="M156.5,59.4c-0.7-3-2-4.8-3.6-6.4c-0.7-0.7-0.7-1.9,0-2.7c1.7-2,2.2-4.8,1-6.9
				c-1.2-2.2-3.8-3.1-6.4-2.6c-1,0.2-1.9-0.4-2.2-1.4c-0.6-2.2-1.5-4.2-3.7-6.4c-4.4-4.3-12.1-5.3-17.6,0.5
				c-6.9,7.4-15.8,14.7-18.8,17.9c-4.3,4.5-8.3,7.5-11.1,14.1c-1.9,4.4-1.8,9.3-4.8,15.9c7.2,0.6,11.2,3.1,15.9,3.7
				c6.9,0.8,11.5-1.3,17.5-2.8c4.2-1.1,14.9-5.3,24.6-7.7C154.9,72.7,157.9,65.4,156.5,59.4z"/>
			<path id="XMLID_1171_" class="st9" d="M156.5,59.4c-0.7-3-2-4.8-3.6-6.4c-0.7-0.7-0.7-1.9,0-2.7c1.7-2,2.2-4.8,1-6.9
				c-1.2-2.2-3.8-3.1-6.4-2.6c-1,0.2-1.9-0.4-2.2-1.4c-0.6-2.2-1.5-4.2-3.7-6.4c-4.4-4.3-12.1-5.3-17.6,0.5
				c-6.9,7.4-15.8,14.7-18.8,17.9c-4.3,4.5-8.3,7.5-11.1,14.1c-1.9,4.4-1.8,9.3-4.8,15.9c7.2,0.6,11.2,3.1,15.9,3.7
				c6.9,0.8,11.5-1.3,17.5-2.8c4.2-1.1,14.9-5.3,24.6-7.7C154.9,72.7,157.9,65.4,156.5,59.4z"/>
		</g>
		<g>
			<path id="XMLID_1170_" class="st0" d="M104.2,10.9c-2.9-0.9-5.1-0.6-7.2-0.1c-1,0.2-2-0.3-2.3-1.3c-0.8-2.6-2.9-4.4-5.4-4.4
				c-2.4,0-4.5,1.8-5.4,4.4c-0.3,1-1.3,1.5-2.3,1.3c-2.2-0.5-4.3-0.8-7.2,0.1c-5.8,1.7-10.6,8.1-8.4,15.8c2.8,9.8,4.6,21.3,5.8,25.6
				c1.7,6.1,2.2,11.1,6.4,16.8c2.8,3.9,7,6.2,11.1,12.2c4.1-6,8.2-8.3,11.1-12.2c4.2-5.7,4.7-10.8,6.4-16.8c1.2-4.3,3-15.8,5.8-25.6
				C114.8,19,110,12.7,104.2,10.9z"/>
			
				<linearGradient id="XMLID_13_" gradientUnits="userSpaceOnUse" x1="236.1414" y1="718.1439" x2="236.1414" y2="641.9383" gradientTransform="matrix(1 0 0 1 -146.8269 -636.7171)">
				<stop  offset="0" style="stop-color:#FA9600"/>
				<stop  offset="1" style="stop-color:#FA9600;stop-opacity:0"/>
			</linearGradient>
			<path id="XMLID_1169_" class="st14" d="M104.2,10.9c-2.9-0.9-5.1-0.6-7.2-0.1c-1,0.2-2-0.3-2.3-1.3c-0.8-2.6-2.9-4.4-5.4-4.4
				c-2.4,0-4.5,1.8-5.4,4.4c-0.3,1-1.3,1.5-2.3,1.3c-2.2-0.5-4.3-0.8-7.2,0.1c-5.8,1.7-10.6,8.1-8.4,15.8c2.8,9.8,4.6,21.3,5.8,25.6
				c1.7,6.1,2.2,11.1,6.4,16.8c2.8,3.9,7,6.2,11.1,12.2c4.1-6,8.2-8.3,11.1-12.2c4.2-5.7,4.7-10.8,6.4-16.8c1.2-4.3,3-15.8,5.8-25.6
				C114.8,19,110,12.7,104.2,10.9z"/>
			<path id="XMLID_1168_" class="st9" d="M104.2,10.9c-2.9-0.9-5.1-0.6-7.2-0.1c-1,0.2-2-0.3-2.3-1.3c-0.8-2.6-2.9-4.4-5.4-4.4
				c-2.4,0-4.5,1.8-5.4,4.4c-0.3,1-1.3,1.5-2.3,1.3c-2.2-0.5-4.3-0.8-7.2,0.1c-5.8,1.7-10.6,8.1-8.4,15.8c2.8,9.8,4.6,21.3,5.8,25.6
				c1.7,6.1,2.2,11.1,6.4,16.8c2.8,3.9,7,6.2,11.1,12.2c4.1-6,8.2-8.3,11.1-12.2c4.2-5.7,4.7-10.8,6.4-16.8c1.2-4.3,3-15.8,5.8-25.6
				C114.8,19,110,12.7,104.2,10.9z"/>
		</g>
		<path id="XMLID_1167_" class="st2" d="M124,33.5c-5.6,6-12.5,11.9-16.5,15.7c1.2-5.4,2.8-14.5,5-22.4c0.6-2.2,0.7-4.4,0.3-6.3
			c-1.6-1.4-3.4-2.6-6.1-3.3c-6.5-1.6-14.4,1.8-16.5,10.4c-0.4,1.7-0.7,3.1-0.9,4.4c-0.2-1.3-0.5-2.7-0.9-4.4
			c-2.1-8.6-10-12-16.5-10.4c-2.8,0.7-4.6,1.9-6.1,3.3c-0.4,1.9-0.3,4,0.3,6.3c2.3,7.9,3.9,17,5,22.4c-4-3.7-10.9-9.7-16.5-15.7
			c-1.6-1.7-3.4-2.8-5.2-3.4c-2,0.7-3.9,1.7-5.9,3.8c-4.6,4.9-5.7,13.6,0.6,19.8c1.2,1.2,2.3,2.2,3.3,3c-1.2-0.4-2.5-0.9-4.2-1.4
			c-8.3-2.5-15.2,2.9-17,9.4c-0.8,2.8-0.7,5-0.3,7.1c1.4,1.3,3.3,2.3,5.5,2.9c7.9,2,16.4,5.1,21.5,6.8c-5.2,1.7-13.7,4.8-21.5,6.8
			c-2.2,0.6-4,1.6-5.5,2.9c-0.4,2.1-0.5,4.3,0.3,7.1c1.9,6.5,8.7,11.9,17,9.4c1.6-0.5,3-1,4.2-1.4c-1,0.8-2,1.8-3.3,3
			c-6.3,6.1-5.2,14.8-0.6,19.8c2,2.1,3.9,3.1,5.9,3.8c1.8-0.6,3.6-1.7,5.2-3.4c5.6-6,12.5-11.9,16.5-15.7c-1.2,5.4-2.8,14.5-5,22.4
			c-0.6,2.2-0.7,4.4-0.3,6.3c1.6,1.4,3.4,2.6,6.1,3.3c6.5,1.6,14.4-1.8,16.5-10.4c0.4-1.7,0.7-3.1,0.9-4.4c0.2,1.3,0.5,2.7,0.9,4.4
			c2.1,8.6,10,12,16.5,10.4c2.8-0.7,4.6-1.9,6.1-3.3c0.4-1.9,0.3-4-0.3-6.3c-2.3-7.9-3.9-17-5-22.4c4,3.7,10.9,9.7,16.5,15.7
			c1.6,1.7,3.4,2.8,5.2,3.4c2-0.7,3.9-1.7,5.9-3.8c4.6-4.9,5.7-13.6-0.6-19.8c-1.2-1.2-2.3-2.2-3.3-3c1.2,0.4,2.5,0.9,4.2,1.4
			c8.3,2.5,15.2-2.9,17-9.4c0.8-2.8,0.7-5,0.3-7.1c-1.4-1.3-3.3-2.3-5.5-2.9c-7.9-2-16.4-5.1-21.5-6.8c5.2-1.7,13.7-4.8,21.5-6.8
			c2.2-0.6,4-1.6,5.5-2.9c0.4-2.1,0.5-4.3-0.3-7.1c-1.9-6.5-8.7-11.9-17-9.4c-1.6,0.5-3,1-4.2,1.4c1-0.8,2-1.8,3.3-3
			c6.3-6.1,5.2-14.8,0.6-19.8c-2-2.1-3.9-3.1-5.9-3.8C127.4,30.8,125.6,31.9,124,33.5z"/>
	</g>
	<g>
		<g>
			<path id="XMLID_1166_" class="st0" d="M73.5,23c-3,0.7-4.7,2.1-6.3,3.6c-0.7,0.7-1.9,0.7-2.6,0c-2-1.8-4.7-2.3-6.8-1
				c-2.1,1.3-3,3.9-2.5,6.5c0.2,1-0.4,2-1.3,2.3c-2.1,0.7-4.1,1.5-6.2,3.7c-4.2,4.5-5.2,12.4,0.5,18c7.2,7,8.6,5.9,11.7,9
				c4.4,4.4,7.3,8.5,13.8,11.3c4.3,1.9,9.1,1.8,15.6,4.9c0.6-7.3,3.1-11.4,3.6-16.2c0.8-7.1-1.2-11.7-2.7-17.8
				c-1.1-4.3,0.6-5-1.7-14.9C86.6,24.6,79.4,21.6,73.5,23z"/>
			
				<linearGradient id="XMLID_14_" gradientUnits="userSpaceOnUse" x1="877.8774" y1="-1040.6041" x2="877.8774" y2="-1104.6313" gradientTransform="matrix(0.866 -0.5 0.5 0.866 -150.2534 1421.3157)">
				<stop  offset="0" style="stop-color:#FA9600"/>
				<stop  offset="1" style="stop-color:#FA9600;stop-opacity:0"/>
			</linearGradient>
			<path id="XMLID_1165_" class="st15" d="M73.5,23c-3,0.7-4.7,2.1-6.3,3.6c-0.7,0.7-1.9,0.7-2.6,0c-2-1.8-4.7-2.3-6.8-1
				c-2.1,1.3-3,3.9-2.5,6.5c0.2,1-0.4,2-1.3,2.3c-2.1,0.7-4.1,1.5-6.2,3.7c-4.2,4.5-5.2,12.4,0.5,18c7.2,7,8.6,5.9,11.7,9
				c4.4,4.4,7.3,8.5,13.8,11.3c4.3,1.9,9.1,1.8,15.6,4.9c0.6-7.3,3.1-11.4,3.6-16.2c0.8-7.1-1.2-11.7-2.7-17.8
				c-1.1-4.3,0.6-5-1.7-14.9C86.6,24.6,79.4,21.6,73.5,23z"/>
		</g>
		<g>
			<path id="XMLID_1164_" class="st0" d="M47.7,124.6c2.1,2.3,4.1,3.1,6.2,3.7c1,0.3,1.5,1.3,1.3,2.3c-0.5,2.6,0.4,5.3,2.5,6.5
				c2.1,1.3,4.8,0.7,6.8-1c0.8-0.7,1.9-0.7,2.6,0c1.6,1.6,3.3,2.9,6.3,3.6c5.9,1.5,13.1-1.6,15-9.4c2.4-9.9,0.7-10.6,1.7-14.9
				c1.5-6.1,3.5-10.7,2.7-17.8c-0.5-4.8-3-8.9-3.6-16.2c-6.5,3.1-11.2,3-15.6,4.9c-6.4,2.8-9.3,6.9-13.8,11.3
				c-3.1,3.1-4.5,1.9-11.7,9C42.5,112.2,43.6,120.1,47.7,124.6z"/>
			
				<linearGradient id="XMLID_15_" gradientUnits="userSpaceOnUse" x1="7117.8638" y1="-491.713" x2="7117.8638" y2="-555.7397" gradientTransform="matrix(-0.866 -0.5 0.5 -0.866 6499.6133 3214.7505)">
				<stop  offset="0" style="stop-color:#FA9600"/>
				<stop  offset="1" style="stop-color:#FA9600;stop-opacity:0"/>
			</linearGradient>
			<path id="XMLID_1163_" class="st16" d="M47.7,124.6c2.1,2.3,4.1,3.1,6.2,3.7c1,0.3,1.5,1.3,1.3,2.3c-0.5,2.6,0.4,5.3,2.5,6.5
				c2.1,1.3,4.8,0.7,6.8-1c0.8-0.7,1.9-0.7,2.6,0c1.6,1.6,3.3,2.9,6.3,3.6c5.9,1.5,13.1-1.6,15-9.4c2.4-9.9,0.7-10.6,1.7-14.9
				c1.5-6.1,3.5-10.7,2.7-17.8c-0.5-4.8-3-8.9-3.6-16.2c-6.5,3.1-11.2,3-15.6,4.9c-6.4,2.8-9.3,6.9-13.8,11.3
				c-3.1,3.1-4.5,1.9-11.7,9C42.5,112.2,43.6,120.1,47.7,124.6z"/>
		</g>
		<g>
			<path id="XMLID_1162_" class="st0" d="M146.7,96.6c0.9-3,0.6-5.2,0.1-7.4c-0.2-1,0.3-2,1.3-2.3c2.5-0.9,4.3-3,4.3-5.5
				c0-2.5-1.8-4.6-4.3-5.5c-1-0.3-1.5-1.3-1.3-2.3c0.5-2.2,0.8-4.4-0.1-7.4c-1.7-5.9-7.9-10.8-15.5-8.5c-9.6,2.9-9.3,4.7-13.5,5.9
				c-5.9,1.7-10.9,2.3-16.5,6.5c-3.8,2.9-6.1,7.1-12,11.3c5.9,4.2,8.2,8.4,12,11.3c5.6,4.3,10.5,4.8,16.5,6.5
				c4.2,1.2,3.9,3.1,13.5,5.9C138.8,107.4,145,102.6,146.7,96.6z"/>
			
				<linearGradient id="XMLID_16_" gradientUnits="userSpaceOnUse" x1="3522.0515" y1="4638.1597" x2="3522.0515" y2="4575.1572" gradientTransform="matrix(0 1 -1 0 4727.4756 -3440.6243)">
				<stop  offset="0" style="stop-color:#FA9600"/>
				<stop  offset="1" style="stop-color:#FA9600;stop-opacity:0"/>
			</linearGradient>
			<path id="XMLID_1161_" class="st17" d="M146.7,96.6c0.9-3,0.6-5.2,0.1-7.4c-0.2-1,0.3-2,1.3-2.3c2.5-0.9,4.3-3,4.3-5.5
				c0-2.5-1.8-4.6-4.3-5.5c-1-0.3-1.5-1.3-1.3-2.3c0.5-2.2,0.8-4.4-0.1-7.4c-1.7-5.9-7.9-10.8-15.5-8.5c-9.6,2.9-9.3,4.7-13.5,5.9
				c-5.9,1.7-10.9,2.3-16.5,6.5c-3.8,2.9-6.1,7.1-12,11.3c5.9,4.2,8.2,8.4,12,11.3c5.6,4.3,10.5,4.8,16.5,6.5
				c4.2,1.2,3.9,3.1,13.5,5.9C138.8,107.4,145,102.6,146.7,96.6z"/>
		</g>
		<path id="XMLID_1160_" class="st18" d="M80.6,29.1c1.1,1.9,0.4,4.3-1.4,5.4c-1.8,1.1-4.2,0.4-5.3-1.4c-1.1-1.9-0.4-4.3,1.4-5.4
			C77.1,26.5,79.5,27.2,80.6,29.1z"/>
		<path id="XMLID_1159_" class="st18" d="M149.9,79.1c0.5,0.9,0.2,2.2-0.7,2.7c-0.9,0.5-2.1,0.2-2.6-0.7s-0.2-2.2,0.7-2.7
			C148.2,77.8,149.4,78.2,149.9,79.1z"/>
		<g>
			<path id="XMLID_1158_" class="st0" d="M31.9,66.2c-0.9,3-0.6,5.2-0.1,7.4c0.2,1-0.3,2-1.3,2.3c-2.5,0.9-4.3,3-4.3,5.5
				c0,2.5,1.8,4.6,4.3,5.5c1,0.3,1.5,1.3,1.3,2.3c-0.5,2.2-0.8,4.4,0.1,7.4c1.7,5.9,7.9,10.8,15.5,8.5c9.6-2.9,9.3-4.7,13.5-5.9
				c5.9-1.7,10.9-2.3,16.5-6.5c3.8-2.9,6.1-7.1,12-11.3c-5.9-4.2-8.2-8.4-12-11.3c-5.6-4.3-10.5-4.8-16.5-6.5
				c-4.2-1.2-3.9-3.1-13.5-5.9C39.8,55.4,33.6,60.3,31.9,66.2z"/>
			
				<linearGradient id="XMLID_17_" gradientUnits="userSpaceOnUse" x1="4156.1577" y1="-2567.7656" x2="4156.1577" y2="-2630.7688" gradientTransform="matrix(0 -1 1 0 2657.0813 4237.5854)">
				<stop  offset="0" style="stop-color:#FA9600"/>
				<stop  offset="1" style="stop-color:#FA9600;stop-opacity:0"/>
			</linearGradient>
			<path id="XMLID_1157_" class="st19" d="M31.9,66.2c-0.9,3-0.6,5.2-0.1,7.4c0.2,1-0.3,2-1.3,2.3c-2.5,0.9-4.3,3-4.3,5.5
				c0,2.5,1.8,4.6,4.3,5.5c1,0.3,1.5,1.3,1.3,2.3c-0.5,2.2-0.8,4.4,0.1,7.4c1.7,5.9,7.9,10.8,15.5,8.5c9.6-2.9,9.3-4.7,13.5-5.9
				c5.9-1.7,10.9-2.3,16.5-6.5c3.8-2.9,6.1-7.1,12-11.3c-5.9-4.2-8.2-8.4-12-11.3c-5.6-4.3-10.5-4.8-16.5-6.5
				c-4.2-1.2-3.9-3.1-13.5-5.9C39.8,55.4,33.6,60.3,31.9,66.2z"/>
		</g>
		<g>
			<path id="XMLID_1156_" class="st0" d="M105.1,139.8c3-0.7,4.7-2.1,6.3-3.6c0.7-0.7,1.9-0.7,2.6,0c2,1.8,4.7,2.3,6.8,1
				c2.1-1.3,3-3.9,2.5-6.5c-0.2-1,0.4-2,1.3-2.3c2.1-0.7,4.1-1.5,6.2-3.7c4.2-4.5,5.2-12.4-0.5-18c-7.2-7-8.6-5.9-11.7-9
				c-4.4-4.4-7.3-8.5-13.8-11.3c-4.3-1.9-9.1-1.8-15.6-4.9c-0.6,7.3-3.1,11.4-3.6,16.2c-0.8,7.1,1.2,11.7,2.7,17.8
				c1.1,4.3-0.6,5,1.7,14.9C92,138.2,99.2,141.3,105.1,139.8z"/>
			
				<linearGradient id="XMLID_18_" gradientUnits="userSpaceOnUse" x1="6801.417" y1="3111.6768" x2="6801.417" y2="3047.6504" gradientTransform="matrix(-0.866 0.5 -0.5 -0.866 7534.8105 -624.3545)">
				<stop  offset="0" style="stop-color:#FA9600"/>
				<stop  offset="1" style="stop-color:#FA9600;stop-opacity:0"/>
			</linearGradient>
			<path id="XMLID_1155_" class="st20" d="M105.1,139.8c3-0.7,4.7-2.1,6.3-3.6c0.7-0.7,1.9-0.7,2.6,0c2,1.8,4.7,2.3,6.8,1
				c2.1-1.3,3-3.9,2.5-6.5c-0.2-1,0.4-2,1.3-2.3c2.1-0.7,4.1-1.5,6.2-3.7c4.2-4.5,5.2-12.4-0.5-18c-7.2-7-8.6-5.9-11.7-9
				c-4.4-4.4-7.3-8.5-13.8-11.3c-4.3-1.9-9.1-1.8-15.6-4.9c-0.6,7.3-3.1,11.4-3.6,16.2c-0.8,7.1,1.2,11.7,2.7,17.8
				c1.1,4.3-0.6,5,1.7,14.9C92,138.2,99.2,141.3,105.1,139.8z"/>
		</g>
		<g>
			<path id="XMLID_1154_" class="st0" d="M130.9,38.2c-2.1-2.3-4.1-3.1-6.2-3.7c-1-0.3-1.5-1.3-1.3-2.3c0.5-2.6-0.4-5.3-2.5-6.5
				c-2.1-1.3-4.8-0.7-6.8,1c-0.8,0.7-1.9,0.7-2.6,0c-1.6-1.6-3.3-2.9-6.3-3.6c-5.9-1.5-13.1,1.6-15,9.4c-2.4,9.9-0.7,10.6-1.7,14.9
				c-1.5,6.1-3.5,10.7-2.7,17.8c0.5,4.8,3,8.9,3.6,16.2c6.5-3.1,11.2-3,15.6-4.9c6.4-2.8,9.3-6.9,13.8-11.3c3.1-3.1,4.5-1.9,11.7-9
				C136.1,50.6,135.1,42.7,130.9,38.2z"/>
			
				<linearGradient id="XMLID_19_" gradientUnits="userSpaceOnUse" x1="560.1906" y1="2562.2485" x2="560.1906" y2="2498.2217" gradientTransform="matrix(0.866 0.5 -0.5 0.866 884.9437 -2417.7891)">
				<stop  offset="0" style="stop-color:#FA9600"/>
				<stop  offset="1" style="stop-color:#FA9600;stop-opacity:0"/>
			</linearGradient>
			<path id="XMLID_1153_" class="st21" d="M130.9,38.2c-2.1-2.3-4.1-3.1-6.2-3.7c-1-0.3-1.5-1.3-1.3-2.3c0.5-2.6-0.4-5.3-2.5-6.5
				c-2.1-1.3-4.8-0.7-6.8,1c-0.8,0.7-1.9,0.7-2.6,0c-1.6-1.6-3.3-2.9-6.3-3.6c-5.9-1.5-13.1,1.6-15,9.4c-2.4,9.9-0.7,10.6-1.7,14.9
				c-1.5,6.1-3.5,10.7-2.7,17.8c0.5,4.8,3,8.9,3.6,16.2c6.5-3.1,11.2-3,15.6-4.9c6.4-2.8,9.3-6.9,13.8-11.3c3.1-3.1,4.5-1.9,11.7-9
				C136.1,50.6,135.1,42.7,130.9,38.2z"/>
		</g>
		<path id="XMLID_1152_" class="st18" d="M39.1,90.5c0.8,1.4,0.3,3.2-1.1,4c-1.4,0.8-3.2,0.3-4-1.1s-0.3-3.2,1.1-4
			C36.5,88.6,38.3,89.1,39.1,90.5z"/>
		<path id="XMLID_1151_" class="st18" d="M105.7,132.8c0.5,0.9,0.2,2.2-0.7,2.7c-0.9,0.5-2.1,0.2-2.6-0.7c-0.5-0.9-0.2-2.2,0.7-2.7
			C104,131.5,105.2,131.9,105.7,132.8z"/>
		<g>
			<path id="XMLID_1150_" class="st0" d="M73.7,76.5c4.3,1.9,9.1,1.8,15.6,4.9c-5.9-4.2-8.2-8.4-12-11.3c-5.6-4.3-10.5-4.8-16.5-6.5
				c-3.5-1-3.9-2.5-9.7-4.6c4.7,4,6.1,3.6,8.8,6.2C64.4,69.6,67.3,73.7,73.7,76.5z"/>
			<path id="XMLID_1149_" class="st0" d="M60.9,99.3c5.9-1.7,10.9-2.3,16.5-6.5c3.8-2.9,6.1-7.1,12-11.3c-6.5,3.1-11.2,3-15.6,4.9
				c-6.4,2.8-9.3,6.9-13.8,11.3c-2.6,2.6-4.1,2.2-8.8,6.2C57,101.8,57.3,100.3,60.9,99.3z"/>
			<path id="XMLID_1148_" class="st0" d="M92.9,97.7c-0.5-4.8-3-8.9-3.6-16.2c-0.6,7.3-3.1,11.4-3.6,16.2
				c-0.8,7.1,1.2,11.7,2.7,17.8c0.9,3.6-0.2,4.7,0.9,10.9c1.1-6.2,0-7.2,0.9-10.9C91.7,109.4,93.7,104.8,92.9,97.7z"/>
			<path id="XMLID_1147_" class="st0" d="M104.9,86.4c-4.3-1.9-9.1-1.8-15.6-4.9c5.9,4.2,8.2,8.4,12,11.3c5.6,4.3,10.5,4.8,16.5,6.5
				c3.5,1,3.9,2.5,9.7,4.6c-4.7-4-6.1-3.6-8.8-6.2C114.2,93.3,111.3,89.2,104.9,86.4z"/>
			<path id="XMLID_1146_" class="st0" d="M85.7,65.2c0.5,4.8,3,8.9,3.6,16.2c0.6-7.3,3.1-11.4,3.6-16.2c0.8-7.1-1.2-11.7-2.7-17.8
				c-0.9-3.6,0.2-4.7-0.9-10.9c-1.1,6.2,0,7.2-0.9,10.9C86.9,53.5,84.9,58.1,85.7,65.2z"/>
			<path id="XMLID_1145_" class="st0" d="M117.8,63.6c-5.9,1.7-10.9,2.3-16.5,6.5c-3.8,2.9-6.1,7.1-12,11.3c6.5-3.1,11.2-3,15.6-4.9
				c6.4-2.8,9.3-6.9,13.8-11.3c2.6-2.6,4.1-2.2,8.8-6.2C121.7,61.1,121.3,62.6,117.8,63.6z"/>
		</g>
		<path id="XMLID_1144_" class="st2" d="M108.6,74.3c0.7-1.2,0.9-2.6,0.5-3.7c-0.7-1.9-2.1-1.8-3.3-3.3c-1.2-1.5-0.9-2.9-2.6-3.9
			c-1-0.6-2.4-0.6-3.7-0.1c-0.2-1.4-1-2.6-1.9-3.2c-1.7-1-2.7,0-4.6-0.3c-1.9-0.3-2.5-1.6-4.4-1.3c-1.1,0.2-2.2,1.1-2.9,2.3
			c-1.1-1-2.4-1.4-3.5-1.2c-1.9,0.3-2.1,1.8-3.7,2.7c-1.7,1-3,0.4-4.2,1.9c-0.7,0.9-1,2.3-0.7,3.7c-1.4,0-2.7,0.5-3.4,1.4
			c-1.2,1.5-0.5,2.7-1.1,4.5s-2,2.2-2,4.2c0,1.2,0.6,2.4,1.8,3.3c-1.1,0.9-1.7,2.2-1.8,3.3c0,2,1.3,2.4,2,4.2c0.7,1.8-0.1,3,1.1,4.5
			c0.7,0.9,2,1.4,3.4,1.4c-0.3,1.4,0,2.8,0.7,3.7c1.2,1.5,2.5,0.9,4.2,1.9c1.7,1,1.8,2.4,3.7,2.7c1.1,0.2,2.4-0.2,3.5-1.2
			c0.7,1.3,1.8,2.1,2.9,2.3c1.9,0.3,2.5-0.9,4.4-1.3c1.9-0.3,2.9,0.7,4.6-0.3c1-0.6,1.7-1.8,1.9-3.2c1.3,0.5,2.7,0.5,3.7-0.1
			c1.7-1,1.3-2.4,2.6-3.9c1.2-1.5,2.6-1.4,3.3-3.3c0.4-1.1,0.2-2.5-0.5-3.7c1.4-0.5,2.4-1.4,2.8-2.5c0.7-1.8-0.5-2.7-0.5-4.7
			c0-2,1.1-2.8,0.5-4.7C110.9,75.7,109.9,74.7,108.6,74.3z"/>
	</g>
	<g>
		<path id="XMLID_1143_" class="st22" d="M89.3,81.4c-0.1-2.1,1.3-2.5,1.3-5.2c0-2.7-1-2.9-2-5.1c-0.6-1.3,0-1.5-0.9-4.5
			c-0.7-2.4-2.7-3.5-4.3-3.3c-1.6,0.3-1.7,1.5-3.1,2.3C79,66.5,78,66,77,67.3c-1,1.2-1.1,3.6,0.6,5.4c2.1,2.3,2.6,1.9,3.4,3
			c1.4,2,1,3,3.3,4.3C86.5,81.3,87.6,80.3,89.3,81.4z"/>
		<path id="XMLID_1142_" class="st22" d="M89.3,81.4c-1.3-1.5-0.6-2.8-2.2-4.8c-1.7-2.1-2.6-1.5-4.7-2.6c-1.2-0.6-0.9-1.2-3.5-2.9
			c-2.1-1.4-4.3-0.9-5.3,0.3c-1,1.2-0.4,2.2-0.9,3.8c-0.5,1.5-1.7,1.9-1.7,3.5c0,1.6,1.4,3.4,3.9,3.7c3.1,0.4,3.2-0.3,4.5,0.1
			c2.3,0.6,2.7,1.6,5.2,1.2C87.1,83.2,87.3,81.7,89.3,81.4z"/>
		<path id="XMLID_1141_" class="st22" d="M89.3,81.4c-2-0.3-2.2-1.8-4.7-2.2c-2.6-0.5-2.9,0.5-5.2,1.2c-1.3,0.4-1.4-0.3-4.5,0.1
			c-2.4,0.3-3.9,2.1-3.9,3.7c0,1.6,1.1,2,1.7,3.5c0.5,1.5-0.1,2.5,0.9,3.8c1,1.2,3.3,1.7,5.3,0.3c2.6-1.7,2.3-2.3,3.5-2.9
			c2.1-1,3.1-0.5,4.7-2.6C88.7,84.2,88,83,89.3,81.4z"/>
		<path id="XMLID_1140_" class="st22" d="M89.3,81.4c-1.7,1.1-2.8,0.1-5,1.4c-2.3,1.3-1.9,2.3-3.3,4.3c-0.8,1.1-1.3,0.7-3.4,3
			C75.9,92,76,94.3,77,95.6c1,1.3,2.1,0.8,3.5,1.6s1.5,2,3.1,2.3c1.5,0.3,3.6-0.8,4.3-3.3c0.9-3,0.3-3.2,0.9-4.5c1-2.2,2-2.4,2-5.1
			C90.6,83.9,89.2,83.5,89.3,81.4z"/>
		<path id="XMLID_1139_" class="st22" d="M89.3,81.4c-0.6,2-2.1,1.9-3,4.4c-0.9,2.5,0,3,0.2,5.5c0.1,1.4-0.5,1.4-0.7,4.6
			c-0.1,2.5,1.4,4.3,2.9,4.6c1.6,0.3,2.1-0.8,3.6-1.1c1.6-0.3,2.4,0.5,3.8-0.3c1.4-0.8,2.2-3,1.2-5.3c-1.2-2.9-1.8-2.7-2.2-4
			c-0.6-2.3,0.1-3.2-1.6-5.2C91.9,82.5,90.6,83,89.3,81.4z"/>
		<path id="XMLID_1138_" class="st22" d="M89.3,81.4c0.8,1.9-0.4,2.8,0.5,5.3c0.9,2.5,1.9,2.3,3.6,4.1c1,1,0.5,1.4,2.3,3.9
			c1.5,2,3.8,2.4,5.1,1.6c1.4-0.8,1.1-2,2.1-3.2s2.2-1.2,2.7-2.7c0.5-1.5-0.2-3.7-2.4-4.9c-2.8-1.4-3.1-0.9-4.2-1.7
			c-2-1.4-2-2.5-4.5-2.9C91.9,80.5,91.3,81.8,89.3,81.4z"/>
		<path id="XMLID_1137_" class="st22" d="M89.3,81.4c1.8,1,1.5,2.4,3.7,3.8c2.2,1.4,2.9,0.5,5.3,0.7c1.4,0.1,1.2,0.8,4.3,1.5
			c2.4,0.6,4.4-0.7,4.9-2.2c0.6-1.5-0.4-2.2-0.4-3.9c0-1.6,0.9-2.3,0.4-3.9c-0.5-1.5-2.5-2.7-4.9-2.2c-3,0.7-2.9,1.4-4.3,1.5
			c-2.4,0.2-3.1-0.6-5.3,0.7C90.8,79,91.1,80.5,89.3,81.4z"/>
		<path id="XMLID_1136_" class="st22" d="M89.3,81.4c2-0.4,2.6,0.9,5.2,0.5c2.6-0.4,2.6-1.5,4.5-2.9c1.1-0.8,1.4-0.2,4.2-1.7
			c2.2-1.1,2.9-3.4,2.4-4.9c-0.5-1.5-1.7-1.5-2.7-2.7c-1-1.2-0.7-2.4-2.1-3.2c-1.4-0.8-3.6-0.5-5.1,1.6c-1.9,2.5-1.4,2.9-2.3,3.9
			c-1.7,1.7-2.7,1.5-3.6,4.1C88.9,78.6,90.1,79.5,89.3,81.4z"/>
		<path id="XMLID_1135_" class="st22" d="M89.3,81.4c1.2-1.6,2.6-1,4.3-3.1c1.7-2,1-2.9,1.6-5.2c0.4-1.4,1-1.1,2.2-4
			c1-2.3,0.1-4.5-1.2-5.3c-1.4-0.8-2.2,0-3.8-0.3s-2.1-1.3-3.6-1.1c-1.5,0.3-3.1,2-2.9,4.6c0.2,3.2,0.8,3.1,0.7,4.6
			c-0.2,2.4-1.1,3-0.2,5.5C87.2,79.5,88.7,79.5,89.3,81.4z"/>
	</g>
	<path id="XMLID_1134_" class="st23" d="M86.1,77.8c2-1.8,5-1.7,6.8,0.3c1.8,2,1.7,5.1-0.3,7c-2,1.8-5,1.7-6.8-0.3
		C84,82.8,84.1,79.6,86.1,77.8z"/>
</g>
</svg>
