<?xml version="1.0" encoding="utf-8"?>
<!-- Generator: Adobe Illustrator 24.0.2, SVG Export Plug-In . SVG Version: 6.00 Build 0)  -->
<svg version="1.1" id="Capa_1" xmlns="http://www.w3.org/2000/svg" xmlns:xlink="http://www.w3.org/1999/xlink" x="0px" y="0px"
	 viewBox="0 0 398.6 308.6" style="enable-background:new 0 0 398.6 308.6;" xml:space="preserve">
<style type="text/css">
	.st0{fill:#FCB02D;}
	.st1{fill:#EC9804;}
	.st2{fill:#945F0E;}
	.st3{fill:#663111;}
</style>
<g>
	<g id="flor2">
		<g>
			<g>
				<g>
					<g>
						<g>
							<path class="st0" d="M95,197.6c8.6,4.1,17.3,8.2,26.1,12c7.2,3.2,14.4,6.3,21.6,9.3c4.7,2,29,13.6,28.1,3.6
								c-0.8-9.6-14.5-21.3-21.1-27.2c-4.4-4-9.1-7.7-14.3-10.7h0c-3.8-2.2-7.9-4-12.1-5.3c-10-2.9-21.3-2.3-30.1,3.3
								c-2.9,1.9-5.7,4.9-5.2,8.3C88.6,194.3,92,196.2,95,197.6L95,197.6z"/>
							<path class="st0" d="M195.8,191.2c0.4-1,0.7-2,1.1-3.1c4.1-12.2,7.7-24.8,5.9-37.5c-0.5-3.5-1.6-7.3-4.5-9.3
								c-4.1-3-10-1.2-14.3,1.5c-11,7.1-17.5,19.8-19,32.8c-0.2,1.7-0.3,3.3-0.3,5c-0.2,11.2,2.7,26.9,9.8,36
								C183,227.8,193.7,197.1,195.8,191.2L195.8,191.2z"/>
							<path class="st0" d="M212.9,241c4.3,0.9,7.9,1.4,9.4,1.6c11,1.5,22.5,1.9,33-1.8c3.3-1.2,6.5-2.8,8.7-5.5
								c2.2-2.7,3.1-6.6,1.6-9.7c-1.5-3-4.8-4.6-8-5.8c-7.2-2.7-14.7-4.4-22.3-5.2c-1.1-0.1-2.1-0.2-3.2-0.3c-8-0.5-16.2,0-24.1,1.6
								c-6.5,1.3-16.1,2.9-21.1,7.6C177.5,232.4,199.1,238.3,212.9,241L212.9,241z"/>
							<path class="st0" d="M216.4,292.9c2,0.3,4.1,0.5,5.9-0.3c3.4-1.5,4.5-5.8,4.5-9.6c-0.1-7.6-3.5-14.9-8.2-20.8
								c-1.1-1.4-2.2-2.7-3.4-3.9c-4-4.3-8.7-7.9-13.4-11.5c-6.1-4.6-14.3-11.7-22.1-13.1c-6.9-1.3-9.2,6.3-8.3,12.2
								c1,6,4.2,11.5,7.5,16.7c1.3,2.1,2.7,4.1,4.2,6.1C191.6,280.2,202.5,290.4,216.4,292.9L216.4,292.9z"/>
							<path class="st0" d="M110.5,281.1c6.3,2.2,13.1-0.5,18.9-3.8c6.4-3.7,11.8-8,16.8-13c1.1-1,2.1-2.1,3.1-3.2
								c6.7-7.1,14.9-11.3,19-20.8c0.7-1.7,1.3-3.6,0.6-5.3c-0.7-1.7-2.4-2.7-4.2-3c-1.8-0.3-3.6,0-5.4,0.4
								c-13.7,2.8-26.5,7.2-37.7,15.4c-0.8,0.6-1.6,1.2-2.4,1.8c-7.4,5.9-14.2,14-14.1,23.5c0,1.8,0.3,3.8,1.4,5.3
								C107.5,279.7,108.9,280.6,110.5,281.1L110.5,281.1z"/>
							<path class="st1" d="M195.8,191.2c0.4-1,0.7-2,1.1-3.1c-2.9,2.8-5.8,5.7-8.8,8.6c0.9-4.5,3-8.7,4.6-13
								c1.6-4.3,2.7-9.1,1.5-13.5c-4.4,7.9-5.4,18.4-13,23.3c1.8-7.4,3.5-14.7,5.3-22.1c-6,6.9-10.5,15.3-12.7,24.2
								c0.9-7.3,0.2-14.7-2-21.7c-1.4,7.7-2.6,15.5-3.5,23.3c-1.4-7.1-0.9-15-3.4-21.5c-0.2,1.7-0.3,3.3-0.3,5
								c-0.2,11.2,2.7,26.9,9.8,36C183,227.8,193.7,197.1,195.8,191.2L195.8,191.2z"/>
							<path class="st1" d="M212.9,241c-4.2-2.2-8.6-4.1-13-5.9c6.4,1.5,12.9,2.6,19.5,3.3c1.2,0.1,2.5,0.2,3.5-0.3
								c1.1-0.5,1.8-2,1.1-3c-0.4-0.6-1.1-0.9-1.8-1.1c-6.8-2.2-13.8-3.7-20.8-4.5c6.2,0.5,12.5,0.4,18.7-0.3
								c1.2-0.1,2.6-0.7,2.6-1.8c-0.1-1-1.2-1.4-2.2-1.7c-8.8-1.9-17.9-2.5-26.9-1.6c12.5-1.4,24.9-3.5,37.1-6.3
								c2-0.4,4.4-1.4,4.7-3.3c-1.1-0.1-2.1-0.2-3.2-0.3c-8-0.5-16.2,0-24.1,1.6c-6.5,1.3-16.1,2.9-21.1,7.6
								C177.5,232.4,199.1,238.3,212.9,241L212.9,241z"/>
							<path class="st1" d="M142.7,218.9c4.7,2,29,13.6,28.1,3.6c-0.8-9.6-14.5-21.3-21.1-27.2c-4.4-4-9.1-7.7-14.3-10.7h0
								c-0.6-0.3-1.3-0.5-1.9-0.8c6.8,6.9,12.7,14.7,17.5,23.2c-4.9-3.8-9.8-7.5-14.6-11.3c-2.6-2-6.1-4-8.8-2.2
								c4.8,7.1,12.3,11.9,19.6,16.4c-6.5-2.9-13-5.6-19.6-8.3c-2.1-0.8-5.1-1.4-6.1,0.6c6.2,5.3,13.4,9.5,21,12.3
								c-7-2.3-14.1-4.6-21.5-5C128.2,212.8,135.4,215.9,142.7,218.9L142.7,218.9z"/>
							<path class="st1" d="M178.9,262.5c1.3,2.1,2.7,4.1,4.2,6.1c0.3-1.4,0.4-2.9,0.4-4.3c0-5.6-2.1-11.2-1.1-16.8
								c4.6,7.3,8.9,14.7,12.8,22.4c2.3-3.5,0.2-8.2-1.9-11.8c-2.6-4.5-5.2-9-7.8-13.5c6.9,7.3,13.7,14.7,20.6,22
								c1.3-1.8-0.1-4.3-1.5-6.1c-4.7-6.2-9.6-12.1-14.8-17.8c5.3,4.7,10.6,9.3,16.1,13.7c3,2.4,6.1,4.9,9.9,5.6
								c0.4-1.2,0-2.4-0.6-3.6c-4-4.3-8.7-7.9-13.4-11.5c-6.1-4.6-14.3-11.7-22.1-13.1c-6.9-1.3-9.2,6.3-8.3,12.2
								C172.5,251.9,175.6,257.4,178.9,262.5L178.9,262.5z"/>
							<path class="st1" d="M156.3,251.4c-3.4,4.3-6.7,8.7-10.1,13c1.1-1,2.1-2.1,3.1-3.2c6.7-7.1,14.9-11.3,19-20.8
								c0.7-1.7,1.3-3.6,0.6-5.3c-0.7-1.7-2.4-2.7-4.2-3c-1.8-0.3-3.6,0-5.4,0.4c-13.7,2.8-26.5,7.2-37.7,15.4
								c-1.3,1.5-2.5,3-3.7,4.7c12.6-2.5,23.4-10.9,36-13.3c-5.8,3.8-11.5,7.7-17,11.8c-3.1,2.3-6.4,5-7.6,8.7
								c9-5.1,17.7-10.5,26.3-16.2c-7.7,6.4-15.6,13.2-19.8,22.3C142.6,261,149.5,256.2,156.3,251.4L156.3,251.4z"/>
						</g>
						<g>
							<path class="st1" d="M196.9,188.1c-0.4,1-0.7,2-1.1,3.1c-2.1,5.9-12.8,36.6-21.4,25.5c-7-9.1-9.9-24.8-9.8-36
								c0-1.7,0.1-3.3,0.3-5c1.5-13.1,8-25.7,19-32.8c4.3-2.8,10.2-4.5,14.3-1.5c2.9,2.1,4,5.8,4.5,9.3
								C204.6,163.3,201,176,196.9,188.1L196.9,188.1z"/>
							<path class="st1" d="M105.1,273.2c-0.1-9.5,6.8-17.6,14.1-23.5c0.8-0.6,1.6-1.3,2.4-1.8c11.2-8.3,24-12.6,37.7-15.4
								c1.8-0.4,3.6-0.7,5.4-0.4c1.8,0.3,3.5,1.3,4.2,3c0.7,1.7,0.1,3.7-0.6,5.3c-4.1,9.5-12.3,13.6-19,20.8c-1,1.1-2.1,2.2-3.1,3.2
								c-5,5-10.4,9.3-16.8,13c-5.8,3.3-12.7,6-18.9,3.8c-1.5-0.5-3-1.4-4-2.7C105.5,276.9,105.2,275,105.1,273.2L105.1,273.2z"/>
							<path class="st1" d="M186.9,223.5c5-4.7,14.6-6.3,21.1-7.6c7.9-1.6,16-2.1,24.1-1.6c1.1,0.1,2.1,0.2,3.2,0.3
								c7.6,0.8,15.1,2.5,22.3,5.2c3.2,1.2,6.5,2.8,8,5.8c1.5,3.1,0.6,7-1.6,9.7c-2.2,2.7-5.4,4.3-8.7,5.5c-10.5,3.8-22,3.3-33,1.8
								c-1.6-0.2-5.1-0.7-9.4-1.6C199.2,238.3,177.5,232.4,186.9,223.5L186.9,223.5z"/>
							<path class="st1" d="M142.7,218.9c-7.2-3-14.4-6.1-21.6-9.3c-8.8-3.9-17.5-7.9-26.1-12c-3-1.4-6.4-3.4-6.9-6.7
								c-0.6-3.4,2.3-6.4,5.2-8.3c8.8-5.6,20.1-6.2,30-3.3c4.3,1.2,8.3,3,12.1,5.3h0c5.1,3,9.9,6.7,14.3,10.7
								c6.5,6,20.3,17.7,21.1,27.2C171.7,232.5,147.4,220.9,142.7,218.9L142.7,218.9z"/>
							<path class="st1" d="M179.7,233.7c7.8,1.5,15.9,8.5,22.1,13.1c4.7,3.5,9.4,7.2,13.4,11.5c1.2,1.2,2.3,2.5,3.4,3.9
								c4.7,6,8.1,13.2,8.2,20.8c0.1,3.7-1,8-4.5,9.6c-1.8,0.8-3.9,0.6-5.9,0.3c-13.9-2.5-24.8-12.7-33.3-24.2
								c-1.5-2-2.9-4.1-4.2-6.1c-3.3-5.2-6.5-10.6-7.5-16.7C170.4,240,172.8,232.4,179.7,233.7L179.7,233.7z"/>
						</g>
						<g>
							<path class="st0" d="M125.8,154.6c4.2,8.6,8.5,17.2,12.9,25.7c3.6,7,7.3,13.8,11.1,20.7c2.5,4.5,14.2,28.7,19.7,20.4
								c5.3-8,1.9-25.7,0.5-34.4c-0.9-5.9-2.4-11.7-4.5-17.3v0c-1.6-4.1-3.6-8.1-6.2-11.7c-6-8.5-15.3-15-25.6-16.1
								c-3.4-0.4-7.5,0.2-9.2,3.2C122.9,148,124.4,151.6,125.8,154.6L125.8,154.6z"/>
							<path class="st0" d="M208.7,212.4c0.9-0.6,1.8-1.2,2.8-1.7c10.8-6.9,21.5-14.6,28-25.6c1.8-3,3.3-6.7,2.3-10.1
								c-1.4-4.9-7.1-7.2-12.1-7.7c-13-1.3-26,4.5-35.3,13.8c-1.2,1.2-2.3,2.4-3.4,3.7c-7.1,8.7-14.6,22.8-14.8,34.3
								C175.9,233,203.4,215.7,208.7,212.4z"/>
							<path class="st0" d="M191,262c2.8,3.4,5.3,6,6.4,7.1c7.7,8,16.4,15.5,26.9,19.1c3.3,1.1,6.8,1.8,10.2,1.1
								c3.4-0.7,6.6-3.2,7.4-6.6c0.7-3.3-0.9-6.6-2.6-9.6c-3.9-6.6-8.7-12.6-14.2-17.9c-0.8-0.7-1.5-1.5-2.3-2.2
								c-6-5.4-12.6-10-19.8-13.8c-5.9-3-14.4-7.8-21.3-7.2C168.7,233.1,181.9,251.3,191,262L191,262z"/>
							<path class="st0" d="M161.4,304.7c1.3,1.5,2.9,3,4.8,3.5c3.6,0.9,7.2-1.7,9.5-4.7c4.6-6,6.5-13.8,6.6-21.4
								c0-1.7-0.1-3.5-0.2-5.2c-0.5-5.8-1.9-11.6-3.3-17.3c-1.9-7.5-3.9-18-9.1-24c-4.6-5.3-11.2-0.8-14,4.4
								c-3,5.4-3.9,11.6-4.5,17.7c-0.3,2.4-0.4,4.9-0.5,7.4C149.9,279.4,152.1,294.1,161.4,304.7L161.4,304.7z"/>
							<path class="st0" d="M85.9,229.6c3.5,5.6,10.6,7.8,17.2,8.8c7.3,1.1,14.1,1.1,21.2,0.3c1.5-0.2,3-0.3,4.5-0.6
								c9.7-1.4,18.6,0.4,27.8-4.4c1.6-0.9,3.3-2,3.8-3.8c0.5-1.7-0.2-3.6-1.4-5c-1.2-1.3-2.8-2.2-4.4-3
								c-12.5-6.3-25.2-10.9-39.1-11.4c-1,0-2-0.1-3-0.1c-9.5,0-19.9,2.1-25.7,9.6c-1.1,1.4-2.1,3.1-2.2,5
								C84.4,226.6,85.1,228.2,85.9,229.6L85.9,229.6z"/>
							<path class="st1" d="M208.7,212.4c0.9-0.6,1.8-1.2,2.8-1.7c-4.1,0.4-8.1,0.8-12.2,1.2c3.5-2.9,7.8-4.9,11.7-7.3
								c3.9-2.4,7.8-5.4,9.6-9.6c-8.4,3.4-15.7,11-24.6,10.1c6-4.7,12-9.3,18-14c-9,1.7-17.7,5.4-25,11c5.2-5.1,9.3-11.3,12-18.2
								c-5.9,5.2-11.7,10.5-17.3,16c3.4-6.4,8.6-12.3,10.7-19c-1.2,1.2-2.3,2.4-3.4,3.7c-7.1,8.7-14.6,22.8-14.8,34.3
								C175.9,233,203.4,215.7,208.7,212.4L208.7,212.4z"/>
							<path class="st1" d="M191,262c-1.9-4.3-4.2-8.5-6.5-12.7c4.1,5.2,8.5,10.1,13.2,14.7c0.9,0.8,1.8,1.7,2.9,1.9
								c1.2,0.2,2.6-0.4,2.7-1.6c0.1-0.7-0.4-1.4-0.8-2c-4-5.9-8.5-11.5-13.5-16.5c4.5,4.3,9.5,8.1,14.8,11.4c1,0.6,2.5,1.1,3.2,0.2
								c0.6-0.8-0.1-1.9-0.7-2.7c-5.7-7-12.5-13.1-20-18c10.6,6.7,21.7,12.8,33,18.3c1.8,0.9,4.3,1.7,5.7,0.3
								c-0.8-0.7-1.5-1.5-2.3-2.2c-6-5.4-12.6-10-19.8-13.8c-5.9-3-14.4-7.8-21.3-7.2C168.7,233.2,181.9,251.3,191,262L191,262z"/>
							<path class="st1" d="M149.9,201c2.5,4.5,14.2,28.7,19.7,20.4c5.3-8,1.9-25.7,0.5-34.4c-0.9-5.9-2.4-11.7-4.5-17.3v0
								c-0.4-0.6-0.7-1.2-1.1-1.8c1,9.7,0.8,19.5-0.8,29.1c-1.5-6-2.9-12-4.4-17.9c-0.8-3.2-2.3-7-5.5-7.2c-0.7,8.6,2.2,17,5.1,25.1
								c-3.3-6.3-6.7-12.5-10.2-18.7c-1.1-2-3.1-4.3-5.2-3.3c1.6,8,4.6,15.8,8.8,22.7c-4.1-6.2-8.2-12.4-13.7-17.3
								C142.4,187.2,146.1,194.1,149.9,201L149.9,201z"/>
							<path class="st1" d="M151,257.6c-0.3,2.4-0.4,4.9-0.5,7.4c1.1-1,2.1-2,3-3.2c3.5-4.4,5.4-10.1,9.6-13.8
								c-0.9,8.6-2.2,17.1-3.9,25.5c4-1.3,5.3-6.3,5.9-10.4c0.8-5.2,1.6-10.3,2.4-15.4c0.8,10,1.6,20,2.4,30
								c2.1-0.7,2.6-3.5,2.7-5.7c0.2-7.7,0-15.5-0.5-23.2c1.2,6.9,2.5,13.8,4,20.7c0.8,3.7,1.7,7.6,4.3,10.5c1-0.7,1.5-1.9,1.7-3.2
								c-0.5-5.8-1.9-11.6-3.3-17.3c-1.9-7.5-3.9-18-9.1-24c-4.6-5.3-11.2-0.8-14,4.4C152.6,245.3,151.7,251.6,151,257.6L151,257.6z
								"/>
							<path class="st1" d="M140.2,234.9c-5.3,1.3-10.6,2.6-16,3.9c1.5-0.2,3-0.3,4.5-0.6c9.7-1.4,18.6,0.4,27.8-4.4
								c1.6-0.9,3.3-2,3.8-3.8c0.5-1.7-0.2-3.6-1.4-5c-1.2-1.3-2.8-2.2-4.4-3c-12.5-6.3-25.2-10.9-39.1-11.4c-2,0.3-3.9,0.8-5.8,1.4
								c11.4,5.9,25.1,6.1,36.4,12c-6.9-0.7-13.8-1.1-20.7-1.3c-3.9-0.1-8.1-0.1-11.4,2.1c10.2,1.6,20.4,2.8,30.7,3.8
								c-10,0.2-20.4,0.6-29.4,5C123.6,233.9,131.9,234.4,140.2,234.9L140.2,234.9z"/>
						</g>
					</g>
					<path class="st2" d="M85.9,229.6c3.5,5.6,10.6,7.8,17.2,8.8c7.3,1.1,14.1,1.1,21.2,0.3c1.5-0.2,3-0.3,4.5-0.6
						c4.4-0.7,8.7-0.6,12.9-0.8c-3.9,1.4-7.7,3-11.3,5c-3,1.6-5.9,3.4-8.7,5.5c-0.8,0.6-1.6,1.2-2.4,1.8c-1.8,1.5-3.6,3.1-5.3,4.8
						c-0.8,0.9-1.6,1.8-2.4,2.7c-3,3.7-5.3,7.9-6.1,12.5c-0.2,1.1-0.3,2.3-0.3,3.5c0,1.4,0.2,2.8,0.7,4c0.2,0.4,0.4,0.8,0.7,1.2
						c0.9,1.3,2.4,2.2,4,2.7c2,0.7,4,0.9,6,0.8c1.6-0.1,3.3-0.4,4.9-0.9c0.4-0.1,0.8-0.3,1.2-0.4c0.8-0.3,1.6-0.6,2.4-0.9
						c1.6-0.7,3.1-1.5,4.5-2.3c6.4-3.7,11.8-8,16.8-13c1.1-1,2.1-2.1,3.1-3.2c0.5-0.5,1-1,1.5-1.5c-0.1,1.8-0.3,3.6-0.4,5.4
						c-0.6,14.3,1.6,29.1,10.9,39.7c1.3,1.5,2.9,3,4.8,3.5c3.6,0.9,7.2-1.7,9.5-4.7c4.6-6,6.5-13.8,6.6-21.4c0-1.7-0.1-3.5-0.2-5.2
						c-0.4-4.5-1.3-8.9-2.3-13.2c0.4,0.6,0.8,1.3,1.3,1.9c0.7,1,1.4,2,2.2,3c1.1,1.5,2.2,2.9,3.3,4.3c1.1,1.4,2.3,2.8,3.5,4.1
						s2.5,2.6,3.8,3.8c3.2,3,6.7,5.7,10.5,7.7c1.5,0.8,3.1,1.6,4.7,2.2c1.6,0.6,3.2,1.2,4.9,1.6c0.9,0.2,1.7,0.4,2.6,0.6
						c1.5,0.3,3,0.4,4.5,0.2c0.5-0.1,1-0.2,1.4-0.4c0.4-0.2,0.8-0.4,1.2-0.7c0.4-0.3,0.7-0.6,1-0.9c0.6-0.7,1-1.4,1.3-2.2
						c2.9,0.8,5.9,1.3,8.8,0.7c3.4-0.7,6.6-3.2,7.4-6.6c0.7-3.3-0.9-6.6-2.6-9.6c-3.9-6.6-8.7-12.6-14.2-17.9
						c-0.8-0.7-1.5-1.5-2.3-2.2c-6-5.4-12.6-10-19.8-13.8c-0.9-0.5-1.8-0.9-2.8-1.4c4.3,1.3,8.9,2.3,12.8,3.1
						c1.1,0.2,2.1,0.4,3.1,0.6c2.9,0.5,5.2,0.9,6.4,1c1.4,0.2,2.8,0.3,4.2,0.5c0.8,0.1,1.6,0.2,2.4,0.2c2,0.2,4,0.3,6,0.3
						c2.8,0.1,5.6,0,8.3-0.3c2.1-0.2,4.1-0.5,6.1-0.9s4-1,6-1.7c2.5-0.9,4.9-2,6.9-3.7c0.7-0.5,1.3-1.2,1.8-1.8
						c2.2-2.7,3.1-6.6,1.6-9.7c-0.4-0.8-0.9-1.4-1.4-2c-0.6-0.6-1.2-1.1-1.9-1.6c-0.4-0.2-0.7-0.5-1.1-0.7c-0.8-0.4-1.5-0.8-2.3-1.1
						c-0.4-0.2-0.8-0.3-1.2-0.5c-1.8-0.7-3.6-1.3-5.4-1.8c-3.7-1.1-7.4-2-11.2-2.6c-1.9-0.3-3.8-0.6-5.7-0.8
						c-1.1-0.1-2.1-0.2-3.2-0.3c-3-0.2-6-0.2-9.1-0.1c-1,0-2,0.1-3,0.2c-2,0.1-4,0.3-6,0.6c-2,0.3-4,0.6-6,1
						c-0.4,0.1-0.8,0.2-1.3,0.3c-2.2,0.4-4.6,0.9-7.1,1.5c4-2.2,7.4-4.3,9-5.3c0.9-0.6,1.8-1.2,2.8-1.7c10.8-6.9,21.5-14.6,28-25.6
						c1.8-3,3.3-6.7,2.3-10.1c-1.4-4.9-7.1-7.2-12.1-7.7c-10.2-1-20.4,2.4-28.9,8.4c1.5-5.9,2.5-11.8,2.5-17.8
						c0-2.4-0.1-4.7-0.5-7.1c-0.4-2.6-1.1-5.4-2.6-7.5c-0.5-0.7-1.1-1.3-1.9-1.8c-1.3-0.9-2.8-1.4-4.3-1.5c-0.6,0-1.2,0-1.9,0
						c-0.6,0.1-1.3,0.2-1.9,0.3c-0.6,0.1-1.1,0.3-1.7,0.5c-1.6,0.6-3.2,1.3-4.6,2.2c-2.8,1.8-5.2,3.9-7.4,6.3
						c-0.5,0.6-1.1,1.2-1.6,1.8c-1,1.3-2,2.6-2.8,4c-1.3,2.1-2.5,4.2-3.4,6.5c-0.6,1.5-1.2,3-1.7,4.6c-0.5,1.4-0.8,2.9-1.1,4.3
						c-0.1-0.2-0.2-0.5-0.3-0.7v0c-1.6-4.1-3.6-8.1-6.2-11.7c-6-8.5-15.3-15-25.6-16.1c-3.4-0.4-7.5,0.2-9.2,3.2
						c-1.6,2.9-0.2,6.6,1.3,9.6c4.2,8.6,8.5,17.2,12.9,25.7c1.8,3.5,3.6,6.9,5.5,10.4c-0.5-0.4-0.9-0.7-1.4-1.1
						c-2.4-1.8-4.9-3.5-7.4-5h0c-1-0.6-1.9-1.1-2.9-1.6c-2-1-4-1.9-6.1-2.7c-1-0.4-2.1-0.7-3.2-1c-2.5-0.7-5.1-1.2-7.7-1.5
						c-4.5-0.5-9.2-0.2-13.5,1c-3.1,0.8-6.1,2.1-8.8,3.8c-2.9,1.9-5.7,4.9-5.2,8.3c0.2,1.2,0.8,2.3,1.6,3.2c1.4,1.5,3.4,2.6,5.3,3.5
						c8.6,4.1,17.3,8.2,26.1,12c1.5,0.7,3,1.3,4.4,1.9c-3.3-0.6-6.7-1-10.1-1.1c-1,0-2-0.1-3-0.1c-9.5,0-19.9,2.1-25.7,9.6
						c-1.1,1.4-2.1,3.1-2.2,5C84.5,226.5,85.1,228.1,85.9,229.6L85.9,229.6z M158.3,232.6c0.9-0.7,1.7-1.6,2.1-2.7
						c0.5-1.6-0.1-3.3-1.1-4.7c0.3,0.1,0.5,0.2,0.8,0.2c1.2,0.3,2.4,0.6,3.5,0.8s2.1,0.3,3,0.2c0.3,0,0.6,0,0.9-0.1
						c0.6-0.1,1.1-0.2,1.5-0.4c0.9-0.4,1.5-1,1.8-1.9c0.1-0.5,0.2-1,0.1-1.6c-0.1-0.8-0.3-1.6-0.5-2.5c1-1.9,1.6-4.2,1.9-6.7
						c0.7,1.2,1.4,2.3,2.2,3.3c0.6,0.7,1.1,1.3,1.7,1.7c0,0.2,0,0.4,0,0.7c-0.1,6,4.9,6.3,11.1,4.3c-0.1,0.1-0.2,0.2-0.3,0.2
						c-1.8,1.7-2.5,3.2-2.3,4.7c0,0.5,0.2,1,0.4,1.4c0.2,0.5,0.5,0.9,0.9,1.3c0.6,0.7,1.4,1.4,2.4,2c-2.4-0.7-4.7-1-6.8-0.8
						c-1.9,0.2-3.1,0.7-4,1.4c-3,0.3-4.8,2.5-5.7,5.3c-0.7-1.2-1.4-2.3-2.3-3.3c-0.2-0.3-0.5-0.5-0.8-0.8c-0.3-0.7-0.9-1.3-1.6-1.8
						c-0.7-0.5-1.6-0.8-2.5-1c-1.8-0.3-3.6,0-5.4,0.4C159,232.5,158.7,232.6,158.3,232.6L158.3,232.6z"/>
					<g>
						<g>
							<path class="st0" d="M107.1,173.1c6.7,6.8,13.6,13.5,20.5,20.1c5.7,5.4,11.4,10.7,17.2,16c3.8,3.4,22.7,22.5,25.3,12.9
								c2.5-9.3-6.5-24.9-10.6-32.7c-2.8-5.3-6-10.3-9.9-14.9h0c-2.9-3.4-6-6.5-9.7-9.1c-8.4-6.1-19.3-9.3-29.4-7
								c-3.4,0.8-7,2.7-7.7,6C102.2,167.8,104.8,170.8,107.1,173.1L107.1,173.1z"/>
							<path class="st0" d="M204.2,201c0.7-0.8,1.4-1.7,2-2.5c8-10,15.6-20.8,18.2-33.3c0.7-3.5,0.9-7.4-1.1-10.3
								c-2.9-4.2-9-4.5-14-3.4c-12.7,3-23.1,12.7-28.9,24.5c-0.7,1.5-1.4,3-2,4.6c-3.9,10.5-6.5,26.3-2.9,37.2
								C179.8,231.1,200.3,205.9,204.2,201L204.2,201z"/>
							<path class="st0" d="M203.5,253.7c3.8,2.3,6.9,4,8.3,4.7c9.9,5.1,20.6,9.4,31.7,9.4c3.5,0,7.1-0.5,10-2.3
								c3-1.8,5.2-5.2,4.8-8.6c-0.4-3.4-3-6-5.6-8.2c-5.8-4.9-12.4-9.1-19.3-12.4c-1-0.5-1.9-0.9-2.9-1.3
								c-7.4-3.2-15.2-5.4-23.2-6.6c-6.6-1-16.2-2.7-22.5,0.1C173.1,233.6,191.5,246.5,203.5,253.7L203.5,253.7z"/>
							<path class="st0" d="M189.3,303.7c1.7,1,3.7,1.9,5.7,1.7c3.7-0.3,6.2-4,7.4-7.5c2.4-7.2,1.7-15.2-0.7-22.4
								c-0.5-1.6-1.2-3.3-1.9-4.8c-2.4-5.4-5.5-10.4-8.7-15.3c-4.2-6.4-9.5-15.8-16.4-19.8c-6-3.5-10.8,2.8-11.9,8.7
								c-1.1,6,0,12.2,1.4,18.2c0.6,2.4,1.2,4.8,1.9,7.2C170.3,283.4,177.1,296.7,189.3,303.7L189.3,303.7z"/>
							<path class="st0" d="M93.6,257c5.1,4.2,12.5,4,19.1,2.8c7.3-1.3,13.7-3.5,20.2-6.5c1.4-0.6,2.7-1.3,4.1-2
								c8.7-4.5,17.8-5.6,24.9-13.2c1.3-1.3,2.4-3,2.4-4.8c0-1.8-1.4-3.4-2.9-4.3c-1.6-0.9-3.4-1.2-5.2-1.4
								c-13.8-2-27.4-2.2-40.7,1.8c-1,0.3-1.9,0.6-2.9,0.9c-9,3.1-18.1,8.4-21.2,17.4c-0.6,1.7-1,3.6-0.5,5.4
								C91.2,254.6,92.3,255.9,93.6,257L93.6,257z"/>
							<path class="st1" d="M204.2,201c0.7-0.8,1.4-1.7,2-2.5c-3.7,1.7-7.4,3.4-11.1,5.1c2.4-3.9,5.8-7.1,8.7-10.6
								c3-3.5,5.6-7.6,5.9-12.2c-6.8,5.9-11.3,15.5-20.1,17.5c4.2-6.3,8.3-12.7,12.5-19c-8,4.5-15,10.8-20.1,18.5
								c3.3-6.5,5.2-13.8,5.4-21.1c-3.9,6.8-7.7,13.7-11.2,20.7c1.1-7.2,4.2-14.4,4-21.4c-0.7,1.5-1.4,3-2,4.6
								c-3.9,10.5-6.5,26.3-2.9,37.2C179.8,231.1,200.2,205.9,204.2,201L204.2,201z"/>
							<path class="st1" d="M203.5,253.7c-3.2-3.5-6.7-6.7-10.2-9.9c5.5,3.6,11.3,6.8,17.2,9.6c1.1,0.5,2.2,1,3.4,0.9
								c1.2-0.2,2.3-1.3,2-2.4c-0.2-0.7-0.8-1.2-1.4-1.6c-5.6-4.3-11.7-8.1-18.1-11.3c5.7,2.6,11.6,4.6,17.7,6
								c1.1,0.3,2.7,0.3,3-0.9c0.3-1-0.7-1.8-1.5-2.3c-7.6-4.8-16-8.3-24.8-10.5c12.2,2.9,24.6,5.1,37.1,6.6c2,0.3,4.6,0.2,5.5-1.6
								c-1-0.5-1.9-0.9-2.9-1.3c-7.4-3.2-15.2-5.4-23.2-6.6c-6.6-1-16.2-2.7-22.5,0.1C173.1,233.6,191.5,246.5,203.5,253.7
								L203.5,253.7z"/>
							<path class="st1" d="M144.9,209.2c3.8,3.4,22.7,22.5,25.3,12.9c2.5-9.3-6.5-24.9-10.6-32.7c-2.8-5.3-6-10.3-9.9-14.9h0
								c-0.5-0.5-1-0.9-1.6-1.4c4.1,8.8,7,18.2,8.7,27.8c-3.3-5.2-6.6-10.4-10-15.5c-1.8-2.7-4.4-5.9-7.6-5
								c2.1,8.3,7.6,15.3,13,22.1c-5.1-4.9-10.4-9.7-15.7-14.4c-1.7-1.5-4.3-3-6-1.5c4.1,7.1,9.4,13.4,15.7,18.7
								c-5.8-4.5-11.8-9.1-18.5-12C133.3,198.6,139,203.9,144.9,209.2L144.9,209.2z"/>
							<path class="st1" d="M164.3,262.5c0.6,2.4,1.2,4.8,1.9,7.2c0.7-1.3,1.3-2.6,1.8-4c1.9-5.3,1.8-11.3,4.6-16.2
								c1.9,8.4,3.4,16.9,4.5,25.4c3.4-2.5,3-7.6,2.2-11.8c-0.9-5.1-1.9-10.2-2.8-15.4c4,9.2,8,18.4,12,27.7
								c1.8-1.3,1.4-4.1,0.7-6.3c-2.3-7.4-5-14.6-7.9-21.8c3.4,6.2,6.9,12.3,10.5,18.3c2,3.3,4.1,6.7,7.4,8.6c0.8-1,0.8-2.3,0.6-3.6
								c-2.4-5.4-5.5-10.4-8.7-15.3c-4.2-6.4-9.5-15.8-16.4-19.8c-6-3.5-10.8,2.8-11.9,8.7C161.8,250.3,162.9,256.5,164.3,262.5
								L164.3,262.5z"/>
							<path class="st1" d="M146.7,244.4c-4.6,2.9-9.3,5.9-13.9,8.8c1.4-0.6,2.7-1.3,4.1-2c8.7-4.5,17.8-5.6,24.9-13.2
								c1.3-1.3,2.4-3,2.4-4.8c0-1.8-1.4-3.4-2.9-4.3c-1.6-0.9-3.4-1.2-5.2-1.4c-13.8-2-27.4-2.2-40.7,1.8c-1.8,0.9-3.4,2-5,3.2
								c12.7,1.9,25.7-2.3,38.3-0.4c-6.7,1.6-13.4,3.4-20,5.4c-3.8,1.2-7.7,2.5-10.1,5.6c10.1-1.8,20.2-3.9,30.2-6.4
								c-9.4,3.5-19.1,7.2-26.1,14.3C130.6,248.9,138.7,246.6,146.7,244.4L146.7,244.4z"/>
						</g>
						<g>
							<path class="st1" d="M206.3,198.5c-0.7,0.8-1.4,1.7-2,2.5c-4,4.9-24.4,30.1-28.7,16.8c-3.6-11-1-26.7,2.9-37.2
								c0.6-1.6,1.2-3.1,2-4.6c5.8-11.8,16.2-21.5,28.9-24.5c5-1.1,11.1-0.8,14,3.4c2,2.9,1.8,6.8,1.1,10.3
								C221.9,177.7,214.2,188.4,206.3,198.5z"/>
							<path class="st1" d="M91.2,247.7c3.1-8.9,12.3-14.3,21.2-17.4c1-0.3,1.9-0.6,2.9-0.9c13.3-4,26.9-3.8,40.7-1.8
								c1.8,0.3,3.6,0.6,5.2,1.4c1.6,0.9,2.9,2.5,2.9,4.3c0.1,1.8-1.1,3.5-2.4,4.8c-7.1,7.6-16.2,8.7-24.9,13.2
								c-1.4,0.7-2.7,1.4-4.1,2c-6.4,3-12.9,5.3-20.2,6.5c-6.5,1.2-13.9,1.4-19.1-2.8c-1.3-1-2.4-2.3-2.8-3.9
								C90.2,251.3,90.6,249.4,91.2,247.7L91.2,247.7z"/>
							<path class="st1" d="M185,228.5c6.3-2.7,15.9-1,22.5-0.1c8,1.2,15.8,3.4,23.2,6.6c1,0.4,2,0.9,2.9,1.3
								c6.9,3.3,13.4,7.4,19.3,12.4c2.6,2.2,5.2,4.8,5.6,8.2c0.4,3.5-1.8,6.8-4.8,8.6c-3,1.8-6.6,2.3-10,2.3
								c-11.1,0-21.8-4.3-31.7-9.4c-1.4-0.7-4.5-2.4-8.3-4.7C191.5,246.5,173.1,233.6,185,228.5L185,228.5z"/>
							<path class="st1" d="M144.9,209.2c-5.8-5.3-11.5-10.6-17.2-16c-7-6.6-13.8-13.3-20.5-20.1c-2.4-2.4-4.9-5.3-4.3-8.6
								c0.6-3.4,4.3-5.3,7.7-6c10.1-2.3,21,0.9,29.4,7c3.6,2.6,6.8,5.7,9.7,9h0c3.8,4.5,7.1,9.6,9.9,14.9
								c4.1,7.8,13.1,23.4,10.6,32.7C167.6,231.7,148.6,212.6,144.9,209.2L144.9,209.2z"/>
							<path class="st1" d="M174.7,235.6c6.8,4,12.1,13.4,16.4,19.8c3.2,4.9,6.4,9.9,8.7,15.3c0.7,1.6,1.3,3.2,1.9,4.8
								c2.4,7.2,3.1,15.2,0.7,22.4c-1.2,3.5-3.7,7.2-7.4,7.5c-2,0.1-3.9-0.7-5.7-1.7c-12.2-7-19.1-20.3-23.2-34
								c-0.7-2.4-1.3-4.8-1.9-7.2c-1.4-6-2.5-12.2-1.4-18.2C163.9,238.4,168.7,232.1,174.7,235.6L174.7,235.6z"/>
						</g>
						<g>
							<path class="st0" d="M150.7,143c1,9.5,2.2,19,3.5,28.5c1.1,7.8,2.2,15.5,3.5,23.2c0.8,5,3.7,31.8,11.7,25.8
								c7.7-5.7,10.5-23.5,12.1-32.2c1.1-5.9,1.7-11.8,1.5-17.8v0c-0.1-4.4-0.7-8.8-1.9-13.1c-2.8-10-9.3-19.3-18.6-23.8
								c-3.1-1.5-7.2-2.3-9.8-0.1C150.2,135.8,150.3,139.7,150.7,143L150.7,143z"/>
							<path class="st0" d="M209.2,225.3c1-0.2,2.1-0.5,3.2-0.7c12.5-2.9,25.1-6.5,35-14.7c2.7-2.3,5.3-5.2,5.5-8.7
								c0.4-5.1-4.2-9.2-8.8-11.4c-11.8-5.6-26-4.5-37.9,1.1c-1.5,0.7-3,1.5-4.4,2.3c-9.6,5.8-21.5,16.5-25.5,27.3
								C171.3,233.7,203.1,226.7,209.2,225.3L209.2,225.3z"/>
							<path class="st0" d="M175.8,266.1c1.5,4.1,2.9,7.4,3.6,8.9c4.6,10.2,10.2,20.2,18.9,27.1c2.7,2.2,5.8,4,9.3,4.5
								s7.3-0.8,9.1-3.7c1.8-2.9,1.4-6.5,0.8-9.9c-1.5-7.5-4-14.8-7.4-21.7c-0.5-1-1-1.9-1.5-2.8c-3.8-7.1-8.5-13.7-14-19.6
								c-4.5-4.8-11-12.2-17.6-14C164.5,231.4,170.9,253,175.8,266.1L175.8,266.1z"/>
							<path class="st0" d="M133.6,296.4c0.7,1.9,1.7,3.7,3.4,4.9c3.1,2.1,7.3,0.8,10.5-1.2c6.4-4.1,10.8-10.8,13.4-18
								c0.6-1.6,1.1-3.3,1.5-5c1.5-5.7,2.2-11.6,2.7-17.4c0.7-7.7,2.4-18.3-0.5-25.7c-2.5-6.5-10.2-4.5-14.7-0.6
								c-4.6,4.1-7.6,9.6-10.2,15.1c-1.1,2.2-2.1,4.5-3,6.8C131.3,268.6,128.4,283.2,133.6,296.4L133.6,296.4z"/>
							<path class="st0" d="M87.8,200.1c1.4,6.5,7.3,10.9,13.2,14.1c6.5,3.5,12.9,5.8,19.9,7.5c1.5,0.4,2.9,0.7,4.4,1
								c9.6,1.9,17.4,6.7,27.7,5.2c1.8-0.3,3.8-0.8,4.9-2.3c1.1-1.5,1-3.5,0.4-5.2c-0.7-1.7-1.9-3-3.2-4.4
								c-9.6-10.2-20.1-18.8-33-24c-0.9-0.4-1.9-0.7-2.8-1.1c-8.9-3.2-19.4-4.7-27.4,0.3c-1.6,1-3,2.2-3.7,4
								C87.4,196.8,87.5,198.5,87.8,200.1L87.8,200.1z"/>
							<path class="st1" d="M209.2,225.3c1-0.2,2.1-0.5,3.2-0.7c-4-1-7.9-2-11.9-2.9c4.3-1.6,9-2,13.5-2.9c4.5-0.9,9.1-2.5,12.2-5.8
								c-9,0.4-18.5,5.1-26.6,1.2c7.2-2.4,14.4-4.7,21.6-7.1c-9.1-1.5-18.5-0.9-27.2,2c6.6-3,12.6-7.5,17.4-13.1
								c-7.3,2.9-14.5,5.9-21.6,9.2c5.3-4.9,12.2-8.7,16.5-14.2c-1.5,0.7-3,1.5-4.4,2.3c-9.6,5.8-21.5,16.5-25.5,27.3
								C171.3,233.7,203.1,226.7,209.2,225.3L209.2,225.3z"/>
							<path class="st1" d="M175.8,266.1c-0.3-4.7-1-9.5-1.8-14.1c2.1,6.3,4.6,12.4,7.5,18.3c0.5,1.1,1.1,2.2,2.1,2.8
								c1,0.6,2.6,0.5,3.1-0.6c0.3-0.7,0.1-1.4,0-2.1c-1.7-6.9-4.1-13.6-7.1-20.1c2.8,5.6,6.2,10.8,10.1,15.7c0.7,0.9,2,1.9,2.9,1.2
								c0.8-0.6,0.6-1.8,0.2-2.8c-3-8.5-7.3-16.5-12.8-23.7c7.8,9.8,16.1,19.3,24.9,28.3c1.4,1.5,3.5,3,5.3,2.2
								c-0.5-1-1-1.9-1.5-2.8c-3.8-7.1-8.5-13.7-14-19.6c-4.5-4.8-11-12.2-17.6-14C164.5,231.4,170.9,253,175.8,266.1L175.8,266.1z"
								/>
							<path class="st1" d="M157.7,194.7c0.8,5,3.7,31.8,11.7,25.8c7.7-5.7,10.5-23.5,12.1-32.2c1.1-5.9,1.7-11.8,1.5-17.8v0
								c-0.1-0.7-0.3-1.4-0.4-2c-2.3,9.4-5.8,18.6-10.5,27.1c0.6-6.1,1.3-12.3,1.9-18.4c0.3-3.2,0.2-7.3-2.8-8.6
								c-3.5,7.8-3.6,16.7-3.6,25.3c-1-7-2.1-14-3.3-21c-0.4-2.2-1.5-5-3.8-4.9c-1.2,8.1-1,16.4,0.6,24.4c-1.8-7.2-3.5-14.4-7-20.9
								C155.2,179.2,156.4,187,157.7,194.7L157.7,194.7z"/>
							<path class="st1" d="M139.7,248.5c-1.1,2.2-2.1,4.5-3,6.8c1.4-0.5,2.6-1.2,3.9-2c4.8-3,8.5-7.7,13.7-9.8
								c-3.7,7.8-7.8,15.3-12.3,22.7c4.2,0.1,7.1-4.1,9.1-7.8c2.5-4.6,4.9-9.2,7.4-13.7c-2.6,9.7-5.3,19.4-7.9,29.1
								c2.2,0.1,3.6-2.4,4.5-4.5c2.8-7.2,5.2-14.5,7.4-22c-1.2,6.9-2.3,13.9-3.2,20.9c-0.5,3.8-0.9,7.8,0.5,11.3
								c1.2-0.3,2.1-1.3,2.7-2.4c1.5-5.7,2.2-11.6,2.7-17.4c0.7-7.7,2.4-18.3-0.5-25.7c-2.5-6.5-10.2-4.5-14.7-0.6
								C145.3,237.4,142.3,243,139.7,248.5L139.7,248.5z"/>
							<path class="st1" d="M137.2,223.4c-5.4-0.6-10.9-1.2-16.3-1.7c1.5,0.4,2.9,0.7,4.4,1c9.6,1.9,17.4,6.7,27.7,5.2
								c1.8-0.3,3.8-0.8,4.9-2.3c1.1-1.5,1-3.5,0.4-5.2c-0.7-1.7-1.9-3-3.2-4.4c-9.6-10.2-20.1-18.8-33-24c-2-0.4-3.9-0.6-5.9-0.7
								c8.8,9.4,21.5,14.2,30.3,23.5c-6.3-3-12.6-5.7-19-8.2c-3.6-1.4-7.6-2.8-11.4-1.9c9,4.9,18.3,9.6,27.6,13.9
								c-9.5-3.2-19.4-6.3-29.4-5.1C121.8,216.9,129.5,220.1,137.2,223.4L137.2,223.4z"/>
						</g>
					</g>
				</g>
				<path class="st3" d="M185,231.1c-1.6,3.7-5.1,6.3-8.8,7.7c-6.5,2.5-14.4,1.7-19.7-2.9c-1.9-1.7-3.4-3.8-4-6.2
					c-0.6-2.2-0.4-4.6,0-6.9c2-11.3,9.9-15.5,20.4-12C181,213.5,189,221.9,185,231.1L185,231.1z"/>
			</g>
		</g>
	</g>
	<g id="flor3">
		<g>
			<g>
				<g>
					<g>
						<g>
							<path class="st0" d="M28.5,138c6.2-5,12.4-10.2,18.4-15.5c5-4.3,9.9-8.7,14.7-13.1c3.2-2.9,20.6-17.1,13-20.3
								c-7.3-3.1-20.9,2.9-27.7,5.7c-4.6,1.8-9,4.1-13.1,6.9h0c-3,2.1-5.9,4.5-8.3,7.3c-5.8,6.6-9.5,15.5-8.6,24.5
								c0.3,3,1.4,6.3,4.1,7.2C23.6,141.6,26.3,139.7,28.5,138L28.5,138z"/>
							<path class="st0" d="M60.8,57.7c-0.6-0.7-1.2-1.3-1.9-2c-7.4-7.9-15.3-15.6-25.3-19c-2.7-1-5.9-1.6-8.5-0.1
								c-3.7,2-4.6,7.3-4.1,11.6c1.1,11.2,8,21.1,17.1,27.4c1.1,0.8,2.3,1.5,3.5,2.2c8.1,4.5,20.7,8.3,30,6.4
								C82.9,81.8,64.4,61.6,60.8,57.7L60.8,57.7z"/>
							<path class="st0" d="M103.7,63.9c2.2-3,3.9-5.5,4.6-6.6c5.1-7.9,9.7-16.6,10.8-26.1c0.4-3,0.3-6.1-0.8-8.8
								c-1.2-2.8-3.7-5-6.5-5c-2.8,0-5.2,1.9-7.2,3.9c-4.6,4.5-8.6,9.6-12,15.2c-0.5,0.8-0.9,1.6-1.4,2.4c-3.3,6-5.9,12.5-7.7,19.2
								c-1.4,5.5-3.8,13.6-2.2,19.3C84.3,87.8,96.6,73.4,103.7,63.9L103.7,63.9z"/>
							<path class="st0" d="M142.9,81.3c1-1.4,1.9-2.9,2-4.7c0.1-3.2-2.6-5.8-5.4-7.1c-5.6-2.8-12.2-3.1-18.3-1.7
								c-1.4,0.3-2.8,0.7-4.1,1.1c-4.6,1.5-9,3.6-13.3,5.9c-5.6,3-13.8,6.5-17.8,11.9c-3.5,4.8,1.2,9.6,5.9,11.1
								c4.8,1.5,10,1.3,15,0.7c2-0.2,4-0.5,6-0.9C124.5,95.5,136,91,142.9,81.3L142.9,81.3z"/>
							<path class="st0" d="M95.3,158.4c3.9-4,4.5-10.3,4.2-16c-0.3-6.3-1.5-12.1-3.3-18c-0.4-1.2-0.8-2.5-1.2-3.7
								c-2.8-7.9-2.8-15.8-8.2-22.7c-1-1.2-2.2-2.4-3.7-2.5c-1.5-0.1-2.9,0.8-3.8,2.1c-0.9,1.2-1.3,2.8-1.7,4.3
								c-3,11.6-4.5,23.2-2.6,35.1c0.1,0.9,0.3,1.7,0.5,2.6c1.6,8,5.1,16.4,12,20c1.3,0.7,2.9,1.2,4.4,1
								C93.2,160.2,94.4,159.4,95.3,158.4L95.3,158.4z"/>
							<path class="st1" d="M60.8,57.7c-0.6-0.7-1.2-1.3-1.9-2c1,3.4,2,6.7,3.1,10.1c-2.9-2.4-5.2-5.7-7.8-8.6
								c-2.6-2.9-5.6-5.6-9.3-6.4c4.1,6.5,11.5,11.3,12.3,19c-4.7-4.2-9.5-8.5-14.2-12.7c2.9,7.3,7.3,14,13.1,19.1
								c-5-3.5-10.7-5.9-16.6-6.9c5.1,4.1,10.4,8,15.7,11.8c-5.7-1.7-11.3-5.1-17-5.7c1.1,0.8,2.3,1.5,3.5,2.2
								c8.1,4.5,20.7,8.3,30,6.4C82.9,81.8,64.4,61.7,60.8,57.7L60.8,57.7z"/>
							<path class="st1" d="M103.7,63.9c-3.2,2.3-6.2,5-9.1,7.7c3.5-4.4,6.7-9,9.6-13.8c0.5-0.9,1.1-1.8,1.1-2.8c0-1-0.8-2.1-1.8-2
								c-0.6,0.1-1,0.5-1.5,1c-4.1,4.4-7.8,9.2-11,14.3c2.7-4.6,4.9-9.5,6.6-14.5c0.3-1,0.5-2.3-0.4-2.7c-0.8-0.3-1.5,0.4-2,1.1
								c-4.7,6-8.4,12.9-11,20.1c3.6-10.2,6.6-20.6,9.1-31.1c0.4-1.7,0.6-3.9-0.7-4.9c-0.5,0.8-0.9,1.6-1.4,2.4
								c-3.3,6-5.9,12.5-7.7,19.2c-1.4,5.5-3.8,13.6-2.2,19.3C84.3,87.8,96.6,73.4,103.7,63.9L103.7,63.9z"/>
							<path class="st1" d="M61.6,109.4c3.2-2.9,20.6-17.1,13-20.3c-7.3-3.1-20.9,2.9-27.7,5.7c-4.6,1.8-9,4.1-13.1,6.9h0
								c-0.4,0.4-0.9,0.8-1.3,1.2c7.6-2.6,15.5-4.1,23.4-4.5c-4.6,2.3-9.1,4.6-13.6,6.9c-2.4,1.2-5.2,3.2-4.8,6
								c7-1,13.2-4.9,19.3-8.8c-4.5,3.9-8.9,7.9-13.3,11.9c-1.4,1.3-2.9,3.4-1.8,5c6.2-2.8,11.9-6.7,16.8-11.5
								c-4.3,4.5-8.6,9.1-11.6,14.6C51.8,118.2,56.7,113.9,61.6,109.4L61.6,109.4z"/>
							<path class="st1" d="M106.9,98.4c2-0.2,4-0.5,6-0.9c-0.9-0.8-2-1.4-3-2c-4.1-2.1-9-2.7-12.7-5.6c7-0.8,14.1-1.2,21.1-1.2
								c-1.7-3.1-5.9-3.3-9.4-3.1c-4.3,0.3-8.5,0.5-12.8,0.8c7.9-2.5,15.8-4.9,23.7-7.4c-0.9-1.7-3.2-1.6-5-1.3
								c-6.2,1.2-12.4,2.7-18.5,4.5c5.4-2.2,10.7-4.6,15.9-7.1c2.9-1.3,5.8-2.8,7.7-5.5c-0.8-0.8-1.8-1-2.9-0.9
								c-4.6,1.5-9,3.6-13.3,5.9c-5.6,3-13.8,6.5-17.8,11.9c-3.5,4.8,1.2,9.6,5.9,11.1C96.7,99.3,101.9,99,106.9,98.4L106.9,98.4z"
								/>
							<path class="st1" d="M90.4,111.6c1.9,4.3,3.9,8.5,5.8,12.8c-0.4-1.2-0.8-2.5-1.2-3.7c-2.8-7.9-2.8-15.8-8.2-22.7
								c-1-1.2-2.2-2.4-3.7-2.5c-1.5-0.1-2.9,0.8-3.8,2.1c-0.9,1.2-1.3,2.8-1.7,4.3c-3,11.6-4.5,23.2-2.6,35.1
								c0.6,1.6,1.3,3.2,2.1,4.7c2.8-10.7,0.7-22.2,3.5-32.9c0.6,5.9,1.4,11.8,2.4,17.7c0.6,3.3,1.3,6.9,3.6,9.3
								c-0.4-8.9-1.1-17.8-2.2-26.6c1.9,8.4,3.9,17.1,9,23.9C92.4,125.8,91.4,118.7,90.4,111.6L90.4,111.6z"/>
						</g>
						<g>
							<path class="st1" d="M59,55.7c0.6,0.7,1.2,1.4,1.9,2c3.6,3.9,22.1,24.1,10.8,26.4c-9.3,1.9-21.9-2-30-6.4
								c-1.2-0.7-2.4-1.4-3.5-2.2c-9-6.2-15.9-16.1-17.1-27.4c-0.4-4.4,0.4-9.6,4.1-11.6c2.6-1.4,5.7-0.8,8.5,0.1
								C43.6,40.2,51.6,47.8,59,55.7L59,55.7z"/>
							<path class="st1" d="M87.5,159.4c-6.9-3.6-10.4-12-12-20c-0.2-0.8-0.3-1.7-0.5-2.6c-1.9-11.8-0.4-23.4,2.6-35.1
								c0.4-1.5,0.8-3,1.7-4.3c0.9-1.3,2.3-2.2,3.8-2.1c1.5,0.1,2.7,1.3,3.7,2.5c5.4,6.9,5.5,14.8,8.2,22.7c0.4,1.2,0.8,2.5,1.2,3.7
								c1.8,5.8,3,11.6,3.3,18c0.3,5.7-0.3,12.1-4.2,16c-1,1-2.1,1.8-3.5,2C90.4,160.6,88.9,160.1,87.5,159.4L87.5,159.4z"/>
							<path class="st1" d="M81.3,77.1c-1.6-5.7,0.8-13.7,2.2-19.3c1.8-6.7,4.4-13.2,7.7-19.2c0.4-0.8,0.9-1.6,1.4-2.4
								c3.4-5.6,7.4-10.7,12-15.2c2-2,4.5-4,7.2-3.9c2.9,0,5.4,2.3,6.5,5c1.2,2.8,1.2,5.9,0.8,8.8c-1.1,9.5-5.7,18.2-10.8,26.1
								c-0.7,1.1-2.4,3.6-4.6,6.6C96.6,73.4,84.3,87.8,81.3,77.1L81.3,77.1z"/>
							<path class="st1" d="M61.6,109.4c-4.9,4.4-9.8,8.8-14.7,13.1c-6.1,5.3-12.2,10.4-18.4,15.5c-2.2,1.8-4.8,3.6-7.5,2.8
								c-2.7-0.9-3.9-4.2-4.1-7.2c-0.9-8.9,2.8-17.9,8.6-24.5c2.5-2.8,5.3-5.2,8.3-7.3h0c4.1-2.8,8.5-5.1,13.1-6.9
								c6.8-2.7,20.4-8.8,27.7-5.7C82.2,92.4,64.8,106.6,61.6,109.4L61.6,109.4z"/>
							<path class="st1" d="M86,86.6c3.9-5.4,12.1-9,17.8-11.9c4.3-2.3,8.7-4.4,13.3-5.9c1.4-0.4,2.7-0.8,4.1-1.1
								c6.1-1.3,12.7-1.1,18.3,1.7c2.8,1.4,5.5,3.9,5.4,7.1c-0.1,1.7-1,3.3-2,4.7c-6.9,9.8-18.4,14.2-30,16.3c-2,0.4-4,0.6-6,0.9
								c-5,0.6-10.1,0.9-15-0.7C87.3,96.2,82.6,91.4,86,86.6L86,86.6z"/>
						</g>
						<g>
							<path class="st0" d="M8.3,97.5c7.9,0.1,15.7,0.1,23.6,0c6.4-0.1,12.9-0.3,19.3-0.5c4.2-0.2,26.2,0.2,22.2-7.3
								c-3.9-7.2-18.1-11.4-25-13.7c-4.7-1.6-9.5-2.7-14.3-3.2h0c-3.6-0.4-7.2-0.3-10.9,0.3c-8.4,1.3-16.6,5.9-21.2,13.5
								c-1.5,2.5-2.6,5.9-1,8.4C2.4,97.2,5.6,97.5,8.3,97.5L8.3,97.5z"/>
							<path class="st0" d="M81.1,56c-0.1-0.9-0.2-1.9-0.3-2.8c-1.1-11-2.8-22.2-8.5-31.5c-1.6-2.6-3.7-5.1-6.6-5.7
								c-4.1-0.8-7.9,2.7-10.1,6.4c-5.8,9.5-6.3,21.8-2.9,32.6c0.4,1.4,0.9,2.7,1.5,4c3.7,8.8,11.3,20.1,19.6,24.7
								C84.1,89.3,81.6,61.4,81.1,56L81.1,56z"/>
							<path class="st0" d="M111,88.9c3.5-0.9,6.3-1.7,7.6-2.1c8.7-2.8,17.4-6.6,23.9-13.4c2-2.1,3.9-4.5,4.6-7.5
								c0.7-2.9,0.1-6.3-2.1-8.2c-2.1-1.9-5.2-1.9-8-1.7c-6.3,0.5-12.4,1.9-18.4,4c-0.8,0.3-1.6,0.6-2.5,0.9
								c-6.2,2.5-12,5.9-17.4,10c-4.4,3.4-11,8.1-13.1,13.6C81.6,94.9,99.8,91.7,111,88.9L111,88.9z"/>
							<path class="st0" d="M131.4,128.3c1.6-0.4,3.2-1.1,4.3-2.4c2-2.4,1.4-6.2,0-9.1c-2.7-5.9-7.7-10.4-13.3-13.4
								c-1.3-0.7-2.6-1.3-3.9-1.8c-4.5-1.9-9.2-3.1-13.9-4.1c-6.2-1.4-14.6-4-20.9-2.3c-5.6,1.5-4.7,8.3-2,12.5
								c2.9,4.4,7.1,7.5,11.3,10.3c1.7,1.1,3.4,2.3,5.2,3.3C108.6,127.3,120.2,131.3,131.4,128.3L131.4,128.3z"/>
							<path class="st0" d="M48.5,157.3c5.4-0.5,9.6-5.1,12.8-9.8c3.5-5.2,6-10.5,8.1-16.2c0.4-1.2,0.8-2.4,1.2-3.7
								c2.5-8,7.2-14.2,7-23.1c0-1.6-0.3-3.3-1.4-4.4c-1.1-1.1-2.7-1.3-4.2-0.9c-1.4,0.4-2.7,1.3-3.9,2.2
								c-9.2,7.1-17.3,15.2-22.8,25.7c-0.4,0.8-0.8,1.5-1.2,2.3c-3.5,7.3-5.8,16.1-2.4,23.5c0.6,1.4,1.5,2.8,2.8,3.6
								C45.7,157.3,47.1,157.5,48.5,157.3L48.5,157.3z"/>
							<path class="st1" d="M81.1,56c-0.1-0.9-0.2-1.9-0.3-2.8c-1.2,3.3-2.4,6.6-3.6,9.9c-0.9-3.9-0.7-7.9-1-11.8
								c-0.3-4-1.1-8.1-3.5-11.1c-0.6,7.8,2.3,16.3-1.7,22.9c-1.2-6.4-2.4-12.8-3.6-19.3c-2.1,7.6-2.6,15.8-1.1,23.5
								c-1.8-6-4.9-11.6-8.9-16.3c1.6,6.6,3.4,13.1,5.3,19.5c-3.5-5.1-5.8-11.4-9.9-15.6c0.4,1.4,0.9,2.7,1.5,4
								c3.7,8.8,11.3,20.1,19.6,24.7C84.1,89.3,81.6,61.4,81.1,56L81.1,56z"/>
							<path class="st1" d="M111,88.9c-3.9-0.3-7.8-0.1-11.7,0.1c5.3-1.1,10.5-2.6,15.6-4.5c0.9-0.3,1.9-0.7,2.5-1.5
								c0.6-0.8,0.6-2.2-0.2-2.7c-0.5-0.3-1.1-0.3-1.7-0.2c-5.8,0.8-11.5,2.1-17.1,4c4.8-1.8,9.4-4.2,13.8-7
								c0.8-0.5,1.7-1.5,1.3-2.4c-0.4-0.8-1.4-0.7-2.2-0.5c-7.2,1.7-14.2,4.5-20.6,8.5c8.8-5.6,17.3-11.8,25.5-18.4
								c1.3-1.1,2.8-2.7,2.3-4.3c-0.8,0.3-1.6,0.6-2.5,0.9c-6.2,2.5-12,5.9-17.4,10c-4.4,3.4-11,8.1-13.1,13.6
								C81.6,94.9,99.8,91.7,111,88.9L111,88.9z"/>
							<path class="st1" d="M51.1,96.9c4.2-0.2,26.2,0.2,22.2-7.3c-3.9-7.2-18.1-11.4-25-13.7c-4.7-1.6-9.5-2.7-14.3-3.2h0
								c-0.6,0-1.1,0.1-1.7,0.1c7.5,3,14.6,7,21,11.9c-4.9-1.2-9.9-2.4-14.8-3.5c-2.6-0.6-6-0.9-7.3,1.5c6,3.9,13.2,4.9,20.2,5.8
								C45.6,88.5,39.8,88.7,34,89c-1.8,0.1-4.3,0.8-4.3,2.7c6.5,1.9,13.2,2.6,19.9,2c-6,0.8-12.1,1.5-17.7,3.8
								C38.3,97.4,44.7,97.2,51.1,96.9L51.1,96.9z"/>
							<path class="st1" d="M93,118c1.7,1.1,3.4,2.3,5.2,3.3c-0.3-1.2-0.7-2.4-1.2-3.5c-2-4.4-5.4-8-6.6-12.7
								c5.9,4,11.7,8.3,17.2,12.9c0.5-3.6-2.7-6.5-5.5-8.6c-3.5-2.6-7-5.2-10.4-7.8c7.6,3.3,15.3,6.5,22.9,9.8
								c0.3-1.9-1.6-3.4-3.2-4.3c-5.6-3.1-11.3-6-17.1-8.6c5.5,1.8,11.1,3.4,16.7,4.9c3,0.8,6.2,1.6,9.3,0.8
								c-0.1-1.1-0.8-1.9-1.7-2.6c-4.5-1.9-9.2-3.1-13.9-4.1c-6.2-1.4-14.6-4-20.9-2.3c-5.6,1.5-4.7,8.3-2,12.5
								C84.6,112,88.8,115.2,93,118L93,118z"/>
							<path class="st1" d="M72.4,117.5c-1,4.6-2,9.2-3.1,13.8c0.4-1.2,0.8-2.4,1.2-3.7c2.5-8,7.2-14.2,7-23.1
								c0-1.6-0.3-3.3-1.4-4.4c-1.1-1.1-2.7-1.3-4.2-0.9c-1.4,0.4-2.7,1.3-3.9,2.2c-9.2,7.1-17.3,15.2-22.8,25.7
								c-0.5,1.6-0.9,3.3-1.1,5c8.5-6.5,13.7-17,22.2-23.4c-3,5-5.9,10.2-8.6,15.4c-1.5,3-3.1,6.2-2.7,9.6c4.9-7.2,9.6-14.6,14-22.2
								c-3.5,7.8-7.1,16-7.1,24.6C65.5,130,68.9,123.7,72.4,117.5L72.4,117.5z"/>
						</g>
					</g>
					<path class="st2" d="M48.5,157.3c5.4-0.5,9.6-5.1,12.8-9.8c3.5-5.2,6-10.5,8.1-16.2c0.4-1.2,0.8-2.4,1.2-3.7
						c1.1-3.7,2.8-7,4.1-10.3c-0.4,3.5-0.6,7.1-0.5,10.7c0.1,2.9,0.4,5.9,0.8,8.8c0.1,0.9,0.3,1.7,0.5,2.6c0.4,2,0.9,4,1.6,6
						c0.3,1,0.7,2,1.1,2.9c1.6,3.8,3.8,7.2,6.9,9.5c0.8,0.6,1.6,1.1,2.4,1.6c1,0.5,2.1,1,3.2,1c0.4,0,0.8,0,1.1-0.1
						c1.3-0.2,2.5-1,3.5-2c1.2-1.2,2.1-2.7,2.8-4.3c0.5-1.3,0.9-2.7,1.1-4.1c0.1-0.4,0.1-0.7,0.1-1.1c0.1-0.7,0.1-1.5,0.2-2.2
						c0.1-1.5,0.1-2.9,0-4.4c-0.3-6.3-1.5-12.1-3.3-18c-0.4-1.2-0.8-2.5-1.2-3.7c-0.2-0.6-0.4-1.2-0.6-1.7c1.3,0.8,2.5,1.6,3.8,2.4
						c10.3,6,21.9,10,33.1,7c1.6-0.4,3.2-1.1,4.3-2.4c2-2.4,1.4-6.2,0-9.1c-2.7-5.9-7.7-10.4-13.3-13.4c-1.3-0.7-2.6-1.3-3.9-1.8
						c-3.4-1.4-7-2.5-10.5-3.4c0.6-0.1,1.3-0.1,1.9-0.2c1-0.1,2-0.3,3-0.5c1.5-0.3,2.9-0.5,4.3-0.9c1.4-0.3,2.9-0.7,4.3-1.1
						s2.8-0.9,4.2-1.4c3.4-1.3,6.6-3,9.5-5.1c1.2-0.8,2.3-1.8,3.4-2.7s2.1-2,3-3.2c0.5-0.6,0.9-1.2,1.4-1.8c0.7-1,1.4-2.2,1.8-3.4
						c0.1-0.4,0.2-0.8,0.2-1.3c0-0.4,0-0.8-0.1-1.2c-0.1-0.4-0.2-0.8-0.3-1.1c-0.3-0.7-0.7-1.3-1.1-1.9c1.7-1.9,3.1-4,3.7-6.5
						c0.7-2.9,0.1-6.3-2.1-8.2c-2.1-1.9-5.2-1.9-8-1.7c-6.3,0.5-12.4,1.9-18.4,4c-0.8,0.3-1.6,0.6-2.5,0.9c-6.2,2.5-12,5.9-17.4,10
						c-0.6,0.5-1.4,1-2.1,1.6c2.5-2.8,5-5.9,7-8.7c0.6-0.8,1.1-1.5,1.6-2.1c1.5-2,2.5-3.6,3.1-4.5c0.6-1,1.3-2,1.9-3
						c0.4-0.6,0.7-1.2,1-1.8c0.9-1.5,1.7-3,2.5-4.5c1.1-2.1,2-4.3,2.9-6.5c0.6-1.7,1.1-3.4,1.6-5.1s0.8-3.5,1-5.3
						c0.3-2.2,0.3-4.5-0.2-6.7c-0.2-0.7-0.4-1.4-0.7-2.1c-1.2-2.8-3.7-5-6.5-5c-0.7,0-1.4,0.1-2,0.3c-0.6,0.2-1.3,0.5-1.9,0.9
						c-0.3,0.2-0.6,0.4-0.9,0.6c-0.6,0.4-1.1,0.9-1.7,1.4c-0.3,0.2-0.5,0.5-0.8,0.7c-1.1,1.1-2.3,2.3-3.3,3.5c-2.1,2.4-4.2,5-6,7.6
						c-0.9,1.3-1.8,2.7-2.6,4.1c-0.5,0.8-0.9,1.6-1.4,2.4c-1.3,2.3-2.4,4.6-3.4,6.9c-0.4,0.8-0.7,1.6-1,2.4
						c-0.6,1.6-1.2,3.2-1.8,4.9c-0.5,1.6-1,3.3-1.5,5c-0.1,0.4-0.2,0.7-0.3,1.1c-0.5,1.9-1,3.9-1.5,6c-0.1-4-0.4-7.4-0.6-9
						c-0.1-0.9-0.2-1.9-0.3-2.8c-1.1-11-2.8-22.2-8.5-31.5c-1.6-2.6-3.7-5.1-6.6-5.7c-4.1-0.8-7.9,2.7-10.1,6.4
						c-4.5,7.5-5.8,16.7-4.5,25.5c-3.8-3.5-7.7-6.5-12.1-8.9c-1.7-0.9-3.5-1.7-5.4-2.4c-2.1-0.7-4.4-1.2-6.5-0.9
						c-0.7,0.1-1.4,0.4-2,0.7c-1.2,0.6-2,1.6-2.7,2.7c-0.3,0.5-0.5,0.9-0.7,1.4c-0.2,0.5-0.4,1-0.5,1.6c-0.1,0.5-0.2,1-0.3,1.5
						c-0.2,1.5-0.2,3-0.1,4.4c0.3,2.8,0.9,5.5,1.9,8.1c0.2,0.6,0.5,1.3,0.8,1.9c0.6,1.3,1.2,2.5,1.9,3.7c1,1.8,2.2,3.5,3.5,5.1
						c0.9,1.1,1.8,2.1,2.8,3.1c0.9,0.9,1.8,1.8,2.7,2.6c-0.2,0-0.4-0.1-0.6-0.1h0c-3.6-0.4-7.2-0.3-10.9,0.3
						c-8.4,1.3-16.6,5.9-21.2,13.5c-1.5,2.5-2.6,5.9-1,8.4c1.5,2.4,4.7,2.7,7.5,2.7c7.9,0.1,15.7,0.1,23.6,0c3.2,0,6.4-0.1,9.6-0.2
						c-0.4,0.2-0.9,0.4-1.3,0.6c-2.2,1.1-4.3,2.4-6.4,3.8h0c-0.8,0.5-1.5,1.1-2.2,1.6c-1.5,1.1-2.9,2.3-4.2,3.6
						c-0.7,0.7-1.3,1.3-1.9,2c-1.4,1.6-2.8,3.4-3.9,5.3c-2,3.3-3.5,7-4.3,10.8c-0.6,2.7-0.7,5.5-0.4,8.3c0.3,3,1.4,6.3,4.1,7.2
						c1,0.3,2,0.3,2.9,0c1.6-0.5,3.2-1.6,4.5-2.7c6.2-5,12.4-10.2,18.4-15.5c1-0.9,2-1.8,3-2.7c-1.6,2.3-3.2,4.8-4.5,7.4
						c-0.4,0.8-0.8,1.5-1.2,2.3c-3.5,7.3-5.8,16.1-2.4,23.5c0.6,1.4,1.5,2.8,2.8,3.6C45.7,157.3,47.1,157.4,48.5,157.3L48.5,157.3z
						 M77.4,102.7c-0.2-1-0.5-1.9-1.2-2.6c-1-1-2.5-1.2-3.8-0.9c0.2-0.2,0.3-0.4,0.5-0.5c0.7-0.8,1.3-1.6,1.8-2.4
						c0.5-0.8,1-1.5,1.3-2.3c0.1-0.2,0.2-0.5,0.3-0.7c0.1-0.5,0.3-0.9,0.3-1.3c0.1-0.8-0.2-1.5-0.8-2.1c-0.3-0.3-0.7-0.5-1.1-0.7
						c-0.6-0.3-1.3-0.4-2-0.6c-1-1.5-2.5-2.8-4.2-4c1.1-0.1,2.2-0.2,3.2-0.4c0.8-0.1,1.4-0.4,1.9-0.7c0.1,0.1,0.3,0.2,0.5,0.3
						c4.4,2.4,6.4-1.4,7.3-6.9c0,0.1,0,0.2,0.1,0.3c0.6,2,1.4,3.1,2.6,3.6c0.4,0.1,0.8,0.2,1.2,0.2c0.4,0,0.9-0.1,1.3-0.2
						c0.7-0.2,1.5-0.6,2.4-1.1c-1.3,1.6-2.4,3.2-3.1,4.9c-0.6,1.5-0.7,2.7-0.4,3.6c-0.9,2.4,0,4.7,1.8,6.4c-1.1,0.1-2.2,0.2-3.2,0.5
						c-0.3,0.1-0.6,0.2-0.8,0.3c-0.7,0-1.3,0.2-1.9,0.5c-0.6,0.4-1.2,0.9-1.7,1.6c-0.9,1.2-1.3,2.8-1.7,4.3
						C77.5,102.2,77.5,102.5,77.4,102.7L77.4,102.7z"/>
					<g>
						<g>
							<path class="st0" d="M15,119.1c7.5-2.5,14.9-5.2,22.3-8c6.1-2.3,12.1-4.6,18.1-7.1c3.9-1.6,24.9-8.8,18.7-14.5
								C68.1,84,53.4,84.9,46.1,85c-4.9,0.1-9.8,0.6-14.5,1.9h0c-3.5,0.9-7,2.2-10.2,4c-7.6,4.1-13.9,11.3-15.9,20
								c-0.7,2.9-0.6,6.5,1.6,8.3C9.2,120.8,12.4,120,15,119.1L15,119.1z"/>
							<path class="st0" d="M71.1,55.1c-0.4-0.8-0.7-1.7-1.1-2.5c-4.4-10-9.5-20.1-17.7-26.9c-2.3-1.9-5.1-3.6-7.9-3.1
								c-4.1,0.6-6.6,5.2-7.6,9.5c-2.5,11,0.8,22.8,7.3,31.8c0.8,1.1,1.7,2.3,2.6,3.3c6.2,7.1,16.9,15.2,26.2,16.7
								C84.2,85.6,73.3,60,71.1,55.1L71.1,55.1z"/>
							<path class="st0" d="M109.5,76c3.1-2,5.5-3.8,6.5-4.6c7.4-5.6,14.5-12.2,18.5-20.8c1.3-2.7,2.3-5.6,2-8.6c-0.2-3-1.9-6-4.5-7
								c-2.6-1-5.5,0-8.1,1.1c-5.8,2.6-11.2,6-16.2,10.1c-0.7,0.6-1.4,1.1-2,1.7c-5.1,4.5-9.6,9.6-13.4,15.3
								c-3.1,4.7-7.9,11.4-8.2,17.4C83.6,91.7,99.8,82.5,109.5,76L109.5,76z"/>
							<path class="st0" d="M140.9,106.3c1.4-1,2.7-2.1,3.4-3.7c1.2-3-0.6-6.3-2.8-8.6c-4.4-4.7-10.5-7.2-16.7-8.1
								c-1.4-0.2-2.8-0.4-4.2-0.4c-4.8-0.3-9.6,0.2-14.4,0.8c-6.3,0.8-15.1,1.2-20.5,4.9c-4.8,3.3-1.9,9.4,2,12.5
								c4,3.2,9,4.7,13.9,5.9c2,0.5,4,1,6,1.3C119,113.2,131.3,113,140.9,106.3L140.9,106.3z"/>
							<path class="st0" d="M71.4,162c5-2.3,7.5-8.1,9.1-13.6c1.7-6.1,2.5-12,2.6-18.1c0-1.3,0.1-2.6,0-3.9
								c-0.1-8.4,2.4-15.9-0.5-24.3c-0.5-1.5-1.3-3-2.6-3.7c-1.3-0.7-3-0.3-4.2,0.6c-1.2,0.9-2.1,2.2-3,3.4
								c-6.5,9.9-11.7,20.3-13.6,32.1c-0.2,0.8-0.3,1.7-0.4,2.6c-1,8.1-0.5,17.2,4.9,23.1c1,1.1,2.3,2.2,3.8,2.5
								C68.8,163,70.2,162.6,71.4,162L71.4,162z"/>
							<path class="st1" d="M71.1,55.1c-0.4-0.8-0.7-1.7-1.1-2.5c-0.1,3.5-0.2,7-0.4,10.6c-2-3.4-3.1-7.2-4.6-10.8
								c-1.5-3.6-3.5-7.3-6.8-9.3c1.8,7.5,7.2,14.7,5.4,22.3c-3.1-5.7-6.2-11.3-9.3-17c0.4,7.9,2.4,15.8,6.2,22.6
								c-3.6-5.1-8.2-9.3-13.4-12.4c3.5,5.7,7.2,11.2,11.1,16.6c-4.8-3.6-9-8.8-14.2-11.4c0.8,1.1,1.7,2.3,2.6,3.3
								c6.2,7.1,16.9,15.2,26.2,16.7C84.2,85.6,73.3,60,71.1,55.1L71.1,55.1z"/>
							<path class="st1" d="M109.5,76c-3.7,1.1-7.4,2.6-11,4.1c4.7-2.9,9.1-6.1,13.4-9.5c0.8-0.6,1.6-1.3,1.9-2.3
								c0.3-1-0.1-2.3-1-2.5c-0.6-0.1-1.2,0.1-1.7,0.4c-5.2,2.7-10.3,5.9-14.9,9.6c4-3.4,7.6-7.2,10.9-11.3c0.6-0.8,1.2-2,0.5-2.7
								c-0.6-0.6-1.5-0.2-2.3,0.3c-6.3,4-12,9.1-16.8,15c6.6-8.3,12.8-17,18.5-26c0.9-1.5,1.8-3.5,0.9-4.9c-0.7,0.6-1.4,1.1-2,1.7
								c-5.1,4.5-9.6,9.6-13.4,15.3c-3.1,4.7-7.9,11.4-8.2,17.4C83.5,91.7,99.8,82.5,109.5,76L109.5,76z"/>
							<path class="st1" d="M55.3,104c3.9-1.6,24.9-8.8,18.7-14.5C68.1,84,53.4,84.9,46.1,85c-4.9,0.1-9.8,0.6-14.5,1.9h0
								c-0.5,0.2-1.1,0.5-1.6,0.7c8,0.3,15.9,1.6,23.5,4.1c-5,0.5-10.1,1.1-15.1,1.7c-2.7,0.3-5.9,1.1-6.4,3.9
								c6.9,1.6,14,0.1,20.9-1.4c-5.5,2.1-10.9,4.2-16.3,6.5c-1.7,0.7-3.8,2.2-3.3,4c6.7-0.4,13.3-2,19.4-4.9
								c-5.5,2.8-11,5.5-15.6,9.6C43.3,108.8,49.3,106.5,55.3,104L55.3,104z"/>
							<path class="st1" d="M101.5,109.7c2,0.5,4,1,6,1.3c-0.6-1-1.4-2-2.2-2.9c-3.2-3.5-7.6-5.8-10.2-9.8
								c6.9,1.8,13.6,3.9,20.3,6.4c-0.6-3.6-4.5-5.2-7.8-6.3c-4.1-1.3-8.2-2.5-12.3-3.8c8.2,0.5,16.4,1,24.7,1.5
								c-0.3-1.9-2.5-2.6-4.3-3c-6.2-1.1-12.5-1.8-18.9-2.3c5.8-0.2,11.5-0.5,17.3-1c3.1-0.3,6.4-0.6,9-2.4c-0.5-1-1.4-1.5-2.4-1.9
								c-4.8-0.3-9.6,0.2-14.4,0.8c-6.3,0.8-15.1,1.2-20.5,4.9c-4.8,3.3-1.9,9.4,2,12.5C91.6,106.9,96.6,108.4,101.5,109.7
								L101.5,109.7z"/>
							<path class="st1" d="M81.8,116.2c0.4,4.7,0.9,9.4,1.4,14.1c0-1.3,0.1-2.6,0-3.9c-0.1-8.4,2.4-15.9-0.5-24.3
								c-0.5-1.5-1.3-3-2.6-3.7c-1.3-0.7-3-0.3-4.2,0.6c-1.2,0.9-2.1,2.2-3,3.4c-6.5,9.9-11.7,20.3-13.6,32.1c0,1.7,0.2,3.4,0.5,5.1
								c6-9,7.7-20.7,13.8-29.7c-1.3,5.8-2.5,11.7-3.4,17.5c-0.5,3.3-1,6.9,0.4,10c2.4-8.5,4.6-17.1,6.5-25.8
								c-0.9,8.6-1.8,17.5,0.8,25.7C79.1,130.4,80.4,123.3,81.8,116.2L81.8,116.2z"/>
						</g>
						<g>
							<path class="st1" d="M70,52.5c0.4,0.9,0.7,1.7,1.1,2.5c2.1,4.9,13.1,30.5,1.7,28.7c-9.3-1.5-19.9-9.6-26.2-16.7
								c-0.9-1-1.8-2.1-2.6-3.3c-6.5-9-9.8-20.8-7.3-31.8c1-4.3,3.5-8.9,7.6-9.5c2.9-0.4,5.7,1.3,7.9,3.1
								C60.6,32.4,65.6,42.5,70,52.5L70,52.5z"/>
							<path class="st1" d="M63.7,160.3c-5.4-5.9-5.9-15-4.9-23.1c0.1-0.9,0.2-1.7,0.4-2.6c2-11.8,7.1-22.2,13.6-32.1
								c0.9-1.3,1.8-2.6,3-3.4c1.2-0.9,2.9-1.3,4.2-0.6c1.4,0.7,2.1,2.2,2.6,3.7c2.9,8.4,0.4,15.8,0.5,24.3c0,1.3,0,2.6,0,3.9
								c-0.2,6.1-0.9,12-2.6,18.1c-1.6,5.5-4.1,11.3-9.1,13.6c-1.2,0.6-2.6,0.9-3.9,0.7C66,162.4,64.8,161.4,63.7,160.3L63.7,160.3z
								"/>
							<path class="st1" d="M84.2,80.6c0.3-5.9,5.1-12.7,8.2-17.4c3.8-5.7,8.3-10.9,13.4-15.3c0.7-0.6,1.4-1.2,2-1.7
								c5-4.1,10.4-7.5,16.2-10.1c2.6-1.1,5.5-2.1,8.1-1.1c2.7,1,4.3,4.1,4.5,7c0.2,3-0.8,5.9-2,8.6c-4.1,8.6-11.2,15.1-18.5,20.8
								c-1,0.8-3.5,2.6-6.5,4.6C99.8,82.5,83.6,91.7,84.2,80.6L84.2,80.6z"/>
							<path class="st1" d="M55.3,104c-6,2.4-12,4.8-18.1,7.1c-7.4,2.8-14.8,5.5-22.3,8c-2.6,0.9-5.7,1.7-7.9,0
								c-2.3-1.8-2.3-5.4-1.6-8.3c2-8.7,8.4-15.8,15.9-20c3.2-1.8,6.7-3,10.2-3.9h0c4.7-1.2,9.6-1.7,14.5-1.9c7.3-0.2,22-1,27.9,4.5
								C80.2,95.2,59.2,102.5,55.3,104L55.3,104z"/>
							<path class="st1" d="M85.6,91.2c5.4-3.7,14.3-4.2,20.5-4.9c4.8-0.6,9.6-1.1,14.4-0.8c1.4,0.1,2.8,0.2,4.2,0.4
								c6.2,0.9,12.3,3.5,16.7,8.1c2.1,2.3,3.9,5.6,2.8,8.6c-0.6,1.6-2,2.7-3.4,3.7c-9.6,6.7-21.9,6.9-33.5,4.7c-2-0.4-4-0.8-6-1.3
								c-4.9-1.2-9.8-2.8-13.9-6C83.7,100.7,80.8,94.5,85.6,91.2L85.6,91.2z"/>
						</g>
						<g>
							<path class="st0" d="M8.9,73.9c7.4,2.9,14.7,5.7,22.2,8.3c6.1,2.2,12.2,4.3,18.3,6.3c4,1.3,24.6,9.5,23.2,1
								c-1.4-8.2-13.4-17.2-19.2-21.8c-3.9-3.1-8-5.9-12.4-8.1h0c-3.3-1.6-6.7-2.9-10.3-3.6c-8.4-1.7-17.6-0.3-24.3,5.2
								c-2.2,1.8-4.3,4.6-3.6,7.5C3.5,71.5,6.4,72.9,8.9,73.9L8.9,73.9z"/>
							<path class="st0" d="M90.8,60.6c0.2-0.9,0.4-1.8,0.6-2.7c2.5-10.8,4.5-21.9,2.1-32.7c-0.7-3-1.9-6.1-4.4-7.7
								c-3.6-2.3-8.3-0.3-11.6,2.4c-8.5,6.9-12.9,18.3-13.1,29.6c0,1.4,0,2.9,0.1,4.3c0.7,9.6,4.2,22.9,10.6,30.2
								C82.9,93.1,89.5,65.9,90.8,60.6L90.8,60.6z"/>
							<path class="st0" d="M108.4,102.2c3.6,0.4,6.5,0.6,7.8,0.7c9.1,0.4,18.5-0.1,26.8-4.1c2.6-1.3,5.1-2.9,6.7-5.4
								c1.6-2.5,2.1-5.9,0.6-8.5c-1.4-2.5-4.3-3.6-7-4.4c-6-1.8-12.3-2.7-18.6-2.7c-0.9,0-1.8,0-2.6,0c-6.6,0.2-13.2,1.3-19.5,3.2
								c-5.2,1.6-13,3.8-16.7,8.2C78.8,97.4,96.9,100.9,108.4,102.2L108.4,102.2z"/>
							<path class="st0" d="M115,146.5c1.6,0.2,3.4,0.1,4.8-0.7c2.7-1.6,3.3-5.4,3-8.6c-0.7-6.5-4-12.5-8.2-17.3
								c-1-1.1-2-2.1-3.1-3.1c-3.6-3.3-7.7-6.2-11.8-8.8c-5.4-3.5-12.5-8.9-19-9.6c-5.7-0.6-7.1,6.1-5.9,11.1
								c1.3,5.1,4.2,9.6,7.3,13.8c1.2,1.7,2.5,3.3,3.9,5C93.8,137.5,103.5,145.4,115,146.5L115,146.5z"/>
							<path class="st0" d="M27.6,144.5c5.3,1.4,10.7-1.4,15.2-4.7c5-3.6,9-7.7,12.8-12.4c0.8-1,1.6-2,2.3-3
								c4.9-6.7,11.3-10.8,14-19.3c0.5-1.5,0.8-3.2,0.1-4.6c-0.7-1.4-2.2-2.2-3.6-2.3c-1.5-0.1-2.9,0.3-4.4,0.7
								c-11,3.5-21.1,8.2-29.7,16.1c-0.6,0.6-1.2,1.2-1.8,1.8c-5.6,5.7-10.6,13.2-9.8,21.3c0.1,1.6,0.5,3.2,1.5,4.4
								C25.1,143.5,26.3,144.1,27.6,144.5L27.6,144.5z"/>
							<path class="st1" d="M90.8,60.6c0.2-0.9,0.4-1.8,0.6-2.7c-2.2,2.7-4.4,5.4-6.5,8c0.4-3.9,1.8-7.7,2.8-11.5
								c1-3.8,1.5-8,0.2-11.7c-3.1,7.1-3.1,16.2-8.9,21c0.9-6.5,1.8-12.9,2.8-19.4c-4.4,6.4-7.5,13.9-8.6,21.8
								c0.2-6.3-0.9-12.6-3.2-18.5c-0.6,6.7-1,13.5-1.2,20.3c-1.6-6-1.8-12.8-4.4-18.2c0,1.4,0,2.9,0.1,4.3
								c0.7,9.6,4.2,22.9,10.6,30.2C83,93.1,89.5,65.9,90.8,60.6L90.8,60.6z"/>
							<path class="st1" d="M108.4,102.2c-3.6-1.6-7.3-2.9-11-4c5.3,0.8,10.8,1.2,16.1,1.3c1,0,2,0,2.8-0.5c0.8-0.5,1.3-1.8,0.7-2.6
								c-0.4-0.5-1-0.7-1.6-0.8c-5.7-1.3-11.5-2.1-17.4-2.3c5.1,0,10.2-0.6,15.2-1.7c0.9-0.2,2.1-0.8,2-1.8
								c-0.1-0.9-1.1-1.1-1.9-1.3c-7.3-1-14.8-0.7-22.1,0.7c10.1-2.2,20.1-4.9,29.9-8.2c1.6-0.5,3.5-1.5,3.6-3.2c-0.9,0-1.8,0-2.6,0
								c-6.6,0.2-13.2,1.3-19.5,3.2c-5.2,1.6-13,3.8-16.7,8.2C78.8,97.4,96.9,100.9,108.4,102.2L108.4,102.2z"/>
							<path class="st1" d="M49.4,88.5c4,1.3,24.6,9.5,23.2,1c-1.4-8.2-13.4-17.2-19.2-21.8c-3.9-3.1-8-5.9-12.4-8.1h0
								c-0.5-0.2-1.1-0.3-1.6-0.5c6.1,5.4,11.5,11.7,16,18.6c-4.3-2.9-8.5-5.7-12.8-8.6c-2.3-1.5-5.3-3-7.4-1.2
								c4.4,5.8,10.9,9.3,17.2,12.6c-5.5-2-11-3.8-16.6-5.6c-1.8-0.6-4.2-0.8-4.9,1c5.5,4.1,11.6,7.1,18.1,9
								c-5.9-1.4-11.9-2.9-17.9-2.7C37.2,84.4,43.3,86.5,49.4,88.5L49.4,88.5z"/>
							<path class="st1" d="M82.2,123.2c1.2,1.7,2.5,3.3,3.9,5c0.1-1.2,0.1-2.5,0-3.8c-0.4-4.8-2.5-9.5-2.1-14.3
								c4.3,5.9,8.4,12,12.1,18.3c1.6-3.2-0.4-7-2.4-10c-2.4-3.7-4.9-7.3-7.3-11c6.1,5.8,12.3,11.6,18.4,17.3
								c0.9-1.7-0.4-3.7-1.6-5.2c-4.3-4.9-8.7-9.7-13.4-14.2c4.6,3.6,9.3,7.2,14.1,10.6c2.6,1.8,5.4,3.7,8.5,4
								c0.2-1.1-0.2-2.1-0.8-3c-3.6-3.3-7.7-6.2-11.8-8.8c-5.4-3.5-12.5-8.9-19-9.6c-5.7-0.6-7.1,6.1-5.9,11.1
								C76.1,114.6,79.1,119.1,82.2,123.2L82.2,123.2z"/>
							<path class="st1" d="M62.9,115.4c-2.4,4-4.9,8-7.3,11.9c0.8-1,1.6-2,2.3-3c4.9-6.7,11.3-10.8,14-19.3
								c0.5-1.5,0.8-3.2,0.1-4.6c-0.7-1.4-2.2-2.2-3.6-2.3c-1.5-0.1-2.9,0.3-4.4,0.7c-11,3.5-21.1,8.2-29.7,16.1
								c-1,1.4-1.9,2.8-2.7,4.3c10.1-3.1,18.3-11.1,28.4-14.2c-4.5,3.7-8.8,7.5-13,11.5c-2.4,2.3-4.9,4.8-5.6,8.1
								c6.9-5.1,13.7-10.4,20.3-15.9c-5.8,6.1-11.8,12.5-14.6,20.6C52.4,124.7,57.6,120.1,62.9,115.4L62.9,115.4z"/>
						</g>
					</g>
				</g>
				<path class="st3" d="M86.1,81.6c2.1,2.7,2.7,6.4,2.4,9.8c-0.6,6-4,11.8-9.3,14.1c-1.9,0.8-4,1.2-6,0.7c-1.9-0.4-3.5-1.5-5.1-2.6
					c-7.6-6-7.7-13.6-1.3-20.4C71.8,77.8,80.9,74.9,86.1,81.6L86.1,81.6z"/>
			</g>
		</g>
		<g>
			<g>
				<g>
					<g>
						<g>
							<path class="st0" d="M210.1,82.6c10,2.5,20,4.8,30.1,6.9c8.2,1.8,16.5,3.4,24.8,5c5.4,1,33.4,7.9,30.6-2.4
								c-2.7-9.9-19.5-19.2-27.6-24c-5.5-3.3-11.2-6.1-17.3-8.1h0c-4.5-1.5-9.1-2.5-13.9-2.9c-11.2-0.8-23.1,2.3-31.3,10.1
								c-2.7,2.6-5.2,6.4-3.9,9.8C202.6,80.5,206.6,81.8,210.1,82.6L210.1,82.6z"/>
							<path class="st0" d="M316.1,53.7c0.2-1.1,0.4-2.3,0.5-3.5c2.1-13.7,3.5-27.8-0.9-40.6c-1.2-3.6-3.1-7.3-6.6-8.8
								c-5-2.2-10.9,0.9-14.9,4.7c-10.3,9.8-14.8,24.6-13.9,38.6c0.1,1.8,0.3,3.5,0.6,5.3c2,11.8,8,27.7,17.3,35.7
								C309.4,94.9,315,60.4,316.1,53.7L316.1,53.7z"/>
							<path class="st0" d="M343.8,102.3c4.8,0,8.6-0.3,10.3-0.4c12-0.9,24.3-2.9,34.8-9.2c3.3-2,6.4-4.4,8.2-7.7s2.1-7.6-0.1-10.6
								c-2.2-2.9-6-3.8-9.6-4.4c-8.1-1.2-16.5-1.4-24.7-0.5c-1.2,0.1-2.3,0.3-3.4,0.4c-8.6,1.2-17.2,3.6-25.3,7
								c-6.7,2.8-16.6,6.6-21,12.7C304.5,101,328.7,102.5,343.8,102.3L343.8,102.3z"/>
							<path class="st0" d="M357.4,156c2.2-0.1,4.4-0.3,6.2-1.6c3.3-2.3,3.7-7.1,2.9-11c-1.6-8-6.6-14.9-12.8-20.1
								c-1.4-1.2-2.9-2.3-4.4-3.4c-5.1-3.6-10.8-6.4-16.4-9.1c-7.4-3.5-17.4-9.1-26-9c-7.6,0.2-8.6,8.7-6.5,14.6
								c2.3,6.1,6.6,11.2,11.2,15.9c1.8,1.9,3.7,3.7,5.6,5.5C328.6,148.1,342.2,156.4,357.4,156L357.4,156z"/>
							<path class="st0" d="M242.5,166.9c7.1,1,13.9-3.4,19.4-8.1c6.1-5.2,11-10.9,15.4-17.3c0.9-1.3,1.8-2.7,2.7-4.1
								c5.7-9,13.6-15.1,16.2-26c0.5-1.9,0.7-4.1-0.4-5.7c-1-1.6-3.1-2.3-5-2.3c-1.9,0.1-3.8,0.8-5.6,1.6
								c-14,5.9-26.9,13.4-37.2,24.5c-0.8,0.8-1.5,1.6-2.2,2.5c-6.7,7.8-12.4,17.9-10.5,27.8c0.4,1.9,1,3.9,2.5,5.2
								C239,166.1,240.8,166.7,242.5,166.9L242.5,166.9z"/>
							<path class="st1" d="M316.1,53.7c0.2-1.1,0.4-2.3,0.5-3.5c-2.6,3.6-5.1,7.3-7.7,10.9c0.1-4.9,1.6-9.8,2.4-14.6
								c0.9-4.9,1.1-10.1-1-14.5c-3.2,9.2-2.2,20.5-9.4,27.3c0.5-8.1,1-16.3,1.5-24.4c-5.1,8.6-8.3,18.3-8.9,28.2
								c-0.4-7.8-2.6-15.5-6.2-22.3c0,8.4,0.2,16.8,0.7,25.2c-2.8-7.2-3.8-15.5-7.8-21.8c0.1,1.8,0.3,3.5,0.6,5.3
								c2,11.8,8,27.7,17.3,35.7C309.4,94.9,315,60.4,316.1,53.7L316.1,53.7z"/>
							<path class="st1" d="M343.8,102.3c-4.9-1.4-9.9-2.4-14.9-3.3c7.1,0.2,14.3-0.1,21.3-0.9c1.3-0.1,2.6-0.3,3.7-1.1
								c1-0.8,1.5-2.5,0.6-3.4c-0.5-0.5-1.4-0.7-2.1-0.7c-7.6-0.8-15.4-0.8-23-0.1c6.7-0.8,13.4-2.3,19.8-4.5
								c1.2-0.4,2.7-1.3,2.4-2.5c-0.3-1-1.6-1.2-2.7-1.3c-9.8-0.1-19.5,1.4-28.9,4.3c13-4.2,25.8-9.2,38.3-14.8
								c2-0.9,4.4-2.4,4.3-4.5c-1.2,0.1-2.3,0.3-3.4,0.4c-8.6,1.2-17.2,3.6-25.3,7c-6.7,2.8-16.6,6.6-21,12.7
								C304.5,101,328.7,102.5,343.8,102.3L343.8,102.3z"/>
							<path class="st1" d="M264.9,94.5c5.4,1,33.4,7.9,30.6-2.4c-2.7-9.9-19.5-19.2-27.6-24c-5.5-3.3-11.2-6.1-17.3-8.1h0
								c-0.7-0.1-1.5-0.3-2.2-0.4c8.6,5.8,16.4,12.7,23.1,20.5c-5.9-2.9-11.8-5.8-17.7-8.6c-3.1-1.5-7.3-2.9-9.8-0.3
								c6.5,6.4,15.4,9.8,24,12.9c-7.5-1.6-14.9-3-22.4-4.4c-2.4-0.4-5.7-0.3-6.4,2c7.6,4.2,16.1,7,24.8,8.3
								c-7.9-0.9-15.9-1.7-23.8-0.6C248.3,91.3,256.6,92.9,264.9,94.5L264.9,94.5z"/>
							<path class="st1" d="M311.8,132.3c1.8,1.9,3.7,3.7,5.6,5.5c0-1.5-0.1-3.1-0.4-4.6c-1.1-5.9-4.4-11.3-4.4-17.4
								c6.3,6.6,12.3,13.5,17.9,20.7c1.8-4.2-1.4-8.6-4.3-12c-3.6-4.2-7.3-8.3-10.9-12.5c8.7,6.2,17.4,12.4,26.1,18.6
								c1-2.2-0.9-4.5-2.7-6.1c-6.1-5.4-12.5-10.6-19.1-15.5c6.5,3.8,13,7.4,19.7,10.9c3.6,1.9,7.4,3.8,11.6,3.7
								c0.2-1.4-0.5-2.6-1.4-3.6c-5.1-3.6-10.8-6.4-16.4-9.1c-7.4-3.5-17.4-9.1-26-9c-7.6,0.2-8.6,8.7-6.5,14.6
								C302.9,122.6,307.2,127.6,311.8,132.3L311.8,132.3z"/>
							<path class="st1" d="M285.6,125.6c-2.8,5.3-5.5,10.6-8.2,15.8c0.9-1.3,1.8-2.7,2.7-4.1c5.7-9,13.6-15.1,16.2-26
								c0.5-1.9,0.7-4.1-0.4-5.7c-1-1.6-3.1-2.3-5-2.3c-1.9,0.1-3.8,0.8-5.6,1.6c-14,5.9-26.9,13.4-37.2,24.5
								c-1.1,1.8-2.1,3.8-3,5.7c12.9-5.4,22.8-16.5,35.7-21.9c-5.5,5.2-10.8,10.6-15.8,16.2c-2.9,3.2-5.9,6.7-6.5,10.8
								c8.6-7.3,16.9-14.9,24.9-22.8c-7,8.4-14.1,17.3-16.8,27.7C272.8,138.7,279.2,132.2,285.6,125.6L285.6,125.6z"/>
						</g>
						<g>
							<path class="st1" d="M316.6,50.2c-0.2,1.2-0.4,2.3-0.5,3.5c-1.1,6.7-6.6,41.3-17.9,31.5c-9.2-8-15.3-23.9-17.3-35.7
								c-0.3-1.8-0.5-3.5-0.6-5.3c-0.9-14,3.6-28.8,13.9-38.6c4-3.8,10-7,14.9-4.7c3.5,1.5,5.4,5.2,6.6,8.8
								C320.1,22.5,318.7,36.6,316.6,50.2L316.6,50.2z"/>
							<path class="st1" d="M235.3,159.7c-1.9-9.9,3.8-19.9,10.5-27.8c0.7-0.8,1.4-1.7,2.2-2.5c10.3-11.1,23.2-18.6,37.2-24.5
								c1.8-0.8,3.7-1.5,5.6-1.6c2-0.1,4,0.6,5,2.3c1,1.6,0.8,3.8,0.4,5.7c-2.6,10.9-10.5,17-16.2,26c-0.9,1.4-1.8,2.8-2.7,4.1
								c-4.4,6.4-9.3,12.1-15.4,17.3c-5.5,4.7-12.3,9.1-19.4,8.1c-1.8-0.2-3.5-0.8-4.8-2C236.3,163.6,235.7,161.6,235.3,159.7
								L235.3,159.7z"/>
							<path class="st1" d="M312.8,89.6c4.4-6,14.4-9.9,21-12.7c8.1-3.4,16.7-5.8,25.3-7c1.1-0.2,2.3-0.3,3.4-0.4
								c8.3-0.9,16.6-0.7,24.7,0.5c3.6,0.6,7.5,1.5,9.6,4.4c2.2,2.9,2,7.3,0.1,10.6c-1.8,3.3-4.9,5.8-8.2,7.7
								c-10.4,6.3-22.7,8.3-34.8,9.2c-1.7,0.1-5.6,0.3-10.3,0.4C328.6,102.5,304.4,101,312.8,89.6L312.8,89.6z"/>
							<path class="st1" d="M264.9,94.5c-8.3-1.5-16.5-3.2-24.8-5c-10.1-2.1-20.1-4.4-30.1-6.9c-3.5-0.9-7.5-2.1-8.7-5.5
								c-1.2-3.5,1.2-7.2,3.9-9.8c8.3-7.8,20.2-11,31.3-10.1c4.8,0.4,9.4,1.4,13.9,2.9h0c6.1,2,11.8,4.8,17.3,8.1
								c8.1,4.8,24.9,14.1,27.6,24C298.3,102.4,270.2,95.5,264.9,94.5L264.9,94.5z"/>
							<path class="st1" d="M307.1,101.9c8.6-0.2,18.6,5.4,26,9c5.7,2.7,11.3,5.5,16.4,9.1c1.5,1,3,2.2,4.4,3.4
								c6.2,5.2,11.1,12.1,12.8,20.1c0.8,3.9,0.4,8.7-2.9,11c-1.8,1.3-4.1,1.5-6.2,1.6c-15.3,0.4-28.8-7.8-40-18.2
								c-2-1.8-3.8-3.6-5.6-5.5c-4.5-4.7-8.9-9.7-11.2-15.9C298.4,110.5,299.5,102.1,307.1,101.9L307.1,101.9z"/>
						</g>
						<g>
							<path class="st0" d="M234.7,30.6c6.1,8.1,12.3,16.2,18.6,24.1c5.2,6.5,10.4,12.9,15.8,19.3c3.5,4.1,20.6,27,24.9,17.1
								c4.1-9.6-2.9-27.4-6-36.3c-2.1-6-4.8-11.8-8.1-17.1h0c-2.5-4-5.4-7.7-8.9-10.9c-8-7.6-19.1-12.5-30.3-11.3
								c-3.7,0.4-8,1.9-9.2,5.4C230.3,24.3,232.5,27.8,234.7,30.6L234.7,30.6z"/>
							<path class="st0" d="M333.9,73.1c0.9-0.8,1.7-1.6,2.6-2.4c10.2-9.6,20.1-20,24.8-33.1c1.3-3.6,2.2-7.7,0.5-11.1
								c-2.4-4.9-8.9-6-14.4-5.5c-14.1,1.5-26.8,10.5-34.9,22.3c-1,1.5-2,3-2.9,4.6c-5.9,10.6-11.2,27.1-9.2,39.3
								C302.9,102,328.8,77.8,333.9,73.1L333.9,73.1z"/>
							<path class="st0" d="M324.5,129.2c3.7,2.9,6.8,5.1,8.1,6.1c9.7,6.7,20.4,12.7,32.3,14.2c3.7,0.5,7.6,0.4,11.1-1.1
								s6.4-4.8,6.5-8.5c0.2-3.6-2.2-6.8-4.6-9.5c-5.4-6-11.7-11.3-18.6-15.7c-1-0.6-1.9-1.2-2.9-1.8c-7.4-4.4-15.4-7.8-23.7-10.1
								c-6.9-1.9-16.9-5-24-2.9C295.3,103.7,312.8,119.9,324.5,129.2L324.5,129.2z"/>
							<path class="st0" d="M301.2,180.5c1.7,1.3,3.6,2.5,5.8,2.6c4,0.2,7.3-3.4,9.1-7c3.8-7.4,4.3-16,2.9-24
								c-0.3-1.8-0.7-3.6-1.2-5.4c-1.6-6-4.2-11.8-6.9-17.4c-3.5-7.4-7.6-18.1-14.3-23.3c-5.9-4.5-12,1.6-14.1,7.7
								c-2.1,6.3-2,13-1.4,19.6c0.2,2.6,0.5,5.3,0.9,7.9C284.1,156.4,289.3,171.4,301.2,180.5L301.2,180.5z"/>
							<path class="st0" d="M206.5,118.1c4.8,5.2,12.8,5.9,19.9,5.5c8-0.4,15.3-1.9,22.6-4.3c1.6-0.5,3.1-1,4.7-1.6
								c10-3.6,19.9-3.6,28.7-10.8c1.6-1.3,3.1-2.9,3.3-4.8c0.2-1.9-0.9-3.8-2.4-4.9c-1.5-1.1-3.4-1.7-5.3-2.2
								c-14.5-3.9-28.9-5.9-43.8-3.4c-1.1,0.2-2.1,0.4-3.2,0.6c-10.1,2.1-20.7,6.6-25.5,15.7c-0.9,1.8-1.6,3.8-1.4,5.7
								C204.4,115.3,205.3,116.9,206.5,118.1z"/>
							<path class="st1" d="M333.9,73.1c0.9-0.8,1.7-1.6,2.6-2.4c-4.2,1.3-8.5,2.7-12.7,4c3.2-3.9,7.3-6.8,11-10.2
								c3.7-3.4,7.2-7.4,8.3-12.2c-8.3,5.4-14.6,15-24.3,16c5.5-6.2,11-12.4,16.4-18.6c-9.3,3.7-17.8,9.5-24.5,17
								c4.6-6.5,7.8-14,9.3-21.7c-5.3,6.7-10.4,13.6-15.3,20.6c2.4-7.5,6.8-14.8,7.8-22.3c-1,1.5-2,3-2.9,4.6
								c-5.9,10.6-11.2,27.1-9.2,39.3C302.8,102,328.8,77.8,333.9,73.1L333.9,73.1z"/>
							<path class="st1" d="M324.5,129.2c-2.8-4.2-6.1-8.1-9.3-11.9c5.3,4.5,11,8.7,16.8,12.5c1.1,0.7,2.2,1.4,3.5,1.4
								c1.3,0,2.7-1,2.6-2.3c-0.1-0.8-0.6-1.4-1.2-1.9c-5.3-5.3-11.2-10.2-17.5-14.4c5.6,3.5,11.6,6.4,17.9,8.7
								c1.2,0.4,2.9,0.6,3.4-0.5c0.5-1-0.4-2-1.3-2.7c-7.4-6.1-15.8-11-24.8-14.5c12.6,4.7,25.5,8.6,38.6,11.9
								c2.1,0.5,4.9,0.8,6.2-0.9c-1-0.6-1.9-1.2-2.9-1.8c-7.4-4.4-15.4-7.8-23.7-10.1c-6.9-1.9-16.9-5-24-2.9
								C295.3,103.7,312.8,119.9,324.5,129.2L324.5,129.2z"/>
							<path class="st1" d="M269.1,74c3.5,4.1,20.6,27,24.9,17.1c4.1-9.6-2.9-27.4-6-36.3c-2.1-6-4.8-11.8-8.1-17.1h0
								c-0.5-0.6-1-1.1-1.5-1.7c2.9,9.9,4.5,20.3,4.8,30.7c-2.7-6-5.4-11.9-8.1-17.9c-1.4-3.1-3.8-6.8-7.3-6.3
								c0.9,9.2,5.6,17.3,10.2,25.2c-4.7-5.9-9.5-11.7-14.4-17.4c-1.6-1.8-4.1-3.8-6.1-2.4c3.2,8.1,7.9,15.5,13.7,21.9
								c-5.5-5.6-11.1-11.2-17.8-15.2C258.5,61.2,263.7,67.7,269.1,74L269.1,74z"/>
							<path class="st1" d="M281.2,133.3c0.2,2.6,0.5,5.3,0.9,7.9c1-1.2,1.8-2.6,2.6-4c2.8-5.4,3.8-11.8,7.5-16.6
								c0.7,9.2,0.9,18.4,0.7,27.7c4-2.3,4.4-7.7,4.3-12.3c-0.1-5.6-0.3-11.2-0.5-16.7c2.8,10.3,5.5,20.7,8.3,31
								c2.2-1.2,2.1-4.2,1.8-6.6c-1.3-8.1-2.9-16.2-4.9-24.2c2.6,7,5.3,14,8.2,20.9c1.6,3.7,3.3,7.6,6.5,10.1c1-1,1.3-2.3,1.2-3.7
								c-1.6-6-4.2-11.8-6.9-17.4c-3.5-7.4-7.6-18.1-14.3-23.3c-5.9-4.5-12,1.6-14.1,7.7C280.4,120,280.6,126.8,281.2,133.3
								L281.2,133.3z"/>
							<path class="st1" d="M265.3,111.8c-5.4,2.5-10.8,5-16.3,7.6c1.6-0.5,3.1-1,4.7-1.6c10-3.6,19.9-3.6,28.7-10.8
								c1.6-1.3,3.1-2.9,3.3-4.8c0.2-1.9-0.9-3.8-2.4-4.9c-1.5-1.1-3.4-1.7-5.3-2.2c-14.5-3.9-28.9-5.9-43.8-3.4
								c-2,0.8-4,1.7-5.9,2.7c13.2,3.7,27.8,0.9,41.1,4.6c-7.5,0.8-14.9,1.8-22.3,3.1c-4.2,0.7-8.6,1.7-11.7,4.7
								c11.1-0.5,22.3-1.5,33.4-2.8c-10.6,2.5-21.6,5.1-30.3,11.8C247.4,114.4,256.4,113.1,265.3,111.8L265.3,111.8z"/>
						</g>
					</g>
					<path class="st2" d="M206.5,118.1c4.8,5.2,12.8,5.9,19.9,5.5c8-0.4,15.3-1.9,22.6-4.3c1.6-0.5,3.1-1,4.7-1.6
						c4.6-1.7,9.2-2.6,13.6-3.7c-3.9,2.3-7.6,4.9-11.1,7.8c-2.9,2.3-5.6,4.9-8.2,7.7c-0.8,0.8-1.5,1.6-2.2,2.5
						c-1.7,2-3.3,4.1-4.7,6.3c-0.7,1.1-1.4,2.2-2,3.4c-2.5,4.6-4.2,9.5-4.1,14.4c0,1.2,0.1,2.5,0.4,3.7c0.3,1.4,0.7,2.9,1.5,4.1
						c0.3,0.4,0.6,0.8,0.9,1.1c1.3,1.2,3,1.8,4.8,2c2.2,0.3,4.4,0.1,6.5-0.5c1.7-0.5,3.4-1.2,5-2c0.4-0.2,0.8-0.4,1.2-0.7
						c0.8-0.5,1.6-1,2.3-1.5c1.5-1.1,3-2.2,4.4-3.4c6.1-5.2,11-10.9,15.4-17.3c0.9-1.3,1.8-2.7,2.7-4.1c0.4-0.7,0.9-1.3,1.3-1.9
						c0.2,1.9,0.4,3.8,0.7,5.8c2.1,15.2,7.3,30.2,19.2,39.3c1.7,1.3,3.6,2.5,5.8,2.6c4,0.2,7.3-3.4,9.1-7c3.8-7.4,4.3-16,2.9-24
						c-0.3-1.8-0.7-3.6-1.2-5.4c-1.3-4.6-3-9-5-13.4c0.6,0.6,1.1,1.2,1.7,1.7c0.9,0.9,1.9,1.8,2.9,2.7c1.4,1.3,2.8,2.5,4.3,3.8
						c1.5,1.2,3,2.4,4.5,3.5s3.1,2.2,4.7,3.1c4,2.5,8.3,4.5,12.7,5.8c1.8,0.5,3.6,1,5.4,1.3c1.8,0.3,3.7,0.5,5.6,0.6
						c0.9,0,1.9,0,2.8,0c1.6,0,3.3-0.2,4.8-0.8c0.5-0.2,1-0.5,1.4-0.8c0.4-0.3,0.8-0.6,1.1-1s0.6-0.8,0.9-1.2c0.5-0.8,0.8-1.7,1-2.6
						c3.2,0.3,6.5,0,9.4-1.2c3.5-1.5,6.4-4.8,6.5-8.5c0.2-3.6-2.2-6.8-4.6-9.5c-5.4-6-11.7-11.3-18.6-15.7c-1-0.6-1.9-1.2-2.9-1.8
						c-7.4-4.4-15.4-7.8-23.7-10.1c-1-0.3-2.1-0.6-3.2-0.9c4.8,0.4,9.9,0.5,14.2,0.5c1.2,0,2.3,0,3.4-0.1c3.2-0.1,5.7-0.2,7-0.3
						c1.5-0.1,3-0.2,4.5-0.4c0.9-0.1,1.7-0.2,2.6-0.3c2.2-0.3,4.3-0.6,6.4-1c3-0.5,5.9-1.2,8.8-2.1c2.2-0.7,4.3-1.4,6.4-2.3
						c2.1-0.9,4.1-1.9,6-3.1c2.4-1.5,4.8-3.2,6.6-5.4c0.6-0.7,1.1-1.5,1.6-2.3c1.8-3.3,2.1-7.6-0.1-10.6c-0.5-0.7-1.2-1.3-1.9-1.8
						s-1.5-0.9-2.4-1.2c-0.4-0.2-0.9-0.3-1.3-0.5c-0.9-0.3-1.8-0.5-2.7-0.6c-0.5-0.1-0.9-0.2-1.4-0.2c-2-0.3-4.1-0.5-6.1-0.7
						c-4.1-0.4-8.3-0.4-12.4-0.3c-2.1,0.1-4.1,0.2-6.2,0.5c-1.2,0.1-2.3,0.3-3.4,0.4c-3.2,0.5-6.5,1.1-9.7,1.9
						c-1.1,0.3-2.1,0.5-3.2,0.8c-2.1,0.6-4.2,1.2-6.3,2c-2.1,0.7-4.1,1.5-6.2,2.4c-0.4,0.2-0.9,0.4-1.3,0.5c-2.2,0.9-4.7,2-7.2,3.2
						c3.9-3.2,7.1-6.2,8.5-7.5c0.9-0.8,1.7-1.6,2.6-2.4c10.2-9.6,20.1-20,24.8-33.1c1.3-3.6,2.2-7.7,0.5-11.1
						c-2.4-4.9-8.9-6-14.4-5.5c-11.1,1.1-21.3,7-29.1,15.1c0.5-6.5,0.4-13-0.7-19.3c-0.5-2.5-1.1-5-1.9-7.4
						c-0.9-2.7-2.2-5.4-4.3-7.3c-0.7-0.6-1.5-1.1-2.3-1.5c-1.6-0.7-3.2-0.9-4.9-0.7c-0.7,0.1-1.3,0.2-2,0.4c-0.7,0.2-1.3,0.5-2,0.7
						c-0.6,0.3-1.1,0.6-1.7,0.9c-1.6,0.9-3.1,2.1-4.4,3.4c-2.6,2.5-4.8,5.2-6.7,8.2c-0.5,0.8-0.9,1.5-1.3,2.3
						c-0.8,1.5-1.6,3.1-2.3,4.8c-1,2.5-1.8,5-2.4,7.6c-0.4,1.7-0.7,3.5-0.9,5.2c-0.2,1.6-0.3,3.2-0.4,4.8c-0.1-0.2-0.3-0.5-0.4-0.7
						h0c-2.5-4-5.4-7.7-8.9-10.9c-8-7.6-19.1-12.5-30.3-11.3c-3.7,0.4-8,1.9-9.2,5.4c-1.2,3.4,1,6.9,3.2,9.8
						c6.1,8.1,12.3,16.2,18.6,24.1c2.6,3.3,5.2,6.5,7.8,9.7c-0.5-0.3-1.1-0.6-1.6-0.8c-2.9-1.4-5.8-2.6-8.9-3.6h0
						c-1.1-0.4-2.3-0.7-3.4-1c-2.3-0.6-4.6-1.1-7-1.5c-1.2-0.2-2.4-0.3-3.6-0.4c-2.8-0.2-5.6-0.2-8.5,0.1c-4.9,0.5-9.8,1.8-14.2,4
						c-3.2,1.5-6.1,3.5-8.7,6c-2.7,2.6-5.2,6.4-3.9,9.8c0.5,1.3,1.3,2.2,2.4,3c1.8,1.3,4.1,2,6.3,2.5c10,2.5,20,4.8,30.1,6.9
						c1.7,0.4,3.4,0.7,5.1,1c-3.6,0.1-7.3,0.5-11,1.1c-1.1,0.2-2.1,0.4-3.2,0.6c-10.1,2.1-20.7,6.6-25.5,15.7
						c-0.9,1.8-1.6,3.8-1.4,5.7C204.4,115.3,205.3,116.9,206.5,118.1L206.5,118.1z M284.1,105.5c0.9-1,1.5-2,1.7-3.3
						c0.2-1.8-0.7-3.5-2.1-4.6c0.3,0,0.6,0,0.9,0.1c1.4,0.1,2.6,0.1,3.8,0c1.2-0.1,2.3-0.2,3.3-0.4c0.3-0.1,0.6-0.2,0.9-0.3
						c0.6-0.2,1.1-0.4,1.5-0.7c0.9-0.6,1.4-1.4,1.5-2.4c0-0.5,0-1.1-0.2-1.7c-0.2-0.8-0.6-1.6-1-2.5c0.7-2.2,0.9-4.8,0.7-7.5
						c1,1.1,1.9,2.1,3,3c0.7,0.6,1.5,1.1,2.1,1.4c0,0.2,0,0.5,0.1,0.7c1,6.4,6.5,5.5,12.7,2.1c-0.1,0.1-0.2,0.2-0.3,0.3
						c-1.6,2.1-2,3.9-1.5,5.4c0.1,0.5,0.4,1,0.7,1.4c0.3,0.4,0.8,0.8,1.3,1.2c0.8,0.6,1.8,1.1,3,1.6c-2.6-0.2-5.1,0-7.4,0.6
						c-1.9,0.6-3.2,1.4-4,2.4c-3.1,0.9-4.6,3.6-5.1,6.8c-1-1.1-2-2.1-3-2.9c-0.3-0.2-0.6-0.4-0.9-0.6c-0.5-0.7-1.2-1.2-2-1.6
						c-0.9-0.4-1.9-0.5-2.9-0.5c-1.9,0.1-3.8,0.8-5.6,1.6C284.9,105.1,284.5,105.3,284.1,105.5L284.1,105.5z"/>
					<g>
						<g>
							<path class="st0" d="M218.3,54.2c8.5,5.7,17,11.2,25.7,16.6c7.1,4.4,14.2,8.8,21.4,13c4.6,2.8,28.5,18.7,29.4,8
								c0.9-10.3-11.7-24.8-17.6-32c-4-4.9-8.4-9.5-13.3-13.5h0c-3.7-2.9-7.7-5.5-12-7.4c-10.1-4.5-22.3-5.5-32.6-0.9
								c-3.4,1.5-7,4.3-7,8C212.1,49.6,215.3,52.2,218.3,54.2L218.3,54.2z"/>
							<path class="st0" d="M326.9,62.1c0.5-1,1.1-2.1,1.7-3.1c6.6-12.3,12.6-25.2,13-39c0.1-3.8-0.4-7.9-3.1-10.6
								c-3.9-3.8-10.5-2.8-15.5-0.5c-13,5.9-22.2,18.4-26.1,32.1c-0.5,1.7-0.9,3.5-1.2,5.2c-2.2,11.9-1.9,29,4,39.7
								C306.7,99.2,323.7,68.2,326.9,62.1L326.9,62.1z"/>
							<path class="st0" d="M336.3,117.7c4.5,1.6,8.1,2.7,9.8,3.1c11.5,3.2,23.7,5.4,35.5,2.9c3.7-0.8,7.4-2,10.3-4.6
								c2.8-2.5,4.5-6.6,3.5-10.1c-1-3.5-4.3-5.6-7.5-7.4c-7.2-3.9-14.9-6.8-22.9-8.8c-1.1-0.3-2.2-0.5-3.3-0.8
								c-8.5-1.7-17.2-2.4-26-1.8c-7.2,0.4-17.7,0.8-23.9,5C300,103.2,322.1,112.7,336.3,117.7L336.3,117.7z"/>
							<path class="st0" d="M330.7,173.3c2,0.7,4.3,1.2,6.4,0.6c3.9-1.1,5.9-5.5,6.5-9.5c1.2-8.1-1.1-16.3-5.1-23.4
								c-0.9-1.6-1.9-3.2-2.9-4.7c-3.5-5.1-7.9-9.7-12.2-14.1c-5.7-5.8-13.2-14.5-21.2-17.2c-7.1-2.4-11,5.4-11,11.7
								c0,6.6,2.4,12.8,5,18.8c1,2.4,2.2,4.8,3.4,7.1C306.5,156.2,316.3,168.6,330.7,173.3L330.7,173.3z"/>
							<path class="st0" d="M219.9,145.2c6.3,3.3,14.1,1.4,20.9-1.2c7.5-2.9,14-6.7,20.2-11.3c1.3-1,2.6-2,3.9-3
								c8.4-6.6,17.9-9.8,23.9-19.3c1.1-1.7,2-3.7,1.6-5.6c-0.4-1.9-2.1-3.3-3.9-3.8c-1.8-0.6-3.8-0.5-5.8-0.4
								c-15.1,1-29.6,3.7-43,10.9c-1,0.5-1.9,1-2.9,1.6c-8.9,5.2-17.6,12.8-19.3,22.9c-0.3,2-0.3,4,0.5,5.8
								C217,143.3,218.4,144.4,219.9,145.2L219.9,145.2z"/>
							<path class="st1" d="M326.9,62.1c0.5-1,1.1-2.1,1.7-3.1c-3.6,2.6-7.3,5.2-10.9,7.8c1.8-4.6,4.8-8.8,7.2-13.1
								c2.5-4.4,4.5-9.2,4-14.1c-6.1,7.7-9,18.7-18,22.8c3.2-7.6,6.4-15.1,9.6-22.7c-7.7,6.5-13.9,14.7-17.8,23.8
								c2.3-7.6,2.9-15.6,1.8-23.3c-2.9,8-5.5,16.1-7.9,24.2c-0.2-7.8,1.7-16,0.2-23.4c-0.5,1.7-0.9,3.5-1.2,5.2
								c-2.2,11.9-1.9,29,4,39.7C306.7,99.2,323.7,68.2,326.9,62.1L326.9,62.1z"/>
							<path class="st1" d="M336.3,117.7c-4-3-8.4-5.6-12.8-8.1c6.6,2.5,13.3,4.7,20.2,6.3c1.3,0.3,2.6,0.6,3.8,0.2
								c1.2-0.4,2.2-1.8,1.7-3c-0.3-0.7-1-1.1-1.8-1.4c-6.8-3.3-14-5.9-21.4-7.9c6.5,1.5,13.2,2.3,20,2.4c1.3,0,2.9-0.3,3.1-1.6
								c0.1-1.1-1.1-1.7-2.1-2.1c-9-3.4-18.7-5.2-28.4-5.6c13.5,0.3,27.2-0.1,40.7-1.2c2.2-0.2,4.9-0.8,5.6-2.9
								c-1.1-0.3-2.2-0.5-3.3-0.8c-8.5-1.7-17.2-2.4-26-1.8c-7.2,0.4-17.7,0.8-23.9,5C300,103.2,322.1,112.8,336.3,117.7
								L336.3,117.7z"/>
							<path class="st1" d="M265.3,83.8c4.6,2.8,28.5,18.7,29.4,8c0.9-10.3-11.7-24.8-17.6-32c-4-4.9-8.4-9.5-13.3-13.5h0
								c-0.6-0.4-1.3-0.7-1.9-1.1c6,8.4,11,17.5,14.5,27.2c-4.5-4.7-9.1-9.4-13.6-14.1c-2.4-2.5-5.8-5.2-9-3.6
								c3.9,8.3,11,14.4,18,20.3c-6.4-4-12.9-7.9-19.4-11.7c-2.1-1.2-5.2-2.2-6.6-0.2c5.7,6.5,12.6,12,20.3,16.1
								c-7.1-3.5-14.2-7-22-8.5C251,75.2,258.2,79.6,265.3,83.8L265.3,83.8z"/>
							<path class="st1" d="M296.2,135.5c1,2.4,2.2,4.8,3.4,7.1c0.5-1.5,0.9-3,1.2-4.5c1-6-0.2-12.3,1.8-18c3.6,8.4,6.9,17,9.7,25.7
								c3.1-3.4,1.7-8.7,0.1-12.9c-2-5.2-3.9-10.3-5.9-15.5c6,8.8,12,17.6,18,26.4c1.7-1.8,0.7-4.6-0.5-6.7
								c-3.9-7.2-8.1-14.3-12.6-21.1c4.8,5.8,9.6,11.4,14.7,16.9c2.7,3,5.6,6.1,9.5,7.4c0.6-1.2,0.4-2.6,0-3.9
								c-3.5-5.1-7.9-9.7-12.2-14.1c-5.7-5.8-13.2-14.5-21.2-17.2c-7.1-2.4-11,5.4-11,11.7C291.2,123.3,293.5,129.5,296.2,135.5
								L296.2,135.5z"/>
							<path class="st1" d="M274,120.4c-4.4,4.1-8.7,8.2-13,12.3c1.3-1,2.6-2,3.9-3c8.4-6.6,17.9-9.8,23.9-19.3
								c1.1-1.7,2-3.7,1.6-5.6c-0.4-1.9-2.1-3.3-3.9-3.8c-1.8-0.6-3.8-0.5-5.8-0.4c-15.1,1-29.6,3.7-43,10.9
								c-1.7,1.4-3.3,2.8-4.8,4.5c13.9-0.8,26.9-8.1,40.7-8.9c-6.9,3.1-13.6,6.5-20.2,10.1c-3.8,2-7.7,4.4-9.7,8.2
								c10.5-4.1,20.8-8.5,31-13.3c-9.3,5.7-19,11.7-25.1,20.7C257.8,128.6,265.9,124.5,274,120.4L274,120.4z"/>
						</g>
						<g>
							<path class="st1" d="M328.6,59c-0.6,1-1.1,2.1-1.7,3.1c-3.3,6-20.2,37-27.4,23.9c-5.9-10.7-6.2-27.9-4-39.7
								c0.3-1.8,0.7-3.5,1.2-5.2c3.9-13.7,13.1-26.2,26.1-32.1c5.1-2.3,11.6-3.3,15.5,0.5c2.7,2.6,3.2,6.8,3.1,10.6
								C341.2,33.8,335.2,46.7,328.6,59L328.6,59z"/>
							<path class="st1" d="M215.6,136c1.6-10.1,10.3-17.7,19.3-22.9c1-0.6,1.9-1.1,2.9-1.6c13.4-7.1,27.9-9.9,43-10.9
								c2-0.1,4-0.2,5.8,0.4c1.9,0.6,3.5,2,3.9,3.8c0.4,1.9-0.5,3.9-1.6,5.6c-6.1,9.5-15.5,12.7-23.9,19.3c-1.3,1-2.6,2-3.9,3
								c-6.3,4.6-12.7,8.4-20.2,11.3c-6.8,2.7-14.6,4.5-20.9,1.2c-1.5-0.8-3-2-3.8-3.5C215.3,140,215.3,137.9,215.6,136L215.6,136z"
								/>
							<path class="st1" d="M311.7,95.2c6.2-4.3,16.7-4.6,23.9-5c8.7-0.5,17.5,0.1,26,1.8c1.1,0.2,2.2,0.5,3.3,0.8
								c8,1.9,15.7,4.9,22.9,8.8c3.2,1.7,6.5,3.9,7.5,7.4c1.1,3.5-0.6,7.6-3.5,10.1c-2.8,2.5-6.6,3.8-10.3,4.6
								c-11.8,2.5-24,0.3-35.5-2.9c-1.6-0.5-5.3-1.5-9.8-3.1C322.1,112.8,300,103.2,311.7,95.2L311.7,95.2z"/>
							<path class="st1" d="M265.3,83.8c-7.2-4.2-14.3-8.6-21.4-13c-8.7-5.4-17.2-10.9-25.7-16.6c-3-2-6.2-4.5-6.2-8.1
								c0-3.7,3.6-6.5,7-8c10.3-4.7,22.5-3.7,32.6,0.9c4.3,1.9,8.3,4.5,12,7.4h0c5,3.9,9.4,8.5,13.3,13.5c5.9,7.3,18.4,21.7,17.6,32
								C293.8,102.5,270,86.6,265.3,83.8L265.3,83.8z"/>
							<path class="st1" d="M302.1,105c8,2.7,15.5,11.4,21.2,17.2c4.4,4.4,8.7,9,12.2,14.1c1,1.5,2,3.1,2.9,4.7
								c4,7,6.3,15.3,5.1,23.4c-0.6,4-2.5,8.4-6.5,9.5c-2.1,0.6-4.3,0.1-6.4-0.6c-14.4-4.7-24.2-17.1-31.2-30.7
								c-1.2-2.3-2.4-4.8-3.4-7.1c-2.6-6-5-12.2-5-18.8C291.2,110.3,295,102.6,302.1,105L302.1,105z"/>
						</g>
						<g>
							<path class="st0" d="M258.8,13c2.9,9.8,6,19.5,9.2,29.2c2.6,7.9,5.3,15.8,8.2,23.6c1.8,5.1,10,32.5,17.4,24.5
								c7.1-7.7,6.6-27,6.7-36.5c0-6.4-0.4-12.8-1.8-19v0c-1-4.6-2.4-9.1-4.5-13.3c-4.9-9.9-13.6-18.2-24.4-20.9
								c-3.6-0.9-8.1-0.9-10.4,2.1C256.9,5.5,257.8,9.6,258.8,13L258.8,13z"/>
							<path class="st0" d="M336.9,86.6c1.1-0.5,2.1-1,3.2-1.4c12.8-5.8,25.5-12.4,34.4-23.1c2.5-3,4.7-6.6,4.2-10.4
								c-0.6-5.4-6.3-8.7-11.6-10c-13.6-3.3-28.5,1-40.1,9.5c-1.5,1.1-2.9,2.2-4.2,3.4c-9.1,8.1-19.7,22-21.9,34.3
								C298.2,103.7,330.6,89.4,336.9,86.6L336.9,86.6z"/>
							<path class="st0" d="M309.2,136.8c2.4,4,4.5,7.1,5.5,8.5c6.8,9.7,14.7,18.9,25.3,24.3c3.3,1.7,7,3,10.7,2.7
								c3.8-0.3,7.6-2.4,9-5.9c1.4-3.4,0.2-7.2-1.1-10.5c-3-7.5-7.1-14.7-12-21.2c-0.7-0.9-1.4-1.8-2.1-2.7
								c-5.4-6.6-11.7-12.5-18.7-17.5c-5.8-4.1-14-10.4-21.4-10.8C290.5,102.8,301.4,124.1,309.2,136.8L309.2,136.8z"/>
							<path class="st0" d="M270,177.8c1.1,1.8,2.5,3.6,4.5,4.4c3.7,1.5,8-0.8,10.9-3.6c6-5.7,9.4-13.7,10.8-21.8
								c0.3-1.8,0.5-3.7,0.7-5.5c0.5-6.3,0.1-12.6-0.5-18.9c-0.7-8.2-1-19.7-5.4-26.9c-3.9-6.3-11.8-2.5-15.7,2.6
								c-4.1,5.3-6.2,11.8-8,18.2c-0.7,2.6-1.3,5.2-1.9,7.8C262.2,149.2,261.9,165.2,270,177.8L270,177.8z"/>
							<path class="st0" d="M202.9,86.8c2.7,6.5,9.9,9.9,16.7,11.9c7.6,2.3,14.9,3.3,22.5,3.5c1.6,0.1,3.2,0.1,4.9,0.1
								c10.6-0.1,19.8,3.2,30.4-0.6c1.9-0.7,3.9-1.7,4.7-3.5c0.9-1.8,0.5-3.9-0.6-5.5c-1-1.6-2.6-2.8-4.2-3.9
								c-12.1-8.6-24.9-15.3-39.7-17.9c-1.1-0.2-2.1-0.4-3.2-0.5c-10.1-1.4-21.5-0.6-29.1,6.4c-1.5,1.4-2.8,3-3.2,5
								C201.9,83.4,202.2,85.2,202.9,86.8z"/>
							<path class="st1" d="M336.9,86.6c1.1-0.5,2.1-1,3.2-1.4c-4.4-0.2-8.8-0.3-13.2-0.5c4.3-2.6,9.1-4,13.8-6
								c4.6-2,9.2-4.6,11.9-8.8c-9.5,2.4-18.7,9.4-28.1,7.1c7.2-4.1,14.4-8.1,21.6-12.2c-9.9,0.4-19.9,3.1-28.6,8
								c6.5-4.6,12-10.7,16-17.6c-7.2,4.6-14.3,9.4-21.3,14.4c4.7-6.3,11.4-11.8,14.8-18.6c-1.5,1.1-2.9,2.2-4.2,3.4
								c-9.1,8.1-19.7,22-21.9,34.3C298.2,103.7,330.6,89.4,336.9,86.6L336.9,86.6z"/>
							<path class="st1" d="M309.2,136.8c-1.2-4.9-2.9-9.7-4.7-14.4c3.4,6.1,7.3,12,11.4,17.6c0.8,1,1.6,2.1,2.8,2.5
								c1.2,0.4,2.9-0.1,3.2-1.3c0.2-0.8-0.1-1.5-0.5-2.2c-3.2-6.9-7-13.4-11.4-19.5c4.1,5.2,8.7,10,13.8,14.3
								c1,0.8,2.5,1.6,3.3,0.6c0.8-0.8,0.3-2-0.3-2.9c-4.8-8.3-11-15.7-18.2-22c10.2,8.6,20.8,16.7,31.9,24.2
								c1.8,1.2,4.3,2.4,6.1,1.2c-0.7-0.9-1.4-1.8-2.1-2.7c-5.4-6.6-11.7-12.5-18.7-17.5c-5.8-4.1-14-10.4-21.4-10.8
								C290.5,102.8,301.4,124.1,309.2,136.8L309.2,136.8z"/>
							<path class="st1" d="M276.2,65.8c1.8,5.1,10,32.5,17.4,24.5c7.1-7.7,6.6-27,6.7-36.5c0-6.4-0.4-12.8-1.8-19v0
								c-0.3-0.7-0.5-1.4-0.8-2.1c-0.6,10.4-2.6,20.8-6,30.8c-0.5-6.6-1-13.1-1.5-19.7c-0.3-3.5-1.2-7.8-4.6-8.5
								c-2.3,9-0.6,18.4,1,27.4c-2.4-7.2-4.9-14.3-7.5-21.3c-0.8-2.2-2.6-5-4.9-4.3c0.2,8.8,2.1,17.4,5.3,25.5
								c-3.2-7.1-6.5-14.4-11.5-20.4C270.7,50.1,273.4,58,276.2,65.8L276.2,65.8z"/>
							<path class="st1" d="M267.3,126.2c-0.7,2.6-1.3,5.2-1.9,7.8c1.3-0.8,2.6-1.8,3.8-2.9c4.5-4.2,7.5-9.9,12.7-13.3
								c-2.5,9-5.4,17.8-8.7,26.5c4.5-0.8,6.7-5.9,8.2-10.2c1.8-5.4,3.5-10.7,5.3-16.1c-0.9,10.8-1.9,21.5-2.8,32.3
								c2.4-0.4,3.4-3.3,3.9-5.7c1.6-8.2,2.8-16.4,3.6-24.7c0,7.5,0.2,15.1,0.6,22.6c0.2,4.1,0.5,8.4,2.6,11.8
								c1.2-0.6,2-1.8,2.4-3.1c0.5-6.3,0.1-12.6-0.5-18.9c-0.7-8.2-1-19.7-5.4-26.9c-3.9-6.3-11.8-2.5-15.7,2.6
								C271.2,113.3,269,119.8,267.3,126.2L267.3,126.2z"/>
							<path class="st1" d="M259.9,100.4c-5.9,0.6-11.8,1.2-17.7,1.8c1.6,0.1,3.2,0.1,4.9,0.1c10.6-0.1,19.8,3.2,30.4-0.6
								c1.9-0.7,3.9-1.7,4.7-3.5c0.9-1.8,0.5-3.9-0.6-5.5c-1-1.6-2.6-2.8-4.2-3.9c-12.1-8.6-24.9-15.3-39.7-17.9
								c-2.1,0.1-4.3,0.3-6.4,0.6c11.1,7.9,25.6,10.1,36.7,18.1c-7.2-1.7-14.5-3.2-21.8-4.5c-4.2-0.7-8.6-1.3-12.5,0.5
								c10.6,3.2,21.3,6,32.1,8.5c-10.7-1.2-21.9-2.4-32.2,1C242.3,96.9,251.1,98.7,259.9,100.4L259.9,100.4z"/>
						</g>
					</g>
				</g>
				<path class="st3" d="M312.2,98c-1,4.2-4.2,7.7-7.9,10c-6.4,4.1-15,5-21.5,1.3c-2.3-1.3-4.3-3.2-5.5-5.6
					c-1.1-2.2-1.4-4.8-1.3-7.2c0-12.4,7.5-18.4,19.5-17.1C304.6,80.4,314.8,87.5,312.2,98L312.2,98z"/>
			</g>
		</g>
	</g>
</g>
</svg>
