<?xml version="1.0" encoding="UTF-8"?>
<svg xmlns="http://www.w3.org/2000/svg" xmlns:xlink="http://www.w3.org/1999/xlink" viewBox="0 0 3079.98 903.74">
  <defs>
    <style>
      .cls-1 {
        isolation: isolate;
      }

      .cls-2 {
        opacity: .3;
      }

      .cls-2, .cls-3 {
        mix-blend-mode: multiply;
      }

      .cls-3 {
        fill: url(#linear-gradient);
        opacity: .7;
      }

      .cls-4 {
        fill: #1e3280;
      }

      .cls-5 {
        fill: none;
        stroke: #1e3280;
        stroke-linecap: round;
        stroke-linejoin: round;
        stroke-width: 1.17px;
      }
    </style>
    <linearGradient id="linear-gradient" x1="1544.51" y1="0" x2="1544.51" y2="862.67" gradientUnits="userSpaceOnUse">
      <stop offset="0" stop-color="#1e3280"/>
      <stop offset="1" stop-color="#1e3280" stop-opacity="0"/>
    </linearGradient>
  </defs>
  <g class="cls-1">
    <g id="Layer_6" data-name="Layer 6">
      <rect class="cls-4" x="48" y="2.08" width="2980.51" height="862.67"/>
      <rect class="cls-3" x="60.51" width="2968" height="862.67"/>
      <g class="cls-2">
        <rect class="cls-5" x="1156.2" y="743.12" width="72.02" height="72.02" transform="translate(1484.3 2173.08) rotate(-135)"/>
        <rect class="cls-5" x="1156.2" y="641.28" width="72.02" height="72.02" transform="translate(1556.32 1999.22) rotate(-135)"/>
        <rect class="cls-5" x="1156.2" y="539.43" width="72.02" height="72.02" transform="translate(1628.33 1825.36) rotate(-135)"/>
        <rect class="cls-5" x="1156.2" y="437.59" width="72.02" height="72.02" transform="translate(1700.35 1651.5) rotate(-135)"/>
        <rect class="cls-5" x="1156.2" y="335.74" width="72.02" height="72.02" transform="translate(1772.36 1477.64) rotate(-135)"/>
        <rect class="cls-5" x="1156.2" y="233.9" width="72.02" height="72.02" transform="translate(1844.37 1303.78) rotate(-135)"/>
        <rect class="cls-5" x="1156.2" y="132.06" width="72.02" height="72.02" transform="translate(1916.39 1129.92) rotate(-135)"/>
        <rect class="cls-5" x="1156.2" y="30.21" width="72.02" height="72.02" transform="translate(1988.41 956.06) rotate(-135)"/>
        <rect class="cls-5" x="1207.13" y="692.2" width="72.02" height="72.02" transform="translate(1607.24 2122.16) rotate(-135)"/>
        <rect class="cls-5" x="1207.13" y="590.36" width="72.01" height="72.01" transform="translate(1679.26 1948.3) rotate(-135)"/>
        <rect class="cls-5" x="1207.13" y="488.51" width="72.02" height="72.02" transform="translate(1751.26 1774.44) rotate(-135)"/>
        <rect class="cls-5" x="1207.13" y="386.67" width="72.01" height="72.01" transform="translate(1823.29 1600.58) rotate(-135)"/>
        <rect class="cls-5" x="1207.13" y="284.82" width="72.01" height="72.01" transform="translate(1895.3 1426.72) rotate(-135)"/>
        <rect class="cls-5" x="1207.13" y="182.98" width="72.02" height="72.02" transform="translate(1967.32 1252.86) rotate(-135)"/>
        <rect class="cls-5" x="1207.13" y="81.13" width="72.01" height="72.01" transform="translate(2039.33 1079) rotate(-135)"/>
        <rect class="cls-5" x="1258.05" y="743.12" width="72.02" height="72.02" transform="translate(1658.16 2245.1) rotate(-135)"/>
        <rect class="cls-5" x="1258.05" y="641.28" width="72.01" height="72.01" transform="translate(1730.18 2071.23) rotate(-135)"/>
        <rect class="cls-5" x="1258.05" y="539.43" width="72.01" height="72.01" transform="translate(1802.19 1897.37) rotate(-135)"/>
        <rect class="cls-5" x="1258.05" y="437.59" width="72.02" height="72.02" transform="translate(1874.21 1723.51) rotate(-135)"/>
        <rect class="cls-5" x="1258.05" y="335.74" width="72.01" height="72.01" transform="translate(1946.22 1549.66) rotate(-135)"/>
        <rect class="cls-5" x="1258.05" y="233.9" width="72.02" height="72.02" transform="translate(2018.23 1375.8) rotate(-135)"/>
        <rect class="cls-5" x="1258.05" y="132.06" width="72.01" height="72.01" transform="translate(2090.25 1201.94) rotate(-135)"/>
        <rect class="cls-5" x="1258.05" y="30.21" width="72.01" height="72.01" transform="translate(2162.27 1028.08) rotate(-135)"/>
        <rect class="cls-5" x="1308.97" y="692.2" width="72.02" height="72.02" transform="translate(1781.1 2194.17) rotate(-135)"/>
        <rect class="cls-5" x="1308.97" y="590.36" width="72.01" height="72.01" transform="translate(1853.11 2020.31) rotate(-135)"/>
        <rect class="cls-5" x="1308.97" y="488.51" width="72.02" height="72.02" transform="translate(1925.12 1846.45) rotate(-135)"/>
        <rect class="cls-5" x="1308.97" y="386.67" width="72.01" height="72.01" transform="translate(1997.14 1672.59) rotate(-135)"/>
        <rect class="cls-5" x="1308.97" y="284.82" width="72.01" height="72.01" transform="translate(2069.16 1498.73) rotate(-135)"/>
        <rect class="cls-5" x="1308.97" y="182.98" width="72.02" height="72.02" transform="translate(2141.17 1324.87) rotate(-135)"/>
        <rect class="cls-5" x="1308.97" y="81.13" width="72.01" height="72.01" transform="translate(2213.19 1151.01) rotate(-135)"/>
        <rect class="cls-5" x="1359.89" y="743.12" width="72.02" height="72.02" transform="translate(1832.02 2317.11) rotate(-135)"/>
        <rect class="cls-5" x="1359.89" y="641.28" width="72.02" height="72.02" transform="translate(1904.04 2143.25) rotate(-135)"/>
        <rect class="cls-5" x="1359.89" y="539.43" width="72.02" height="72.02" transform="translate(1976.06 1969.39) rotate(-135)"/>
        <rect class="cls-5" x="1359.89" y="437.59" width="72.02" height="72.02" transform="translate(2048.07 1795.53) rotate(-135)"/>
        <rect class="cls-5" x="1359.89" y="335.74" width="72.02" height="72.02" transform="translate(2120.09 1621.67) rotate(-135)"/>
        <rect class="cls-5" x="1359.89" y="233.9" width="72.02" height="72.02" transform="translate(2192.1 1447.81) rotate(-135)"/>
        <rect class="cls-5" x="1359.89" y="132.06" width="72.02" height="72.02" transform="translate(2264.12 1273.95) rotate(-135)"/>
        <rect class="cls-5" x="1359.89" y="30.21" width="72.02" height="72.02" transform="translate(2336.13 1100.09) rotate(-135)"/>
        <rect class="cls-5" x="1410.81" y="692.2" width="72.02" height="72.02" transform="translate(1954.96 2266.19) rotate(-135)"/>
        <rect class="cls-5" x="1410.81" y="590.36" width="72.02" height="72.02" transform="translate(2026.97 2092.33) rotate(-135)"/>
        <rect class="cls-5" x="1410.81" y="488.51" width="72.02" height="72.02" transform="translate(2098.98 1918.47) rotate(-135)"/>
        <rect class="cls-5" x="1410.81" y="386.67" width="72.02" height="72.02" transform="translate(2171 1744.61) rotate(-135)"/>
        <rect class="cls-5" x="1410.81" y="284.82" width="72.02" height="72.02" transform="translate(2243.02 1570.75) rotate(-135)"/>
        <rect class="cls-5" x="1410.81" y="182.98" width="72.02" height="72.02" transform="translate(2315.03 1396.89) rotate(-135)"/>
        <rect class="cls-5" x="1410.81" y="81.13" width="72.02" height="72.02" transform="translate(2387.05 1223.03) rotate(-135)"/>
        <rect class="cls-5" x="1461.74" y="743.12" width="72.02" height="72.02" transform="translate(2005.87 2389.13) rotate(-135)"/>
        <rect class="cls-5" x="1461.74" y="641.28" width="72.01" height="72.01" transform="translate(2077.9 2215.26) rotate(-135)"/>
        <rect class="cls-5" x="1461.74" y="539.43" width="72.01" height="72.01" transform="translate(2149.91 2041.4) rotate(-135)"/>
        <rect class="cls-5" x="1461.74" y="437.59" width="72.02" height="72.02" transform="translate(2221.93 1867.54) rotate(-135)"/>
        <rect class="cls-5" x="1461.74" y="335.74" width="72.01" height="72.01" transform="translate(2293.94 1693.69) rotate(-135)"/>
        <rect class="cls-5" x="1461.74" y="233.9" width="72.02" height="72.02" transform="translate(2365.95 1519.83) rotate(-135)"/>
        <rect class="cls-5" x="1461.74" y="132.06" width="72.01" height="72.01" transform="translate(2437.97 1345.97) rotate(-135)"/>
        <rect class="cls-5" x="1461.74" y="30.21" width="72.01" height="72.01" transform="translate(2509.99 1172.11) rotate(-135)"/>
        <rect class="cls-5" x="1512.66" y="692.2" width="72.02" height="72.02" transform="translate(2128.82 2338.2) rotate(-135)"/>
        <rect class="cls-5" x="1512.66" y="590.36" width="72.01" height="72.01" transform="translate(2200.83 2164.34) rotate(-135)"/>
        <rect class="cls-5" x="1512.66" y="488.51" width="72.02" height="72.02" transform="translate(2272.84 1990.49) rotate(-135)"/>
        <rect class="cls-5" x="1512.66" y="386.67" width="72.01" height="72.01" transform="translate(2344.86 1816.62) rotate(-135)"/>
        <rect class="cls-5" x="1512.66" y="284.82" width="72.01" height="72.01" transform="translate(2416.88 1642.76) rotate(-135)"/>
        <rect class="cls-5" x="1512.66" y="182.98" width="72.02" height="72.02" transform="translate(2488.89 1468.9) rotate(-135)"/>
        <rect class="cls-5" x="1512.66" y="81.13" width="72.01" height="72.01" transform="translate(2560.91 1295.04) rotate(-135)"/>
        <rect class="cls-5" x="1563.58" y="743.12" width="72.02" height="72.02" transform="translate(2179.73 2461.14) rotate(-135)"/>
        <rect class="cls-5" x="1563.58" y="641.28" width="72.01" height="72.01" transform="translate(2251.76 2287.28) rotate(-135)"/>
        <rect class="cls-5" x="1563.58" y="539.43" width="72.01" height="72.01" transform="translate(2323.77 2113.42) rotate(-135)"/>
        <rect class="cls-5" x="1563.58" y="437.59" width="72.02" height="72.02" transform="translate(2395.79 1939.56) rotate(-135)"/>
        <rect class="cls-5" x="1563.58" y="335.74" width="72.01" height="72.01" transform="translate(2467.8 1765.7) rotate(-135)"/>
        <rect class="cls-5" x="1563.58" y="233.9" width="72.02" height="72.02" transform="translate(2539.81 1591.84) rotate(-135)"/>
        <rect class="cls-5" x="1563.58" y="132.06" width="72.01" height="72.01" transform="translate(2611.83 1417.98) rotate(-135)"/>
        <rect class="cls-5" x="1563.58" y="30.21" width="72.01" height="72.01" transform="translate(2683.85 1244.12) rotate(-135)"/>
        <rect class="cls-5" x="1614.5" y="692.2" width="72.02" height="72.02" transform="translate(2302.69 2410.21) rotate(-135)"/>
        <rect class="cls-5" x="1614.5" y="590.36" width="72.02" height="72.02" transform="translate(2374.7 2236.35) rotate(-135)"/>
        <rect class="cls-5" x="1614.5" y="488.51" width="72.02" height="72.02" transform="translate(2446.71 2062.5) rotate(-135)"/>
        <rect class="cls-5" x="1614.5" y="386.67" width="72.02" height="72.02" transform="translate(2518.73 1888.63) rotate(-135)"/>
        <rect class="cls-5" x="1614.5" y="284.82" width="72.02" height="72.02" transform="translate(2590.74 1714.77) rotate(-135)"/>
        <rect class="cls-5" x="1614.5" y="182.98" width="72.02" height="72.02" transform="translate(2662.76 1540.91) rotate(-135)"/>
        <rect class="cls-5" x="1614.5" y="81.13" width="72.02" height="72.02" transform="translate(2734.77 1367.05) rotate(-135)"/>
        <rect class="cls-5" x="1665.43" y="743.12" width="72.02" height="72.02" transform="translate(2353.59 2533.16) rotate(-135)"/>
        <rect class="cls-5" x="1665.43" y="641.28" width="72.02" height="72.02" transform="translate(2425.62 2359.29) rotate(-135)"/>
        <rect class="cls-5" x="1665.43" y="539.43" width="72.02" height="72.02" transform="translate(2497.63 2185.43) rotate(-135)"/>
        <rect class="cls-5" x="1665.43" y="437.59" width="72.02" height="72.02" transform="translate(2569.65 2011.57) rotate(-135)"/>
        <rect class="cls-5" x="1665.43" y="335.74" width="72.02" height="72.02" transform="translate(2641.66 1837.72) rotate(-135)"/>
        <rect class="cls-5" x="1665.43" y="233.9" width="72.02" height="72.02" transform="translate(2713.67 1663.86) rotate(-135)"/>
        <rect class="cls-5" x="1665.43" y="132.06" width="72.02" height="72.02" transform="translate(2785.69 1490) rotate(-135)"/>
        <rect class="cls-5" x="1665.43" y="30.21" width="72.02" height="72.02" transform="translate(2857.71 1316.14) rotate(-135)"/>
        <rect class="cls-5" x="1716.35" y="692.2" width="72.02" height="72.02" transform="translate(2476.54 2482.23) rotate(-135)"/>
        <rect class="cls-5" x="1716.35" y="590.36" width="72.01" height="72.01" transform="translate(2548.55 2308.37) rotate(-135)"/>
        <rect class="cls-5" x="1716.35" y="488.51" width="72.02" height="72.02" transform="translate(2620.56 2134.52) rotate(-135)"/>
        <rect class="cls-5" x="1716.35" y="386.67" width="72.01" height="72.01" transform="translate(2692.58 1960.65) rotate(-135)"/>
        <rect class="cls-5" x="1716.35" y="284.82" width="72.01" height="72.01" transform="translate(2764.6 1786.79) rotate(-135)"/>
        <rect class="cls-5" x="1716.35" y="182.98" width="72.02" height="72.02" transform="translate(2836.61 1612.93) rotate(-135)"/>
        <rect class="cls-5" x="1716.35" y="81.13" width="72.01" height="72.01" transform="translate(2908.63 1439.07) rotate(-135)"/>
        <rect class="cls-5" x="1767.27" y="743.12" width="72.02" height="72.02" transform="translate(2527.45 2605.17) rotate(-135)"/>
        <rect class="cls-5" x="1767.27" y="641.28" width="72.01" height="72.01" transform="translate(2599.48 2431.31) rotate(-135)"/>
        <rect class="cls-5" x="1767.27" y="539.43" width="72.01" height="72.01" transform="translate(2671.49 2257.45) rotate(-135)"/>
        <rect class="cls-5" x="1767.27" y="437.59" width="72.02" height="72.02" transform="translate(2743.51 2083.59) rotate(-135)"/>
        <rect class="cls-5" x="1767.27" y="335.74" width="72.01" height="72.01" transform="translate(2815.52 1909.73) rotate(-135)"/>
        <rect class="cls-5" x="1767.27" y="233.9" width="72.02" height="72.02" transform="translate(2887.53 1735.88) rotate(-135)"/>
        <rect class="cls-5" x="1767.27" y="132.06" width="72.01" height="72.01" transform="translate(2959.55 1562.01) rotate(-135)"/>
        <rect class="cls-5" x="1767.27" y="30.21" width="72.01" height="72.01" transform="translate(3031.56 1388.15) rotate(-135)"/>
        <rect class="cls-5" x="1818.19" y="692.2" width="72.02" height="72.02" transform="translate(2650.4 2554.25) rotate(-135)"/>
        <rect class="cls-5" x="1818.19" y="590.36" width="72.01" height="72.01" transform="translate(2722.41 2380.39) rotate(-135)"/>
        <rect class="cls-5" x="1818.19" y="488.51" width="72.02" height="72.02" transform="translate(2794.42 2206.53) rotate(-135)"/>
        <rect class="cls-5" x="1818.19" y="386.67" width="72.01" height="72.01" transform="translate(2866.44 2032.67) rotate(-135)"/>
        <rect class="cls-5" x="1818.19" y="284.82" width="72.01" height="72.01" transform="translate(2938.46 1858.81) rotate(-135)"/>
        <rect class="cls-5" x="1818.19" y="182.98" width="72.02" height="72.02" transform="translate(3010.47 1684.95) rotate(-135)"/>
        <rect class="cls-5" x="1818.19" y="81.13" width="72.01" height="72.01" transform="translate(3082.49 1511.09) rotate(-135)"/>
        <rect class="cls-5" x="1869.11" y="743.12" width="72.02" height="72.02" transform="translate(2701.32 2677.18) rotate(-135)"/>
        <rect class="cls-5" x="1869.12" y="641.28" width="72.02" height="72.02" transform="translate(2773.34 2503.32) rotate(-135)"/>
        <rect class="cls-5" x="1869.12" y="539.43" width="72.02" height="72.02" transform="translate(2845.36 2329.46) rotate(-135)"/>
        <rect class="cls-5" x="1869.11" y="437.59" width="72.02" height="72.02" transform="translate(2917.37 2155.6) rotate(-135)"/>
        <rect class="cls-5" x="1869.12" y="335.74" width="72.02" height="72.02" transform="translate(2989.39 1981.74) rotate(-135)"/>
        <rect class="cls-5" x="1869.11" y="233.9" width="72.02" height="72.02" transform="translate(3061.39 1807.89) rotate(-135)"/>
        <rect class="cls-5" x="1869.12" y="132.06" width="72.02" height="72.02" transform="translate(3133.42 1634.02) rotate(-135)"/>
        <rect class="cls-5" x="1869.12" y="30.21" width="72.02" height="72.02" transform="translate(3205.43 1460.16) rotate(-135)"/>
        <rect class="cls-4" x="1174.21" y="761.13" width="36.01" height="36.01" transform="translate(1484.3 2173.08) rotate(-135)"/>
        <rect class="cls-4" x="1174.21" y="659.28" width="36.01" height="36.01" transform="translate(1556.32 1999.22) rotate(-135)"/>
        <rect class="cls-4" x="1174.21" y="557.44" width="36.01" height="36.01" transform="translate(1628.33 1825.36) rotate(-135)"/>
        <rect class="cls-4" x="1174.21" y="455.59" width="36.01" height="36.01" transform="translate(1700.35 1651.5) rotate(-135)"/>
        <rect class="cls-4" x="1174.21" y="353.75" width="36.01" height="36.01" transform="translate(1772.36 1477.64) rotate(-135)"/>
        <rect class="cls-4" x="1174.21" y="251.9" width="36.01" height="36.01" transform="translate(1844.38 1303.78) rotate(-135)"/>
        <rect class="cls-4" x="1174.21" y="150.06" width="36.01" height="36.01" transform="translate(1916.39 1129.92) rotate(-135)"/>
        <rect class="cls-4" x="1174.21" y="48.21" width="36.01" height="36.01" transform="translate(1988.41 956.06) rotate(-135)"/>
        <rect class="cls-4" x="1225.13" y="710.2" width="36.01" height="36.01" transform="translate(1607.24 2122.16) rotate(-135)"/>
        <rect class="cls-4" x="1225.13" y="608.36" width="36.01" height="36.01" transform="translate(1679.26 1948.3) rotate(-135)"/>
        <rect class="cls-4" x="1225.13" y="506.52" width="36.01" height="36.01" transform="translate(1751.27 1774.44) rotate(-135)"/>
        <rect class="cls-4" x="1225.13" y="404.67" width="36.01" height="36.01" transform="translate(1823.29 1600.58) rotate(-135)"/>
        <rect class="cls-4" x="1225.13" y="302.83" width="36.01" height="36.01" transform="translate(1895.3 1426.72) rotate(-135)"/>
        <rect class="cls-4" x="1225.13" y="200.98" width="36.01" height="36.01" transform="translate(1967.32 1252.86) rotate(-135)"/>
        <rect class="cls-4" x="1225.13" y="99.14" width="36.01" height="36.01" transform="translate(2039.33 1079) rotate(-135)"/>
        <rect class="cls-4" x="1276.05" y="761.13" width="36.01" height="36.01" transform="translate(1658.16 2245.09) rotate(-135)"/>
        <rect class="cls-4" x="1276.05" y="659.28" width="36.01" height="36.01" transform="translate(1730.18 2071.23) rotate(-135)"/>
        <rect class="cls-4" x="1276.05" y="557.44" width="36.01" height="36.01" transform="translate(1802.19 1897.37) rotate(-135)"/>
        <rect class="cls-4" x="1276.05" y="455.59" width="36.01" height="36.01" transform="translate(1874.21 1723.51) rotate(-135)"/>
        <rect class="cls-4" x="1276.05" y="353.75" width="36.01" height="36.01" transform="translate(1946.22 1549.66) rotate(-135)"/>
        <rect class="cls-4" x="1276.05" y="251.9" width="36.01" height="36.01" transform="translate(2018.24 1375.8) rotate(-135)"/>
        <rect class="cls-4" x="1276.05" y="150.06" width="36.01" height="36.01" transform="translate(2090.25 1201.94) rotate(-135)"/>
        <rect class="cls-4" x="1276.05" y="48.21" width="36.01" height="36.01" transform="translate(2162.27 1028.08) rotate(-135)"/>
        <rect class="cls-4" x="1326.97" y="710.2" width="36.01" height="36.01" transform="translate(1781.1 2194.17) rotate(-135)"/>
        <rect class="cls-4" x="1326.97" y="608.36" width="36.01" height="36.01" transform="translate(1853.11 2020.31) rotate(-135)"/>
        <rect class="cls-4" x="1326.97" y="506.52" width="36.01" height="36.01" transform="translate(1925.13 1846.45) rotate(-135)"/>
        <rect class="cls-4" x="1326.97" y="404.67" width="36.01" height="36.01" transform="translate(1997.14 1672.59) rotate(-135)"/>
        <rect class="cls-4" x="1326.97" y="302.83" width="36.01" height="36.01" transform="translate(2069.16 1498.73) rotate(-135)"/>
        <rect class="cls-4" x="1326.97" y="200.98" width="36.01" height="36.01" transform="translate(2141.17 1324.87) rotate(-135)"/>
        <rect class="cls-4" x="1326.97" y="99.14" width="36.01" height="36.01" transform="translate(2213.19 1151.01) rotate(-135)"/>
        <rect class="cls-4" x="1377.9" y="761.13" width="36.01" height="36.01" transform="translate(1832.02 2317.11) rotate(-135)"/>
        <rect class="cls-4" x="1377.9" y="659.28" width="36.01" height="36.01" transform="translate(1904.04 2143.25) rotate(-135)"/>
        <rect class="cls-4" x="1377.9" y="557.44" width="36.01" height="36.01" transform="translate(1976.05 1969.39) rotate(-135)"/>
        <rect class="cls-4" x="1377.9" y="455.59" width="36.01" height="36.01" transform="translate(2048.07 1795.53) rotate(-135)"/>
        <rect class="cls-4" x="1377.9" y="353.75" width="36.01" height="36.01" transform="translate(2120.08 1621.67) rotate(-135)"/>
        <rect class="cls-4" x="1377.9" y="251.9" width="36.01" height="36.01" transform="translate(2192.1 1447.81) rotate(-135)"/>
        <rect class="cls-4" x="1377.9" y="150.06" width="36.01" height="36.01" transform="translate(2264.11 1273.95) rotate(-135)"/>
        <rect class="cls-4" x="1377.9" y="48.21" width="36.01" height="36.01" transform="translate(2336.13 1100.09) rotate(-135)"/>
        <rect class="cls-4" x="1428.82" y="710.2" width="36.01" height="36.01" transform="translate(1954.96 2266.19) rotate(-135)"/>
        <rect class="cls-4" x="1428.82" y="608.36" width="36.01" height="36.01" transform="translate(2026.97 2092.33) rotate(-135)"/>
        <rect class="cls-4" x="1428.82" y="506.52" width="36.01" height="36.01" transform="translate(2098.99 1918.47) rotate(-135)"/>
        <rect class="cls-4" x="1428.82" y="404.67" width="36.01" height="36.01" transform="translate(2171 1744.61) rotate(-135)"/>
        <rect class="cls-4" x="1428.82" y="302.83" width="36.01" height="36.01" transform="translate(2243.02 1570.75) rotate(-135)"/>
        <rect class="cls-4" x="1428.82" y="200.98" width="36.01" height="36.01" transform="translate(2315.03 1396.89) rotate(-135)"/>
        <rect class="cls-4" x="1428.82" y="99.14" width="36.01" height="36.01" transform="translate(2387.05 1223.03) rotate(-135)"/>
        <rect class="cls-4" x="1479.74" y="761.13" width="36.01" height="36.01" transform="translate(2005.88 2389.12) rotate(-135)"/>
        <rect class="cls-4" x="1479.74" y="659.28" width="36.01" height="36.01" transform="translate(2077.9 2215.26) rotate(-135)"/>
        <rect class="cls-4" x="1479.74" y="557.44" width="36.01" height="36.01" transform="translate(2149.91 2041.4) rotate(-135)"/>
        <rect class="cls-4" x="1479.74" y="455.59" width="36.01" height="36.01" transform="translate(2221.93 1867.54) rotate(-135)"/>
        <rect class="cls-4" x="1479.74" y="353.75" width="36.01" height="36.01" transform="translate(2293.94 1693.69) rotate(-135)"/>
        <rect class="cls-4" x="1479.74" y="251.9" width="36.01" height="36.01" transform="translate(2365.96 1519.83) rotate(-135)"/>
        <rect class="cls-4" x="1479.74" y="150.06" width="36.01" height="36.01" transform="translate(2437.97 1345.97) rotate(-135)"/>
        <rect class="cls-4" x="1479.74" y="48.21" width="36.01" height="36.01" transform="translate(2509.99 1172.11) rotate(-135)"/>
        <rect class="cls-4" x="1530.66" y="710.2" width="36.01" height="36.01" transform="translate(2128.82 2338.2) rotate(-135)"/>
        <rect class="cls-4" x="1530.66" y="608.36" width="36.01" height="36.01" transform="translate(2200.83 2164.34) rotate(-135)"/>
        <rect class="cls-4" x="1530.66" y="506.52" width="36.01" height="36.01" transform="translate(2272.85 1990.48) rotate(-135)"/>
        <rect class="cls-4" x="1530.66" y="404.67" width="36.01" height="36.01" transform="translate(2344.86 1816.62) rotate(-135)"/>
        <rect class="cls-4" x="1530.66" y="302.83" width="36.01" height="36.01" transform="translate(2416.88 1642.76) rotate(-135)"/>
        <rect class="cls-4" x="1530.66" y="200.98" width="36.01" height="36.01" transform="translate(2488.89 1468.9) rotate(-135)"/>
        <rect class="cls-4" x="1530.66" y="99.14" width="36.01" height="36.01" transform="translate(2560.91 1295.04) rotate(-135)"/>
        <rect class="cls-4" x="1581.59" y="761.13" width="36.01" height="36.01" transform="translate(2179.74 2461.14) rotate(-135)"/>
        <rect class="cls-4" x="1581.59" y="659.28" width="36.01" height="36.01" transform="translate(2251.76 2287.28) rotate(-135)"/>
        <rect class="cls-4" x="1581.59" y="557.44" width="36.01" height="36.01" transform="translate(2323.77 2113.42) rotate(-135)"/>
        <rect class="cls-4" x="1581.59" y="455.59" width="36.01" height="36.01" transform="translate(2395.79 1939.56) rotate(-135)"/>
        <rect class="cls-4" x="1581.59" y="353.75" width="36.01" height="36.01" transform="translate(2467.8 1765.7) rotate(-135)"/>
        <rect class="cls-4" x="1581.59" y="251.9" width="36.01" height="36.01" transform="translate(2539.82 1591.84) rotate(-135)"/>
        <rect class="cls-4" x="1581.59" y="150.06" width="36.01" height="36.01" transform="translate(2611.83 1417.98) rotate(-135)"/>
        <rect class="cls-4" x="1581.59" y="48.21" width="36.01" height="36.01" transform="translate(2683.85 1244.12) rotate(-135)"/>
        <rect class="cls-4" x="1632.51" y="710.2" width="36.01" height="36.01" transform="translate(2302.68 2410.22) rotate(-135)"/>
        <rect class="cls-4" x="1632.51" y="608.36" width="36.01" height="36.01" transform="translate(2374.69 2236.36) rotate(-135)"/>
        <rect class="cls-4" x="1632.51" y="506.52" width="36.01" height="36.01" transform="translate(2446.71 2062.5) rotate(-135)"/>
        <rect class="cls-4" x="1632.51" y="404.67" width="36.01" height="36.01" transform="translate(2518.72 1888.64) rotate(-135)"/>
        <rect class="cls-4" x="1632.51" y="302.83" width="36.01" height="36.01" transform="translate(2590.74 1714.78) rotate(-135)"/>
        <rect class="cls-4" x="1632.51" y="200.98" width="36.01" height="36.01" transform="translate(2662.75 1540.92) rotate(-135)"/>
        <rect class="cls-4" x="1632.51" y="99.14" width="36.01" height="36.01" transform="translate(2734.77 1367.06) rotate(-135)"/>
        <rect class="cls-4" x="1683.43" y="761.13" width="36.01" height="36.01" transform="translate(2353.6 2533.15) rotate(-135)"/>
        <rect class="cls-4" x="1683.43" y="659.28" width="36.01" height="36.01" transform="translate(2425.62 2359.29) rotate(-135)"/>
        <rect class="cls-4" x="1683.43" y="557.44" width="36.01" height="36.01" transform="translate(2497.63 2185.43) rotate(-135)"/>
        <rect class="cls-4" x="1683.43" y="455.59" width="36.01" height="36.01" transform="translate(2569.65 2011.57) rotate(-135)"/>
        <rect class="cls-4" x="1683.43" y="353.75" width="36.01" height="36.01" transform="translate(2641.66 1837.72) rotate(-135)"/>
        <rect class="cls-4" x="1683.43" y="251.9" width="36.01" height="36.01" transform="translate(2713.68 1663.86) rotate(-135)"/>
        <rect class="cls-4" x="1683.43" y="150.06" width="36.01" height="36.01" transform="translate(2785.69 1490) rotate(-135)"/>
        <rect class="cls-4" x="1683.43" y="48.21" width="36.01" height="36.01" transform="translate(2857.71 1316.14) rotate(-135)"/>
        <rect class="cls-4" x="1734.35" y="710.2" width="36.01" height="36.01" transform="translate(2476.54 2482.23) rotate(-135)"/>
        <rect class="cls-4" x="1734.35" y="608.36" width="36.01" height="36.01" transform="translate(2548.55 2308.37) rotate(-135)"/>
        <rect class="cls-4" x="1734.35" y="506.52" width="36.01" height="36.01" transform="translate(2620.57 2134.51) rotate(-135)"/>
        <rect class="cls-4" x="1734.35" y="404.67" width="36.01" height="36.01" transform="translate(2692.58 1960.65) rotate(-135)"/>
        <rect class="cls-4" x="1734.35" y="302.83" width="36.01" height="36.01" transform="translate(2764.6 1786.79) rotate(-135)"/>
        <rect class="cls-4" x="1734.35" y="200.98" width="36.01" height="36.01" transform="translate(2836.61 1612.93) rotate(-135)"/>
        <rect class="cls-4" x="1734.35" y="99.14" width="36.01" height="36.01" transform="translate(2908.63 1439.07) rotate(-135)"/>
        <rect class="cls-4" x="1785.27" y="761.13" width="36.01" height="36.01" transform="translate(2527.46 2605.17) rotate(-135)"/>
        <rect class="cls-4" x="1785.27" y="659.28" width="36.01" height="36.01" transform="translate(2599.48 2431.31) rotate(-135)"/>
        <rect class="cls-4" x="1785.27" y="557.44" width="36.01" height="36.01" transform="translate(2671.49 2257.45) rotate(-135)"/>
        <rect class="cls-4" x="1785.27" y="455.59" width="36.01" height="36.01" transform="translate(2743.51 2083.59) rotate(-135)"/>
        <rect class="cls-4" x="1785.27" y="353.75" width="36.01" height="36.01" transform="translate(2815.52 1909.73) rotate(-135)"/>
        <rect class="cls-4" x="1785.27" y="251.9" width="36.01" height="36.01" transform="translate(2887.53 1735.87) rotate(-135)"/>
        <rect class="cls-4" x="1785.27" y="150.06" width="36.01" height="36.01" transform="translate(2959.55 1562.01) rotate(-135)"/>
        <rect class="cls-4" x="1785.27" y="48.21" width="36.01" height="36.01" transform="translate(3031.56 1388.15) rotate(-135)"/>
        <rect class="cls-4" x="1836.2" y="710.2" width="36.01" height="36.01" transform="translate(2650.4 2554.25) rotate(-135)"/>
        <rect class="cls-4" x="1836.2" y="608.36" width="36.01" height="36.01" transform="translate(2722.41 2380.39) rotate(-135)"/>
        <rect class="cls-4" x="1836.2" y="506.52" width="36.01" height="36.01" transform="translate(2794.43 2206.53) rotate(-135)"/>
        <rect class="cls-4" x="1836.2" y="404.67" width="36.01" height="36.01" transform="translate(2866.44 2032.67) rotate(-135)"/>
        <rect class="cls-4" x="1836.2" y="302.83" width="36.01" height="36.01" transform="translate(2938.46 1858.81) rotate(-135)"/>
        <rect class="cls-4" x="1836.2" y="200.98" width="36.01" height="36.01" transform="translate(3010.47 1684.95) rotate(-135)"/>
        <rect class="cls-4" x="1836.2" y="99.14" width="36.01" height="36.01" transform="translate(3082.49 1511.09) rotate(-135)"/>
        <rect class="cls-4" x="1887.12" y="761.13" width="36.01" height="36.01" transform="translate(2701.34 2677.18) rotate(-135)"/>
        <rect class="cls-4" x="1887.12" y="659.28" width="36.01" height="36.01" transform="translate(2773.35 2503.32) rotate(-135)"/>
        <rect class="cls-4" x="1887.12" y="557.44" width="36.01" height="36.01" transform="translate(2845.37 2329.46) rotate(-135)"/>
        <rect class="cls-4" x="1887.12" y="455.59" width="36.01" height="36.01" transform="translate(2917.38 2155.6) rotate(-135)"/>
        <rect class="cls-4" x="1887.12" y="353.75" width="36.01" height="36.01" transform="translate(2989.39 1981.74) rotate(-135)"/>
        <rect class="cls-4" x="1887.12" y="251.9" width="36.01" height="36.01" transform="translate(3061.41 1807.88) rotate(-135)"/>
        <rect class="cls-4" x="1887.12" y="150.06" width="36.01" height="36.01" transform="translate(3133.42 1634.01) rotate(-135)"/>
        <rect class="cls-4" x="1887.12" y="48.21" width="36.01" height="36.01" transform="translate(3205.44 1460.15) rotate(-135)"/>
      </g>
      <g class="cls-2">
        <rect class="cls-5" x="356.19" y="741.39" width="72.02" height="72.02" transform="translate(119.82 1604.43) rotate(-135)"/>
        <rect class="cls-5" x="356.19" y="639.55" width="72.02" height="72.02" transform="translate(191.84 1430.57) rotate(-135)"/>
        <rect class="cls-5" x="356.19" y="537.7" width="72.02" height="72.02" transform="translate(263.85 1256.71) rotate(-135)"/>
        <rect class="cls-5" x="356.19" y="435.86" width="72.02" height="72.02" transform="translate(335.87 1082.85) rotate(-135)"/>
        <rect class="cls-5" x="356.19" y="334.01" width="72.02" height="72.02" transform="translate(407.88 908.99) rotate(-135)"/>
        <rect class="cls-5" x="356.19" y="232.17" width="72.02" height="72.02" transform="translate(479.89 735.13) rotate(-135)"/>
        <rect class="cls-5" x="356.19" y="130.32" width="72.02" height="72.02" transform="translate(551.91 561.27) rotate(-135)"/>
        <rect class="cls-5" x="356.19" y="28.48" width="72.02" height="72.02" transform="translate(623.93 387.41) rotate(-135)"/>
        <rect class="cls-5" x="407.11" y="690.47" width="72.02" height="72.02" transform="translate(242.76 1553.51) rotate(-135)"/>
        <rect class="cls-5" x="407.11" y="588.62" width="72.01" height="72.01" transform="translate(314.77 1379.65) rotate(-135)"/>
        <rect class="cls-5" x="407.11" y="486.78" width="72.02" height="72.02" transform="translate(386.78 1205.79) rotate(-135)"/>
        <rect class="cls-5" x="407.11" y="384.94" width="72.01" height="72.01" transform="translate(458.8 1031.93) rotate(-135)"/>
        <rect class="cls-5" x="407.11" y="283.09" width="72.01" height="72.01" transform="translate(530.82 858.07) rotate(-135)"/>
        <rect class="cls-5" x="407.11" y="181.25" width="72.02" height="72.02" transform="translate(602.83 684.21) rotate(-135)"/>
        <rect class="cls-5" x="407.11" y="79.4" width="72.01" height="72.01" transform="translate(674.85 510.35) rotate(-135)"/>
        <rect class="cls-5" x="458.04" y="741.39" width="72.02" height="72.02" transform="translate(293.68 1676.44) rotate(-135)"/>
        <rect class="cls-5" x="458.04" y="639.55" width="72.01" height="72.01" transform="translate(365.69 1502.58) rotate(-135)"/>
        <rect class="cls-5" x="458.04" y="537.7" width="72.01" height="72.01" transform="translate(437.71 1328.72) rotate(-135)"/>
        <rect class="cls-5" x="458.04" y="435.86" width="72.02" height="72.02" transform="translate(509.72 1154.86) rotate(-135)"/>
        <rect class="cls-5" x="458.04" y="334.01" width="72.01" height="72.01" transform="translate(581.74 981) rotate(-135)"/>
        <rect class="cls-5" x="458.04" y="232.17" width="72.02" height="72.02" transform="translate(653.75 807.15) rotate(-135)"/>
        <rect class="cls-5" x="458.04" y="130.32" width="72.01" height="72.01" transform="translate(725.77 633.29) rotate(-135)"/>
        <rect class="cls-5" x="458.04" y="28.48" width="72.01" height="72.01" transform="translate(797.78 459.43) rotate(-135)"/>
        <rect class="cls-5" x="508.96" y="690.47" width="72.02" height="72.02" transform="translate(416.62 1625.52) rotate(-135)"/>
        <rect class="cls-5" x="508.96" y="588.62" width="72.01" height="72.01" transform="translate(488.63 1451.66) rotate(-135)"/>
        <rect class="cls-5" x="508.96" y="486.78" width="72.02" height="72.02" transform="translate(560.64 1277.8) rotate(-135)"/>
        <rect class="cls-5" x="508.96" y="384.94" width="72.01" height="72.01" transform="translate(632.66 1103.94) rotate(-135)"/>
        <rect class="cls-5" x="508.96" y="283.09" width="72.01" height="72.01" transform="translate(704.68 930.08) rotate(-135)"/>
        <rect class="cls-5" x="508.96" y="181.25" width="72.02" height="72.02" transform="translate(776.69 756.22) rotate(-135)"/>
        <rect class="cls-5" x="508.96" y="79.4" width="72.01" height="72.01" transform="translate(848.71 582.36) rotate(-135)"/>
        <rect class="cls-5" x="559.88" y="741.39" width="72.02" height="72.02" transform="translate(467.54 1748.46) rotate(-135)"/>
        <rect class="cls-5" x="559.88" y="639.55" width="72.02" height="72.02" transform="translate(539.56 1574.6) rotate(-135)"/>
        <rect class="cls-5" x="559.88" y="537.7" width="72.02" height="72.02" transform="translate(611.57 1400.74) rotate(-135)"/>
        <rect class="cls-5" x="559.88" y="435.86" width="72.02" height="72.02" transform="translate(683.59 1226.88) rotate(-135)"/>
        <rect class="cls-5" x="559.88" y="334.01" width="72.02" height="72.02" transform="translate(755.6 1053.02) rotate(-135)"/>
        <rect class="cls-5" x="559.88" y="232.17" width="72.02" height="72.02" transform="translate(827.61 879.16) rotate(-135)"/>
        <rect class="cls-5" x="559.88" y="130.32" width="72.02" height="72.02" transform="translate(899.63 705.3) rotate(-135)"/>
        <rect class="cls-5" x="559.88" y="28.48" width="72.02" height="72.02" transform="translate(971.65 531.44) rotate(-135)"/>
        <rect class="cls-5" x="610.8" y="690.47" width="72.02" height="72.02" transform="translate(590.48 1697.54) rotate(-135)"/>
        <rect class="cls-5" x="610.8" y="588.62" width="72.02" height="72.02" transform="translate(662.49 1523.68) rotate(-135)"/>
        <rect class="cls-5" x="610.8" y="486.78" width="72.02" height="72.02" transform="translate(734.5 1349.82) rotate(-135)"/>
        <rect class="cls-5" x="610.8" y="384.93" width="72.02" height="72.02" transform="translate(806.52 1175.96) rotate(-135)"/>
        <rect class="cls-5" x="610.8" y="283.09" width="72.02" height="72.02" transform="translate(878.54 1002.1) rotate(-135)"/>
        <rect class="cls-5" x="610.8" y="181.25" width="72.02" height="72.02" transform="translate(950.55 828.24) rotate(-135)"/>
        <rect class="cls-5" x="610.8" y="79.4" width="72.02" height="72.02" transform="translate(1022.57 654.38) rotate(-135)"/>
        <rect class="cls-5" x="661.72" y="741.39" width="72.02" height="72.02" transform="translate(641.39 1820.47) rotate(-135)"/>
        <rect class="cls-5" x="661.72" y="639.55" width="72.01" height="72.01" transform="translate(713.41 1646.61) rotate(-135)"/>
        <rect class="cls-5" x="661.72" y="537.7" width="72.01" height="72.01" transform="translate(785.43 1472.75) rotate(-135)"/>
        <rect class="cls-5" x="661.72" y="435.86" width="72.02" height="72.02" transform="translate(857.44 1298.89) rotate(-135)"/>
        <rect class="cls-5" x="661.72" y="334.01" width="72.01" height="72.01" transform="translate(929.46 1125.03) rotate(-135)"/>
        <rect class="cls-5" x="661.72" y="232.17" width="72.02" height="72.02" transform="translate(1001.47 951.18) rotate(-135)"/>
        <rect class="cls-5" x="661.72" y="130.32" width="72.01" height="72.01" transform="translate(1073.49 777.32) rotate(-135)"/>
        <rect class="cls-5" x="661.72" y="28.48" width="72.01" height="72.01" transform="translate(1145.5 603.46) rotate(-135)"/>
        <rect class="cls-5" x="712.65" y="690.47" width="72.02" height="72.02" transform="translate(764.34 1769.55) rotate(-135)"/>
        <rect class="cls-5" x="712.65" y="588.62" width="72.01" height="72.01" transform="translate(836.35 1595.69) rotate(-135)"/>
        <rect class="cls-5" x="712.65" y="486.78" width="72.02" height="72.02" transform="translate(908.36 1421.83) rotate(-135)"/>
        <rect class="cls-5" x="712.65" y="384.94" width="72.01" height="72.01" transform="translate(980.38 1247.97) rotate(-135)"/>
        <rect class="cls-5" x="712.65" y="283.09" width="72.01" height="72.01" transform="translate(1052.4 1074.11) rotate(-135)"/>
        <rect class="cls-5" x="712.65" y="181.25" width="72.02" height="72.02" transform="translate(1124.41 900.25) rotate(-135)"/>
        <rect class="cls-5" x="712.65" y="79.4" width="72.01" height="72.01" transform="translate(1196.43 726.39) rotate(-135)"/>
        <rect class="cls-5" x="763.57" y="741.39" width="72.02" height="72.02" transform="translate(815.25 1892.49) rotate(-135)"/>
        <rect class="cls-5" x="763.57" y="639.55" width="72.01" height="72.01" transform="translate(887.27 1718.63) rotate(-135)"/>
        <rect class="cls-5" x="763.57" y="537.7" width="72.01" height="72.01" transform="translate(959.29 1544.77) rotate(-135)"/>
        <rect class="cls-5" x="763.57" y="435.86" width="72.02" height="72.02" transform="translate(1031.3 1370.91) rotate(-135)"/>
        <rect class="cls-5" x="763.57" y="334.01" width="72.01" height="72.01" transform="translate(1103.32 1197.05) rotate(-135)"/>
        <rect class="cls-5" x="763.57" y="232.17" width="72.02" height="72.02" transform="translate(1175.33 1023.19) rotate(-135)"/>
        <rect class="cls-5" x="763.57" y="130.32" width="72.01" height="72.01" transform="translate(1247.35 849.33) rotate(-135)"/>
        <rect class="cls-5" x="763.57" y="28.48" width="72.01" height="72.01" transform="translate(1319.36 675.47) rotate(-135)"/>
        <rect class="cls-5" x="814.49" y="690.47" width="72.02" height="72.02" transform="translate(938.2 1841.57) rotate(-135)"/>
        <rect class="cls-5" x="814.49" y="588.62" width="72.02" height="72.02" transform="translate(1010.22 1667.71) rotate(-135)"/>
        <rect class="cls-5" x="814.49" y="486.78" width="72.02" height="72.02" transform="translate(1082.23 1493.85) rotate(-135)"/>
        <rect class="cls-5" x="814.49" y="384.93" width="72.02" height="72.02" transform="translate(1154.24 1319.99) rotate(-135)"/>
        <rect class="cls-5" x="814.49" y="283.09" width="72.02" height="72.02" transform="translate(1226.26 1146.13) rotate(-135)"/>
        <rect class="cls-5" x="814.49" y="181.25" width="72.02" height="72.02" transform="translate(1298.27 972.27) rotate(-135)"/>
        <rect class="cls-5" x="814.49" y="79.4" width="72.02" height="72.02" transform="translate(1370.29 798.41) rotate(-135)"/>
        <rect class="cls-5" x="865.41" y="741.39" width="72.02" height="72.02" transform="translate(989.11 1964.5) rotate(-135)"/>
        <rect class="cls-5" x="865.41" y="639.55" width="72.02" height="72.02" transform="translate(1061.13 1790.64) rotate(-135)"/>
        <rect class="cls-5" x="865.41" y="537.7" width="72.02" height="72.02" transform="translate(1133.15 1616.78) rotate(-135)"/>
        <rect class="cls-5" x="865.41" y="435.86" width="72.02" height="72.02" transform="translate(1205.16 1442.92) rotate(-135)"/>
        <rect class="cls-5" x="865.41" y="334.01" width="72.02" height="72.02" transform="translate(1277.18 1269.06) rotate(-135)"/>
        <rect class="cls-5" x="865.41" y="232.17" width="72.02" height="72.02" transform="translate(1349.19 1095.21) rotate(-135)"/>
        <rect class="cls-5" x="865.41" y="130.32" width="72.02" height="72.02" transform="translate(1421.21 921.35) rotate(-135)"/>
        <rect class="cls-5" x="865.41" y="28.48" width="72.02" height="72.02" transform="translate(1493.22 747.49) rotate(-135)"/>
        <rect class="cls-5" x="916.34" y="690.47" width="72.02" height="72.02" transform="translate(1112.06 1913.58) rotate(-135)"/>
        <rect class="cls-5" x="916.34" y="588.62" width="72.01" height="72.01" transform="translate(1184.07 1739.72) rotate(-135)"/>
        <rect class="cls-5" x="916.34" y="486.78" width="72.02" height="72.02" transform="translate(1256.08 1565.86) rotate(-135)"/>
        <rect class="cls-5" x="916.34" y="384.94" width="72.01" height="72.01" transform="translate(1328.1 1392) rotate(-135)"/>
        <rect class="cls-5" x="916.34" y="283.09" width="72.01" height="72.01" transform="translate(1400.12 1218.14) rotate(-135)"/>
        <rect class="cls-5" x="916.34" y="181.25" width="72.02" height="72.02" transform="translate(1472.13 1044.28) rotate(-135)"/>
        <rect class="cls-5" x="916.34" y="79.4" width="72.01" height="72.01" transform="translate(1544.15 870.42) rotate(-135)"/>
        <rect class="cls-5" x="967.26" y="741.39" width="72.02" height="72.02" transform="translate(1162.97 2036.52) rotate(-135)"/>
        <rect class="cls-5" x="967.26" y="639.55" width="72.01" height="72.01" transform="translate(1234.99 1862.66) rotate(-135)"/>
        <rect class="cls-5" x="967.26" y="537.7" width="72.01" height="72.01" transform="translate(1307.01 1688.8) rotate(-135)"/>
        <rect class="cls-5" x="967.26" y="435.86" width="72.02" height="72.02" transform="translate(1379.02 1514.94) rotate(-135)"/>
        <rect class="cls-5" x="967.26" y="334.01" width="72.01" height="72.01" transform="translate(1451.04 1341.08) rotate(-135)"/>
        <rect class="cls-5" x="967.26" y="232.17" width="72.02" height="72.02" transform="translate(1523.05 1167.22) rotate(-135)"/>
        <rect class="cls-5" x="967.26" y="130.32" width="72.01" height="72.01" transform="translate(1595.07 993.36) rotate(-135)"/>
        <rect class="cls-5" x="967.26" y="28.48" width="72.01" height="72.01" transform="translate(1667.08 819.5) rotate(-135)"/>
        <rect class="cls-5" x="1018.18" y="690.47" width="72.02" height="72.02" transform="translate(1285.91 1985.6) rotate(-135)"/>
        <rect class="cls-5" x="1018.18" y="588.62" width="72.01" height="72.01" transform="translate(1357.93 1811.74) rotate(-135)"/>
        <rect class="cls-5" x="1018.18" y="486.78" width="72.02" height="72.02" transform="translate(1429.94 1637.88) rotate(-135)"/>
        <rect class="cls-5" x="1018.18" y="384.94" width="72.01" height="72.01" transform="translate(1501.96 1464.02) rotate(-135)"/>
        <rect class="cls-5" x="1018.18" y="283.09" width="72.01" height="72.01" transform="translate(1573.97 1290.16) rotate(-135)"/>
        <rect class="cls-5" x="1018.18" y="181.25" width="72.02" height="72.02" transform="translate(1645.99 1116.3) rotate(-135)"/>
        <rect class="cls-5" x="1018.18" y="79.4" width="72.01" height="72.01" transform="translate(1718 942.44) rotate(-135)"/>
        <rect class="cls-5" x="1069.1" y="741.39" width="72.02" height="72.02" transform="translate(1336.84 2108.53) rotate(-135)"/>
        <rect class="cls-5" x="1069.1" y="639.55" width="72.02" height="72.02" transform="translate(1408.86 1934.67) rotate(-135)"/>
        <rect class="cls-5" x="1069.1" y="537.7" width="72.02" height="72.02" transform="translate(1480.87 1760.81) rotate(-135)"/>
        <rect class="cls-5" x="1069.1" y="435.86" width="72.02" height="72.02" transform="translate(1552.89 1586.95) rotate(-135)"/>
        <rect class="cls-5" x="1069.1" y="334.01" width="72.02" height="72.02" transform="translate(1624.9 1413.09) rotate(-135)"/>
        <rect class="cls-5" x="1069.1" y="232.17" width="72.02" height="72.02" transform="translate(1696.91 1239.24) rotate(-135)"/>
        <rect class="cls-5" x="1069.1" y="130.32" width="72.02" height="72.02" transform="translate(1768.93 1065.37) rotate(-135)"/>
        <rect class="cls-5" x="1069.1" y="28.48" width="72.02" height="72.02" transform="translate(1840.95 891.51) rotate(-135)"/>
        <rect class="cls-4" x="374.19" y="759.39" width="36.01" height="36.01" transform="translate(119.82 1604.43) rotate(-135)"/>
        <rect class="cls-4" x="374.19" y="657.55" width="36.01" height="36.01" transform="translate(191.84 1430.57) rotate(-135)"/>
        <rect class="cls-4" x="374.19" y="555.71" width="36.01" height="36.01" transform="translate(263.85 1256.71) rotate(-135)"/>
        <rect class="cls-4" x="374.19" y="453.86" width="36.01" height="36.01" transform="translate(335.87 1082.85) rotate(-135)"/>
        <rect class="cls-4" x="374.19" y="352.02" width="36.01" height="36.01" transform="translate(407.88 908.99) rotate(-135)"/>
        <rect class="cls-4" x="374.19" y="250.17" width="36.01" height="36.01" transform="translate(479.89 735.13) rotate(-135)"/>
        <rect class="cls-4" x="374.19" y="148.33" width="36.01" height="36.01" transform="translate(551.91 561.27) rotate(-135)"/>
        <rect class="cls-4" x="374.19" y="46.48" width="36.01" height="36.01" transform="translate(623.93 387.41) rotate(-135)"/>
        <rect class="cls-4" x="425.12" y="708.47" width="36.01" height="36.01" transform="translate(242.76 1553.51) rotate(-135)"/>
        <rect class="cls-4" x="425.12" y="606.63" width="36.01" height="36.01" transform="translate(314.77 1379.65) rotate(-135)"/>
        <rect class="cls-4" x="425.12" y="504.78" width="36.01" height="36.01" transform="translate(386.79 1205.79) rotate(-135)"/>
        <rect class="cls-4" x="425.12" y="402.94" width="36.01" height="36.01" transform="translate(458.8 1031.93) rotate(-135)"/>
        <rect class="cls-4" x="425.12" y="301.09" width="36.01" height="36.01" transform="translate(530.82 858.07) rotate(-135)"/>
        <rect class="cls-4" x="425.12" y="199.25" width="36.01" height="36.01" transform="translate(602.83 684.21) rotate(-135)"/>
        <rect class="cls-4" x="425.12" y="97.41" width="36.01" height="36.01" transform="translate(674.85 510.35) rotate(-135)"/>
        <rect class="cls-4" x="476.04" y="759.4" width="36.01" height="36.01" transform="translate(293.68 1676.44) rotate(-135)"/>
        <rect class="cls-4" x="476.04" y="657.55" width="36.01" height="36.01" transform="translate(365.69 1502.58) rotate(-135)"/>
        <rect class="cls-4" x="476.04" y="555.71" width="36.01" height="36.01" transform="translate(437.71 1328.72) rotate(-135)"/>
        <rect class="cls-4" x="476.04" y="453.86" width="36.01" height="36.01" transform="translate(509.72 1154.86) rotate(-135)"/>
        <rect class="cls-4" x="476.04" y="352.02" width="36.01" height="36.01" transform="translate(581.74 981) rotate(-135)"/>
        <rect class="cls-4" x="476.04" y="250.17" width="36.01" height="36.01" transform="translate(653.75 807.15) rotate(-135)"/>
        <rect class="cls-4" x="476.04" y="148.33" width="36.01" height="36.01" transform="translate(725.77 633.29) rotate(-135)"/>
        <rect class="cls-4" x="476.04" y="46.48" width="36.01" height="36.01" transform="translate(797.78 459.43) rotate(-135)"/>
        <rect class="cls-4" x="526.96" y="708.47" width="36.01" height="36.01" transform="translate(416.62 1625.52) rotate(-135)"/>
        <rect class="cls-4" x="526.96" y="606.63" width="36.01" height="36.01" transform="translate(488.63 1451.66) rotate(-135)"/>
        <rect class="cls-4" x="526.96" y="504.78" width="36.01" height="36.01" transform="translate(560.65 1277.8) rotate(-135)"/>
        <rect class="cls-4" x="526.96" y="402.94" width="36.01" height="36.01" transform="translate(632.66 1103.94) rotate(-135)"/>
        <rect class="cls-4" x="526.96" y="301.09" width="36.01" height="36.01" transform="translate(704.68 930.08) rotate(-135)"/>
        <rect class="cls-4" x="526.96" y="199.25" width="36.01" height="36.01" transform="translate(776.69 756.22) rotate(-135)"/>
        <rect class="cls-4" x="526.96" y="97.41" width="36.01" height="36.01" transform="translate(848.71 582.36) rotate(-135)"/>
        <rect class="cls-4" x="577.88" y="759.4" width="36.01" height="36.01" transform="translate(467.54 1748.46) rotate(-135)"/>
        <rect class="cls-4" x="577.88" y="657.55" width="36.01" height="36.01" transform="translate(539.55 1574.6) rotate(-135)"/>
        <rect class="cls-4" x="577.88" y="555.71" width="36.01" height="36.01" transform="translate(611.57 1400.74) rotate(-135)"/>
        <rect class="cls-4" x="577.88" y="453.86" width="36.01" height="36.01" transform="translate(683.58 1226.88) rotate(-135)"/>
        <rect class="cls-4" x="577.88" y="352.02" width="36.01" height="36.01" transform="translate(755.6 1053.02) rotate(-135)"/>
        <rect class="cls-4" x="577.88" y="250.17" width="36.01" height="36.01" transform="translate(827.61 879.16) rotate(-135)"/>
        <rect class="cls-4" x="577.88" y="148.33" width="36.01" height="36.01" transform="translate(899.63 705.3) rotate(-135)"/>
        <rect class="cls-4" x="577.88" y="46.48" width="36.01" height="36.01" transform="translate(971.64 531.44) rotate(-135)"/>
        <rect class="cls-4" x="628.81" y="708.47" width="36.01" height="36.01" transform="translate(590.48 1697.54) rotate(-135)"/>
        <rect class="cls-4" x="628.81" y="606.63" width="36.01" height="36.01" transform="translate(662.49 1523.68) rotate(-135)"/>
        <rect class="cls-4" x="628.81" y="504.78" width="36.01" height="36.01" transform="translate(734.51 1349.82) rotate(-135)"/>
        <rect class="cls-4" x="628.81" y="402.94" width="36.01" height="36.01" transform="translate(806.52 1175.96) rotate(-135)"/>
        <rect class="cls-4" x="628.81" y="301.09" width="36.01" height="36.01" transform="translate(878.54 1002.1) rotate(-135)"/>
        <rect class="cls-4" x="628.81" y="199.25" width="36.01" height="36.01" transform="translate(950.55 828.24) rotate(-135)"/>
        <rect class="cls-4" x="628.81" y="97.41" width="36.01" height="36.01" transform="translate(1022.57 654.38) rotate(-135)"/>
        <rect class="cls-4" x="679.73" y="759.4" width="36.01" height="36.01" transform="translate(641.4 1820.47) rotate(-135)"/>
        <rect class="cls-4" x="679.73" y="657.55" width="36.01" height="36.01" transform="translate(713.41 1646.61) rotate(-135)"/>
        <rect class="cls-4" x="679.73" y="555.71" width="36.01" height="36.01" transform="translate(785.43 1472.75) rotate(-135)"/>
        <rect class="cls-4" x="679.73" y="453.86" width="36.01" height="36.01" transform="translate(857.44 1298.89) rotate(-135)"/>
        <rect class="cls-4" x="679.73" y="352.02" width="36.01" height="36.01" transform="translate(929.46 1125.03) rotate(-135)"/>
        <rect class="cls-4" x="679.73" y="250.17" width="36.01" height="36.01" transform="translate(1001.47 951.18) rotate(-135)"/>
        <rect class="cls-4" x="679.73" y="148.33" width="36.01" height="36.01" transform="translate(1073.49 777.32) rotate(-135)"/>
        <rect class="cls-4" x="679.73" y="46.48" width="36.01" height="36.01" transform="translate(1145.5 603.46) rotate(-135)"/>
        <rect class="cls-4" x="730.65" y="708.47" width="36.01" height="36.01" transform="translate(764.34 1769.55) rotate(-135)"/>
        <rect class="cls-4" x="730.65" y="606.63" width="36.01" height="36.01" transform="translate(836.35 1595.69) rotate(-135)"/>
        <rect class="cls-4" x="730.65" y="504.78" width="36.01" height="36.01" transform="translate(908.37 1421.83) rotate(-135)"/>
        <rect class="cls-4" x="730.65" y="402.94" width="36.01" height="36.01" transform="translate(980.38 1247.97) rotate(-135)"/>
        <rect class="cls-4" x="730.65" y="301.09" width="36.01" height="36.01" transform="translate(1052.4 1074.11) rotate(-135)"/>
        <rect class="cls-4" x="730.65" y="199.25" width="36.01" height="36.01" transform="translate(1124.41 900.25) rotate(-135)"/>
        <rect class="cls-4" x="730.65" y="97.41" width="36.01" height="36.01" transform="translate(1196.43 726.39) rotate(-135)"/>
        <rect class="cls-4" x="781.57" y="759.4" width="36.01" height="36.01" transform="translate(815.26 1892.49) rotate(-135)"/>
        <rect class="cls-4" x="781.57" y="657.55" width="36.01" height="36.01" transform="translate(887.27 1718.63) rotate(-135)"/>
        <rect class="cls-4" x="781.57" y="555.71" width="36.01" height="36.01" transform="translate(959.29 1544.77) rotate(-135)"/>
        <rect class="cls-4" x="781.57" y="453.86" width="36.01" height="36.01" transform="translate(1031.3 1370.91) rotate(-135)"/>
        <rect class="cls-4" x="781.57" y="352.02" width="36.01" height="36.01" transform="translate(1103.32 1197.05) rotate(-135)"/>
        <rect class="cls-4" x="781.57" y="250.17" width="36.01" height="36.01" transform="translate(1175.33 1023.19) rotate(-135)"/>
        <rect class="cls-4" x="781.57" y="148.33" width="36.01" height="36.01" transform="translate(1247.35 849.33) rotate(-135)"/>
        <rect class="cls-4" x="781.57" y="46.48" width="36.01" height="36.01" transform="translate(1319.36 675.47) rotate(-135)"/>
        <rect class="cls-4" x="832.49" y="708.47" width="36.01" height="36.01" transform="translate(938.2 1841.57) rotate(-135)"/>
        <rect class="cls-4" x="832.49" y="606.63" width="36.01" height="36.01" transform="translate(1010.21 1667.71) rotate(-135)"/>
        <rect class="cls-4" x="832.49" y="504.78" width="36.01" height="36.01" transform="translate(1082.23 1493.85) rotate(-135)"/>
        <rect class="cls-4" x="832.49" y="402.94" width="36.01" height="36.01" transform="translate(1154.24 1319.99) rotate(-135)"/>
        <rect class="cls-4" x="832.49" y="301.09" width="36.01" height="36.01" transform="translate(1226.26 1146.13) rotate(-135)"/>
        <rect class="cls-4" x="832.49" y="199.25" width="36.01" height="36.01" transform="translate(1298.27 972.27) rotate(-135)"/>
        <rect class="cls-4" x="832.49" y="97.41" width="36.01" height="36.01" transform="translate(1370.29 798.41) rotate(-135)"/>
        <rect class="cls-4" x="883.42" y="759.39" width="36.01" height="36.01" transform="translate(989.12 1964.5) rotate(-135)"/>
        <rect class="cls-4" x="883.42" y="657.55" width="36.01" height="36.01" transform="translate(1061.13 1790.64) rotate(-135)"/>
        <rect class="cls-4" x="883.42" y="555.71" width="36.01" height="36.01" transform="translate(1133.15 1616.78) rotate(-135)"/>
        <rect class="cls-4" x="883.42" y="453.86" width="36.01" height="36.01" transform="translate(1205.16 1442.92) rotate(-135)"/>
        <rect class="cls-4" x="883.42" y="352.02" width="36.01" height="36.01" transform="translate(1277.18 1269.06) rotate(-135)"/>
        <rect class="cls-4" x="883.42" y="250.17" width="36.01" height="36.01" transform="translate(1349.19 1095.21) rotate(-135)"/>
        <rect class="cls-4" x="883.42" y="148.33" width="36.01" height="36.01" transform="translate(1421.21 921.35) rotate(-135)"/>
        <rect class="cls-4" x="883.42" y="46.48" width="36.01" height="36.01" transform="translate(1493.22 747.49) rotate(-135)"/>
        <rect class="cls-4" x="934.34" y="708.47" width="36.01" height="36.01" transform="translate(1112.06 1913.58) rotate(-135)"/>
        <rect class="cls-4" x="934.34" y="606.63" width="36.01" height="36.01" transform="translate(1184.07 1739.72) rotate(-135)"/>
        <rect class="cls-4" x="934.34" y="504.78" width="36.01" height="36.01" transform="translate(1256.09 1565.86) rotate(-135)"/>
        <rect class="cls-4" x="934.34" y="402.94" width="36.01" height="36.01" transform="translate(1328.1 1392) rotate(-135)"/>
        <rect class="cls-4" x="934.34" y="301.09" width="36.01" height="36.01" transform="translate(1400.12 1218.14) rotate(-135)"/>
        <rect class="cls-4" x="934.34" y="199.25" width="36.01" height="36.01" transform="translate(1472.13 1044.28) rotate(-135)"/>
        <rect class="cls-4" x="934.34" y="97.41" width="36.01" height="36.01" transform="translate(1544.15 870.42) rotate(-135)"/>
        <rect class="cls-4" x="985.26" y="759.4" width="36.01" height="36.01" transform="translate(1162.98 2036.52) rotate(-135)"/>
        <rect class="cls-4" x="985.26" y="657.55" width="36.01" height="36.01" transform="translate(1234.99 1862.66) rotate(-135)"/>
        <rect class="cls-4" x="985.26" y="555.71" width="36.01" height="36.01" transform="translate(1307.01 1688.8) rotate(-135)"/>
        <rect class="cls-4" x="985.26" y="453.86" width="36.01" height="36.01" transform="translate(1379.02 1514.94) rotate(-135)"/>
        <rect class="cls-4" x="985.26" y="352.02" width="36.01" height="36.01" transform="translate(1451.04 1341.08) rotate(-135)"/>
        <rect class="cls-4" x="985.26" y="250.17" width="36.01" height="36.01" transform="translate(1523.05 1167.22) rotate(-135)"/>
        <rect class="cls-4" x="985.26" y="148.33" width="36.01" height="36.01" transform="translate(1595.07 993.36) rotate(-135)"/>
        <rect class="cls-4" x="985.26" y="46.48" width="36.01" height="36.01" transform="translate(1667.08 819.5) rotate(-135)"/>
        <rect class="cls-4" x="1036.18" y="708.47" width="36.01" height="36.01" transform="translate(1285.91 1985.6) rotate(-135)"/>
        <rect class="cls-4" x="1036.18" y="606.63" width="36.01" height="36.01" transform="translate(1357.93 1811.74) rotate(-135)"/>
        <rect class="cls-4" x="1036.18" y="504.78" width="36.01" height="36.01" transform="translate(1429.94 1637.88) rotate(-135)"/>
        <rect class="cls-4" x="1036.18" y="402.94" width="36.01" height="36.01" transform="translate(1501.96 1464.02) rotate(-135)"/>
        <rect class="cls-4" x="1036.18" y="301.09" width="36.01" height="36.01" transform="translate(1573.97 1290.16) rotate(-135)"/>
        <rect class="cls-4" x="1036.18" y="199.25" width="36.01" height="36.01" transform="translate(1645.99 1116.3) rotate(-135)"/>
        <rect class="cls-4" x="1036.18" y="97.41" width="36.01" height="36.01" transform="translate(1718 942.44) rotate(-135)"/>
        <rect class="cls-4" x="1087.11" y="759.39" width="36.01" height="36.01" transform="translate(1336.85 2108.53) rotate(-135)"/>
        <rect class="cls-4" x="1087.11" y="657.55" width="36.01" height="36.01" transform="translate(1408.86 1934.67) rotate(-135)"/>
        <rect class="cls-4" x="1087.11" y="555.71" width="36.01" height="36.01" transform="translate(1480.88 1760.81) rotate(-135)"/>
        <rect class="cls-4" x="1087.11" y="453.86" width="36.01" height="36.01" transform="translate(1552.89 1586.95) rotate(-135)"/>
        <rect class="cls-4" x="1087.11" y="352.02" width="36.01" height="36.01" transform="translate(1624.91 1413.09) rotate(-135)"/>
        <rect class="cls-4" x="1087.11" y="250.17" width="36.01" height="36.01" transform="translate(1696.92 1239.23) rotate(-135)"/>
        <rect class="cls-4" x="1087.11" y="148.33" width="36.01" height="36.01" transform="translate(1768.93 1065.37) rotate(-135)"/>
        <rect class="cls-4" x="1087.11" y="46.48" width="36.01" height="36.01" transform="translate(1840.95 891.51) rotate(-135)"/>
      </g>
      <g class="cls-2">
        <rect class="cls-5" x="1968.89" y="741.87" width="72.02" height="72.02" transform="translate(2872.52 2745.6) rotate(-135)"/>
        <rect class="cls-5" x="1968.89" y="640.03" width="72.02" height="72.02" transform="translate(2944.55 2571.74) rotate(-135)"/>
        <rect class="cls-5" x="1968.89" y="538.18" width="72.02" height="72.02" transform="translate(3016.56 2397.88) rotate(-135)"/>
        <rect class="cls-5" x="1968.89" y="436.34" width="72.02" height="72.02" transform="translate(3088.58 2224.02) rotate(-135)"/>
        <rect class="cls-5" x="1968.89" y="334.49" width="72.02" height="72.02" transform="translate(3160.59 2050.16) rotate(-135)"/>
        <rect class="cls-5" x="1968.89" y="232.65" width="72.02" height="72.02" transform="translate(3232.6 1876.31) rotate(-135)"/>
        <rect class="cls-5" x="1968.89" y="130.8" width="72.02" height="72.02" transform="translate(3304.62 1702.44) rotate(-135)"/>
        <rect class="cls-5" x="1968.89" y="28.96" width="72.02" height="72.02" transform="translate(3376.64 1528.58) rotate(-135)"/>
        <rect class="cls-5" x="2019.81" y="690.95" width="72.02" height="72.02" transform="translate(2995.47 2694.68) rotate(-135)"/>
        <rect class="cls-5" x="2019.81" y="589.11" width="72.01" height="72.01" transform="translate(3067.48 2520.82) rotate(-135)"/>
        <rect class="cls-5" x="2019.81" y="487.26" width="72.02" height="72.02" transform="translate(3139.49 2346.96) rotate(-135)"/>
        <rect class="cls-5" x="2019.81" y="385.42" width="72.01" height="72.01" transform="translate(3211.51 2173.1) rotate(-135)"/>
        <rect class="cls-5" x="2019.81" y="283.57" width="72.01" height="72.01" transform="translate(3283.53 1999.24) rotate(-135)"/>
        <rect class="cls-5" x="2019.81" y="181.73" width="72.02" height="72.02" transform="translate(3355.54 1825.38) rotate(-135)"/>
        <rect class="cls-5" x="2019.81" y="79.88" width="72.01" height="72.01" transform="translate(3427.56 1651.52) rotate(-135)"/>
        <rect class="cls-5" x="2070.74" y="741.87" width="72.02" height="72.02" transform="translate(3046.38 2817.62) rotate(-135)"/>
        <rect class="cls-5" x="2070.74" y="640.03" width="72.01" height="72.01" transform="translate(3118.41 2643.76) rotate(-135)"/>
        <rect class="cls-5" x="2070.74" y="538.18" width="72.01" height="72.01" transform="translate(3190.42 2469.9) rotate(-135)"/>
        <rect class="cls-5" x="2070.74" y="436.34" width="72.02" height="72.02" transform="translate(3262.44 2296.04) rotate(-135)"/>
        <rect class="cls-5" x="2070.74" y="334.49" width="72.01" height="72.01" transform="translate(3334.45 2122.18) rotate(-135)"/>
        <rect class="cls-5" x="2070.74" y="232.65" width="72.02" height="72.02" transform="translate(3406.46 1948.32) rotate(-135)"/>
        <rect class="cls-5" x="2070.74" y="130.8" width="72.01" height="72.01" transform="translate(3478.48 1774.46) rotate(-135)"/>
        <rect class="cls-5" x="2070.74" y="28.96" width="72.01" height="72.01" transform="translate(3550.5 1600.6) rotate(-135)"/>
        <rect class="cls-5" x="2121.66" y="690.95" width="72.02" height="72.02" transform="translate(3169.33 2766.69) rotate(-135)"/>
        <rect class="cls-5" x="2121.66" y="589.11" width="72.01" height="72.01" transform="translate(3241.34 2592.83) rotate(-135)"/>
        <rect class="cls-5" x="2121.66" y="487.26" width="72.02" height="72.02" transform="translate(3313.35 2418.98) rotate(-135)"/>
        <rect class="cls-5" x="2121.66" y="385.42" width="72.01" height="72.01" transform="translate(3385.37 2245.11) rotate(-135)"/>
        <rect class="cls-5" x="2121.66" y="283.57" width="72.01" height="72.01" transform="translate(3457.39 2071.26) rotate(-135)"/>
        <rect class="cls-5" x="2121.66" y="181.73" width="72.02" height="72.02" transform="translate(3529.4 1897.4) rotate(-135)"/>
        <rect class="cls-5" x="2121.66" y="79.88" width="72.01" height="72.01" transform="translate(3601.42 1723.54) rotate(-135)"/>
        <rect class="cls-5" x="2172.58" y="741.87" width="72.02" height="72.02" transform="translate(3220.25 2889.63) rotate(-135)"/>
        <rect class="cls-5" x="2172.58" y="640.03" width="72.02" height="72.02" transform="translate(3292.28 2715.77) rotate(-135)"/>
        <rect class="cls-5" x="2172.58" y="538.18" width="72.02" height="72.02" transform="translate(3364.29 2541.91) rotate(-135)"/>
        <rect class="cls-5" x="2172.58" y="436.34" width="72.02" height="72.02" transform="translate(3436.31 2368.05) rotate(-135)"/>
        <rect class="cls-5" x="2172.58" y="334.49" width="72.02" height="72.02" transform="translate(3508.32 2194.19) rotate(-135)"/>
        <rect class="cls-5" x="2172.58" y="232.65" width="72.02" height="72.02" transform="translate(3580.33 2020.33) rotate(-135)"/>
        <rect class="cls-5" x="2172.58" y="130.8" width="72.02" height="72.02" transform="translate(3652.35 1846.47) rotate(-135)"/>
        <rect class="cls-5" x="2172.58" y="28.96" width="72.02" height="72.02" transform="translate(3724.36 1672.61) rotate(-135)"/>
        <rect class="cls-5" x="2223.5" y="690.95" width="72.02" height="72.02" transform="translate(3343.19 2838.71) rotate(-135)"/>
        <rect class="cls-5" x="2223.5" y="589.11" width="72.02" height="72.02" transform="translate(3415.2 2664.85) rotate(-135)"/>
        <rect class="cls-5" x="2223.5" y="487.26" width="72.02" height="72.02" transform="translate(3487.21 2491) rotate(-135)"/>
        <rect class="cls-5" x="2223.5" y="385.42" width="72.02" height="72.02" transform="translate(3559.23 2317.13) rotate(-135)"/>
        <rect class="cls-5" x="2223.5" y="283.57" width="72.02" height="72.02" transform="translate(3631.25 2143.27) rotate(-135)"/>
        <rect class="cls-5" x="2223.5" y="181.73" width="72.02" height="72.02" transform="translate(3703.26 1969.41) rotate(-135)"/>
        <rect class="cls-5" x="2223.5" y="79.88" width="72.02" height="72.02" transform="translate(3775.28 1795.55) rotate(-135)"/>
        <rect class="cls-5" x="2274.42" y="741.87" width="72.02" height="72.02" transform="translate(3394.1 2961.65) rotate(-135)"/>
        <rect class="cls-5" x="2274.42" y="640.03" width="72.01" height="72.01" transform="translate(3466.13 2787.79) rotate(-135)"/>
        <rect class="cls-5" x="2274.42" y="538.18" width="72.01" height="72.01" transform="translate(3538.14 2613.93) rotate(-135)"/>
        <rect class="cls-5" x="2274.42" y="436.34" width="72.02" height="72.02" transform="translate(3610.16 2440.07) rotate(-135)"/>
        <rect class="cls-5" x="2274.42" y="334.49" width="72.01" height="72.01" transform="translate(3682.17 2266.21) rotate(-135)"/>
        <rect class="cls-5" x="2274.42" y="232.65" width="72.02" height="72.02" transform="translate(3754.18 2092.35) rotate(-135)"/>
        <rect class="cls-5" x="2274.42" y="130.8" width="72.01" height="72.01" transform="translate(3826.2 1918.49) rotate(-135)"/>
        <rect class="cls-5" x="2274.42" y="28.96" width="72.01" height="72.01" transform="translate(3898.22 1744.63) rotate(-135)"/>
        <rect class="cls-5" x="2325.35" y="690.95" width="72.02" height="72.02" transform="translate(3517.05 2910.72) rotate(-135)"/>
        <rect class="cls-5" x="2325.35" y="589.11" width="72.01" height="72.01" transform="translate(3589.06 2736.86) rotate(-135)"/>
        <rect class="cls-5" x="2325.35" y="487.26" width="72.02" height="72.02" transform="translate(3661.07 2563.01) rotate(-135)"/>
        <rect class="cls-5" x="2325.35" y="385.42" width="72.01" height="72.01" transform="translate(3733.09 2389.14) rotate(-135)"/>
        <rect class="cls-5" x="2325.35" y="283.57" width="72.01" height="72.01" transform="translate(3805.11 2215.29) rotate(-135)"/>
        <rect class="cls-5" x="2325.35" y="181.73" width="72.02" height="72.02" transform="translate(3877.12 2041.43) rotate(-135)"/>
        <rect class="cls-5" x="2325.35" y="79.88" width="72.01" height="72.01" transform="translate(3949.14 1867.57) rotate(-135)"/>
        <rect class="cls-5" x="2376.27" y="741.87" width="72.02" height="72.02" transform="translate(3567.96 3033.67) rotate(-135)"/>
        <rect class="cls-5" x="2376.27" y="640.03" width="72.01" height="72.01" transform="translate(3639.99 2859.8) rotate(-135)"/>
        <rect class="cls-5" x="2376.27" y="538.18" width="72.01" height="72.01" transform="translate(3712 2685.94) rotate(-135)"/>
        <rect class="cls-5" x="2376.27" y="436.34" width="72.02" height="72.02" transform="translate(3784.02 2512.08) rotate(-135)"/>
        <rect class="cls-5" x="2376.27" y="334.49" width="72.01" height="72.01" transform="translate(3856.03 2338.22) rotate(-135)"/>
        <rect class="cls-5" x="2376.27" y="232.65" width="72.02" height="72.02" transform="translate(3928.04 2164.37) rotate(-135)"/>
        <rect class="cls-5" x="2376.27" y="130.8" width="72.01" height="72.01" transform="translate(4000.06 1990.5) rotate(-135)"/>
        <rect class="cls-5" x="2376.27" y="28.96" width="72.01" height="72.01" transform="translate(4072.07 1816.64) rotate(-135)"/>
        <rect class="cls-5" x="2427.19" y="690.95" width="72.02" height="72.02" transform="translate(3690.92 2982.73) rotate(-135)"/>
        <rect class="cls-5" x="2427.19" y="589.11" width="72.02" height="72.02" transform="translate(3762.93 2808.87) rotate(-135)"/>
        <rect class="cls-5" x="2427.19" y="487.26" width="72.02" height="72.02" transform="translate(3834.94 2635.02) rotate(-135)"/>
        <rect class="cls-5" x="2427.19" y="385.42" width="72.02" height="72.02" transform="translate(3906.96 2461.15) rotate(-135)"/>
        <rect class="cls-5" x="2427.19" y="283.57" width="72.02" height="72.02" transform="translate(3978.98 2287.29) rotate(-135)"/>
        <rect class="cls-5" x="2427.19" y="181.73" width="72.02" height="72.02" transform="translate(4050.99 2113.43) rotate(-135)"/>
        <rect class="cls-5" x="2427.19" y="79.88" width="72.02" height="72.02" transform="translate(4123.01 1939.57) rotate(-135)"/>
        <rect class="cls-5" x="2478.11" y="741.87" width="72.02" height="72.02" transform="translate(3741.82 3105.68) rotate(-135)"/>
        <rect class="cls-5" x="2478.11" y="640.03" width="72.02" height="72.02" transform="translate(3813.84 2931.82) rotate(-135)"/>
        <rect class="cls-5" x="2478.11" y="538.18" width="72.02" height="72.02" transform="translate(3885.86 2757.96) rotate(-135)"/>
        <rect class="cls-5" x="2478.11" y="436.34" width="72.02" height="72.02" transform="translate(3957.87 2584.1) rotate(-135)"/>
        <rect class="cls-5" x="2478.11" y="334.49" width="72.02" height="72.02" transform="translate(4029.89 2410.24) rotate(-135)"/>
        <rect class="cls-5" x="2478.11" y="232.65" width="72.02" height="72.02" transform="translate(4101.9 2236.39) rotate(-135)"/>
        <rect class="cls-5" x="2478.11" y="130.8" width="72.02" height="72.02" transform="translate(4173.92 2062.52) rotate(-135)"/>
        <rect class="cls-5" x="2478.11" y="28.96" width="72.02" height="72.02" transform="translate(4245.93 1888.66) rotate(-135)"/>
        <rect class="cls-5" x="2529.04" y="690.95" width="72.02" height="72.02" transform="translate(3864.77 3054.75) rotate(-135)"/>
        <rect class="cls-5" x="2529.04" y="589.11" width="72.01" height="72.01" transform="translate(3936.78 2880.89) rotate(-135)"/>
        <rect class="cls-5" x="2529.04" y="487.26" width="72.02" height="72.02" transform="translate(4008.79 2707.04) rotate(-135)"/>
        <rect class="cls-5" x="2529.04" y="385.42" width="72.01" height="72.01" transform="translate(4080.81 2533.17) rotate(-135)"/>
        <rect class="cls-5" x="2529.04" y="283.57" width="72.01" height="72.01" transform="translate(4152.83 2359.32) rotate(-135)"/>
        <rect class="cls-5" x="2529.04" y="181.73" width="72.02" height="72.02" transform="translate(4224.84 2185.46) rotate(-135)"/>
        <rect class="cls-5" x="2529.04" y="79.88" width="72.01" height="72.01" transform="translate(4296.86 2011.6) rotate(-135)"/>
        <rect class="cls-5" x="2579.96" y="741.87" width="72.02" height="72.02" transform="translate(3915.68 3177.7) rotate(-135)"/>
        <rect class="cls-5" x="2579.96" y="640.03" width="72.01" height="72.01" transform="translate(3987.7 3003.83) rotate(-135)"/>
        <rect class="cls-5" x="2579.96" y="538.18" width="72.01" height="72.01" transform="translate(4059.72 2829.97) rotate(-135)"/>
        <rect class="cls-5" x="2579.96" y="436.34" width="72.02" height="72.02" transform="translate(4131.73 2656.11) rotate(-135)"/>
        <rect class="cls-5" x="2579.96" y="334.49" width="72.01" height="72.01" transform="translate(4203.75 2482.25) rotate(-135)"/>
        <rect class="cls-5" x="2579.96" y="232.65" width="72.02" height="72.02" transform="translate(4275.76 2308.4) rotate(-135)"/>
        <rect class="cls-5" x="2579.96" y="130.8" width="72.01" height="72.01" transform="translate(4347.78 2134.53) rotate(-135)"/>
        <rect class="cls-5" x="2579.96" y="28.96" width="72.01" height="72.01" transform="translate(4419.79 1960.67) rotate(-135)"/>
        <rect class="cls-5" x="2630.88" y="690.95" width="72.02" height="72.02" transform="translate(4038.63 3126.77) rotate(-135)"/>
        <rect class="cls-5" x="2630.88" y="589.11" width="72.01" height="72.01" transform="translate(4110.64 2952.91) rotate(-135)"/>
        <rect class="cls-5" x="2630.88" y="487.26" width="72.02" height="72.02" transform="translate(4182.65 2779.06) rotate(-135)"/>
        <rect class="cls-5" x="2630.88" y="385.42" width="72.01" height="72.01" transform="translate(4254.67 2605.19) rotate(-135)"/>
        <rect class="cls-5" x="2630.88" y="283.57" width="72.01" height="72.01" transform="translate(4326.69 2431.33) rotate(-135)"/>
        <rect class="cls-5" x="2630.88" y="181.73" width="72.02" height="72.02" transform="translate(4398.7 2257.47) rotate(-135)"/>
        <rect class="cls-5" x="2630.88" y="79.88" width="72.01" height="72.01" transform="translate(4470.72 2083.61) rotate(-135)"/>
        <rect class="cls-5" x="2681.8" y="741.87" width="72.02" height="72.02" transform="translate(4089.55 3249.71) rotate(-135)"/>
        <rect class="cls-5" x="2681.8" y="640.03" width="72.02" height="72.02" transform="translate(4161.57 3075.84) rotate(-135)"/>
        <rect class="cls-5" x="2681.8" y="538.18" width="72.02" height="72.02" transform="translate(4233.59 2901.98) rotate(-135)"/>
        <rect class="cls-5" x="2681.8" y="436.34" width="72.02" height="72.02" transform="translate(4305.6 2728.12) rotate(-135)"/>
        <rect class="cls-5" x="2681.8" y="334.49" width="72.02" height="72.02" transform="translate(4377.62 2554.26) rotate(-135)"/>
        <rect class="cls-5" x="2681.8" y="232.65" width="72.02" height="72.02" transform="translate(4449.62 2380.41) rotate(-135)"/>
        <rect class="cls-5" x="2681.8" y="130.8" width="72.02" height="72.02" transform="translate(4521.65 2206.54) rotate(-135)"/>
        <rect class="cls-5" x="2681.8" y="28.96" width="72.02" height="72.02" transform="translate(4593.66 2032.68) rotate(-135)"/>
        <rect class="cls-4" x="1986.89" y="759.88" width="36.01" height="36.01" transform="translate(2872.53 2745.6) rotate(-135)"/>
        <rect class="cls-4" x="1986.89" y="658.03" width="36.01" height="36.01" transform="translate(2944.55 2571.74) rotate(-135)"/>
        <rect class="cls-4" x="1986.89" y="556.19" width="36.01" height="36.01" transform="translate(3016.56 2397.88) rotate(-135)"/>
        <rect class="cls-4" x="1986.89" y="454.34" width="36.01" height="36.01" transform="translate(3088.58 2224.02) rotate(-135)"/>
        <rect class="cls-4" x="1986.89" y="352.5" width="36.01" height="36.01" transform="translate(3160.59 2050.16) rotate(-135)"/>
        <rect class="cls-4" x="1986.89" y="250.65" width="36.01" height="36.01" transform="translate(3232.61 1876.3) rotate(-135)"/>
        <rect class="cls-4" x="1986.89" y="148.81" width="36.01" height="36.01" transform="translate(3304.62 1702.44) rotate(-135)"/>
        <rect class="cls-4" x="1986.89" y="46.96" width="36.01" height="36.01" transform="translate(3376.64 1528.58) rotate(-135)"/>
        <rect class="cls-4" x="2037.82" y="708.95" width="36.01" height="36.01" transform="translate(2995.47 2694.68) rotate(-135)"/>
        <rect class="cls-4" x="2037.82" y="607.11" width="36.01" height="36.01" transform="translate(3067.48 2520.82) rotate(-135)"/>
        <rect class="cls-4" x="2037.82" y="505.26" width="36.01" height="36.01" transform="translate(3139.5 2346.96) rotate(-135)"/>
        <rect class="cls-4" x="2037.82" y="403.42" width="36.01" height="36.01" transform="translate(3211.51 2173.1) rotate(-135)"/>
        <rect class="cls-4" x="2037.82" y="301.58" width="36.01" height="36.01" transform="translate(3283.53 1999.24) rotate(-135)"/>
        <rect class="cls-4" x="2037.82" y="199.73" width="36.01" height="36.01" transform="translate(3355.54 1825.38) rotate(-135)"/>
        <rect class="cls-4" x="2037.82" y="97.89" width="36.01" height="36.01" transform="translate(3427.56 1651.52) rotate(-135)"/>
        <rect class="cls-4" x="2088.74" y="759.88" width="36.01" height="36.01" transform="translate(3046.39 2817.62) rotate(-135)"/>
        <rect class="cls-4" x="2088.74" y="658.03" width="36.01" height="36.01" transform="translate(3118.41 2643.76) rotate(-135)"/>
        <rect class="cls-4" x="2088.74" y="556.19" width="36.01" height="36.01" transform="translate(3190.42 2469.9) rotate(-135)"/>
        <rect class="cls-4" x="2088.74" y="454.34" width="36.01" height="36.01" transform="translate(3262.44 2296.04) rotate(-135)"/>
        <rect class="cls-4" x="2088.74" y="352.5" width="36.01" height="36.01" transform="translate(3334.45 2122.18) rotate(-135)"/>
        <rect class="cls-4" x="2088.74" y="250.65" width="36.01" height="36.01" transform="translate(3406.47 1948.32) rotate(-135)"/>
        <rect class="cls-4" x="2088.74" y="148.81" width="36.01" height="36.01" transform="translate(3478.48 1774.46) rotate(-135)"/>
        <rect class="cls-4" x="2088.74" y="46.96" width="36.01" height="36.01" transform="translate(3550.5 1600.6) rotate(-135)"/>
        <rect class="cls-4" x="2139.66" y="708.95" width="36.01" height="36.01" transform="translate(3169.33 2766.69) rotate(-135)"/>
        <rect class="cls-4" x="2139.66" y="607.11" width="36.01" height="36.01" transform="translate(3241.34 2592.83) rotate(-135)"/>
        <rect class="cls-4" x="2139.66" y="505.26" width="36.01" height="36.01" transform="translate(3313.36 2418.97) rotate(-135)"/>
        <rect class="cls-4" x="2139.66" y="403.42" width="36.01" height="36.01" transform="translate(3385.37 2245.11) rotate(-135)"/>
        <rect class="cls-4" x="2139.66" y="301.58" width="36.01" height="36.01" transform="translate(3457.39 2071.26) rotate(-135)"/>
        <rect class="cls-4" x="2139.66" y="199.73" width="36.01" height="36.01" transform="translate(3529.4 1897.4) rotate(-135)"/>
        <rect class="cls-4" x="2139.66" y="97.89" width="36.01" height="36.01" transform="translate(3601.42 1723.54) rotate(-135)"/>
        <rect class="cls-4" x="2190.58" y="759.88" width="36.01" height="36.01" transform="translate(3220.25 2889.63) rotate(-135)"/>
        <rect class="cls-4" x="2190.58" y="658.03" width="36.01" height="36.01" transform="translate(3292.27 2715.77) rotate(-135)"/>
        <rect class="cls-4" x="2190.58" y="556.19" width="36.01" height="36.01" transform="translate(3364.28 2541.91) rotate(-135)"/>
        <rect class="cls-4" x="2190.58" y="454.34" width="36.01" height="36.01" transform="translate(3436.3 2368.05) rotate(-135)"/>
        <rect class="cls-4" x="2190.58" y="352.5" width="36.01" height="36.01" transform="translate(3508.31 2194.19) rotate(-135)"/>
        <rect class="cls-4" x="2190.58" y="250.65" width="36.01" height="36.01" transform="translate(3580.33 2020.33) rotate(-135)"/>
        <rect class="cls-4" x="2190.58" y="148.81" width="36.01" height="36.01" transform="translate(3652.34 1846.47) rotate(-135)"/>
        <rect class="cls-4" x="2190.58" y="46.96" width="36.01" height="36.01" transform="translate(3724.36 1672.61) rotate(-135)"/>
        <rect class="cls-4" x="2241.51" y="708.95" width="36.01" height="36.01" transform="translate(3343.19 2838.71) rotate(-135)"/>
        <rect class="cls-4" x="2241.51" y="607.11" width="36.01" height="36.01" transform="translate(3415.2 2664.85) rotate(-135)"/>
        <rect class="cls-4" x="2241.51" y="505.26" width="36.01" height="36.01" transform="translate(3487.22 2490.99) rotate(-135)"/>
        <rect class="cls-4" x="2241.51" y="403.42" width="36.01" height="36.01" transform="translate(3559.23 2317.13) rotate(-135)"/>
        <rect class="cls-4" x="2241.51" y="301.58" width="36.01" height="36.01" transform="translate(3631.25 2143.27) rotate(-135)"/>
        <rect class="cls-4" x="2241.51" y="199.73" width="36.01" height="36.01" transform="translate(3703.26 1969.41) rotate(-135)"/>
        <rect class="cls-4" x="2241.51" y="97.89" width="36.01" height="36.01" transform="translate(3775.28 1795.55) rotate(-135)"/>
        <rect class="cls-4" x="2292.43" y="759.88" width="36.01" height="36.01" transform="translate(3394.11 2961.65) rotate(-135)"/>
        <rect class="cls-4" x="2292.43" y="658.03" width="36.01" height="36.01" transform="translate(3466.13 2787.79) rotate(-135)"/>
        <rect class="cls-4" x="2292.43" y="556.19" width="36.01" height="36.01" transform="translate(3538.14 2613.93) rotate(-135)"/>
        <rect class="cls-4" x="2292.43" y="454.34" width="36.01" height="36.01" transform="translate(3610.16 2440.07) rotate(-135)"/>
        <rect class="cls-4" x="2292.43" y="352.5" width="36.01" height="36.01" transform="translate(3682.17 2266.21) rotate(-135)"/>
        <rect class="cls-4" x="2292.43" y="250.65" width="36.01" height="36.01" transform="translate(3754.19 2092.35) rotate(-135)"/>
        <rect class="cls-4" x="2292.43" y="148.81" width="36.01" height="36.01" transform="translate(3826.2 1918.49) rotate(-135)"/>
        <rect class="cls-4" x="2292.43" y="46.96" width="36.01" height="36.01" transform="translate(3898.22 1744.63) rotate(-135)"/>
        <rect class="cls-4" x="2343.35" y="708.95" width="36.01" height="36.01" transform="translate(3517.05 2910.72) rotate(-135)"/>
        <rect class="cls-4" x="2343.35" y="607.11" width="36.01" height="36.01" transform="translate(3589.06 2736.86) rotate(-135)"/>
        <rect class="cls-4" x="2343.35" y="505.26" width="36.01" height="36.01" transform="translate(3661.08 2563) rotate(-135)"/>
        <rect class="cls-4" x="2343.35" y="403.42" width="36.01" height="36.01" transform="translate(3733.09 2389.14) rotate(-135)"/>
        <rect class="cls-4" x="2343.35" y="301.58" width="36.01" height="36.01" transform="translate(3805.11 2215.28) rotate(-135)"/>
        <rect class="cls-4" x="2343.35" y="199.73" width="36.01" height="36.01" transform="translate(3877.12 2041.42) rotate(-135)"/>
        <rect class="cls-4" x="2343.35" y="97.89" width="36.01" height="36.01" transform="translate(3949.14 1867.57) rotate(-135)"/>
        <rect class="cls-4" x="2394.27" y="759.88" width="36.01" height="36.01" transform="translate(3567.97 3033.66) rotate(-135)"/>
        <rect class="cls-4" x="2394.27" y="658.03" width="36.01" height="36.01" transform="translate(3639.99 2859.8) rotate(-135)"/>
        <rect class="cls-4" x="2394.27" y="556.19" width="36.01" height="36.01" transform="translate(3712 2685.94) rotate(-135)"/>
        <rect class="cls-4" x="2394.27" y="454.34" width="36.01" height="36.01" transform="translate(3784.02 2512.08) rotate(-135)"/>
        <rect class="cls-4" x="2394.27" y="352.5" width="36.01" height="36.01" transform="translate(3856.03 2338.22) rotate(-135)"/>
        <rect class="cls-4" x="2394.27" y="250.65" width="36.01" height="36.01" transform="translate(3928.04 2164.36) rotate(-135)"/>
        <rect class="cls-4" x="2394.27" y="148.81" width="36.01" height="36.01" transform="translate(4000.06 1990.5) rotate(-135)"/>
        <rect class="cls-4" x="2394.27" y="46.96" width="36.01" height="36.01" transform="translate(4072.07 1816.64) rotate(-135)"/>
        <rect class="cls-4" x="2445.2" y="708.95" width="36.01" height="36.01" transform="translate(3690.91 2982.74) rotate(-135)"/>
        <rect class="cls-4" x="2445.2" y="607.11" width="36.01" height="36.01" transform="translate(3762.92 2808.88) rotate(-135)"/>
        <rect class="cls-4" x="2445.2" y="505.26" width="36.01" height="36.01" transform="translate(3834.94 2635.02) rotate(-135)"/>
        <rect class="cls-4" x="2445.2" y="403.42" width="36.01" height="36.01" transform="translate(3906.95 2461.16) rotate(-135)"/>
        <rect class="cls-4" x="2445.2" y="301.58" width="36.01" height="36.01" transform="translate(3978.97 2287.3) rotate(-135)"/>
        <rect class="cls-4" x="2445.2" y="199.73" width="36.01" height="36.01" transform="translate(4050.98 2113.44) rotate(-135)"/>
        <rect class="cls-4" x="2445.2" y="97.89" width="36.01" height="36.01" transform="translate(4123 1939.58) rotate(-135)"/>
        <rect class="cls-4" x="2496.12" y="759.88" width="36.01" height="36.01" transform="translate(3741.83 3105.68) rotate(-135)"/>
        <rect class="cls-4" x="2496.12" y="658.03" width="36.01" height="36.01" transform="translate(3813.84 2931.82) rotate(-135)"/>
        <rect class="cls-4" x="2496.12" y="556.19" width="36.01" height="36.01" transform="translate(3885.86 2757.96) rotate(-135)"/>
        <rect class="cls-4" x="2496.12" y="454.34" width="36.01" height="36.01" transform="translate(3957.87 2584.1) rotate(-135)"/>
        <rect class="cls-4" x="2496.12" y="352.5" width="36.01" height="36.01" transform="translate(4029.89 2410.24) rotate(-135)"/>
        <rect class="cls-4" x="2496.12" y="250.65" width="36.01" height="36.01" transform="translate(4101.9 2236.38) rotate(-135)"/>
        <rect class="cls-4" x="2496.12" y="148.81" width="36.01" height="36.01" transform="translate(4173.92 2062.52) rotate(-135)"/>
        <rect class="cls-4" x="2496.12" y="46.96" width="36.01" height="36.01" transform="translate(4245.93 1888.66) rotate(-135)"/>
        <rect class="cls-4" x="2547.04" y="708.95" width="36.01" height="36.01" transform="translate(3864.77 3054.75) rotate(-135)"/>
        <rect class="cls-4" x="2547.04" y="607.11" width="36.01" height="36.01" transform="translate(3936.78 2880.89) rotate(-135)"/>
        <rect class="cls-4" x="2547.04" y="505.26" width="36.01" height="36.01" transform="translate(4008.8 2707.03) rotate(-135)"/>
        <rect class="cls-4" x="2547.04" y="403.42" width="36.01" height="36.01" transform="translate(4080.81 2533.17) rotate(-135)"/>
        <rect class="cls-4" x="2547.04" y="301.58" width="36.01" height="36.01" transform="translate(4152.83 2359.32) rotate(-135)"/>
        <rect class="cls-4" x="2547.04" y="199.73" width="36.01" height="36.01" transform="translate(4224.84 2185.46) rotate(-135)"/>
        <rect class="cls-4" x="2547.04" y="97.89" width="36.01" height="36.01" transform="translate(4296.86 2011.6) rotate(-135)"/>
        <rect class="cls-4" x="2597.96" y="759.88" width="36.01" height="36.01" transform="translate(3915.69 3177.69) rotate(-135)"/>
        <rect class="cls-4" x="2597.96" y="658.03" width="36.01" height="36.01" transform="translate(3987.7 3003.83) rotate(-135)"/>
        <rect class="cls-4" x="2597.96" y="556.19" width="36.01" height="36.01" transform="translate(4059.72 2829.97) rotate(-135)"/>
        <rect class="cls-4" x="2597.96" y="454.34" width="36.01" height="36.01" transform="translate(4131.73 2656.11) rotate(-135)"/>
        <rect class="cls-4" x="2597.96" y="352.5" width="36.01" height="36.01" transform="translate(4203.75 2482.25) rotate(-135)"/>
        <rect class="cls-4" x="2597.96" y="250.65" width="36.01" height="36.01" transform="translate(4275.76 2308.39) rotate(-135)"/>
        <rect class="cls-4" x="2597.96" y="148.81" width="36.01" height="36.01" transform="translate(4347.78 2134.53) rotate(-135)"/>
        <rect class="cls-4" x="2597.96" y="46.96" width="36.01" height="36.01" transform="translate(4419.79 1960.67) rotate(-135)"/>
        <rect class="cls-4" x="2648.88" y="708.95" width="36.01" height="36.01" transform="translate(4038.63 3126.77) rotate(-135)"/>
        <rect class="cls-4" x="2648.88" y="607.11" width="36.01" height="36.01" transform="translate(4110.64 2952.91) rotate(-135)"/>
        <rect class="cls-4" x="2648.88" y="505.26" width="36.01" height="36.01" transform="translate(4182.66 2779.05) rotate(-135)"/>
        <rect class="cls-4" x="2648.88" y="403.42" width="36.01" height="36.01" transform="translate(4254.67 2605.19) rotate(-135)"/>
        <rect class="cls-4" x="2648.88" y="301.58" width="36.01" height="36.01" transform="translate(4326.69 2431.33) rotate(-135)"/>
        <rect class="cls-4" x="2648.88" y="199.73" width="36.01" height="36.01" transform="translate(4398.7 2257.47) rotate(-135)"/>
        <rect class="cls-4" x="2648.88" y="97.89" width="36.01" height="36.01" transform="translate(4470.72 2083.61) rotate(-135)"/>
        <rect class="cls-4" x="2699.81" y="759.88" width="36.01" height="36.01" transform="translate(4089.57 3249.69) rotate(-135)"/>
        <rect class="cls-4" x="2699.81" y="658.03" width="36.01" height="36.01" transform="translate(4161.59 3075.83) rotate(-135)"/>
        <rect class="cls-4" x="2699.81" y="556.19" width="36.01" height="36.01" transform="translate(4233.6 2901.97) rotate(-135)"/>
        <rect class="cls-4" x="2699.81" y="454.34" width="36.01" height="36.01" transform="translate(4305.61 2728.11) rotate(-135)"/>
        <rect class="cls-4" x="2699.81" y="352.5" width="36.01" height="36.01" transform="translate(4377.63 2554.25) rotate(-135)"/>
        <rect class="cls-4" x="2699.81" y="250.65" width="36.01" height="36.01" transform="translate(4449.64 2380.39) rotate(-135)"/>
        <rect class="cls-4" x="2699.81" y="148.81" width="36.01" height="36.01" transform="translate(4521.66 2206.53) rotate(-135)"/>
        <rect class="cls-4" x="2699.81" y="46.96" width="36.01" height="36.01" transform="translate(4593.67 2032.67) rotate(-135)"/>
      </g>
    </g>
  </g>
</svg>