<?xml version="1.0" encoding="utf-8"?>
<!-- Generator: Adobe Illustrator 24.0.2, SVG Export Plug-In . SVG Version: 6.00 Build 0)  -->
<svg version="1.1" id="Capa_1" xmlns="http://www.w3.org/2000/svg" xmlns:xlink="http://www.w3.org/1999/xlink" x="0px" y="0px"
	 viewBox="0 0 210.7 179.2" style="enable-background:new 0 0 210.7 179.2;" xml:space="preserve">
<style type="text/css">
	.st0{fill:#FF7457;}
	.st1{opacity:0.7;fill:url(#SVGID_1_);enable-background:new    ;}
	.st2{opacity:0.5;fill:#FF7457;enable-background:new    ;}
	.st3{opacity:0.7;fill:url(#SVGID_2_);enable-background:new    ;}
	.st4{opacity:0.3;fill:url(#SVGID_3_);enable-background:new    ;}
	.st5{opacity:0.3;fill:#FFFFFF;enable-background:new    ;}
	.st6{opacity:0.6;fill:#FFFFFF;enable-background:new    ;}
	.st7{opacity:0.3;fill:url(#SVGID_4_);enable-background:new    ;}
	.st8{opacity:0.3;fill:url(#SVGID_5_);enable-background:new    ;}
</style>
<g>
	<g id="Layer_7">
		<g>
			<path class="st0" d="M120.9,64.7c0,0,0.4-0.6,1.1-1.7c0.3-0.5,1-1.5,1.7-2.5c0.7-1.1,1.6-2,2.5-3.2c2-2.3,4.6-4.8,7.9-7.3
				c3.3-2.5,7.4-4.8,12.2-6.5c4.7-1.8,10.2-2.7,15.9-2.8h0.3l0.4,0h0.1l0.5,0l0.9,0l1.9,0.1c1.3,0.1,3.1,0.4,4.6,0.6
				c1.5,0.3,2.9,0.7,4.4,1c1.4,0.4,2.9,1,4.3,1.5c5.7,2.3,11.1,5.8,15.4,10.3c4.3,4.5,7.9,10,9.9,16c0.9,3,1.7,6.1,1.9,9.2
				c0,0,0.2,2.8,0.2,3.7c0,1.4-0.2,4.7-0.3,5.5c-0.7,6.4-2.9,12-5.9,17.2c-3,5.1-7.2,9.4-11.7,12.7c-4.5,3.4-9.4,5.6-14.2,7.1
				c-4.8,1.4-9.5,2-13.6,2.1c-4.2,0-7.8-0.4-10.8-1c-3-0.6-5.3-1.4-6.9-1.9s-2.4-0.9-2.4-0.9l-0.8-0.4c-4.6-2-6.7-7.2-4.6-11.7
				s7.5-6.5,12.1-4.5c0.7,0.3,1.4,0.7,2,1.2c0,0,0.4,0.3,1.3,0.9s2.2,1.4,4,2.2c1.8,0.8,4.1,1.6,7,2c2.8,0.5,6.1,0.4,9.6-0.1
				c3.6-0.5,7.3-2,10.8-4.1c3.6-2.1,6.9-5.2,9.4-9c2.6-3.7,4.3-8.4,4.9-12.8c0.1-0.6,0.3-2.8,0.3-3.7c0-0.9-0.2-3.6-0.2-3.6
				c-0.2-2.4-0.8-4.8-1.6-7c-1.6-4.5-4.3-8.8-7.9-12c-3.5-3.3-7.6-5.8-12-7.3c-1.1-0.3-2.2-0.6-3.3-0.9c-1.1-0.2-2.2-0.4-3.2-0.5
				c-1.1,0-1.8-0.2-3.1-0.2l-1.9,0l-0.9,0h-0.5h-0.1c-0.1,0,0.6,0,0.3,0h-0.1l-0.2,0c-4.1,0.4-7.9,1.5-11,3.1
				c-6.3,3.1-10.1,7.7-12,11c-0.4,0.8-1,1.6-1.1,2.2c-0.3,0.6-0.4,0.9-0.7,1.6c-0.5,1.2-0.7,1.9-0.7,1.9c-1.8,4.5-7,6.8-11.7,5.1
				c-4.7-1.7-7-6.8-5.3-11.3C120.4,65.7,120.7,65.1,120.9,64.7L120.9,64.7z"/>
			
				<linearGradient id="SVGID_1_" gradientUnits="userSpaceOnUse" x1="426.685" y1="641.1784" x2="426.685" y2="728.168" gradientTransform="matrix(0.9995 -3.053851e-02 -3.053851e-02 -0.9995 -241.9658 781.5571)">
				<stop  offset="0" style="stop-color:#FF7457"/>
				<stop  offset="1" style="stop-color:#FF7457;stop-opacity:0"/>
			</linearGradient>
			<path class="st1" d="M120.9,64.7c0,0,0.4-0.6,1.1-1.7c0.3-0.5,1-1.5,1.7-2.5c0.7-1.1,1.6-2,2.5-3.2c2-2.3,4.6-4.8,7.9-7.3
				c3.3-2.5,7.4-4.8,12.2-6.5c4.7-1.8,10.2-2.7,15.9-2.8h0.3l0.4,0h0.1l0.5,0l0.9,0l1.9,0.1c1.3,0.1,3.1,0.4,4.6,0.6
				c1.5,0.3,2.9,0.7,4.4,1c1.4,0.4,2.9,1,4.3,1.5c5.7,2.3,11.1,5.8,15.4,10.3c4.3,4.5,7.9,10,9.9,16c0.9,3,1.7,6.1,1.9,9.2
				c0,0,0.2,2.8,0.2,3.7c0,1.4-0.2,4.7-0.3,5.5c-0.7,6.4-2.9,12-5.9,17.2c-3,5.1-7.2,9.4-11.7,12.7c-4.5,3.4-9.4,5.6-14.2,7.1
				c-4.8,1.4-9.5,2-13.6,2.1c-4.2,0-7.8-0.4-10.8-1c-3-0.6-5.3-1.4-6.9-1.9s-2.4-0.9-2.4-0.9l-0.8-0.4c-4.6-2-6.7-7.2-4.6-11.7
				s7.5-6.5,12.1-4.5c0.7,0.3,1.4,0.7,2,1.2c0,0,0.4,0.3,1.3,0.9s2.2,1.4,4,2.2c1.8,0.8,4.1,1.6,7,2c2.8,0.5,6.1,0.4,9.6-0.1
				c3.6-0.5,7.3-2,10.8-4.1c3.6-2.1,6.9-5.2,9.4-9c2.6-3.7,4.3-8.4,4.9-12.8c0.1-0.6,0.3-2.8,0.3-3.7c0-0.9-0.2-3.6-0.2-3.6
				c-0.2-2.4-0.8-4.8-1.6-7c-1.6-4.5-4.3-8.8-7.9-12c-3.5-3.3-7.6-5.8-12-7.3c-1.1-0.3-2.2-0.6-3.3-0.9c-1.1-0.2-2.2-0.4-3.2-0.5
				c-1.1,0-1.8-0.2-3.1-0.2l-1.9,0l-0.9,0h-0.5h-0.1c-0.1,0,0.6,0,0.3,0h-0.1l-0.2,0c-4.1,0.4-7.9,1.5-11,3.1
				c-6.3,3.1-10.1,7.7-12,11c-0.4,0.8-1,1.6-1.1,2.2c-0.3,0.6-0.4,0.9-0.7,1.6c-0.5,1.2-0.7,1.9-0.7,1.9c-1.8,4.5-7,6.8-11.7,5.1
				c-4.7-1.7-7-6.8-5.3-11.3C120.4,65.7,120.7,65.1,120.9,64.7L120.9,64.7z"/>
			<path class="st2" d="M137.1,72.4c0,0,0.3-0.6,0.7-1.9c0.3-0.7,0.4-1,0.7-1.6c0.2-0.6,0.7-1.4,1.1-2.2c1.1-1.8,2.7-3.9,4.9-6
				c-3.7-3-6.3-4.2-6.3-4.2l1.4-10c-2,1.1-3.8,2.3-5.4,3.5c-3.3,2.5-5.9,5-7.9,7.3c-0.9,1.2-1.8,2.1-2.5,3.2c-0.7,1-1.4,2.1-1.7,2.5
				c-0.7,1.1-1.1,1.7-1.1,1.7c-0.3,0.5-0.6,1-0.8,1.5c-1.8,4.5,0.6,9.6,5.3,11.3C130.1,79.2,135.3,76.9,137.1,72.4L137.1,72.4z"/>
			<path class="st2" d="M165.9,120.9c0,0,0.4-2.7,0.5-6.9c-1.5,0-2.8-0.1-4.1-0.3c-2.8-0.4-5.2-1.2-7-2c-1.8-0.8-3.1-1.6-4-2.2
				s-1.3-0.9-1.3-0.9c-0.6-0.5-1.3-0.9-2-1.2c-4.6-2-10,0-12.1,4.5s0,9.7,4.6,11.7l0.8,0.4c0,0,0.8,0.4,2.4,0.9
				c1.6,0.5,3.9,1.3,6.9,1.9c3,0.6,6.7,1.1,10.8,1c4.2-0.1,8.8-0.7,13.6-2.1c4.8-1.5,9.8-3.7,14.2-7.1c4.5-3.4,8.7-7.5,11.7-12.7
				c2.4-4.2,4.3-8.7,5.3-13.6C197.5,119.4,165.9,121,165.9,120.9L165.9,120.9z"/>
			<path class="st0" d="M134.4,58l5.9-51.3c0.3-2.5-1.8-4.6-4.4-4.6L18.2,5.6c-2.6,0.1-4.5,2.4-4.1,4.8l9.1,50.8
				C10.2,75.2,2.5,93.8,3.1,114.1c0.7,23.2,12.3,43.6,29.8,56.8c7.6,5.8,17.2,8.6,26.9,8.3l45.6-1.4c9.7-0.3,19.1-3.6,26.3-9.9
				c16.6-14.3,26.9-35.3,26.1-58.5C157.2,89.2,148.3,71.1,134.4,58L134.4,58z"/>
			
				<linearGradient id="SVGID_2_" gradientUnits="userSpaceOnUse" x1="342.7559" y1="592.7953" x2="342.7559" y2="767.6177" gradientTransform="matrix(0.9995 -3.053851e-02 -3.053851e-02 -0.9995 -241.9658 781.5571)">
				<stop  offset="0" style="stop-color:#FF7457"/>
				<stop  offset="1" style="stop-color:#FF7457;stop-opacity:0"/>
			</linearGradient>
			<path class="st3" d="M134.4,58l5.9-51.3c0.3-2.5-1.8-4.6-4.4-4.6L18.2,5.6c-2.6,0.1-4.5,2.4-4.1,4.8l9.1,50.8
				C10.2,75.2,2.5,93.8,3.1,114.1c0.7,23.2,12.3,43.6,29.8,56.8c7.6,5.8,17.2,8.6,26.9,8.3l45.6-1.4c9.7-0.3,19.1-3.6,26.3-9.9
				c16.6-14.3,26.9-35.3,26.1-58.5C157.2,89.2,148.3,71.1,134.4,58L134.4,58z"/>
			<path class="st2" d="M146.2,151.5c-0.8,0.4-46.1,24.8-93.3,8.1C15.4,146.3,3.6,104,3.5,103.7c-0.4,3.4-0.5,6.9-0.4,10.4
				c0.7,23.2,12.3,43.6,29.8,56.8c7.6,5.8,17.2,8.6,26.9,8.3l45.6-1.4c9.7-0.3,19.1-3.6,26.3-9.9
				C137.3,163.2,142.2,157.6,146.2,151.5L146.2,151.5z"/>
			
				<linearGradient id="SVGID_3_" gradientUnits="userSpaceOnUse" x1="342.7548" y1="699.9493" x2="342.7548" y2="611.9654" gradientTransform="matrix(0.9995 -3.053851e-02 -3.053851e-02 -0.9995 -241.9658 781.5571)">
				<stop  offset="0" style="stop-color:#FFFFFF"/>
				<stop  offset="1" style="stop-color:#FFFFFF;stop-opacity:0"/>
			</linearGradient>
			<path class="st4" d="M79.3,74.9c-14.3,0.4-25.7-0.7-33.5-2c-9-1.5-18,2.8-22.1,10.6c-4.9,9.2-7.4,19.6-7,30.2c0,0.2,0,0.4,0,0.5
				c1.1,26.2,24.4,46.4,51.4,45.6l27.9-0.8c27-0.8,49-22.3,48.5-48.5c0-0.2,0-0.4,0-0.5c-0.3-10.6-3.4-20.8-8.9-29.7
				c-4.7-7.5-13.9-11.3-22.8-9.3C104.9,72.7,93.6,74.5,79.3,74.9L79.3,74.9z"/>
			<path class="st5" d="M129.9,86.8c0.2,5.7-4.4,10.4-10.3,10.6c-5.9,0.2-10.8-4.3-11-10c-0.2-5.7,4.4-10.4,10.3-10.6
				C124.8,76.6,129.7,81.1,129.9,86.8z"/>
			<path class="st5" d="M138.8,103c0.1,3.4-2.7,6.3-6.2,6.4c-3.5,0.1-6.5-2.6-6.6-6s2.7-6.3,6.2-6.4
				C135.7,96.9,138.7,99.6,138.8,103z"/>
			<path class="st6" d="M135.2,31c1-2.4,1.9-4.2,2.9-5.5l0.7-5.7c-4,1.2-6,5.6-7.7,9.5c-1.9,4.3-3.3,7.1-5.6,7.2
				c-2.3,0.1-3.9-2.6-6.1-6.8c-2.3-4.4-4.8-9.4-10.2-9.2s-7.6,5.3-9.6,9.8c-1.9,4.3-3.3,7.1-5.6,7.1s-3.9-2.6-6.1-6.8
				c-2.3-4.4-4.8-9.4-10.2-9.2c-5.4,0.2-7.6,5.3-9.6,9.8c-1.9,4.3-3.3,7.1-5.6,7.1c-2.3,0.1-3.9-2.6-6.1-6.8
				c-2.3-4.4-4.8-9.4-10.2-9.2c-5.4,0.2-7.6,5.3-9.6,9.8c-1.9,4.3-3.3,7.1-5.6,7.1s-3.9-2.6-6.1-6.8c-2-3.8-4.2-8.1-8.3-9l1,5.7
				c1,1.2,2.1,3,3.2,5.3c2.3,4.4,4.8,9.4,10.2,9.2s7.6-5.3,9.6-9.8c1.9-4.3,3.3-7.1,5.6-7.1c2.3-0.1,3.9,2.6,6.1,6.8
				c2.3,4.4,4.8,9.4,10.2,9.2c5.4-0.2,7.6-5.3,9.6-9.8c1.9-4.3,3.3-7.1,5.6-7.1c2.3-0.1,3.9,2.6,6.1,6.8c2.3,4.4,4.8,9.4,10.2,9.2
				c5.4-0.2,7.6-5.3,9.6-9.8c1.9-4.3,3.3-7.1,5.6-7.1c2.3-0.1,3.9,2.6,6.1,6.8c2.3,4.4,4.8,9.4,10.2,9.2
				C131,40.7,133.2,35.5,135.2,31L135.2,31z"/>
			
				<linearGradient id="SVGID_4_" gradientUnits="userSpaceOnUse" x1="342.6693" y1="754.4955" x2="342.6693" y2="707.2547" gradientTransform="matrix(0.9995 -3.053851e-02 -3.053851e-02 -0.9995 -241.9658 781.5571)">
				<stop  offset="0" style="stop-color:#FFFFFF"/>
				<stop  offset="1" style="stop-color:#FFFFFF;stop-opacity:0"/>
			</linearGradient>
			<path class="st7" d="M124.3,27.4l0.3-2.4c0.6-5-3.5-9.3-8.7-9.1l-76.8,2.3c-5.2,0.1-9,4.7-8.1,9.6l0.4,2.4
				c3.6,20.2,22,34.7,43.2,34.1l8.8-0.3C104.5,63.4,122,47.8,124.3,27.4L124.3,27.4z"/>
			<path class="st5" d="M120.6,25.9c0.1,3.4-2.7,6.3-6.2,6.4c-3.5,0.1-6.5-2.6-6.6-6s2.7-6.3,6.2-6.4
				C117.5,19.8,120.5,22.5,120.6,25.9z"/>
			
				<linearGradient id="SVGID_5_" gradientUnits="userSpaceOnUse" x1="6797.7358" y1="260.3566" x2="6797.7358" y2="484.2325" gradientTransform="matrix(-0.9897 -0.1435 0.1435 -0.9897 6744.0601 1230.5417)">
				<stop  offset="0" style="stop-color:#FFFFFF"/>
				<stop  offset="1" style="stop-color:#FFFFFF;stop-opacity:0"/>
			</linearGradient>
			<path class="st8" d="M59.6-1.8c0,0,33.6-11.2,32.7-35.5C91.4-61,41.1-96.6,53.4-121.2c13-26,63.2-7.1,76.4-43.7
				c13-36-36.8-58.3-36.8-58.3s18.8,18.5,10,34.6c-10.5,19.3-58.2,1.1-77.2,21s-14.5,48.3,17.4,74.4c30.2,24.8,72.8,25,75.4,54.4
				C121.7-2,59.6-1.7,59.6-1.8L59.6-1.8z"/>
		</g>
	</g>
</g>
</svg>
