<?xml version="1.0" encoding="UTF-8"?>
<svg id="Layer_28" data-name="Layer 28" xmlns="http://www.w3.org/2000/svg" viewBox="0 0 3079.98 903.74">
  <defs>
    <style>
      .cls-1 {
        fill: #1e3280;
        font-family: Montserrat-Bold, Montserrat;
        font-size: 110.63px;
        font-weight: 700;
      }
    </style>
  </defs>
  <text class="cls-1" transform="translate(1223.62 411.56) rotate(-75.68) scale(.87 1)"><tspan x="0" y="0">D</tspan></text>
  <text class="cls-1" transform="translate(1244.18 337.35) rotate(-67.68) scale(.87 1)"><tspan x="0" y="0">í</tspan></text>
  <text class="cls-1" transform="translate(1253.46 312.04) rotate(-60.94) scale(.87 1)"><tspan x="0" y="0">a</tspan></text>
  <text class="cls-1" transform="translate(1281.97 262.41) rotate(-54.08) scale(.87 1)"><tspan x="0" y="0"> </tspan></text>
  <text class="cls-1" transform="translate(1295.34 241.34) rotate(-46.3) scale(.87 1)"><tspan x="0" y="0">d</tspan></text>
  <text class="cls-1" transform="translate(1338.93 195.53) rotate(-35.03) scale(.87 1)"><tspan x="0" y="0">e</tspan></text>
  <text class="cls-1" transform="translate(1387.07 163) rotate(-26.71) scale(.87 1)"><tspan x="0" y="0"> </tspan></text>
  <text class="cls-1" transform="translate(1409.8 151.41) rotate(-21.18) scale(.87 1)"><tspan x="0" y="0">l</tspan></text>
  <text class="cls-1" transform="translate(1433.64 140.42) rotate(-11.86) scale(.87 1)"><tspan x="0" y="0">o</tspan></text>
  <text class="cls-1" transform="translate(1491.6 128.83) rotate(-1.07) scale(.87 1)"><tspan x="0" y="0">s</tspan></text>
  <text class="cls-1" transform="translate(1540.46 128.92) rotate(7.82) scale(.87 1)"><tspan x="0" y="0"> </tspan></text>
  <text class="cls-1" transform="translate(1564.67 128.44) rotate(19.95) scale(.87 1)"><tspan x="0" y="0">M</tspan></text>
  <text class="cls-1" transform="translate(1646.37 159.42) rotate(35.17) scale(.87 1)"><tspan x="0" y="0">u</tspan></text>
  <text class="cls-1" transform="translate(1697.64 195.56) rotate(46.39) scale(.87 1)"><tspan x="0" y="0">e</tspan></text>
  <text class="cls-1" transform="translate(1737.34 238.03) rotate(54.85) scale(.87 1)"><tspan x="0" y="0">r</tspan></text>
  <text class="cls-1" transform="translate(1760.87 271.39) rotate(61.64) scale(.87 1)"><tspan x="0" y="0">t</tspan></text>
  <text class="cls-1" transform="translate(1779.73 304.28) rotate(69.35) scale(.87 1)"><tspan x="0" y="0">o</tspan></text>
  <text class="cls-1" transform="translate(1800.81 360.97) rotate(77.7) scale(.87 1)"><tspan x="0" y="0">s</tspan></text>
  <text class="cls-1" transform="translate(1810.83 409.3) rotate(83.28) scale(.87 1)"><tspan x="0" y="0"> </tspan></text>
</svg>