<?xml version="1.0" encoding="utf-8"?>
<!-- Generator: Adobe Illustrator 24.0.2, SVG Export Plug-In . SVG Version: 6.00 Build 0)  -->
<svg version="1.1" id="Capa_1" xmlns="http://www.w3.org/2000/svg" xmlns:xlink="http://www.w3.org/1999/xlink" x="0px" y="0px"
	 viewBox="0 0 361.5 245.1" style="enable-background:new 0 0 361.5 245.1;" xml:space="preserve">
<style type="text/css">
	.st0{fill:#FFD100;}
	.st1{opacity:0.5;fill:#FFD100;enable-background:new    ;}
	.st2{fill:#BB8F1E;}
	.st3{opacity:0.7;fill:url(#SVGID_1_);enable-background:new    ;}
	.st4{opacity:0.2;fill:url(#SVGID_2_);enable-background:new    ;}
	.st5{opacity:0.5;fill:#BB8F1E;enable-background:new    ;}
	.st6{fill:#FFFFFF;}
	.st7{fill:#D98824;}
	.st8{opacity:0.7;fill:url(#SVGID_3_);enable-background:new    ;}
	.st9{opacity:0.15;fill:#D98824;enable-background:new    ;}
	.st10{opacity:0.2;fill:url(#SVGID_4_);enable-background:new    ;}
	.st11{opacity:0.2;fill:#FFFFFF;enable-background:new    ;}
	.st12{opacity:0.7;fill:url(#SVGID_5_);enable-background:new    ;}
	.st13{opacity:0.2;fill:url(#SVGID_6_);enable-background:new    ;}
	.st14{opacity:0.7;fill:url(#SVGID_7_);enable-background:new    ;}
	.st15{opacity:0.2;fill:url(#SVGID_8_);enable-background:new    ;}
</style>
<g>
	<g id="Layer_8">
		<g>
			<g>
				<path class="st0" d="M183.9,50.3c64.9,0.9,127.8,45,144.8,120.5c5.3,23.8-11.8,46.8-36.8,49.2c-28.9,2.8-69.6,5.8-110.7,5.2
					c-41.1-0.6-81.7-4.7-110.5-8.4c-24.9-3.2-41.3-26.7-35.2-50.3C54.7,91.6,119,49.4,183.9,50.3L183.9,50.3z"/>
				<path class="st1" d="M328.6,170.8C311.7,95.4,248.7,51.3,183.9,50.3C119,49.4,54.7,91.6,35.4,166.5
					c-4.4,17.3,3.2,34.4,17.3,43.7c1.8-0.4,3.5-1,5.2-1.8c18.3-8.5,27.4-38,32.9-55.6l0.5-1.7c6.2-19.9,22.9-47.7,50.9-66
					c4.1-2.6,9.1-6.2,13.8-10.3c0.1,3.8,0.6,7.5,1.3,10.8c5.6,25-2.1,50.5-8.3,70.9l-1.2,3.9c-3.8,12.8-11.3,44.5,2.6,62.7
					c0.3,0.4,0.6,0.7,0.9,1c9.8,0.5,19.7,0.8,29.6,1s19.9,0.1,29.7-0.1c0.3-0.3,0.6-0.6,0.9-1c14.4-17.8,8-49.7,4.6-62.6l-1.1-3.9
					c-5.6-20.6-12.5-46.3-6.1-71.2c0.8-3.3,1.4-7,1.7-10.8c4.6,4.2,9.5,8,13.5,10.7c27.5,19.1,43.3,47.4,48.9,67.5l0.5,1.7
					c4.9,17.8,13.2,47.5,31.2,56.5c1.7,0.8,3.4,1.5,5.1,1.9C324.4,205.1,332.5,188.1,328.6,170.8L328.6,170.8z"/>
			</g>
			<g>
				<ellipse class="st2" cx="184.1" cy="34" rx="25.2" ry="24.4"/>
				
					<linearGradient id="SVGID_1_" gradientUnits="userSpaceOnUse" x1="110.2853" y1="-110.6904" x2="110.2853" y2="-61.8899" gradientTransform="matrix(0.9999 1.500927e-02 1.500927e-02 -0.9999 75.1428 -54.0168)">
					<stop  offset="0" style="stop-color:#BB8F1E"/>
					<stop  offset="1" style="stop-color:#BB8F1E;stop-opacity:0"/>
				</linearGradient>
				<ellipse class="st3" cx="184.1" cy="34" rx="25.2" ry="24.4"/>
				
					<linearGradient id="SVGID_2_" gradientUnits="userSpaceOnUse" x1="110.2811" y1="-66.4204" x2="110.2811" y2="-98.9443" gradientTransform="matrix(0.9999 1.500927e-02 1.500927e-02 -0.9999 75.1428 -54.0168)">
					<stop  offset="0" style="stop-color:#FFFFFF"/>
					<stop  offset="1" style="stop-color:#FFFFFF;stop-opacity:0"/>
				</linearGradient>
				<path class="st4" d="M204.7,30.7c-0.1,9-9.4,16.1-20.8,16c-11.3-0.2-20.4-7.6-20.3-16.6c0.1-9,9.4-16.1,20.8-16
					S204.8,21.8,204.7,30.7z"/>
				<path class="st5" d="M209.3,34.4c0,0-3.8,5.9-7.7,9c0,0-6.3-6.3-17.5-6.5c-11.2-0.2-17.7,6-17.7,6c-3.8-3.2-7.4-9.2-7.4-9.2
					c-0.2,13.5,10.9,24.6,24.8,24.8C197.6,58.6,209.1,47.9,209.3,34.4L209.3,34.4L209.3,34.4z"/>
				<g>
					<path class="st6" d="M185.2,15.4c0,0.4-0.4,0.7-0.8,0.7c-0.4,0-0.7-0.3-0.7-0.7c0-0.4,0.4-0.7,0.8-0.7
						C184.8,14.6,185.2,15,185.2,15.4z"/>
					<path class="st6" d="M194.3,17.6c0,0.4-0.4,0.7-0.8,0.7c-0.4,0-0.7-0.3-0.7-0.7c0-0.4,0.4-0.7,0.8-0.7
						C194,16.9,194.3,17.2,194.3,17.6z"/>
					<path class="st6" d="M203.9,29.1c0,0.4-0.4,0.7-0.8,0.7c-0.4,0-0.7-0.3-0.7-0.7c0-0.4,0.4-0.7,0.8-0.7
						C203.6,28.4,203.9,28.7,203.9,29.1L203.9,29.1z"/>
					<path class="st6" d="M189.4,19.7c0,0.4-0.4,0.7-0.8,0.7c-0.4,0-0.7-0.3-0.7-0.7c0-0.4,0.4-0.7,0.8-0.7
						C189.1,19,189.4,19.3,189.4,19.7z"/>
					<path class="st6" d="M174,17.3c0,0.4-0.4,0.7-0.8,0.7c-0.4,0-0.7-0.3-0.7-0.7c0-0.4,0.4-0.7,0.8-0.7
						C173.7,16.6,174,16.9,174,17.3L174,17.3z"/>
					<path class="st6" d="M170.9,35.4c0,0.4-0.4,0.7-0.8,0.7c-0.4,0-0.7-0.3-0.7-0.7c0-0.4,0.4-0.7,0.8-0.7
						C170.6,34.7,170.9,35,170.9,35.4z"/>
					<path class="st6" d="M168.1,24c0,0.4-0.4,0.7-0.8,0.7c-0.4,0-0.7-0.3-0.7-0.7c0-0.4,0.4-0.7,0.8-0.7S168.1,23.6,168.1,24
						L168.1,24z"/>
					<path class="st6" d="M182.2,19.6c0,0.4-0.4,0.7-0.8,0.7c-0.4,0-0.7-0.3-0.7-0.7c0-0.4,0.4-0.7,0.8-0.7
						C181.9,18.9,182.2,19.2,182.2,19.6L182.2,19.6z"/>
					<path class="st6" d="M196.8,28.4c0,0.4-0.4,0.7-0.8,0.7c-0.4,0-0.7-0.3-0.7-0.7c0-0.4,0.4-0.7,0.8-0.7
						C196.5,27.7,196.8,28,196.8,28.4z"/>
					<path class="st6" d="M199.7,23.3c0,0.4-0.4,0.7-0.8,0.7c-0.4,0-0.7-0.3-0.7-0.7c0-0.4,0.4-0.7,0.8-0.7
						C199.3,22.6,199.7,22.9,199.7,23.3L199.7,23.3z"/>
					<path class="st6" d="M186.9,25c0,0.4-0.4,0.7-0.8,0.7c-0.4,0-0.7-0.3-0.7-0.7c0-0.4,0.4-0.7,0.8-0.7
						C186.6,24.3,186.9,24.6,186.9,25z"/>
					<path class="st6" d="M177.1,27.3c0,0.4-0.4,0.7-0.8,0.7c-0.4,0-0.7-0.3-0.7-0.7c0-0.4,0.4-0.7,0.8-0.7
						C176.8,26.5,177.1,26.9,177.1,27.3z"/>
					<path class="st6" d="M179.3,32.3c0,0.4-0.4,0.7-0.8,0.7c-0.4,0-0.7-0.3-0.7-0.7c0-0.4,0.4-0.7,0.8-0.7
						C179,31.5,179.3,31.9,179.3,32.3z"/>
					<path class="st6" d="M194,35.7c0,0.4-0.4,0.7-0.8,0.7c-0.4,0-0.7-0.3-0.7-0.7c0-0.4,0.4-0.7,0.8-0.7
						C193.7,35,194,35.3,194,35.7z"/>
				</g>
			</g>
			<g>
				<path class="st7" d="M156.5,42.7c20,9.6,0.3,27.7-17.1,39c-27.2,17.7-44.1,44.8-50.5,65.4c-6.6,21.3-19.7,66.1-50,54.2
					C5.5,188.2,7.8,148,34.6,122.6C51,107,83.2,85.4,100.6,63C113.7,46,142.7,35.2,156.5,42.7L156.5,42.7z"/>
				
					<linearGradient id="SVGID_3_" gradientUnits="userSpaceOnUse" x1="16.8247" y1="-257.6749" x2="16.8247" y2="-93.2506" gradientTransform="matrix(0.9999 1.500927e-02 1.500927e-02 -0.9999 75.1428 -54.0168)">
					<stop  offset="0" style="stop-color:#D98824"/>
					<stop  offset="1" style="stop-color:#D98824;stop-opacity:0"/>
				</linearGradient>
				<path class="st8" d="M156.5,42.7c20,9.6,0.3,27.7-17.1,39c-27.2,17.7-44.1,44.8-50.5,65.4c-6.6,21.3-19.7,66.1-50,54.2
					C5.5,188.2,7.8,148,34.6,122.6C51,107,83.2,85.4,100.6,63C113.7,46,142.7,35.2,156.5,42.7L156.5,42.7z"/>
				<path class="st9" d="M156.5,42.7c20,9.6,0.3,27.7-17.1,39c-27.2,17.7-44.1,44.8-50.5,65.4c-6.6,21.3-19.7,66.1-50,54.2
					C5.5,188.2,7.8,148,34.6,122.6C51,107,83.2,85.4,100.6,63C113.7,46,142.7,35.2,156.5,42.7L156.5,42.7z"/>
				
					<linearGradient id="SVGID_4_" gradientUnits="userSpaceOnUse" x1="16.8454" y1="-100.8203" x2="16.8454" y2="-250.0211" gradientTransform="matrix(0.9999 1.500927e-02 1.500927e-02 -0.9999 75.1428 -54.0168)">
					<stop  offset="0" style="stop-color:#FFFFFF"/>
					<stop  offset="1" style="stop-color:#FFFFFF;stop-opacity:0"/>
				</linearGradient>
				<path class="st10" d="M145.7,47.9c-11.4-0.2-29.4,7.5-38.8,19.7C95,83,77,97.5,61.1,110.3c-8,6.4-15.5,12.5-21,17.7
					c-13.5,12.8-20.3,30.3-17.4,44.5c2.1,10,8.7,17.5,19.1,21.6c4.7,1.9,8.7,1.9,12.5,0.1c13.6-6.3,22-33.3,26.5-47.8l0.5-1.7
					c6.6-21,24.1-50.3,53.6-69.6c16.5-10.7,22.2-19.2,22-22.3c-0.1-1.5-2.9-2.9-4-3.5l-0.4-0.2C150.8,48.4,148.5,47.9,145.7,47.9
					L145.7,47.9z"/>
				<path class="st11" d="M100.3,95.9c8.5-9.6,18.4-19.2,30.3-26.9c8.8-5.7,13.8-10.4,16.3-13.4c-0.4,0-0.8-0.1-1.3-0.1
					c-9.1-0.1-24.6,6.7-32.4,16.7c-5.2,6.7-11.2,13.2-17.9,19.3C91.8,94.7,96,100.7,100.3,95.9L100.3,95.9z"/>
				<g>
					<path class="st6" d="M137.4,47c0,0.4-0.4,0.7-0.8,0.7c-0.4,0-0.7-0.3-0.7-0.7c0-0.4,0.4-0.7,0.8-0.7
						C137.1,46.3,137.5,46.6,137.4,47L137.4,47z"/>
					<path class="st6" d="M146.6,49.3c0,0.4-0.4,0.7-0.8,0.7c-0.4,0-0.7-0.3-0.7-0.7c0-0.4,0.4-0.7,0.8-0.7
						C146.3,48.6,146.6,48.9,146.6,49.3L146.6,49.3z"/>
					<path class="st6" d="M156.2,60.8c0,0.4-0.4,0.7-0.8,0.7c-0.4,0-0.7-0.3-0.7-0.7c0-0.4,0.4-0.7,0.8-0.7
						C155.9,60,156.2,60.4,156.2,60.8z"/>
					<path class="st6" d="M141.7,51.4c0,0.4-0.4,0.7-0.8,0.7c-0.4,0-0.7-0.3-0.7-0.7c0-0.4,0.4-0.7,0.8-0.7
						C141.4,50.7,141.7,51,141.7,51.4L141.7,51.4z"/>
					<path class="st6" d="M126.3,49c0,0.4-0.4,0.7-0.8,0.7c-0.4,0-0.7-0.3-0.7-0.7c0-0.4,0.4-0.7,0.8-0.7
						C126,48.3,126.3,48.6,126.3,49z"/>
					<path class="st6" d="M123.2,67.1c0,0.4-0.4,0.7-0.8,0.7c-0.4,0-0.7-0.3-0.7-0.7c0-0.4,0.4-0.7,0.8-0.7
						C122.9,66.4,123.2,66.7,123.2,67.1L123.2,67.1z"/>
					<path class="st6" d="M120.4,55.7c0,0.4-0.4,0.7-0.8,0.7c-0.4,0-0.7-0.3-0.7-0.7c0-0.4,0.4-0.7,0.8-0.7
						C120.1,55,120.4,55.3,120.4,55.7z"/>
					<path class="st6" d="M134.5,51.3c0,0.4-0.4,0.7-0.8,0.7c-0.4,0-0.7-0.3-0.7-0.7c0-0.4,0.4-0.7,0.8-0.7
						C134.1,50.6,134.5,50.9,134.5,51.3z"/>
					<path class="st6" d="M149.1,60.1c0,0.4-0.4,0.7-0.8,0.7c-0.4,0-0.7-0.3-0.7-0.7c0-0.4,0.4-0.7,0.8-0.7
						C148.7,59.4,149.1,59.7,149.1,60.1L149.1,60.1z"/>
					<path class="st6" d="M151.9,55c0,0.4-0.4,0.7-0.8,0.7c-0.4,0-0.7-0.3-0.7-0.7c0-0.4,0.4-0.7,0.8-0.7
						C151.6,54.3,152,54.6,151.9,55z"/>
					<path class="st6" d="M139.2,56.7c0,0.4-0.4,0.7-0.8,0.7c-0.4,0-0.7-0.3-0.7-0.7c0-0.4,0.4-0.7,0.8-0.7
						C138.8,56,139.2,56.3,139.2,56.7z"/>
					<path class="st6" d="M129.4,58.9c0,0.4-0.4,0.7-0.8,0.7c-0.4,0-0.7-0.3-0.7-0.7c0-0.4,0.4-0.7,0.8-0.7S129.4,58.5,129.4,58.9
						L129.4,58.9z"/>
					<path class="st6" d="M131.6,63.9c0,0.4-0.4,0.7-0.8,0.7c-0.4,0-0.7-0.3-0.7-0.7c0-0.4,0.4-0.7,0.8-0.7
						C131.2,63.2,131.6,63.5,131.6,63.9L131.6,63.9z"/>
					<path class="st6" d="M146.3,67.4c0,0.4-0.4,0.7-0.8,0.7c-0.4,0-0.7-0.3-0.7-0.7c0-0.4,0.4-0.7,0.8-0.7
						C146,66.7,146.3,67,146.3,67.4L146.3,67.4z"/>
				</g>
			</g>
			<g>
				<path class="st7" d="M211.5,43.5c-20.3,9-1.1,27.7,15.9,39.5c26.6,18.5,42.6,46.1,48.4,66.9c6,21.5,17.6,66.6,48.3,55.6
					c33.8-12.2,32.8-52.4,6.8-78.6c-15.9-16.1-47.5-38.5-64.2-61.5C254.1,48.1,225.4,36.4,211.5,43.5L211.5,43.5z"/>
				
					<linearGradient id="SVGID_5_" gradientUnits="userSpaceOnUse" x1="3674.3484" y1="-258.2404" x2="3674.3484" y2="-93.8901" gradientTransform="matrix(-0.9999 -1.500928e-02 1.500928e-02 -0.9999 3952.7295 3.6679)">
					<stop  offset="0" style="stop-color:#D98824"/>
					<stop  offset="1" style="stop-color:#D98824;stop-opacity:0"/>
				</linearGradient>
				<path class="st12" d="M211.5,43.5c-20.3,9-1.1,27.7,15.9,39.5c26.6,18.5,42.6,46.1,48.4,66.9c6,21.5,17.6,66.6,48.3,55.6
					c33.8-12.2,32.8-52.4,6.8-78.6c-15.9-16.1-47.5-38.5-64.2-61.5C254.1,48.1,225.4,36.4,211.5,43.5L211.5,43.5z"/>
				<path class="st9" d="M211.5,43.5c-20.3,9-1.1,27.7,15.9,39.5c26.6,18.5,42.6,46.1,48.4,66.9c6,21.5,17.6,66.6,48.3,55.6
					c33.8-12.2,32.8-52.4,6.8-78.6c-15.9-16.1-47.5-38.5-64.2-61.5C254.1,48.1,225.4,36.4,211.5,43.5L211.5,43.5z"/>
				
					<linearGradient id="SVGID_6_" gradientUnits="userSpaceOnUse" x1="3674.3535" y1="-101.4904" x2="3674.3535" y2="-250.6094" gradientTransform="matrix(-0.9999 -1.500928e-02 1.500928e-02 -0.9999 3952.7295 3.6679)">
					<stop  offset="0" style="stop-color:#FFFFFF"/>
					<stop  offset="1" style="stop-color:#FFFFFF;stop-opacity:0"/>
				</linearGradient>
				<path class="st13" d="M215.2,50.3l-0.4,0.2c-1.2,0.5-4,1.9-4.1,3.4c-0.3,3.1,5.1,11.7,21.3,22.9c28.9,20.1,45.6,49.9,51.5,71.1
					l0.5,1.7c4.1,14.6,11.6,41.8,25,48.5c3.7,1.9,7.7,1.9,12.5,0.2c10.6-3.8,17.5-11.1,19.8-21.1c3.4-14.2-2.9-31.9-16-45
					c-5.3-5.3-12.6-11.6-20.4-18.3c-15.5-13.3-33.1-28.3-44.5-44c-9.1-12.4-26.8-20.7-38.2-20.8C219.3,48.9,217,49.4,215.2,50.3
					L215.2,50.3z"/>
				<path class="st11" d="M271.1,94c-6.5-6.3-12.4-13-17.3-19.8C246.4,64,231,56.8,221.9,56.6c-0.5,0-0.9,0-1.3,0
					c2.5,3.1,7.3,7.9,15.9,13.9c11.7,8.1,21.3,17.9,29.5,27.8C270.1,103.3,274.6,97.3,271.1,94L271.1,94z"/>
				<g>
					<path class="st6" d="M230.4,48.4c0,0.4,0.3,0.7,0.7,0.7c0.4,0,0.8-0.3,0.8-0.7c0-0.4-0.3-0.7-0.7-0.7
						C230.7,47.7,230.4,48,230.4,48.4z"/>
					<path class="st6" d="M221.1,50.4c0,0.4,0.3,0.7,0.7,0.7s0.8-0.3,0.8-0.7c0-0.4-0.3-0.7-0.7-0.7S221.1,50,221.1,50.4z"/>
					<path class="st6" d="M211.2,61.6c0,0.4,0.3,0.7,0.7,0.7s0.8-0.3,0.8-0.7c0-0.4-0.3-0.7-0.7-0.7
						C211.6,60.9,211.2,61.2,211.2,61.6L211.2,61.6z"/>
					<path class="st6" d="M226,52.6c0,0.4,0.3,0.7,0.7,0.7c0.4,0,0.8-0.3,0.8-0.7c0-0.4-0.3-0.7-0.7-0.7
						C226.3,51.9,226,52.2,226,52.6z"/>
					<path class="st6" d="M241.5,50.7c0,0.4,0.3,0.7,0.7,0.7c0.4,0,0.8-0.3,0.8-0.7c0-0.4-0.3-0.7-0.7-0.7S241.5,50.3,241.5,50.7
						L241.5,50.7z"/>
					<path class="st6" d="M244,68.8c0,0.4,0.3,0.7,0.7,0.7c0.4,0,0.8-0.3,0.8-0.7c0-0.4-0.3-0.7-0.7-0.7
						C244.3,68.1,244,68.4,244,68.8z"/>
					<path class="st6" d="M247.1,57.6c0,0.4,0.3,0.7,0.7,0.7s0.8-0.3,0.8-0.7c0-0.4-0.3-0.7-0.7-0.7
						C247.5,56.8,247.1,57.2,247.1,57.6L247.1,57.6z"/>
					<path class="st6" d="M233.2,52.7c0,0.4,0.3,0.7,0.7,0.7s0.8-0.3,0.8-0.7c0-0.4-0.3-0.7-0.7-0.7S233.2,52.3,233.2,52.7z"/>
					<path class="st6" d="M218.3,61.1c0,0.4,0.3,0.7,0.7,0.7s0.8-0.3,0.8-0.7c0-0.4-0.3-0.7-0.7-0.7S218.4,60.7,218.3,61.1z"/>
					<path class="st6" d="M215.6,55.9c0,0.4,0.3,0.7,0.7,0.7s0.8-0.3,0.8-0.7c0-0.4-0.3-0.7-0.7-0.7S215.6,55.5,215.6,55.9z"/>
					<path class="st6" d="M228.3,58c0,0.4,0.3,0.7,0.7,0.7s0.8-0.3,0.8-0.7c0-0.4-0.3-0.7-0.7-0.7C228.7,57.3,228.3,57.6,228.3,58
						L228.3,58z"/>
					<path class="st6" d="M238,60.5c0,0.4,0.3,0.7,0.7,0.7s0.8-0.3,0.8-0.7c0-0.4-0.3-0.7-0.7-0.7S238,60.1,238,60.5z"/>
					<path class="st6" d="M235.7,65.4c0,0.4,0.3,0.7,0.7,0.7s0.8-0.3,0.8-0.7c0-0.4-0.3-0.7-0.7-0.7S235.7,65,235.7,65.4z"/>
					<path class="st6" d="M220.8,68.5c0,0.4,0.3,0.7,0.7,0.7s0.8-0.3,0.8-0.7c0-0.4-0.3-0.7-0.7-0.7S220.8,68.1,220.8,68.5z"/>
				</g>
			</g>
			<g>
				<path class="st7" d="M184,43.2c23.2,0.3,26.2,24.5,21.9,41.3c-6.7,26.4,1.6,53.9,7,74.1s13.3,70.2-31.8,69.5
					c-45.1-0.7-35.6-50.3-29.6-70.4c6-20.1,15.2-47.3,9.3-73.9C157,66.9,160.7,42.8,184,43.2L184,43.2z"/>
				
					<linearGradient id="SVGID_7_" gradientUnits="userSpaceOnUse" x1="110.2169" y1="-280.529" x2="110.2169" y2="-95.5268" gradientTransform="matrix(0.9999 1.500927e-02 1.500927e-02 -0.9999 75.1428 -54.0168)">
					<stop  offset="0" style="stop-color:#D98824"/>
					<stop  offset="1" style="stop-color:#D98824;stop-opacity:0"/>
				</linearGradient>
				<path class="st14" d="M184,43.2c23.2,0.3,26.2,24.5,21.9,41.3c-6.7,26.4,1.6,53.9,7,74.1s13.3,70.2-31.8,69.5
					c-45.1-0.7-35.6-50.3-29.6-70.4c6-20.1,15.2-47.3,9.3-73.9C157,66.9,160.7,42.8,184,43.2L184,43.2z"/>
				
					<linearGradient id="SVGID_8_" gradientUnits="userSpaceOnUse" x1="110.2101" y1="-103.1678" x2="110.2101" y2="-272.8783" gradientTransform="matrix(0.9999 1.500927e-02 1.500927e-02 -0.9999 75.1428 -54.0168)">
					<stop  offset="0" style="stop-color:#FFFFFF"/>
					<stop  offset="1" style="stop-color:#FFFFFF;stop-opacity:0"/>
				</linearGradient>
				<path class="st15" d="M183.9,50.8c-5.1-0.1-8.9,1.4-11.6,4.6c-5.3,6.3-5.7,18-3.8,26.8c6,26.8-2.3,54-8.3,73.9l-1.1,3.7
					c-2.6,8.5-10.1,37.6,0.9,52c4.3,5.7,11.3,8.5,21.2,8.6s17-2.5,21.5-8c11.5-14.1,4.8-43.3,2.5-52l-1-3.8
					c-5.4-20-12.8-47.4-6-74.1c2.2-8.8,2.2-20.5-2.9-26.9C192.8,52.5,189,50.9,183.9,50.8L183.9,50.8z"/>
				<path class="st11" d="M182.2,155c11.8,0.2,9.5-15.6,8.7-19.3c-3.5-16.8-5.3-35.8-0.4-55c2-8,1.4-16.8-1.5-20.4
					c-0.5-0.6-1.5-1.9-5.3-1.9c-3.8-0.1-4.9,1.2-5.4,1.8c-3,3.6-3.9,12.3-2.1,20.4c4.3,19.2,1.9,38.3-2.1,54.9
					C173.3,139.1,170.5,154.9,182.2,155L182.2,155z"/>
				<g>
					<path class="st6" d="M184.6,47.7c0,0.4-0.4,0.7-0.8,0.7c-0.4,0-0.7-0.3-0.7-0.7c0-0.4,0.4-0.7,0.8-0.7
						C184.3,47,184.7,47.3,184.6,47.7z"/>
					<path class="st6" d="M193.8,50c0,0.4-0.4,0.7-0.8,0.7c-0.4,0-0.7-0.3-0.7-0.7c0-0.4,0.4-0.7,0.8-0.7
						C193.5,49.3,193.8,49.6,193.8,50L193.8,50z"/>
					<path class="st6" d="M203.4,61.5c0,0.4-0.4,0.7-0.8,0.7c-0.4,0-0.7-0.3-0.7-0.7c0-0.4,0.4-0.7,0.8-0.7
						C203.1,60.7,203.4,61.1,203.4,61.5z"/>
					<path class="st6" d="M188.9,52.1c0,0.4-0.4,0.7-0.8,0.7c-0.4,0-0.7-0.3-0.7-0.7c0-0.4,0.4-0.7,0.8-0.7
						C188.6,51.4,188.9,51.7,188.9,52.1z"/>
					<path class="st6" d="M173.5,49.7c0,0.4-0.4,0.7-0.8,0.7c-0.4,0-0.7-0.3-0.7-0.7c0-0.4,0.4-0.7,0.8-0.7
						C173.2,49,173.5,49.3,173.5,49.7L173.5,49.7z"/>
					<path class="st6" d="M170.4,67.8c0,0.4-0.4,0.7-0.8,0.7c-0.4,0-0.7-0.3-0.7-0.7c0-0.4,0.4-0.7,0.8-0.7
						C170.1,67,170.4,67.4,170.4,67.8z"/>
					<path class="st6" d="M167.6,56.4c0,0.4-0.4,0.7-0.8,0.7c-0.4,0-0.7-0.3-0.7-0.7c0-0.4,0.4-0.7,0.8-0.7
						C167.3,55.7,167.6,56,167.6,56.4z"/>
					<path class="st6" d="M181.7,52c0,0.4-0.4,0.7-0.8,0.7c-0.4,0-0.7-0.3-0.7-0.7c0-0.4,0.4-0.7,0.8-0.7
						C181.4,51.3,181.7,51.6,181.7,52L181.7,52z"/>
					<path class="st6" d="M196.3,60.8c0,0.4-0.4,0.7-0.8,0.7c-0.4,0-0.7-0.3-0.7-0.7c0-0.4,0.4-0.7,0.8-0.7
						C196,60.1,196.3,60.4,196.3,60.8z"/>
					<path class="st6" d="M199.2,55.7c0,0.4-0.4,0.7-0.8,0.7c-0.4,0-0.7-0.3-0.7-0.7c0-0.4,0.4-0.7,0.8-0.7
						C198.8,55,199.2,55.3,199.2,55.7L199.2,55.7z"/>
					<path class="st6" d="M186.4,57.4c0,0.4-0.4,0.7-0.8,0.7c-0.4,0-0.7-0.3-0.7-0.7c0-0.4,0.4-0.7,0.8-0.7
						C186,56.7,186.4,57,186.4,57.4L186.4,57.4z"/>
					<path class="st6" d="M176.6,59.6c0,0.4-0.4,0.7-0.8,0.7s-0.7-0.3-0.7-0.7c0-0.4,0.4-0.7,0.8-0.7
						C176.3,58.9,176.6,59.2,176.6,59.6L176.6,59.6z"/>
					<path class="st6" d="M178.8,64.6c0,0.4-0.4,0.7-0.8,0.7c-0.4,0-0.7-0.3-0.7-0.7c0-0.4,0.4-0.7,0.8-0.7
						C178.5,63.9,178.8,64.2,178.8,64.6z"/>
					<path class="st6" d="M193.5,68.1c0,0.4-0.4,0.7-0.8,0.7c-0.4,0-0.7-0.3-0.7-0.7c0-0.4,0.4-0.7,0.8-0.7
						C193.2,67.4,193.6,67.7,193.5,68.1L193.5,68.1z"/>
				</g>
			</g>
		</g>
	</g>
</g>
</svg>
