<?xml version="1.0" encoding="utf-8"?>
<!-- Generator: Adobe Illustrator 24.0.2, SVG Export Plug-In . SVG Version: 6.00 Build 0)  -->
<svg version="1.1" id="pan1" xmlns="http://www.w3.org/2000/svg" xmlns:xlink="http://www.w3.org/1999/xlink" x="0px" y="0px"
	 viewBox="0 0 325.5 210.8" style="enable-background:new 0 0 325.5 210.8;" xml:space="preserve">
<style type="text/css">
	.st0{fill:#FFCE00;}
	.st1{opacity:0.2;fill:#D50900;enable-background:new    ;}
	.st2{fill:#FF8500;}
	.st3{opacity:0.75;}
	.st4{fill:#FFE1C4;}
	.st5{opacity:0.38;fill:#991C00;enable-background:new    ;}
</style>
<g>
	<path class="st0" d="M294.3,125.5c0,45.6-55.6,76.5-133.2,76.5S27.8,170.7,27.8,125.5C27.8,100,68.9,24.5,161,24.5
		c9.2,0,17.9,0.8,26.1,2.1c7.4,1.2,14.3,3,20.8,5.1C267.5,51.2,294.3,104.8,294.3,125.5z"/>
	<path class="st1" d="M294.3,125.5c0,45.6-55.6,76.5-133.2,76.5S27.8,170.7,27.8,125.5C27.8,100,68.9,24.5,161,24.5
		c9.2,0,17.9,0.8,26.1,2.1c-2.3,3.2-7.7,6.8-20.8,7.3c-23.7,1-27.9-2.2-30,4.7c-2.1,6.8-1.2,13.4-13.8,18.4
		c-12.6,5.1-13.3-9.1-16.5-7.8c-3.2,1.3-21.2,9.8-38.9,31.6c-17.7,21.7-21.3,35.5-17.4,44.6c3.9,9.1,7.1,17.6,2.9,24.1
		c-4.2,6.4,13.3,36,77.7,41.8c0,0,2.7-8.2,8.8-11.9c6.1-3.7,7.2-5.9,8.7-32.7c1.6-26.8,3-63.6-0.5-70.5
		c-3.5-6.9-15.5-21.8-10.5-31.3c5.1-9.6,48.3,3.8,48.3,3.8s0.4,7.2-5.7,13.8c-6.2,6.5-6.2,81-5.8,91.2c0.3,10.2-1.1,21.4,2.7,25.2
		c3.8,3.7,9.6,6.3,10.9,11.5c1.3,5.2,32.5,3,57.8-7.8c25.3-10.8,38.8-32.3,38.9-32.9c0.1-0.7-9.9-0.3-9.3-10.5
		c0.6-10.2,3.5-15.5,2.7-23.9c-0.8-8.4-10.8-30.4-25.7-41.7c-14.9-11.3-31-28.3-35.7-26.2c-4.7,2-7,7.8-16.5,7.5
		c-9.6-0.3-17.8-12.4-8.3-19.5c2.1-1.6,8.3-2.7,16.7-3.5C267.5,51.2,294.2,104.8,294.3,125.5L294.3,125.5z"/>
</g>
<g>
	<path class="st2" d="M161,32.3c-35.7,0-26.2-23.6-6.2-27.8c2-0.4,4.1-0.6,6.2-0.6c10.6,0,18.9,5.6,21.8,11.8
		C186.4,23.5,181.4,32.3,161,32.3z"/>
	<g class="st3">
		<g>
			<path class="st4" d="M153.2,7.6c-0.2,0.1-0.4,0.2-0.6,0.4c-0.3,0.5-0.2,1.1,0.2,1.5c0.4,0.4,1,0.5,1.5,0.5
				c1.1,0.1,2.3-0.1,3.3-0.5c0.4-0.1,0.7-0.3,0.9-0.6c0.7-1,0.3-2.7-1-2.8C156.3,6.2,154.5,7,153.2,7.6L153.2,7.6z"/>
			<path class="st4" d="M144.9,14.9c0.2,0.7,0.9,1,1.6,1.1c1.3,0.1,2.6-0.5,3.3-1.6c1-1.4-0.8-3.3-2.2-2.9
				C146.5,11.7,144.4,13.4,144.9,14.9L144.9,14.9z"/>
			<path class="st4" d="M155.6,14.2c-0.3,0.1-0.6,0.3-0.7,0.6c-0.1,0.2-0.1,0.5,0,0.7c0.2,0.5,0.6,0.9,1.1,1s1,0.2,1.5,0.3
				c0.9,0,1.8-0.1,2.6-0.4c1.3-0.4,1.7-2,0.3-2.5C158.9,13.5,157,13.5,155.6,14.2L155.6,14.2z"/>
			<path class="st4" d="M163.6,12c2.8-0.5,1.4-3.8-0.8-3.8C160.2,8.2,161,12.4,163.6,12z"/>
			<path class="st4" d="M168.6,7.1c-0.2,0.1-0.5,0.3-0.4,0.6c0,0.2,0.1,0.3,0.2,0.4c0.8,1.2,2.3,1.9,3.7,1.9c0.2,0,0.4,0,0.6-0.2
				c0.2-0.2,0.2-0.5,0.2-0.8C172.4,7.3,170,6.4,168.6,7.1L168.6,7.1z"/>
			<path class="st4" d="M166.5,14.1c-0.1,1,0.5,2,1.4,2.3c0.9,0.4,1.9,0.1,2.6-0.5c1-1,1.2-3.3-0.3-3.9
				C168.8,11.5,166.7,12.5,166.5,14.1z"/>
			<path class="st4" d="M173.9,13.7c0.3,0.9,1.1,1.6,2,1.9c0.7,0.3,1.5,0.3,2.1-0.1c1.6-1.2,0.3-3.9-1.1-4.5
				C175.2,10.2,173.3,12,173.9,13.7z"/>
		</g>
	</g>
	<path class="st5" d="M161,32.3c-35.7,0-26.2-23.6-6.2-27.8c-2.2,1.5-4.2,3.3-5.8,5.3c-1.3,1.5-2.4,3.3-2.7,5.3
		c-0.5,3.3,1.5,6.7,4.2,8.5s6.1,2.3,9.3,2.5c4.2,0.2,8.4-0.1,12.6-0.8c3.1-0.6,6.3-1.5,8.3-4c1.3-1.5,1.9-3.5,2.2-5.5
		C186.4,23.4,181.4,32.3,161,32.3L161,32.3z"/>
	<path class="st2" d="M180.8,189.1c3.4,4.9,5.8,10.5-0.2,14.5c-10.3,6.8-19.6-1.5-19.6-1.5s-11.7,12.3-21,4.2
		c-9.3-8.1,1.9-21.4,7-26.3c5.1-4.9,6.1-86.4,4.2-99.6c-1.9-13.3-21-24.5-12.6-38.8c4.3-7.2,9.9-6.9,14.5-4.8c4.5,2,7.9,5.8,7.9,5.8
		c3.7,0,10.3-13.3,18.7-5.9c8.4,7.4,7,13.8,0,21.1s-6.1,17.2-7.9,57.4s0.9,60.8,2.8,65.3C175.4,182.4,178.4,185.5,180.8,189.1
		L180.8,189.1z"/>
	<g class="st3">
		<path class="st4" d="M150,40.7c-0.5-0.8-1.3-1.2-1.7-2c-0.2-0.3-0.4-0.8-0.8-0.8c-0.5-0.1-1.7,0.6-1.9,1c-0.4,0.6-0.2,2.1,0,2.8
			c0.4,1.4,1.9,2.3,3.3,2.2c0.3,0,0.7-0.1,1-0.3c0.4-0.3,0.6-0.8,0.6-1.4S150.3,41.1,150,40.7L150,40.7z"/>
		<path class="st4" d="M156,47.5c0.2,0.4,0.7,0.7,1.1,0.9c0.7,0.3,1.4,0.4,2.1,0.2c0.7-0.2,1.2-0.9,1.2-1.7
			C160.3,42.9,154.4,44.5,156,47.5L156,47.5z"/>
		<path class="st4" d="M146.9,47.9c-0.7-0.7-1.6-0.4-2.5-0.9c-0.6-0.3-1.6-0.9-2.1-0.2c-0.1,0.1-0.1,0.3-0.1,0.4
			c-0.1,0.6-0.1,1.2-0.2,1.8s0,1.2,0.3,1.7c0.2,0.4,0.7,0.7,1.1,1c0.8,0.4,1.8,0.6,2.7,0.5c0.5,0,0.9-0.1,1.3-0.4s0.7-0.7,0.7-1.2
			c0-0.3-0.1-0.6-0.2-0.8C147.7,49.1,147.4,48.4,146.9,47.9z"/>
		<path class="st4" d="M152.2,52.2c0.4,1.1,0.3,2.4,1,3.3c0.5,0.6,1.2,0.8,1.9,0.9c0.5,0.1,1,0.1,1.5-0.1c0.9-0.5,1.3-1.8,1-2.8
			c-0.3-1.5-1.7-3-3.1-3.6C152.9,49.1,151.5,50.6,152.2,52.2L152.2,52.2z"/>
		<path class="st4" d="M143.5,57.5c0.1,0.3,0.2,0.6,0.4,0.8c0.8,1.3,1.8,2.4,3.1,3.3c0.4,0.3,0.8,0.5,1.3,0.5c0.3,0,0.6-0.2,0.9-0.4
			c0.7-0.6,1-1.7,0.9-2.7c-0.1-1.5-1.1-3.9-2.6-4.3C145.8,54.4,143,55.4,143.5,57.5L143.5,57.5z"/>
		<path class="st4" d="M163.1,50.4c-0.8,0.7-1.5,1.7-1.4,2.8c0.1,1,0.9,1.9,1.8,2.2s2,0.1,2.9-0.4c0.4-0.2,0.8-0.5,1.1-0.9
			c0.4-0.6,0.5-1.5,0.2-2.3C167,49.8,164.7,49,163.1,50.4L163.1,50.4z"/>
		<path class="st4" d="M167.4,42.4c-0.3,0.5-0.6,1.2-0.6,1.8c0,0.6,0.3,1.3,0.9,1.5c0.6,0.3,1.3,0,1.8-0.3c0.7-0.4,1.4-0.8,2.1-1.3
			c1.1-0.8,2.1-1.9,2.3-3.2c0.2-1.5-1.7-2-2.8-1.7C169.6,39.6,168.2,41,167.4,42.4L167.4,42.4z"/>
		<path class="st4" d="M176.8,46.8c0.3,0.6,0.9,0.9,1.5,1.1s1.3,0.1,1.8-0.1c0.3-0.1,0.7-0.2,0.9-0.5c0.2-0.3,0.3-0.6,0.3-1
			c0-1.3-1-3.9-2.5-3.8C177.1,42.6,175.9,45.3,176.8,46.8L176.8,46.8z"/>
		<path class="st4" d="M171.5,52.4c0.6,1.1,1.8,1.8,3,1.8c0.2,0,0.4,0,0.5-0.1c0.2-0.1,0.3-0.3,0.5-0.5c0.4-0.6,0.8-1.3,0.7-2.1
			c-0.1-1.6-2-3.7-3.6-3.5C170.9,48.3,170.8,51.1,171.5,52.4z"/>
		<path class="st4" d="M159,66.1c0.5,0.2,1.1,0.4,1.6,0.1c2-1.2,0-5.1-2-5C155.8,61.2,157.4,65.4,159,66.1L159,66.1z"/>
		<path class="st4" d="M167,61.8c-0.6,1-0.6,2.2-0.5,3.3c0.1,0.5,0.2,1,0.4,1.5s0.7,0.8,1.2,0.8c0.4,0,0.8-0.2,1.1-0.5
			c0.8-0.6,1.7-1.2,2.1-2.1c0.2-0.6,0.3-1.2,0.3-1.8c0-0.5,0-1.1-0.1-1.6c0-0.3-0.1-0.6-0.3-0.8C170.1,59.2,167.7,60.5,167,61.8
			L167,61.8z"/>
		<path class="st4" d="M152.5,69.3c0.3,0.6,0.6,1.1,0.9,1.7c0.3,0.4,0.5,0.9,0.9,1.2c0.4,0.3,0.9,0.5,1.4,0.4c0.6-0.2,0.9-1,0.9-1.7
			s-0.3-1.3-0.6-2c-0.4-1.2-1.2-2.2-2.5-2.4C152.1,66.1,152.1,68.3,152.5,69.3L152.5,69.3z"/>
		<path class="st4" d="M160,77.4c0.2,0.8,0.7,1.6,1.4,1.8c0.5,0.2,1.1,0,1.6-0.4c0.4-0.3,0.8-0.8,1-1.4c0.6-1.4,0.8-3,0.5-4.5
			c-0.2-1-0.8-3-2.1-2.8c-1.1,0.2-2,2.1-2.3,3.1C159.7,74.6,159.6,76.1,160,77.4L160,77.4z"/>
		<path class="st4" d="M166.7,83.6c0.2,0.3,0.4,0.6,0.7,0.8c0.8,0.5,1.8,0.1,2.4-0.7c1-1.5,0.2-4.2-1.7-4.3
			C166,79.3,165.9,82.3,166.7,83.6L166.7,83.6z"/>
		<path class="st4" d="M155.3,81.6c0,1.2,0.3,2.4,0.7,3.5c0.2,0.4,0.3,0.9,0.7,1.2c0.6,0.5,1.5,0.5,2.2,0s0.9-1.3,1-2.2
			s-0.3-1.6-0.6-2.3c-0.4-0.8-1.2-1.9-2.2-2C156,79.8,155.4,80.7,155.3,81.6L155.3,81.6z"/>
		<path class="st4" d="M165.1,87.8c-0.3-0.3-0.8-0.4-1.2-0.3c-0.4,0.1-0.8,0.4-1.1,0.6c-0.9,0.8-1.8,1.9-1.6,3.1
			c0.2,1,1.1,1.8,2.1,2.1c1,0.2,2,0,2.9-0.4c0.5-0.2,1.1-0.6,1.3-1.1c0.1-0.3,0.2-0.6,0.2-0.9C167.6,89.4,166.5,88,165.1,87.8
			c-0.4,0-0.9,0-1.3,0.4"/>
		<path class="st4" d="M154.8,94.2c-0.1,0.9-0.2,1.9,0.2,2.8c0.4,0.9,1.4,1.5,2.2,1.1c0.7-0.3,1-1,1.1-1.8c0.2-1.3-0.4-3.7-1.5-4.5
			C155.3,90.7,154.9,93.2,154.8,94.2L154.8,94.2z"/>
		<path class="st4" d="M165.3,97.8c-0.6,0.4-1.1,1-1.3,1.7c-0.1,0.3-0.2,0.7-0.1,1.1c0.1,0.3,0.2,0.6,0.4,0.9
			c0.3,0.4,0.8,0.8,1.3,0.9c0.8,0.2,1.6-0.4,2.2-1c0.3-0.3,0.6-0.5,0.7-0.9c0.2-0.3,0.2-0.6,0.3-0.9c0.1-0.6,0.2-1.3-0.1-1.8
			C168.1,96.8,166.1,97.3,165.3,97.8L165.3,97.8z"/>
		<path class="st4" d="M156.8,107.6c-0.1,0.8-0.2,1.7,0.1,2.5c0.3,0.8,1,1.4,1.8,1.3c0.6-0.1,1.2-0.6,1.5-1.2
			c0.8-1.5,1.2-5.3-0.3-6.6C157.8,101.8,157,106.2,156.8,107.6L156.8,107.6z"/>
		<path class="st4" d="M165.6,116.8c0.5,0,1-0.2,1.4-0.5c1.2-0.7,2.1-2.2,1.4-3.6c-0.5-1.1-1.7-1.8-2.9-1.5
			C162.7,111.9,162.1,117.1,165.6,116.8L165.6,116.8z"/>
		<path class="st4" d="M156.7,118.6c-0.4,2.5-0.9,5-0.5,7.6c0.1,1.1,0.4,2.2,1.1,3c0.3,0.4,0.7,0.7,1.1,0.5c0.2-0.1,0.4-0.3,0.5-0.5
			c1.7-2.5,2.1-5.8,1.7-8.8c-0.2-1.3-0.4-3.6-1.4-4.4C157.7,114.9,156.9,117.5,156.7,118.6L156.7,118.6z"/>
		<path class="st4" d="M163.3,126.4c-0.2,0.7-0.4,1.3-0.4,2c0.1,1.2,0.9,2.4,2,2.9c1.1,0.5,2.4,0.2,3.3-0.6c1.2-1.2,1.3-3.3,0.5-4.8
			c-0.6-1.2-1.6-1.5-2.8-1.7c-0.7-0.1-1.1-0.3-1.6,0.1C163.9,124.8,163.6,125.8,163.3,126.4L163.3,126.4z"/>
	</g>
	<path class="st5" d="M180.6,203.6c-10.3,6.8-19.6-1.5-19.6-1.5s-11.7,12.3-21,4.2c-9.3-8.1,1.9-21.4,7-26.3
		c5.1-4.9,6.1-86.4,4.2-99.6c-1.9-13.3-21-24.5-12.6-38.8c4.3-7.2,9.9-6.9,14.5-4.8c-2.6,0-5.2,0.8-7.2,2.6
		c-2.9,2.6-4.2,6.9-3.4,10.8c1.4,7.1,8.8,11,11.8,17.5c1.7,3.7,1.8,8,1.9,12.1c0.5,21,1.1,42,0.8,62.9c-0.2,15.5-1,31.8-8.4,45.2
		c-1.3,2.4-2.9,5.3-1.5,7.6c1.5,2.5,5,2.1,7.5,0.9c2.9-1.4,5.5-3.6,7.5-6.2c2.4,4,5.3,8.1,9.6,9.7c4.3,1.5,10.1-1.1,10.3-5.8
		c0.1-1.7-0.6-3.4-1.2-5C184.2,194,186.6,199.6,180.6,203.6L180.6,203.6z"/>
	<path class="st2" d="M318.6,127c-6.1,13.7-20.1,5.4-20.1,5.4s1.4,15.2-13.1,14.2c-14.5-1-5.6-21.1-4.2-28s-7.9-28-22.4-42.2
		c-14.5-14.2-43.5-38.8-47.2-31.4c-3.7,7.4-13.1,12.3-21,0.5c-7.9-11.8,12.1-15.5,12.1-15.5s-9.8-7.6,1.4-15.9
		c1.5-1.1,3-1.7,4.3-1.8c9-0.8,15.4,16.5,15.4,16.5s25.6,9.3,44.7,30.3c19.2,21,34.1,50.2,34.1,50.2s4.2,0.8,8.5,2.8h0l0,0
		C316.6,114.7,321.9,119.3,318.6,127L318.6,127z"/>
	<g class="st3">
		<path class="st4" d="M206.6,16.4c-0.4,0.3-0.6,0.8-0.8,1.3c-0.2,0.5-0.4,1.1-0.3,1.6c0.2,0.5,0.7,0.8,1.2,1s1,0.4,1.6,0.5
			c0.6,0.1,1.2,0.1,1.7,0c0.6-0.2,1.1-0.5,1.3-1.1C212.7,16.9,208.7,14.5,206.6,16.4L206.6,16.4z"/>
		<path class="st4" d="M213.7,27.6c0.5,1.1,1.5,1.9,2.6,2.3c0.3,0.1,0.6,0.2,0.9,0.1c0.4-0.1,0.8-0.4,1-0.8c1.2-1.9,0.5-5.8-1.6-6.7
			C213.9,21.4,212.8,25.7,213.7,27.6L213.7,27.6z"/>
		<path class="st4" d="M205.6,25.6c-0.2,0.3-0.3,0.7-0.3,1c-0.2,1-0.2,2.1,0.3,2.8c0.3,0.5,0.9,0.8,1.4,1c0.4,0.2,0.9,0.3,1.3,0
			c0.2-0.1,0.4-0.3,0.6-0.5c0.4-0.4,0.7-0.9,0.9-1.4c0.3-0.8,0.2-1.7-0.3-2.4C208.9,24.9,206.6,24.1,205.6,25.6L205.6,25.6z"/>
		<path class="st4" d="M197.5,34.8c-1,0.6-1.9,1.3-2.4,2.3s-0.4,2.5,0.4,3.2c0.6,0.5,1.3,0.5,2.1,0.5c1.5-0.1,3-0.7,4.4-1.5
			c0.6-0.4,1.3-0.8,1.7-1.3c1.6-1.9,0.2-3.3-1.5-4.2C200.7,33.1,198.8,34,197.5,34.8L197.5,34.8z"/>
		<path class="st4" d="M209.6,36.1c-0.2,0.4-0.2,0.9-0.1,1.4c0.2,0.5,0.7,0.8,1.1,1c0.2,0.1,0.4,0.1,0.6,0.1c1,0.1,2-0.3,2.6-1.1
			C215.9,34.8,210.9,33.3,209.6,36.1L209.6,36.1z"/>
		<path class="st4" d="M202.6,42.6c-0.6,0.5-0.8,1.4-0.7,2.1c0.2,1.3,1.3,2.2,2.5,2.4c0.8,0.2,1.7,0,2.4-0.4c0.5-0.3,1-0.7,1.1-1.3
			c0.2-0.7-0.3-1.4-0.6-2C206.3,41.8,204.2,41.2,202.6,42.6z"/>
		<path class="st4" d="M222.1,36.1c1.2,0.7,2.6,0.8,3.9,1c1.2,0.2,2.4,0.3,3.7,0.4c0.3,0,0.5,0.1,0.8,0c0.3-0.1,0.4-0.3,0.6-0.6
			c0.4-0.8,0-1.8-0.7-2.3c-1-0.9-2.4-0.9-3.7-1.3c-0.8-0.3-1.6-0.8-2.5-0.8C222.2,32.4,219.2,34.5,222.1,36.1L222.1,36.1z"/>
		<path class="st4" d="M223.3,41.8c0.1,0.5,0.4,0.8,0.7,1.1c0.9,0.8,1.8,1.6,2.8,2.4c1.1,1,2.5,2,3.9,1.7c0.6-0.1,1.1-0.5,1.1-1.1
			c0-0.2-0.1-0.3-0.2-0.5c-0.9-1.8-2.6-2.7-4-4C226.8,40.4,223.1,39.5,223.3,41.8L223.3,41.8z"/>
		<path class="st4" d="M237.2,42.8c0,0.2,0,0.4,0.1,0.6c0.1,0.2,0.3,0.4,0.6,0.5c2.4,0.8,5.4-1.9,3-4.1c-0.8-0.7-2-0.7-2.9-0.2
			C236.2,40.4,237.1,41.3,237.2,42.8L237.2,42.8z"/>
		<path class="st4" d="M236.6,49.6c0,0.8,0.3,1.6,0.7,2.3c0.7,1.1,1.6,2,2.8,2.4c0.6,0.2,1.2,0.2,1.7,0c0.4-0.2,0.7-0.7,0.9-1.1
			c0.3-0.6,0.5-1.2,0.5-1.9C243,48,236.8,45.2,236.6,49.6L236.6,49.6z"/>
		<path class="st4" d="M249.3,50.7c0.8,0.4,1.7,0.4,2.5,0.4c0.6,0,1.1-0.1,1.7-0.3c0.5-0.2,1-0.4,1.1-1c0-0.2,0-0.4-0.1-0.6
			c-0.4-1.1-1.3-1.6-2.3-2.1c-0.8-0.4-1.6-1.1-2.5-1C247,46.3,247.3,49.8,249.3,50.7L249.3,50.7z"/>
		<path class="st4" d="M247.6,54.7c-0.7,0.4-1.4,0.8-1.9,1.5c-0.5,0.7-0.7,1.6-0.5,2.4c0.4,1.3,1.9,2,3.2,2.1
			c1.7,0.2,3.3-0.1,4.8-0.9c0.4-0.2,0.8-0.5,1.1-0.8c0.4-0.6,0.4-1.4,0.3-2.1c-0.1-0.7-0.3-1.3-0.7-1.8c-0.5-0.6-1.3-1-2.1-1.1
			C250.6,53.7,248.9,54,247.6,54.7L247.6,54.7z"/>
		<path class="st4" d="M259.9,60.5c0.1,0.3,0.3,0.5,0.4,0.7c0.6,0.7,1.5,1,2.4,1c2.8,0,2.5-3.5,0.8-4.9
			C261.7,55.9,259.4,58.4,259.9,60.5L259.9,60.5z"/>
		<path class="st4" d="M255.9,63c-0.2,0.2-0.3,0.5-0.4,0.9c-0.5,1.5-0.3,3.2,0.4,4.6c0.5,1,1.5,1.8,2.5,1.6c0.8-0.2,1.4-1,1.7-1.8
			c0.2-0.4,0.3-0.8,0.3-1.3c0-0.4-0.2-0.8-0.4-1.1c-0.5-1-1-2.3-1.8-3.2C257.6,62.1,256.5,62.4,255.9,63L255.9,63z"/>
		<path class="st4" d="M269.6,69.2c0.3-0.1,1.1-0.3,1.2-0.7c0.1-0.2,0-0.5-0.1-0.7c-0.7-1.9-2.4-2-4-1.9c-0.2,0-0.3,0-0.4,0.1
			c-0.3,0.1-0.5,0.5-0.4,0.9c0,0.4,0.2,0.7,0.5,1c0.4,0.5,0.9,1,1.5,1.2S269,69.4,269.6,69.2L269.6,69.2z"/>
		<path class="st4" d="M262,75c0.3,0.3,0.6,0.5,0.9,0.7c0.5,0.3,1.2,0.6,1.8,0.3c0.2-0.1,0.4-0.4,0.5-0.6c0.6-0.9,1.2-2,0.8-3.1
			c-0.3-0.8-1.1-1.6-1.9-1.7C262.3,70.4,260.8,73.6,262,75L262,75z"/>
		<path class="st4" d="M268.8,74.3c0,0.2,0.1,0.5,0.3,0.7c0.1,0.2,0.3,0.3,0.5,0.3c0.4,0.2,0.9,0.2,1.3,0.3c0.7,0,1.4,0,2.1-0.1
			c1.9-0.3,3.8-3.1,1.2-4C272.4,70.9,268.5,71.7,268.8,74.3L268.8,74.3z"/>
		<path class="st4" d="M269.5,79.4c-0.2,0.6-0.1,1.3,0.1,2c0.1,0.6,0.3,1.2,0.4,1.8c0.1,0.4,0.2,0.8,0.4,1.1
			c0.3,0.3,0.7,0.5,1.1,0.5c0.7,0.1,1.4,0.2,2-0.2c0.9-0.5,1.4-1.5,1.3-2.6c0-1-0.5-2-1.2-2.8c-0.2-0.3-0.5-0.5-0.7-0.7
			c-0.3-0.2-0.7-0.3-1-0.3C271.1,78.1,269.8,78.5,269.5,79.4L269.5,79.4z"/>
		<path class="st4" d="M278.4,82.3c0.3,0.6,0.9,1.1,1.5,1.3c2.1,0.6,3.1-3.1,1.6-4.4C279.5,77.6,277.2,80.1,278.4,82.3z"/>
		<path class="st4" d="M276.2,86.4c-0.4,1.2-0.1,2.6,0.8,3.3c0.4,0.3,0.9,0.4,1.4,0.4c0.3,0,0.6,0,0.9-0.1s0.4-0.4,0.6-0.7
			c0.3-0.6,0.4-1.3,0.3-2c0-0.7-0.2-1.3-0.6-1.8C278.4,84.2,276.7,84.8,276.2,86.4L276.2,86.4z"/>
		<path class="st4" d="M276.1,96.3c0.5,0.5,1.3,0.9,2,0.8c0.7-0.1,1.5-0.6,1.7-1.3c0.7-2-1.2-4.7-3.3-4.2
			C274.4,92.2,274.8,95,276.1,96.3z"/>
		<path class="st4" d="M284.2,92c0.2,0.8,0.7,1.6,1.4,2c0.7,0.3,1.5,0.2,2.2-0.1c0.7-0.3,1.3-0.8,1.8-1.3c0.3-0.2,0.5-0.5,0.7-0.8
			c0.2-0.4,0.2-0.9,0.1-1.3c-0.3-2-2.1-2.9-3.9-3C284.5,87.5,283.8,90.5,284.2,92L284.2,92z"/>
	</g>
	<path class="st5" d="M318.6,127c-6.1,13.7-20.1,5.4-20.1,5.4s1.4,15.2-13.1,14.2c-14.5-1-5.6-21.1-4.2-28s-7.9-28-22.4-42.2
		c-14.5-14.2-43.5-38.8-47.2-31.4c-3.7,7.4-13.1,12.3-21,0.5c-7.9-11.8,12.1-15.5,12.1-15.5s-9.8-7.6,1.4-15.9
		c1.5-1.1,3-1.7,4.3-1.8c-0.8,1-1.4,2.3-1.8,3.7c-1.5,5.6,2,7,3.9,11.3c1.2,2.9-2.1,5.5-4.8,6.8c-2.7,1.3-5.9,4.2-4.3,6.9
		c1.3,2.2,4.5,1.6,6.5,0.1c2-1.5,3.7-3.7,6.2-4c1.8-0.2,3.5,0.6,5.2,1.4c23.1,12.1,43.3,30.3,58.1,52.5c5.3,8,10.2,17.1,9.6,26.9
		c-0.3,4.9-2,9.6-2.1,14.5c-0.1,2.3,0.5,4.9,2.4,5.8c2.6,1.2,5.3-1.7,6.1-4.5c0.8-2.8,0.7-6,2.3-8.4c4.5,2.8,10,5.7,14.6,3.1
		c5.3-3,5.1-11.7,0.9-16.2C316.6,114.7,321.9,119.3,318.6,127L318.6,127z"/>
	<path class="st2" d="M131.1,45.6c-7.9,11.8-17.2,6.9-20.9-0.5c-3.8-7.4-32.7,17.2-47.2,31.4c-14.5,14.2-23.8,35.3-22.4,42.2
		c0.6,2.7,2.3,7.5,3.3,12.4c1.5,7.4,1.3,15-7.5,15.6c-14.5,1-13.1-14.2-13.1-14.2s-14,8.3-20.1-5.4C-3,113.3,19,109.4,19,109.4
		s15-29.3,34.1-50.2c19.2-21,44.8-30.3,44.8-30.3s8-21.7,18.7-15.4c0.3,0.2,0.7,0.4,1,0.7c11.2,8.3,1.4,15.9,1.4,15.9
		S139,33.8,131.1,45.6L131.1,45.6z"/>
	<g class="st3">
		<path class="st4" d="M112.2,17.9c1.6,1.5,3.9-0.5,2.1-2.1C112.8,14.5,110.6,16.4,112.2,17.9z"/>
		<path class="st4" d="M116.7,23.6c0,0.4,0.1,0.7,0.3,1c0.2,0.3,0.4,0.4,0.7,0.5c0.7,0.3,1.6,0.3,2.1-0.4c0.7-0.9,0.4-3-0.6-3.5
			C117.9,20.8,116.7,22.4,116.7,23.6L116.7,23.6z"/>
		<path class="st4" d="M110,23.8c0.2,0.3,0.5,0.5,0.8,0.7c0.1,0,0.2,0.1,0.3,0.1c0.6,0.2,1.4,0.2,1.8-0.3
			C115.3,21.8,107.8,20.5,110,23.8L110,23.8z"/>
		<path class="st4" d="M113.2,27.9c-0.4,0.2-0.8,0.6-0.8,1.1c0,0.4,0.2,0.8,0.6,1c0.3,0.2,0.7,0.3,1.1,0.3c0.6,0,1.3-0.1,1.8-0.6
			c0.2-0.2,0.4-0.5,0.4-0.8C116.6,27,114.1,27.4,113.2,27.9L113.2,27.9z"/>
		<path class="st4" d="M124.4,34.9c-0.3,0-0.6,0-0.8,0.3c-0.3,0.3-0.3,0.7-0.3,1.1c0,0.3,0,0.5,0.1,0.8c0.2,0.7,0.9,1,1.5,1.3
			c0.8,0.4,1.7,0.8,2.5,1.2c0.5,0.3,1.2,0.5,1.7,0.2c1.1-0.8-0.3-2.6-1-3.2C127.1,35.5,125.6,34.9,124.4,34.9L124.4,34.9z"/>
		<path class="st4" d="M119.4,32.2c-0.5,0.1-0.9,0-1.4,0c-0.5,0-1,0.3-1,0.8c0,0.4,0.3,0.8,0.6,1c0.4,0.3,0.9,0.6,1.5,0.6
			s1.1-0.3,1.3-0.8c0.2-0.5,0-1.2-0.5-1.4"/>
		<path class="st4" d="M123.1,45.7c0.5,0.6,1.4,0.7,2.1,0.4c1.6-0.8,1.2-3.6-0.5-4.1C122.9,41.6,122,44.5,123.1,45.7L123.1,45.7z"/>
		<path class="st4" d="M116.4,39.3c-0.1,0.3-0.1,0.6,0,0.9c0.1,0.3,0.3,0.6,0.6,0.9c0.6,0.5,1.5,0.7,2.3,0.4c0.7-0.3,1.2-1.2,1.1-2
			c-0.1-0.3-0.2-0.5-0.3-0.8C119,36.9,116.9,37.5,116.4,39.3L116.4,39.3z"/>
		<path class="st4" d="M104.4,29c0.4,0.8,1.3,1.3,2.2,1c1.8-0.5,1.9-3.1,0.2-4C105.2,25.3,103.6,27.5,104.4,29L104.4,29z"/>
		<path class="st4" d="M106.5,35.5c0,0.2-0.1,0.5,0,0.7c0.1,0.3,0.2,0.6,0.4,0.8c0.9,1.2,2.7,1.5,4.1,1.2c1.1-0.3,2.2-1.1,2.4-2.3
			c0-0.3,0-0.7-0.1-1c-0.3-1.5-1.7-3.1-3.3-2.6C108.4,32.5,106.8,33.8,106.5,35.5L106.5,35.5z"/>
		<path class="st4" d="M93.1,35.9c0.2,0.5,0.7,0.7,1.2,0.8c1.5,0.4,3.2,0.2,4.3-1.1c0.7-0.8,0.8-1.7-0.1-2.4
			C96.9,32,91.8,33.3,93.1,35.9z"/>
		<path class="st4" d="M96.5,41.2c-0.2,0.3-0.3,0.6-0.2,0.8c0.1,0.3,0.5,0.4,0.8,0.5c1.2,0.1,2.4-0.2,3.4-1c0.3-0.2,0.5-0.5,0.6-0.8
			c0-0.2,0-0.4-0.1-0.6C100.1,38.1,97.3,40.1,96.5,41.2L96.5,41.2z"/>
		<path class="st4" d="M89,39.9c-0.6,0.5-0.9,1.5-0.6,2.3c0.4,0.9,1.6,1.1,2.4,0.8c0.7-0.3,1.3-0.9,1.5-1.7
			C92.8,39.1,90.3,38.9,89,39.9L89,39.9z"/>
		<path class="st4" d="M81.8,39.1c0.2,0.4,0,0.9,0.2,1.4c0.1,0.5,0.7,0.9,1.2,1c0.5,0.1,1.1-0.1,1.6-0.3c0.6-0.2,1.1-0.5,1.5-0.8
			c1-0.9,1.1-3.1-0.6-3.3C85.1,37,81.7,38.9,81.8,39.1L81.8,39.1z"/>
		<path class="st4" d="M86.5,47.5c0.1,0.4,0.4,0.7,0.7,0.9c0.4,0.3,0.9,0.5,1.4,0.7c0.8,0.3,1.8,0.3,2.4-0.2c1.4-1.1,0.5-3.3-1-3.8
			C88.9,44.7,86.3,46,86.5,47.5L86.5,47.5z"/>
		<path class="st4" d="M80,48.1c0.4,0.1,0.8,0.1,1.2-0.1c2.8-1.3-0.3-5.3-2.4-5.2c-1.3,0.1-1.8,1.4-1.7,2.6
			C77.3,47,78.7,47.9,80,48.1z"/>
		<path class="st4" d="M73.7,50c-0.1-1-0.7-1.5-1.4-2.1c-1.2-1-2.3-0.6-2.9,0.8c-0.5,1-0.3,2.5,0.5,3.2c0.4,0.3,0.8,0.4,1.3,0.5
			c0.6,0,1.3-0.1,1.8-0.6C73.5,51.3,73.8,50.7,73.7,50L73.7,50z"/>
		<path class="st4" d="M78.3,54.7c0,0.2,0,0.5,0.2,0.6c0.1,0.2,0.3,0.3,0.4,0.3c0.9,0.4,1.9,0.3,2.9,0c0.9-0.3,1.7-0.8,2.5-1.4
			c2-1.3,2.2-3.8-0.6-3.5C81.8,51,78.4,52.3,78.3,54.7L78.3,54.7z"/>
		<path class="st4" d="M71.7,59.2c0.2,0.4,0.5,0.9,0.9,1c0.3,0.1,0.6,0.1,0.8,0.1c0.7-0.1,1.4-0.2,1.9-0.6c2.1-1.4,0-4.2-1.7-4.8
			c-0.9-0.3-1.7,0-2.3,0.8C70.6,57,71.1,58.1,71.7,59.2L71.7,59.2z"/>
		<path class="st4" d="M62.6,53.7c-0.1,0.4-0.2,0.9-0.3,1.3c0,0.7,0.1,1.3,0.3,2c0.1,0.3,0.1,0.6,0.3,0.8c0.2,0.3,0.6,0.5,1,0.5
			c1.3,0.2,2.7-0.5,3.1-1.7c0.1-0.4,0.2-0.8,0.2-1.2c0-0.8-0.1-1.7-0.6-2.4C65.4,51,63.3,51.7,62.6,53.7L62.6,53.7z"/>
		<path class="st4" d="M63.3,61.8c-0.2,0.2-0.3,0.3-0.4,0.5c-0.2,0.4-0.1,0.8,0,1.2c0,0.1,0,0.2,0.1,0.3c0.1,0.2,0.3,0.3,0.6,0.3
			c0.7,0.1,1.4-0.1,2.1-0.4c0.9-0.4,1.7-0.8,2.5-1.4c0.3-0.2,0.7-0.5,0.7-0.9c0.2-1.3-1.5-1.7-2.3-1.5
			C65.4,60.3,64.2,60.9,63.3,61.8L63.3,61.8z"/>
		<path class="st4" d="M68.7,66.2c-0.1,0.2-0.1,0.5,0,0.7c0.1,0.2,0.2,0.3,0.4,0.3c0.6,0.2,1.2,0,1.8-0.2c1-0.5,2-1,2.6-2
			c0.3-0.5,0.3-1.1-0.1-1.5c-0.6-0.5-2,0-2.7,0.3C69.8,64.3,68.9,65.1,68.7,66.2L68.7,66.2z"/>
		<path class="st4" d="M54.2,62.7c-0.1,0.9,0.7,1.7,1.5,1.8s1.7-0.3,2.3-0.9c1-1.1,1.4-3.6-0.5-4C56.2,59.3,54.3,61.4,54.2,62.7
			L54.2,62.7z"/>
		<path class="st4" d="M60.2,68.1c-0.1,0.1-0.2,0.1-0.3,0.2c-0.1,0.1-0.1,0.3-0.1,0.5c0,0.5-0.1,1,0.2,1.5c0.3,0.7,1.1,0.9,1.8,1
			c0.6,0.1,1.2,0.3,1.8,0.4c0.3,0.1,0.6,0.1,0.8,0.1c0.3,0,0.6-0.2,0.9-0.4c0.4-0.3,0.7-0.7,1-1.2c0.1-0.1,0.1-0.2,0.1-0.3
			c0-0.1-0.1-0.2-0.2-0.3C65,68.4,61.8,67.3,60.2,68.1L60.2,68.1z"/>
	</g>
	<path class="st5" d="M116.6,13.5c-0.6,0-1.3,0-2,0.2c-2.7,0.6-5.4,1.8-6.9,4.3c-1.2,1.9-1.5,4.3-2.1,6.4
		C102.2,35.2,90.6,39.9,81,45.1C57,57.9,38.2,81.2,30.1,108.2c-0.6,2.1-1.3,4.4-2.7,6c-3.1,3.4-9.6,4.4-9.4,9c0.1,2.2,2,3.8,4,4.4
		c2,0.5,4.1,0.1,6.2-0.3c0.6,4.2,1.4,8.6,4.2,11.6c2.8,3,8.4,3.3,10.3-0.4c1.1-2.2,0.5-5,1.1-7.4c1.5,7.4,1.3,15-7.5,15.6
		c-14.5,1-13.1-14.2-13.1-14.2s-14,8.3-20.1-5.4C-3,113.3,19,109.3,19,109.3s15-29.3,34.1-50.2c19.2-21,44.8-30.3,44.8-30.3
		S105.9,7.2,116.6,13.5L116.6,13.5z"/>
</g>
</svg>
