<?xml version="1.0" encoding="utf-8"?>
<!-- Generator: Adobe Illustrator 24.0.2, SVG Export Plug-In . SVG Version: 6.00 Build 0)  -->
<svg version="1.1" id="papel_picado" xmlns="http://www.w3.org/2000/svg" xmlns:xlink="http://www.w3.org/1999/xlink" x="0px"
	 y="0px" viewBox="0 0 646.5 395.2" style="enable-background:new 0 0 646.5 395.2;" xml:space="preserve">
<style type="text/css">
	.st0{fill:#FC5FAB;}
	.st1{fill:#9D31AA;}
	.st2{fill:#96D63F;}
</style>
<g>
	<g>
		<path class="st0" d="M245.8,237.3c3.4-0.6,7.3-0.1,11.8,1.4c2.2,0.8,4.6,1.8,7.2,3c0.2,0.1,0.3,0.3,0.3,0.3s0.1,0.3,0,0.4
			c-2.1,3.8-4.8,7.4-7.8,10.5c-1.5,1.6-3.6,3.4-5.8,3.5c-1.8,0.1-3.6-1.1-4.3-2.7c-0.7-1.7-0.3-3.8,1.1-5l3-2.8l-4.1,0.5
			c-1.9,0.2-4.3-0.2-5.6-2.2c-1.1-1.8-0.8-4.3,0.6-5.6C243,237.9,244.5,237.6,245.8,237.3L245.8,237.3z"/>
		<path class="st0" d="M280.2,148.2l2.9,2.9l-0.7-4c-0.3-1.8,0.6-3.7,2.2-4.6c1.1-0.6,2.5-0.7,3.7-0.3c0.5,0.2,1,0.4,1.4,0.8
			c1.8,1.5,2.3,4.2,2.5,6.4c0.5,4.4,0.4,8.8-0.2,13.1c0,0.2-0.1,0.3-0.2,0.4c-0.1,0.1-0.2,0.1-0.4,0.1c-8.6-1.7-14.3-4.2-17.8-8
			c-0.9-1-1.9-2.1-2.1-3.4c-0.4-1.9,0.9-4.1,2.9-4.8C276.6,145.7,278.8,146.9,280.2,148.2L280.2,148.2z"/>
		
			<rect x="378.5" y="238.7" transform="matrix(0.3195 -0.9476 0.9476 0.3195 41.8511 542.1857)" class="st0" width="39.9" height="6.6"/>
		
			<rect x="204.7" y="229.8" transform="matrix(0.3195 -0.9476 0.9476 0.3195 -67.983 371.4688)" class="st0" width="39.9" height="6.6"/>
		<path class="st0" d="M348.5,270c8.6,1.7,14.3,4.2,17.8,8c0.9,1,1.9,2.1,2.1,3.4c0.4,1.9-0.9,4.1-2.9,4.8c-2.2,0.8-4.4-0.3-5.8-1.6
			l-2.9-2.9l0.7,4c0.3,1.8-0.6,3.7-2.2,4.6s-3.7,0.7-5.1-0.4c-1.8-1.5-2.3-4.2-2.5-6.4c-0.5-4.4-0.4-8.8,0.2-13.1
			c0-0.2,0.1-0.3,0.2-0.4C348.2,270,348.3,269.9,348.5,270L348.5,270z"/>
		
			<rect x="393.6" y="194" transform="matrix(0.3195 -0.9476 0.9476 0.3195 94.3889 526.1234)" class="st0" width="39.9" height="6.6"/>
		<path class="st0" d="M394.1,195.4c-5.1,0.9-11.1-0.5-19-4.4c-0.2-0.1-0.3-0.3-0.3-0.3c0-0.1-0.1-0.3,0-0.4
			c2.1-3.8,4.8-7.4,7.8-10.6c1.5-1.6,3.6-3.4,5.8-3.5c1.8-0.1,3.6,1.1,4.3,2.7c0.7,1.7,0.3,3.8-1.1,5l-3,2.8l4.1-0.5
			c0.9-0.1,2-0.1,3.1,0.3c1,0.3,1.9,0.9,2.5,1.9c1.1,1.8,0.8,4.3-0.6,5.6C396.9,194.8,395.4,195.2,394.1,195.4L394.1,195.4z"/>
		
			<rect x="234.8" y="140.5" transform="matrix(0.3195 -0.9476 0.9476 0.3195 37.059 339.235)" class="st0" width="39.9" height="6.6"/>
		<path class="st0" d="M248.5,121.1l-41.7,123.8c-1.8,5.4-2.2,11.3-1,16.9l1.6,7.3c1,4.7,6.7,6.6,10.4,3.5l5.6-4.9l6.6-5.7l1.8,8.6
			l1.6,7.3c1,4.7,6.7,6.6,10.4,3.5l5.6-4.9l6.6-5.7l1.8,8.6l1.6,7.3c1,4.7,6.7,6.6,10.4,3.5l5.6-4.9l6.6-5.7l1.8,8.6l1.6,7.3
			c1,4.7,6.7,6.6,10.4,3.5l5.6-4.9l6.6-5.7l1.8,8.6l1.6,7.3c1,4.7,6.7,6.6,10.4,3.5l5.6-4.9l6.6-5.7l1.8,8.6l1.6,7.3
			c1,4.7,6.7,6.6,10.4,3.5l5.6-4.9l6.6-5.7l1.8,8.6l1.6,7.3c1,4.7,6.7,6.6,10.4,3.5l5.6-4.9c4.4-3.7,7.6-8.6,9.4-14L431,182.6
			c1.7-4.9-1-10.2-5.9-11.9l-164.6-55.5C255.6,113.6,250.2,116.2,248.5,121.1L248.5,121.1z M385,263.3l11.3,3.8L381.9,310l-11.3-3.8
			L385,263.3z M400.1,218.7l11.3,3.8l-14.4,42.8l-11.3-3.8L400.1,218.7z M415.1,174l11.3,3.8L412,220.7l-11.3-3.8L415.1,174z
			 M305.5,184.6c2.7,3.8,4.9,8,6.3,12.4c-2.4-3.9-5.1-7.6-8.2-10.8c-1.5-1.6-3.2-3.2-4.9-4.6c-1.7-1.4-3.5-2.8-5.3-3.7
			c-3.6-2-7.6-1.5-8.7,1.5c-0.7,1.6-0.9,3.6-1.1,5.8c-0.2,2.3-0.3,4.9-1.6,7.7c-1.4,2.8-3.8,4.3-5.6,5.6c-1.9,1.3-3.4,2.5-4,3.8
			c-0.6,1.3-0.5,2.9,0.4,4.3c0.9,1.4,2.5,2.6,4.4,3.3c1.9,0.8,4,1.1,6.3,1.5s4.5,0.7,6.7,0.9c2.3,0.3,4.5,0.5,6.8,0.7
			c2.3,0.1,4.6,0.5,6.8,0.1c-2.1,0.9-4.6,1.1-6.8,1.3c-2.3,0.2-4.6,0.3-6.9,0.4c-2.3,0-4.6,0-7-0.1c-2.3-0.1-4.7-0.3-7.2-1.1
			s-4.9-2.1-6.7-4.5c-0.9-1.2-1.5-2.6-1.8-4.1c-0.2-1.6,0-3.1,0.6-4.6c0.6-1.5,1.6-2.7,2.6-3.6c1-0.9,2-1.6,2.9-2.3
			c1.9-1.3,3.4-2.6,4-3.9c0.8-1.4,1-3.4,1.2-5.7c0.2-2.3,0.4-5,1.7-7.6c0.7-1.3,1.6-2.6,3-3.5c1.3-0.9,2.8-1.4,4.3-1.5
			c2.9-0.3,5.7,0.8,7.8,2.1C299.7,177.3,302.7,180.8,305.5,184.6L305.5,184.6z M352.2,184.3c-2.3,4.5-5.3,8-8.7,11.4
			c-3.4,3.2-7.3,6-11.4,7.9c3.6-2.9,6.8-6.1,9.6-9.6c1.4-1.8,2.7-3.6,3.9-5.5c1.1-1.9,2.3-3.8,3-5.8c1.5-3.8,0.5-7.8-2.7-8.4
			c-1.6-0.5-3.6-0.4-5.9-0.3c-2.3,0.1-4.9,0.4-7.8-0.6c-3-1.1-4.8-3.2-6.4-4.8c-1.6-1.7-2.9-3-4.3-3.4c-1.4-0.4-2.9-0.1-4.2,1
			c-1.2,1.1-2.2,2.9-2.7,4.8c-0.5,1.9-0.6,4.1-0.6,6.4c-0.1,2.3-0.1,4.5,0,6.8c0,2.3,0.1,4.6,0.2,6.8c0.2,2.3,0.1,4.6,0.8,6.8
			c-1.2-2-1.7-4.4-2.2-6.6c-0.5-2.3-0.9-4.5-1.3-6.8c-0.4-2.3-0.6-4.6-0.8-6.9c-0.2-2.3-0.3-4.7,0.1-7.3c0.4-2.6,1.4-5.2,3.5-7.2
			c1.1-1,2.4-1.9,3.9-2.3c1.5-0.4,3.1-0.4,4.6-0.1c1.6,0.4,2.9,1.2,3.9,2.1c1.1,0.9,1.9,1.8,2.7,2.6c1.6,1.7,3,3,4.4,3.4
			c1.5,0.6,3.6,0.5,5.8,0.4c2.3-0.1,5-0.3,7.7,0.6c1.4,0.5,2.8,1.3,3.8,2.5s1.7,2.6,2.1,4C354,179.1,353.3,182,352.2,184.3
			L352.2,184.3z M370.2,200.1c1.1,1,2,2.3,2.5,3.8c0.5,1.5,0.5,3.1,0.3,4.6c-0.5,2.9-2,5.1-3.2,7c-1.2,1.9-2.3,3.7-2.5,5.3
			c-0.3,1.5,0.2,3.4,0.8,5.6c0.3,1.1,0.7,2.3,0.9,3.6c0.2,1.3,0.3,2.9-0.1,4.4s-1.2,2.9-2.4,4c-1.1,1.1-2.5,1.8-3.9,2.2
			c-2.8,0.8-5.6,0.4-8-0.5c-2.4-0.9-4.5-2.2-6.4-3.5c-1.9-1.3-3.8-2.7-5.6-4.1c-1.8-1.5-3.6-2.9-5.3-4.5c-1.7-1.6-3.5-3.1-4.6-5.2
			c1.6,1.7,3.6,2.8,5.5,4.1c1.9,1.2,3.9,2.4,5.8,3.6c2,1.2,3.9,2.3,5.9,3.3c2,1,3.9,2.1,5.9,2.6c1.9,0.5,3.9,0.5,5.5,0
			c1.6-0.6,2.6-1.8,2.9-3.2c0.3-1.4-0.2-3.2-0.9-5.4c-0.6-2.1-1.6-4.8-1.1-7.9c0.6-3,2.1-5.1,3.4-7.1c1.3-1.9,2.3-3.6,2.7-5.3
			c1-3.1-2-5.9-6-6.5c-2-0.4-4.3-0.3-6.5-0.2c-2.2,0.1-4.4,0.3-6.6,0.7c-4.4,0.7-8.8,2-13.1,3.6c3.8-2.7,8.1-4.7,12.5-6.1
			c4.6-1.3,9.1-2.2,14.2-1.9C365.1,197.2,368,198.1,370.2,200.1L370.2,200.1z M399.6,196c-1.5,1.3-3.4,1.8-5.1,2
			c-3.9,0.7-8.2,0.2-13.1-1.5c-2.3-0.8-4.8-1.8-7.5-3.1c-0.8-0.4-1.4-1.1-1.7-1.9c-0.3-0.8-0.2-1.8,0.3-2.5c2.3-4,5-7.8,8.2-11.1
			c1.9-1.9,4.4-4.2,7.7-4.4c2.9-0.1,5.8,1.7,6.9,4.4c0.8,1.8,0.7,3.9-0.1,5.7c2.3,0.3,4.3,1.5,5.5,3.4
			C402.6,189.8,402.1,193.9,399.6,196L399.6,196z M345.2,270c0.1-0.9,0.6-1.7,1.3-2.2c0.7-0.5,1.6-0.7,2.5-0.5
			c9.2,1.8,15.3,4.6,19.2,8.8c1.1,1.2,2.4,2.8,2.8,4.7c0.7,3.2-1.4,6.7-4.6,7.9c-2.1,0.8-4.4,0.5-6.4-0.6c-0.5,1.9-1.7,3.6-3.4,4.6
			c-1.8,1-4,1.2-5.9,0.5c-0.8-0.3-1.6-0.7-2.2-1.2c-2.5-2.1-3.1-5.4-3.5-8.1C344.5,279.3,344.6,274.6,345.2,270L345.2,270z
			 M315.3,232.3c-0.8,2.2-0.8,4.5-1.1,6.8c-0.2,2.3-0.4,4.5-0.5,6.8c-0.1,2.3-0.2,4.5-0.2,6.8c0,2.3,0,4.5,0.4,6.4
			c0.4,2,1.3,3.7,2.5,4.9c1.2,1.2,2.8,1.5,4.2,1.1c1.3-0.3,2.8-1.6,4.4-3.3c1.6-1.6,3.6-3.6,6.5-4.6c2.9-0.9,5.6-0.5,7.8-0.3
			c2.3,0.3,4.3,0.4,5.9,0c3.2-0.6,4.3-4.5,3-8.3c-0.6-1.9-1.7-3.9-2.8-5.9c-1.1-1.9-2.3-3.8-3.6-5.6c-2.6-3.6-5.8-6.9-9.3-10
			c4.1,2.1,7.9,5,11.1,8.4c3.3,3.5,6.1,7.1,8.2,11.7c1,2.3,1.6,5.2,0.8,8.1c-0.4,1.4-1.1,2.8-2.2,3.9c-1.1,1.1-2.5,1.9-3.9,2.3
			c-2.8,0.8-5.5,0.6-7.7,0.4c-2.3-0.2-4.3-0.3-5.8,0.2c-1.5,0.4-2.9,1.7-4.6,3.3c-0.8,0.8-1.7,1.7-2.8,2.5c-1.1,0.8-2.4,1.6-4,1.9
			c-1.6,0.3-3.1,0.3-4.6-0.3c-1.5-0.5-2.8-1.4-3.8-2.4c-2-2.1-2.9-4.8-3.3-7.4c-0.3-2.6-0.1-5,0.2-7.3c0.3-2.3,0.6-4.6,1.1-6.9
			c0.5-2.3,1-4.5,1.6-6.8C313.5,236.7,314.1,234.3,315.3,232.3L315.3,232.3z M311.6,210.5c1.4-4.3,6.1-6.6,10.4-5.1
			c4.3,1.4,6.6,6.1,5.1,10.4c-1.4,4.3-6.1,6.6-10.4,5.1C312.4,219.4,310.1,214.8,311.6,210.5z M269.6,238.1c-0.9-1.1-1.7-2.6-2-4.1
			c-0.3-1.6-0.1-3.1,0.4-4.5c0.9-2.8,3-4.9,5.1-6.3c4.3-2.7,8.7-4.1,13.4-5.1c4.6-0.9,9.3-1.3,13.9-0.7c-4.6,0.6-9,1.6-13.2,3.1
			c-2.1,0.8-4.2,1.6-6.1,2.6c-2,1-4,2.1-5.6,3.3c-3.2,2.4-4.5,6.4-2.1,8.6c1.1,1.3,2.9,2.3,4.9,3.3c2,1.1,4.4,2.3,6.4,4.6
			c2,2.5,2.4,5.3,2.9,7.5c0.4,2.3,0.9,4.1,1.8,5.2c0.9,1.1,2.4,1.7,4.1,1.4c1.6-0.3,3.4-1.3,4.8-2.6c1.5-1.4,2.7-3.2,3.9-5.1
			c1.3-1.9,2.4-3.8,3.6-5.8c1.2-1.9,2.3-3.9,3.4-5.9c1.1-2,2.3-4,2.9-6.2c0,2.3-0.9,4.6-1.6,6.8c-0.7,2.2-1.6,4.4-2.5,6.5
			c-0.9,2.1-1.9,4.2-2.9,6.3c-1,2.1-2.2,4.2-3.9,6.1c-1.7,2-3.9,3.6-6.8,4.3c-1.4,0.3-3,0.3-4.5-0.1c-1.5-0.4-2.9-1.3-4-2.4
			c-1.1-1.1-1.8-2.5-2.2-3.8c-0.4-1.3-0.7-2.5-0.9-3.6c-0.5-2.2-1-4.1-2-5.3c-1-1.3-2.8-2.3-4.8-3.4
			C273.8,241.6,271.4,240.3,269.6,238.1L269.6,238.1z M240.3,236.7c1.5-1.3,3.4-1.8,5.1-2c5.7-1,12.2,0.5,20.6,4.6
			c0.8,0.4,1.4,1.1,1.7,2c0.3,0.8,0.2,1.8-0.3,2.5c-2.3,4-5,7.8-8.2,11.1c-1.9,1.9-4.4,4.2-7.7,4.3c-0.9,0-1.7-0.1-2.5-0.4
			c-1.9-0.6-3.6-2.1-4.4-4c-0.8-1.8-0.7-3.9,0.1-5.7c-2.3-0.4-4.3-1.5-5.5-3.4C237.4,242.9,237.9,238.8,240.3,236.7L240.3,236.7z
			 M273.5,144c2.1-0.8,4.4-0.5,6.4,0.6c0.5-1.9,1.7-3.6,3.4-4.6c2.5-1.4,5.9-1.2,8.1,0.7c2.5,2.1,3.1,5.4,3.5,8.1
			c0.5,4.6,0.5,9.2-0.2,13.8c-0.1,0.9-0.6,1.7-1.3,2.2c-0.7,0.5-1.6,0.7-2.5,0.6c-2.9-0.6-5.5-1.2-7.9-2c-5-1.7-8.7-3.9-11.4-6.8
			c-1.1-1.2-2.4-2.8-2.8-4.7C268.2,148.7,270.3,145.2,273.5,144L273.5,144z M226.2,209.7l11.3,3.8l-14.4,42.8l-11.3-3.8L226.2,209.7
			z M241.3,165.1l11.3,3.8l-14.4,42.9l-11.3-3.8L241.3,165.1z M256.3,120.5l11.3,3.8l-14.4,42.9l-11.3-3.8L256.3,120.5z"/>
		
			<rect x="363.4" y="283.3" transform="matrix(0.3195 -0.9476 0.9476 0.3195 -10.6679 558.2961)" class="st0" width="39.9" height="6.6"/>
		
			<rect x="219.8" y="185.2" transform="matrix(0.3195 -0.9476 0.9476 0.3195 -15.4628 355.4005)" class="st0" width="39.9" height="6.6"/>
	</g>
	<g>
		
			<rect x="484.7" y="269.4" transform="matrix(0.1906 -0.9817 0.9817 0.1906 171.3342 750.1249)" class="st1" width="111.7" height="3.6"/>
		<path class="st1" d="M456.7,252.2c0.8,0.2,1.4,1,1.2,1.8c-0.2,0.8-1,1.4-1.8,1.2c-0.8-0.2-1.4-1-1.2-1.8
			C455.1,252.6,455.9,252.1,456.7,252.2z"/>
		<path class="st1" d="M506.7,300.2c0.8,0.2,1.4,1,1.2,1.8c-0.2,0.8-1,1.4-1.8,1.2c-0.8-0.2-1.4-1-1.2-1.8
			C505,300.6,505.9,300.1,506.7,300.2z"/>
		<path class="st1" d="M469.3,187.4c-0.8-0.2-1.4-1-1.2-1.8c0.2-0.8,1-1.4,1.8-1.2c0.8,0.2,1.4,1,1.2,1.8
			C471,187,470.2,187.6,469.3,187.4L469.3,187.4z"/>
		<path class="st1" d="M553.7,341.4c0.8,0.2,1.4,1,1.2,1.8c-0.2,0.8-1,1.4-1.8,1.2c-0.8-0.2-1.4-1-1.2-1.8
			C552,341.8,552.8,341.3,553.7,341.4z"/>
		
			<rect x="430.4" y="258.8" transform="matrix(0.1906 -0.9817 0.9817 0.1906 137.7212 688.2429)" class="st1" width="111.7" height="3.6"/>
		
			<rect x="539.1" y="280" transform="matrix(0.1906 -0.9817 0.9817 0.1906 204.9827 812.1263)" class="st1" width="111.7" height="3.6"/>
		<path class="st1" d="M566.8,273.6c0.8,0.2,1.4,1,1.2,1.8c-0.2,0.8-1,1.4-1.8,1.2c-0.8-0.2-1.4-1-1.2-1.8
			C565.2,274,566,273.5,566.8,273.6z"/>
		
			<rect x="376.1" y="248.3" transform="matrix(0.1906 -0.9817 0.9817 0.1906 104.1547 626.421)" class="st1" width="111.7" height="3.6"/>
		<path class="st1" d="M405,316.3c-0.1,0.3,0,0.6,0,1c-0.3,0.7-0.5,1.4-0.6,2.2c-1.7,8.8,4,17.3,12.9,19c5.3,1,10.4-0.6,14-4
			c-1.2,0.6-2.4,1.1-4,1.2c0.4-1.6,1-2.8,1.7-3.9c0.8-1.1,1.6-2.1,2.6-3c1-0.9,2-1.6,3.2-2.2c1.2-0.6,2.5-1.1,4.1-1.3
			c-0.4,1.6-1,2.8-1.8,3.9c-0.4,0.6-0.9,1.2-1.4,1.7l0,0c0.6,4.4,3,8.2,6.5,10.8h0c-0.5-0.9-0.8-1.9-1-2.8c-0.3-1.3-0.4-2.6-0.4-3.9
			s0.2-2.6,0.5-3.9c0.4-1.3,0.9-2.6,1.8-3.9c0.9,1.3,1.4,2.6,1.7,3.9c0.3,1.3,0.4,2.6,0.4,3.9s-0.2,2.6-0.5,3.9
			c-0.3,1.1-0.8,2.3-1.5,3.4c1.6,1,3.4,1.7,5.4,2.1c7.9,1.5,15.7-3,18.4-10.4c-0.3,7.9,5.1,15,13.1,16.5c7.9,1.5,15.7-3,18.4-10.4
			c-0.2,5.1,2.1,10,5.9,13.1c0.5,0.5,1.1,0.9,1.7,1.3c1.6,1,3.5,1.8,5.5,2.2c8,1.5,15.7-3,18.4-10.4c-0.3,7.9,5.2,15,13.1,16.5
			c3.1,0.6,6.1,0.3,8.8-0.8c-0.2-0.6-0.4-1.2-0.6-1.8c-0.3-1.3-0.4-2.6-0.4-3.9c0-1.3,0.2-2.6,0.5-3.9s0.9-2.6,1.8-3.9
			c0.9,1.3,1.3,2.6,1.7,3.9c0.3,1.3,0.4,2.6,0.4,3.9c0,1.3-0.2,2.6-0.5,3.9c0,0.1-0.1,0.2-0.1,0.3c2.8-1.7,5.1-4.4,6.4-7.5
			c0,0,0,0,0,0c-0.7-0.7-1.4-1.5-1.9-2.4c-0.7-1.1-1.3-2.4-1.6-4c1.6,0.2,2.9,0.8,4,1.4c1.2,0.6,2.2,1.4,3.2,2.3s1.8,1.9,2.5,3
			c0.7,1.1,1.3,2.4,1.6,4c-1.6-0.2-2.9-0.8-4.1-1.4c-1.2-0.6-2.2-1.4-3.2-2.3c-0.1-0.1-0.2-0.2-0.3-0.3c0.2,7.4,5.5,14,13.1,15.5
			c8.8,1.7,17.3-4,19.1-12.9c0.2-1.2,0.3-2.4,0.3-3.5l25.8-132.8c1-5.3-2.4-10.4-7.7-11.5l-11.6-2.3c-1,0.7-2,1.2-3.1,1.5
			c-1.3,0.4-2.6,0.7-3.9,0.8c-1.3,0.1-2.6,0-3.9-0.2c-1.3-0.3-2.7-0.6-4-1.5c1.2-1,2.5-1.6,3.8-2c0.5-0.2,1.1-0.3,1.6-0.4l-14.8-2.9
			c0,0.3,0.1,0.7,0.1,1.1c-1.3-0.4-2.3-1-3.2-1.7l-82.7-16.1c-1,0.7-2,1.2-3.1,1.5c-1.3,0.4-2.6,0.7-3.9,0.8s-2.6,0-3.9-0.2
			c-1.3-0.3-2.6-0.6-4-1.5c1.2-1,2.5-1.6,3.8-2.1c0.5-0.2,1.1-0.3,1.6-0.4l-14.8-2.9c0,0.3,0.1,0.7,0.1,1.1c-1.3-0.4-2.3-1-3.2-1.7
			l-20.6-4c-5.3-1-10.4,2.4-11.5,7.7L405,316.3L405,316.3z M516.1,229.2c-1.5-0.5-2.7-1.3-3.7-2.1c-1-0.9-1.9-1.8-2.7-2.8
			s-1.4-2.2-1.9-3.4c-0.5-1.3-0.9-2.6-0.9-4.2c1.5,0.5,2.7,1.3,3.7,2.1c1,0.9,1.9,1.8,2.7,2.9s1.4,2.2,1.9,3.4
			C515.6,226.3,516,227.6,516.1,229.2L516.1,229.2z M503.5,248.2c0.4-1.6,1-2.8,1.7-3.9c0.8-1.1,1.6-2.1,2.6-3c1-0.9,2-1.6,3.2-2.2
			c1.2-0.6,2.5-1.1,4.1-1.3c-0.4,1.6-1,2.8-1.7,3.9c-0.8,1.1-1.6,2.1-2.6,3c-1,0.9-2,1.6-3.2,2.2C506.4,247.5,505.1,248,503.5,248.2
			L503.5,248.2z M497.3,286.6c1,0.9,1.9,1.8,2.7,2.9c0.8,1,1.4,2.2,1.9,3.4c0.5,1.3,0.9,2.6,0.9,4.2c-1.5-0.5-2.7-1.3-3.7-2.1
			c-1-0.9-1.9-1.8-2.7-2.8s-1.4-2.2-1.9-3.4c-0.5-1.3-0.9-2.6-0.9-4.2C495.1,285,496.3,285.7,497.3,286.6L497.3,286.6z M520.4,229.8
			c2.3,0.4,3.8,2.6,3.3,4.9c-0.4,2.3-2.6,3.8-4.9,3.3s-3.8-2.6-3.3-4.9S518.1,229.3,520.4,229.8L520.4,229.8z M518.7,289
			c-0.5,1.2-1.2,2.3-2,3.4s-1.7,2-2.8,2.8c-1.1,0.8-2.3,1.5-3.8,2c0.1-1.6,0.5-2.9,1-4.1c0.5-1.2,1.2-2.3,2-3.4s1.7-2,2.8-2.8
			c1.1-0.8,2.3-1.5,3.8-2C519.6,286.4,519.2,287.8,518.7,289L518.7,289z M525.5,241.9c-0.7-1.1-1.3-2.4-1.6-3.9
			c1.6,0.2,2.9,0.8,4,1.4c1.2,0.6,2.2,1.4,3.2,2.3s1.8,1.9,2.5,3c0.7,1.1,1.3,2.4,1.6,4c-1.6-0.2-2.9-0.8-4.1-1.4
			c-1.2-0.6-2.2-1.4-3.2-2.3C527.1,244,526.2,243,525.5,241.9L525.5,241.9z M517.6,251.5c-0.3-1.3-0.4-2.6-0.4-3.9s0.2-2.6,0.5-3.9
			c0.4-1.3,0.9-2.6,1.8-3.9c0.9,1.3,1.4,2.6,1.7,3.9c0.3,1.3,0.4,2.6,0.4,3.9s-0.2,2.6-0.5,3.9c-0.4,1.3-0.9,2.6-1.8,3.9
			C518.4,254.1,517.9,252.8,517.6,251.5z M511.2,288.7c-0.3,1.3-0.6,2.5-1.2,3.7c-0.6,1.2-1.3,2.4-2.5,3.5c-0.7-1.5-0.9-2.8-1-4.2
			c-0.1-1.3,0-2.6,0.3-3.9c0.2-1.3,0.6-2.5,1.2-3.7c0.6-1.2,1.3-2.4,2.5-3.5c0.7,1.5,0.9,2.8,1,4.2
			C511.6,286.1,511.5,287.4,511.2,288.7z M524.4,220.9c-0.3,1.3-0.6,2.5-1.2,3.7c-0.6,1.2-1.3,2.4-2.5,3.5c-0.7-1.4-0.9-2.8-1-4.2
			c-0.1-1.3,0-2.6,0.3-3.9c0.2-1.3,0.6-2.5,1.2-3.7c0.6-1.2,1.3-2.4,2.5-3.5c0.7,1.4,0.9,2.8,1,4.2
			C524.7,218.3,524.6,219.6,524.4,220.9z M531.8,221.2c-0.5,1.2-1.2,2.3-2,3.4s-1.7,1.9-2.8,2.8c-1.1,0.8-2.3,1.5-3.8,2
			c0.1-1.6,0.5-2.9,1-4.1c0.5-1.2,1.2-2.3,2-3.4s1.7-1.9,2.8-2.8c1.1-0.8,2.3-1.5,3.8-2C532.8,218.6,532.4,219.9,531.8,221.2
			L531.8,221.2z M541,232.3c-1.2,1-2.5,1.6-3.8,2.1c-1.3,0.4-2.6,0.7-3.9,0.8c-1.3,0.1-2.6,0-3.9-0.2c-1.3-0.3-2.6-0.6-4-1.5
			c1.2-1,2.5-1.6,3.8-2c1.3-0.4,2.6-0.7,3.9-0.8s2.6,0,3.9,0.2C538.3,231.1,539.6,231.5,541,232.3L541,232.3z M550.5,289.4
			c0.4-1.6,1-2.8,1.7-3.9c0.8-1.1,1.6-2.1,2.6-3c1-0.9,2-1.6,3.2-2.2c1.2-0.6,2.5-1.1,4.1-1.3c-0.4,1.6-1,2.8-1.8,3.9
			c-0.8,1.1-1.6,2.1-2.6,3c-1,0.9-2,1.6-3.2,2.2C553.4,288.7,552.1,289.2,550.5,289.4L550.5,289.4z M544.3,327.8
			c1,0.9,1.9,1.8,2.7,2.9c0.8,1,1.4,2.2,1.9,3.4c0.5,1.3,0.9,2.6,0.9,4.2c-1.5-0.5-2.7-1.3-3.7-2.1c-1-0.9-1.9-1.8-2.7-2.8
			s-1.4-2.2-1.9-3.4c-0.5-1.3-0.9-2.6-0.9-4.2C542.1,326.2,543.3,327,544.3,327.8L544.3,327.8z M570.2,270.5c0.1-1.6,0.5-2.9,1-4.1
			c0.5-1.2,1.2-2.3,2-3.4s1.7-2,2.8-2.8c1.1-0.8,2.3-1.5,3.8-2c-0.1,1.6-0.5,2.9-1,4.1c-0.5,1.2-1.2,2.3-2,3.4c-0.8,1-1.7,2-2.8,2.8
			C572.9,269.3,571.8,270.1,570.2,270.5L570.2,270.5z M574.9,280.6c1.2,0.6,2.2,1.4,3.2,2.3s1.8,1.9,2.5,3c0.7,1.1,1.3,2.4,1.6,4
			c-1.6-0.2-2.9-0.8-4.1-1.4c-1.2-0.6-2.2-1.4-3.2-2.3c-0.9-0.9-1.8-1.9-2.5-3c-0.7-1.1-1.3-2.4-1.6-4
			C572.5,279.4,573.7,279.9,574.9,280.6z M568.1,292.8c-0.4,1.3-0.9,2.6-1.8,3.9c-0.9-1.3-1.4-2.6-1.7-3.9c-0.3-1.3-0.4-2.6-0.4-3.9
			c0-1.3,0.2-2.6,0.5-3.9c0.4-1.3,0.9-2.6,1.8-3.9c0.9,1.3,1.4,2.6,1.7,3.9c0.3,1.3,0.4,2.6,0.4,3.9S568.4,291.5,568.1,292.8z
			 M558.2,330c-0.3,1.3-0.6,2.5-1.2,3.7c-0.6,1.2-1.3,2.4-2.5,3.5c-0.7-1.5-0.9-2.8-1-4.2c-0.1-1.3,0-2.6,0.3-3.9
			c0.2-1.3,0.6-2.5,1.2-3.7c0.6-1.2,1.3-2.4,2.5-3.5c0.7,1.5,0.9,2.8,1,4.2C558.6,327.4,558.5,328.7,558.2,330z M562.5,274.3
			c0.4-2.3,2.6-3.8,4.9-3.3c2.3,0.4,3.8,2.6,3.3,4.9s-2.6,3.8-4.9,3.3S562,276.6,562.5,274.3L562.5,274.3z M570.2,265.9
			c-0.6,1.2-1.3,2.4-2.5,3.5c-0.7-1.5-0.9-2.8-1-4.2c-0.1-1.3,0-2.6,0.3-3.9c0.2-1.3,0.6-2.5,1.2-3.7c0.6-1.2,1.3-2.4,2.5-3.5
			c0.7,1.5,0.9,2.8,1,4.2c0.1,1.3,0,2.6-0.3,3.9C571.1,263.4,570.7,264.7,570.2,265.9z M563.7,221.6c0.4-1.6,1-2.8,1.7-3.9
			c0.8-1.1,1.6-2.1,2.6-2.9s2-1.6,3.2-2.2c1.2-0.6,2.5-1.1,4.1-1.3c-0.4,1.6-1,2.8-1.7,3.9c-0.8,1.1-1.6,2.1-2.6,2.9
			c-1,0.9-2,1.6-3.2,2.2C566.6,220.9,565.3,221.4,563.7,221.6L563.7,221.6z M557.5,260c1,0.9,1.9,1.8,2.7,2.9c0.8,1,1.4,2.2,1.9,3.4
			c0.5,1.3,0.9,2.6,0.9,4.2c-1.5-0.5-2.7-1.3-3.7-2.1c-1-0.9-1.9-1.8-2.7-2.8s-1.4-2.2-1.9-3.4c-0.5-1.3-0.9-2.6-0.9-4.2
			C555.3,258.4,556.5,259.2,557.5,260L557.5,260z M583.9,208.1c-0.4,2.3-2.6,3.8-4.9,3.3c-2.3-0.4-3.8-2.6-3.3-4.9s2.6-3.8,4.9-3.3
			S584.3,205.8,583.9,208.1L583.9,208.1z M581.3,224.9c-0.4,1.3-0.9,2.6-1.8,3.9c-0.9-1.3-1.4-2.6-1.7-3.9c-0.3-1.3-0.4-2.6-0.4-3.9
			c0-1.3,0.2-2.6,0.5-3.9c0.4-1.3,0.9-2.6,1.8-3.9c0.9,1.3,1.4,2.6,1.7,3.9c0.3,1.3,0.4,2.6,0.4,3.9
			C581.8,222.3,581.6,223.6,581.3,224.9z M595.4,222.1c-1.6-0.2-2.9-0.8-4.1-1.4c-1.2-0.6-2.2-1.4-3.2-2.3c-0.9-0.9-1.8-1.9-2.5-3
			c-0.7-1.1-1.3-2.4-1.6-3.9c1.6,0.2,2.9,0.8,4,1.4c1.2,0.6,2.2,1.4,3.2,2.3c0.9,0.9,1.8,1.9,2.5,3
			C594.5,219.3,595.1,220.5,595.4,222.1z M588,273.6c-1.2,1-2.5,1.6-3.8,2c-1.3,0.4-2.6,0.7-3.9,0.8c-1.3,0.1-2.6,0-3.9-0.2
			c-1.3-0.3-2.6-0.6-4-1.5c1.2-1,2.5-1.6,3.8-2c1.3-0.4,2.6-0.7,3.9-0.8c1.3-0.1,2.6,0,3.9,0.2C585.3,272.4,586.6,272.7,588,273.6
			L588,273.6z M601.8,223.5l8.8,1.7l-22.3,114.9l-8.8-1.7L601.8,223.5L601.8,223.5z M559.3,342.5c1.2-1,2.5-1.6,3.8-2
			c1.3-0.4,2.6-0.7,3.9-0.8c1.3-0.1,2.6,0,3.9,0.2c1.3,0.3,2.6,0.6,4,1.5c-1.2,1-2.5,1.6-3.8,2c-1.3,0.4-2.6,0.7-3.9,0.8
			c-1.3,0.1-2.6,0-3.9-0.2C562,343.8,560.6,343.4,559.3,342.5L559.3,342.5z M557,338.4c0.1-1.6,0.5-2.9,1-4.1c0.5-1.2,1.2-2.3,2-3.4
			s1.7-2,2.8-2.8c1.1-0.8,2.3-1.5,3.8-2c-0.1,1.6-0.5,2.9-1,4.1c-0.5,1.2-1.2,2.3-2,3.4s-1.7,2-2.8,2.8
			C559.8,337.2,558.6,337.9,557,338.4L557,338.4z M549.3,342.2c0.4-2.3,2.6-3.8,4.9-3.3s3.8,2.6,3.3,4.9s-2.6,3.8-4.9,3.3
			S548.8,344.5,549.3,342.2L549.3,342.2z M537.3,357.3c0.4-1.6,1-2.8,1.7-3.9c0.8-1.1,1.6-2.1,2.6-3c1-0.9,2-1.6,3.2-2.2
			c1.2-0.6,2.5-1.1,4.1-1.3c-0.4,1.6-1,2.8-1.7,3.9c-0.8,1.1-1.6,2.1-2.6,3c-1,0.9-2,1.6-3.2,2.2
			C540.2,356.6,538.9,357.1,537.3,357.3L537.3,357.3z M532,340.8c1.4-0.8,2.7-1.1,4.1-1.4c1.3-0.2,2.6-0.2,3.9-0.1
			c1.3,0.1,2.6,0.4,3.8,0.9c1.3,0.5,2.5,1.1,3.7,2.1c-1.4,0.8-2.7,1.1-4.1,1.4c-1.3,0.2-2.6,0.2-3.9,0.1c-1.3-0.1-2.6-0.4-3.8-0.9
			C534.5,342.5,533.2,341.9,532,340.8L532,340.8z M545.2,273c1.4-0.8,2.7-1.1,4.1-1.4c1.3-0.2,2.6-0.2,3.9-0.1
			c1.3,0.1,2.6,0.4,3.8,0.9c1.3,0.5,2.5,1.1,3.7,2.1c-1.4,0.8-2.7,1.1-4.1,1.4c-1.3,0.2-2.6,0.2-3.9,0.1c-1.3-0.1-2.6-0.4-3.8-0.9
			C547.7,274.6,546.4,274,545.2,273L545.2,273z M558.4,205.1c1.4-0.8,2.7-1.1,4.1-1.4c1.3-0.2,2.6-0.2,3.9-0.1
			c1.3,0.1,2.6,0.4,3.8,0.9c1.3,0.5,2.5,1.1,3.7,2.1c-1.4,0.8-2.7,1.1-4.1,1.4c-1.3,0.2-2.6,0.2-3.9,0.1c-1.3-0.1-2.6-0.4-3.8-0.9
			C560.8,206.8,559.6,206.2,558.4,205.1L558.4,205.1z M547.6,212.9l8.8,1.7L534,329.6l-8.8-1.7L547.6,212.9L547.6,212.9z
			 M524.1,302.2c-1.3,0.4-2.6,0.7-3.9,0.8c-1.3,0.1-2.6,0-3.9-0.2c-1.3-0.3-2.6-0.6-4-1.5c1.2-1,2.5-1.6,3.8-2
			c1.3-0.4,2.6-0.7,3.9-0.8c1.3-0.1,2.6,0,3.9,0.2c1.3,0.3,2.6,0.6,4,1.5C526.6,301.2,525.4,301.8,524.1,302.2L524.1,302.2z
			 M510.7,305.8c1.6,0.2,2.9,0.8,4,1.4c1.2,0.6,2.2,1.4,3.2,2.3s1.8,1.9,2.5,3c0.7,1.1,1.3,2.4,1.6,4c-1.6-0.2-2.9-0.8-4.1-1.4
			c-1.2-0.6-2.2-1.4-3.2-2.3c-0.9-0.9-1.8-1.9-2.5-3C511.6,308.6,511,307.4,510.7,305.8L510.7,305.8z M504.5,311.5
			c0.4-1.3,0.9-2.6,1.8-3.9c0.9,1.3,1.4,2.6,1.7,3.9c0.3,1.3,0.4,2.6,0.4,3.9s-0.2,2.6-0.5,3.9c-0.4,1.3-0.9,2.6-1.8,3.9
			c-0.9-1.3-1.4-2.6-1.7-3.9c-0.3-1.3-0.4-2.6-0.4-3.9S504.2,312.8,504.5,311.5z M502.3,301c0.4-2.3,2.6-3.8,4.9-3.3
			s3.8,2.6,3.3,4.9c-0.4,2.3-2.6,3.8-4.9,3.3S501.8,303.2,502.3,301L502.3,301z M490.4,316c0.4-1.6,1-2.8,1.7-3.9
			c0.8-1.1,1.6-2.1,2.6-3c1-0.9,2-1.6,3.2-2.2c1.2-0.6,2.5-1.1,4.1-1.3c-0.4,1.6-1,2.8-1.8,3.9c-0.8,1.1-1.6,2.1-2.6,3
			c-1,0.9-2,1.6-3.2,2.2C493.2,315.4,491.9,315.9,490.4,316L490.4,316z M485.1,299.6c1.4-0.8,2.7-1.1,4.1-1.4
			c1.3-0.2,2.6-0.2,3.9-0.1c1.3,0.1,2.6,0.4,3.8,0.9c1.3,0.5,2.5,1.1,3.7,2.1c-1.4,0.8-2.7,1.1-4.1,1.4c-1.3,0.2-2.6,0.2-3.9,0.1
			c-1.3-0.1-2.6-0.4-3.8-0.9C487.5,301.2,486.3,300.6,485.1,299.6L485.1,299.6z M498.2,231.7c1.4-0.8,2.7-1.1,4.1-1.4
			c1.3-0.2,2.6-0.2,3.9-0.1c1.3,0.1,2.6,0.4,3.8,0.9c1.3,0.5,2.5,1.1,3.7,2.1c-1.4,0.8-2.7,1.1-4.1,1.4c-1.3,0.2-2.6,0.2-3.9,0.1
			c-1.3-0.1-2.6-0.4-3.8-0.9C500.7,233.4,499.4,232.8,498.2,231.7L498.2,231.7z M493.3,202.4l8.8,1.7L479.7,319l-8.8-1.7
			L493.3,202.4z M463.8,185.3c-1.4,0.8-2.7,1.1-4.1,1.4c-1.3,0.2-2.6,0.2-3.9,0.1c-1.3-0.1-2.6-0.4-3.8-0.9
			c-1.3-0.5-2.5-1.1-3.7-2.1c1.4-0.8,2.7-1.1,4.1-1.4c1.3-0.2,2.6-0.2,3.9-0.1c1.3,0.1,2.6,0.4,3.8,0.9
			C461.4,183.7,462.6,184.3,463.8,185.3L463.8,185.3z M460.1,249.1c0.1-1.6,0.5-2.9,1-4.1c0.5-1.2,1.2-2.3,2-3.4s1.7-2,2.8-2.8
			c1.1-0.8,2.3-1.5,3.8-2c-0.1,1.6-0.5,2.9-1,4.1c-0.5,1.2-1.2,2.3-2,3.4s-1.7,2-2.8,2.8C462.8,248,461.7,248.7,460.1,249.1
			L460.1,249.1z M464.8,259.2c1.2,0.6,2.2,1.4,3.2,2.3s1.8,1.9,2.5,3c0.7,1.1,1.3,2.4,1.6,4c-1.6-0.2-2.9-0.8-4.1-1.4
			c-1.2-0.6-2.2-1.4-3.2-2.3s-1.8-1.9-2.5-3c-0.7-1.1-1.3-2.4-1.6-4C462.4,258,463.6,258.6,464.8,259.2z M458,271.4
			c-0.4,1.3-0.9,2.6-1.8,3.9c-0.9-1.3-1.4-2.6-1.7-3.9c-0.3-1.3-0.4-2.6-0.4-3.9s0.2-2.6,0.5-3.9c0.4-1.3,0.9-2.6,1.8-3.9
			c0.9,1.3,1.4,2.6,1.7,3.9c0.3,1.3,0.4,2.6,0.4,3.9S458.3,270.1,458,271.4z M448.1,308.6c-0.3,1.3-0.6,2.5-1.2,3.7
			c-0.6,1.2-1.3,2.4-2.5,3.5c-0.7-1.5-0.9-2.8-1-4.2c-0.1-1.3,0-2.6,0.3-3.9c0.2-1.3,0.6-2.5,1.2-3.7c0.6-1.2,1.3-2.4,2.5-3.5
			c0.7,1.5,0.9,2.8,1,4.2C448.5,306,448.4,307.3,448.1,308.6z M452.4,253c0.4-2.3,2.6-3.8,4.9-3.3c2.3,0.4,3.8,2.6,3.3,4.9
			c-0.4,2.3-2.6,3.8-4.9,3.3S451.9,255.3,452.4,253L452.4,253z M460.1,244.5c-0.6,1.2-1.3,2.4-2.5,3.5c-0.7-1.5-0.9-2.8-1-4.2
			c-0.1-1.3,0-2.6,0.3-3.9c0.2-1.3,0.6-2.5,1.2-3.7c0.6-1.2,1.3-2.4,2.5-3.5c0.7,1.4,0.9,2.8,1,4.2c0.1,1.3,0,2.6-0.3,3.9
			C461,242.1,460.6,243.3,460.1,244.5z M452.1,257.7c-0.4,1.6-1,2.8-1.7,3.9c-0.8,1.1-1.6,2.1-2.6,3c-1,0.9-2,1.6-3.2,2.2
			c-1.2,0.6-2.5,1.1-4.1,1.3c0.4-1.6,1-2.8,1.7-3.9c0.8-1.1,1.6-2.1,2.6-3c1-0.9,2-1.6,3.2-2.2C449.2,258.4,450.5,257.9,452.1,257.7
			L452.1,257.7z M447.4,238.6c1,0.9,1.9,1.8,2.7,2.9c0.8,1,1.4,2.2,1.9,3.4c0.5,1.3,0.9,2.6,0.9,4.2c-1.5-0.5-2.7-1.3-3.7-2.1
			c-1-0.9-1.9-1.8-2.7-2.8s-1.4-2.2-1.9-3.4c-0.5-1.3-0.9-2.6-0.9-4.2C445.2,237,446.4,237.8,447.4,238.6L447.4,238.6z M465.3,189.9
			c-0.4,1.6-1,2.8-1.7,3.9c-0.8,1.1-1.6,2.1-2.6,2.9c-1,0.9-2,1.6-3.2,2.2c-1.2,0.6-2.5,1.1-4.1,1.3c0.4-1.6,1-2.8,1.7-3.9
			c0.8-1.1,1.6-2.1,2.6-2.9s2-1.6,3.2-2.2C462.4,190.5,463.7,190,465.3,189.9L465.3,189.9z M473.8,186.8c-0.4,2.3-2.6,3.8-4.9,3.3
			c-2.3-0.4-3.8-2.6-3.3-4.9s2.6-3.8,4.9-3.3S474.2,184.5,473.8,186.8L473.8,186.8z M471.2,203.6c-0.4,1.3-0.9,2.6-1.8,3.9
			c-0.9-1.3-1.4-2.6-1.7-3.9c-0.3-1.3-0.4-2.6-0.4-3.9c0-1.3,0.2-2.6,0.5-3.9c0.4-1.3,0.9-2.6,1.8-3.9c0.9,1.3,1.4,2.6,1.7,3.9
			c0.3,1.3,0.4,2.6,0.4,3.9C471.7,201,471.5,202.3,471.2,203.6z M485.3,200.7c-1.6-0.2-2.9-0.8-4.1-1.4c-1.2-0.6-2.2-1.4-3.2-2.3
			c-0.9-0.9-1.8-1.9-2.5-3c-0.7-1.1-1.3-2.4-1.6-3.9c1.6,0.2,2.9,0.8,4,1.4c1.2,0.6,2.2,1.4,3.2,2.3c0.9,0.9,1.8,1.9,2.5,3
			C484.4,197.9,485,199.1,485.3,200.7L485.3,200.7z M477.9,252.2c-1.2,1-2.5,1.6-3.8,2c-1.3,0.4-2.6,0.7-3.9,0.8
			c-1.3,0.1-2.6,0-3.9-0.2c-1.3-0.3-2.6-0.6-4-1.5c1.2-1,2.5-1.6,3.8-2c1.3-0.4,2.6-0.7,3.9-0.8c1.3-0.1,2.6,0,3.9,0.2
			C475.2,251,476.5,251.4,477.9,252.2L477.9,252.2z M461,322.1c-1.3,0.4-2.6,0.7-3.9,0.8c-1.3,0.1-2.6,0-3.9-0.2
			c-1.3-0.3-2.6-0.6-4-1.5c1.2-1,2.5-1.6,3.8-2c1.3-0.4,2.6-0.7,3.9-0.8c1.3-0.1,2.6,0,3.9,0.2c1.3,0.3,2.6,0.6,4,1.5
			C463.5,321.1,462.2,321.6,461,322.1L461,322.1z M447.6,325.7c1.6,0.2,2.9,0.8,4,1.4c1.2,0.6,2.2,1.4,3.2,2.3s1.8,1.9,2.5,3
			c0.7,1.1,1.3,2.4,1.6,4c-1.6-0.2-2.9-0.8-4.1-1.4c-1.2-0.6-2.2-1.4-3.2-2.3c-0.9-0.9-1.8-1.9-2.5-3
			C448.5,328.5,447.9,327.2,447.6,325.7L447.6,325.7z M446.9,317c0.1-1.6,0.5-2.9,1-4.1c0.5-1.2,1.2-2.3,2-3.4s1.7-2,2.8-2.8
			c1.1-0.8,2.3-1.5,3.8-2c-0.1,1.6-0.5,2.9-1,4.1c-0.5,1.2-1.2,2.3-2,3.4s-1.7,2-2.8,2.8C449.7,315.8,448.5,316.5,446.9,317
			L446.9,317z M439.2,320.8c0.4-2.3,2.6-3.8,4.9-3.3c2.3,0.4,3.8,2.6,3.3,4.9s-2.6,3.8-4.9,3.3S438.7,323.1,439.2,320.8L439.2,320.8
			z M439.8,316.9c-1.5-0.5-2.7-1.3-3.7-2.1c-1-0.9-1.9-1.8-2.7-2.8s-1.4-2.2-1.9-3.4c-0.5-1.3-0.9-2.6-0.9-4.2
			c1.5,0.5,2.7,1.3,3.7,2.1c1,0.9,1.9,1.8,2.7,2.9c0.8,1,1.4,2.2,1.9,3.4C439.4,314,439.8,315.3,439.8,316.9L439.8,316.9z
			 M421.9,319.4c1.4-0.8,2.7-1.1,4.1-1.4c1.3-0.2,2.6-0.2,3.9-0.1c1.3,0.1,2.6,0.4,3.8,0.9c1.3,0.5,2.5,1.1,3.7,2.1
			c-1.4,0.8-2.7,1.1-4.1,1.4c-1.3,0.2-2.6,0.2-3.9,0.1c-1.3-0.1-2.6-0.4-3.8-0.9C424.4,321.1,423.1,320.5,421.9,319.4L421.9,319.4z
			 M439,191.9l8.8,1.7l-11.1,57.3c0.9-0.3,1.7-0.5,2.6-0.7c1.3-0.2,2.6-0.2,3.9-0.1c1.3,0.1,2.6,0.4,3.8,0.9
			c1.3,0.5,2.5,1.1,3.7,2.1c-1.4,0.8-2.7,1.1-4.1,1.4c-1.3,0.2-2.6,0.2-3.9,0.1c-1.3-0.1-2.6-0.4-3.8-0.9c-0.9-0.3-1.7-0.7-2.5-1.3
			l-10.9,56l-8.8-1.7L439,191.9L439,191.9z"/>
		<path class="st1" d="M579.4,208.8c-0.8-0.2-1.4-1-1.2-1.8c0.2-0.8,1-1.4,1.8-1.2s1.4,1,1.2,1.8C581.1,208.4,580.2,209,579.4,208.8
			L579.4,208.8z"/>
		<path class="st1" d="M521.1,234.2c-0.2,0.8-1,1.4-1.8,1.2c-0.8-0.2-1.4-1-1.2-1.8c0.2-0.8,1-1.4,1.8-1.2
			C520.7,232.6,521.2,233.4,521.1,234.2z"/>
		<path class="st1" d="M443.6,320.1c0.8,0.2,1.4,1,1.2,1.8c-0.2,0.8-1,1.4-1.8,1.2c-0.8-0.2-1.4-1-1.2-1.8
			C441.9,320.4,442.7,319.9,443.6,320.1z"/>
	</g>
	<g>
		
			<rect x="107.9" y="143.6" transform="matrix(0.518 -0.8554 0.8554 0.518 -45.4203 210.0868)" class="st2" width="111.7" height="3.6"/>
		<path class="st2" d="M91.5,98.6c0.7,0.4,0.9,1.4,0.5,2.1c-0.4,0.7-1.4,0.9-2.1,0.5s-0.9-1.4-0.5-2.1
			C89.9,98.4,90.8,98.2,91.5,98.6z"/>
		<path class="st2" d="M121.8,160.9c0.7,0.4,0.9,1.4,0.5,2.1c-0.4,0.7-1.4,0.9-2.1,0.5c-0.7-0.4-0.9-1.4-0.5-2.1
			C120.2,160.7,121.1,160.4,121.8,160.9z"/>
		<path class="st2" d="M125.7,42.1c-0.7-0.4-0.9-1.4-0.5-2.1c0.4-0.7,1.4-1,2.1-0.5c0.7,0.4,0.9,1.4,0.5,2.1
			C127.4,42.3,126.5,42.5,125.7,42.1z"/>
		<path class="st2" d="M151.7,215.8c0.7,0.4,0.9,1.4,0.5,2.1c-0.4,0.7-1.4,0.9-2.1,0.5c-0.7-0.4-0.9-1.4-0.5-2.1
			C150,215.6,150.9,215.4,151.7,215.8L151.7,215.8z"/>
		
			<rect x="60.8" y="115.1" transform="matrix(0.5182 -0.8553 0.8553 0.5182 -43.7488 156.1046)" class="st2" width="111.7" height="3.6"/>
		
			<rect x="155.4" y="172.4" transform="matrix(0.5182 -0.8553 0.8553 0.5182 -47.1765 264.5851)" class="st2" width="111.7" height="3.6"/>
		<path class="st2" d="M187.5,156.7c0.7,0.4,0.9,1.4,0.5,2.1c-0.4,0.7-1.4,0.9-2.1,0.5c-0.7-0.4-0.9-1.4-0.5-2.1
			C185.8,156.5,186.7,156.3,187.5,156.7z"/>
		
			<rect x="13.2" y="86.2" transform="matrix(0.518 -0.8554 0.8554 0.518 -41.9962 101.4556)" class="st2" width="111.7" height="3.6"/>
		<path class="st2" d="M20.8,140.8c-0.2,0.3-0.2,0.6-0.3,0.9c-0.5,0.6-0.9,1.2-1.4,1.9c-4.6,7.7-2.2,17.7,5.5,22.3
			c4.6,2.8,9.9,3,14.5,1.1c-1.3,0.1-2.7,0.2-4.2-0.2c0.9-1.4,1.9-2.3,3-3.1c1.1-0.8,2.2-1.4,3.4-1.9s2.5-0.8,3.8-1
			c1.3-0.1,2.7-0.2,4.3,0.2c-0.9,1.3-1.9,2.3-3,3.1c-0.6,0.4-1.2,0.8-1.9,1.1l0,0c-0.9,4.3,0,8.8,2.4,12.4h0c-0.1-1-0.1-2,0-2.9
			c0.2-1.3,0.5-2.6,0.9-3.8c0.5-1.2,1.1-2.4,1.9-3.5c0.8-1.1,1.7-2.1,3-3c0.4,1.6,0.4,2.9,0.2,4.3c-0.2,1.3-0.5,2.6-0.9,3.8
			c-0.5,1.2-1.1,2.4-1.8,3.5c-0.7,0.9-1.5,1.9-2.6,2.7c1.2,1.5,2.6,2.8,4.4,3.9c6.9,4.2,15.7,2.6,20.8-3.4c-3,7.3-0.3,15.8,6.6,20
			c6.9,4.2,15.7,2.6,20.8-3.4c-1.9,4.8-1.5,10.1,1,14.3c0.4,0.6,0.7,1.2,1.2,1.8c1.2,1.5,2.6,2.9,4.4,3.9c6.9,4.2,15.7,2.6,20.8-3.4
			c-3,7.3-0.3,15.8,6.6,20c2.7,1.6,5.6,2.4,8.5,2.3c0-0.6,0-1.2,0.1-1.9c0.1-1.3,0.5-2.6,1-3.8c0.5-1.2,1.1-2.4,1.9-3.5s1.7-2.1,3-3
			c0.4,1.5,0.4,2.9,0.2,4.3c-0.2,1.3-0.5,2.6-0.9,3.8c-0.5,1.2-1.1,2.4-1.9,3.5c-0.1,0.1-0.1,0.2-0.2,0.3c3.3-0.6,6.3-2.3,8.6-4.8
			c0,0,0,0,0,0c-0.4-0.9-0.7-1.9-1-2.9c-0.3-1.3-0.4-2.7-0.2-4.3c1.4,0.8,2.4,1.7,3.3,2.7c0.9,1,1.6,2.1,2.2,3.3
			c0.6,1.2,1,2.4,1.3,3.7c0.3,1.3,0.4,2.7,0.2,4.3c-1.4-0.7-2.4-1.7-3.3-2.7c-0.9-1-1.6-2.1-2.2-3.3c-0.1-0.1-0.1-0.3-0.2-0.4
			c-2.4,7.1,0.3,15,7,19.1c7.7,4.6,17.7,2.2,22.3-5.5c0.6-1,1.1-2.1,1.5-3.2l70.1-115.7c2.8-4.6,1.3-10.6-3.3-13.4l-10.1-6.1
			c-1.2,0.3-2.3,0.4-3.4,0.4c-1.4,0-2.6-0.3-3.9-0.6c-1.3-0.3-2.5-0.9-3.6-1.5c-1.1-0.7-2.3-1.5-3.3-2.8c1.5-0.6,2.9-0.6,4.3-0.6
			c0.6,0,1.1,0.1,1.7,0.1l-12.9-7.8c-0.1,0.3-0.2,0.7-0.3,1c-1.1-0.8-1.8-1.7-2.4-2.7l-72-43.6c-1.2,0.3-2.3,0.4-3.4,0.4
			c-1.4,0-2.6-0.3-3.9-0.6c-1.3-0.3-2.4-0.9-3.6-1.5c-1.1-0.7-2.3-1.5-3.2-2.8c1.5-0.6,2.9-0.6,4.2-0.6c0.6,0,1.1,0.1,1.7,0.1
			l-12.9-7.8c-0.1,0.3-0.2,0.7-0.3,1c-1-0.8-1.8-1.7-2.4-2.7l-17.9-10.9c-4.6-2.8-10.6-1.3-13.4,3.3L20.8,140.8L20.8,140.8z
			 M155.2,97.4c-1.3-1-2.1-2.1-2.8-3.2c-0.7-1.2-1.2-2.4-1.6-3.6c-0.4-1.3-0.6-2.5-0.6-3.9c0-1.3,0.1-2.7,0.6-4.2
			c1.3,1,2.1,2.1,2.8,3.2c0.7,1.2,1.2,2.4,1.6,3.6c0.4,1.3,0.6,2.5,0.6,3.9C155.8,94.6,155.7,95.9,155.2,97.4L155.2,97.4z
			 M136.8,110.9c0.9-1.3,1.9-2.3,3-3.1c1.1-0.8,2.2-1.4,3.4-1.9s2.5-0.8,3.8-1c1.3-0.1,2.7-0.2,4.3,0.2c-0.9,1.3-1.9,2.3-3,3.1
			c-1.1,0.8-2.2,1.4-3.4,1.9c-1.2,0.5-2.5,0.8-3.8,1C139.7,111.3,138.4,111.3,136.8,110.9L136.8,110.9z M117.8,144.8
			c0.7,1.1,1.2,2.4,1.6,3.6c0.4,1.3,0.6,2.5,0.6,3.9c0,1.4-0.1,2.7-0.6,4.2c-1.3-1-2.1-2.1-2.8-3.3c-0.7-1.1-1.2-2.4-1.6-3.6
			c-0.4-1.3-0.6-2.5-0.6-3.9c0-1.4,0.1-2.7,0.6-4.2C116.3,142.6,117.1,143.7,117.8,144.8L117.8,144.8z M159,99.5
			c2,1.2,2.6,3.8,1.4,5.8c-1.2,2-3.8,2.6-5.8,1.4c-2-1.2-2.6-3.8-1.4-5.8C154.4,98.9,157,98.3,159,99.5z M136.9,154.5
			c-0.9,1-2,1.8-3.1,2.4s-2.3,1.2-3.6,1.6c-1.3,0.4-2.6,0.7-4.2,0.6c0.6-1.5,1.5-2.6,2.4-3.5c0.9-1,2-1.8,3.1-2.4s2.3-1.2,3.6-1.6
			c1.3-0.4,2.6-0.7,4.2-0.5C138.7,152.4,137.8,153.5,136.9,154.5L136.9,154.5z M159.6,112.6c-0.3-1.3-0.4-2.7-0.2-4.3
			c1.4,0.8,2.4,1.7,3.3,2.7c0.9,1,1.6,2.1,2.2,3.3c0.6,1.2,1,2.4,1.3,3.7c0.3,1.3,0.4,2.7,0.2,4.3c-1.4-0.7-2.4-1.7-3.3-2.7
			c-0.9-1-1.6-2.1-2.2-3.3C160.3,115.2,159.9,114,159.6,112.6L159.6,112.6z M148.9,118.9c0.2-1.3,0.5-2.6,0.9-3.8
			c0.5-1.2,1.1-2.4,1.9-3.5c0.8-1.1,1.7-2.1,3-3c0.4,1.6,0.4,2.9,0.2,4.3c-0.2,1.3-0.5,2.6-0.9,3.8c-0.5,1.2-1.1,2.4-1.8,3.5
			c-0.8,1.1-1.7,2.1-3,3C148.7,121.6,148.7,120.2,148.9,118.9L148.9,118.9z M130,151.7c-0.7,1.1-1.5,2.1-2.4,3.1
			c-1,0.9-2.1,1.8-3.5,2.4c-0.1-1.6,0.1-2.9,0.5-4.2c0.4-1.3,0.9-2.5,1.6-3.6c0.7-1.1,1.5-2.1,2.4-3.1c1-0.9,2.1-1.8,3.5-2.4
			c0.1,1.6-0.1,2.9-0.5,4.3C131.3,149.4,130.7,150.5,130,151.7L130,151.7z M165.8,92.6c-0.7,1.1-1.5,2.1-2.4,3.1
			c-1,0.9-2.1,1.8-3.5,2.4c-0.1-1.6,0.1-2.9,0.5-4.2c0.4-1.3,0.9-2.5,1.6-3.6c0.7-1.1,1.5-2.1,2.4-3.1c1-0.9,2.1-1.8,3.5-2.4
			c0.1,1.6-0.1,2.9-0.5,4.3C167.1,90.3,166.5,91.4,165.8,92.6L165.8,92.6z M172.7,95.4c-0.9,1-2,1.8-3.1,2.4s-2.3,1.2-3.6,1.6
			c-1.3,0.4-2.6,0.7-4.2,0.6c0.6-1.5,1.5-2.6,2.4-3.5c0.9-1,2-1.8,3.1-2.4s2.3-1.2,3.6-1.6c1.3-0.4,2.6-0.7,4.2-0.5
			C174.5,93.3,173.6,94.4,172.7,95.4z M177.5,109c-1.5,0.6-2.9,0.6-4.2,0.6c-1.3,0-2.6-0.3-3.9-0.6s-2.5-0.9-3.6-1.5
			c-1.1-0.7-2.3-1.5-3.3-2.8c1.5-0.5,2.9-0.6,4.2-0.6c1.3,0,2.6,0.3,3.9,0.6s2.5,0.9,3.6,1.5C175.4,106.9,176.5,107.7,177.5,109
			L177.5,109z M166.7,165.9c0.9-1.4,1.9-2.3,3-3.1c1.1-0.8,2.2-1.4,3.4-1.9s2.5-0.8,3.8-1c1.3-0.1,2.7-0.2,4.3,0.2
			c-0.9,1.3-1.9,2.3-3,3.1c-1.1,0.8-2.2,1.4-3.4,1.9c-1.2,0.5-2.5,0.8-3.8,1C169.6,166.2,168.2,166.3,166.7,165.9L166.7,165.9z
			 M147.6,199.7c0.7,1.1,1.2,2.4,1.6,3.6c0.4,1.3,0.6,2.5,0.6,3.9c0,1.4-0.1,2.7-0.6,4.2c-1.3-1-2.1-2.1-2.8-3.3
			c-0.7-1.1-1.2-2.4-1.6-3.6c-0.4-1.3-0.6-2.5-0.6-3.9c0-1.4,0.1-2.7,0.6-4.2C146.1,197.5,146.9,198.6,147.6,199.7L147.6,199.7z
			 M191.7,154.9c0.6-1.5,1.5-2.6,2.4-3.5c0.9-1,2-1.8,3.1-2.4s2.3-1.2,3.6-1.6c1.3-0.4,2.6-0.7,4.2-0.5c-0.6,1.5-1.5,2.6-2.4,3.5
			c-0.9,1-2,1.8-3.1,2.4s-2.3,1.2-3.6,1.6C194.6,154.8,193.3,155,191.7,154.9L191.7,154.9z M192.6,166c0.9,1,1.6,2.1,2.2,3.3
			c0.6,1.2,1,2.4,1.3,3.7c0.3,1.3,0.4,2.7,0.2,4.3c-1.4-0.7-2.4-1.7-3.3-2.7c-0.9-1-1.6-2.1-2.2-3.3c-0.6-1.2-1-2.4-1.3-3.7
			c-0.3-1.3-0.4-2.7-0.2-4.3C190.7,164,191.7,165,192.6,166L192.6,166z M182,175.1c-0.8,1.1-1.7,2.1-3,3c-0.4-1.6-0.4-2.9-0.3-4.3
			c0.2-1.3,0.5-2.6,0.9-3.8c0.5-1.2,1.1-2.4,1.9-3.5c0.8-1.1,1.7-2.1,3-3c0.4,1.6,0.4,2.9,0.2,4.3c-0.2,1.3-0.5,2.6-0.9,3.8
			C183.4,172.8,182.8,174,182,175.1z M159.9,206.6c-0.7,1.1-1.5,2.1-2.4,3.1c-1,0.9-2.1,1.8-3.5,2.4c-0.1-1.6,0.1-2.9,0.5-4.2
			c0.4-1.3,0.9-2.5,1.6-3.6c0.7-1.1,1.5-2.1,2.4-3.1c1-0.9,2.1-1.8,3.5-2.4c0.1,1.6-0.1,2.9-0.5,4.3
			C161.1,204.3,160.6,205.5,159.9,206.6L159.9,206.6z M183.1,155.8c1.2-2,3.8-2.6,5.8-1.4s2.6,3.8,1.4,5.8c-1.2,2-3.8,2.6-5.8,1.4
			S181.9,157.8,183.1,155.8z M193.2,150.5c-1,0.9-2.1,1.8-3.5,2.4c-0.1-1.6,0.1-2.9,0.5-4.2c0.4-1.3,0.9-2.5,1.6-3.6
			c0.7-1.1,1.5-2.1,2.4-3.1c1-0.9,2.1-1.8,3.5-2.4c0.1,1.6-0.1,2.9-0.5,4.3c-0.4,1.3-0.9,2.5-1.6,3.6
			C195,148.6,194.2,149.6,193.2,150.5L193.2,150.5z M202.5,106.8c0.9-1.3,1.9-2.3,3-3.1c1.1-0.8,2.2-1.4,3.4-1.9s2.5-0.8,3.8-1
			c1.3-0.1,2.7-0.2,4.3,0.2c-0.9,1.3-1.9,2.3-3,3.1c-1.1,0.8-2.2,1.4-3.4,1.9c-1.2,0.5-2.5,0.8-3.8,1
			C205.4,107.1,204,107.2,202.5,106.8L202.5,106.8z M183.4,140.6c0.7,1.1,1.2,2.4,1.6,3.6c0.4,1.3,0.6,2.5,0.6,3.9
			c0,1.4-0.1,2.7-0.6,4.2c-1.3-1-2.1-2.1-2.8-3.3c-0.7-1.1-1.2-2.4-1.6-3.6c-0.4-1.3-0.6-2.5-0.6-3.9c0-1.4,0.1-2.7,0.6-4.2
			C181.9,138.4,182.7,139.5,183.4,140.6L183.4,140.6z M226.1,101.1c-1.2,2-3.8,2.6-5.8,1.4c-2-1.2-2.6-3.8-1.4-5.8
			c1.2-2,3.8-2.6,5.8-1.4C226.6,96.5,227.3,99.1,226.1,101.1z M217.8,116c-0.8,1.1-1.7,2.1-3,3c-0.4-1.6-0.4-2.9-0.3-4.3
			c0.2-1.3,0.5-2.6,0.9-3.8c0.5-1.2,1.1-2.4,1.9-3.5c0.8-1.1,1.7-2.1,3-3c0.4,1.6,0.4,2.9,0.2,4.3c-0.2,1.3-0.5,2.6-0.9,3.8
			C219.2,113.7,218.6,114.9,217.8,116L217.8,116z M232.1,118.1c-1.4-0.7-2.4-1.7-3.3-2.7c-0.9-1-1.6-2.1-2.2-3.3
			c-0.6-1.2-1-2.4-1.3-3.7c-0.3-1.3-0.4-2.7-0.2-4.3c1.4,0.8,2.4,1.7,3.3,2.7c0.9,1,1.6,2.1,2.2,3.3c0.6,1.2,1,2.4,1.3,3.7
			C232.1,115.2,232.3,116.6,232.1,118.1L232.1,118.1z M207.3,163.9c-1.5,0.6-2.9,0.6-4.2,0.6c-1.3,0-2.6-0.3-3.9-0.6
			s-2.4-0.9-3.6-1.5c-1.1-0.7-2.3-1.5-3.3-2.8c1.5-0.5,2.9-0.6,4.2-0.6c1.3,0,2.6,0.3,3.9,0.6s2.5,0.9,3.6,1.5
			C205.2,161.8,206.3,162.6,207.3,163.9L207.3,163.9z M237.6,121.7l7.6,4.6l-60.6,100.1l-7.6-4.6L237.6,121.7z M156.5,218.7
			c1.5-0.5,2.9-0.6,4.2-0.6c1.3,0,2.6,0.3,3.9,0.6s2.5,0.9,3.6,1.5c1.1,0.7,2.3,1.5,3.3,2.8c-1.5,0.6-2.9,0.6-4.2,0.6
			c-1.3,0-2.6-0.3-3.9-0.6s-2.4-0.9-3.6-1.5C158.7,220.8,157.5,220,156.5,218.7L156.5,218.7z M155.9,214c0.6-1.5,1.5-2.6,2.4-3.5
			c0.9-1,2-1.8,3.1-2.4s2.3-1.2,3.6-1.6c1.3-0.4,2.6-0.7,4.2-0.5c-0.6,1.5-1.5,2.6-2.4,3.5c-0.9,1-2,1.8-3.1,2.4s-2.3,1.2-3.6,1.6
			C158.8,213.9,157.5,214.1,155.9,214L155.9,214z M147.3,214.9c1.2-2,3.8-2.6,5.8-1.4s2.6,3.8,1.4,5.8c-1.2,2-3.8,2.6-5.8,1.4
			S146.1,216.9,147.3,214.9z M130.9,225c0.9-1.4,1.9-2.3,3-3.1c1.1-0.8,2.2-1.4,3.4-1.9s2.5-0.8,3.8-1c1.3-0.1,2.7-0.2,4.3,0.2
			c-0.9,1.3-1.9,2.3-3,3.1c-1.1,0.8-2.2,1.4-3.4,1.9c-1.2,0.5-2.5,0.8-3.8,1C133.8,225.3,132.4,225.4,130.9,225L130.9,225z
			 M131.6,207.7c1.6-0.3,2.9-0.1,4.3,0.1c1.3,0.3,2.5,0.7,3.7,1.3c1.2,0.6,2.3,1.3,3.3,2.1c1,0.9,2,1.9,2.7,3.3
			c-1.6,0.3-2.9,0.1-4.3-0.1c-1.3-0.3-2.5-0.7-3.7-1.3c-1.2-0.6-2.3-1.3-3.3-2.1C133.3,210.1,132.3,209.1,131.6,207.7L131.6,207.7z
			 M167.4,148.6c1.6-0.3,2.9-0.1,4.3,0.1c1.3,0.3,2.5,0.7,3.7,1.3c1.2,0.6,2.3,1.3,3.3,2.1c1,0.9,2,1.9,2.7,3.3
			c-1.6,0.3-2.9,0.1-4.3-0.1c-1.3-0.3-2.5-0.7-3.7-1.3c-1.2-0.6-2.3-1.3-3.3-2.1C169.1,151,168.1,150,167.4,148.6L167.4,148.6z
			 M203.2,89.5c1.6-0.3,2.9-0.1,4.3,0.1c1.3,0.3,2.5,0.7,3.7,1.3c1.2,0.6,2.3,1.3,3.3,2.2c1,0.9,2,1.9,2.7,3.3
			c-1.6,0.3-2.9,0.1-4.3-0.1c-1.3-0.3-2.5-0.7-3.7-1.3s-2.3-1.3-3.3-2.1C204.9,91.9,203.9,90.9,203.2,89.5L203.2,89.5z M190.3,93.1
			l7.6,4.6l-60.6,100.1l-7.6-4.6L190.3,93.1L190.3,93.1z M137.5,168.7c-1.3,0-2.6-0.3-3.9-0.6s-2.5-0.9-3.6-1.5
			c-1.1-0.7-2.3-1.5-3.3-2.8c1.5-0.5,2.9-0.6,4.2-0.6c1.3,0,2.6,0.3,3.9,0.6s2.5,0.9,3.6,1.5c1.1,0.7,2.3,1.5,3.3,2.8
			C140.2,168.6,138.8,168.7,137.5,168.7L137.5,168.7z M123.7,167.5c1.4,0.8,2.4,1.7,3.3,2.7c0.9,1,1.6,2.1,2.2,3.3
			c0.6,1.2,1,2.4,1.3,3.7c0.3,1.3,0.4,2.7,0.2,4.3c-1.4-0.7-2.4-1.7-3.3-2.7c-0.9-1-1.6-2.1-2.2-3.3c-0.6-1.2-1-2.4-1.3-3.7
			C123.6,170.4,123.4,169,123.7,167.5L123.7,167.5z M115.9,170.7c0.8-1.1,1.7-2.1,3-3c0.4,1.6,0.4,2.9,0.2,4.3
			c-0.2,1.3-0.5,2.6-0.9,3.8c-0.5,1.2-1.1,2.4-1.8,3.5c-0.8,1.1-1.7,2.1-3,3c-0.4-1.6-0.4-2.9-0.3-4.3c0.2-1.3,0.5-2.6,0.9-3.8
			C114.5,172.9,115.1,171.8,115.9,170.7z M117.4,160c1.2-2,3.8-2.6,5.8-1.4s2.6,3.8,1.4,5.8c-1.2,2-3.8,2.6-5.8,1.4
			S116.2,162,117.4,160z M101,170c0.9-1.4,1.9-2.3,3-3.1c1.1-0.8,2.2-1.4,3.4-1.9s2.5-0.8,3.8-1c1.3-0.1,2.7-0.2,4.3,0.2
			c-0.9,1.3-1.9,2.3-3,3.1c-1.1,0.8-2.2,1.4-3.4,1.9c-1.2,0.5-2.5,0.8-3.8,1C104,170.4,102.6,170.4,101,170L101,170z M101.8,152.7
			c1.6-0.3,2.9-0.1,4.3,0.1c1.3,0.3,2.5,0.7,3.7,1.3c1.2,0.6,2.3,1.3,3.3,2.1c1,0.9,2,1.9,2.7,3.3c-1.6,0.3-2.9,0.1-4.3-0.1
			c-1.3-0.3-2.5-0.7-3.7-1.3c-1.2-0.6-2.3-1.3-3.3-2.1C103.5,155.1,102.5,154.2,101.8,152.7L101.8,152.7z M137.6,93.6
			c1.6-0.3,2.9-0.1,4.3,0.1c1.3,0.3,2.5,0.7,3.7,1.3c1.2,0.6,2.3,1.3,3.3,2.2c1,0.9,2,1.9,2.7,3.3c-1.6,0.3-2.9,0.1-4.3-0.1
			c-1.3-0.3-2.5-0.7-3.7-1.3s-2.3-1.3-3.3-2.1C139.3,96,138.3,95.1,137.6,93.6L137.6,93.6z M143,64.4l7.6,4.6L90,169.1l-7.6-4.6
			C82.4,164.5,143,64.4,143,64.4z M121.3,38.2c-1.6,0.3-2.9,0.1-4.3-0.1c-1.3-0.3-2.5-0.7-3.7-1.3s-2.3-1.3-3.3-2.1
			c-1-0.9-2-1.9-2.7-3.3c1.6-0.3,2.9-0.1,4.3,0.1c1.3,0.3,2.5,0.7,3.7,1.3c1.2,0.6,2.3,1.3,3.3,2.2
			C119.6,35.8,120.5,36.8,121.3,38.2L121.3,38.2z M95.8,96.8c0.6-1.5,1.5-2.6,2.4-3.5c0.9-1,2-1.8,3.1-2.4s2.3-1.2,3.6-1.6
			c1.3-0.4,2.6-0.7,4.2-0.5c-0.6,1.5-1.5,2.6-2.4,3.5c-0.9,1-2,1.8-3.1,2.4s-2.3,1.2-3.6,1.6C98.7,96.6,97.4,96.9,95.8,96.8
			L95.8,96.8z M96.7,107.9c0.9,1,1.6,2.1,2.2,3.3c0.6,1.2,1,2.4,1.3,3.7c0.3,1.3,0.4,2.7,0.2,4.3c-1.4-0.7-2.4-1.7-3.3-2.7
			c-0.9-1-1.6-2.1-2.2-3.3c-0.6-1.2-1-2.4-1.3-3.7c-0.3-1.3-0.4-2.7-0.2-4.3C94.8,105.9,95.8,106.9,96.7,107.9L96.7,107.9z
			 M86.1,116.9c-0.8,1.1-1.7,2.1-3,3c-0.4-1.6-0.4-2.9-0.3-4.3c0.2-1.3,0.5-2.6,0.9-3.8c0.5-1.2,1.1-2.4,1.9-3.5
			c0.8-1.1,1.7-2.1,3-3c0.4,1.6,0.4,2.9,0.2,4.3c-0.2,1.3-0.5,2.6-0.9,3.8C87.5,114.7,86.9,115.8,86.1,116.9z M64,148.4
			c-0.7,1.1-1.5,2.1-2.4,3.1c-1,0.9-2.1,1.8-3.5,2.4c-0.1-1.6,0.1-2.9,0.5-4.2c0.4-1.3,0.9-2.5,1.6-3.6c0.7-1.1,1.5-2.1,2.4-3.1
			c1-0.9,2.1-1.8,3.5-2.4c0.1,1.6-0.1,2.9-0.5,4.3C65.2,146.1,64.7,147.3,64,148.4L64,148.4z M87.2,97.7c1.2-2,3.8-2.6,5.8-1.4
			c2,1.2,2.6,3.8,1.4,5.8c-1.2,2-3.8,2.6-5.8,1.4C86.6,102.3,86,99.7,87.2,97.7z M97.3,92.4c-1,0.9-2.1,1.8-3.5,2.4
			c-0.1-1.6,0.1-2.9,0.5-4.2c0.4-1.3,0.9-2.5,1.6-3.6c0.7-1.1,1.5-2.1,2.4-3.1c1-0.9,2.1-1.8,3.5-2.4c0.1,1.6-0.1,2.9-0.5,4.3
			c-0.4,1.3-0.9,2.5-1.6,3.6C99.1,90.5,98.3,91.5,97.3,92.4L97.3,92.4z M85.3,102c-0.9,1.3-1.9,2.3-3,3.1c-1.1,0.8-2.2,1.4-3.4,1.9
			c-1.2,0.5-2.5,0.8-3.8,1c-1.3,0.1-2.7,0.2-4.3-0.2c0.9-1.3,1.9-2.3,3-3.1c1.1-0.8,2.2-1.4,3.4-1.9s2.5-0.8,3.8-1
			C82.3,101.7,83.7,101.7,85.3,102L85.3,102z M87.5,82.5c0.7,1.2,1.2,2.4,1.6,3.6c0.4,1.3,0.6,2.5,0.6,3.9c0,1.3-0.1,2.7-0.6,4.2
			c-1.3-1-2.1-2.1-2.8-3.2c-0.7-1.2-1.2-2.4-1.6-3.6c-0.4-1.3-0.6-2.5-0.6-3.9c0-1.3,0.1-2.7,0.6-4.2C86,80.3,86.8,81.4,87.5,82.5
			L87.5,82.5z M121.1,43c-0.9,1.3-1.9,2.3-3,3.1c-1.1,0.8-2.2,1.4-3.4,1.9c-1.2,0.5-2.5,0.8-3.8,1c-1.3,0.1-2.7,0.2-4.3-0.2
			c0.9-1.3,1.9-2.3,3-3.1c1.1-0.8,2.2-1.4,3.4-1.9c1.2-0.5,2.5-0.8,3.8-1C118.1,42.6,119.5,42.6,121.1,43L121.1,43z M130.1,43
			c-1.2,2-3.8,2.6-5.8,1.4s-2.6-3.8-1.4-5.8c1.2-2,3.8-2.6,5.8-1.4C130.7,38.4,131.3,41,130.1,43z M121.9,57.9c-0.8,1.1-1.7,2.1-3,3
			c-0.4-1.6-0.4-2.9-0.3-4.3c0.2-1.3,0.5-2.6,0.9-3.8s1.1-2.4,1.9-3.5c0.8-1.1,1.7-2.1,3-3c0.4,1.5,0.4,2.9,0.2,4.3
			c-0.2,1.3-0.5,2.6-0.9,3.8C123.3,55.6,122.7,56.8,121.9,57.9L121.9,57.9z M136.1,60c-1.4-0.7-2.4-1.7-3.3-2.7
			c-0.9-1-1.6-2.1-2.2-3.3c-0.6-1.2-1-2.4-1.3-3.7c-0.3-1.3-0.4-2.7-0.2-4.3c1.4,0.7,2.4,1.7,3.3,2.7c0.9,1,1.6,2.1,2.2,3.3
			c0.6,1.2,1,2.4,1.3,3.7C136.2,57.1,136.4,58.5,136.1,60L136.1,60z M111.4,105.8c-1.5,0.6-2.9,0.6-4.2,0.6c-1.3,0-2.6-0.3-3.9-0.6
			s-2.5-0.9-3.6-1.5c-1.1-0.7-2.3-1.5-3.3-2.8c1.5-0.5,2.9-0.6,4.2-0.6c1.3,0,2.6,0.3,3.9,0.6s2.5,0.9,3.6,1.5
			C109.3,103.7,110.4,104.5,111.4,105.8L111.4,105.8z M71.4,165.5c-1.3,0-2.6-0.3-3.9-0.6s-2.5-0.9-3.6-1.5
			c-1.1-0.7-2.3-1.5-3.3-2.8c1.5-0.5,2.9-0.6,4.2-0.6c1.3,0,2.6,0.3,3.9,0.6s2.5,0.9,3.6,1.5c1.1,0.7,2.3,1.5,3.3,2.8
			C74.1,165.4,72.7,165.5,71.4,165.5L71.4,165.5z M57.6,164.3C59,165,60,166,60.9,167c0.9,1,1.6,2.1,2.2,3.3c0.6,1.2,1,2.4,1.3,3.7
			c0.3,1.3,0.4,2.7,0.2,4.3c-1.4-0.7-2.4-1.7-3.3-2.7c-0.9-1-1.6-2.1-2.2-3.3c-0.6-1.2-1-2.4-1.3-3.7
			C57.5,167.2,57.3,165.9,57.6,164.3L57.6,164.3z M60,155.9c0.6-1.5,1.5-2.6,2.4-3.5c0.9-1,2-1.8,3.1-2.4s2.3-1.2,3.6-1.6
			c1.3-0.4,2.6-0.7,4.2-0.5c-0.6,1.5-1.5,2.6-2.4,3.5c-0.9,1-2,1.8-3.1,2.4s-2.3,1.2-3.6,1.6C62.9,155.8,61.6,156,60,155.9L60,155.9
			z M51.4,156.8c1.2-2,3.8-2.6,5.8-1.4s2.6,3.8,1.4,5.8s-3.8,2.6-5.8,1.4S50.2,158.8,51.4,156.8z M53.3,153.3
			c-1.3-1-2.1-2.1-2.8-3.3c-0.7-1.1-1.2-2.4-1.6-3.6c-0.4-1.3-0.6-2.5-0.6-3.9c0-1.4,0.1-2.7,0.6-4.2c1.3,1,2.1,2.1,2.8,3.2
			c0.7,1.1,1.2,2.4,1.6,3.6c0.4,1.3,0.6,2.5,0.6,3.9C53.9,150.5,53.8,151.8,53.3,153.3L53.3,153.3z M35.7,149.5
			c1.6-0.3,2.9-0.1,4.3,0.1c1.3,0.3,2.5,0.7,3.7,1.3c1.2,0.6,2.3,1.3,3.3,2.1c1,0.9,2,1.9,2.7,3.3c-1.6,0.3-2.9,0.1-4.3-0.1
			c-1.3-0.3-2.5-0.7-3.7-1.3c-1.2-0.6-2.3-1.3-3.3-2.1C37.4,152,36.4,151,35.7,149.5L35.7,149.5z M95.7,35.8l7.6,4.6L73.1,90.3
			c0.9,0,1.8,0.1,2.6,0.3c1.3,0.3,2.6,0.7,3.7,1.3c1.2,0.6,2.3,1.3,3.3,2.2c1,0.9,2,1.9,2.7,3.3c-1.6,0.3-2.9,0.1-4.3-0.1
			c-1.3-0.3-2.5-0.7-3.7-1.3s-2.3-1.3-3.3-2.1c-0.7-0.6-1.3-1.3-1.9-2.1l-29.6,48.8l-7.6-4.6L95.7,35.8L95.7,35.8z"/>
		<path class="st2" d="M221.7,100.2c-0.7-0.4-0.9-1.4-0.5-2.1c0.4-0.7,1.4-0.9,2.1-0.5c0.7,0.4,0.9,1.4,0.5,2.1
			C223.3,100.4,222.4,100.6,221.7,100.2L221.7,100.2z"/>
		<path class="st2" d="M158.1,103.9c-0.4,0.7-1.4,0.9-2.1,0.5c-0.7-0.4-0.9-1.4-0.5-2.1c0.4-0.7,1.4-0.9,2.1-0.5
			C158.3,102.2,158.6,103.2,158.1,103.9z"/>
		<path class="st2" d="M55.7,157.7c0.7,0.4,0.9,1.4,0.5,2.1c-0.4,0.7-1.4,0.9-2.1,0.5c-0.7-0.4-0.9-1.4-0.5-2.1
			C54.1,157.5,55,157.3,55.7,157.7L55.7,157.7z"/>
	</g>
</g>
</svg>
