<?xml version="1.0" encoding="utf-8"?>
<!-- Generator: Adobe Illustrator 24.0.2, SVG Export Plug-In . SVG Version: 6.00 Build 0)  -->
<svg version="1.1" id="papel_picado" xmlns="http://www.w3.org/2000/svg" xmlns:xlink="http://www.w3.org/1999/xlink" x="0px"
	 y="0px" viewBox="0 0 701.6 386.9" style="enable-background:new 0 0 701.6 386.9;" xml:space="preserve">
<style type="text/css">
	.st0{fill:#FC5FAB;}
	.st1{fill:#9D31AA;}
	.st2{fill:#96D63F;}
</style>
<g>
	<g>
		<path class="st0" d="M203,309.2c-3.5-1.2-7.6-1.5-12.6-0.7c-2.5,0.4-5.1,0.9-8.1,1.8c-0.2,0.1-0.3,0.2-0.4,0.3
			c0,0.1-0.1,0.3,0,0.4c1.5,4.2,3.6,8.3,6.2,12c1.3,1.9,3.1,4.1,5.5,4.6c1.9,0.4,4-0.4,5-2c1.1-1.5,1-3.7-0.2-5.2l-2.6-3.4l4.1,1.2
			c1.9,0.6,4.6,0.6,6.3-1.2c1.5-1.6,1.7-4.2,0.4-5.7C205.8,310.3,204.3,309.7,203,309.2L203,309.2z"/>
		<path class="st0" d="M183.7,213.4l-3.6,2.4l1.4-3.9c0.6-1.7,0-3.9-1.4-5c-1-0.8-2.5-1.2-3.8-1c-0.6,0.1-1.1,0.3-1.6,0.5
			c-2.1,1.1-3.1,3.8-3.8,5.9c-1.3,4.3-2.1,8.8-2.3,13.3c0,0.2,0.1,0.3,0.2,0.4c0.1,0.1,0.2,0.2,0.4,0.2c9.3-0.1,15.7-1.7,20.1-4.9
			c1.1-0.8,2.4-1.8,2.9-3.1c0.8-1.8-0.2-4.3-2.1-5.4C187.8,211.6,185.3,212.3,183.7,213.4L183.7,213.4z"/>
		<polygon class="st0" points="42.6,265.9 35.6,266.9 41.9,307.2 48.9,306.2 		"/>
		<polygon class="st0" points="226.2,288.1 219.3,289.1 225.6,329.4 232.5,328.4 		"/>
		<path class="st0" d="M89.3,323.6c-9.3,0.1-15.7,1.7-20.1,4.9c-1.1,0.8-2.3,1.8-2.9,3c-0.8,1.8,0.2,4.3,2.1,5.4
			c2.2,1.2,4.7,0.5,6.4-0.6l3.6-2.4l-1.4,3.9c-0.6,1.7,0,3.9,1.4,5c1.5,1.2,3.8,1.4,5.4,0.5c2.1-1.1,3.2-3.8,3.8-5.9
			c1.3-4.3,2.1-8.8,2.3-13.3c0-0.2-0.1-0.3-0.2-0.4C89.7,323.7,89.6,323.6,89.3,323.6L89.3,323.6z"/>
		<polygon class="st0" points="35.2,218.3 28.2,219.3 34.5,259.6 41.4,258.6 		"/>
		<path class="st0" d="M55.5,240.4c5.2,1.8,11.8,1.5,20.7-1c0.2-0.1,0.3-0.2,0.4-0.3c0-0.1,0.1-0.3,0-0.4c-1.5-4.2-3.6-8.3-6.2-12
			c-1.3-1.9-3.1-4.1-5.5-4.6c-1.9-0.4-4,0.4-5,2c-1.1,1.6-1,3.7,0.2,5.2l2.6,3.4l-4.2-1.2c-1-0.3-2.1-0.4-3.3-0.3
			c-1.1,0.2-2.2,0.6-3,1.5c-1.5,1.6-1.7,4.2-0.4,5.7C52.7,239.4,54.2,240,55.5,240.4L55.5,240.4z"/>
		<polygon class="st0" points="211.4,192.9 204.5,193.9 210.7,234.2 217.7,233.2 		"/>
		<path class="st0" d="M210.5,183.7L27.8,210c-5.5,0.8-9.2,5.7-8.4,10.9L40,353c0.9,5.8,3.4,11.3,7.3,15.8l5,5.9
			c3.3,3.8,9.6,2.9,11.5-1.7l3-7l3.5-8.3l5.9,6.9l5,5.9c3.3,3.8,9.6,2.9,11.5-1.7l3-7l3.5-8.3l5.9,6.9l5,5.9
			c3.3,3.8,9.6,2.9,11.5-1.7l3-7l3.5-8.3l5.9,6.9l5,5.9c3.3,3.8,9.6,2.9,11.5-1.7l3-7l3.5-8.3l5.9,6.9l5,5.9
			c3.3,3.8,9.6,2.9,11.5-1.7l3-7l3.5-8.3l5.9,6.9l5,5.9c3.3,3.8,9.6,2.9,11.5-1.7l3-7l3.5-8.3l5.9,6.9l5,5.9
			c3.3,3.8,9.6,2.9,11.5-1.7l3-7c2.3-5.4,3-11.4,2.1-17.2l-20.6-132C221,186.5,215.9,182.9,210.5,183.7L210.5,183.7z M59.5,356.1
			l-12.6,1.8l-7.1-45.7l12.6-1.8L59.5,356.1z M52.1,308.5l-12.6,1.8l-7.1-45.7l12.6-1.8L52.1,308.5z M44.7,260.9l-12.6,1.8L25,217
			l12.6-1.8L44.7,260.9z M162.7,237.1c2.5-1,5.6-1.6,8.6-0.7c1.5,0.4,3,1.1,4.2,2.3c1.2,1.1,2,2.6,2.5,4c0.9,2.9,0.6,5.6,0.4,7.9
			c-0.2,2.3-0.4,4.4,0.2,6c0.4,1.5,1.8,3,3.5,4.7c0.8,0.9,1.8,1.8,2.6,2.9c0.9,1.1,1.7,2.5,2,4.1c0.3,1.6,0.3,3.2-0.3,4.8
			c-0.5,1.5-1.5,2.8-2.6,3.8c-2.3,2-5.1,3-7.9,3.3c-2.7,0.3-5.3,0.1-7.8-0.2c-2.5-0.3-4.9-0.7-7.3-1.1c-2.4-0.5-4.8-1-7.2-1.6
			c-2.3-0.6-4.8-1.2-6.9-2.5c2.3,0.8,4.7,0.9,7.2,1.1c2.4,0.2,4.8,0.4,7.3,0.5c2.4,0.1,4.8,0.2,7.2,0.3c2.4,0,4.7,0,6.8-0.4
			c2.1-0.4,3.9-1.3,5.2-2.5c1.3-1.3,1.6-2.8,1.2-4.2c-0.4-1.4-1.7-2.9-3.5-4.5c-1.7-1.6-3.9-3.6-4.9-6.7c-0.9-3-0.5-5.7-0.3-8
			c0.3-2.3,0.4-4.4,0-6.1c-0.6-3.3-4.8-4.4-8.9-3.1c-2.1,0.6-4.2,1.7-6.2,2.8c-2.1,1.1-4.1,2.4-6,3.7c-3.9,2.7-7.4,5.9-10.6,9.4
			c2.3-4.2,5.4-8,8.9-11.4C154,242.1,157.8,239.2,162.7,237.1L162.7,237.1z M101.8,228.5c0.6-1.4,1.6-2.7,2.9-3.7
			c1.3-1,3-1.6,4.5-1.8c3.1-0.4,5.8,0.2,8.2,0.7c2.4,0.6,4.5,0.9,6.2,0.7c1.6-0.2,3.3-1.3,5.3-2.7c1-0.7,2-1.4,3.3-2.1
			c1.3-0.7,2.8-1.3,4.5-1.4c1.7-0.1,3.3,0.2,4.9,0.9c1.5,0.7,2.7,1.8,3.6,3c1.8,2.4,2.4,5.3,2.3,7.9c-0.1,2.6-0.6,5.1-1.3,7.4
			c-0.6,2.3-1.4,4.6-2.1,6.8c-0.8,2.2-1.7,4.5-2.7,6.6c-1,2.1-1.9,4.4-3.6,6.2c1.1-2.1,1.5-4.4,2.1-6.7c0.6-2.3,1.1-4.6,1.5-6.8
			c0.5-2.3,0.9-4.6,1.2-6.9c0.3-2.3,0.7-4.5,0.5-6.6c-0.1-2-0.8-3.9-1.9-5.3c-1.1-1.4-2.7-1.9-4.2-1.8c-1.5,0.1-3.2,1.2-5.1,2.7
			c-1.9,1.4-4.3,3.2-7.6,3.7c-3.2,0.4-5.9-0.3-8.3-0.9c-2.3-0.6-4.4-1-6.2-0.8c-3.4,0.1-5.2,3.9-4.4,8c0.4,2,1.2,4.2,2,6.3
			c0.9,2.1,1.9,4.2,3,6.2c2.2,4.1,5.1,7.8,8.3,11.4c-4-2.7-7.5-6.2-10.5-10.1c-2.9-4-5.4-8-6.9-13
			C100.7,234.3,100.6,231.2,101.8,228.5L101.8,228.5z M88.2,247.8c5.4,0.6,9.9,2.4,14.5,4.5c4.4,2.2,8.5,5,12,8.3
			c-4.2-2.5-8.5-4.5-13.1-6c-2.3-0.8-4.5-1.4-6.8-1.9c-2.3-0.4-4.7-0.9-6.8-0.9c-4.3-0.1-8,2.2-7.5,5.5c0.1,1.7,0.8,3.7,1.8,5.8
			c0.9,2.1,2.2,4.6,2.2,7.7c0,3.2-1.5,5.7-2.6,7.8c-1.2,2.1-2,3.9-1.9,5.3c0.1,1.5,0.9,2.9,2.5,3.7c1.6,0.8,3.6,1.2,5.8,1
			c2.1-0.2,4.4-0.8,6.7-1.5c2.3-0.7,4.6-1.5,6.8-2.3c2.3-0.8,4.5-1.7,6.8-2.5c2.2-0.9,4.6-1.7,6.5-3.1c-1.6,1.8-3.8,3.1-5.8,4.4
			c-2.1,1.3-4.2,2.5-6.4,3.6c-2.2,1.1-4.4,2.1-6.7,3.1s-4.6,1.9-7.4,2.4c-2.7,0.5-5.7,0.4-8.5-1c-1.4-0.7-2.7-1.6-3.7-2.9
			c-1-1.3-1.6-2.8-1.7-4.5c-0.2-1.6,0.2-3.2,0.7-4.5c0.5-1.3,1.1-2.4,1.6-3.5c1.1-2.1,2-3.9,1.9-5.4c0-1.6-0.7-3.6-1.7-5.8
			c-0.9-2.2-2.1-4.7-2.1-7.7c0-1.5,0.3-3.1,1.1-4.5c0.8-1.4,2-2.6,3.3-3.4C82.4,247.8,85.5,247.5,88.2,247.8L88.2,247.8z
			 M50.1,230.7c1.6-1.7,3.9-2.5,6.4-2.4c-0.5-1.9-0.2-4.1,1-5.8c1.7-2.5,5-3.8,8-3.1c3.3,0.7,5.6,3.4,7.2,5.8
			c2.7,3.9,4.9,8.2,6.6,12.6c0.3,0.8,0.2,1.8-0.2,2.6c-0.4,0.8-1.2,1.4-2.1,1.7c-3,0.9-5.8,1.5-8.4,1.8c-5.5,0.8-10.1,0.5-14-0.9
			c-1.7-0.6-3.6-1.4-4.9-2.9C47.4,237.5,47.7,233.3,50.1,230.7L50.1,230.7z M90.4,338.2c-0.8,2.6-2.2,5.9-5.1,7.5
			c-0.8,0.4-1.7,0.7-2.6,0.9c-2.1,0.3-4.4-0.2-6.1-1.6c-1.6-1.3-2.6-3.2-2.7-5.2c-2.4,0.8-4.8,0.6-6.9-0.5c-3.1-1.8-4.6-5.7-3.3-8.8
			c0.8-1.9,2.4-3.2,3.8-4.2c4.9-3.5,11.8-5.3,21.8-5.4c0.9,0,1.9,0.4,2.5,1c0.7,0.6,1,1.5,1,2.4C92.6,329,91.8,333.7,90.4,338.2
			L90.4,338.2z M132.5,298.7c0.2,2.4,0.3,4.7,0.4,7.1c0,2.4,0,4.8-0.2,7.1s-0.4,4.8-1.2,7.4c-0.8,2.5-2.3,5-4.8,6.8
			c-1.3,0.9-2.7,1.5-4.4,1.8c-1.7,0.2-3.3,0-4.9-0.6c-1.6-0.6-2.8-1.6-3.8-2.6c-1-1-1.7-2-2.5-3c-1.4-1.9-2.7-3.5-4.2-4.1
			c-1.5-0.8-3.7-1-6.1-1.2c-2.4-0.2-5.3-0.4-8-1.8c-1.4-0.7-2.7-1.7-3.7-3.1c-0.9-1.4-1.4-2.9-1.6-4.4c-0.3-3,0.8-5.8,2.3-8
			c3.1-4.3,6.8-7.4,10.8-10.3c4.1-2.8,8.5-5,13.2-6.4c-4.2,2.5-8.1,5.2-11.6,8.4c-1.7,1.6-3.4,3.2-4.9,5c-1.5,1.8-3,3.6-4,5.4
			c-2.1,3.6-1.7,7.8,1.6,8.9c1.6,0.7,3.8,1,6.2,1.1c2.4,0.2,5.3,0.3,8.1,1.7c3,1.5,4.6,3.9,6,5.8c1.4,2,2.7,3.5,4,4.1
			c1.4,0.6,3.1,0.5,4.6-0.4c1.5-1,2.8-2.6,3.5-4.5c0.8-1.9,1.2-4.1,1.6-6.4c0.4-2.3,0.8-4.6,1-6.9c0.3-2.3,0.5-4.6,0.8-7
			c0.2-2.4,0.5-4.6,0.1-7C132.1,293.9,132.3,296.4,132.5,298.7L132.5,298.7z M131.8,279.9c-4.8,0.7-9.2-2.5-9.9-7
			c-0.7-4.6,2.6-8.9,7.3-9.5c4.8-0.7,9.2,2.5,9.9,7S136.6,279.2,131.8,279.9z M170.6,309.3c-2.3,0.7-4.3,1.5-5.6,2.6
			c-1.3,1-2.1,2.8-3,4.9c-0.5,1.1-0.9,2.3-1.7,3.5c-0.7,1.2-1.7,2.5-3.1,3.4c-1.4,0.9-2.9,1.5-4.6,1.7c-1.7,0.1-3.3-0.2-4.7-0.7
			c-2.9-1.2-4.9-3.3-6.3-5.5c-1.4-2.3-2.3-4.6-2.9-6.9c-0.7-2.3-1.4-4.6-1.9-6.9c-0.5-2.3-1-4.6-1.4-7c-0.3-2.3-0.8-4.7-0.4-7.1
			c0.2,2.4,1.1,4.5,1.8,6.8c0.8,2.2,1.6,4.4,2.4,6.6c0.9,2.2,1.7,4.3,2.7,6.5c1,2.1,1.9,4.2,3.2,5.8c1.2,1.7,2.9,2.9,4.5,3.5
			c1.7,0.6,3.4,0.3,4.5-0.6c1.2-0.9,2-2.7,2.9-4.9c0.9-2.1,1.9-4.9,4.4-7c2.5-2,5.2-2.7,7.5-3.5c2.3-0.7,4.3-1.4,5.7-2.5
			c2.9-1.8,2.3-6-0.6-9c-1.4-1.5-3.3-3-5.2-4.3c-1.9-1.4-3.9-2.6-5.9-3.7c-4.1-2.3-8.6-4.1-13.3-5.5c4.9,0.3,9.8,1.5,14.4,3.2
			c4.6,1.9,9,4.1,13,7.5c2,1.8,3.8,4.3,4.2,7.2c0.2,1.5,0.1,3.1-0.5,4.6c-0.6,1.5-1.6,2.8-2.8,3.8
			C175.6,307.7,172.9,308.5,170.6,309.3L170.6,309.3z M208.3,318.9c-1.6,1.7-3.9,2.5-6.4,2.4c0.5,1.9,0.2,4.1-1,5.8
			c-1.2,1.8-3.2,2.9-5.3,3.2c-0.9,0.1-1.8,0.1-2.7-0.1c-3.4-0.7-5.6-3.5-7.2-5.8c-2.7-3.9-4.9-8.2-6.6-12.6
			c-0.3-0.8-0.2-1.8,0.2-2.6c0.4-0.8,1.2-1.4,2.1-1.7c9.6-2.7,16.7-3,22.5-1c1.7,0.6,3.6,1.4,4.9,3
			C211,312.2,210.8,316.3,208.3,318.9L208.3,318.9z M194.8,219.2c-0.8,1.9-2.4,3.2-3.8,4.2c-3.4,2.4-7.6,4-13.2,4.8
			c-2.6,0.4-5.4,0.6-8.6,0.6c-0.9,0-1.9-0.4-2.5-1c-0.7-0.6-1-1.5-1-2.4c0.2-4.7,1-9.4,2.4-13.9c0.8-2.6,2.1-5.9,5.1-7.5
			c2.7-1.5,6.3-1.2,8.6,0.8c1.6,1.3,2.6,3.2,2.7,5.2c2.4-0.8,4.8-0.6,6.9,0.5C194.6,212.2,196.1,216.1,194.8,219.2z M235.7,330.7
			l-12.6,1.8l-7.1-45.7l12.6-1.8L235.7,330.7z M228.3,283.1l-12.6,1.8l-7.1-45.7l12.6-1.8L228.3,283.1z M220.9,235.5l-12.6,1.8
			l-7.1-45.7l12.6-1.8L220.9,235.5z"/>
		<polygon class="st0" points="50,313.5 43.1,314.5 49.3,354.8 56.3,353.8 		"/>
		<polygon class="st0" points="218.8,240.5 211.9,241.5 218.1,281.8 225.1,280.8 		"/>
	</g>
	<g>
		<path class="st1" d="M642.4,130.6c-3.7,0.2-7.6,1.6-11.9,4.2c-2.1,1.3-4.3,2.8-6.7,4.7c-0.2,0.1-0.2,0.3-0.2,0.4s0,0.3,0.2,0.4
			c3.2,3.3,6.8,6.2,10.7,8.6c2,1.2,4.5,2.6,6.9,2.1c1.9-0.4,3.5-1.9,3.8-3.7s-0.7-3.8-2.3-4.7l-3.8-2.1l4.3-0.4
			c2-0.2,4.4-1.2,5.3-3.5c0.7-2-0.2-4.5-2-5.4C645.4,130.5,643.8,130.5,642.4,130.6L642.4,130.6z"/>
		<path class="st1" d="M585,50l-2.3,3.5l-0.3-4.2c-0.1-1.8-1.6-3.5-3.4-4.1c-1.3-0.4-2.8-0.1-3.9,0.6c-0.5,0.3-0.9,0.7-1.2,1.1
			c-1.5,1.9-1.3,4.7-1,6.9c0.5,4.5,1.7,8.8,3.4,13c0.1,0.2,0.2,0.3,0.3,0.3s0.3,0.1,0.5,0c8.5-3.7,13.7-7.5,16.5-12.1
			c0.7-1.2,1.4-2.5,1.4-3.9c0-2-2-3.9-4.2-4.1C588.1,46.7,586.1,48.4,585,50L585,50z"/>
		<polygon class="st1" points="477.3,152.1 471.3,155.6 493.7,190.2 499.7,186.6 		"/>
		<polygon class="st1" points="655,102.3 649,105.9 671.5,140.5 677.4,136.9 		"/>
		<path class="st1" d="M544.1,187.2c-8.5,3.7-13.7,7.5-16.5,12.1c-0.7,1.2-1.4,2.6-1.4,3.9c0,2,2,3.9,4.2,4.1c2.5,0.3,4.5-1.4,5.6-3
			l2.3-3.5l0.3,4.2c0.1,1.8,1.6,3.6,3.4,4.1c1.8,0.5,4-0.2,5.2-1.6c1.5-1.9,1.3-4.7,1-6.9c-0.5-4.5-1.7-8.8-3.4-13
			c-0.1-0.2-0.2-0.3-0.3-0.3S544.3,187.1,544.1,187.2L544.1,187.2z"/>
		<polygon class="st1" points="450.8,111.2 444.8,114.8 467.3,149.4 473.2,145.8 		"/>
		<path class="st1" d="M478.6,123.8c5.5-0.3,11.4-3.1,18.6-8.8c0.2-0.1,0.2-0.3,0.2-0.4c0-0.1,0-0.3-0.2-0.4
			c-3.2-3.3-6.8-6.2-10.7-8.7c-2-1.2-4.5-2.6-6.9-2.1c-1.9,0.3-3.5,1.9-3.8,3.7s0.7,3.8,2.3,4.7l3.8,2.1l-4.3,0.4
			c-1,0.1-2.1,0.4-3.1,1c-1,0.6-1.8,1.4-2.2,2.5c-0.7,2,0.2,4.5,2,5.4C475.6,123.9,477.2,123.8,478.6,123.8L478.6,123.8z"/>
		<polygon class="st1" points="602,20.6 596.1,24.2 618.5,58.8 624.5,55.2 		"/>
		<path class="st1" d="M597.4,12.5l-156.8,93.9c-4.7,2.8-6.1,8.7-3.2,13.2l73.5,113.3c3.2,5,7.8,9,13.2,11.7l7,3.5
			c4.6,2.3,10-1,9.9-5.9l-0.2-7.6l-0.2-9l8.3,4.1l7,3.5c4.6,2.3,10-1,9.9-5.9l-0.2-7.6l-0.2-9l8.3,4.1l7,3.5c4.6,2.3,10-1,9.9-5.9
			l-0.2-7.6l-0.2-9l8.3,4.1l7,3.5c4.6,2.3,10-1,9.9-5.9l-0.2-7.6l-0.2-9l8.3,4.1l7,3.5c4.6,2.3,10-1,9.9-5.9l-0.2-7.6l-0.2-9
			l8.3,4.1l7,3.5c4.6,2.3,10-1,9.9-5.9l-0.2-7.6l-0.2-9l8.3,4.1l7,3.5c4.6,2.3,10-1,9.9-5.9l-0.2-7.6c-0.1-5.9-1.9-11.6-5.1-16.6
			L611.1,15.6C608.2,11.1,602.1,9.8,597.4,12.5L597.4,12.5z M530.1,228.4l-10.8,6.4l-25.4-39.2l10.8-6.4L530.1,228.4z M503.6,187.5
			l-10.8,6.4l-25.4-39.2l10.8-6.4L503.6,187.5z M477.1,146.6l-10.8,6.4l-25.4-39.2l10.8-6.4L477.1,146.6z M575.6,79.7
			c1.8-1.9,4.5-3.6,7.6-4c1.5-0.2,3.2-0.1,4.8,0.5c1.6,0.6,2.9,1.6,3.9,2.7c2,2.3,2.8,4.9,3.6,7.1c0.7,2.2,1.5,4.2,2.6,5.4
			c1,1.2,2.9,2.1,5.1,3c1.1,0.5,2.3,0.9,3.6,1.6c1.2,0.7,2.6,1.6,3.5,3c1,1.3,1.6,2.8,1.7,4.5c0.1,1.6-0.2,3.1-0.8,4.5
			c-1.2,2.8-3.5,4.7-5.8,6s-4.8,2.1-7.2,2.8c-2.4,0.7-4.8,1.3-7.2,1.8c-2.4,0.5-4.8,0.9-7.3,1.2c-2.4,0.3-4.9,0.7-7.4,0.3
			c2.5-0.1,4.7-1,7-1.7c2.3-0.7,4.6-1.5,6.9-2.3c2.3-0.8,4.5-1.6,6.7-2.5c2.2-0.9,4.4-1.8,6.1-3c1.7-1.2,3.1-2.7,3.7-4.3
			c0.6-1.6,0.3-3.2-0.6-4.4c-0.9-1.1-2.8-2-5-2.8c-2.2-0.9-5-1.9-7.2-4.3c-2-2.4-2.8-5-3.5-7.2c-0.7-2.2-1.4-4.2-2.5-5.5
			c-1.9-2.8-6.2-2.3-9.4,0.5c-1.6,1.3-3.1,3.2-4.6,4.9c-1.4,1.8-2.8,3.7-4,5.7c-2.5,3.9-4.3,8.2-5.9,12.7c0.4-4.7,1.6-9.4,3.5-13.8
			C569.7,87.7,572,83.5,575.6,79.7L575.6,79.7z M516.2,95.1c0-1.5,0.3-3.1,1.2-4.5c0.8-1.4,2.1-2.6,3.4-3.4c2.6-1.6,5.4-2,7.8-2.4
			c2.4-0.4,4.5-0.8,5.9-1.8c1.4-0.8,2.5-2.4,3.8-4.5c0.6-1,1.3-2.1,2.2-3.2c0.9-1.1,2-2.2,3.5-3c1.5-0.7,3.2-1.1,4.8-1
			c1.7,0.1,3.2,0.6,4.5,1.4c2.7,1.6,4.4,3.9,5.4,6.4s1.5,4.9,1.9,7.2c0.4,2.3,0.7,4.7,0.8,7.1c0.2,2.4,0.3,4.7,0.3,7.1
			c0,2.3,0.1,4.8-0.7,7.1c0.2-2.4-0.4-4.6-0.8-6.9c-0.4-2.3-0.9-4.6-1.4-6.9c-0.5-2.3-1.1-4.5-1.7-6.8s-1.2-4.4-2.2-6.2
			c-1-1.8-2.4-3.3-4-4.1c-1.6-0.8-3.3-0.8-4.6,0c-1.3,0.7-2.4,2.4-3.6,4.4c-1.2,2-2.6,4.6-5.4,6.3c-2.7,1.6-5.5,2-7.9,2.4
			c-2.4,0.3-4.5,0.8-6,1.6c-3.1,1.4-3.2,5.6-0.7,9c1.2,1.7,2.8,3.4,4.5,5c1.7,1.6,3.5,3.1,5.3,4.5c3.7,2.9,7.9,5.3,12.3,7.3
			c-4.8-1-9.5-2.8-13.8-5.2c-4.3-2.5-8.3-5.3-11.7-9.3C517.6,100.8,516.2,98.1,516.2,95.1L516.2,95.1z M511.6,118
			c5.2-1.5,10.1-1.6,15.1-1.4c5,0.3,9.9,1.3,14.5,3.1c-4.9-0.7-9.7-0.9-14.5-0.5c-2.4,0.2-4.7,0.4-7,0.9c-2.3,0.5-4.7,0.9-6.6,1.8
			c-4,1.5-6.4,5-4.7,7.9c0.8,1.6,2.3,3.1,4.1,4.6c1.8,1.6,3.9,3.4,5.2,6.2c1.3,2.9,1,5.8,0.8,8.1c-0.2,2.3-0.3,4.3,0.4,5.6
			c0.7,1.3,2,2.3,3.8,2.5c1.8,0.1,3.8-0.3,5.7-1.3c1.9-1,3.7-2.4,5.5-3.9s3.6-3.1,5.3-4.7c1.8-1.6,3.5-3.3,5.2-4.9
			c1.7-1.7,3.5-3.3,4.7-5.3c-0.7,2.3-2.2,4.3-3.5,6.2c-1.4,2-2.8,3.9-4.4,5.7c-1.5,1.9-3.2,3.6-4.8,5.4c-1.7,1.8-3.5,3.5-5.8,5
			c-2.3,1.5-5.1,2.5-8.2,2.4c-1.5-0.1-3.1-0.5-4.6-1.3c-1.5-0.8-2.6-2-3.4-3.4c-0.8-1.4-1.1-3-1.2-4.4c-0.1-1.4,0-2.6,0.1-3.8
			c0.2-2.3,0.2-4.3-0.5-5.7c-0.7-1.5-2.2-3-3.9-4.6c-1.7-1.6-3.8-3.5-5.1-6.2c-0.6-1.4-1-3-0.8-4.6c0.2-1.6,0.8-3.1,1.7-4.3
			C506.3,120.3,509.1,118.8,511.6,118L511.6,118z M469.7,116.9c0.8-2.1,2.5-3.8,4.9-4.7c-1.3-1.6-1.8-3.7-1.5-5.7
			c0.5-2.9,3-5.4,6.1-6c3.4-0.6,6.6,1,9,2.5c4.1,2.6,7.9,5.6,11.2,9.1c0.6,0.7,1,1.6,0.9,2.4c-0.1,0.9-0.5,1.8-1.2,2.3
			c-2.4,1.9-4.8,3.6-7,4.9c-4.8,2.8-9.1,4.3-13.2,4.6c-1.8,0.1-3.9,0.1-5.7-0.8C470,124.1,468.5,120.2,469.7,116.9L469.7,116.9z
			 M551.1,200.2c0.3,2.7,0.5,6.2-1.6,8.9c-0.5,0.7-1.2,1.3-2,1.8c-1.8,1.1-4.1,1.4-6.2,0.9c-2-0.6-3.7-2-4.6-3.8
			c-1.9,1.6-4.2,2.4-6.5,2.1c-3.6-0.4-6.6-3.5-6.7-6.8c0-2,0.9-3.8,1.8-5.3c3-5.1,8.7-9.3,17.8-13.3c0.8-0.4,1.8-0.4,2.7,0
			c0.9,0.3,1.6,1,1.9,1.9C549.3,190.9,550.5,195.5,551.1,200.2L551.1,200.2z M573.4,147.8c1.2,2.1,2.3,4.2,3.3,6.4
			c1,2.2,1.9,4.4,2.8,6.6c0.9,2.2,1.7,4.6,2,7.2c0.3,2.6,0,5.5-1.6,8.1c-0.8,1.3-1.9,2.5-3.3,3.3c-1.4,0.9-3,1.3-4.8,1.3
			s-3.3-0.4-4.6-1c-1.3-0.6-2.5-1.2-3.5-1.8c-2.1-1.2-3.9-2.1-5.5-2.2c-1.7-0.1-3.8,0.4-6.1,1.2c-2.3,0.7-5,1.6-8.1,1.5
			c-1.5-0.1-3.2-0.5-4.6-1.4c-1.4-0.9-2.5-2.1-3.3-3.4c-1.5-2.6-1.7-5.7-1.2-8.2c1-5.1,3.2-9.4,5.7-13.6c2.6-4.1,5.8-7.9,9.5-10.9
			c-2.8,3.9-5.3,7.9-7.1,12.1c-0.9,2.1-1.8,4.3-2.4,6.4c-0.6,2.2-1.3,4.4-1.4,6.5c-0.4,4.1,1.7,7.8,5.2,7.6c1.8,0,3.9-0.5,6.1-1.4
			c2.3-0.8,5-1.7,8.2-1.6c3.3,0.2,5.8,1.9,7.9,3c2.1,1.3,3.9,2.2,5.4,2.2c1.5,0.1,3-0.7,4-2.1c1-1.4,1.5-3.4,1.4-5.4
			c0-2.1-0.6-4.2-1.1-6.5s-1.2-4.5-1.9-6.7c-0.7-2.2-1.4-4.4-2.2-6.7c-0.8-2.2-1.4-4.5-2.8-6.4C571,143.6,572.2,145.8,573.4,147.8
			L573.4,147.8z M565,130.9c-4.1,2.4-9.5,1.3-12-2.7c-2.5-3.9-1.3-9.1,2.8-11.6c4.1-2.4,9.5-1.3,12,2.7
			C570.3,123.3,569,128.4,565,130.9z M612.7,143c-1.8,1.5-3.4,3-4.1,4.5c-0.8,1.4-0.8,3.4-0.7,5.7c0,1.2,0.1,2.4-0.1,3.8
			c-0.2,1.4-0.5,2.9-1.4,4.3c-0.9,1.4-2.1,2.5-3.6,3.3c-1.5,0.8-3.1,1.1-4.6,1.1c-3.1,0-5.9-1.1-8.1-2.7c-2.2-1.6-4-3.4-5.6-5.2
			c-1.6-1.8-3.1-3.7-4.6-5.6c-1.4-1.9-2.8-3.9-4.1-5.9c-1.3-2-2.7-4-3.3-6.4c1.1,2.1,2.9,3.7,4.5,5.5c1.6,1.7,3.3,3.5,5,5.1
			c1.7,1.7,3.4,3.3,5.1,4.9c1.8,1.6,3.5,3.1,5.3,4.1c1.8,1.1,3.8,1.6,5.6,1.5c1.8-0.1,3.2-1,3.9-2.3c0.7-1.2,0.8-3.2,0.6-5.6
			c-0.1-2.3-0.3-5.2,1.2-8.1c1.4-2.8,3.6-4.5,5.5-6c1.8-1.5,3.4-2.9,4.3-4.5c1.9-2.8-0.4-6.4-4.3-8.1c-1.9-0.9-4.3-1.4-6.6-2
			c-2.3-0.5-4.6-0.9-7-1.2c-4.7-0.6-9.6-0.5-14.5,0c4.6-1.6,9.6-2.4,14.6-2.5c5,0,10,0.3,15.1,2c2.5,0.9,5.2,2.5,6.8,5
			c0.8,1.3,1.4,2.8,1.5,4.4c0.1,1.6-0.3,3.2-1,4.6C616.6,139.6,614.5,141.4,612.7,143L612.7,143z M651.3,137.4
			c-0.8,2.1-2.5,3.8-4.9,4.7c1.3,1.6,1.8,3.7,1.5,5.7c-0.4,2.1-1.7,3.9-3.5,5c-0.8,0.5-1.6,0.8-2.5,1c-3.4,0.6-6.6-1-9-2.5
			c-4.1-2.6-7.9-5.6-11.2-9.1c-0.6-0.7-1-1.6-0.9-2.4c0.1-0.9,0.5-1.8,1.2-2.3c7.7-6.1,14.1-9.1,20.2-9.5c1.8-0.1,3.9-0.1,5.7,0.8
			C651,130.2,652.5,134.1,651.3,137.4L651.3,137.4z M597.6,51.1c0,2-0.9,3.8-1.8,5.3c-2.1,3.5-5.4,6.6-10.1,9.4
			c-2.2,1.3-4.8,2.6-7.6,3.9c-0.8,0.4-1.8,0.4-2.7,0c-0.9-0.3-1.6-1-1.9-1.8c-1.8-4.4-3-9-3.5-13.7c-0.3-2.7-0.5-6.2,1.6-8.9
			c1.9-2.4,5.3-3.5,8.3-2.6c2,0.6,3.7,2,4.6,3.8c1.8-1.6,4.2-2.4,6.5-2.1C594.5,44.7,597.5,47.7,597.6,51.1L597.6,51.1z
			 M681.3,137.8l-10.8,6.5L645.1,105l10.8-6.5L681.3,137.8z M654.8,96.9l-10.8,6.5l-25.4-39.2l10.8-6.5L654.8,96.9z M628.4,56.1
			l-10.8,6.5l-25.4-39.2l10.8-6.5L628.4,56.1z"/>
		<polygon class="st1" points="503.8,192.9 497.8,196.5 520.2,231 526.2,227.5 		"/>
		<polygon class="st1" points="628.5,61.5 622.6,65.1 645,99.6 650.9,96.1 		"/>
	</g>
	<g>
		<polygon class="st2" points="306.9,177.2 303.3,178.4 339.5,287.1 343.2,286 		"/>
		<path class="st2" d="M409.5,202.8c-0.9,0.3-1.3,1.1-1,2c0.3,0.8,1.2,1.3,2,1c0.9-0.3,1.3-1.1,1-2
			C411.3,202.9,410.4,202.5,409.5,202.8z"/>
		<path class="st2" d="M362.8,257.5c-0.9,0.3-1.3,1.1-1,2c0.3,0.8,1.2,1.3,2,1c0.9-0.3,1.3-1.1,1-2
			C364.6,257.7,363.7,257.2,362.8,257.5z"/>
		<path class="st2" d="M388.1,138.5c0.9-0.3,1.3-1.1,1-2c-0.3-0.8-1.2-1.3-2-1c-0.9,0.3-1.3,1.1-1,2
			C386.3,138.3,387.2,138.8,388.1,138.5z"/>
		<path class="st2" d="M318.4,305c-0.9,0.3-1.3,1.1-1,2c0.3,0.8,1.2,1.3,2,1c0.9-0.3,1.3-1.1,1-2C320.2,305.2,319.2,304.7,318.4,305
			z"/>
		<polygon class="st2" points="362.9,160 359.3,161.1 395.5,269.8 399.2,268.7 		"/>
		<polygon class="st2" points="250.9,194.5 247.3,195.6 283.5,304.3 287.2,303.2 		"/>
		<path class="st2" d="M295.9,237.8c-0.9,0.3-1.3,1.1-1,2c0.3,0.8,1.2,1.3,2,1c0.9-0.3,1.3-1.1,1-2
			C297.7,237.9,296.8,237.5,295.9,237.8z"/>
		<polygon class="st2" points="418.9,142.7 415.3,143.8 451.5,252.6 455.2,251.4 		"/>
		<path class="st2" d="M428.2,129.6c-1.8-5.3-7.6-8.2-13.1-6.5l-21.3,6.6c-0.9,0.8-1.9,1.5-3.2,2.1c0-0.4-0.1-0.8-0.1-1.1l-15.3,4.7
			c0.6,0.1,1.2,0.1,1.8,0.3c1.4,0.3,2.8,0.7,4.2,1.6c-1.3,1-2.7,1.5-4,2c-1.4,0.4-2.8,0.6-4.1,0.7s-2.8,0-4.2-0.3
			c-1.1-0.2-2.3-0.6-3.4-1.2l-85.3,26.3c-0.9,0.8-1.9,1.5-3.2,2.1c0-0.4-0.1-0.8-0.1-1.1l-15.3,4.7c0.6,0.1,1.2,0.1,1.8,0.3
			c1.4,0.3,2.8,0.7,4.2,1.6c-1.3,1-2.7,1.6-4.1,2c-1.4,0.4-2.8,0.6-4.1,0.7c-1.4,0.1-2.8,0-4.2-0.3c-1.1-0.2-2.3-0.6-3.4-1.2
			l-11.9,3.7c-5.5,1.7-8.5,7.3-6.7,12.6l43.9,131.7c0.1,1.2,0.4,2.4,0.7,3.6c2.9,8.7,12.6,13.5,21.7,10.8
			c7.9-2.4,12.6-9.7,11.9-17.3c-0.1,0.1-0.2,0.2-0.3,0.3c-0.9,1-1.9,1.9-3,2.7c-1.2,0.8-2.5,1.5-4.1,1.9c0.1-1.6,0.6-3,1.2-4.2
			c0.6-1.2,1.4-2.4,2.3-3.4c0.9-1,1.9-1.9,3.1-2.7c1.2-0.8,2.4-1.5,4.1-1.9c-0.1,1.6-0.6,3-1.2,4.2c-0.5,1-1.1,1.8-1.7,2.6
			c0,0,0,0,0,0c1.8,3.1,4.5,5.4,7.7,6.9c-0.1-0.1-0.1-0.2-0.2-0.3c-0.5-1.3-0.9-2.6-1.1-3.9c-0.2-1.3-0.2-2.6,0-4
			c0.2-1.4,0.5-2.7,1.3-4.2c1.2,1.2,1.9,2.4,2.4,3.7s0.9,2.6,1.1,3.9c0.2,1.3,0.2,2.6,0,4c-0.1,0.6-0.2,1.2-0.4,1.9
			c3,0.7,6.2,0.7,9.4-0.3c8.2-2.5,13.1-10.4,11.8-18.4c3.8,7.2,12.5,10.9,20.7,8.3c2.1-0.6,3.9-1.6,5.5-2.9c0.6-0.5,1.1-1,1.6-1.5
			c3.6-3.6,5.4-8.8,4.6-14c3.8,7.2,12.5,10.9,20.7,8.3c8.2-2.5,13.1-10.4,11.8-18.4c3.8,7.2,12.5,10.9,20.7,8.3
			c2-0.6,3.9-1.6,5.5-2.8c-0.9-1-1.5-2.1-2-3.3c-0.5-1.3-0.9-2.6-1-3.9c-0.2-1.3-0.2-2.6,0-4c0.2-1.4,0.5-2.7,1.3-4.2
			c1.2,1.2,1.8,2.4,2.4,3.7c0.5,1.3,0.9,2.6,1.1,3.9c0.2,1.3,0.2,2.6,0,4c-0.1,1-0.3,1.9-0.7,2.9h0c3.4-3,5.4-7.3,5.5-11.8l0,0
			c-0.6-0.5-1.1-1-1.6-1.6c-0.9-1.1-1.8-2.2-2.3-3.8c1.7,0,3.1,0.3,4.5,0.8c1.3,0.5,2.6,1.1,3.7,1.9c1.1,0.8,2.2,1.6,3.1,2.7
			c0.9,1.1,1.8,2.2,2.3,3.8c-1.7,0-3-0.3-4.4-0.8c4.3,2.9,9.9,4,15.3,2.3c9.1-2.8,14.1-12.1,11.2-20.9c-0.3-0.8-0.6-1.5-0.9-2.2
			c0-0.3,0-0.6-0.1-1L428.2,129.6L428.2,129.6z M344.4,182.1c0.4-1.3,0.9-2.6,1.6-3.7s1.5-2.2,2.5-3.2c1-1,2.1-1.9,3.7-2.6
			c0.2,1.6-0.1,3-0.4,4.4c-0.4,1.3-0.9,2.6-1.6,3.7s-1.5,2.2-2.5,3.2c-1,1-2.1,1.9-3.7,2.6C343.8,184.9,344.1,183.5,344.4,182.1
			L344.4,182.1z M355.2,203.5c-1.3-0.5-2.6-1.1-3.7-1.9s-2.2-1.6-3.1-2.7c-0.9-1.1-1.8-2.2-2.3-3.8c1.7,0,3.1,0.3,4.5,0.8
			c1.3,0.5,2.6,1.1,3.7,1.9c1.1,0.8,2.2,1.6,3.1,2.7c0.9,1.1,1.8,2.2,2.3,3.8C357.9,204.3,356.5,203.9,355.2,203.5z M374.7,239.9
			c0.2,1.6-0.1,3-0.4,4.4c-0.4,1.3-0.9,2.6-1.6,3.7s-1.5,2.2-2.5,3.2c-1,1-2.1,1.9-3.7,2.6c-0.2-1.6,0.1-3,0.4-4.4
			c0.4-1.3,0.9-2.6,1.6-3.7s1.5-2.2,2.5-3.2C372,241.5,373.1,240.6,374.7,239.9L374.7,239.9z M345.1,190.4c0.8,2.3-0.5,4.7-2.9,5.4
			s-4.9-0.5-5.6-2.8s0.5-4.7,2.9-5.4S344.4,188.2,345.1,190.4z M347.2,243.4c1.7,0.3,3,0.9,4.3,1.6c1.2,0.7,2.3,1.5,3.3,2.5
			c1,0.9,1.8,2,2.6,3.2c0.7,1.2,1.3,2.5,1.6,4.1c-1.7-0.3-3-0.9-4.3-1.6c-1.2-0.7-2.3-1.5-3.3-2.5s-1.8-2-2.6-3.2
			C348.1,246.3,347.4,245.1,347.2,243.4L347.2,243.4z M333.4,203.9c-0.9,1-1.9,1.9-3,2.7c-1.2,0.8-2.5,1.5-4.1,1.9
			c0.1-1.6,0.6-3,1.2-4.2c0.6-1.2,1.4-2.4,2.3-3.4c0.9-1,1.9-1.9,3.1-2.7c1.2-0.8,2.4-1.5,4.1-1.9c-0.1,1.6-0.6,2.9-1.2,4.2
			C335,201.8,334.2,202.9,333.4,203.9L333.4,203.9z M343.9,213.5c-1.2-1.2-1.9-2.4-2.4-3.7c-0.5-1.3-0.9-2.6-1-3.9
			c-0.2-1.3-0.2-2.6,0-4c0.2-1.4,0.5-2.7,1.3-4.2c1.2,1.2,1.8,2.4,2.4,3.7c0.5,1.3,0.9,2.6,1.1,3.9c0.2,1.3,0.2,2.6,0,4
			C345,210.7,344.7,212.1,343.9,213.5L343.9,213.5z M355.8,242.4c-0.1-1.4,0-2.8,0.5-4.3c1.4,1,2.3,2.1,3,3.2
			c0.8,1.2,1.3,2.4,1.8,3.6c0.4,1.3,0.7,2.6,0.8,3.9c0.1,1.4,0,2.8-0.5,4.3c-1.4-1-2.3-2.1-3-3.2c-0.8-1.2-1.3-2.4-1.8-3.6
			C356.2,245.1,355.9,243.8,355.8,242.4L355.8,242.4z M333.4,175.2c-0.1-1.4,0-2.8,0.5-4.3c1.4,1,2.3,2.1,3,3.2
			c0.8,1.2,1.3,2.4,1.8,3.6c0.4,1.3,0.7,2.6,0.8,3.9c0.1,1.4,0,2.8-0.5,4.3c-1.4-1-2.3-2.1-3-3.2c-0.8-1.2-1.3-2.4-1.8-3.6
			C333.7,177.9,333.5,176.5,333.4,175.2L333.4,175.2z M324.7,176.2c1.7,0.3,3,0.9,4.3,1.5c1.2,0.7,2.3,1.5,3.3,2.5
			c1,0.9,1.8,2,2.6,3.2c0.7,1.2,1.3,2.5,1.6,4.1c-1.7-0.3-3-0.9-4.3-1.6c-1.2-0.7-2.3-1.5-3.3-2.5s-1.8-2-2.6-3.2
			C325.6,179.1,325,177.8,324.7,176.2L324.7,176.2z M322.1,190.7c1.4-0.4,2.7-0.6,4.1-0.7c1.4-0.1,2.8,0,4.2,0.3
			c1.4,0.3,2.8,0.7,4.2,1.6c-1.3,1-2.7,1.5-4.1,2c-1.4,0.4-2.7,0.6-4.1,0.7s-2.8,0-4.2-0.3c-1.4-0.3-2.8-0.7-4.2-1.6
			C319.4,191.7,320.7,191.2,322.1,190.7L322.1,190.7z M310.7,251c-1.3-0.5-2.6-1.1-3.7-1.9s-2.2-1.6-3.1-2.7
			c-0.9-1.1-1.8-2.2-2.3-3.8c1.7,0,3.1,0.3,4.5,0.8c1.3,0.5,2.6,1.1,3.7,1.9c1.1,0.8,2.2,1.6,3.1,2.7c0.9,1.1,1.8,2.2,2.3,3.8
			C313.5,251.8,312.1,251.5,310.7,251z M330.2,287.4c0.2,1.6-0.1,3-0.4,4.4c-0.4,1.3-0.9,2.5-1.6,3.7c-0.7,1.1-1.5,2.2-2.5,3.2
			c-1,1-2.1,1.9-3.7,2.6c-0.2-1.6,0.1-3,0.4-4.4c0.4-1.3,0.9-2.5,1.6-3.7c0.7-1.1,1.5-2.2,2.5-3.2
			C327.5,289,328.7,288.1,330.2,287.4L330.2,287.4z M287.7,233.4c-1.2-0.7-2.3-1.5-3.3-2.5s-1.8-2-2.6-3.2c-0.7-1.2-1.3-2.5-1.6-4.1
			c1.7,0.3,3,0.9,4.3,1.5c1.2,0.7,2.3,1.5,3.3,2.5c1,0.9,1.8,2,2.6,3.2c0.7,1.2,1.3,2.5,1.6,4.1C290.3,234.7,289,234.1,287.7,233.4
			L287.7,233.4z M292.4,243.9c-0.1,1.6-0.6,2.9-1.2,4.2c-0.6,1.2-1.4,2.4-2.3,3.4c-0.9,1-1.9,1.9-3,2.7c-1.2,0.8-2.5,1.5-4.1,1.9
			c0.1-1.6,0.6-3,1.2-4.2c0.6-1.2,1.4-2.4,2.3-3.4c0.9-1,1.9-1.9,3.1-2.7C289.5,245,290.7,244.3,292.4,243.9L292.4,243.9z
			 M296,253.4c-0.2-1.3-0.2-2.6,0-4c0.2-1.4,0.5-2.7,1.3-4.2c1.2,1.2,1.8,2.4,2.4,3.7c0.5,1.3,0.9,2.6,1.1,3.9c0.2,1.3,0.2,2.6,0,4
			c-0.2,1.4-0.5,2.7-1.3,4.2c-1.2-1.2-1.9-2.4-2.4-3.7C296.5,256,296.2,254.7,296,253.4L296,253.4z M311.4,289.9
			c-0.1-1.4,0-2.8,0.5-4.3c1.4,1,2.3,2.1,3,3.2c0.8,1.2,1.3,2.4,1.8,3.6s0.7,2.6,0.8,3.9c0.1,1.4,0,2.8-0.5,4.3
			c-1.4-1-2.3-2.1-3-3.2c-0.8-1.2-1.3-2.4-1.8-3.6C311.7,292.6,311.5,291.3,311.4,289.9L311.4,289.9z M297.8,243.3
			c-2.4,0.7-4.9-0.5-5.6-2.8s0.5-4.7,2.9-5.4c2.4-0.7,4.9,0.5,5.6,2.8S300.1,242.6,297.8,243.3z M289.7,226.6
			c-0.4-1.3-0.7-2.6-0.8-3.9c-0.1-1.4,0-2.8,0.5-4.3c1.4,1,2.3,2.1,3,3.2c0.8,1.2,1.3,2.4,1.8,3.6s0.7,2.6,0.8,3.9
			c0.1,1.4,0,2.8-0.5,4.3c-1.4-1-2.3-2.1-3-3.2C290.7,229.1,290.1,227.9,289.7,226.6L289.7,226.6z M288.3,183.7
			c-1.3-0.5-2.6-1.1-3.7-1.9s-2.2-1.6-3.1-2.7c-0.9-1.1-1.8-2.2-2.3-3.8c1.7,0,3.1,0.3,4.5,0.8c1.3,0.5,2.6,1.1,3.7,1.9
			c1.1,0.8,2.2,1.6,3.1,2.7c0.9,1.1,1.8,2.2,2.3,3.8C291,184.6,289.6,184.2,288.3,183.7z M307.8,220.2c0.2,1.6-0.1,3-0.4,4.4
			c-0.4,1.3-0.9,2.6-1.6,3.7s-1.5,2.2-2.5,3.2c-1,1-2.1,1.9-3.7,2.6c-0.2-1.6,0.1-3,0.4-4.4c0.4-1.3,0.9-2.6,1.6-3.7
			s1.5-2.2,2.5-3.2C305.1,221.8,306.2,220.9,307.8,220.2L307.8,220.2z M272.6,167.9c2.4-0.7,4.9,0.5,5.6,2.8s-0.5,4.7-2.9,5.4
			c-2.4,0.7-4.9-0.5-5.6-2.8S270.3,168.6,272.6,167.9z M273.5,186.2c-0.2-1.3-0.2-2.6,0-4c0.2-1.4,0.5-2.7,1.3-4.2
			c1.2,1.2,1.8,2.4,2.4,3.7c0.5,1.3,0.9,2.6,1.1,3.9c0.2,1.3,0.2,2.6,0,4c-0.2,1.4-0.5,2.7-1.3,4.2c-1.2-1.2-1.9-2.4-2.4-3.7
			C274.1,188.8,273.7,187.5,273.5,186.2L273.5,186.2z M260.5,184.6c0.6-1.2,1.4-2.4,2.3-3.4c0.9-1,1.9-1.9,3.1-2.7
			c1.2-0.8,2.4-1.5,4.1-1.9c-0.1,1.6-0.6,2.9-1.2,4.2c-0.6,1.2-1.4,2.4-2.3,3.4c-0.9,1-1.9,1.9-3,2.7c-1.2,0.8-2.5,1.5-4.1,1.9
			C259.4,187.2,259.9,185.9,260.5,184.6L260.5,184.6z M277.6,238.2c1.4-0.4,2.7-0.6,4.1-0.7c1.4-0.1,2.8,0,4.2,0.3
			c1.4,0.3,2.8,0.7,4.2,1.6c-1.3,1-2.7,1.5-4.1,2c-1.4,0.4-2.7,0.6-4.1,0.7s-2.8,0-4.2-0.3c-1.4-0.3-2.8-0.7-4.2-1.6
			C274.9,239.2,276.3,238.6,277.6,238.2L277.6,238.2z M290.7,305l-9,2.8l-38-113.9l9-2.8L290.7,305z M308.5,308.7
			c-1.4,0.4-2.7,0.6-4.1,0.7c-1.4,0.1-2.8,0-4.2-0.3c-1.4-0.3-2.8-0.7-4.2-1.6c1.3-1,2.7-1.5,4.1-2c1.4-0.4,2.7-0.6,4.1-0.7
			c1.4-0.1,2.8,0,4.2,0.3c1.4,0.3,2.8,0.7,4.2,1.6C311.2,307.8,309.9,308.3,308.5,308.7L308.5,308.7z M310.2,300.7
			c-1.2-0.7-2.3-1.5-3.3-2.5s-1.8-2-2.6-3.2c-0.7-1.2-1.3-2.5-1.6-4.1c1.7,0.3,3,0.9,4.3,1.5c1.2,0.7,2.3,1.5,3.3,2.5
			c1,0.9,1.8,2,2.6,3.2c0.7,1.2,1.3,2.5,1.6,4.1C312.7,301.9,311.4,301.3,310.2,300.7L310.2,300.7z M320.2,310.6
			c-2.4,0.7-4.9-0.5-5.6-2.8s0.5-4.7,2.9-5.4s4.9,0.5,5.6,2.8S322.6,309.8,320.2,310.6z M333.1,318.2c-1.3-0.5-2.6-1.1-3.7-1.9
			c-1.1-0.8-2.2-1.6-3.1-2.7c-0.9-1.1-1.8-2.2-2.3-3.8c1.7,0,3.1,0.3,4.5,0.8c1.3,0.5,2.6,1.1,3.7,1.9c1.1,0.8,2.2,1.6,3.1,2.7
			c0.9,1.1,1.8,2.2,2.3,3.8C335.9,319,334.5,318.7,333.1,318.2L333.1,318.2z M337.5,304.3c-1.3,0.6-2.6,1.1-3.9,1.4
			s-2.7,0.4-4.2,0.4c-1.4-0.1-2.9-0.2-4.5-0.9c1.1-1.2,2.4-2,3.6-2.6c1.3-0.6,2.6-1.1,3.9-1.4s2.7-0.4,4.1-0.4
			c1.4,0.1,2.9,0.2,4.5,0.9C340,302.9,338.7,303.6,337.5,304.3L337.5,304.3z M315.1,237c-1.3,0.6-2.6,1.1-3.9,1.4
			c-1.4,0.3-2.7,0.4-4.2,0.4c-1.4-0.1-2.9-0.2-4.5-0.9c1.1-1.2,2.4-2,3.6-2.6c1.3-0.6,2.6-1.1,3.9-1.4c1.4-0.3,2.7-0.4,4.1-0.4
			c1.4,0.1,2.9,0.2,4.5,0.9C317.6,235.6,316.3,236.4,315.1,237L315.1,237z M292.6,169.8c-1.3,0.6-2.6,1.1-3.9,1.4
			c-1.4,0.3-2.7,0.4-4.2,0.4c-1.4-0.1-2.9-0.2-4.5-0.9c1.1-1.2,2.4-2,3.6-2.6c1.3-0.6,2.6-1.1,3.9-1.4c1.4-0.3,2.7-0.4,4.1-0.4
			c1.4,0.1,2.9,0.2,4.5,0.9C295.1,168.4,293.9,169.1,292.6,169.8L292.6,169.8z M346.7,287.7l-9,2.8l-38-113.9l9-2.8L346.7,287.7z
			 M340.5,259.9c1.3-1,2.7-1.5,4.1-2c1.4-0.4,2.7-0.6,4.1-0.7c1.4-0.1,2.8,0,4.2,0.3c1.4,0.3,2.8,0.7,4.2,1.6c-1.3,1-2.7,1.5-4.1,2
			c-1.4,0.4-2.7,0.6-4.1,0.7c-1.4,0.1-2.8,0-4.2-0.3C343.3,261.3,341.9,260.9,340.5,259.9L340.5,259.9z M358,267.8
			c-0.6,1.2-1.4,2.4-2.3,3.4c-0.9,1-1.9,1.9-3,2.7c-1.2,0.8-2.5,1.5-4.1,1.9c0.1-1.6,0.6-3,1.2-4.2c0.6-1.2,1.4-2.4,2.3-3.4
			c0.9-1,1.9-1.9,3.1-2.7c1.2-0.8,2.4-1.5,4.1-1.9C359.1,265.2,358.6,266.5,358,267.8L358,267.8z M367.6,272.5c0.2,1.3,0.2,2.6,0,4
			c-0.2,1.4-0.5,2.7-1.3,4.2c-1.2-1.2-1.9-2.4-2.4-3.7c-0.5-1.3-0.9-2.6-1-3.9c-0.2-1.3-0.2-2.6,0-4c0.2-1.4,0.5-2.7,1.3-4.2
			c1.2,1.2,1.8,2.4,2.4,3.7C367,269.9,367.4,271.2,367.6,272.5L367.6,272.5z M364.6,263.1c-2.4,0.7-4.9-0.5-5.6-2.8s0.5-4.7,2.9-5.4
			s4.9,0.5,5.6,2.8C368.3,259.9,367,262.3,364.6,263.1z M377.6,270.7c-1.3-0.5-2.6-1.1-3.7-1.9s-2.2-1.6-3.1-2.7
			c-0.9-1.1-1.8-2.2-2.3-3.8c1.7,0,3.1,0.3,4.5,0.8c1.3,0.5,2.6,1.1,3.7,1.9c1.1,0.8,2.2,1.6,3.1,2.7c0.9,1.1,1.8,2.2,2.3,3.8
			C380.3,271.5,378.9,271.2,377.6,270.7z M381.9,256.8c-1.3,0.6-2.6,1.1-3.9,1.4s-2.7,0.4-4.2,0.4c-1.4-0.1-2.9-0.2-4.5-0.9
			c1.1-1.2,2.4-2,3.6-2.6c1.3-0.6,2.6-1.1,3.9-1.4s2.7-0.4,4.1-0.4c1.4,0.1,2.9,0.2,4.5,0.9C384.4,255.4,383.2,256.1,381.9,256.8
			L381.9,256.8z M359.5,189.5c-1.3,0.6-2.6,1.1-3.9,1.4c-1.4,0.3-2.7,0.4-4.2,0.4c-1.4-0.1-2.9-0.2-4.5-0.9c1.1-1.2,2.4-2,3.6-2.6
			c1.3-0.6,2.6-1.1,3.9-1.4s2.7-0.4,4.1-0.4c1.4,0.1,2.9,0.2,4.5,0.9C362,188.1,360.7,188.9,359.5,189.5L359.5,189.5z M402.7,270.5
			l-9,2.8l-38-113.9l9-2.8L402.7,270.5z M397.3,133c1.3-0.6,2.6-1.1,3.9-1.4c1.4-0.3,2.7-0.4,4.1-0.4c1.4,0.1,2.9,0.2,4.5,0.9
			c-1.1,1.2-2.4,2-3.6,2.6c-1.3,0.6-2.6,1.1-3.9,1.4c-1.4,0.3-2.7,0.4-4.2,0.4c-1.4-0.1-2.9-0.2-4.5-0.9
			C394.8,134.4,396,133.7,397.3,133L397.3,133z M401.3,198.4c-1.2-0.7-2.3-1.5-3.3-2.5s-1.8-2-2.6-3.2c-0.7-1.2-1.3-2.5-1.6-4.1
			c1.7,0.3,3,0.9,4.3,1.5c1.2,0.7,2.3,1.5,3.3,2.5c1,0.9,1.8,2,2.6,3.2c0.7,1.2,1.3,2.5,1.6,4.1
			C403.9,199.7,402.6,199.1,401.3,198.4L401.3,198.4z M406,208.9c-0.1,1.6-0.6,2.9-1.2,4.2c-0.6,1.2-1.4,2.4-2.3,3.4
			c-0.9,1-1.9,1.9-3,2.7c-1.2,0.8-2.5,1.5-4.1,1.9c0.1-1.6,0.6-3,1.2-4.2c0.6-1.2,1.4-2.4,2.3-3.4c0.9-1,1.9-1.9,3.1-2.7
			C403,210,404.3,209.3,406,208.9L406,208.9z M409.6,218.4c-0.2-1.3-0.2-2.6,0-4c0.2-1.4,0.5-2.7,1.3-4.2c1.2,1.2,1.8,2.4,2.4,3.7
			c0.5,1.3,0.9,2.6,1.1,3.9c0.2,1.3,0.2,2.6,0,4c-0.2,1.4-0.5,2.7-1.3,4.2c-1.2-1.2-1.9-2.4-2.4-3.7
			C410.1,221,409.7,219.7,409.6,218.4L409.6,218.4z M424.9,254.9c-0.1-1.4,0-2.8,0.5-4.3c1.4,1,2.3,2.1,3,3.2
			c0.8,1.2,1.3,2.4,1.8,3.6s0.7,2.6,0.8,3.9c0.1,1.4,0,2.8-0.5,4.3c-1.4-1-2.3-2.1-3-3.2c-0.8-1.2-1.3-2.4-1.8-3.6
			C425.3,257.6,425,256.3,424.9,254.9L424.9,254.9z M411.4,208.3c-2.4,0.7-4.9-0.5-5.6-2.8s0.5-4.7,2.9-5.4c2.4-0.7,4.9,0.5,5.6,2.8
			S413.7,207.6,411.4,208.3z M403.3,191.6c-0.4-1.3-0.7-2.6-0.8-3.9c-0.1-1.4,0-2.8,0.5-4.3c1.4,1,2.3,2.1,3,3.2
			c0.8,1.2,1.3,2.4,1.8,3.6s0.7,2.6,0.8,3.9c0.1,1.4,0,2.8-0.5,4.3c-1.4-1-2.3-2.1-3-3.2C404.3,194.1,403.7,192.9,403.3,191.6
			L403.3,191.6z M419.6,208.5c1.3,0.5,2.6,1.1,3.7,1.9c1.1,0.8,2.2,1.6,3.1,2.7c0.9,1.1,1.8,2.2,2.3,3.8c-1.7,0-3.1-0.3-4.5-0.8
			c-1.3-0.5-2.6-1.1-3.7-1.9s-2.2-1.6-3.1-2.7c-0.9-1.1-1.8-2.2-2.3-3.8C416.8,207.7,418.3,208,419.6,208.5z M421.3,185.2
			c0.2,1.6-0.1,3-0.4,4.4c-0.4,1.3-0.9,2.6-1.6,3.7s-1.5,2.2-2.5,3.2c-1,1-2.1,1.9-3.7,2.6c-0.2-1.6,0.1-3,0.4-4.4
			c0.4-1.3,0.9-2.6,1.6-3.7s1.5-2.2,2.5-3.2C418.7,186.8,419.8,185.9,421.3,185.2L421.3,185.2z M397.2,141.2
			c1.3,0.5,2.6,1.1,3.7,1.9c1.1,0.8,2.2,1.6,3.1,2.7c0.9,1.1,1.8,2.2,2.3,3.8c-1.7,0-3.1-0.3-4.5-0.8c-1.3-0.5-2.6-1.1-3.7-1.9
			s-2.2-1.6-3.1-2.7c-0.9-1.1-1.8-2.2-2.3-3.8C394.4,140.4,395.8,140.8,397.2,141.2z M386.2,132.9c2.4-0.7,4.9,0.5,5.6,2.8
			s-0.5,4.7-2.9,5.4c-2.4,0.7-4.9-0.5-5.6-2.8S383.8,133.6,386.2,132.9z M387.1,151.2c-0.2-1.3-0.2-2.6,0-4c0.2-1.4,0.5-2.7,1.3-4.2
			c1.2,1.2,1.8,2.4,2.4,3.7c0.5,1.3,0.9,2.6,1.1,3.9c0.2,1.3,0.2,2.6,0,4c-0.2,1.4-0.5,2.7-1.3,4.2c-1.2-1.2-1.9-2.4-2.4-3.7
			C387.6,153.8,387.3,152.5,387.1,151.2L387.1,151.2z M374.1,149.6c0.6-1.2,1.4-2.4,2.3-3.4c0.9-1,1.9-1.9,3.1-2.7
			c1.2-0.8,2.4-1.5,4.1-1.9c-0.1,1.6-0.6,2.9-1.2,4.2c-0.6,1.2-1.4,2.4-2.3,3.4c-0.9,1-1.9,1.9-3,2.7c-1.2,0.8-2.5,1.5-4.1,1.9
			C373,152.2,373.5,150.9,374.1,149.6L374.1,149.6z M391.2,203.2c1.4-0.4,2.7-0.6,4.1-0.7c1.4-0.1,2.8,0,4.2,0.3
			c1.4,0.3,2.8,0.7,4.2,1.6c-1.3,1-2.7,1.5-4.1,2c-1.4,0.4-2.7,0.6-4.1,0.7s-2.8,0-4.2-0.3c-1.4-0.3-2.8-0.7-4.2-1.6
			C388.5,204.2,389.9,203.7,391.2,203.2L391.2,203.2z M409.6,272.4c1.3-1,2.7-1.5,4.1-2c1.4-0.4,2.7-0.6,4.1-0.7
			c1.4-0.1,2.8,0,4.2,0.3c1.4,0.3,2.8,0.7,4.2,1.6c-1.3,1-2.7,1.5-4.1,2c-1.4,0.4-2.7,0.6-4.1,0.7c-1.4,0.1-2.8,0-4.2-0.3
			C412.4,273.8,411,273.4,409.6,272.4L409.6,272.4z M427.2,280.3c-0.6,1.2-1.4,2.4-2.3,3.4c-0.9,1-1.9,1.9-3,2.7
			c-1.2,0.8-2.5,1.5-4.1,1.9c0.1-1.6,0.6-3,1.2-4.2c0.6-1.2,1.4-2.4,2.3-3.4c0.9-1,1.9-1.9,3.1-2.7c1.2-0.8,2.4-1.5,4.1-1.9
			C428.3,277.7,427.8,279,427.2,280.3L427.2,280.3z M423.7,265.7c-1.2-0.7-2.3-1.5-3.3-2.5s-1.8-2-2.6-3.2c-0.7-1.2-1.3-2.5-1.6-4.1
			c1.7,0.3,3,0.9,4.3,1.5c1.2,0.7,2.3,1.5,3.3,2.5c1,0.9,1.8,2,2.6,3.2c0.7,1.2,1.3,2.5,1.6,4.1C426.3,266.9,425,266.3,423.7,265.7
			L423.7,265.7z M433.8,275.6c-2.4,0.7-4.9-0.5-5.6-2.8s0.5-4.7,2.9-5.4c2.4-0.7,4.9,0.5,5.6,2.8S436.1,274.8,433.8,275.6z
			 M436,261.9c0.4-1.3,0.9-2.5,1.6-3.7c0.7-1.1,1.5-2.2,2.5-3.2c1-1,2.1-1.9,3.7-2.6c0.2,1.6-0.1,3-0.4,4.3
			c-0.4,1.3-0.9,2.5-1.6,3.7c-0.7,1.1-1.5,2.2-2.5,3.2c-1,1-2.1,1.9-3.7,2.6C435.4,264.6,435.6,263.2,436,261.9L436,261.9z
			 M451.1,269.3c-1.3,0.6-2.6,1.1-3.9,1.4s-2.7,0.4-4.2,0.4c-1.4-0.1-2.9-0.2-4.5-0.9c1.1-1.2,2.4-2,3.6-2.6
			c1.3-0.6,2.6-1.1,3.9-1.4s2.7-0.4,4.1-0.4c1.4,0.1,2.9,0.2,4.5,0.9C453.6,267.9,452.3,268.6,451.1,269.3L451.1,269.3z
			 M458.7,253.2l-9,2.8l-18.5-55.5c-0.8,0.6-1.6,1.1-2.5,1.6c-1.3,0.6-2.6,1.1-3.9,1.4c-1.4,0.3-2.7,0.4-4.2,0.4
			c-1.4-0.1-2.9-0.2-4.5-0.9c1.1-1.2,2.4-2,3.6-2.6c1.3-0.6,2.6-1.1,3.9-1.4c1.4-0.3,2.7-0.4,4.1-0.4c0.9,0,1.8,0.1,2.8,0.4
			l-19-56.8l9-2.8L458.7,253.2L458.7,253.2z"/>
		<path class="st2" d="M274.5,173.5c0.9-0.3,1.3-1.1,1-2c-0.3-0.8-1.2-1.3-2-1c-0.9,0.3-1.3,1.1-1,2
			C272.7,173.3,273.6,173.8,274.5,173.5z"/>
		<path class="st2" d="M339.3,192.2c0.3,0.8,1.2,1.3,2,1c0.9-0.3,1.3-1.1,1-2c-0.3-0.8-1.2-1.3-2-1
			C339.5,190.5,339.1,191.4,339.3,192.2z"/>
		<path class="st2" d="M432,270c-0.9,0.3-1.3,1.1-1,2c0.3,0.8,1.2,1.3,2,1c0.9-0.3,1.3-1.1,1-2C433.8,270.2,432.8,269.7,432,270z"/>
	</g>
</g>
</svg>
