<?xml version="1.0" encoding="utf-8"?>
<!-- Generator: Adobe Illustrator 24.0.2, SVG Export Plug-In . SVG Version: 6.00 Build 0)  -->
<svg version="1.1" id="retrato" xmlns="http://www.w3.org/2000/svg" xmlns:xlink="http://www.w3.org/1999/xlink" x="0px" y="0px"
	 viewBox="0 0 254.3 315.6" style="enable-background:new 0 0 254.3 315.6;" xml:space="preserve">
<style type="text/css">
	.st0{fill:#FA8630;}
	.st1{fill:#FFFFFF;}
	.st2{fill:#FFB143;}
	.st3{fill:#7B7B7B;}
	.st4{fill:#383838;}
	.st5{fill:#C3C3C3;}
</style>
<g>
	<path class="st0" d="M22.5,22.5h213.4c2.8,0,5.1,2.3,5.1,5.1v264.9c0,2.8-2.3,5.1-5.1,5.1H22.5c-2.8,0-5.1-2.3-5.1-5.1V27.6
		C17.4,24.8,19.7,22.5,22.5,22.5L22.5,22.5z"/>
	<path class="st1" d="M224.4,132.6v54.9c0,21.9-8.3,41.9-22.1,57.4c-17.4,19.7-43.7,32.2-73,32.2s-55.6-12.5-73-32.2
		c-13.8-15.5-22.1-35.5-22.1-57.4v-54.9c0-49.5,42.6-89.6,95.2-89.6c26.3,0,50.1,10,67.3,26.2C213.7,85.5,224.4,107.8,224.4,132.6
		L224.4,132.6z"/>
	<path class="st2" d="M181.3,43.3c11.1,4.8,29,15.6,39.4,37.2c0.9,1.8,3.7,1.3,3.7-0.7V41.8c0-1-0.9-1.8-1.9-1.8l-40.3-0.1
		C180.1,39.9,179.5,42.5,181.3,43.3L181.3,43.3z"/>
	<path class="st2" d="M77.2,43.3c-11.1,4.8-29,15.6-39.4,37.2c-0.9,1.8-3.7,1.3-3.7-0.7V41.8c0-1,0.9-1.8,1.9-1.8l40.3-0.1
		C78.4,39.9,79,42.5,77.2,43.3L77.2,43.3z"/>
	<path class="st2" d="M77.2,272.8c-11.1-4.8-29-15.6-39.4-37.2c-0.9-1.8-3.7-1.3-3.7,0.7v38.1c0,1,0.9,1.8,1.9,1.8l40.3,0.1
		C78.4,276.3,79,273.6,77.2,272.8L77.2,272.8z"/>
	<path class="st2" d="M181.3,272.8c11.1-4.8,29-15.6,39.4-37.2c0.9-1.8,3.7-1.3,3.7,0.7v38.1c0,1-0.9,1.8-1.9,1.8l-40.3,0.1
		C180.1,276.3,179.5,273.6,181.3,272.8L181.3,272.8z"/>
</g>
<g>
	<g>
		<rect x="100.6" y="175.1" class="st3" width="49.2" height="26.2"/>
		<path class="st4" d="M202.3,244.9c-17.4,19.7-43.7,32.2-73,32.2s-55.6-12.5-73-32.2c-0.1-3.8,0.1-7.5,0.8-9.4
			c1.7-5.3,37.9-26,37.9-26c-1.8-7.8-2.7-26.3-3-32.8c0-1.1,1.1-1.9,2.2-1.5c7.4,2.7,30.2,11.2,32,12.7c0.8,0.7,2,3.4,3.2,6.7
			c1.2-3.3,2.4-6,3.2-6.7c1.8-1.5,24.6-10,32-12.7c1.1-0.4,2.2,0.4,2.2,1.5c-0.3,6.5-1.3,25-3,32.8c0,0,36.2,20.7,37.9,26
			C202.2,237.4,202.3,241.1,202.3,244.9z"/>
	</g>
	<g>
		<g>
			<path class="st5" d="M91.8,142.9c0,0-5.7-5.7-14.8-2.4s-6.8,28.4,14.1,25.1L91.8,142.9L91.8,142.9z"/>
			<path class="st5" d="M163.6,142.9c0,0,5.7-5.7,14.8-2.4s6.8,28.4-14.1,25.1L163.6,142.9L163.6,142.9z"/>
		</g>
		<g>
			<path class="st5" d="M95.5,109.8h64.3c3.1,0,5.6,2.5,5.6,5.6v59.9c0,3.1-2.5,5.6-5.6,5.6H95.5c-3.1,0-5.6-2.5-5.6-5.6v-59.9
				C89.9,112.3,92.4,109.8,95.5,109.8z"/>
			<g>
				<g>
					<g>
						<path class="st3" d="M75.4,152.2c-1-1.6-0.9-3.9,0.1-5.6c1-1.8,3-3,5.1-3.4c2.1-0.4,4.3,0,6.1,1.1c1.8,1,3.2,2.5,3.9,4.3
							c-1.2-1.5-2.7-2.7-4.4-3.5c-1.7-0.8-3.6-1.1-5.4-0.7c-1.8,0.3-3.5,1.2-4.5,2.7C75.3,148.5,74.8,150.4,75.4,152.2L75.4,152.2z"
							/>
						<path class="st3" d="M86.6,155.7c-1.6,0-3.1-0.7-4.2-1.8c-1.1-1.1-2-2.6-1.7-4.3c0.3-1.7,1.8-2.9,3.4-3.3
							c1.6-0.4,3.2-0.3,4.7,0.1c-1.5,0.1-3.1,0.2-4.3,0.8c-1.2,0.5-2.3,1.5-2.5,2.7c-0.2,1.2,0.4,2.5,1.2,3.5
							C84,154.3,85.2,155.1,86.6,155.7L86.6,155.7z"/>
					</g>
					<g>
						<path class="st3" d="M180,152.2c0.5-1.8,0.1-3.7-0.9-5.1c-1-1.4-2.7-2.4-4.5-2.7c-1.8-0.3-3.7-0.1-5.4,0.7
							c-1.7,0.8-3.2,2-4.4,3.5c0.8-1.7,2.2-3.3,3.9-4.3c1.8-1.1,4-1.4,6.1-1.1c2.1,0.4,4.1,1.6,5.1,3.4
							C180.9,148.3,181,150.6,180,152.2L180,152.2z"/>
						<path class="st3" d="M168.7,155.7c1.4-0.5,2.6-1.3,3.5-2.4c0.8-1,1.4-2.4,1.2-3.5c-0.2-1.1-1.3-2.1-2.5-2.7
							c-1.3-0.6-2.8-0.6-4.3-0.8c1.5-0.4,3.1-0.5,4.7-0.1c1.6,0.4,3.1,1.6,3.4,3.3c0.3,1.7-0.6,3.3-1.7,4.3
							C171.8,155,170.3,155.6,168.7,155.7L168.7,155.7z"/>
					</g>
				</g>
				<g>
					<path class="st4" d="M118.1,144.6c0,2.8-1.4,5.1-3.2,5.1s-3.2-2.3-3.2-5.1s1.4-5.1,3.2-5.1S118.1,141.8,118.1,144.6z"/>
					<path class="st4" d="M143.8,144.6c0,2.8-1.4,5.1-3.2,5.1s-3.2-2.3-3.2-5.1s1.4-5.1,3.2-5.1S143.8,141.8,143.8,144.6z"/>
				</g>
				<path class="st3" d="M121.8,154.2c1.2-1.8,3.5-3,5.9-3c1.2,0,2.4,0.3,3.4,0.8c1.1,0.5,1.8,1.3,2.5,2.2c-2.1-0.9-3.9-1.5-5.9-1.5
					C125.8,152.8,123.9,153.4,121.8,154.2L121.8,154.2z"/>
				<path class="st3" d="M129.6,162c1.6-0.6,3.1-0.8,4.7-0.8c1.6,0,3.1,0.2,4.7,0.8c-1.6,0.6-3.1,0.8-4.7,0.8
					C132.7,162.7,131.2,162.6,129.6,162z"/>
				<g>
					<path class="st4" d="M138.8,127.2c3.3-0.6,6.7,0.4,9,2.5c0.3,0.3,0.4,0.8,0.1,1.1c-0.3,0.3-0.8,0.3-1.1,0.1l0,0
						c-2.1-1.5-5-1.9-7.4-1.3c-0.7,0.2-1.4-0.2-1.6-0.9c-0.2-0.6,0.2-1.3,0.9-1.5C138.7,127.2,138.7,127.2,138.8,127.2L138.8,127.2
						L138.8,127.2z"/>
					<path class="st4" d="M116.6,127.2c-3.3-0.6-6.7,0.4-9,2.5c-0.3,0.3-0.4,0.8-0.1,1.1c0.3,0.3,0.8,0.3,1.1,0.1l0,0
						c2.1-1.5,5-1.9,7.4-1.3c0.7,0.2,1.4-0.2,1.6-0.9c0.2-0.6-0.2-1.3-0.9-1.5C116.7,127.2,116.6,127.2,116.6,127.2L116.6,127.2
						L116.6,127.2z"/>
				</g>
			</g>
			<path class="st3" d="M175.5,122.4c-0.5-4-1-8.1-2.8-11.8c-2.1-4-5.7-7.3-9.9-9.3c-4.2-2.1-8.9-2.1-13.7-2.1
				c1-5.3-1.5-11-6.2-14.2c-2.9,3-7.2,4.5-11.5,5c-4.3,0.6-8.6,0.4-12.9,0.9c-4.3,0.5-8.7,1.8-11.7,4.6c-0.9,0.9-1.8,1.9-3,2.4
				c-1.6,0.6-3.5-0.1-5-0.8c-1.5-0.8-3.1-1.8-4.8-1.8c-2.5-0.1-4.7,1.8-5.4,4c-0.8,2.2,0,4.6,1,6.8c-4.7,0.1-9,3-11.4,6.8
				c-2.4,3.8-3,8.4-2.7,12.8c0.3,4.9,1.8,9.7,4.3,14.1c3.6-0.6,6.6,0.1,8.6,1l0,0c0.6,2,1.2,3.9,2,5.8c2.4-3.7,3.6-7.9,4-12.2
				c2.4-2.2,4.7-4.5,6.6-7.1c1.8-2.6,3.8-6.2,3.7-9.3c10.1,5.6,23.8,5.1,33.4-1.3c5,4.9,11.2,8.6,18.3,9.9
				c-0.6,7.2,2.4,14.6,7.7,19.8c0.9-1.8,1.8-3.6,2.7-5.5c2.1-1,5.2-1.9,9.2-1.2C176.7,134.1,176.1,128.1,175.5,122.4L175.5,122.4z"
				/>
		</g>
	</g>
</g>
</svg>
