<?xml version="1.0" encoding="utf-8"?>
<!-- Generator: Adobe Illustrator 24.0.2, SVG Export Plug-In . SVG Version: 6.00 Build 0)  -->
<svg version="1.1" id="Capa_1" xmlns="http://www.w3.org/2000/svg" xmlns:xlink="http://www.w3.org/1999/xlink" x="0px" y="0px"
	 viewBox="0 0 229.8 469.3" style="enable-background:new 0 0 229.8 469.3;" xml:space="preserve">
<style type="text/css">
	.st0{fill:#96838A;}
	.st1{fill:#D8CED3;}
	.st2{fill:#FFD480;}
	.st3{fill:#FFBA31;}
	.st4{fill:#D3C27F;}
	.st5{fill:#F0E19A;}
	.st6{fill:#B51E25;}
	.st7{fill:#FF756B;}
	.st8{fill:#740F1D;}
	.st9{fill:#FFDD31;}
	.st10{fill:#6B4711;}
	.st11{fill:#FFEADB;}
	.st12{fill:#478F7E;}
	.st13{fill:#6EBD91;}
	.st14{fill:#8A171C;}
	.st15{fill:#5E4231;}
	.st16{fill:#DBD1D6;}
	.st17{fill:#DED4D8;}
	.st18{fill:#75626A;}
	.st19{fill:#EBCA52;}
	.st20{fill:#F3882E;}
	.st21{fill:#C4BBBF;}
</style>
<g>
	<g id="tequila">
		<g>
			<g>
				<path class="st0" d="M106.2,54.8c5.3-0.5,10.5-1.4,15.2-2.8h0c3.2,5,1.9,14.7,1.6,22.2c-0.2,6-2.1,7.9-11.6,8.4
					c-4.9,0.3-12,0.2-21.9,0.2c-8.1,0-17.3-0.8-23.5-2.1c-3.2-0.7-5.7-1.6-6.9-2.6c-5.1-4.4-4.5-17.8-0.6-25.2
					c0.2-0.4,0.4-0.7,0.8-1c2.9,0.7,6.7,1.5,11.1,2.1C80.5,55.4,93.8,56.1,106.2,54.8L106.2,54.8z"/>
				<path class="st1" d="M103,57.3c4.3-0.4,8.4-1.1,12.2-2.3h0c2.6,4,1.6,11.9,1.3,18c-0.2,4.9-1.7,6.4-9.3,6.8
					c-4,0.2-9.7,0.1-17.7,0.1c-6.5,0-13.9-0.6-19-1.7c-2.6-0.6-4.6-1.3-5.6-2.1c-4.1-3.5-3.6-14.4-0.5-20.3c0.2-0.3,0.4-0.6,0.6-0.8
					c2.3,0.6,5.4,1.2,9,1.7C82.2,57.7,92.9,58.3,103,57.3L103,57.3z"/>
				<path class="st2" d="M98,59.7c3-0.3,6-0.9,8.8-1.8h0c1.4,3.2-0.1,8.9-0.9,12.9c-0.5,3.1-1.6,4-6.4,4.3c-2.5,0.1-6,0.1-11,0.1
					c-4.1,0-8.8-0.4-12-1.1c-1.7-0.4-3-0.8-3.7-1.3c-3-2.3-4-9.9-2.5-14.5c0.1-0.2,0.2-0.5,0.4-0.6c1.8,0.5,4,1,6.6,1.4
					C83.3,60,90.9,60.5,98,59.7L98,59.7z"/>
				<path class="st3" d="M69.6,48.3c-3.1-22.5-4.8-35.2,1.4-40.9c-0.6,5.3,34,5.5,34.1,0c5.7,4.7,7,15.5,2.6,40.1
					c-0.4,2.3-0.9,4.7-1.4,7.3c-12.5,1.3-25.8,0.6-35.9-0.8C70.1,52.1,69.8,50.1,69.6,48.3L69.6,48.3z"/>
				<path class="st1" d="M121.4,52c-4.7,1.4-9.9,2.3-15.2,2.8c0.5-2.6,1-5,1.4-7.3c5.3,0.5,9.3,1.1,10.9,1.9
					C119.7,50,120.7,50.9,121.4,52L121.4,52z"/>
				<path class="st1" d="M59.3,52c1.8-1.7,5.5-2.9,10.3-3.7c0.3,1.8,0.5,3.8,0.8,5.8C66,53.5,62.2,52.7,59.3,52L59.3,52z"/>
				<path class="st1" d="M110,188.2c68.3,19.1,81.9,80.5,46.6,249.3c-2,9.6-33.1,24.5-59.8,24.5c-34.7,0-62.3-14-65.3-24.5
					c-40.5-143.3-45-230.2,35.6-249.4c-5-3.5-8.2-9.1-9.9-16.3c16.4,8,45.2,8.5,63.1-1.5h0C118.6,178.3,115.4,184.4,110,188.2
					L110,188.2z"/>
				<path class="st4" d="M14.5,226.5c-21.5,41.7-10.6,113.2,17,211c3,10.5,30.6,24.5,65.3,24.5c26.7,0,57.8-14.8,59.8-24.5
					c23.5-112.3,25.4-177.1,3.8-213.5C113.2,238.3,62,239.1,14.5,226.5L14.5,226.5z"/>
				<path class="st5" d="M100,210.2c-31.8,0.5-55.1,0-83.9,16.8c47,12.1,97.6,11.3,144.3-2.9C159,221.5,123.5,209.8,100,210.2z"/>
				<path class="st6" d="M111.4,82.7c6.3,30.7,13.6,65.7,8.8,87.7h0c-17.9,10-46.7,9.5-63.1,1.5c-5.5-22.1,2.3-58.7,8.7-90.3
					l0.2-0.8c6.3,1.4,15.4,2.1,23.5,2.1C99.5,82.9,106.5,83,111.4,82.7L111.4,82.7z"/>
				<path class="st7" d="M79.2,82.5c-3.3-0.2-6.6-0.6-9.5-1c-7.2,30.3-8.5,61.4-7,92.7c4.6,1.6,9.8,2.6,15.2,3.2
					C75.1,145.8,74.9,114.1,79.2,82.5L79.2,82.5z"/>
				<path class="st8" d="M111.4,82.7c-3.5,0.2-8,0.2-13.7,0.2c6.7,30.4,10.2,61.5,10.1,92.4c4.5-1.2,8.7-2.8,12.5-4.9h0
					C125,148.4,117.7,113.4,111.4,82.7z"/>
				<path class="st9" d="M105.1,7.4c-0.1,5.5-34.8,5.3-34.1,0c2.8-2.5,7.1-3.7,13.5-3.7C93.6,3.7,100.6,3.7,105.1,7.4L105.1,7.4z"/>
				<path class="st3" d="M69.6,48.3c-3.1-22.5-4.8-35.2,1.4-40.9c-0.6,5.3,34,5.5,34.1,0c5.7,4.7,7,15.5,2.6,40.1
					c-0.4,2.3-0.9,4.7-1.4,7.3c-12.5,1.3-25.8,0.6-35.9-0.8C70.1,52.1,69.8,50.1,69.6,48.3L69.6,48.3z"/>
				<path class="st10" d="M70.9,7.4c-6.2,5.7-4.5,18.4-1.4,40.9c0.3,1.8,0.5,3.8,0.8,5.8c3.2,0.4,6.7,0.8,10.3,1
					c-1.4-14.8-2.1-29.6-2.2-44.2C74,10.2,70.7,9.1,70.9,7.4L70.9,7.4z"/>
				<path class="st11" d="M105.1,7.4c0,1.8-3.9,3-9,3.6c0.9,14.7,0.8,29.5-0.1,44.4c3.4-0.1,6.9-0.3,10.3-0.6c0.5-2.6,1-5,1.4-7.3
					C112.1,23,110.7,12.2,105.1,7.4L105.1,7.4z"/>
				<path class="st0" d="M121.4,52c-4.7,1.4-9.9,2.3-15.2,2.8c0.5-2.6,1-5,1.4-7.3c5.3,0.5,9.3,1.1,10.9,1.9
					C119.7,50,120.7,50.9,121.4,52L121.4,52z"/>
				<path class="st0" d="M59.3,52c1.8-1.7,5.5-2.9,10.3-3.7c0.3,1.8,0.5,3.8,0.8,5.8C66,53.5,62.2,52.7,59.3,52L59.3,52z"/>
				<path class="st0" d="M110,188.2c5.3-3.7,8.6-9.9,10.3-17.8h0c-2.5,1.4-5.1,2.5-8,3.5c-3,6.2-7.4,11.6-13.2,15.6
					c107,27.1,67.9,155.8,48.9,237.8c-33.8,18.3-75.4,21.8-109.1,0.2c-28-89-66.4-217.3,38.7-238c-4.5-3.7-7.1-8.6-10-13.9
					c-3.8-1-7.3-2.2-10.4-3.7c1.8,7.1,4.9,12.8,9.9,16.3c-80.6,19.1-76,106.1-35.6,249.4c3,10.5,30.6,24.5,65.3,24.5
					c26.7,0,57.8-14.8,59.8-24.5C191.9,268.6,178.4,207.3,110,188.2L110,188.2z"/>
				<path class="st9" d="M105.1,7.4c-0.1,5.5-34.8,5.3-34.1,0c2.8-2.5,7.1-3.7,13.5-3.7C93.6,3.7,100.6,3.7,105.1,7.4L105.1,7.4z"/>
				<path class="st12" d="M24.2,294.8c0,30.4,8,90.8,16,104.6c18.1,19.5,86.9,18,105.7-0.5c6.5-6.4,14.4-84.1,12.8-104.1
					c-1.6-20-30.4-9.3-30.4-9.3s8.3-50.4-39.7-50.4c-42.9,0-33.1,52.7-33.1,52.7S24.2,285.7,24.2,294.8L24.2,294.8z"/>
				<g>
					<path class="st12" d="M156.4,341c1.9-19.2,2.9-37.8,2.2-46.3c-1.6-20-30.4-9.3-30.4-9.3s8.3-50.4-39.7-50.4
						c-42.9,0-33.1,52.7-33.1,52.7s-31.2-2.1-31.2,7c0,13.1,1.5,31.8,3.8,49.9C71.1,346.2,113.7,343.9,156.4,341L156.4,341z"/>
					<path class="st13" d="M28,344.7c3.1,23.9,7.6,46.8,12.2,54.7c18.1,19.5,86.9,18,105.7-0.5c3.8-3.7,8-31.3,10.5-57.8
						C113.7,343.9,71.1,346.2,28,344.7L28,344.7z"/>
				</g>
				<path class="st3" d="M86.5,240.7c-4.2,0.5-8.3,2.3-12,5.1c-1.3-1.1-14.3,11.7-14.2,32c0,11.6,6.2,20.7,14.4,26.9
					c9.4,7.1,23.4,3.6,29.7-0.9c8-5.8,13.7-14.1,16-21.4C127.6,260.5,105.6,238.5,86.5,240.7L86.5,240.7z M113.7,266.3
					c2,4.2,1.9,8.3,0.7,12.1c-4.4-2.3-8.9-4.4-13.4-6.4C105.2,269.9,109.3,267.7,113.7,266.3L113.7,266.3z M100.6,251.4
					c4.1,2.4,7.7,6.2,10.5,10.4c-5.6,2-11,4.8-16.4,7.3c1.4-6.1,2.9-13.4,5.7-17.9C100.5,251.4,100.5,251.4,100.6,251.4z
					 M96.2,249.4c-2.2,4.4-3.2,10.4-4.2,14.5c-0.3,1.3-0.7,2.5-1,3.8c-0.2-0.1-0.3-0.1-0.5-0.2c-0.2-0.6-0.5-1.2-0.7-1.8
					c-1.8-4.7-4.1-11.4-7.2-16.1C87,247.6,91.7,247.7,96.2,249.4L96.2,249.4z M78.5,252.1c2.6,3.4,4.5,8.2,6.2,12.9
					c-4.4-1.8-8.8-3.5-13.2-4.8C73.5,256.9,76.1,254,78.5,252.1L78.5,252.1z M69.3,264.9c6.2,1.9,12,5.3,18,7.7
					c-5.2,2.4-18.3,9.3-18.5,8.8C66.9,275.6,67.6,269.5,69.3,264.9L69.3,264.9z M73.9,294.3c-2.1-2-3.7-4.8-4.8-8
					c6.5-2.2,12.5-6.1,18.8-8.8c-2.5,7.3-5.3,14.4-8.4,21C77.7,297.5,75.8,296.1,73.9,294.3L73.9,294.3z M83.8,300.4
					c2.8-6.4,5-13,7.3-19.7c2.4,5.6,5,11.8,8.1,16.9C94.3,300.9,89.1,302,83.8,300.4L83.8,300.4z M106.8,290.8
					c-1.2,1.4-2.4,2.6-3.6,3.7c-2.1-3.9-3.8-8.4-5.7-11.9c-1.3-2.4-2.5-4.9-3.7-7.4c0.3-0.1,0.5-0.2,0.8-0.3
					c5.8,1.5,12.1,4.8,17.8,8C110.9,285.8,108.9,288.4,106.8,290.8z"/>
				<g>
					<path class="st3" d="M45.1,317c0.9,0,3.6,0.1,5.3,0.1c0.5,0,0.9,0,1.2,0c1.1,0,1.3,0.6,1.2,0.9c0,0.3-0.1,1.2-0.1,2.6
						c0,1,0.1,2.1,0.1,2.6c0,0.6-0.4,0.9-1.1,0.9h-5.4l-0.1,3.5c0,0.6,0,1.7,0,2.9c0,3.8,0.1,9.4,0.1,10v0.2c0,0.5-0.2,0.4-0.5,0.4
						h-2.1c-0.6,0-0.5-0.2-0.5-1.2s0.3-9.6,0.3-11.4c0-1.4-0.1-3.6-0.1-4.5c-2.1,0-5.1,0.1-5.5,0.1c-0.6,0-0.7-0.4-0.6-0.8
						c0-0.3,0.1-3,0.1-4.5c0-0.5,0-0.8,0-1v-0.2c0-0.5,0.3-0.5,0.6-0.5h3.1C42,317.1,44,317,45.1,317L45.1,317z"/>
					<path class="st3" d="M55.7,327.8c0-2.6-0.2-2.9-0.2-4.9s0.1-4.1,0.1-5c0-0.7,0.3-0.8,0.6-0.8c0.2,0,0.3,0,0.5,0
						c0.5,0,1,0.1,2.4,0.1s3.4-0.3,4.6-0.3c1.3,0,2.8,0.2,3.4,0.2s0.7,0.3,0.7,1c0,0.7,0.1,1.5,0.1,2.6c0,0.3,0,0.7-0.1,1.3
						c0,0.4-0.2,0.5-0.4,0.5s-0.5-0.1-0.7-0.2c-0.5-0.1-1.4-0.1-2.7-0.1c-0.8,0-1.6-0.1-2.4-0.1c-0.3,0-0.5,0-0.8,0
						c-0.5,0-1,0.1-1.6,0.1c-0.7,0-1.5,0-1.6,0c-0.3,0-0.3,0.2-0.3,0.7c0,0.5-0.1,2.1-0.1,3.3v2c0,0.4,0,0.7,0,1.1
						c0.3,0,0.5,0,0.8,0c0.5,0,1.3,0,2.2,0c1.1,0,2.5-0.1,3.3-0.1c0.7,0,1.2,0.1,1.5,0.1s0.4,0.2,0.4,0.4s-0.1,0.4-0.1,1.1
						s0,1,0,1.8c0,0.4-0.1,0.5-0.3,0.5c-0.1,0-0.3-0.1-0.6-0.1c-0.5,0-1.1-0.1-3.1-0.1s-3.3,0.3-3.7,0.3c-0.2,0-0.3,0-0.4,0
						c-0.1,0-0.2,0-0.2,0v3.4c0.1,0,0.2,0,0.3,0c0.2,0,0.5,0,0.9,0c0.7,0,2.3,0,3.7,0c1,0,2.7,0.1,3.9,0.1c0.6,0,1,0,1.3,0
						c0.5,0,0.6,0.3,0.6,0.7c0,0.2,0,0.5,0,0.7c0,0.7,0,1.4,0,2.4s-0.5,0.8-1.5,0.8s-4-0.1-5.4-0.1s-4.5,0.1-4.9,0.1
						c-0.1,0-0.1,0-0.2,0c-0.3,0-0.2-0.3-0.2-0.6c0-0.4,0-0.9,0-1.3s-0.1-0.8-0.1-1.5v-4.7C55.4,331.1,55.7,330.5,55.7,327.8
						L55.7,327.8z"/>
					<path class="st3" d="M81.4,340.3c-0.6,0.4-1.4,0.9-2.7,0.8c-1.7-0.1-7.8-1.8-7.8-12.3s6-12.1,7.7-12.1c5.3,0,7.2,7.1,7.2,12.7
						c0,2.9-1,5.5-1.9,7.4c1.2,1.6,2.4,3.2,2.7,3.5s0.3,0.5,0.3,0.6c0,0.2-0.2,0.2-0.4,0.2l-2.3,0c-0.5,0-0.7-0.1-1-0.6l-0.9-1.1
						l-0.1,0.1l0,0C82,339.7,81.8,340,81.4,340.3L81.4,340.3z M82.2,330.9c0-0.8,0-1.6,0-2.5c0-3.5-0.3-7.1-3.5-7.1
						c-1.6,0-4.2,2.5-4.2,7.3s2.1,7.2,3.6,7.2c0.4,0,0.8-0.1,1.3-0.3c-0.7-0.8-1.2-1.5-1.4-1.8c-0.2-0.4-0.3-0.6-0.3-0.7
						c0-0.3,0.2-0.3,0.4-0.3c0.1,0,0.2,0,0.3,0c0.5,0,1.5-0.1,2-0.1c0.6,0,0.5,0.1,0.8,0.5l0.4,0.5C82,333,82.2,332.1,82.2,330.9
						L82.2,330.9z"/>
					<path class="st3" d="M97.7,333.7c1.8,0,2.1-2.2,2.1-3.2c0-0.8,0.1-3.9,0.1-6c0-0.5,0-1,0-1.3c0-1.7-0.2-4.7-0.2-5.5
						s0.2-1.1,0.7-1.1h3.9c0.1,0,0.3,0,0.5,0c0.3,0,0.7,0.1,0.8,1c0.1,0.6,0.1,2.2,0.1,4c0,2.8,0,6.1,0,7.3c0,2.1-0.6,11.9-7.9,11.9
						s-7.8-6-7.9-7.8c0-0.3,0-0.8,0-1.4c0-2.4,0.2-6.5,0.1-8.3c0-2.3-0.1-5-0.1-5.7c0-0.7-0.2-1.3,0.7-1.2c0.5,0,1.1,0.1,1.6,0.1
						c0.3,0,0.7,0,1-0.1s0.7-0.1,1.1-0.1c0.5,0,1,0,1.2,0c0.4,0,0.4,0.2,0.5,0.7v13.7C95.9,331.7,95.8,333.7,97.7,333.7L97.7,333.7z
						"/>
					<path class="st3" d="M110.7,322.1c0,1.9-0.3,7.7-0.3,9.5s0.1,7.8,0.2,8.6c0,0.2,0,0.3,0,0.5c0,0.4-0.1,0.4-0.3,0.5
						c-0.2,0.1-0.6,0.1-1,0.1c-1,0-0.7,0.2-0.7-1.4c0-1.3,0.1-9.4,0.1-11.7s0.3-8.9,0.2-9.7c0-0.2,0-0.5,0-0.7
						c0-0.5,0.1-0.9,0.5-0.9c0.2,0,0.7,0,1.1,0c0.3,0,0.3,0.2,0.3,0.5c0,0.2-0.1,0.5-0.1,0.8C110.7,318.9,110.7,320.2,110.7,322.1
						L110.7,322.1z"/>
					<path class="st3" d="M127.8,339.4L127.8,339.4c0.4,0,0.3,0.2,0.3,0.5c0,0.2,0.1,0.8,0.1,1.2c0,0.5-0.4,0.3-0.9,0.3
						c-0.5,0-3.6-0.3-4.7-0.3s-7.3,0.3-7.8,0.3s-0.7-0.3-0.7-0.7V338c0-1.2,0.1-10.4,0.1-11.5s-0.3-8-0.3-8.9c0-0.5,0.2-0.6,0.4-0.6
						c0.3,0,0.7,0.2,1.1,0.2c0.4,0.1,1.2,0.2,2.1,0.2c0.5,0,1.1,0,1.6-0.1c1.2-0.2,0.7,0.8,0.7,1.6c0,0.6-0.2,4.5-0.2,6.1
						s0.1,7,0.1,7.7c0,0.6-0.1,3.2-0.1,3.7c0,0.1,0,0.4,0,0.7c0,0.3,0,0.6,0,1l0.1,1.2l4.4,0.2L127.8,339.4L127.8,339.4z"/>
					<path class="st3" d="M135.2,316.5c0.1-0.3,0.3-0.4,0.4-0.3c0.2,0.2,0.3,0.6,0.4,1c0.1,0.5,1.2,3.1,1.6,4.1
						c0.5,1.1,0.9,2.3,1.3,3.7c0.4,1.3,2,4.9,2.6,6.5c0.7,1.6,2.2,4.9,2.7,5.8c0.4,0.9,1,2.5,1.5,3.1c0.1,0.2,0.2,0.3,0.2,0.4
						c0,0.2-0.3,0.3-0.6,0.3h-2.2c-0.3,0-0.4-0.6-0.6-1.1c-0.3-0.5-1-3-1.2-3.5c-0.2-0.5-0.6-1.4-0.8-2c-0.2-0.6-0.3-0.7-0.5-0.7
						c-0.2,0-0.7,0.1-1.2,0.1c-0.5,0.1-2.4,0-3.3,0.1c-0.3,0-0.6,0-1,0c-0.7,0-1.5,0-1.6,0c-0.3,0-0.3,0.4-0.4,0.8
						c-0.1,0.3-0.5,2.5-0.7,3.2l-0.3,1.5l-0.3,1c-0.1,0.5-0.2,0.7-0.4,0.7H129c-0.1,0-0.2,0-0.2-0.1s0.1-0.3,0.1-0.5
						c0.1-0.3,0.2-0.4,0.4-1.3c0.2-0.9,1.1-4.1,1.4-5.5c0.3-1.5,0.8-3.4,1.1-4.4c0.3-1.1,0.4-1.7,0.8-3.3c0.4-1.6,0.8-3.2,1.2-4.5
						l0.8-2.7C134.9,317.6,135.1,316.9,135.2,316.5L135.2,316.5z M138.4,328.9c0-0.1,0-0.1-0.1-0.3c-0.2-0.4-1.2-2.9-1.5-3.8
						c-0.4-1.1-0.7-2-0.7-2.1c-0.2-0.5-0.2-0.7-0.4-0.7c-0.1,0-0.2,0.7-0.4,1.3c-0.2,0.5-0.7,2.4-0.8,3c-0.2,0.7-0.5,1.8-0.7,2.3
						c-0.1,0.3-0.1,0.4-0.1,0.5s0.1,0.2,0.3,0.2c0.4,0,3.2-0.1,3.7-0.2C138.1,329,138.4,329.1,138.4,328.9L138.4,328.9z"/>
				</g>
				<g>
					<path class="st14" d="M47,348.1c0.7,6.3,1.4,12.6,2.1,19.2c0.1,0,0.2,0,0.3,0c0.7-6.6,1.4-13.3,2.1-20.2h4.2
						c-0.1,13.1-0.2,26.2-0.3,39.2c-0.9-0.3-1.8-0.6-2.8-1c0.4-11.5,0.8-23,1.2-34.7h-0.2c-1.3,8.4-2.6,16.6-3.8,24.4
						c-0.4-0.1-0.8-0.2-1.3-0.4c-1-7.5-1.9-14.8-2.9-21.8c-0.1,0-0.1,0-0.2,0c0,10.2-0.1,20.4-0.1,30.6c-0.7-0.3-1.4-0.6-2.1-1V348
						C44.5,348,45.8,348,47,348.1L47,348.1z"/>
					<path class="st14" d="M59.9,348.2c2.9,0,5.8,0,8.7,0.1c0,1.5,0,3,0,4.6c-2,0-4.1-0.1-6.1-0.2c0,3.9-0.1,7.8-0.1,11.6
						c1.5,0.2,3.1,0.3,4.7,0.5c0,1,0,1.9,0,2.9c-1.5,0.2-3,0.3-4.5,0.5c0,4.8-0.1,9.6-0.1,14.4c1.9,0.1,3.8,0.2,5.8,0.1
						c0.2,2,0.3,4,0.5,6c-3.4-0.7-6.7-1.5-10-2.5C59,373.6,59.4,360.9,59.9,348.2L59.9,348.2z"/>
					<path class="st14" d="M75.9,371.6c-0.7,6.5-1.3,12.9-2,19.3c-1.1-0.2-2.2-0.4-3.4-0.6c1.2-7.4,2.4-14.9,3.5-22.5
						c-0.9-6.5-1.7-13-2.6-19.4c1.1,0,2.2,0,3.3,0c0.5,6.4,1,12.9,1.6,19.3c0.5-0.2,1-0.3,1.5-0.5c0.6-5.9,1.1-11.7,1.7-17.7
						c1,0,1.9,0,2.9,0c-1,7.1-2.1,14.2-3.2,21.1c1.2,7.3,2.5,14.6,3.7,22c-1.4-0.1-2.8-0.3-4.2-0.4c-0.6-7.2-1.2-14.3-1.7-21.5
						C76.7,371,76.3,371.3,75.9,371.6L75.9,371.6z"/>
					<path class="st14" d="M85.6,348.3h2.7c0.3,14.3,0.5,28.5,0.8,42.8c-1.2,0-2.4-0.1-3.7-0.2C85.5,376.7,85.5,362.5,85.6,348.3
						L85.6,348.3z"/>
					<path class="st14" d="M97.4,392.4c-3.2,0.1-4.4-1.8-4.4-3.8c0-12.3,0-24.5,0-36.8c0-1.9,1.2-3.5,3.4-3.5h7c0,1.2,0,2.3,0,3.5
						c-0.2,2.6-0.4,5.2-0.7,7.7c-1,0-1.9,0-2.8,0c-0.2-2.3-0.3-4.7-0.5-7c0-0.4-0.2-0.5-0.5-0.5h-1.8c-1.2,0-1.5,1.9-1.5,3.1
						c0,0.5,0,0.7,0.1,0.8c0.3,10.3,0.6,20.7,0.9,31c-0.1,0.1-0.1,0.1-0.1,0.2c0,0.2,0.2,0.2,0.4,0.2c0.8,0,1.7-0.1,2.6-0.1
						c0.3,0,0.5-0.2,0.5-0.4c0.3-1.6,0.6-3.3,0.9-4.9c0.9,0,1.8-0.1,2.7-0.2c0,3.4,0,6.9,0,10.3C101.6,392.2,99.5,392.3,97.4,392.4
						L97.4,392.4z"/>
					<path class="st14" d="M112.6,374.2c-0.7,0.1-1.5,0.1-2.2,0.2c-0.6,5.7-1.3,11.4-1.9,17.1c-0.7,0.1-1.4,0.2-2,0.2
						c0.6-14.6,1.1-29.1,1.7-43.5c2.6,0,5.2,0,7.8,0c0.1,14,0.2,28.1,0.3,42.1c-0.8,0.2-1.7,0.3-2.5,0.5
						C113.4,385.3,113,379.8,112.6,374.2L112.6,374.2z M113.1,350.2c-0.6,0-1.2,0-1.8,0c-0.2,0-0.3,0.1-0.3,0.4
						c0,6.9,0.1,13.8,0.1,20.7c0,0.2,0.1,0.3,0.3,0.3c0.6,0,1.2-0.1,1.8-0.2c0.2,0,0.3-0.1,0.3-0.4c0-6.8-0.1-13.6-0.2-20.4
						C113.3,350.3,113.3,350.2,113.1,350.2L113.1,350.2z"/>
					<path class="st14" d="M122.9,357.1h-0.2c-0.2,11-0.3,22-0.5,33.1c-0.7,0.2-1.5,0.3-2.2,0.5c0.3-14.3,0.7-28.5,1-42.5
						c0.9,0,1.7,0,2.6,0c1.5,11,3.1,21.7,4.6,32c0.1,0,0.2,0,0.3-0.1c-0.1-10.7-0.2-21.3-0.3-32c0.8,0,1.7,0,2.5,0
						c-0.2,13.2-0.3,26.5-0.5,39.8c-1,0.3-1.9,0.6-2.9,0.9C125.9,378.6,124.4,368,122.9,357.1L122.9,357.1z"/>
					<path class="st14" d="M140.9,369.9c-1.1,0.9-2.2,1.8-3.3,2.8c-0.3,4-0.6,8-0.9,12c-0.9,0.3-1.7,0.6-2.6,0.9
						c0.5-12.7,1.1-25.2,1.6-37.5c2.3,0,4.5,0,6.8-0.1c0.6,11.5,1.2,22.6,1.7,33.6c-0.6,0.3-1.2,0.5-1.8,0.8
						C141.9,378.3,141.4,374.2,140.9,369.9L140.9,369.9z M140,350.2c-0.6,0.2-1.2,0.4-1.8,0.6c-0.2,0.1-0.3,0.3-0.3,0.5
						c0,6,0.1,11.9,0.1,17.9c0,0.2,0.1,0.2,0.3,0.2c0.5-0.2,1-0.5,1.5-0.7c0.2,0,0.3-0.2,0.3-0.4c0.1-6,0.1-11.9,0.2-17.8
						C140.2,350.2,140.1,350.1,140,350.2L140,350.2z"/>
				</g>
			</g>
			<path class="st15" d="M68.3,184.2c4.3,1.6,8.6,2.7,12.9,3.4c-2.1-3-4-6.2-5.4-9.6c-4.6-0.8-8.9-2-12.5-3.7
				C64.4,178.2,66,181.7,68.3,184.2L68.3,184.2z"/>
			<path class="st15" d="M67.8,201.2c-67.8,17-63.7,91.3-29.2,213.2c1.6,5.6,11.4,12.4,25.8,16.7c-13.8-77-32.1-190.1,20.2-224.4
				c-0.6-0.6-1.1-1.4-1.6-2C77.9,204.1,72.8,202.9,67.8,201.2L67.8,201.2z"/>
			<path class="st16" d="M110,188.2c5.3-3.7,8.6-9.9,10.3-17.8h0c-5.5,3.1-12.1,5.2-19,6.4c-1.1,6-8.2,10.8-8.2,10.8
				c31.2,9.4,48.3,51.9,50.3,83.7c5.2,60.8,0.9,122.6-9.6,183c12.5-5,21.8-11.6,22.8-16.8C191.9,268.6,178.3,207.3,110,188.2
				L110,188.2z"/>
		</g>
		<g>
			<g>
				<g>
					<path class="st1" d="M179.7,347c0,0-22.6,5.6-33.3,5.6S113,347,113,347C156.7,338,179.7,347,179.7,347L179.7,347z"/>
					<path class="st17" d="M147.8,349.8c-4.5-1.7-8.8-3.8-12.9-6.1c-6.6,0.6-13.9,1.6-22,3.3c0,0,22.6,5.6,33.4,5.6
						c2.4,0,5.3-0.3,8.5-0.7C152.5,351.3,150.2,350.6,147.8,349.8L147.8,349.8z"/>
					<path class="st18" d="M146.4,352.6c10.8,0,33.3-5.6,33.3-5.6s-23-9-66.7,0C113,347,135.6,352.6,146.4,352.6L146.4,352.6z
						 M179.7,351.3L179.7,351.3c-10.8,3-25.1,6.5-33.3,6.5s-22.5-3.5-33.4-6.5v0c-8.2-2.3-14.5-4.3-14.5-4.3
						c58.7-17.4,95.7,0,95.7,0S187.9,349,179.7,351.3L179.7,351.3z"/>
					<path class="st5" d="M177,370.8c0,0-19.9,6.6-30.7,6.6s-29.6-5.8-30.5-6.1C159.5,362.3,177,370.8,177,370.8L177,370.8z"/>
					<path class="st4" d="M177,370.8c-3.6,24.1-9.3,57.8-12.8,58.8c-4.6,1.5-26.6,1.5-30.3,2.9c-3.1,1.2-12.5-28.7-18.1-61.3
						c0.9,0.3,20,6.1,30.5,6.1S177,370.8,177,370.8L177,370.8z"/>
					<path class="st0" d="M177,370.8c1.2-8.1,2.2-15.1,2.7-19.4v0c8.2-2.3,14.5-4.3,14.5-4.3l-15.7,110.9c-30.9,23.2-56,3.6-56,3.6
						c-6.5-18.1-24-114.5-24-114.5s6.3,2,14.5,4.3v0c0.7,6.6,1.7,13.3,2.9,19.9c5.6,32.6,15,62.5,18.1,61.3
						c3.7-1.5,25.6-1.5,30.3-2.9C167.7,428.6,173.4,394.9,177,370.8L177,370.8z"/>
				</g>
				<g>
					<path class="st5" d="M223.8,362.1h-1.4c0-13.3-7.6-29.2-18.9-39.5c-6.9-6.2-18.3-13.3-33.6-11.8l-0.1-1.4c0,0,0,0-0.1,0
						c0,0-7.5,37.6-7.4,52.1l28.6-18.5l-5.9,37.8C193.1,377.4,212.1,367.1,223.8,362.1L223.8,362.1z M167.4,347
						c3.3-23.7,4.1-31.9,13.7-28c9.7,3.9,19.8,10.8,16.4,13.3C194.2,334.8,166.4,354.3,167.4,347L167.4,347z M200.7,335.4
						c3-4.2,18.3,18.1,15.2,22.5c-3,4.4-25.1,17.5-25.3,14.4C190.2,367.1,195.5,342.5,200.7,335.4L200.7,335.4z"/>
					<path class="st19" d="M190.6,372.3c0.2,3.1,22.3-10,25.3-14.4c3.1-4.4-12.2-26.7-15.2-22.5
						C195.5,342.6,190.2,367.1,190.6,372.3L190.6,372.3z"/>
					<path class="st19" d="M181.2,318.9c-9.6-3.9-10.5,4.3-13.7,28c-1,7.3,26.8-12.2,30.2-14.7C201,329.8,190.8,322.8,181.2,318.9
						L181.2,318.9z"/>
					<path class="st20" d="M203.4,322.6c11.3,10.3,18.9,26.1,18.9,39.5h4.4c0-14.1-5.9-31.6-17.8-42.4c-7.3-6.6-23-16.3-39.4-14.6
						l0.2,4.3l0.1,1.4C185.2,309.3,196.6,316.4,203.4,322.6L203.4,322.6z"/>
				</g>
				<path class="st21" d="M146.4,357.9c8.2,0,22.5-3.5,33.3-6.5c-0.5,4.4-1.5,11.4-2.7,19.4c0,0-17.5-8.5-61.1,0.5
					c-1.2-6.6-2.2-13.3-2.9-19.9C123.9,354.4,138.1,357.9,146.4,357.9L146.4,357.9z"/>
				<path class="st18" d="M188.3,344.8l-8.7,2.1c0,0-22.6,5.6-33.3,5.6S113,347,113,347c21.3-4.4,37.7-4.5,48.9-3.4
					c0.2-1.2,0.5-2.5,0.8-3.7c-16.2-1.4-38-0.6-64.2,7.1c0,0,6.3,2,14.5,4.3v0c10.8,3,25.1,6.5,33.4,6.5s22.5-3.5,33.3-6.5v0
					c3.9-1.1,7.8-2.3,10.4-3.1l0.4-2.7C189.8,345.3,189.1,345.1,188.3,344.8L188.3,344.8z"/>
			</g>
			<path class="st16" d="M190.1,348.3c-2.6,0.8-6.2,1.9-10.4,3v0c-0.8,0.2-12,103.9-12.5,113.4c3.7-1.7,7.4-3.9,11.3-6.8l11.2-79.2
				l-4.7,2.2L190.1,348.3L190.1,348.3z"/>
			<path class="st0" d="M133.1,363.5c-5.4-1.1-11.3-2.6-16.3-4v0c-7-2-12.4-3.7-12.4-3.7s15,82.4,20.5,97.9c0,0,5.6,4.4,14.7,6
				C136,427.8,133.8,395.7,133.1,363.5L133.1,363.5z"/>
		</g>
	</g>
</g>
</svg>
