<?xml version="1.0" encoding="utf-8"?>
<!-- Generator: Adobe Illustrator 24.0.2, SVG Export Plug-In . SVG Version: 6.00 Build 0)  -->
<svg version="1.1" id="Layer_14" xmlns="http://www.w3.org/2000/svg" xmlns:xlink="http://www.w3.org/1999/xlink" x="0px" y="0px"
	 viewBox="0 0 119.8 249.3" style="enable-background:new 0 0 119.8 249.3;" xml:space="preserve">
<style type="text/css">
	.st0{fill:#5BAAA1;}
	.st1{fill:#F2535C;}
	.st2{fill:#FFFFFF;}
	.st3{fill:#4C9089;}
	.st4{fill:#FA8630;}
	.st5{fill:#F2D900;}
	.st6{fill:#F6992D;}
</style>
<g>
	<path class="st0" d="M16.3,86.3c9.2-1.1,27.1-2.6,47.8-0.4c4,0.4,7,2.7,7,5.3v145.4c0,2.5-2.5,4.6-6.1,5.2
		c-8.2,1.5-24.8,3.1-49.8-0.4c-3.8-0.5-6.6-2.7-6.6-5.3L9.7,91.5C9.7,88.9,12.4,86.7,16.3,86.3L16.3,86.3z"/>
	<path class="st1" d="M62.9,55.8c-6.3,12-29.5,16.7-44.8,8.9L18,64.6c-6.5-3.3-11.3-8.4-11.3-13.7c0-5.8,5.3-10.9,9.4-16
		C24,25.2,28.2,14.2,28.4,3.2c14.9,8.8,28.3,15.9,34.8,31c2.2,5.2,3.2,10.7,1.9,16C64.6,52.1,63.9,54,62.9,55.8L62.9,55.8z"/>
	<path class="st2" d="M39.8,29.7c1.9,5,3.1,10,4,15.1c0.9,5.1,1.4,10.2,1.5,15.3c0,5.1-0.1,10.2-0.9,15.3
		c-0.8,5.1-2.1,10.2-4.6,15.1c0.3-5.1,0.3-10.1,0.4-15.2c0-5-0.1-10.1-0.3-15.1l-0.3-15.2C39.5,39.9,39.5,34.8,39.8,29.7L39.8,29.7z
		"/>
	<path class="st3" d="M5,114.9c-0.7,2.2,2,4.3,5.2,5c3.2,0.7,6.8,0.3,9.9-0.5c3.2-0.8,6.1-1.9,9.4-2.5c4.7-1,10-0.8,14.6,0.3
		c4.5,1.1,8.5,3.1,13.2,4c3.7,0.7,7.8,0.5,11.4-0.4c5.6-1.4,9-5.1,9-9V92.5c0-4.3-5.3-7.7-11.8-7.7h-49c-6.5,0-11.8,3.5-11.8,7.8
		L5,114.9L5,114.9z"/>
</g>
<g>
	<path class="st4" d="M111,235.6V144c0-8.1-9.9-14.7-22.2-14.8c-9.8-0.1-17.8,0.6-22.7,1.2c-3.2,0.4-5.4,2.2-5.4,4.3l-0.8,100.9
		c0,5.8,7.1,10.5,16,10.5h19.2C103.9,246,111,241.4,111,235.6L111,235.6z"/>
	<path class="st5" d="M104.3,105.3c-5.2,9.8-24.2,13.7-36.7,7.3c0,0-0.1,0-0.2-0.1c-5.3-2.7-9.3-6.9-9.3-11.3
		c0-4.7,4.3-8.9,7.7-13.1c6.5-8,10-17,10.1-26c12.2,7.2,23.2,13.1,28.6,25.4c1.8,4.3,2.6,8.8,1.6,13.1
		C105.7,102.3,105.1,103.8,104.3,105.3L104.3,105.3z"/>
	<path class="st2" d="M85.4,83.9c1.6,4.1,2.5,8.2,3.3,12.4c0.7,4.2,1.1,8.3,1.3,12.5c0,4.2,0,8.4-0.8,12.6
		c-0.7,4.2-1.7,8.4-3.8,12.3c0.2-4.2,0.3-8.3,0.3-12.5c0-4.1-0.1-8.3-0.2-12.4l-0.3-12.4C85.1,92.3,85.1,88.1,85.4,83.9L85.4,83.9z"
		/>
	<path class="st6" d="M56.8,153.8c-0.5,1.8,1.6,3.6,4.3,4.1c2.6,0.6,5.5,0.2,8.1-0.4c2.6-0.6,5-1.5,7.7-2.1c3.9-0.8,8.2-0.7,12,0.2
		c3.7,0.9,7,2.5,10.8,3.3c3.1,0.6,6.4,0.4,9.3-0.3c4.6-1.1,7.4-4.2,7.4-7.4v-15.8c0-3.5-4.3-6.3-9.7-6.3H66.5
		c-5.4,0-9.7,2.8-9.7,6.4L56.8,153.8L56.8,153.8z"/>
</g>
</svg>
