<?xml version="1.0" encoding="utf-8"?>
<!-- Generator: Adobe Illustrator 24.0.2, SVG Export Plug-In . SVG Version: 6.00 Build 0)  -->
<svg version="1.1" id="Capa_1" xmlns="http://www.w3.org/2000/svg" xmlns:xlink="http://www.w3.org/1999/xlink" x="0px" y="0px"
	 viewBox="0 0 309 273" style="enable-background:new 0 0 309 273;" xml:space="preserve">
<style type="text/css">
	.st0{fill:#954865;}
	.st1{fill:#8CD1B4;}
	.st2{fill:#478F7E;}
	.st3{fill:#FFAE2C;}
	.st4{fill:#F3CAAD;}
	.st5{fill:#FFEF5F;}
	.st6{fill:#FFE161;}
	.st7{fill:#FFD833;}
	.st8{fill:#A36C19;}
	.st9{fill:#FFBA31;}
	.st10{fill:#6EBD91;}
	.st11{fill:#E3E3E3;}
	.st12{fill:#2B4A39;}
	.st13{fill:#D1658E;}
	.st14{fill:#DBBAC7;}
	.st15{fill:#F3882E;}
	.st16{fill:#F5A225;}
	.st17{fill:#472F0B;}
	.st18{fill:#A5F2CF;}
	.st19{fill:#4F846C;}
	.st20{fill:#B51E25;}
	.st21{fill:#740F1D;}
	.st22{fill:#C92129;}
	.st23{fill:#FF483B;}
	.st24{fill:#AD1017;}
	.st25{fill:#F05960;}
	.st26{fill:#FF8F87;}
	.st27{fill:#D43E44;}
</style>
<g>
	<g id="velas">
		<g>
			<g>
				<g>
					<path class="st0" d="M150.7,193.5c-0.1,2.5-21.7,7.2-46.3,6.3C79.9,199,59,192,61.6,191.4C88.6,184.9,150.8,190.9,150.7,193.5
						L150.7,193.5z"/>
					<path class="st1" d="M51.3,190.6c33.3-10.2,110-1.6,109.8,2.3c-0.1,3.9-26.9,11.2-57.1,10.2c-26.4-0.9-49.5-8.9-52.6-11.6
						C51.3,190.9,51.3,190.6,51.3,190.6z M104.5,199.8c24.5,0.9,46.2-3.8,46.3-6.3c0.1-2.5-62.1-8.6-89.1-2.1
						C58.9,192,79.9,199,104.5,199.8L104.5,199.8z"/>
					<path class="st2" d="M161.2,192.9c0,0,0,21.2-25.6,42.8c0,0-22.4,9.2-56.8-2c-22.8-9.6-26.8-37.3-27.3-42.3
						c3.1,2.7,26.2,10.7,52.6,11.6C134.3,204.1,161,196.7,161.2,192.9z"/>
				</g>
				<g>
					<path class="st3" d="M120.2,32.2c9.4,1.5,8,3.3,6.3,3.3c-7.1,1.7-18.6,3.5-27.8-0.6c-4-0.4-4.7-3,5.1-3.4
						c2.6,0.1,5.1,0.4,7.3,0.8C114.1,32.7,117.1,32.4,120.2,32.2L120.2,32.2z"/>
					<path class="st4" d="M123.3,34.5c-3.7,0.3-8.4,1.9-12.1,1.1c-3.6-0.8-7.7-3.1-11.5-3.6c-5.3,0.9-4.2,2.7-0.9,3
						c9.1,4.1,20.6,2.3,27.8,0.6c0.7,0,1.3-0.3,1.2-0.7C126.3,34.5,124.9,34.4,123.3,34.5L123.3,34.5z"/>
					<path class="st5" d="M125.3,32.3c13.8,1.4,5.6,23,3.8,32.2c-2.4,12,1.2,32.5-2.3,37.1c-1.2,1.6-2,0.8-2.5-0.9
						c-0.7-2.6-0.9-7.2-1.2-9.1c-0.7-4.1-2.7-6.9-3.3-10.9c-1.1-6.8,3.2-13.6,0.8-20.4c-1.4-3.9-3.6-4.6-6.4-7.1
						c-2.2-2.1-3.4-4.1-5.5-6.2c-8.6-8.8-3.5,11.2-10.9,10.9c-2.6-0.1-10.1-22.5-5.3-24.6c3.4-1.5,7.4-1.8,11.3-1.6
						c-9.8,0.5-9.1,3-5.1,3.4c9.1,4.1,20.6,2.3,27.8,0.6c1.7,0,3.1-1.8-6.3-3.3C121.9,32.1,123.6,32.1,125.3,32.3L125.3,32.3z"/>
					<path class="st6" d="M99.7,38.7c3.6,1.2,6.6,2.7,10.6,2.8c2.7,0.1,4.1,5.5,5.1,7.1c3.4,4.8,10.2,0.8,13,5.8
						c0.9,1.6,1.5,3.4,1.8,5.2c2.6-10.4,6.8-26.1-5-27.3c-1.7-0.2-3.4-0.1-5.2,0c9.4,1.5,8,3.3,6.3,3.3c-7.1,1.7-18.6,3.5-27.8-0.6
						c-4-0.4-4.7-3,5.1-3.4c-3.9-0.2-8,0.1-11.3,1.6c-0.9,0.4-1.4,1.7-1.5,3.4C93.2,37.8,97.4,37.9,99.7,38.7L99.7,38.7z"/>
					<path class="st6" d="M106,39.5c4.1,1.3,7,2.8,11.5,1.8c2.2-0.5,1.8-0.6,3.7,0c4.8,1.6,9.2-4.3,7.8-8c-1-0.6-2.2-0.9-3.7-1.1
						c-1.7-0.2-3.4-0.1-5.2,0c9.4,1.5,8,3.3,6.3,3.3c-7.1,1.7-18.6,3.5-27.8-0.6c-4-0.4-4.7-3,5.1-3.4c-3.9-0.2-8,0.1-11.3,1.6
						c-0.4,0.2-0.7,0.5-0.9,0.9C93.3,38.1,102.9,38.6,106,39.5L106,39.5z"/>
					<path class="st6" d="M119.8,80.6c0.6,4.1,2.6,6.8,3.3,10.9c0.4,2,0.5,6.6,1.2,9.1c0.5,1.8,1.2,2.6,2.5,0.9
						c1-1.3,1.4-3.9,1.6-7.3c-0.1-1.6-0.3-3.1-0.7-4.5c-1.3-3.9-3.5-7.3-4.4-11.2c-0.5-2.1,0.7-13.7-2.2-16.6
						C122.3,68.1,118.8,74.3,119.8,80.6L119.8,80.6z"/>
					<path class="st7" d="M125.2,102.3l-1.7,97.2c-5,0.3-13.5,0.6-19,0.4c-3.4-0.1-6.7-0.4-9.8-0.7v0L93.2,44.2
						c7.4,0.8,7-6.1,15.6,2.6c2,2.1,3.3,4.1,5.5,6.2c2.8,2.6,5,3.3,6.4,7.1c2.4,6.8-1.8,13.6-0.8,20.4c0.6,4.1,2.6,6.8,3.3,10.9
						C123.5,93.5,124.4,99.7,125.2,102.3L125.2,102.3z"/>
					<path class="st4" d="M116.6,149.5c-0.1,16.7-0.2,33.5-0.4,50.2c2.7-0.1,5.3-0.2,7.3-0.3l1.7-97.1c-0.7-2.6-1.7-8.8-2.1-10.8
						c-0.7-4.1-2.7-6.9-3.3-10.9c-1.1-6.8,3.2-13.6,0.8-20.4c-1-2.7-2.4-3.9-4.1-5.2C119.9,86.2,116.8,118.2,116.6,149.5z"/>
					<path class="st8" d="M101.7,124.6c0.3-13.6,0.7-27.1,1-40.7c0.2-8.2,0.2-16.4,0.2-24.6c-0.8-2.5-2.2-3.4-4.6-0.5
						c-0.7,0.9-1.4,1.8-2,2.7l-0.1,105.8c0.1,0.2,0.2,0.4,0.3,0.6C100.1,154.2,100.9,139.4,101.7,124.6L101.7,124.6z"/>
					<path class="st4" d="M102.4,49.7c2.6,2.5,4.2,5.4,6.2,8.3c2.4,3.6,5.7,4.8,8.9,7.4c2.9,2.4,2.2,8.1,1.8,11.2
						c-0.6,4.5-1,9.1-0.7,13.6c0.5,7.4,2.3,14.6,6.5,19.8l0.1-7.8c-0.7-2.6-1.7-8.8-2.1-10.8c-0.7-4.1-2.7-6.9-3.3-10.9
						c-1.1-6.8,3.2-13.6,0.8-20.4c-1.4-3.9-3.6-4.6-6.4-7.1c-2.2-2.1-3.4-4.1-5.5-6.2c-8.6-8.8-8.1-1.9-15.6-2.6l0.1,4.6
						C96.1,47.1,99.4,46.8,102.4,49.7L102.4,49.7z"/>
				</g>
				<g>
					<path class="st7" d="M112.6,21.9c2.3,0.2,5.8,2.9,2.6,10.6c-0.9,1.4-1.9,2.4-3.3,2.5c-1.4-0.8-2.3-1.9-3-3c0,0,0,0,0-0.1
						C106,24.5,110.4,21.6,112.6,21.9z"/>
					<path class="st9" d="M115.2,32.5c3.2-7.7-0.3-10.4-2.6-10.6c-2.3-0.2-6.7,2.6-3.7,10.1c-2-3.5-1.6-8.3-1.4-12.4
						c0.2-3.7,2.4-21.5,6.1-19.3C117.9,2.7,119.8,24.9,115.2,32.5L115.2,32.5z"/>
				</g>
				<path d="M111.1,37.4c0-2.2,0.2-4.4,0.4-6.5c0.2-2.1,0.4-4.2,0.4-6.3l1.6,0c0,2.2-0.3,4.3-0.4,6.4c-0.2,2.1-0.4,4.2-0.4,6.4
					L111.1,37.4L111.1,37.4z"/>
			</g>
			<g>
				<g>
					<path class="st1" d="M273,236.4c-20.8,5-51.6,9.1-84.6,7.9c-27.4-1-53-5.9-71.8-11C166.3,222.4,241.1,229.1,273,236.4
						L273,236.4z"/>
					<path class="st10" d="M299.3,224.6c-0.1,3.3-10.1,7.9-26.3,11.8c-32-7.3-106.7-14-156.4-3.1c-21.4-5.9-34-12.1-30.6-13.1
						C150.8,200.4,299.6,217,299.3,224.6L299.3,224.6z"/>
					<path class="st11" d="M86.1,220.2c-3.4,1,9.2,7.3,30.6,13.1c5.5-1.2,11.3-2.2,17.3-3c-12-3.6-23.7-8.1-35.1-13.4
						C94.3,217.9,90,219,86.1,220.2z"/>
					<path class="st12" d="M264.5,216.4c-4.2,4.2-8.6,8.2-13.3,11.8c-1.6,1.2-3.3,2.4-4.9,3.5c4.9,0.6,9.5,1.3,13.8,2
						c9.3-3.6,18.6-7.9,26.1-14C280.4,218.7,273.1,217.5,264.5,216.4L264.5,216.4z"/>
					<path class="st13" d="M76.5,219.1c0,0.6,0.2,1.4,0.6,2.2c3.7,3,15.8,8.4,33.2,13.5h0c20.4,6,48.1,11.7,77.7,12.8
						c35.5,1.2,68.7-3.5,91.3-9.5c12.8-3.4,22.2-7.2,26.7-10.6c1.1-1.3,2.1-2.6,3-3.9C309.3,214.5,147.1,195.1,76.5,219.1z
						 M273,236.4c-20.8,5-51.6,9.1-84.6,7.9c-27.4-1-53-5.9-71.8-11c-21.4-5.9-34-12.1-30.6-13.1c64.7-19.8,213.5-3.1,213.3,4.4
						C299.2,227.9,289.2,232.4,273,236.4L273,236.4z"/>
					<path class="st0" d="M279.3,238c12.8-3.4,22.2-7.2,26.7-10.6c-15.7,18.2-53.6,29-53.6,29s-61.6,18.9-125.5-4.4
						c-31.6-13.4-46.8-24.7-49.8-30.8c3.7,3,15.8,8.4,33.2,13.5h0c20.4,6,48.1,11.7,77.7,12.8C223.5,248.8,256.7,244,279.3,238
						L279.3,238z"/>
					<path class="st14" d="M144.6,244.4c-0.4-0.7-1.1-1.3-1.9-1.9c-12-2.2-23-4.9-32.4-7.7h0c-17.4-5.1-29.5-10.6-33.2-13.5
						c3,6.1,18.1,17.4,49.8,30.8c5.6,2,11.2,3.8,16.7,5.2C145.1,253,145.8,248.7,144.6,244.4L144.6,244.4z"/>
					<path class="st14" d="M279.3,238c-5,1.3-10.6,2.6-16.6,3.8c-8.2,7.4-17.4,13.6-27.4,18.5c10.7-1.9,17.1-3.8,17.1-3.8
						s37.9-10.8,53.6-29C301.5,230.8,292.2,234.6,279.3,238L279.3,238z"/>
				</g>
				<g>
					<path class="st15" d="M245.3,138.1c5.8,1.4,0.6,5-3.7,6.9c-4,2.6-18.1,1.3-25,1.7c-8,0.4-15.5,1.5-23.6,1.7
						c-18.3,0.4-30.9-6-49.5-6.1c-11.8,0.5-16.8-2.5-4.2-5.1c10-1.7,29-3.3,64.7-1.9c9.1,0.3,26.9,0.5,39.9,2.7c0.1,0,0.2,0,0.3,0
						c0.3,0,0.5,0.1,0.8,0.1C245,138,245.1,138,245.3,138.1L245.3,138.1z"/>
					<path class="st7" d="M138.4,142.2c0.2,0,0.4-0.1,0.6-0.1c10-1.8,29-3.3,64.7-1.9c9.1,0.3,26.9,0.5,39.9,2.7c0.1,0,0.2,0,0.3,0
						c0.3,0,0.5,0.1,0.8,0.1c0.2,0,0.3,0.1,0.5,0.1c2.8-1.8,4.4-4,0.2-5c-0.1,0-0.3-0.1-0.5-0.1c-0.3,0-0.5-0.1-0.8-0.1
						c-0.1,0-0.2,0-0.3,0c-13-2.2-30.8-2.3-39.9-2.7c-35.7-1.3-54.7,0.2-64.7,1.9C128.6,139.4,130.5,141.8,138.4,142.2L138.4,142.2z
						"/>
					<path class="st4" d="M198.3,146.5c-5.5,0-10-0.7-14.8-3.4c-5.5-3.1-11.5-5.3-17.1-8.3c-12.9,0.4-21.5,1.3-27.2,2.3
						c-12.6,2.7-7.6,5.6,4.2,5.1c18.7,0.1,31.2,6.5,49.5,6.1c6.2-0.1,11.9-0.8,17.9-1.3C206.6,146.7,202.4,146.5,198.3,146.5z"/>
					<g>
						<path class="st9" d="M192.7,138.1c-7.2-0.3-9.1-4.2-7.7-18.4c2.2-22.4,8.5-45.2,13.7-44.5c3.8,0.5,5.1,30.5,4.6,44.6
							C202.7,136.3,198.5,138.3,192.7,138.1L192.7,138.1z"/>
						<path class="st7" d="M190.3,122c6.6-7.8,17.7,14.8,2.4,16.1C186.8,136.1,183.8,129.6,190.3,122z"/>
						<path d="M191.7,152.3c-0.6-7-0.1-14.3,1.5-22.5l2.3,0.4c-1.5,8-2,15.1-1.4,21.9L191.7,152.3L191.7,152.3z"/>
					</g>
					<path class="st7" d="M253.9,167c-3.7,2.2-8-6-15-6.7c-3.7-0.3-9,3.4-13.3,3.8c-7.6,0.6-10-3.5-15.7-4.9
						c-19.1-4.9-7.9,9.4-17.9,15.8c-11.9,7.5-12.5-11.3-21.7-11.6c-6.7-0.2-7.3,5.9-14.1,5.7c-4.5-0.1-3.6-7.9-10.9-4.6
						c-9.8,4.3,1.7,21.8-7.1,26.6c-0.9,0.5-1.8,0.9-2.6,1.2c-12.4,4.4-8.6-17.9-8.5-22.5c0.3-8.1-7-24.8,1.1-29.4
						c0.6-0.3,2.9-1.8,10.9-3.2c-12.6,2.7-7.6,5.6,4.2,5.1c18.7,0.1,31.2,6.5,49.5,6.1c8.1-0.2,15.6-1.2,23.6-1.7
						c6.9-0.4,21,1,25-1.7c4.3-1.9,9.5-5.5,3.7-6.9c6.9,1.3,12.2,3.2,13.6,6.2c2.3,4.8,0.6,7.8-0.5,12.6
						C257,163.2,255.5,166,253.9,167L253.9,167z"/>
					<path class="st7" d="M129.7,175.6c-0.5,0-1.1,0-1.6,0.1c-0.6,3.1-1.2,6.5-0.2,9.5c1.1,2.9,6,9.3,7.9,2.6
						C137.1,183.5,135.6,175.8,129.7,175.6L129.7,175.6z"/>
					<path class="st7" d="M251.8,161.5c-3.3-2.2-7.7-2.7-9.8-0.3c5.2,2.2,8.8,7.7,11.9,5.9c0.6-0.4,1.2-1,1.8-2.1
						C254.6,163.6,253.3,162.4,251.8,161.5L251.8,161.5z"/>
					<path class="st7" d="M183.3,169.7c-1,0.9-1.1,3.1-0.3,4c4.3,4.6,5.1-0.9,4.4-2.1C186.9,170.7,184.5,168.6,183.3,169.7
						L183.3,169.7z"/>
					<path class="st7" d="M260,149.6c0.1-1.7-0.2-3.4-1.1-5.4c-0.1-0.2-0.3-0.5-0.4-0.7C259,145.2,259.7,147.4,260,149.6L260,149.6z
						"/>
					<path class="st7" d="M129.8,165.5c0.4-1.9,0.6-3.7,0.6-5.6c0.1-2.3,0.1-11.4,4.9-10.4c2.8,0.6,4.4,3.4,7.9,3.5
						c2.9,0.1,5.4,2.9,7.2,4.8c5.6,6.1,20-11,24.4-0.1c1.8,4.5,8.1,11.7,13.1,5.9c2.1-2.4,3.9-5,5.8-7.4c1.9-2.4,4.6-3.5,7.6-3.1
						c3.9,0.5,7.2,4.1,10.5,5.9c6.6,3.6,14,3.7,18.9-2.2c1.2-1.4,2.3-3,3.6-4.2c2.3-2.1,4.4-3.4,7.5-2.5c1.5,0.4,2.8,2,3.8,3
						c1,1.1,2.1,2.2,3.3,3.1c7.6,0.2,10.7-2.2,9.4-7.2c-0.5-2.3-1.2-4.9-2.1-7.4c-2.5-1.5-6.4-2.7-10.9-3.5c5.8,1.4,0.6,5-3.7,6.9
						c-4,2.6-18.1,1.3-25,1.7c-8,0.4-15.5,1.5-23.6,1.7c-18.3,0.4-30.9-6-49.5-6.1c-11.8,0.5-16.8-2.5-4.2-5.1
						c-8,1.4-10.4,2.9-10.9,3.2c-7.8,4.5-1.2,20.3-1.1,28.7C128.4,168.5,129.4,167.4,129.8,165.5L129.8,165.5z"/>
					<path class="st16" d="M253.9,167l-3,73.6c-18.1,2.8-39.8,4.4-62.5,3.6c-18.5-0.6-36.2-3.1-51.5-6.2l-1.3-45.9
						c0.8-0.3,1.6-0.7,2.6-1.2c8.9-4.8-2.6-22.3,7.1-26.6c7.3-3.2,6.4,4.5,10.9,4.6c6.8,0.2,7.4-5.9,14.1-5.7
						c9.2,0.4,9.8,19.1,21.7,11.6c10-6.4-1.1-20.7,17.9-15.8c5.7,1.5,8.1,5.5,15.7,4.9c4.3-0.3,9.6-4.1,13.3-3.8
						C245.9,161,250.2,169.2,253.9,167L253.9,167z"/>
					<path class="st17" d="M171.7,163.6c-0.4-0.1-0.9-0.2-1.3-0.2c-6.7-0.2-7.3,5.9-14.1,5.7c-4.5-0.1-3.6-7.9-10.9-4.6
						c-9.8,4.3,1.7,21.8-7.1,26.6c-0.9,0.5-1.8,0.9-2.6,1.2l1.3,45.9c9.9,2,20.8,3.7,32.2,4.9C169.5,216.5,170.6,190.1,171.7,163.6
						L171.7,163.6z"/>
					<path class="st8" d="M159.6,216.8c-1.4-10.5,1.7-21.1-0.2-31.4c-0.6-3.2-1.7-7.8-5.6-8.6c-5.1-1-8.1,2.8-9.8,6.9
						c0,0,0,0.1,0,0.1c0.3,3.5,0.1,6.8-2.4,8.6c-0.4,1.9-0.8,3.9-1.1,5.8c-0.5,8.3-0.3,16.7,1.7,24.8c1.1,4.3,3.3,12.3,8.7,13.4
						c0.2,0,0.4,0,0.6,0.1c0.3,0,0.6,0.1,0.9,0C162.5,236.3,160.5,223.5,159.6,216.8L159.6,216.8z"/>
					<path class="st15" d="M238.9,160.4c-3.7-0.3-9,3.4-13.3,3.8c-0.8,0.1-1.6,0.1-2.3,0c-0.1,19.8,0.2,39.7,0.1,59.5
						c-0.1,6.7,0,13.3,0,20c9.8-0.7,19.1-1.7,27.5-3l3-73.6C250.2,169.2,245.9,161,238.9,160.4L238.9,160.4z"/>
					<path class="st15" d="M147,173.2c1.1-2.7,4.1-1.1,5.9-0.3c4.4,2.1,7.1,4.4,12.2-0.2c1-0.9,2-1.8,3.1-2.6
						c0.9-0.7,1.9-0.5,2.9-0.4c5.1,0.9,7.1,6.7,13.1,6.6c0.1,0,0.2,0,0.4,0c-5.4-2.3-7.6-12.6-14.3-12.9c-6.7-0.2-7.3,5.9-14.1,5.7
						c-4.5-0.1-3.6-7.9-10.9-4.6c-9.8,4.3,1.7,21.8-7.1,26.6c-0.9,0.5-1.8,0.9-2.6,1.2l0.1,3.1C145.8,193.4,143.6,181.5,147,173.2
						L147,173.2z"/>
					<path class="st15" d="M197.7,169.7c4.1-3.8,8.4-8.6,14.6-6.1c4.4,1.8,8.8,5,13.6,5.1c3.8,0.1,7.6-0.8,11.4-0.1
						c6.4,1.2,8.2,7,13.7,9.5c0.7,0.3,1.5,0.6,2.3,0.9l0.5-12c-3.7,2.2-8-6-15-6.7c-3.7-0.3-9,3.4-13.3,3.8
						c-7.6,0.6-10-3.5-15.7-4.9c-16.4-4.2-10.5,5.8-14.8,12.7C196,171.2,196.9,170.4,197.7,169.7L197.7,169.7z"/>
				</g>
			</g>
			<g>
				<g>
					<path class="st18" d="M10.9,246.3c24.8-6,85.3-4.5,110.3,3.1c-4.7,3.5-30.7,8.7-54.2,8.6C42.6,257.8,14.5,250.5,10.9,246.3
						L10.9,246.3L10.9,246.3z"/>
					<path class="st19" d="M10.5,245.6c0.1-9.4,111.5-7.4,111.4,2.8c0,0.3-0.3,0.7-0.7,1c-25-7.6-85.5-9.1-110.3-3.1l0,0
						C10.7,246,10.5,245.8,10.5,245.6L10.5,245.6z"/>
					<path class="st1" d="M121.9,248.4c0.1-10.2-111.3-12.2-111.4-2.8c0,0.2,0.2,0.5,0.4,0.7c3.7,4.2,31.7,11.5,56.1,11.7
						c23.5,0.2,49.5-5.1,54.2-8.6C121.7,249,121.9,248.7,121.9,248.4L121.9,248.4z M0.1,244.7c0.1-13.2,132.3-10.6,132.2,3.7
						c0,0.3-0.2,0.7-0.5,1c-4.2,4.9-36.1,12.8-64.7,12.6C36.5,261.8,0.9,250.3,0.1,244.7L0.1,244.7z"/>
					<path class="st10" d="M132.2,257.1c0,5.7-30.5,17.4-78.1,15.7c-30.7-1.1-53.3-13.3-54-20l0.1-8.1c0.8,5.6,36.3,17.1,67,17.3
						c28.6,0.2,60.5-7.6,64.7-12.6L132.2,257.1L132.2,257.1z"/>
					<path class="st12" d="M9.2,260.1c5.1,3.5,13.9,7.1,25,9.1c-0.1-3.3-0.2-6.5-0.2-9.8c-10.3-2-19.4-4.8-24.7-7.4
						C9.4,254.7,9.3,257.4,9.2,260.1L9.2,260.1z"/>
					<path class="st11" d="M131.8,249.5c-2.9,3.4-19.1,8.2-38.3,10.8c-0.3,3.6-0.7,7.3-1,10.9c25-3.3,39.7-10.1,39.8-14.1
						L131.8,249.5L131.8,249.5z"/>
				</g>
				<g>
					<path class="st20" d="M82.1,137.5c3.5,1.1,1.4,3.1,0.2,3.8c-9.5,4.7-18.9,2.5-28.6-0.6c-3.6-1.6-2.2-4.8,8.1-5.9
						c7,0.1,14,1.3,16.5,1.8c0.9,0.2,1.8,0.4,2.6,0.6c0.4,0.1,0.7,0.2,1,0.3C82,137.5,82,137.5,82.1,137.5L82.1,137.5z"/>
					<path class="st21" d="M66.1,139.3c-3.3-0.6-6-1.9-7.1-4.1c-7.8,1.3-8.6,4-5.4,5.5c9.7,3.1,19.1,5.3,28.6,0.6
						c0.1-0.1,0.3-0.2,0.5-0.3C77,137.9,72.1,140.4,66.1,139.3L66.1,139.3z"/>
					<path class="st20" d="M86.2,190.1L84,251.8c-20.3,5.6-26,2-39-1.4l0.6-16.7l0,0c4.2-4.8,1-29.2,0.2-37.7
						c-0.5-6,0.8-11.6,1.1-18c0.3-8.3,0.1-14.8,5.7-9.4c4.1,4,2.4-17.7,11.2-9.6c3.6,3.3,2,10.1,6.7,8.6c2-0.6,2.3-7.6,5.2-7.5
						c6.2,0.2,4.9,5.8,5.3,8.6C82.7,182.2,79.8,190.7,86.2,190.1L86.2,190.1z"/>
					<path class="st22" d="M45,250.5c5.1,1.3,9,2.6,13.1,3.5c0.2-6.8,0.5-13.6,0.8-20.3c0.6-15.3,1.4-30.6,1.9-45.9
						c0.3-9.9,1.4-20.2,0.7-30.2c-6.1-2.3-5.1,14.7-8.8,11.2c-5.6-5.4-5.4,1.1-5.7,9.4c-0.2,6.4-1.6,11.9-1.1,18
						c0.7,8.5,4,32.9-0.2,37.7L45,250.5L45,250.5z"/>
					<path class="st23" d="M54.7,175.4c-0.7,1.3-1.3,2.8-1.6,4.3c-2,8.5-1.2,16.6-0.3,25.3c0.6,5.9,0.3,13.6,0.1,19.6
						c-0.9,22.1,2.6,22.7,2.7,20.3c0.6-15.3,1.6-39.7,2.1-55c0.1-4.8,2.2-10,0.7-14.8C57.8,173.4,56,173.1,54.7,175.4L54.7,175.4z"
						/>
					<path class="st24" d="M81,168.9c-0.3-2.6,0.8-7.9-4.6-8.5c1,31.1,0,62.3-0.9,93.4c2.5-0.5,5.3-1.1,8.4-2l2.3-61.8
						C79.8,190.7,82.7,182.2,81,168.9L81,168.9z"/>
					<path class="st21" d="M45.8,196.1c0.7,8.5,4,32.9-0.2,37.7l-0.1,2.9c8.3-1.4,4.2-25.7,4.1-30.8c-0.8-34.2,7.1-35.5,8.3-39.3
						c0.8-2.6,5.4-2.2,6.6,0c6.8,11.8,14.1-3.8,17.3,15.9c-0.1-3.5,0-8.2-0.7-13.7c-0.3-2.8,0.9-8.3-5.3-8.6
						c-2.9-0.1-3.3,6.8-5.2,7.5c-4.7,1.5-3.1-5.3-6.7-8.6c-8.8-8.1-7.1,13.5-11.2,9.6c-5.6-5.4-5.4,1.1-5.7,9.4
						C46.6,184.5,45.3,190.1,45.8,196.1L45.8,196.1z"/>
				</g>
				<g>
					<path class="st7" d="M73,131.3L73,131.3c-1.8,6.3-4.8,7.1-4.8,7.1c-1.7-0.6-2.7-3.7-3.2-7.4c-0.1-0.7-0.2-1.5-0.3-2.2
						C64.6,121.6,73.2,119.9,73,131.3z"/>
					<path class="st9" d="M73,131.3c0.2-11.4-8.4-9.8-8.3-2.5c-0.5-4.5-0.4-9.5-0.4-12.2c0.1-4.6,0.9-17.9,3.9-20.4
						c4-3.3,5.6,16.1,5.9,21C74.4,123.7,73.9,128.2,73,131.3L73,131.3z"/>
				</g>
				<polygon points="69.2,144.5 66.9,144.4 67.4,131.2 69.7,131.3 				"/>
				<path class="st25" d="M90.8,167.6c0.3,4.7,0.3,22-4.6,22.4c-6.4,0.6-3.5-7.8-5.2-21.2c-0.3-2.8,0.9-8.3-5.3-8.6
					c-2.9-0.1-3.3,6.8-5.2,7.5c-4.7,1.5-3.1-5.3-6.7-8.6c-8.8-8.1-7.1,13.5-11.2,9.6c-5.6-5.4-5.4,1.1-5.7,9.4
					c-0.2,6.4-1.6,11.9-1.1,18c0.7,8.5,4,32.9-0.2,37.7l0,0c-0.5,0.5-1,0.8-1.7,0.8c-4.6-0.2-1-14.2-0.9-17.7
					c0.3-8-0.3-14.8-1.3-22.6c-1.3-10.6,1.4-21.4,0.7-32c-0.5-8.4-0.8-22.8,7.7-25.9c3.3-1.2,7.5-1.5,11.7-1.5
					c-10.4,1.1-11.8,4.3-8.1,5.9c9.7,3.1,19.1,5.3,28.6,0.6c1.1-0.7,3.3-2.7-0.2-3.8c11.8,3.1,8.9,7.2,8.7,14.1
					C90.5,158.7,90.4,160.8,90.8,167.6L90.8,167.6z"/>
				<path class="st26" d="M54,169c0.9-3,0.7-6.5-0.3-9.4c-1.8-5.3-2.8,1.3-2.7,3.6c0,1.5,0.2,3,0.4,4.4c0.4,0.3,0.8,0.6,1.3,1.1
					C53.2,169.2,53.6,169.3,54,169L54,169z"/>
				<path class="st26" d="M85.8,182.9c-0.3-0.6-0.6-1.2-0.8-1.8c-0.4-1.5-0.5-2.5-0.2-4.1c0.5-2.5,0.9-5,0.8-7.5
					c0-1.5-1.5-8.8-5-5.8c0.5,1.8,0.3,3.9,0.4,5.2c1.4,11.5-0.5,19.4,3.1,20.9C86.3,189.2,87.7,187,85.8,182.9L85.8,182.9z"/>
				<path class="st27" d="M83.6,138.4c0.1,0.1,0.2,0.3,0.3,0.5c2.3,3.7,0.6,6.9,0.5,12c-0.1,6.7-1.7,4.7,2.3,17.3
					c2.2,6.9-0.8,14.3-0.6,21.4c0,0.2,0,0.4,0,0.5c0.1,0,0.1,0,0.2,0c4.9-0.5,4.8-17.7,4.6-22.4c-0.4-6.9-0.4-9-0.1-16
					c0.3-6.6,2.8-10.7-7.4-13.7C83.4,138.1,83.5,138.2,83.6,138.4L83.6,138.4z"/>
				<path class="st27" d="M74.4,153.7c-3.4,0.8-2.5,9.4-3.5,13.8c1.2-1,1.8-4.7,3.2-6.4C74,160.2,75.6,153.5,74.4,153.7z"/>
				<path class="st27" d="M49.5,137.3c0.6-0.5,1.3-1,1.9-1.4c-0.5,0.1-0.9,0.3-1.4,0.4c-3.9,1.4-5.9,5.2-6.9,9.7
					C44.3,142.9,46.3,139.9,49.5,137.3z"/>
				<path class="st27" d="M46.9,178.1c0.1-2.4,0.1-4.6,0.3-6.5c-1-5-1.1-11.2-1.8-9.3c0.1,1.7,0,3.4-0.3,5.1
					c-1,5.8-1.7,11.5-1.7,17.5c0,12.1,1.2,24.1,0.8,36.2c-0.1,3.5,0.2,9-2,12.4c0.4,0.6,0.9,1,1.6,1.1c0.7,0,1.3-0.3,1.7-0.8l0,0
					c4.2-4.8,1-29.2,0.2-37.7C45.3,190.1,46.6,184.5,46.9,178.1L46.9,178.1z"/>
				<path class="st26" d="M63.5,154.8c-1.3,2.8,2,5,2.4,7.8c0.7,2,1.1,4.1,2.2,5c1.3-4.2,1.2-7.8,1.4-11.3
					C69.5,153.9,64.6,152.6,63.5,154.8L63.5,154.8z"/>
				<path class="st26" d="M58,150.2c1.2,0.5,2.3,0.9,3.4,1c1.5-0.5,3.2-0.8,5.1-0.8c0.4,0,0.8,0,1.2,0c1.6-0.5,3.3-1.1,5.3-1.5
					c1.3-0.2,3.2,0.2,5.2,0.7c0.2,0,0.3-0.1,0.5-0.1c4.7-1.7,7.9-6.2,7.3-10.6c-1.1-0.5-2.4-0.9-4-1.3c3.5,1.1,1.4,3.1,0.2,3.8
					c-9.5,4.7-18.9,2.5-28.6-0.6c-3.6-1.6-2.2-4.8,8.1-5.9c-4.2-0.1-8.5,0.3-11.7,1.5c-6,2.2-7.6,10-7.9,17.4
					c0.9,0.5,4.9,0.6,5.6-1.6c0.2-0.7,1.1-1.2,1.8-1.6C52.8,149,54.7,148.7,58,150.2L58,150.2z"/>
				<path class="st26" d="M89.8,141.3c-0.3,3.7-2.2,7.2-5.4,9.5c3.2,0.3,5.9-0.6,6.6-4.5c0.1-0.3,0.1-0.6,0.1-0.9
					C91.2,143.9,90.9,142.5,89.8,141.3L89.8,141.3z"/>
			</g>
		</g>
	</g>
</g>
</svg>
